G04 ================== begin FILE IDENTIFICATION RECORD ==================*
G04 Layout Name:  E:/material/lool Inds Vibration/hardware/v2.0/pcb/vibration.brd*
G04 Film Name:    BOTTOM*
G04 File Format:  Gerber RS274X*
G04 File Origin:  Cadence Allegro 16.6-2015-S065*
G04 Origin Date:  Sat Jul 02 00:54:54 2016*
G04 *
G04 Layer:  ETCH/BOTTOM*
G04 Layer:  PIN/BOTTOM*
G04 Layer:  VIA CLASS/BOTTOM*
G04 *
G04 Offset:    (0.000 0.000)*
G04 Mirror:    No*
G04 Mode:      Positive*
G04 Rotation:  0*
G04 FullContactRelief:  No*
G04 UndefLineWidth:     1.000*
G04 ================== end FILE IDENTIFICATION RECORD ====================*
%FSLAX25Y25*MOIN*%
%IR0*IPPOS*OFA0.00000B0.00000*MIA0B0*SFA1.00000B1.00000*%
%ADD12C,.003937*%
%ADD11P,.063921X8X22.5*%
%ADD10C,.016*%
%ADD17R,.02126X.035433*%
%ADD21R,.035433X.02126*%
%ADD22C,.035433*%
%ADD16R,.043307X.055118*%
%ADD19C,.059055*%
%ADD13C,.070866*%
%ADD26C,.098425*%
%ADD25C,.062992*%
%ADD15R,.086614X.037402*%
%ADD24R,.059055X.059055*%
%ADD18C,.094488*%
%ADD14R,.055118X.029528*%
%ADD20R,.070866X.070866*%
%ADD23R,.062992X.062992*%
%ADD27C,.008*%
%ADD28C,.015*%
%ADD31C,.036004*%
%ADD30R,.055312X.067122*%
%ADD29R,.033264X.047436*%
G75*
%LPD*%
G75*
G36*
G01X7800Y863D02*
G02X7290Y478I-400J0D01*
G02X100Y10000I2710J9522D01*
G01Y417000D01*
G02X7290Y426522I9900J0D01*
G02X7800Y426137I109J-385D01*
G01Y125897D01*
X7800Y64329D01*
X7800Y863D01*
G37*
G36*
G01X13400Y95000D02*
Y122009D01*
X14745Y123354D01*
X14829Y123353D01*
G03X16201Y126340I18J1800D01*
G02Y126604I150J132D01*
G03X16648Y127798I-1353J1187D01*
G02X17048Y128200I400J2D01*
G01X25663D01*
X26608Y127255D01*
G02X26326Y126572I-283J-283D01*
G01X24529D01*
Y121428D01*
X27267D01*
X27534Y121160D01*
G02X27252Y120477I-283J-283D01*
G01X26871D01*
Y113365D01*
X28037D01*
Y113162D01*
G03X31637I1800J-25D01*
G01Y113365D01*
X32803D01*
Y120095D01*
G02X33485Y120378I400J0D01*
G01X34965Y118898D01*
G02X34794Y118232I-283J-283D01*
G03X37028Y115998I506J-1728D01*
G02X37694Y116169I384J-112D01*
G01X41200Y112663D01*
Y110245D01*
G02X40582Y109910I-400J0D01*
G03X40571Y109917I-985J-1507D01*
G02X40501Y110177I108J168D01*
G03X37217Y111639I-1601J823D01*
G01X37202Y111599D01*
X34200Y108597D01*
Y103328D01*
X38529Y99000D01*
X41200D01*
Y95000D01*
X13400D01*
G37*
G36*
G01X214700Y87003D02*
Y208897D01*
X211200Y212397D01*
Y239500D01*
X228834D01*
G02X229117Y238817I0J-400D01*
G01X223544Y233244D01*
X223495Y233230D01*
G03X225722Y231002I498J-1730D01*
G01X225736Y231052D01*
X234184Y239500D01*
X354300D01*
Y67500D01*
X211200D01*
Y83503D01*
X214700Y87003D01*
G37*
G36*
G01X354300Y835D02*
Y278974D01*
G03Y279026I-1800J26D01*
G01Y426165D01*
G02X354805Y426551I400J0D01*
G02X362100Y417000I-2605J-9551D01*
G01Y10000D01*
G02X354805Y449I-9900J0D01*
G02X354300Y835I-105J386D01*
G37*
%LPC*%
G75*
G36*
G01X23822Y110635D02*
X24402Y111215D01*
X24409Y111286D01*
G02X27987Y110883I1791J-186D01*
G03X28384Y110435I397J-48D01*
G01X32603D01*
Y103723D01*
X27071D01*
Y108951D01*
G03X26586Y109342I-400J0D01*
G02X25999Y109311I-386J1758D01*
G01X25903Y109322D01*
X24929Y108347D01*
Y103523D01*
X21608D01*
Y102572D01*
X22271D01*
Y97428D01*
X18545D01*
Y102572D01*
X19208D01*
Y103523D01*
X18997D01*
Y110635D01*
X23822D01*
G37*
G36*
G01X349944Y151248D02*
X352950Y148242D01*
Y116515D01*
G02X349850I-1550J-915D01*
G01Y146958D01*
X347752Y149056D01*
X347702Y149070D01*
G02X349930Y151298I498J1730D01*
G01X349944Y151248D01*
G37*
G36*
G01X293050Y133742D02*
X304242Y122550D01*
X332085D01*
G02X334550Y120085I915J-1550D01*
G01Y111758D01*
X329575Y106783D01*
Y100940D01*
G02X326475I-1550J-915D01*
G01Y108067D01*
X331450Y113042D01*
Y119450D01*
X302958D01*
X289950Y132458D01*
Y137985D01*
G02X293050I1550J915D01*
G01Y133742D01*
G37*
G54D31*
X214000Y214000D03*
X229500Y88019D03*
X232500Y215400D03*
X236646Y81646D03*
X247992Y231408D03*
X237134Y225000D03*
X265500Y88100D03*
X254500Y215300D03*
X259500Y225200D03*
X272646Y81946D03*
X274316Y224508D03*
X296316D03*
X281992Y225000D03*
Y231000D03*
X308646Y81854D03*
X301500Y88000D03*
X303992Y231000D03*
Y225000D03*
X325992Y231000D03*
Y225000D03*
X318311Y224502D03*
X334016Y217978D03*
Y224000D03*
X348000Y203000D03*
G54D30*
X21963Y116921D03*
G54D29*
X26392Y100000D03*
X20408Y124000D03*
%LPD*%
G75*
G54D10*
X4282Y3966D03*
Y13966D03*
Y23966D03*
Y33966D03*
Y43966D03*
Y53966D03*
Y63966D03*
Y73966D03*
Y83966D03*
Y93966D03*
Y103966D03*
Y113966D03*
X10900Y130500D03*
X4282Y123966D03*
Y133966D03*
Y143966D03*
Y153966D03*
Y163966D03*
Y173966D03*
Y183966D03*
Y193966D03*
Y203966D03*
Y213966D03*
Y223966D03*
Y233966D03*
Y243966D03*
Y253966D03*
Y263966D03*
Y273966D03*
Y283966D03*
Y293966D03*
Y303966D03*
Y313966D03*
Y323966D03*
Y333966D03*
Y343966D03*
Y353966D03*
Y363966D03*
Y373966D03*
Y383966D03*
Y393966D03*
Y403966D03*
Y413966D03*
Y423966D03*
X14400Y72600D03*
X21900Y62900D03*
X28039Y76439D03*
X16400Y86984D03*
X17300Y76134D03*
X16400Y91421D03*
X16100Y81000D03*
X22500Y96000D03*
X17000Y96200D03*
X14500Y96300D03*
Y100900D03*
X14400Y106100D03*
X26200Y111100D03*
X15600Y122300D03*
X14679Y117820D03*
X15100Y109700D03*
X14847Y125153D03*
X14848Y127791D03*
X14200Y130600D03*
X13900Y138158D03*
X15400Y135500D03*
X25344Y165144D03*
X19400Y164700D03*
X26400Y168000D03*
X19500Y167800D03*
X22700Y168400D03*
X20400Y171200D03*
X25300Y175300D03*
X27006Y226800D03*
X18000Y242000D03*
Y256000D03*
Y273000D03*
Y296000D03*
Y329000D03*
Y369000D03*
X14100Y391100D03*
X34550Y44650D03*
X40286Y91800D03*
X30400Y78000D03*
X33306Y93506D03*
X35300Y116504D03*
X29837Y113137D03*
X39600Y108401D03*
X38900Y111000D03*
X37500Y114100D03*
X34300Y110500D03*
X35950Y112650D03*
X33306Y141300D03*
X38400Y168000D03*
X30500Y164000D03*
X36200Y174900D03*
X30156Y194200D03*
X36455Y194500D03*
X33306Y194100D03*
X39300Y194700D03*
X42754Y194654D03*
X35138Y209430D03*
X33800Y207200D03*
X37100Y223900D03*
X39900Y224600D03*
X42494Y224781D03*
X40300Y243400D03*
X40537Y265863D03*
X33532Y270268D03*
X35616Y306984D03*
X35500Y328000D03*
Y345000D03*
X44314Y91800D03*
X54600Y91400D03*
X53400Y77500D03*
X47085Y104900D03*
X57900Y92700D03*
X47300Y91926D03*
X45300Y152800D03*
X54900Y150200D03*
X56803Y152244D03*
X53100Y165400D03*
X55241Y163924D03*
X54400Y168400D03*
X58896Y166159D03*
X47800Y163400D03*
X50600Y177000D03*
X58000D03*
X50600Y171800D03*
X52100Y194200D03*
X49200Y194100D03*
X55300D03*
X58600Y193000D03*
X45904Y194696D03*
X55600Y226500D03*
X44994Y226413D03*
X52400Y226200D03*
X58600Y227700D03*
X49200Y226100D03*
X51000Y238100D03*
X58568Y265161D03*
X49200Y260043D03*
X59300Y251700D03*
X58639Y272839D03*
X58121Y270280D03*
X57521Y267720D03*
X50132Y289716D03*
X48516Y299861D03*
X48841Y302441D03*
X49500Y311000D03*
X60076Y304135D03*
Y302135D03*
Y300135D03*
Y298135D03*
X54022Y320322D03*
X58360Y324607D03*
Y327607D03*
X58400Y313800D03*
X58360Y336607D03*
Y333607D03*
Y330607D03*
X48900Y345000D03*
X74400Y89900D03*
X61400Y90600D03*
X74400Y83300D03*
X61400Y83848D03*
X66900Y121700D03*
X72600Y112800D03*
X69400Y117500D03*
X75103Y115400D03*
X75000Y111000D03*
X66700Y118100D03*
X73215Y109110D03*
X72800Y117100D03*
X69900Y110600D03*
X74900Y127964D03*
X72004Y130164D03*
X70599Y134434D03*
X72871Y138364D03*
X74247Y132364D03*
X69900Y137700D03*
X61400Y125700D03*
X71800Y127500D03*
X65900Y152000D03*
X70263Y153311D03*
X64085Y150139D03*
X72700Y149085D03*
X61276Y151700D03*
X69596Y147598D03*
X74500Y140390D03*
X75413Y143087D03*
X60513Y142313D03*
X69700Y145000D03*
X74663Y153748D03*
X70702Y150748D03*
X67018Y149652D03*
X74277Y151154D03*
X68000Y193700D03*
X61700Y248500D03*
X68500Y273800D03*
X69400Y277612D03*
X67700Y270954D03*
X73684Y289716D03*
X61800Y285000D03*
X62100Y292000D03*
X75282Y299882D03*
X64076Y304135D03*
X62076D03*
X64076Y302135D03*
X62076D03*
X64076Y300135D03*
X62076D03*
X64076Y298135D03*
X62076D03*
X61360Y324607D03*
X64360D03*
X67360D03*
Y327607D03*
X64360D03*
X61360D03*
X75700Y316000D03*
X74700Y344000D03*
X67360Y336607D03*
X64360D03*
X61360D03*
X67360Y333607D03*
X64360D03*
X61360D03*
X67360Y330607D03*
X64360D03*
X61360D03*
X61400Y349500D03*
X66400Y347000D03*
X74800Y350000D03*
X75049Y366000D03*
X68100Y422900D03*
X85400Y25700D03*
X90384Y69984D03*
X86400Y81100D03*
X79400Y83500D03*
X91400Y106800D03*
X90900Y143200D03*
X88009Y140100D03*
X90300Y171137D03*
X89700Y178000D03*
X90600Y185000D03*
X86960Y195577D03*
X86100Y192700D03*
X89700Y193800D03*
X89000Y201795D03*
X86497Y198504D03*
X90300Y190000D03*
X89274Y210595D03*
X89100Y206195D03*
X87398Y212947D03*
X89000Y214995D03*
X87534Y204066D03*
X87471Y208529D03*
X90300Y217300D03*
X80639Y265161D03*
X80428Y278022D03*
X90394Y275268D03*
X78400Y311300D03*
X84600Y318000D03*
X91200Y328000D03*
X78400Y338000D03*
X90900Y345000D03*
X78132Y349768D03*
X84100Y391100D03*
X92850Y25250D03*
X100700Y77000D03*
X107600Y90800D03*
X104411Y104000D03*
X102800Y106200D03*
X106600Y95300D03*
X106300Y99900D03*
X96950Y122450D03*
X96911Y109511D03*
X103411Y129000D03*
X101727Y152000D03*
X96100Y148100D03*
X97400Y170000D03*
X96900Y185000D03*
X96800Y178000D03*
X96700Y189900D03*
X97300Y195000D03*
X99898Y215498D03*
X92970Y217324D03*
X97500Y216700D03*
X95000Y215700D03*
X94400Y262800D03*
X104400Y262000D03*
Y273988D03*
X95500Y283000D03*
X105800Y306984D03*
X106000Y328000D03*
X105400Y345000D03*
X111502Y56500D03*
X111400Y83400D03*
X108400Y87000D03*
X108600Y97644D03*
X109800Y93100D03*
X115916Y105016D03*
X117039Y118181D03*
X121439Y118039D03*
X115700Y138000D03*
X112900Y124600D03*
X114877Y146187D03*
X118826Y143337D03*
X115218Y149682D03*
X117386Y145502D03*
X118900Y139800D03*
X117850Y155350D03*
X115093Y159699D03*
X117400Y158500D03*
X115195Y169795D03*
X115506Y181606D03*
X115469Y177669D03*
X115889Y173600D03*
X116095Y191900D03*
X116347Y187400D03*
X122977Y191938D03*
X112400Y202000D03*
X117561Y189700D03*
X115996Y194498D03*
X109400Y205000D03*
X116400Y262900D03*
X120116Y289716D03*
X118516Y299861D03*
X118841Y302441D03*
X119400Y311000D03*
X118700Y345000D03*
X135393Y21169D03*
X126508Y73492D03*
X127616Y105016D03*
X125376Y137500D03*
X127345Y135300D03*
X129313Y132900D03*
X139156Y131200D03*
X134900Y131300D03*
X135325Y161601D03*
X136885Y163680D03*
X135769Y158894D03*
X138410Y157190D03*
X138408Y165788D03*
X124300Y189700D03*
X134200Y231800D03*
X130400Y235700D03*
X135900Y235100D03*
X130700Y260800D03*
X135700Y259400D03*
X128082Y258482D03*
X138339Y265161D03*
X138900Y273300D03*
X129100Y273200D03*
X136500Y275602D03*
X128180Y267720D03*
X131900Y285000D03*
X131700Y292000D03*
X134076Y304135D03*
X132076D03*
X134076Y302135D03*
X132076D03*
X134076Y300135D03*
X132076D03*
X134076Y298135D03*
X132076D03*
X130076Y304135D03*
Y302135D03*
Y300135D03*
Y298135D03*
X124038Y320322D03*
X128360Y324507D03*
Y327507D03*
X131360Y324507D03*
X134360D03*
X137360D03*
X131360Y327507D03*
X134360D03*
X137360D03*
X128400Y313900D03*
X128360Y330507D03*
Y333507D03*
Y336507D03*
X131360Y330507D03*
X134360D03*
X137360D03*
X131360Y333507D03*
X134360D03*
X137360D03*
X131360Y336507D03*
X134360D03*
X137360D03*
X131400Y349800D03*
X136400Y347000D03*
X138100Y422900D03*
X147700Y32000D03*
X142700Y107500D03*
X148500Y100800D03*
X143084Y110984D03*
X154800Y112500D03*
X143300Y144700D03*
X141100Y147000D03*
X139686Y168052D03*
X154700Y169100D03*
X142000Y170000D03*
X142800Y172600D03*
X144391Y174747D03*
X146031Y176765D03*
X150211Y179532D03*
X148502Y177573D03*
X152500Y172152D03*
X153300Y212222D03*
X149100Y218500D03*
X149800Y214700D03*
X151900Y225816D03*
X155000Y223800D03*
X154900Y219000D03*
X140700Y235100D03*
X145900D03*
X151200D03*
X150428Y278022D03*
X139600Y277412D03*
X143684Y289716D03*
X148400Y310400D03*
X145282Y299882D03*
X154900Y317300D03*
X145100Y316000D03*
X144856Y344000D03*
X148400Y338000D03*
X145400Y350000D03*
X148132Y349868D03*
X145000Y366000D03*
X154100Y391100D03*
X161562Y9358D03*
X161732Y21169D03*
X168000Y42000D03*
X158500Y32000D03*
X167250Y47950D03*
X167800Y45200D03*
X155500Y100900D03*
X160400Y101700D03*
X160800Y113697D03*
X166150Y147150D03*
X167500Y149400D03*
X156211Y178800D03*
X158600Y181200D03*
X164500Y183900D03*
X167031Y185331D03*
X161450Y185450D03*
X159800Y188000D03*
X156300Y212800D03*
X166700Y263200D03*
X155800Y253000D03*
X170698Y251987D03*
X161100Y252900D03*
X168100Y250400D03*
X163400D03*
X160394Y275268D03*
X165100Y283000D03*
X161100Y328000D03*
X161000Y345000D03*
X182400Y101900D03*
X184432Y128269D03*
X182500Y144500D03*
X175242Y148142D03*
X173937Y150391D03*
X172400Y201600D03*
X175000Y213000D03*
Y227000D03*
X172400D03*
X184700Y242600D03*
X182100Y240300D03*
X179400Y238000D03*
Y264726D03*
Y274900D03*
X174800Y271000D03*
X175016Y306984D03*
X175500Y328000D03*
X175000Y345000D03*
X187400Y101900D03*
Y117000D03*
X198847Y154047D03*
X199400Y150500D03*
Y171000D03*
Y173732D03*
Y199323D03*
X201950Y212450D03*
X199794Y210996D03*
X191000Y219500D03*
Y223900D03*
X199000Y264200D03*
X189100Y260100D03*
X202400Y265000D03*
X199000Y256900D03*
X199100Y276200D03*
X202500Y275500D03*
X197520Y267720D03*
X190116Y289716D03*
X201800Y285000D03*
X202000Y292000D03*
X188516Y299861D03*
X188841Y302441D03*
X189400Y311000D03*
X202076Y304135D03*
Y302135D03*
Y300135D03*
Y298135D03*
X200076Y304135D03*
Y302135D03*
Y300135D03*
Y298135D03*
X194022Y320322D03*
X198360Y324607D03*
Y327607D03*
X201360Y324607D03*
Y327607D03*
X198400Y314000D03*
X198360Y330607D03*
Y333607D03*
Y336607D03*
X201360Y330607D03*
Y333607D03*
Y336607D03*
X189000Y345000D03*
X201400Y349600D03*
X215700Y125992D03*
X206100Y149200D03*
Y168900D03*
Y183500D03*
X206300Y194700D03*
X216008Y196592D03*
X204400Y213800D03*
X206200Y215700D03*
X214000Y214000D03*
X217700Y203400D03*
X215300Y222300D03*
X218008Y231500D03*
X214000Y236100D03*
X206800Y273200D03*
X208600Y278000D03*
X213684Y289716D03*
X218400Y310700D03*
X215282Y299882D03*
X204076Y304135D03*
Y302135D03*
Y300135D03*
Y298135D03*
X204360Y324607D03*
X207359D03*
X204360Y327607D03*
X207359D03*
X215700Y316000D03*
X218400Y338000D03*
X214800Y344000D03*
X204360Y330607D03*
X207359D03*
X204360Y333607D03*
X207359D03*
X204360Y336607D03*
X207359D03*
X206400Y347300D03*
X215000Y350000D03*
X218132Y348968D03*
X215049Y366000D03*
X208100Y422900D03*
X226400Y75900D03*
X229500Y88019D03*
X219008Y82200D03*
X231523Y106001D03*
X228523D03*
X225523D03*
X222523D03*
X231523Y103001D03*
X228523D03*
X225523D03*
X222523D03*
X231523Y100001D03*
X228523D03*
X225523D03*
X222523D03*
X228900Y135992D03*
X225400Y146400D03*
X224200Y169700D03*
X227900Y160600D03*
X226866Y186066D03*
X223192Y177692D03*
X232500Y215400D03*
X224100Y213000D03*
X223992Y231500D03*
X227500Y225000D03*
X221739Y265161D03*
X220428Y278022D03*
X227400Y278100D03*
X225150Y318450D03*
X231100Y328000D03*
X230900Y345000D03*
X224100Y391100D03*
X245400Y73700D03*
X236646Y81646D03*
X248700Y90400D03*
X246500Y84200D03*
X246800Y96500D03*
X245800Y104900D03*
X244800Y113200D03*
X241600Y123000D03*
X245800Y133800D03*
X246800Y145900D03*
X236200Y170200D03*
X247500Y178300D03*
X236200Y180500D03*
X241100Y197800D03*
X235800Y209400D03*
X247700Y212800D03*
X247992Y231408D03*
X237134Y225000D03*
X242008Y231508D03*
X245500Y236600D03*
X234400Y262500D03*
X243400Y262300D03*
X249400Y274800D03*
X234500Y283000D03*
X244916Y306984D03*
X245600Y328000D03*
X245200Y345000D03*
X265500Y88100D03*
X263200Y76900D03*
X255008Y81800D03*
X264523Y106001D03*
X261523D03*
X258523D03*
X264523Y103001D03*
X261523D03*
X258523D03*
X264523Y100001D03*
X261523D03*
X258523D03*
X265000Y135992D03*
X250984Y125984D03*
X262500Y147300D03*
X265400Y156400D03*
X254600Y179500D03*
X250866Y185534D03*
X254500Y215300D03*
X259300Y208800D03*
X259500Y225200D03*
X251349Y225249D03*
X257800Y236300D03*
X256400Y263379D03*
X260184Y289716D03*
X258516Y299861D03*
X258841Y302441D03*
X259600Y311000D03*
X264038Y320338D03*
X259200Y345000D03*
X272646Y81946D03*
X280600Y80800D03*
X281600Y105800D03*
X267523Y106001D03*
Y103001D03*
Y100001D03*
X279900Y115700D03*
X278700Y129900D03*
X268400Y167500D03*
X278900Y184300D03*
X270941Y177841D03*
X276000Y195100D03*
X272000D03*
X280900Y210400D03*
X268800Y212000D03*
X271500Y214700D03*
X276008Y231858D03*
X274316Y224508D03*
X270800Y262600D03*
X280539Y265161D03*
X270300Y251500D03*
X279720Y270280D03*
X280098Y275398D03*
X269400Y274100D03*
X273400Y268000D03*
X274300Y271000D03*
X268720Y267720D03*
X271900Y285000D03*
Y292000D03*
X274076Y304135D03*
X272076D03*
X274076Y302135D03*
X272076D03*
X274076Y300135D03*
X272076D03*
X274076Y298135D03*
X272076D03*
X270076Y304135D03*
Y302135D03*
Y300135D03*
Y298135D03*
X268360Y324607D03*
Y327607D03*
X271360Y324607D03*
X274360D03*
X277360D03*
X271360Y327607D03*
X274360D03*
X277360D03*
X268384Y313900D03*
X268360Y330607D03*
Y333607D03*
Y336607D03*
X271360Y330607D03*
X274360D03*
X277360D03*
X271360Y333607D03*
X274360D03*
X277360D03*
X271360Y336607D03*
X274360D03*
X277360D03*
X271400Y349800D03*
X276400Y347200D03*
X278100Y422900D03*
X282100Y90400D03*
X291000Y82000D03*
X282800Y99200D03*
X294523Y106001D03*
Y103001D03*
Y100001D03*
X297523Y106001D03*
Y103001D03*
Y100001D03*
X287708Y125992D03*
X291500Y138900D03*
X282400Y143900D03*
X286500Y183900D03*
X293600Y183700D03*
X294000Y195100D03*
X290900Y212800D03*
X293500Y215400D03*
X296316Y224508D03*
X281992Y225000D03*
Y231000D03*
X288200Y235600D03*
X290428Y278022D03*
X283684Y289716D03*
X288400Y310500D03*
X285282Y299882D03*
X294800Y318100D03*
X285100Y316000D03*
X284600Y344000D03*
X288400Y338000D03*
X288132Y349332D03*
X285200Y350000D03*
X285049Y366000D03*
X298800Y75400D03*
X308646Y81854D03*
X301500Y88000D03*
X303523Y106001D03*
X300523D03*
X303523Y103001D03*
X300523D03*
X303523Y100001D03*
X300523D03*
X312800Y114900D03*
X301400Y135992D03*
X300300Y148800D03*
X300800Y157600D03*
X303000Y184300D03*
Y176000D03*
X298000Y195000D03*
X304200Y210400D03*
X312200Y211800D03*
X303992Y231000D03*
Y225000D03*
X298008Y231858D03*
X310000Y236800D03*
X304400Y261900D03*
X299900Y271500D03*
X299713Y275000D03*
X308584Y290984D03*
X308600Y285000D03*
X304600Y283000D03*
X308400Y301000D03*
X309300Y308000D03*
X303460Y319740D03*
X300900Y328000D03*
X308983Y339778D03*
X303378Y345000D03*
X308400Y356500D03*
X304400Y370000D03*
X325200Y86000D03*
X315500Y96800D03*
X328025Y100025D03*
X317900Y148700D03*
X325800Y176900D03*
X317700Y173800D03*
X327800Y182200D03*
X319700Y183200D03*
X320000Y195100D03*
X316000Y195022D03*
X325800Y210400D03*
X315500Y215000D03*
X325992Y231000D03*
Y225000D03*
X318311Y224502D03*
X320008Y231858D03*
X329000Y264000D03*
X314600Y279000D03*
X323591Y291000D03*
X318400Y311585D03*
X327300Y352638D03*
X323139Y351339D03*
X321400Y376300D03*
Y363600D03*
X337800Y75600D03*
X332174Y101319D03*
X334174D03*
X336174D03*
X332174Y103319D03*
X334174D03*
X336174D03*
X332174Y105319D03*
X334174D03*
X336174D03*
X333000Y121000D03*
X332700Y130900D03*
X336400Y140000D03*
X336100Y150500D03*
X337300Y162300D03*
X332200Y171600D03*
X334100Y179000D03*
X332100Y199200D03*
X336016Y195022D03*
X334016Y217978D03*
Y224000D03*
X342101Y223501D03*
X339700Y235800D03*
X331450Y242650D03*
X336700Y282400D03*
X334300Y299500D03*
X338400Y317300D03*
X333400Y335500D03*
X358262Y3466D03*
Y23466D03*
Y13466D03*
Y43466D03*
Y33466D03*
Y53466D03*
Y73466D03*
Y63466D03*
Y83466D03*
X352000Y85600D03*
X345981Y89300D03*
X357000Y78500D03*
X358262Y103466D03*
Y93466D03*
X351400Y115600D03*
X358262Y123466D03*
Y113466D03*
Y133466D03*
X348200Y150800D03*
X358262Y153466D03*
Y143466D03*
Y163466D03*
Y183466D03*
Y173466D03*
Y193466D03*
X347300Y196100D03*
X348000Y203000D03*
X358262Y213466D03*
Y203466D03*
Y233466D03*
Y223466D03*
X349300Y220400D03*
X348800Y229000D03*
X358262Y243466D03*
X347400Y265200D03*
X358262Y263466D03*
Y253466D03*
X352500Y279000D03*
X358262Y273466D03*
Y293466D03*
Y283466D03*
Y313466D03*
Y303466D03*
Y323466D03*
X347400Y341537D03*
X358262Y343466D03*
Y333466D03*
Y353466D03*
Y373466D03*
Y363466D03*
X348384Y369000D03*
X358262Y383466D03*
Y403466D03*
Y393466D03*
Y423466D03*
Y413466D03*
G54D20*
X32400Y56000D03*
G54D11*
X23837Y12929D03*
X76002D03*
G54D21*
X30400Y86992D03*
Y81008D03*
X74400Y86984D03*
Y81000D03*
X61400Y86984D03*
Y81000D03*
X109700Y118616D03*
Y124600D03*
G54D12*
X27872Y32220D03*
X71416D03*
X148114Y11524D03*
Y23335D03*
X159106Y38284D03*
Y73716D03*
X236189Y32106D03*
X259811D03*
G54D13*
X18345Y43835D03*
X42400Y56000D03*
X37400Y66000D03*
X62400Y56000D03*
X52400D03*
X57400Y66000D03*
X47400D03*
X67400D03*
X81337Y43835D03*
G54D22*
X59361Y378000D03*
X79361D03*
X129361D03*
X149361D03*
X199361D03*
X219361D03*
X269361D03*
X289361D03*
G54D23*
X125500Y83500D03*
G54D14*
X21900Y76134D03*
Y67866D03*
G54D24*
X127462Y23654D03*
Y33654D03*
Y43654D03*
X143594Y50094D03*
X248000Y16594D03*
G54D15*
X22900Y81579D03*
Y91421D03*
G54D25*
X135500Y83500D03*
X155500D03*
X145500D03*
G54D16*
X21963Y107079D03*
Y116921D03*
X29837Y107079D03*
Y116921D03*
G54D26*
X313620Y390043D03*
X328580D03*
X321100Y403000D03*
G54D17*
X20408Y100000D03*
X26392D03*
X20408Y124000D03*
X26392D03*
X337508Y335500D03*
X343492D03*
G54D27*
G01X34550Y44650D02*
X12200Y67000D01*
Y122506D01*
X14847Y125153D01*
G01X92850Y25250D02*
X75800Y42300D01*
X33789D01*
X10600Y65489D01*
Y124018D01*
X14373Y127791D01*
X14848D01*
G01X14200Y130600D02*
X9000Y125400D01*
Y64826D01*
X33226Y40600D01*
X75000D01*
X85400Y30200D01*
Y25700D01*
G01X25300Y175300D02*
X17800D01*
X12300Y169800D01*
Y143260D01*
X63460Y92100D01*
X103900D01*
X105200Y90800D01*
X107600D01*
G01X32400Y56000D02*
Y61300D01*
X31027Y62673D01*
X27100Y66600D01*
Y71200D01*
X41600Y85700D01*
Y90486D01*
X40286Y91800D01*
G01X20408Y100000D02*
Y105524D01*
X21963Y107079D01*
G01X26200Y111100D02*
X25984D01*
X21963Y107079D01*
G01X29837Y116921D02*
Y120555D01*
X26392Y124000D01*
G01X108600Y97644D02*
X104044D01*
X103300Y96900D01*
X65449D01*
X19400Y142949D01*
Y164700D01*
G01X19500Y167800D02*
X19389D01*
X17200Y165611D01*
Y142886D01*
X64786Y95300D01*
X106600D01*
G01X106300Y99900D02*
X103300D01*
X101900Y98500D01*
X66112D01*
X22700Y141912D01*
Y168400D01*
G01X109800Y93100D02*
X105400D01*
X104800Y93700D01*
X64123D01*
X15000Y142823D01*
Y169168D01*
X17032Y171200D01*
X20400D01*
G01X104411Y104000D02*
X100511Y100100D01*
X66774D01*
X25344Y141530D01*
Y165144D01*
G01X102800Y106200D02*
X98300Y101700D01*
X67437D01*
X27544Y141593D01*
Y166856D01*
X26400Y168000D01*
G01X53100Y165400D02*
X25400Y193100D01*
Y221800D01*
X49900Y246300D01*
X73670D01*
X75770Y248400D01*
X110837D01*
X146000Y213237D01*
Y213126D01*
X148226Y210900D01*
X148337D01*
X164500Y194737D01*
Y183900D01*
G01X56900Y152300D02*
Y152589D01*
X56853Y152635D01*
Y154458D01*
X56900Y154505D01*
Y157500D01*
X23800Y190600D01*
Y223594D01*
X27006Y226800D01*
G01X38900Y111000D02*
X38300D01*
X35400Y108100D01*
Y103826D01*
X39026Y100200D01*
X45579D01*
X49900Y95879D01*
Y82800D01*
X46000Y78900D01*
Y75800D01*
X42400Y72200D01*
Y56000D01*
G01X44314Y91800D02*
X43000Y90486D01*
Y85120D01*
X35851Y77971D01*
Y76556D01*
X35144Y75849D01*
X33729D01*
X31951Y74071D01*
Y72656D01*
X31244Y71949D01*
X29829D01*
X28500Y70620D01*
Y67180D01*
X31890Y63790D01*
X35190D01*
X37400Y66000D01*
G01X57400D02*
X54065Y69336D01*
G02Y70326I495J495D01*
G01X55337Y71598D01*
G03X54347Y72588I-495J495D01*
G01X53074Y71316D01*
G02X52084Y72306I-495J495D01*
G01X53357Y73578D01*
G03X52367Y74568I-495J495D01*
G01X51094Y73296D01*
G02X50105I-495J495D01*
G01X47677Y75723D01*
Y78597D01*
X51300Y82220D01*
Y96459D01*
X46159Y101600D01*
X39606D01*
X37245Y103960D01*
Y106834D01*
X38812Y108401D01*
X39600D01*
G01X29837Y116921D02*
Y113137D01*
G01X30156Y194200D02*
Y197156D01*
X46900Y213900D01*
X67102D01*
X84002Y230800D01*
X103546D01*
X128400Y205946D01*
Y205835D01*
X140935Y193300D01*
X141046D01*
X142191Y192155D01*
Y173209D01*
X142800Y172600D01*
G01X36455Y194500D02*
Y198930D01*
X48226Y210700D01*
X68428D01*
X85328Y227600D01*
X102221D01*
X125200Y204621D01*
Y204509D01*
X138991Y190718D01*
Y168747D01*
X139686Y168052D01*
G01X33306Y194100D02*
Y198043D01*
X47563Y212300D01*
X67765D01*
X84665Y229200D01*
X102884D01*
X126800Y205284D01*
Y205172D01*
X140272Y191700D01*
X140384D01*
X140591Y191493D01*
Y171409D01*
X142000Y170000D01*
G01X39300Y194700D02*
Y199512D01*
X48888Y209100D01*
X69091D01*
X85991Y226000D01*
X101558D01*
X123600Y203958D01*
Y203847D01*
X137391Y190056D01*
Y166805D01*
X138408Y165788D01*
G01X37100Y223900D02*
X45100Y215900D01*
X66840D01*
X83340Y232400D01*
X104209D01*
X130000Y206609D01*
Y206498D01*
X141598Y194900D01*
X141709D01*
X143800Y192809D01*
Y175338D01*
X144391Y174747D01*
G01X35138Y209430D02*
X34900Y209667D01*
Y226237D01*
X51563Y242900D01*
X74795D01*
X77095Y245200D01*
X109512D01*
X142800Y211912D01*
Y211800D01*
X146900Y207700D01*
X147012D01*
X159800Y194912D01*
Y188000D01*
G01X33800Y207200D02*
X30100Y210900D01*
Y223700D01*
X51100Y244700D01*
X74332D01*
X76432Y246800D01*
X110174D01*
X144400Y212574D01*
Y212463D01*
X147563Y209300D01*
X147674D01*
X162000Y194974D01*
Y186000D01*
X161450Y185450D01*
G01X39900Y224600D02*
Y224263D01*
X46663Y217500D01*
X66177D01*
X82677Y234000D01*
X104872D01*
X131600Y207272D01*
Y207161D01*
X142261Y196500D01*
X142372D01*
X145400Y193472D01*
Y177396D01*
X146031Y176765D01*
G01X42494Y224781D02*
X48174Y219100D01*
X65514D01*
X82014Y235600D01*
X105535D01*
X133200Y207935D01*
Y207823D01*
X142923Y198100D01*
X143035D01*
X147300Y193835D01*
Y178775D01*
X148502Y177573D01*
G01X182500Y144500D02*
X157600Y119600D01*
X130200D01*
X124839Y114239D01*
X105139D01*
X94300Y103400D01*
X68138D01*
X45300Y126237D01*
Y152800D01*
G01X175242Y148142D02*
X154200Y127100D01*
X107500D01*
X85400Y105000D01*
X68800D01*
X54900Y118900D01*
Y150200D01*
G01X173937Y150391D02*
X152546Y129000D01*
X106611D01*
X84211Y106600D01*
X69600D01*
X58102Y118098D01*
Y151098D01*
X56900Y152300D01*
G01X56803Y152244D02*
X56900D01*
Y152300D01*
G01X55241Y163924D02*
X63324D01*
X68000Y168600D01*
Y193700D01*
G01X135325Y161601D02*
X134191Y162734D01*
Y188730D01*
X120400Y202521D01*
Y202632D01*
X100232Y222800D01*
X87316D01*
X70016Y205500D01*
X56900D01*
X52100Y200700D01*
Y194200D01*
G01X49200Y194100D02*
Y201500D01*
X54800Y207100D01*
X69354D01*
X86654Y224400D01*
X100895D01*
X122000Y203295D01*
Y203184D01*
X135791Y189393D01*
Y164775D01*
X136885Y163680D01*
G01X135769Y158894D02*
X134921D01*
X132591Y161223D01*
Y188067D01*
X118800Y201858D01*
Y201970D01*
X99570Y221200D01*
X87979D01*
X70679Y203900D01*
X59300D01*
X55300Y199900D01*
Y194100D01*
G01X138410Y157190D02*
X137914Y156694D01*
X134858D01*
X130991Y160560D01*
Y187404D01*
X117200Y201195D01*
Y201307D01*
X98982Y219524D01*
X88566D01*
X71142Y202100D01*
X61500D01*
X58600Y199200D01*
Y193000D01*
G01X55600Y226500D02*
X56600Y225500D01*
X62863D01*
X79363Y242000D01*
X108186D01*
X139600Y210586D01*
Y210475D01*
X145575Y204500D01*
X145686D01*
X155935Y194251D01*
Y181602D01*
X156211Y181326D01*
Y178800D01*
G01X150211Y179532D02*
Y193186D01*
X143698Y199700D01*
X143586D01*
X134800Y208486D01*
Y208598D01*
X106198Y237200D01*
X81351D01*
X64851Y220700D01*
X50707D01*
X44994Y226413D01*
G01X52400Y226200D02*
X54700Y223900D01*
X63526D01*
X80026Y240400D01*
X107523D01*
X138000Y209923D01*
Y209812D01*
X144912Y202900D01*
X145023D01*
X154011Y193912D01*
Y176680D01*
X154700Y175991D01*
Y169100D01*
G01X58600Y227700D02*
X62800D01*
X78700Y243600D01*
X108849D01*
X141200Y211249D01*
Y211137D01*
X146237Y206100D01*
X146349D01*
X157535Y194914D01*
Y182265D01*
X158600Y181200D01*
G01X49200Y226100D02*
X53000Y222300D01*
X64188D01*
X80688Y238800D01*
X106860D01*
X136400Y209260D01*
Y209149D01*
X144249Y201300D01*
X144360D01*
X152411Y193249D01*
Y175589D01*
X152500Y175500D01*
Y172152D01*
G01X91300Y251700D02*
X59300D01*
G01X57521Y267720D02*
X128180D01*
G01X74400Y86984D02*
Y89900D01*
G01X61400Y90600D02*
Y86984D01*
G01X114877Y146187D02*
X99649D01*
X77663Y124200D01*
X69400D01*
X66900Y121700D01*
G01X72600Y112800D02*
X73000Y113200D01*
X78600D01*
X101200Y135800D01*
X123676D01*
X125376Y137500D01*
G01X69400Y117500D02*
X71700Y119800D01*
X77788D01*
X100124Y142135D01*
X117624D01*
X118826Y143337D01*
G01X75103Y115400D02*
X77914D01*
X100514Y138000D01*
X115700D01*
G01X127345Y135300D02*
X125908Y133863D01*
X102263D01*
X79400Y111000D01*
X75000D01*
G01X117386Y145502D02*
X115868Y143985D01*
X99710D01*
X77826Y122100D01*
X70700D01*
X66700Y118100D01*
G01X73215Y109110D02*
X73524Y108800D01*
X80100D01*
X102763Y131463D01*
X127877D01*
X129313Y132900D01*
G01X72800Y117100D02*
X73300Y117600D01*
X77851D01*
X100451Y140200D01*
X118500D01*
X118900Y139800D01*
G01X74900Y127964D02*
X79164D01*
X100882Y149682D01*
X115218D01*
G01X117850Y155350D02*
X99939D01*
X76447Y131859D01*
Y131452D01*
X75159Y130164D01*
X72004D01*
G01X115093Y159699D02*
X99673D01*
X75610Y135636D01*
X71802D01*
X70599Y134434D01*
G01X72871Y138364D02*
X73044Y138190D01*
X75890D01*
X99800Y162100D01*
X117112D01*
X136912Y142300D01*
X161300D01*
X166150Y147150D01*
G01X74247Y132364D02*
X74601D01*
X99535Y157298D01*
X116198D01*
X117400Y158500D01*
G01X167500Y149400D02*
X136600D01*
X119100Y166900D01*
X97716D01*
X76422Y145607D01*
X74822D01*
X69900Y140686D01*
Y137700D01*
G01X65900Y152000D02*
Y157500D01*
X74100Y165700D01*
Y198270D01*
X86559Y210729D01*
X89140D01*
X89274Y210595D01*
G01X70263Y153311D02*
Y155863D01*
X77300Y162900D01*
Y196944D01*
X86622Y206266D01*
X89029D01*
X89100Y206195D01*
G01X87398Y212947D02*
X86515D01*
X72500Y198932D01*
Y167100D01*
X63700Y158300D01*
Y150523D01*
X64085Y150139D01*
G01X72700Y149085D02*
X72832Y148954D01*
X75243D01*
X83700Y157410D01*
Y193411D01*
X85865Y195577D01*
X86960D01*
G01X61276Y151700D02*
Y158877D01*
X70900Y168500D01*
Y199595D01*
X86452Y215147D01*
X88848D01*
X89000Y214995D01*
G01X86100Y192700D02*
Y157548D01*
X75760Y147208D01*
X73934D01*
X73612Y146885D01*
X71789D01*
X71076Y147598D01*
X69596D01*
G01X74500Y140390D02*
X75827D01*
X99137Y163700D01*
X117774D01*
X136774Y144700D01*
X143300D01*
G01X75413Y143087D02*
X76165D01*
X98378Y165300D01*
X118437D01*
X136737Y147000D01*
X141100D01*
G01X74663Y153748D02*
X80500Y159585D01*
Y195618D01*
X86676Y201795D01*
X89000D01*
G01X87534Y204066D02*
X86685D01*
X78900Y196281D01*
Y161500D01*
X72463Y155063D01*
Y152400D01*
X70812Y150748D01*
X70702D01*
G01X87471Y208529D02*
X86622D01*
X75700Y197607D01*
Y164300D01*
X68063Y156663D01*
Y152948D01*
X68100Y152911D01*
Y150735D01*
X67018Y149652D01*
G01X74277Y151154D02*
X75180D01*
X82100Y158073D01*
Y194107D01*
X86497Y198504D01*
G01X167031Y185331D02*
Y194469D01*
X149000Y212500D01*
X148889D01*
X147600Y213789D01*
Y213900D01*
X111500Y250000D01*
X63200D01*
X61700Y248500D01*
G01X106400Y271000D02*
X106354Y270954D01*
X67700D01*
G01X92970Y217324D02*
X92800Y217155D01*
Y214789D01*
X95000Y212589D01*
Y191600D01*
X92300Y188900D01*
Y186700D01*
X90600Y185000D01*
G01X90300Y190000D02*
X93400Y193100D01*
Y211926D01*
X91200Y214126D01*
Y215989D01*
X90300Y216889D01*
Y217300D01*
G01X91300Y251700D02*
X94318Y254718D01*
X124318D01*
X128082Y258482D01*
G01X190500Y251500D02*
X174500D01*
X171600Y254400D01*
X166700D01*
X164200Y256900D01*
X155500D01*
X150300Y251700D01*
X91300D01*
G01X138339Y265161D02*
X80639D01*
G01X116347Y187400D02*
X116400D01*
Y187500D01*
X99400D01*
X96900Y185000D01*
G01X115469Y177669D02*
X98831D01*
X98500Y178000D01*
X96800D01*
G01X116095Y191900D02*
X98700D01*
X96700Y189900D01*
G01X117561Y189700D02*
X118295Y190435D01*
Y195311D01*
X116906Y196700D01*
X112326D01*
X98402Y210624D01*
Y213882D01*
X97698Y214586D01*
Y216502D01*
X97500Y216700D01*
G01X95000Y215700D02*
Y215021D01*
X96600Y213421D01*
Y210163D01*
X112265Y194498D01*
X115996D01*
G01X115506Y181606D02*
X120363Y186463D01*
Y195506D01*
X117569Y198300D01*
X112989D01*
X101202Y210087D01*
Y214193D01*
X99898Y215498D01*
G01X136500Y275602D02*
X111002D01*
X106400Y271000D01*
G01D02*
X174800D01*
G01X184700Y242600D02*
Y143589D01*
X159111Y118000D01*
X131600D01*
X118616Y105016D01*
X115916D01*
G01X109700Y118616D02*
X110409D01*
X116493Y124700D01*
X154911D01*
X177442Y147230D01*
Y232458D01*
X161100Y248800D01*
Y252900D01*
G01X182100Y240300D02*
Y147363D01*
X156037Y121300D01*
X128900D01*
X123439Y115839D01*
X119381D01*
X117039Y118181D01*
G01X179400Y238000D02*
Y146926D01*
X155374Y122900D01*
X126300D01*
X121439Y118039D01*
G01X109700Y124600D02*
X112900D01*
G01X127616Y105016D02*
Y111416D01*
X132000Y115800D01*
X159500D01*
X188200Y144500D01*
Y249200D01*
X190500Y251500D01*
G01X128180Y267720D02*
X197520D01*
G01X147700Y32000D02*
X208500Y92800D01*
Y202291D01*
X199794Y210996D01*
G01X168000Y42000D02*
X213500Y87500D01*
Y208400D01*
X206200Y215700D01*
G01X167250Y47950D02*
X210100Y90800D01*
Y204300D01*
X201950Y212450D01*
G01X167800Y45200D02*
X211756Y89156D01*
Y206444D01*
X204400Y213800D01*
G01X170698Y251987D02*
X170085Y252600D01*
X164900D01*
X162300Y255200D01*
X158000D01*
X155800Y253000D01*
G01X163400Y250400D02*
X168100D01*
G01X175000Y227000D02*
Y218800D01*
X172400Y216200D01*
Y201600D01*
G01X234100Y271000D02*
X201368D01*
G02X200518Y271850I0J850D01*
G03X199668Y272700I-850J0D01*
G01X198168D01*
G03X197318Y271850I0J-850D01*
G02X196468Y271000I-850J0D01*
G01X194968D01*
G02X194118Y271850I0J850D01*
G03X193268Y272700I-850J0D01*
G01X191768D01*
G03X190918Y271850I0J-850D01*
G02X190068Y271000I-850J0D01*
G01X174800D01*
G01X191000Y219500D02*
Y223900D01*
G01X236400Y251500D02*
X222959D01*
G03X221359Y249900I0J-1600D01*
G01Y244800D01*
G02X218159I-1600J0D01*
G01Y249900D01*
G03X214959I-1600J0D01*
G01Y244800D01*
G02X211759I-1600J0D01*
G01Y249900D01*
G03X208559I-1600J0D01*
G01Y244800D01*
G02X205359I-1600J0D01*
G01Y249900D01*
G03X202159I-1600J0D01*
G01Y244800D01*
G02X198959I-1600J0D01*
G01Y249900D01*
G03X197359Y251500I-1600J0D01*
G01X190500D01*
G01X199000Y256900D02*
X231000D01*
X236400Y251500D01*
G01X197520Y267720D02*
X268720D01*
G01X202500Y275500D02*
X229600D01*
X234100Y271000D01*
G01X280539Y265161D02*
X257729D01*
X257311Y265579D01*
X255489D01*
X255071Y265161D01*
X221739D01*
G01X236400Y251500D02*
X270300D01*
G01X274300Y271000D02*
X234100D01*
G01X352500Y279000D02*
Y367996D01*
X341096Y379400D01*
X324300D01*
X313657Y390043D01*
X313620D01*
G01X348384Y369000D02*
X350000Y367384D01*
Y261200D01*
X331450Y242650D01*
G54D18*
X25155Y391055D03*
Y422945D03*
X41100Y407000D03*
X57045Y391055D03*
Y422945D03*
X95155Y391055D03*
Y422945D03*
X111100Y407000D03*
X127045Y391055D03*
Y422945D03*
X165155Y391055D03*
Y422945D03*
X181100Y407000D03*
X197045Y391055D03*
Y422945D03*
X235155Y391055D03*
Y422945D03*
X251100Y407000D03*
X267045Y391055D03*
Y422945D03*
G54D28*
G01X21900Y67866D02*
Y62900D01*
G01X22900Y81579D02*
X28039Y76439D01*
G01X16400Y86984D02*
X21806Y81579D01*
X22900D01*
G01X21900Y76134D02*
X17300D01*
G01X30400Y86992D02*
X27329D01*
X22900Y91421D01*
G01D02*
X16400D01*
G01X29837Y107079D02*
X26392Y103634D01*
G01D02*
Y100000D01*
G01X26871Y107079D02*
X29837D01*
G01X26392Y97428D02*
Y100000D01*
G01X24529D02*
X26392D01*
G01D02*
X28255D01*
G01X21963Y116921D02*
Y120137D01*
X20408Y121692D01*
Y124000D01*
G01X15600Y122300D02*
X17300Y124000D01*
G01X21963Y113365D02*
Y116921D01*
G01X18997D02*
X21963D01*
G01D02*
X24929D01*
G01X17300Y124000D02*
X20408D01*
G01D02*
Y126572D01*
G01Y124000D02*
X22271D01*
G01X30400Y78000D02*
Y81008D01*
G01X32956Y112650D02*
X29837Y109531D01*
Y107079D01*
G01Y103523D02*
Y107079D01*
G01D02*
X32803D01*
G01X35950Y112650D02*
X32956D01*
G01X47400Y66000D02*
Y61000D01*
X52400Y56000D01*
G01X80428Y278022D02*
X74378D01*
X71500Y280900D01*
X55342D01*
X45966Y290277D01*
Y300918D01*
X47489Y302441D01*
X48841D01*
G01X49500Y311000D02*
Y305150D01*
X48841Y304491D01*
Y302441D01*
G01X74400Y81000D02*
Y83300D01*
G01X61400Y81000D02*
Y83848D01*
G01X73684Y289716D02*
Y298284D01*
X75282Y299882D01*
G01X84600Y318000D02*
Y309200D01*
X75282Y299882D01*
G01X61400Y349500D02*
X65294D01*
X65344Y349550D01*
X69150D01*
X74700Y344000D01*
G01X78400Y338000D02*
Y340300D01*
X74700Y344000D01*
G01X113700Y279962D02*
X82368D01*
X80428Y278022D01*
G01X78400Y338000D02*
Y311300D01*
G01X118841Y302441D02*
X117489D01*
X115966Y300918D01*
Y282228D01*
X113700Y279962D01*
G01X150428Y278022D02*
X148487Y279962D01*
X113700D01*
G01X119400Y311000D02*
Y305050D01*
X118841Y304491D01*
Y302441D01*
G01X131400Y349800D02*
X139056D01*
X144856Y344000D01*
G01X183300Y280716D02*
X170216D01*
X167522Y278022D01*
X150428D01*
G01X143684Y289716D02*
Y298284D01*
X145282Y299882D01*
G01X148400Y338000D02*
Y310400D01*
G01X154900Y317300D02*
Y309500D01*
X145282Y299882D01*
G01X144856Y344000D02*
X148400Y340456D01*
Y338000D01*
G01X160394Y275268D02*
X160332D01*
G01X188841Y302441D02*
X187489D01*
X185966Y300918D01*
Y283381D01*
X183300Y280716D01*
G01X220428Y278022D02*
X213378D01*
X210684Y280716D01*
X183300D01*
G01X189400Y311000D02*
Y305050D01*
X188841Y304491D01*
Y302441D01*
G01X201400Y349600D02*
X205094D01*
X205344Y349850D01*
X208950D01*
X214800Y344000D01*
G01X213684Y289716D02*
Y298284D01*
X215282Y299882D01*
G01X218400Y338000D02*
Y310700D01*
G01X225150Y318450D02*
Y309750D01*
X215282Y299882D01*
G01X214800Y344000D02*
X218400Y340400D01*
Y338000D01*
G01X223992Y231500D02*
X236092Y243600D01*
X308600D01*
X329000Y264000D01*
G01X252800Y278022D02*
X232578D01*
X229950Y280650D01*
X223056D01*
X220428Y278022D01*
G01X290428D02*
X252800D01*
G01X258841Y302441D02*
X257489D01*
X255400Y300352D01*
Y280622D01*
X252800Y278022D01*
G01X259600Y311000D02*
Y305250D01*
X258841Y304491D01*
Y302441D01*
G01X271400Y349800D02*
X278800D01*
X284600Y344000D01*
G01X333000Y121000D02*
X303600D01*
X291500Y133100D01*
Y138900D01*
G01X308400Y301000D02*
X290428Y283028D01*
Y278022D01*
G01X283684Y289716D02*
Y298284D01*
X285282Y299882D01*
G01X288400Y338000D02*
Y310500D01*
G01X294800Y318100D02*
Y309400D01*
X285282Y299882D01*
G01X288400Y338000D02*
Y340200D01*
X284600Y344000D01*
G01X336700Y282400D02*
X318100Y301000D01*
X308400D01*
G01X333000Y121000D02*
Y112400D01*
X328025Y107425D01*
Y100025D01*
G01X347400Y341537D02*
Y339408D01*
X343492Y335500D01*
G01X337508D02*
X333400D01*
G01X351400Y115600D02*
Y147600D01*
X348200Y150800D01*
G54D19*
X33837Y12929D03*
X66002D03*
X117462Y23654D03*
Y33654D03*
Y43654D03*
X155406Y61905D03*
Y50094D03*
X143594Y61905D03*
X248000Y28406D03*
M02*
