G04 ================== begin FILE IDENTIFICATION RECORD ==================*
G04 Layout Name:  F:/Vibration/lool-Inds-Vibration/hardware/v2.0/pcb/vibration.brd*
G04 Film Name:    PASTEMASK_TOP*
G04 File Format:  Gerber RS274X*
G04 File Origin:  Cadence Allegro 16.6-2015-S066*
G04 Origin Date:  Thu Sep 08 11:39:57 2016*
G04 *
G04 Layer:  PIN/PASTEMASK_TOP*
G04 *
G04 Offset:    (0.000 0.000)*
G04 Mirror:    No*
G04 Mode:      Positive*
G04 Rotation:  0*
G04 FullContactRelief:  No*
G04 UndefLineWidth:     1.000*
G04 ================== end FILE IDENTIFICATION RECORD ====================*
%FSLAX25Y25*MOIN*%
%IR0*IPPOS*OFA0.00000B0.00000*MIA0B0*SFA1.00000B1.00000*%
%ADD15R,.062992X.062992*%
%ADD33R,.03937X.068898*%
%ADD32R,.07874X.127953*%
%ADD34R,.023622X.061024*%
%ADD20R,.02126X.035433*%
%ADD19R,.061024X.023622*%
%ADD10R,.035433X.02126*%
%ADD43O,.021654X.049213*%
%ADD40O,.017717X.05315*%
%ADD13R,.021654X.051181*%
%ADD37R,.041339X.023622*%
%ADD14R,.011811X.059055*%
%ADD24R,.023622X.03937*%
%ADD12R,.059055X.011811*%
%ADD42R,.03937X.023622*%
%ADD28R,.055118X.043307*%
%ADD23R,.053902X.09524*%
%ADD29R,.090551X.090551*%
%ADD26R,.043307X.031496*%
%ADD27R,.033465X.033465*%
%ADD25R,.086614X.037402*%
%ADD31R,.023622X.076772*%
%ADD17R,.029528X.055118*%
%ADD38R,.070866X.090551*%
%ADD11R,.055118X.029528*%
%ADD35R,.090551X.070866*%
%ADD16R,.059055X.017717*%
%ADD36R,.064961X.025591*%
%ADD21R,.098425X.090551*%
%ADD41R,.029528X.045276*%
%ADD30R,.093665X.058232*%
%ADD18R,.057087X.017717*%
%ADD39R,.047618X.039744*%
%ADD22R,.036669X.04848*%
%LPD*%
G75*
G54D10*
X14400Y64000D03*
Y69984D03*
X19400Y81000D03*
Y86984D03*
X10900Y111008D03*
Y116992D03*
Y121508D03*
Y127492D03*
Y139992D03*
Y134008D03*
X24400Y81000D03*
X29400D03*
X34400D03*
X24400Y86984D03*
X29400D03*
X34400D03*
X33400Y171016D03*
Y177000D03*
X39400Y81000D03*
X44400D03*
X49400D03*
X39400Y86984D03*
X44400D03*
X49400D03*
X40400Y171016D03*
Y177000D03*
X47400Y171016D03*
Y177000D03*
X46400Y241016D03*
Y247000D03*
Y261016D03*
Y267000D03*
Y271000D03*
Y276984D03*
X44400Y296984D03*
Y291000D03*
X39400Y296984D03*
Y291000D03*
Y301000D03*
X44400D03*
X39400Y306984D03*
X44400D03*
X45400Y327984D03*
Y322000D03*
X39400Y332000D03*
Y322016D03*
Y328000D03*
X45400Y332000D03*
X39400Y337984D03*
X45400D03*
X64400Y81000D03*
X59400D03*
X54400D03*
X64400Y86984D03*
X59400D03*
X54400D03*
X61400Y171016D03*
Y177000D03*
X54400Y171016D03*
Y177000D03*
X69400Y81000D03*
X74400D03*
X79400Y81008D03*
X69400Y86984D03*
X74400D03*
X79400Y86992D03*
X84400Y301000D03*
Y296984D03*
Y291000D03*
X79400Y296984D03*
Y291000D03*
Y301000D03*
X84400Y306984D03*
X79400D03*
X82400Y322016D03*
Y328000D03*
Y332000D03*
Y337984D03*
X85400Y64000D03*
Y69984D03*
X87400Y332016D03*
Y322016D03*
Y328000D03*
Y338000D03*
X86400Y361984D03*
Y356000D03*
Y366016D03*
Y372000D03*
X111400Y81016D03*
Y87000D03*
X114400Y296984D03*
Y291000D03*
X109400Y296984D03*
Y291000D03*
Y301000D03*
X114400D03*
X109400Y306984D03*
X114400D03*
X115400Y327984D03*
Y322000D03*
X109400Y332000D03*
Y322016D03*
Y328000D03*
X115400Y332000D03*
X109400Y337984D03*
X115400D03*
X124400Y105016D03*
Y111000D03*
X119400Y105016D03*
Y111000D03*
X131000Y215816D03*
Y221800D03*
Y225816D03*
Y231800D03*
X116400Y261016D03*
Y267000D03*
Y271000D03*
Y276984D03*
X139400Y110984D03*
Y105000D03*
X155500Y97992D03*
Y92008D03*
X148500Y97992D03*
Y92008D03*
X160400Y110984D03*
Y105000D03*
X155000Y215816D03*
Y221800D03*
Y225816D03*
Y231800D03*
X149400Y296984D03*
Y291000D03*
X154400Y296984D03*
Y291000D03*
Y301000D03*
X149400D03*
X154400Y306984D03*
X149400D03*
X157400Y332016D03*
X152400Y322016D03*
Y328000D03*
X157400Y322016D03*
Y328000D03*
X152400Y332000D03*
X157400Y338000D03*
X152400Y337984D03*
X156400Y361984D03*
Y356000D03*
Y366016D03*
Y372000D03*
X177500Y222992D03*
Y217008D03*
X172500D03*
Y222992D03*
X187400Y110984D03*
Y105000D03*
X182400Y110984D03*
Y105000D03*
X186400Y261016D03*
Y267000D03*
Y271000D03*
Y276984D03*
X184400Y296984D03*
Y291000D03*
X179400Y296984D03*
Y291000D03*
Y301000D03*
X184400D03*
X179400Y306984D03*
X184400D03*
X185400Y327984D03*
Y322000D03*
X179400Y332000D03*
Y322016D03*
Y328000D03*
X185400Y332000D03*
X179400Y337984D03*
X185400D03*
X225000Y130008D03*
X219000Y130016D03*
Y125992D03*
Y120008D03*
X225000D03*
Y125992D03*
Y135992D03*
X219000Y136000D03*
X224400Y301000D03*
Y296984D03*
Y291000D03*
X219400Y296984D03*
Y291000D03*
Y301000D03*
X224400Y306984D03*
X219400D03*
X222400Y322016D03*
Y328000D03*
Y332000D03*
Y337984D03*
X227400Y332016D03*
Y322016D03*
Y328000D03*
Y338000D03*
X226400Y361984D03*
Y356000D03*
Y366016D03*
Y372000D03*
X255000Y130016D03*
Y125984D03*
Y120000D03*
Y136000D03*
X256400Y261016D03*
Y267000D03*
Y271000D03*
Y276984D03*
X254400Y296984D03*
Y291000D03*
X249400Y296984D03*
Y291000D03*
Y301000D03*
X254400D03*
X249400Y306984D03*
X254400D03*
X255400Y327984D03*
Y322000D03*
X249400Y332000D03*
Y322016D03*
Y328000D03*
X255400Y332000D03*
X249400Y337984D03*
X255400D03*
X261000Y130008D03*
Y120008D03*
Y125992D03*
Y135992D03*
X297000Y130008D03*
X291500D03*
Y125992D03*
Y120008D03*
X297000D03*
Y125992D03*
Y135992D03*
X291500D03*
X294400Y301000D03*
Y296984D03*
Y291000D03*
X289400Y296984D03*
Y291000D03*
Y301000D03*
X294400Y306984D03*
X289400D03*
X292400Y322016D03*
Y328000D03*
X297400Y332016D03*
Y322016D03*
Y328000D03*
X292400Y332000D03*
X297400Y338000D03*
X292400Y337984D03*
X296400Y361984D03*
Y356000D03*
Y366016D03*
Y372000D03*
X313400Y264016D03*
Y270000D03*
X312400Y285000D03*
Y295016D03*
Y301000D03*
Y290984D03*
X308400Y348984D03*
Y343000D03*
Y359984D03*
Y354000D03*
X327400Y343016D03*
Y349000D03*
X348000Y206000D03*
Y211984D03*
X347400Y268984D03*
Y263000D03*
Y273016D03*
Y279000D03*
Y285000D03*
Y290984D03*
Y295016D03*
Y301000D03*
Y344000D03*
Y359984D03*
Y354000D03*
Y349984D03*
G54D11*
X12400Y78000D03*
Y86268D03*
X39400Y270268D03*
Y262000D03*
X86400Y78000D03*
Y86268D03*
X94400Y267000D03*
Y275268D03*
X104400Y77732D03*
Y86000D03*
X109400Y270268D03*
Y262000D03*
X164400Y267000D03*
Y275268D03*
X179400Y270268D03*
Y262000D03*
X234400Y267000D03*
Y275268D03*
X249400Y270268D03*
Y262000D03*
X304400Y267000D03*
Y275268D03*
X322000Y112134D03*
Y103866D03*
G54D20*
X38416Y345000D03*
X44400D03*
X52416Y292000D03*
X58400D03*
X65400D03*
X58384Y311000D03*
X52400D03*
X52416Y317000D03*
X58400D03*
X66416Y343800D03*
X66532Y350495D03*
X81408Y260000D03*
X81400Y270000D03*
X81416Y275000D03*
X71384Y292000D03*
X72400Y343800D03*
X72516Y350495D03*
X93416Y104000D03*
X93400Y129000D03*
X93416Y124000D03*
X93400Y134000D03*
X93416Y144000D03*
X93400Y150000D03*
Y178000D03*
Y170000D03*
Y185000D03*
Y190000D03*
Y195000D03*
X87392Y260000D03*
X87384Y270000D03*
X87400Y275000D03*
X99400Y104000D03*
X99384Y129000D03*
X99400Y124000D03*
X99384Y134000D03*
X99400Y144000D03*
X99384Y150000D03*
Y178000D03*
Y170000D03*
Y185000D03*
Y190000D03*
Y195000D03*
X108416Y345000D03*
X114400D03*
X127492Y55000D03*
X121508D03*
X127492Y60000D03*
X121508D03*
X127492Y65000D03*
X121508D03*
Y70000D03*
X127492D03*
X120016Y216800D03*
X126000D03*
X122416Y292000D03*
X128400D03*
X122416Y317000D03*
X128400D03*
X128384Y311000D03*
X122400D03*
X145492Y32000D03*
X139508D03*
X144984Y216800D03*
X139000D03*
X141384Y292000D03*
X135400D03*
X136416Y343800D03*
X142400D03*
X142384Y350495D03*
X136400D03*
X155992Y32000D03*
X150008D03*
X151408Y260000D03*
X157392D03*
X151408Y265000D03*
X157392D03*
X157384Y270000D03*
X151400D03*
X151416Y275000D03*
X157400D03*
X192416Y292000D03*
Y317000D03*
X192400Y311000D03*
X178416Y345000D03*
X184400D03*
X203416Y154000D03*
Y174000D03*
Y188000D03*
Y199000D03*
X198400Y292000D03*
X205400D03*
X198400Y317000D03*
X198384Y311000D03*
X206416Y343800D03*
X206400Y350495D03*
X219008Y86000D03*
X209400Y154000D03*
Y174000D03*
X216008Y192000D03*
X221992D03*
X209400Y188000D03*
X221984Y183000D03*
X216000D03*
X209400Y199000D03*
X218008Y228000D03*
X223992D03*
X221408Y260000D03*
X221400Y270000D03*
X221416Y275000D03*
X211384Y292000D03*
X212400Y343800D03*
X212384Y350495D03*
X224992Y86000D03*
X233016D03*
X239000D03*
X240008Y192000D03*
X227392Y260000D03*
X227384Y270000D03*
X227400Y275000D03*
X255008Y86000D03*
X245992Y192000D03*
X242008Y228000D03*
X247992D03*
X248416Y345000D03*
X254400D03*
X260992Y86000D03*
X269016D03*
X266016Y192000D03*
X269984Y183000D03*
X264000D03*
X266008Y228000D03*
X262416Y292000D03*
X268400D03*
X262416Y317000D03*
X268400D03*
X268384Y311000D03*
X262400D03*
X275000Y86000D03*
X272000Y192000D03*
X281984D03*
X276000D03*
X276008Y228000D03*
X281992D03*
X271992D03*
X281384Y292000D03*
X275400D03*
X282384Y350495D03*
X276400D03*
X276416Y343800D03*
X282400D03*
X291008Y86000D03*
X296992D03*
X288016Y192000D03*
X294000D03*
X298000D03*
X298008Y228000D03*
X288008D03*
X293992D03*
X291408Y260000D03*
X297392D03*
X291408Y265000D03*
X297392D03*
X297384Y270000D03*
X291400D03*
X291416Y275000D03*
X297400D03*
X305016Y86000D03*
X311000D03*
X305008Y176000D03*
X310992D03*
X303984Y192000D03*
X310016D03*
X316000D03*
X303992Y228000D03*
X310008D03*
X315992D03*
X318384Y308000D03*
X312400D03*
X333984Y86000D03*
X328000D03*
X325984Y192000D03*
X320000D03*
X334016Y221000D03*
X320008Y228000D03*
X325992D03*
X328384Y322000D03*
X322400D03*
X332416D03*
X344008Y98000D03*
X340016Y86000D03*
X346000D03*
X344008Y92000D03*
Y104000D03*
Y110000D03*
X336016Y192000D03*
X342000D03*
X336008Y199000D03*
X341992D03*
X340000Y221000D03*
X348384Y322000D03*
X342400D03*
X338400D03*
X348384Y365000D03*
X342400D03*
X349992Y98000D03*
Y92000D03*
Y104000D03*
Y110000D03*
G54D30*
X227000Y103000D03*
X263000D03*
X299000D03*
G54D21*
X44400Y354591D03*
Y379000D03*
X114400Y354591D03*
Y379000D03*
X184400Y354591D03*
Y379000D03*
X254400Y354591D03*
Y379000D03*
G54D12*
X20707Y104693D03*
Y106662D03*
Y108630D03*
Y110598D03*
Y112567D03*
Y114536D03*
Y116504D03*
Y118472D03*
Y120441D03*
Y122410D03*
Y124378D03*
Y126346D03*
Y128315D03*
Y130284D03*
Y132252D03*
Y134220D03*
Y136189D03*
Y138158D03*
Y140126D03*
Y142094D03*
Y144063D03*
Y146032D03*
Y148000D03*
Y149968D03*
Y151937D03*
X81337Y114536D03*
Y112567D03*
Y110598D03*
Y108630D03*
Y106662D03*
Y104693D03*
Y128315D03*
Y126346D03*
Y124378D03*
Y122410D03*
Y120441D03*
Y118472D03*
Y116504D03*
Y144063D03*
Y142094D03*
Y140126D03*
Y138158D03*
Y136189D03*
Y134220D03*
Y132252D03*
Y130284D03*
Y151937D03*
Y149968D03*
Y148000D03*
Y146032D03*
X109825Y130425D03*
Y132394D03*
Y134362D03*
Y136331D03*
Y138299D03*
Y140268D03*
Y142236D03*
Y144205D03*
Y146173D03*
Y148142D03*
Y150110D03*
Y152079D03*
Y154047D03*
Y156016D03*
Y157984D03*
Y159953D03*
Y161921D03*
Y163890D03*
Y165858D03*
Y167827D03*
Y169795D03*
Y171764D03*
Y173732D03*
Y175701D03*
Y177669D03*
Y179638D03*
Y181606D03*
Y183575D03*
Y185543D03*
Y187512D03*
Y189480D03*
Y191449D03*
Y193417D03*
Y195386D03*
Y197354D03*
Y199323D03*
X194077Y144205D03*
Y142236D03*
Y140268D03*
Y138299D03*
Y136331D03*
Y134362D03*
Y132394D03*
Y130425D03*
Y159953D03*
Y157984D03*
Y156016D03*
Y154047D03*
Y152079D03*
Y150110D03*
Y148142D03*
Y146173D03*
Y175701D03*
Y173732D03*
Y171764D03*
Y169795D03*
Y167827D03*
Y165858D03*
Y163890D03*
Y161921D03*
Y191449D03*
Y189480D03*
Y187512D03*
Y185543D03*
Y183575D03*
Y181606D03*
Y179638D03*
Y177669D03*
Y199323D03*
Y197354D03*
Y195386D03*
Y193417D03*
G54D22*
X62061Y301161D03*
X132061D03*
X202061D03*
X272061D03*
G54D31*
X224500Y93158D03*
X219500D03*
Y112842D03*
X224500D03*
X234500Y93158D03*
X229500D03*
Y112842D03*
X234500D03*
X255500Y93158D03*
Y112842D03*
X270500Y93158D03*
X265500D03*
X260500D03*
Y112842D03*
X265500D03*
X270500D03*
X301500Y93158D03*
X296500D03*
X291500D03*
Y112842D03*
X296500D03*
X301500D03*
X306500Y93158D03*
Y112842D03*
G54D13*
X20707Y188118D03*
X17557D03*
X14408D03*
X11258D03*
Y233000D03*
X14408D03*
X17557D03*
X20707D03*
X36455Y188118D03*
X33306D03*
X30156D03*
X27006D03*
X23857D03*
Y233000D03*
X27006D03*
X30156D03*
X33306D03*
X36455D03*
X52203Y188118D03*
X49054D03*
X45904D03*
X42754D03*
X39605D03*
Y233000D03*
X42754D03*
X45904D03*
X49054D03*
X52203D03*
X67951Y188118D03*
X64802D03*
X61652D03*
X58502D03*
X55353D03*
Y233000D03*
X58502D03*
X61652D03*
X64802D03*
X67951D03*
X77400Y188118D03*
X74250D03*
X71101D03*
Y233000D03*
X74250D03*
X77400D03*
G54D40*
X316282Y342677D03*
X313723D03*
Y360000D03*
X316282D03*
X332882Y94677D03*
X330323D03*
Y112000D03*
X332882D03*
X321400Y342677D03*
X318841D03*
Y360000D03*
X321400D03*
X338000Y94677D03*
X335441D03*
Y112000D03*
X338000D03*
G54D41*
X322000Y84110D03*
Y97890D03*
G54D23*
X63030Y330500D03*
X133030D03*
X203030D03*
X273030D03*
G54D14*
X35274Y98000D03*
X33306D03*
X31337D03*
X29369D03*
X27400D03*
Y158630D03*
X29369D03*
X31337D03*
X33306D03*
X35274D03*
X51022Y98000D03*
X49054D03*
X47085D03*
X45117D03*
X43148D03*
X41180D03*
X39211D03*
X37242D03*
Y158630D03*
X39211D03*
X41180D03*
X43148D03*
X45117D03*
X47085D03*
X49054D03*
X51022D03*
X66770Y98000D03*
X64802D03*
X62833D03*
X60864D03*
X58896D03*
X56928D03*
X54959D03*
X52990D03*
Y158630D03*
X54959D03*
X56928D03*
X58896D03*
X60864D03*
X62833D03*
X64802D03*
X66770D03*
X74644Y98000D03*
X72676D03*
X70707D03*
X68738D03*
Y158630D03*
X70707D03*
X72676D03*
X74644D03*
X129313Y122748D03*
X127345D03*
X125376D03*
X123408D03*
X121439D03*
X119471D03*
X117502D03*
Y207000D03*
X119471D03*
X121439D03*
X123408D03*
X125376D03*
X127345D03*
X129313D03*
X145061Y122748D03*
X143093D03*
X141124D03*
X139156D03*
X137187D03*
X135219D03*
X133250D03*
X131282D03*
Y207000D03*
X133250D03*
X135219D03*
X137187D03*
X139156D03*
X141124D03*
X143093D03*
X145061D03*
X160810Y122748D03*
X158841D03*
X156872D03*
X154904D03*
X152936D03*
X150967D03*
X148998D03*
X147030D03*
Y207000D03*
X148998D03*
X150967D03*
X152936D03*
X154904D03*
X156872D03*
X158841D03*
X160810D03*
X176558Y122748D03*
X174589D03*
X172620D03*
X170652D03*
X168684D03*
X166715D03*
X164746D03*
X162778D03*
Y207000D03*
X164746D03*
X166715D03*
X168684D03*
X170652D03*
X172620D03*
X174589D03*
X176558D03*
X186400Y122748D03*
X184432D03*
X182463D03*
X180494D03*
X178526D03*
Y207000D03*
X180494D03*
X182463D03*
X184432D03*
X186400D03*
G54D32*
X215795Y158000D03*
X240205D03*
X251795D03*
X276205D03*
X287795D03*
X312205D03*
X323795Y130000D03*
Y160000D03*
X348205Y130000D03*
Y160000D03*
G54D42*
X333472Y346500D03*
X333400Y355520D03*
Y363000D03*
X342528Y342760D03*
X342455Y359260D03*
X342528Y350240D03*
G54D24*
X89200Y12772D03*
X85460Y21828D03*
X92940D03*
G54D33*
X215898Y176000D03*
X228102D03*
X263795D03*
X276000D03*
X287898D03*
X300102D03*
G54D15*
X26982Y294874D03*
Y312590D03*
Y320969D03*
Y338685D03*
X98743Y294874D03*
Y312590D03*
X98632Y320969D03*
Y338685D03*
X168643Y294874D03*
Y312590D03*
X168516Y320969D03*
Y338685D03*
X234000Y122000D03*
Y139716D03*
X238527Y294874D03*
Y312590D03*
X238400Y320969D03*
Y338685D03*
X270000Y122000D03*
Y139716D03*
X306000Y122000D03*
Y139716D03*
G54D16*
X52983Y260043D03*
Y262602D03*
Y265161D03*
Y267720D03*
Y270280D03*
Y272839D03*
Y275398D03*
Y277957D03*
X75817Y270280D03*
Y267720D03*
Y265161D03*
Y262602D03*
Y260043D03*
Y277957D03*
Y275398D03*
Y272839D03*
X122983Y260043D03*
Y262602D03*
Y265161D03*
Y267720D03*
Y270280D03*
Y272839D03*
Y275398D03*
Y277957D03*
X145817Y270280D03*
Y267720D03*
Y265161D03*
Y262602D03*
Y260043D03*
Y277957D03*
Y275398D03*
Y272839D03*
X192983Y260043D03*
Y262602D03*
Y265161D03*
Y267720D03*
Y270280D03*
Y272839D03*
Y275398D03*
Y277957D03*
X215817Y270280D03*
Y267720D03*
Y265161D03*
Y262602D03*
Y260043D03*
Y277957D03*
Y275398D03*
Y272839D03*
X262983Y260043D03*
Y262602D03*
Y265161D03*
Y267720D03*
Y270280D03*
Y272839D03*
Y275398D03*
Y277957D03*
X285817Y270280D03*
Y267720D03*
Y265161D03*
Y262602D03*
Y260043D03*
Y277957D03*
Y275398D03*
Y272839D03*
G54D25*
X95400Y77000D03*
Y86843D03*
G54D43*
X341740Y204276D03*
X338000D03*
X334260D03*
Y213724D03*
X341740D03*
G54D34*
X222500Y199370D03*
Y220630D03*
X237500Y199370D03*
X232500D03*
X227500D03*
Y220630D03*
X232500D03*
X237500D03*
X254500Y199370D03*
X249500D03*
X244500D03*
Y220630D03*
X249500D03*
X254500D03*
X259500Y199370D03*
X271500D03*
X266500D03*
X259500Y220630D03*
X266500D03*
X271500D03*
X281500Y199370D03*
X276500D03*
Y220630D03*
X281500D03*
X298500Y199370D03*
X293500D03*
X288500D03*
Y220630D03*
X293500D03*
X298500D03*
X303500Y199370D03*
X315500D03*
X310500D03*
X303500Y220630D03*
X310500D03*
X315500D03*
X325500Y199370D03*
X320500D03*
Y220630D03*
X325500D03*
G54D35*
X292000Y399291D03*
Y410709D03*
G54D17*
X50132Y285000D03*
X65400D03*
X58400D03*
X63132Y316000D03*
X53132Y345000D03*
X61400D03*
X82132Y283000D03*
X73668Y285000D03*
X71400Y316000D03*
X78132Y345000D03*
X90400Y283000D03*
X86400Y345000D03*
X116732Y223800D03*
X125000D03*
X116732Y232800D03*
X125000D03*
X120132Y285000D03*
X128400D03*
X123132Y345000D03*
X143668Y285000D03*
X135400D03*
X133132Y316000D03*
X141400D03*
X131400Y345000D03*
X152132Y283000D03*
X160400D03*
X148132Y345000D03*
X156400D03*
X190132Y285000D03*
X193132Y345000D03*
X198400Y285000D03*
X205400D03*
X203132Y316000D03*
X201400Y345000D03*
X222132Y283000D03*
X213668Y285000D03*
X211400Y316000D03*
X218132Y345000D03*
X226866Y192000D03*
X235134D03*
X228866Y229000D03*
X237134D03*
X230400Y283000D03*
X226400Y345000D03*
X250866Y192000D03*
X252866Y229000D03*
X259134Y192000D03*
X261134Y229000D03*
X260132Y285000D03*
X268400D03*
X263132Y345000D03*
X271400D03*
X272866Y235000D03*
X281134D03*
X283668Y285000D03*
X275400D03*
X273132Y316000D03*
X281400D03*
X294866Y235000D03*
X303134D03*
X292132Y283000D03*
X300400D03*
X288132Y345000D03*
X296400D03*
X316866Y235000D03*
X333732Y228000D03*
X325134Y235000D03*
X338866Y179000D03*
X347134D03*
X342000Y228000D03*
G54D26*
X138650Y5402D03*
Y21544D03*
X157547Y5402D03*
Y21544D03*
G54D18*
X53400Y297323D03*
Y299882D03*
Y302441D03*
Y305000D03*
X70723Y302441D03*
Y299882D03*
Y297323D03*
Y305000D03*
X123400Y297323D03*
Y299882D03*
Y302441D03*
Y305000D03*
X140723Y302441D03*
Y299882D03*
Y297323D03*
Y305000D03*
X193400Y297323D03*
Y299882D03*
Y302441D03*
Y305000D03*
X210723Y302441D03*
Y299882D03*
Y297323D03*
Y305000D03*
X263400Y297323D03*
Y299882D03*
Y302441D03*
Y305000D03*
X280723Y302441D03*
Y299882D03*
Y297323D03*
Y305000D03*
G54D36*
X319534Y264000D03*
Y269000D03*
Y274000D03*
Y279000D03*
X340400Y269000D03*
Y264000D03*
Y279000D03*
Y274000D03*
G54D27*
X139142Y17213D03*
X157055D03*
G54D28*
X148000Y222926D03*
X138157D03*
Y230800D03*
X148000D03*
G54D37*
X316400Y316000D03*
X307345Y319740D03*
X316400Y323480D03*
G54D19*
X52400Y323000D03*
Y328000D03*
Y333000D03*
Y338000D03*
X58140Y356000D03*
Y361000D03*
Y366000D03*
Y371000D03*
X73660Y333000D03*
Y328000D03*
Y323000D03*
Y338000D03*
X79400Y361000D03*
Y356000D03*
Y371000D03*
Y366000D03*
X122400Y323000D03*
Y328000D03*
Y333000D03*
Y338000D03*
X128140Y356000D03*
Y361000D03*
Y366000D03*
Y371000D03*
X143660Y333000D03*
Y328000D03*
Y323000D03*
Y338000D03*
X149400Y361000D03*
Y356000D03*
Y371000D03*
Y366000D03*
X192400Y323000D03*
Y328000D03*
Y333000D03*
Y338000D03*
X198140Y356000D03*
Y361000D03*
Y366000D03*
Y371000D03*
X213660Y333000D03*
Y328000D03*
Y323000D03*
Y338000D03*
X219400Y361000D03*
Y356000D03*
Y371000D03*
Y366000D03*
X262400Y323000D03*
Y328000D03*
Y333000D03*
Y338000D03*
X268140Y356000D03*
Y361000D03*
Y366000D03*
Y371000D03*
X283660Y333000D03*
Y328000D03*
Y323000D03*
Y338000D03*
X289400Y361000D03*
Y356000D03*
Y371000D03*
Y366000D03*
X319140Y286000D03*
Y291000D03*
Y296000D03*
Y301000D03*
X340400Y286000D03*
Y301000D03*
Y296000D03*
Y291000D03*
G54D38*
X308983Y334000D03*
X320400D03*
G54D29*
X217354Y76000D03*
X236646D03*
X253354D03*
X272646D03*
X289354D03*
X308646D03*
X328354D03*
X326400Y312000D03*
X347646Y76000D03*
X345691Y312000D03*
G54D39*
X317561Y351339D03*
X334161Y103339D03*
M02*
