G04 ================== begin FILE IDENTIFICATION RECORD ==================*
G04 Layout Name:  E:/material/lool Inds Vibration/hardware/v2.0/pcb/vibration.brd*
G04 Film Name:    SILKSCREEN_TOP*
G04 File Format:  Gerber RS274X*
G04 File Origin:  Cadence Allegro 16.6-2015-S065*
G04 Origin Date:  Sat Jul 02 00:54:54 2016*
G04 *
G04 Layer:  PACKAGE GEOMETRY/SILKSCREEN_TOP*
G04 Layer:  BOARD GEOMETRY/SILKSCREEN_TOP*
G04 *
G04 Offset:    (0.000 0.000)*
G04 Mirror:    No*
G04 Mode:      Positive*
G04 Rotation:  0*
G04 FullContactRelief:  No*
G04 UndefLineWidth:     1.000*
G04 ================== end FILE IDENTIFICATION RECORD ====================*
%FSLAX25Y25*MOIN*%
%IR0*IPPOS*OFA0.00000B0.00000*MIA0B0*SFA1.00000B1.00000*%
%ADD10C,.004*%
%ADD11C,.008*%
%ADD12C,.003937*%
%ADD13C,.009843*%
%ADD14C,.007874*%
%ADD15C,.012*%
%ADD16C,.015*%
%ADD17C,.019685*%
G75*
%LPD*%
G75*
G36*
G01X15818Y318610D02*
G02X17066Y320672I597194J-360019D01*
G01X18196Y322531D01*
G02X18226Y322548I30J-18D01*
G02X18259Y322539I0J-68D01*
G02X18410Y322454I-8116J-14568D01*
G02X18587Y322350I-4258J-7441D01*
G02X18787Y322227I-7672J-12709D01*
G01X19300Y321906D01*
X18955Y321159D01*
G03X18805Y320823I14130J-6515D01*
G03X18639Y320431I25670J-11110D01*
G03X18482Y320045I25159J-10437D01*
G03X18362Y319730I10877J-4320D01*
G03X18227Y319325I7513J-2736D01*
G03X18164Y319040I1742J-531D01*
G03X18148Y318749I1814J-248D01*
G03X18170Y318321I8124J195D01*
G03X18315Y317281I8392J645D01*
G03X18643Y315848I30654J6263D01*
G03X19025Y314409I65860J16715D01*
G03X19232Y314133I455J126D01*
G03X19275Y314121I41J67D01*
G03X19341Y314128I-5J376D01*
G03X19418Y314149I-94J484D01*
G03X19494Y314183I-205J560D01*
G02X19813Y314186I163J-304D01*
G02X20110Y313915I-344J-673D01*
G02X20343Y313371I-1616J-1014D01*
G02X20475Y312621I-4929J-1255D01*
G03X20522Y312208I15612J1559D01*
G03X20566Y312048I565J71D01*
G03X20643Y311969I145J65D01*
G03X20783Y311929I190J399D01*
G03X21097Y312000I56J484D01*
G03X21323Y312256I-320J512D01*
G03X21456Y312729I-1354J635D01*
G03X21493Y313446I-6388J694D01*
G03X21469Y313989I-6566J-23D01*
G03X21397Y314417I-2698J-234D01*
G03X21264Y314799I-2202J-555D01*
G03X21053Y315194I-3114J-1410D01*
G02X20902Y315451I4663J2898D01*
G02X20841Y315609I573J314D01*
G02X20834Y315747I354J87D01*
G02X20875Y315917I887J-125D01*
G03X20947Y316328I-1221J426D01*
G03X20924Y316982I-7141J78D01*
G03X20839Y317643I-7023J-567D01*
G03X20698Y318105I-1972J-349D01*
G01X20512Y318525D01*
X20963Y318968D01*
G03X21156Y319171I-3061J3115D01*
G03X21365Y319415I-5585J4994D01*
G03X21558Y319660I-5586J4582D01*
G03X21699Y319866I-2409J1808D01*
G01X21810Y320043D01*
G02X21908Y320197I66477J-41882D01*
G01X21991Y320329D01*
G02X22008Y320354I502J-318D01*
G02X22029Y320357I12J-9D01*
G02X22180Y320244I-8455J-11351D01*
G02X22355Y320104I-3732J-4878D01*
G02X22559Y319932I-7807J-9462D01*
G03X23081Y319515I5894J6835D01*
G03X23636Y319134I5504J7435D01*
G03X24204Y318803I4747J7493D01*
G03X24768Y318533I3407J6379D01*
G02X24993Y318428I-1544J-3615D01*
G02X25178Y318323I-966J-1916D01*
G02X25314Y318228I-1018J-1601D01*
G02X25332Y318174I-32J-41D01*
G02X25225Y317964I-523J133D01*
G02X24872Y317556I-8343J6888D01*
G02X24395Y317062I-9278J8476D01*
G02X23802Y316499I-17641J17971D01*
G03X23114Y315811I7918J-8610D01*
G03X22720Y315264I2066J-1902D01*
G03X22520Y314717I1691J-932D01*
G03X22452Y314048I3307J-672D01*
G03X22457Y313792I6471J-7D01*
G03X22472Y313548I5309J207D01*
G03X22494Y313344I4852J411D01*
G03X22520Y313241I409J52D01*
G03X22572Y313175I142J58D01*
G03X22633Y313173I32J43D01*
G03X22723Y313254I-204J320D01*
G03X22908Y313489I-7691J6251D01*
G02X23396Y313978I2082J-1590D01*
G02X23964Y314282I1212J-1581D01*
G02X24545Y314368I526J-1537D01*
G02X25074Y314229I-42J-1234D01*
G03X25179Y314177I1455J2790D01*
G03X25277Y314133I981J2064D01*
G03X25360Y314100I876J2097D01*
G03X25398Y314093I39J103D01*
G03X25439Y314111I0J54D01*
G03X25629Y314324I-19767J17884D01*
G03X25846Y314577I-8595J7613D01*
G03X26093Y314877I-16104J13440D01*
G02X26670Y315553I11751J-9449D01*
G02X27229Y316122I7282J-6598D01*
G02X27717Y316549I6302J-6719D01*
G02X27971Y316639I254J-312D01*
G02X28112Y316600I0J-274D01*
G01X29724Y315631D01*
G02X31544Y314523I-116880J-194072D01*
G02X33669Y313207I-223277J-362984D01*
G01X39175Y309775D01*
X31965Y309752D01*
G02X28688Y309745I-5244J1618256D01*
G01X24781Y309742D01*
X20881Y309745D01*
G02X17634Y309752I1921J1576899D01*
G01X10514Y309775D01*
X14345Y316162D01*
G02X15818Y318610I1169952J-701986D01*
G37*
G36*
G01X27063Y336985D02*
G02X27166Y337134I3146J-2065D01*
G02X27254Y337252I5098J-3713D01*
G02X27275Y337254I11J-8D01*
G02X27481Y336969I-792J-792D01*
G01X29632Y332735D01*
X31803Y328455D01*
G02X31859Y328221I-461J-234D01*
G02X31782Y327864I-862J0D01*
G02X31551Y327488I-1629J741D01*
G02X31202Y327140I-1725J1380D01*
G02X30776Y326867I-1540J1931D01*
G02X29951Y326530I-2507J4962D01*
G02X28987Y326284I-2606J8213D01*
G02X27757Y326101I-2714J13978D01*
G02X26086Y325956I-4798J45814D01*
G03X25312Y325896I2591J-38072D01*
G03X24565Y325821I2952J-33323D01*
G03X23928Y325743I3381J-30383D01*
G03X23587Y325678I401J-3029D01*
G03X22890Y325455I1383J-5516D01*
G03X22161Y325126I2959J-7531D01*
G03X21502Y324746I3435J-6710D01*
G03X21023Y324366I1725J-2667D01*
G01X20562Y323922D01*
X20026Y324285D01*
G02X19824Y324429I3292J4846D01*
G02X19659Y324561I1811J2439D01*
G02X19534Y324673I2397J2796D01*
G02X19528Y324712I22J23D01*
G02X19603Y324836I6753J-3971D01*
G01X23113Y330557D01*
X26423Y335952D01*
G02X26947Y336802I348374J-213779D01*
G02X27063Y336985I6544J-4036D01*
G37*
G36*
G01X34423Y322217D02*
G02X34612Y322282I1363J-3633D01*
G02X34771Y322329I1141J-3600D01*
G02X34845Y322334I52J-193D01*
G02X34963Y322256I-17J-153D01*
G01X37717Y317246D01*
X40475Y312226D01*
G02X40460Y312118I-80J-44D01*
G02X40437Y312115I-13J13D01*
G01X38969Y312958D01*
G02X37344Y313895I253570J441564D01*
G02X35420Y315013I503285J868928D01*
G02X32594Y316664I469353J806215D01*
G02X31286Y317456I28463J48499D01*
G02X30502Y317960I17945J28764D01*
G02X30405Y318142I121J182D01*
G02X30438Y318265I242J0D01*
G02X30540Y318397I569J-335D01*
G02X30724Y318554I1112J-1110D01*
G02X31029Y318767I4885J-6676D01*
G03X31644Y319239I-3194J4805D01*
G03X32261Y319837I-5719J6506D01*
G03X32825Y320505I-6538J6096D01*
G03X33285Y321186I-5558J4248D01*
G02X33555Y321623I11289J-6689D01*
G02X33732Y321844I1161J-751D01*
G02X33925Y321991I617J-610D01*
G02X34223Y322137I1447J-2575D01*
G02X34423Y322217I2058J-4870D01*
G37*
G36*
G01X184818Y22733D02*
X197800D01*
Y19532D01*
X191333Y19555D01*
X184867Y19578D01*
X184842Y21156D01*
X184818Y22733D01*
G37*
G36*
G01X184019Y41961D02*
G02X184188Y41878I-47J-309D01*
G02X184591Y41461I-5146J-5389D01*
G02X185812Y40093I-324739J-290895D01*
G01X186535Y39279D01*
X187150Y38586D01*
X187698Y37969D01*
X187729Y37935D01*
G03X187742Y37940I6J5D01*
G03X187748Y38035I-1712J139D01*
G03X187747Y38168I-2279J58D01*
G03X187739Y38335I-5586J-187D01*
G03X187715Y38613I-5809J-365D01*
G03X187675Y38721I-240J-27D01*
G03X187596Y38776I-111J-75D01*
G03X187422Y38806I-290J-1174D01*
G02X187261Y38830I138J1429D01*
G02X187182Y38873I33J154D01*
G02X187144Y38949I96J96D01*
G02X187133Y39094I970J145D01*
G02X187143Y39240I1132J0D01*
G02X187178Y39312I120J-16D01*
G02X187251Y39346I88J-89D01*
G02X187400Y39356I150J-1215D01*
G03X187532Y39364I1J1078D01*
G03X187610Y39392I-23J182D01*
G03X187652Y39446I-58J88D01*
G03X187667Y39530I-241J85D01*
G02X187728Y39735I369J0D01*
G02X187948Y40020I2155J-1432D01*
G02X188210Y40276I1908J-1693D01*
G02X188427Y40387I348J-412D01*
G03X188512Y40421I-81J324D01*
G03X188584Y40478I-162J282D01*
G03X188636Y40550I-220J212D01*
G03X188662Y40631I-228J117D01*
G02X188695Y40729I281J-40D01*
G02X188758Y40791I136J-76D01*
G02X188872Y40828I164J-313D01*
G02X189080Y40850I415J-2876D01*
G02X189234Y40855I128J-1798D01*
G02X189372Y40845I-16J-1191D01*
G02X189481Y40824I-124J-947D01*
G02X189524Y40792I-18J-70D01*
G03X189670Y40714I139J86D01*
G03X190183Y40751I-305J7832D01*
G03X190691Y40820I-856J8179D01*
G03X190778Y40923I-17J103D01*
G02X190823Y40985I64J0D01*
G02X190988Y41020I273J-882D01*
G02X191276Y41039I345J-2912D01*
G02X191800Y41044I523J-27339D01*
G02X192401Y41040I1J-41863D01*
G02X192656Y41019I-26J-1845D01*
G02X192777Y40971I-46J-296D01*
G02X192822Y40887I-57J-84D01*
G03X192859Y40801I118J0D01*
G03X192966Y40731I251J268D01*
G03X193168Y40664I504J1180D01*
G03X193538Y40581I2668J11039D01*
G02X193842Y40510I-1233J-5957D01*
G02X194162Y40420I-1990J-7632D01*
G02X194452Y40324I-2097J-6841D01*
G02X194656Y40239I-665J-1879D01*
G03X194854Y40150I1552J3208D01*
G03X194991Y40110I266J647D01*
G03X195088Y40109I52J276D01*
G03X195158Y40144I-20J126D01*
G02X195308Y40226I215J-215D01*
G02X195517Y40238I140J-640D01*
G02X195729Y40182I-76J-716D01*
G02X195889Y40067I-187J-428D01*
G02X196005Y39859I-399J-361D01*
G02X196038Y39597I-765J-228D01*
G02X195983Y39345I-763J33D01*
G02X195850Y39164I-415J167D01*
G03X195780Y39100I511J-631D01*
G03X195720Y39031I495J-484D01*
G03X195679Y38966I443J-331D01*
G03X195667Y38919I86J-47D01*
G02X195650Y38882I-50J0D01*
G02X195601Y38851I-121J135D01*
G02X195530Y38829I-123J282D01*
G02X195444Y38822I-85J506D01*
G03X195331Y38812I0J-624D01*
G03X195266Y38777I22J-119D01*
G03X195232Y38711I90J-88D01*
G03X195222Y38594I681J-117D01*
G03X195230Y38494I669J0D01*
G03X195254Y38429I165J25D01*
G03X195295Y38397I67J43D01*
G03X195350Y38394I33J95D01*
G03X195434Y38440I-37J167D01*
G03X195958Y38974I-107871J106213D01*
G03X196555Y39597I-36744J35836D01*
G03X197239Y40331I-68114J64213D01*
G02X198404Y41587I287472J-265283D01*
G02X198775Y41952I4294J-3997D01*
G02X198938Y42019I176J-196D01*
G02X199029Y41940I4J-87D01*
G02X199026Y41767I-752J-73D01*
G02X198980Y41621I-452J61D01*
G02X198875Y41462I-739J376D01*
G02X198669Y41232I-4021J3390D01*
G03X198450Y41000I39586J-37581D01*
G01X198063Y40586D01*
X197612Y40104D01*
X197151Y39610D01*
X196022Y38398D01*
Y36778D01*
X195064D01*
X194999Y35869D01*
G02X194962Y35372I-83139J5948D01*
G01X194896Y34536D01*
X194819Y33575D01*
X194741Y32607D01*
X194548Y30253D01*
X196352Y28230D01*
G02X197043Y27449I-104028J-92731D01*
G02X197626Y26777I-55290J-48556D01*
G02X198135Y26182I-270400J-231754D01*
G02X198156Y26126I-66J-57D01*
G02X198147Y26087I-91J0D01*
G02X198119Y26038I-332J156D01*
G02X198079Y25986I-374J251D01*
G02X198031Y25941I-347J314D01*
G02X197918Y25938I-58J70D01*
G02X197675Y26146I1734J2279D01*
G02X197294Y26536I5394J5653D01*
G02X196599Y27308I64812J59057D01*
G03X196094Y27871I-90202J-80251D01*
G03X195662Y28346I-46708J-42083D01*
G01X195276Y28765D01*
G03X195247Y28778I-29J-27D01*
G03X195233Y28765I0J-14D01*
G03X195232Y28712I403J-31D01*
G03X195241Y28639I606J34D01*
G03X195260Y28552I1257J225D01*
G02X195266Y28114I-928J-233D01*
G02X195084Y27635I-1705J375D01*
G02X194761Y27214I-1628J912D01*
G02X194358Y26945I-921J941D01*
G02X193889Y26838I-523J1223D01*
G02X193404Y26903I-57J1418D01*
G02X192969Y27129I428J1353D01*
G02X192646Y27486I808J1056D01*
G01X192452Y27800D01*
X189711D01*
Y26822D01*
X188911D01*
Y27311D01*
G03X188905Y27499I-2741J0D01*
G03X188885Y27656I-1425J-98D01*
G03X188857Y27774I-1103J-200D01*
G03X188822Y27800I-35J-10D01*
G02X188787Y27823I0J38D01*
G02X188757Y27911I540J234D01*
G02X188735Y28033I851J217D01*
G02X188726Y28178I1627J178D01*
G03X188716Y28378I-3607J-73D01*
G03X188690Y28692I-20507J-1548D01*
G03X188655Y29047I-22981J-2099D01*
G03X188615Y29396I-21685J-2318D01*
G01X188511Y30236D01*
X186477Y28037D01*
G02X185202Y26665I-270794J250430D01*
G02X184714Y26177I-7472J6980D01*
G02X184442Y25969I-1169J1250D01*
G02X184282Y25984I-70J114D01*
G02X184254Y26144I88J97D01*
G02X184457Y26447I1744J-942D01*
G02X184936Y27004I9035J-7297D01*
G02X186300Y28483I318233J-292047D01*
G03X187728Y30031I-344331J318999D01*
G03X188192Y30575I-7420J6811D01*
G03X188391Y30895I-1277J1015D01*
G03X188430Y31163I-419J198D01*
G02X188402Y31386I4597J701D01*
G02X188329Y32098I277634J28692D01*
G02X188245Y32946I210241J21159D01*
G02X188156Y33889I321596J31063D01*
G03X188065Y34842I-284435J-26649D01*
G03X187978Y35720I-205443J-19930D01*
G03X187902Y36456I-222014J-22490D01*
G03X187866Y36753I-8287J-866D01*
G03X187762Y37096I-1156J-163D01*
G03X187545Y37450I-1877J-903D01*
G03X187096Y38000I-7804J-5911D01*
G03X185867Y39392I-235780J-207107D01*
G02X184721Y40690I193068J171625D01*
G02X184240Y41272I9334J8186D01*
G02X184002Y41629I2425J1879D01*
G02X183933Y41887I452J259D01*
G02X184019Y41961I74J0D01*
G37*
G36*
G01X214032Y28348D02*
G02X214103Y28357I138J-855D01*
G02X214186Y28360I91J-1166D01*
G02X214282Y28358I10J-1956D01*
G02X214396Y28351I-97J-2297D01*
G02X214477Y28338I-56J-602D01*
G02X214549Y28315I-114J-489D01*
G02X214636Y28276I-451J-1132D01*
G02X214761Y28201I-388J-788D01*
G02X214866Y28110I-423J-589D01*
G02X214955Y27996I-576J-542D01*
G02X215034Y27855I-1045J-674D01*
G02X215076Y27756I-1349J-638D01*
G02X215096Y27684I-356J-138D01*
G02X215104Y27599I-565J-99D01*
G02X215106Y27441I-5593J-132D01*
G02X215103Y27302I-4252J18D01*
G02X215095Y27207I-944J35D01*
G02X215079Y27130I-589J82D01*
G02X215052Y27049I-778J215D01*
G02X214982Y26917I-653J258D01*
G02X214879Y26786I-893J599D01*
G02X214757Y26673I-790J728D01*
G02X214631Y26593I-433J546D01*
G02X214547Y26556I-427J871D01*
G02X214478Y26538I-130J341D01*
G02X214393Y26530I-102J611D01*
G02X214240Y26527I-156J5536D01*
G02X214087Y26529I0J5520D01*
G02X214002Y26538I18J626D01*
G02X213933Y26556I60J361D01*
G02X213850Y26592I331J877D01*
G02X213730Y26667I309J629D01*
G02X213613Y26773I649J837D01*
G02X213511Y26896I790J755D01*
G02X213436Y27026I691J489D01*
G02X213401Y27111I848J398D01*
G02X213383Y27182I369J131D01*
G02X213375Y27271I682J105D01*
G02X213373Y27430I6129J145D01*
G02X213376Y27577I4961J-10D01*
G02X213384Y27673I960J-31D01*
G02X213400Y27751I567J-75D01*
G02X213427Y27832I749J-208D01*
G02X213516Y27996I741J-296D01*
G02X213642Y28139I728J-513D01*
G02X213799Y28255I621J-679D01*
G02X213977Y28335I465J-796D01*
G02X214032Y28348I113J-345D01*
G37*
G36*
G01X217856Y22971D02*
G02X217916Y22972I38J-306D01*
G02X217943Y22961I-3J-46D01*
G02X217955Y22936I-22J-25D01*
G02X217943Y22847I-339J0D01*
G02X217885Y22644I-7370J2002D01*
G02X217817Y22433I-5654J1706D01*
G02X217753Y22268I-2280J783D01*
G02X217446Y21701I-3204J1369D01*
G02X217019Y21155I-3876J2590D01*
G02X216500Y20660I-3676J3343D01*
G02X215918Y20249I-3081J3747D01*
G02X215723Y20143I-1361J2262D01*
G02X215553Y20074I-554J1126D01*
G02X215389Y20036I-314J976D01*
G02X215214Y20023I-174J1181D01*
G02X215028Y20036I0J1363D01*
G02X214879Y20076I85J615D01*
G02X214720Y20158I359J887D01*
G02X214484Y20319I3076J4771D01*
G02X214230Y20504I19336J26907D01*
G02X214100Y20604I1702J2325D01*
G02X213987Y20704I1392J1688D01*
G02X213813Y20872I9193J9707D01*
G02X213556Y21155I2337J2379D01*
G02X213338Y21462I2442J1974D01*
G02X213164Y21781I2483J1555D01*
G02X213042Y22103I2134J993D01*
G02X213012Y22218I1722J513D01*
G02X212991Y22329I1399J318D01*
G02X212978Y22452I1792J260D01*
G02X212968Y22608I4459J341D01*
G01X212956Y22907D01*
X213094Y22892D01*
G02X213331Y22844I-151J-1358D01*
G02X213587Y22750I-619J-2084D01*
G02X213841Y22620I-958J-2182D01*
G02X214076Y22461I-1169J-1977D01*
G02X214232Y22325I-1117J-1449D01*
G02X214437Y22118I-4776J-4918D01*
G02X214639Y21896I-5064J-4794D01*
G02X214791Y21705I-2329J-2021D01*
G02X214861Y21607I-2765J-2037D01*
G02X214945Y21482I-7022J-4813D01*
G02X215029Y21352I-7390J-4872D01*
G02X215100Y21236I-4390J-2787D01*
G03X215249Y20990I29737J17791D01*
G03X215304Y20912I616J375D01*
G03X215346Y20879I89J72D01*
G03X215396Y20872I39J86D01*
G03X215434Y20886I-9J80D01*
G03X215470Y20921I-103J143D01*
G03X215514Y20986I-438J342D01*
G03X215585Y21113I-4878J2804D01*
G02X215851Y21555I4863J-2631D01*
G02X216145Y21947I3746J-2504D01*
G02X216460Y22281I3043J-2552D01*
G02X216791Y22551I2025J-2145D01*
G02X217014Y22691I1413J-2012D01*
G02X217260Y22811I1366J-2471D01*
G02X217502Y22902I1023J-2366D01*
G02X217717Y22952I414J-1303D01*
G02X217856Y22971I1027J-6995D01*
G37*
G36*
G01X210847Y24502D02*
G02X211056Y24405I-243J-790D01*
G02X211331Y24189I-1074J-1653D01*
G02X211647Y23866I-3681J-3919D01*
G02X212099Y23282I-3690J-3321D01*
G02X212423Y22676I-3102J-2049D01*
G02X212626Y22030I-3314J-1396D01*
G02X212716Y21327I-4231J-903D01*
G03X212723Y21218I4435J205D01*
G03X212731Y21120I2888J204D01*
G03X212741Y21038I3521J373D01*
G03X212749Y21012I71J9D01*
G03X212784Y20984I56J31D01*
G03X212980Y20915I3886J10837D01*
G03X213251Y20828I3170J9375D01*
G03X213657Y20705I13460J43923D01*
G01X213825Y20656D01*
X213802Y20557D01*
G02X213793Y20519I-1589J355D01*
G02X213784Y20485I-975J244D01*
G02X213776Y20457I-1338J385D01*
G02X213772Y20450I-17J5D01*
G02X213757Y20446I-11J11D01*
G02X213504Y20511I35451J138143D01*
G02X213224Y20585I5574J21598D01*
G02X212907Y20673I9845J36161D01*
G01X212699Y20732D01*
X212523Y20679D01*
G02X212116Y20580I-1216J4094D01*
G02X211728Y20529I-613J3183D01*
G02X211326Y20525I-239J3432D01*
G02X210877Y20565I257J5442D01*
G02X210126Y20711I794J6065D01*
G02X209479Y20941I1008J3865D01*
G02X209029Y21204I1063J2335D01*
G02X208942Y21446I136J186D01*
G02X209026Y21542I137J-34D01*
G02X209262Y21614I528J-1316D01*
G02X209574Y21655I420J-1987D01*
G02X209927Y21654I167J-3162D01*
G02X210059Y21645I-391J-6667D01*
G02X210251Y21629I-2293J-29019D01*
G02X210463Y21610I-2751J-32259D01*
G02X210666Y21591I-2484J-27032D01*
G03X211042Y21560I1067J10729D01*
G03X211338Y21552I263J4105D01*
G03X211560Y21561I-25J3238D01*
G03X211641Y21598I-10J129D01*
G03X211664Y21654I-55J55D01*
G03X211646Y21724I-147J-2D01*
G03X211575Y21826I-539J-298D01*
G03X211416Y22005I-5325J-4564D01*
G02X211318Y22115I3822J3507D01*
G02X211218Y22233I4733J4106D01*
G02X211131Y22342I4347J3586D01*
G02X211074Y22420I1056J827D01*
G02X210875Y22787I1809J1219D01*
G02X210742Y23197I2260J957D01*
G02X210679Y23641I2596J595D01*
G02X210687Y24109I3165J179D01*
G02X210699Y24229I5218J-475D01*
G02X210714Y24337I3481J-399D01*
G02X210728Y24427I4081J-599D01*
G02X210738Y24457I98J-16D01*
G02X210847Y24502I82J-44D01*
G37*
G36*
G01X219897Y24484D02*
G02X219970Y24498I84J-242D01*
G02X220027Y24489I6J-138D01*
G02X220062Y24458I-25J-63D01*
G02X220095Y24347I-260J-139D01*
G02X220116Y24078I-6482J-641D01*
G02X220125Y23791I-5155J-295D01*
G02X220113Y23555I-2387J-4D01*
G02X220037Y23118I-2963J289D01*
G02X219900Y22735I-2022J509D01*
G02X219686Y22373I-2054J972D01*
G02X219375Y21994I-3349J2429D01*
G03X219222Y21822I4626J-4275D01*
G03X219153Y21722I441J-379D01*
G03X219136Y21654I125J-68D01*
G03X219159Y21598I79J0D01*
G03X219240Y21561I92J92D01*
G03X219461Y21551I248J3162D01*
G03X219753Y21560I33J4000D01*
G03X220123Y21590I-655J10107D01*
G02X220581Y21633I2997J-29501D01*
G02X220902Y21654I629J-7296D01*
G02X221149Y21657I167J-4005D01*
G02X221364Y21642I-46J-2311D01*
G02X221556Y21611I-229J-2023D01*
G02X221708Y21565I-192J-912D01*
G02X221814Y21509I-203J-511D01*
G02X221858Y21446I-61J-90D01*
G02X221774Y21208I-221J-55D01*
G02X221342Y20950I-1450J1935D01*
G02X220716Y20722I-1618J3482D01*
G02X219982Y20574I-1570J5876D01*
G02X219507Y20527I-832J5996D01*
G02X219093Y20528I-203J3432D01*
G02X218697Y20577I194J3147D01*
G02X218279Y20679I800J4208D01*
G01X218105Y20730D01*
X217571Y20586D01*
G02X217365Y20531I-4864J17911D01*
G02X217190Y20488I-2431J9411D01*
G02X217036Y20451I-9209J38437D01*
G02X217023Y20455I-3J13D01*
G02X217018Y20465I14J14D01*
G02X217013Y20493I481J97D01*
G02X217009Y20528I496J71D01*
G02X217007Y20566I740J54D01*
G01X217006Y20663D01*
X217451Y20800D01*
G02X217626Y20854I13557J-44026D01*
G02X217784Y20901I8867J-29158D01*
G02X217918Y20941I11132J-37363D01*
G02X217961Y20952I206J-700D01*
G03X217988Y20961I-33J146D01*
G03X218014Y20975I-73J168D01*
G03X218036Y20992I-88J136D01*
G03X218049Y21008I-43J47D01*
G03X218058Y21037I-75J40D01*
G03X218068Y21119I-3102J419D01*
G03X218077Y21218I-2742J302D01*
G03X218084Y21328I-4072J297D01*
G02X218174Y22030I4317J-199D01*
G02X218377Y22676I3518J-751D01*
G02X218701Y23282I3427J-1444D01*
G02X219153Y23866I4142J-2736D01*
G02X219337Y24060I3970J-3571D01*
G02X219514Y24227I2626J-2614D01*
G02X219676Y24360I1890J-2144D01*
G02X219813Y24447I625J-823D01*
G02X219897Y24484I276J-515D01*
G37*
G36*
G01X206820Y30486D02*
G02X206853Y30506I472J-755D01*
G02X206882Y30521I520J-922D01*
G02X206892Y30523I10J-20D01*
G02X206926Y30489I0J-35D01*
G02X206937Y29746I-175136J-2800D01*
G02Y29065I-29384J-341D01*
G02X206914Y28625I-5467J63D01*
G02X206857Y28289I-2258J208D01*
G02X206750Y27964I-2221J550D01*
G02X206581Y27620I-2749J1137D01*
G02X206333Y27222I-5685J3266D01*
G01X206263Y27118D01*
G02X206201Y27026I-38311J25903D01*
G01X206148Y26948D01*
G02X206134Y26928I-531J363D01*
G03X206131Y26905I18J-13D01*
G03X206170Y26826I1806J833D01*
G03X206227Y26722I1815J939D01*
G03X206311Y26585I5775J3419D01*
G02X206393Y26453I-48995J-30648D01*
G02X206476Y26318I-53593J-33291D01*
G02X206550Y26199I-47670J-29464D01*
G02X206598Y26121I-9005J-5537D01*
G01X206688Y25972D01*
X206620Y25916D01*
G02X206592Y25895I-360J440D01*
G02X206565Y25877I-252J350D01*
G02X206542Y25864I-200J327D01*
G02X206529Y25861I-14J26D01*
G02X206515Y25868I0J17D01*
G02X206421Y26007I27820J18801D01*
G02X206316Y26168I7741J5181D01*
G02X206195Y26360I14908J9530D01*
G03X206046Y26596I-16319J-10136D01*
G03X205941Y26751I-3455J-2218D01*
G03X205864Y26855I-2078J-1469D01*
G03X205820Y26890I-94J-74D01*
G03X205781Y26906I-217J-468D01*
G03X205703Y26934I-2330J-6310D01*
G03X205609Y26967I-2379J-6692D01*
G03X205511Y26999I-2768J-8158D01*
G02X204870Y27275I1193J3656D01*
G02X204340Y27646I1367J2521D01*
G02X203925Y28111I1745J1977D01*
G02X203626Y28664I2236J1564D01*
G02X203551Y28868I3775J1509D01*
G02X203493Y29060I2735J924D01*
G02X203452Y29243I2424J636D01*
G02X203428Y29419I2049J378D01*
G01X203409Y29613D01*
X203480Y29599D01*
G02X203528Y29580I-29J-146D01*
G02X203771Y29430I-23981J-38838D01*
G02X204052Y29251I-11357J-18159D01*
G02X204372Y29041I-20194J-31170D01*
G03X204918Y28684I30072J45399D01*
G03X205276Y28463I5403J8376D01*
G03X205525Y28325I3030J5160D01*
G03X205639Y28297I114J217D01*
G03X205706Y28316I0J127D01*
G03X205755Y28368I-73J117D01*
G03X205794Y28469I-374J201D01*
G03X205834Y28660I-3752J905D01*
G02X205986Y29248I4532J-854D01*
G02X206205Y29765I3194J-1051D01*
G02X206476Y30180I2338J-1232D01*
G02X206784Y30463I1060J-844D01*
G02X206820Y30486I766J-1150D01*
G37*
G36*
G01X207624Y28113D02*
X207693Y28047D01*
G02X207773Y27945I-320J-334D01*
G02X207869Y27764I-2301J-1335D01*
G02X207956Y27564I-2427J-1168D01*
G02X208009Y27390I-1236J-476D01*
G02X208033Y27251I-1071J-251D01*
G02X208045Y27073I-2710J-277D01*
G02X208051Y26792I-8764J-318D01*
G02X208052Y26223I-119815J-495D01*
G02X208048Y25565I-59609J25D01*
G02X208034Y25196I-6748J78D01*
G02X208005Y24950I-2531J168D01*
G02X207954Y24753I-1128J187D01*
G03X207938Y24701I672J-238D01*
G03X207930Y24659I270J-74D01*
G03X207930Y24624I172J-19D01*
G03X207937Y24597I81J7D01*
G03X207957Y24566I120J56D01*
G03X208070Y24437I19076J16666D01*
G03X208205Y24287I10273J9102D01*
G03X208361Y24118I17085J15594D01*
G01X208763Y23687D01*
X208648Y23624D01*
G02X208603Y23601I-2019J3738D01*
G02X208564Y23581I-1118J2132D01*
G02X208531Y23564I-2466J4905D01*
G02X208524Y23562I-6J13D01*
G02X208518Y23565I0J8D01*
G01X208399Y23697D01*
G02X208267Y23845I22278J20105D01*
G02X208111Y24021I43477J38707D01*
G01X207707Y24479D01*
X207598Y24462D01*
G02X207530Y24455I-92J600D01*
G02X207363Y24450I-580J14729D01*
G02X207165Y24445I-395J13973D01*
G02X206951Y24444I-259J19095D01*
G02X206640Y24445I-73J25750D01*
G02X206461Y24452I31J3158D01*
G02X206321Y24467I107J1626D01*
G02X206166Y24496I394J2561D01*
G02X206061Y24521I487J2250D01*
G02X205950Y24553I778J2916D01*
G02X205850Y24586I806J2622D01*
G02X205779Y24614I254J728D01*
G02X205427Y24835I713J1529D01*
G02X205012Y25210I3420J4205D01*
G02X204630Y25634I3893J3886D01*
G02X204382Y26014I1736J1407D01*
G02X204325Y26129I2548J1320D01*
G02X204299Y26203I391J180D01*
G02X204293Y26260I186J47D01*
G02X204305Y26314I176J-8D01*
G02X204380Y26364I72J-28D01*
G02X204632Y26342I-94J-2538D01*
G02X204934Y26282I-360J-2613D01*
G02X205239Y26186I-766J-2953D01*
G02X205410Y26112I-712J-1899D01*
G02X205688Y25975I-6137J-12698D01*
G02X205961Y25832I-6718J-13143D01*
G02X206106Y25743I-734J-1365D01*
G03X206315Y25627I697J1014D01*
G03X206633Y25503I1905J4413D01*
G03X206950Y25402I2047J5853D01*
G03X207088Y25399I74J254D01*
G03X207133Y25434I-17J69D01*
G03X207158Y25507I-194J107D01*
G03X207172Y25655I-1309J200D01*
G03X207186Y26035I-39662J1589D01*
G02X207226Y26761I14236J-434D01*
G02X207302Y27324I5377J-439D01*
G02X207413Y27749I3195J-604D01*
G02X207564Y28034I932J-311D01*
G01X207624Y28113D01*
G37*
G36*
G01X209076Y26002D02*
G02X209103Y26038I488J-346D01*
G02X209128Y26065I478J-396D01*
G02X209139Y26070I12J-11D01*
G02X209174Y26055I0J-47D01*
G02X209301Y25917I-7743J-7283D01*
G02X209436Y25763I-3615J-3283D01*
G02X209561Y25606I-3460J-2884D01*
G02X209743Y25348I-3560J-2711D01*
G02X209899Y25089I-3197J-2095D01*
G02X210027Y24829I-3076J-1684D01*
G02X210128Y24570I-2673J-1188D01*
G02X210193Y24350I-3167J-1061D01*
G02X210229Y24167I-1447J-377D01*
G02X210252Y23924I-3329J-434D01*
G02X210278Y23419I-49854J-2831D01*
G03X210292Y23134I59019J2753D01*
G03X210306Y22870I43020J2203D01*
G03X210319Y22649I46010J2640D01*
G03X210327Y22559I1797J114D01*
G01X210343Y22417D01*
X210716Y22118D01*
G02X210963Y21918I-30853J-38421D01*
G02X211033Y21852I-470J-577D01*
G02X211047Y21816I-37J-35D01*
G02X211029Y21787I-34J1D01*
G02X211004Y21776I-83J159D01*
G02X210978Y21770I-52J151D01*
G02X210956Y21768I-21J124D01*
G02X210941Y21772I1J31D01*
G02X210920Y21784I458J800D01*
G01X210827Y21841D01*
X210718Y21908D01*
X210594Y21984D01*
X210276Y22180D01*
X209879Y22180D01*
G02X209535Y22186I9J11310D01*
G02X209172Y22202I442J14066D01*
G02X208843Y22225I724J12694D01*
G02X208615Y22252I257J3074D01*
G02X208241Y22354I284J1787D01*
G02X207723Y22578I2839J7279D01*
G02X207201Y22850I3415J7176D01*
G02X206803Y23115I1742J3054D01*
G02X206686Y23215I861J1123D01*
G02X206583Y23325I889J929D01*
G02X206509Y23426I967J798D01*
G02X206508Y23472I36J24D01*
G02X206518Y23483I31J-19D01*
G02X206543Y23500I371J-516D01*
G02X206576Y23520I362J-561D01*
G02X206612Y23539I445J-785D01*
G02X206669Y23563I163J-319D01*
G02X206731Y23576I120J-388D01*
G02X206811Y23584I106J-733D01*
G02X206932Y23586I118J-3466D01*
G02X207382Y23568I-6J-5807D01*
G02X207807Y23515I-374J-4747D01*
G02X208206Y23428I-727J-4270D01*
G02X208579Y23306I-952J-3536D01*
G03X208849Y23207I2394J6172D01*
G03X209055Y23149I668J1972D01*
G03X209217Y23124I262J1154D01*
G03X209347Y23131I40J470D01*
G03X209433Y23159I-68J353D01*
G03X209467Y23203I-27J56D01*
G03X209457Y23265I-87J18D01*
G03X209393Y23357I-633J-369D01*
G02X209188Y23655I1766J1433D01*
G02X209005Y24018I3145J1813D01*
G02X208865Y24396I3292J1435D01*
G02X208790Y24740I2008J618D01*
G02X208780Y25041I1502J198D01*
G02X208827Y25377I2415J-165D01*
G02X208920Y25699I2329J-493D01*
G02X209048Y25960I1268J-462D01*
G02X209076Y26002I829J-528D01*
G37*
G36*
G01X211617Y28323D02*
G02X211655Y28337I49J-74D01*
G02X211738Y28343I87J-703D01*
G02X211972Y28343I177J-28154D01*
G02X212408Y28329I-14J-7324D01*
G02X212682Y28283I-81J-1314D01*
G02X212862Y28196I-154J-550D01*
G02X212981Y28060I-235J-326D01*
G02X213022Y27948I-366J-196D01*
G02X213031Y27826I-455J-94D01*
G02X213007Y27708I-448J27D01*
G02X212954Y27607I-335J115D01*
G02X212891Y27544I-275J210D01*
G02X212792Y27476I-651J839D01*
G02X212691Y27421I-566J928D01*
G02X212623Y27406I-67J143D01*
G03X212610Y27405I0J-73D01*
G03X212598Y27401I8J-43D01*
G03X212591Y27395I11J-23D01*
G03X212589Y27389I7J-6D01*
G03X212593Y27376I22J1D01*
G03X212670Y27276I30194J23079D01*
G03X212759Y27163I8242J6351D01*
G03X212864Y27031I15133J12001D01*
G03X213005Y26860I8512J6872D01*
G03X213102Y26753I1574J1323D01*
G03X213175Y26685I674J652D01*
G03X213238Y26645I184J221D01*
G02X213333Y26593I-354J-763D01*
G02X213335Y26562I-10J-16D01*
G02X213280Y26543I-56J72D01*
G02X213109Y26544I-55J3940D01*
G01X212880Y26551D01*
X212580Y26949D01*
G03X212398Y27188I-22914J-17289D01*
G03X212313Y27287I-1061J-817D01*
G03X212255Y27336I-226J-213D01*
G03X212199Y27355I-68J-105D01*
G01X212119Y27362D01*
X212119Y27062D01*
G03X212124Y26854I4768J6D01*
G03X212141Y26735I604J27D01*
G03X212174Y26668I176J44D01*
G03X212225Y26638I63J49D01*
G02X212302Y26625I-255J-1686D01*
G02X212345Y26611I-43J-218D01*
G02X212368Y26595I-27J-63D01*
G02X212377Y26574I-23J-21D01*
G02X212362Y26555I-19J0D01*
G02X212305Y26545I-89J355D01*
G02X212202Y26540I-118J1314D01*
G02X211990Y26539I-205J19044D01*
G02X211778Y26540I-8J19036D01*
G02X211674Y26545I15J1319D01*
G02X211618Y26555I33J365D01*
G02X211603Y26574I5J19D01*
G02X211608Y26588I24J0D01*
G02X211622Y26602I56J-42D01*
G02X211643Y26614I60J-80D01*
G02X211668Y26622I52J-122D01*
G03X211734Y26640I-120J569D01*
G03X211775Y26663I-41J121D01*
G03X211801Y26696I-64J77D01*
G03X211820Y26749I-253J123D01*
G03X211828Y26803I-235J61D01*
G03X211832Y27002I-21614J566D01*
G03X211834Y27239I-14737J243D01*
G03X211833Y27504I-23502J18D01*
G03X211828Y27926I-85946J-890D01*
G03X211820Y28089I-2801J-44D01*
G03X211807Y28176I-585J-43D01*
G03X211780Y28217I-68J-15D01*
G03X211758Y28230I-69J-95D01*
G03X211729Y28240I-102J-234D01*
G03X211698Y28248I-77J-256D01*
G03X211669Y28250I-28J-166D01*
G02X211637Y28252I0J231D01*
G02X211617Y28260I6J44D01*
G02X211607Y28274I16J23D01*
G02X211603Y28297I69J23D01*
G02X211617Y28323I31J0D01*
G37*
G36*
G01X217567Y28360D02*
G02X217670Y28362I66J-638D01*
G02X217781Y28348I-44J-749D01*
G02X217900Y28316I-231J-1096D01*
G01X218056Y28264D01*
X218090Y28316D01*
G02X218118Y28346I115J-76D01*
G02X218152Y28365I70J-85D01*
G02X218178Y28365I13J-39D01*
G02X218189Y28350I-5J-16D01*
G03X218192Y28308I380J1D01*
G03X218214Y28111I80266J9125D01*
G03X218236Y27923I41146J4783D01*
G03X218248Y27844I1721J208D01*
G02X218252Y27807I-418J-70D01*
G02X218248Y27791I-26J-2D01*
G02X218235Y27784I-13J9D01*
G02X218208Y27786I-5J152D01*
G02X218185Y27793I10J69D01*
G02X218166Y27808I35J66D01*
G02X218150Y27831I69J64D01*
G02X218139Y27860I146J71D01*
G03X218074Y28001I-442J-118D01*
G03X217964Y28120I-446J-306D01*
G03X217824Y28199I-328J-416D01*
G03X217675Y28227I-149J-389D01*
G03X217606Y28224I1J-841D01*
G03X217562Y28214I14J-169D01*
G03X217524Y28193I48J-131D01*
G03X217481Y28155I279J-360D01*
G03X217442Y28111I397J-396D01*
G03X217424Y28078I83J-68D01*
G03X217418Y28040I108J-36D01*
G03X217422Y27978I666J13D01*
G03X217447Y27885I321J36D01*
G03X217497Y27810I225J98D01*
G03X217595Y27730I449J445D01*
G03X217796Y27600I3822J5716D01*
G02X217996Y27468I-2151J-3474D01*
G02X218136Y27355I-776J-1102D01*
G02X218229Y27252I-521J-564D01*
G02X218278Y27154I-252J-188D01*
G02X218294Y26909I-520J-156D01*
G02X218197Y26702I-419J69D01*
G02X217999Y26564I-365J314D01*
G02X217732Y26517I-261J706D01*
G02X217659Y26521I8J886D01*
G02X217578Y26531I128J1419D01*
G02X217500Y26544I199J1346D01*
G02X217439Y26561I117J561D01*
G03X217350Y26587I-393J-1200D01*
G03X217294Y26592I-43J-175D01*
G03X217264Y26578I3J-48D01*
G03X217252Y26548I29J-29D01*
G02X217248Y26536I-25J0D01*
G02X217239Y26525I-31J18D01*
G02X217225Y26518I-27J36D01*
G02X217208Y26516I-17J55D01*
G02X217185Y26526I0J33D01*
G02X217168Y26553I54J52D01*
G02X217154Y26608I309J108D01*
G02X217137Y26721I4352J714D01*
G03X217125Y26806I-34303J-4678D01*
G03X217113Y26891I-35588J-4981D01*
G03X217102Y26967I-31687J-4512D01*
G03X217095Y27014I-5233J-765D01*
G02X217094Y27085I255J39D01*
G02X217120Y27103I21J-3D01*
G02X217164Y27073I-17J-71D01*
G02X217216Y26985I-660J-449D01*
G03X217322Y26818I903J457D01*
G03X217444Y26706I399J313D01*
G03X217585Y26648I229J351D01*
G03X217748Y26638I111J521D01*
G03X217858Y26665I-39J402D01*
G03X217937Y26719I-81J205D01*
G03X217985Y26801I-155J145D01*
G03X218001Y26909I-343J107D01*
G03X217981Y27030I-376J-1D01*
G03X217923Y27129I-274J-94D01*
G03X217808Y27229I-458J-410D01*
G03X217594Y27364I-2326J-3458D01*
G02X217359Y27527I988J1680D01*
G02X217221Y27686I376J466D01*
G02X217166Y27856I341J204D01*
G02X217184Y28051I554J47D01*
G02X217224Y28136I278J-77D01*
G02X217297Y28226I536J-364D01*
G02X217385Y28301I461J-452D01*
G02X217469Y28341I162J-228D01*
G02X217567Y28360I155J-539D01*
G37*
G36*
G01X215196Y28335D02*
G02X215304Y28338I399J-11936D01*
G02X215429Y28340I121J-4892D01*
G02X215574Y28338I-7J-8898D01*
G02X215779Y28334I-291J-17132D01*
G02X215880Y28327I-37J-1272D01*
G02X215936Y28316I-40J-363D01*
G02X215951Y28297I-5J-19D01*
G02X215945Y28282I-24J0D01*
G02X215928Y28268I-49J43D01*
G02X215901Y28257I-62J109D01*
G02X215864Y28248I-88J309D01*
G03X215771Y28221I62J-384D01*
G03X215726Y28175I34J-77D01*
G03X215708Y28087I240J-96D01*
G03X215705Y27849I8314J-238D01*
G01Y27523D01*
X216478D01*
Y27840D01*
G03X216477Y28026I-12605J5D01*
G03X216470Y28113I-768J-12D01*
G03X216457Y28165I-207J-27D01*
G03X216431Y28203I-108J-44D01*
G03X216406Y28223I-91J-91D01*
G03X216375Y28238I-93J-155D01*
G03X216339Y28247I-69J-192D01*
G03X216301Y28250I-38J-232D01*
G02X216257Y28252I-1J568D01*
G02X216235Y28258I4J56D01*
G02X216225Y28271I9J17D01*
G02X216225Y28291I45J11D01*
G02X216244Y28314I30J-6D01*
G02X216294Y28325I70J-187D01*
G02X216390Y28331I107J-1026D01*
G02X216619Y28332I228J-23546D01*
G02X216847Y28331I1J-23537D01*
G02X216944Y28325I-10J-1032D01*
G02X216994Y28314I-21J-199D01*
G02X217013Y28291I-11J-29D01*
G02X217012Y28271I-48J-10D01*
G02X217003Y28258I-19J4D01*
G02X216983Y28252I-25J41D01*
G02X216945Y28250I-38J423D01*
G03X216912Y28247I0J-184D01*
G03X216878Y28239I44J-249D01*
G03X216848Y28226I72J-220D01*
G03X216826Y28211I42J-86D01*
G03X216801Y28166I54J-59D01*
G03X216789Y28067I840J-146D01*
G03X216784Y27886I3566J-197D01*
G03X216783Y27439I94053J-455D01*
G03X216785Y26897I67610J3D01*
G03X216800Y26738I909J8D01*
G03X216844Y26664I122J23D01*
G03X216934Y26623I127J157D01*
G02X216968Y26614I-50J-266D01*
G02X216994Y26602I-40J-124D01*
G02X217012Y26588I-38J-64D01*
G02X217017Y26573I-17J-15D01*
G02X217003Y26555I-19J0D01*
G02X216943Y26545I-96J422D01*
G02X216836Y26540I-122J1440D01*
G02X216619Y26539I-218J19716D01*
G02X216402Y26540I1J19727D01*
G02X216295Y26545I15J1445D01*
G02X216235Y26555I37J432D01*
G02X216220Y26573I4J18D01*
G02X216226Y26588I22J0D01*
G02X216244Y26602I54J-50D01*
G02X216272Y26614I68J-119D01*
G02X216308Y26623I93J-305D01*
G03X216407Y26654I-71J398D01*
G03X216454Y26704I-39J85D01*
G03X216474Y26800I-259J104D01*
G03X216478Y27047I-7953J246D01*
G01Y27383D01*
X215705D01*
Y27045D01*
G03X215708Y26795I8802J-1D01*
G03X215727Y26701I283J8D01*
G03X215773Y26652I82J32D01*
G03X215867Y26624I152J335D01*
G02X215908Y26615I-67J-416D01*
G02X215938Y26604I-36J-137D01*
G02X215956Y26590I-32J-60D01*
G02X215962Y26574I-17J-16D01*
G02X215948Y26555I-19J0D01*
G02X215890Y26545I-92J373D01*
G02X215784Y26540I-121J1380D01*
G02X215564Y26539I-213J20525D01*
G02X215352Y26540I-2J18287D01*
G02X215243Y26545I18J1562D01*
G02X215180Y26554I45J549D01*
G02X215166Y26572I3J17D01*
G02X215174Y26596I38J0D01*
G02X215199Y26616I61J-50D01*
G02X215236Y26629I62J-119D01*
G02X215283Y26633I47J-253D01*
G03X215302Y26636I0J71D01*
G03X215324Y26644I-41J146D01*
G03X215346Y26656I-67J147D01*
G03X215363Y26670I-61J92D01*
G03X215384Y26713I-52J52D01*
G03X215394Y26826I-1622J193D01*
G03X215399Y27020I-4521J221D01*
G03X215400Y27426I-69873J410D01*
G03X215397Y27964I-51243J2D01*
G03X215380Y28142I-1030J-11D01*
G03X215333Y28219I-128J-24D01*
G03X215246Y28250I-87J-108D01*
G02X215198Y28256I0J205D01*
G02X215170Y28274I12J51D01*
G02X215164Y28299I22J18D01*
G02X215182Y28329I66J-19D01*
G02X215196Y28335I15J-15D01*
G37*
G36*
G01X211640Y41345D02*
G02X211827Y41347I148J-5077D01*
G02X212012Y41345I-141J-18795D01*
G02X212025Y41332I0J-13D01*
G02X212021Y41319I-21J0D01*
G02X211990Y41277I-1942J1416D01*
G02X211951Y41228I-1278J975D01*
G02X211904Y41174I-2083J1722D01*
G02X211560Y40834I-2443J2130D01*
G02X211175Y40556I-1950J2296D01*
G02X210760Y40347I-1497J2462D01*
G02X210326Y40214I-987J2435D01*
G02X210131Y40186I-285J1321D01*
G02X209847Y40174I-378J5665D01*
G02X209569Y40176I-108J6638D01*
G02X209435Y40199I12J467D01*
G01X209365Y40222D01*
X209614Y40466D01*
G02X209906Y40732I4058J-4148D01*
G02X210184Y40947I2348J-2753D01*
G02X210450Y41111I1635J-2345D01*
G02X210705Y41227I888J-1627D01*
G02X210817Y41259I300J-823D01*
G02X210956Y41284I405J-1856D01*
G02X211154Y41308I604J-4244D01*
G02X211474Y41336I2496J-26413D01*
G02X211640Y41345I258J-3116D01*
G37*
G36*
G01X219770Y36965D02*
X220032Y37270D01*
G02X220038Y37273I6J-5D01*
G02X220039Y37271I0J-2D01*
G02X220033Y37258I-179J73D01*
G02X220024Y37241I-221J109D01*
G02X220012Y37221I-486J287D01*
G03X219984Y37179I5716J-3723D01*
G01X219588Y36560D01*
X219141Y35864D01*
X218618Y35047D01*
X216909Y32381D01*
X215997Y30959D01*
X215425Y30067D01*
G02X215195Y29709I-164118J105291D01*
G01X214995Y29398D01*
X214896Y29533D01*
X213965Y30799D01*
X212984Y32136D01*
X211982Y33503D01*
G02X211978Y33514I14J10D01*
G02X211986Y33518I5J0D01*
G02X212175Y33398I-37715J-59465D01*
G02X212503Y33187I-37579J-58851D01*
G01X213600Y32478D01*
X214149Y32123D01*
X214619Y31820D01*
X215034Y31554D01*
G03X215071Y31532I290J449D01*
G03X215099Y31522I46J86D01*
G03X215122Y31525I7J39D01*
G03X215147Y31542I-34J76D01*
G03X215186Y31583I-580J577D01*
G03X215289Y31704I-11955J10393D01*
G01X216648Y33299D01*
X217975Y34859D01*
X219138Y36226D01*
G02X219770Y36965I117843J-99979D01*
G37*
G36*
G01X208833Y41064D02*
G02X208896Y41088I147J-298D01*
G02X208917Y41079I5J-20D01*
G02X208920Y41053I-24J-16D01*
G03X208837Y40835I11720J-4610D01*
G03X208760Y40622I10635J-3965D01*
G03X208692Y40420I9516J-3325D01*
G03X208635Y40238I6164J-2013D01*
G03X208579Y40018I2996J-881D01*
G03X208544Y39809I2308J-500D01*
G03X208528Y39634I2586J-320D01*
G03X208554Y39583I55J-3D01*
G03X208618Y39566I63J102D01*
G03X208899Y39571I-182J16493D01*
G03X209257Y39587I-346J12099D01*
G03X209714Y39616I-1866J32170D01*
G02X210099Y39643I6053J-83926D01*
G02X210359Y39659I1220J-17986D01*
G02X210540Y39667I498J-9335D01*
G02X210648Y39666I44J-1313D01*
G02X210680Y39644I-2J-37D01*
G02X210681Y39601I-51J-23D01*
G02X210640Y39528I-269J105D01*
G02X210556Y39429I-1200J935D01*
G02X210126Y39086I-1355J1255D01*
G02X209542Y38817I-1711J2953D01*
G02X208862Y38644I-1330J3803D01*
G02X208144Y38586I-718J4395D01*
G03X207940Y38570I1J-1337D01*
G03X207812Y38518I46J-296D01*
G03X207687Y38400I357J-501D01*
G03X207452Y38092I9307J-7382D01*
G02X207292Y37881I-15349J11382D01*
G02X207194Y37760I-2008J1531D01*
G02X207126Y37688I-910J788D01*
G02X207088Y37672I-38J39D01*
G02X207038Y37700I0J59D01*
G02X207033Y37759I56J34D01*
G02X207104Y37891I791J-338D01*
G02X207322Y38223I24281J-15783D01*
G01X207558Y38574D01*
X207560Y39148D01*
G02X207563Y39491I38213J-152D01*
G02X207570Y39660I2776J-35D01*
G02X207586Y39778I1024J-76D01*
G02X207616Y39898I1162J-223D01*
G02X207675Y40066I1801J-546D01*
G02X207747Y40217I1389J-569D01*
G02X207831Y40350I1142J-626D01*
G02X207923Y40460I753J-539D01*
G02X208056Y40577I905J-888D01*
G02X208264Y40730I3274J-4265D01*
G02X208491Y40879I3162J-4560D01*
G02X208692Y40993I1534J-2460D01*
G02X208833Y41064I3501J-6754D01*
G37*
G36*
G01X204529Y36256D02*
G02X204558Y36259I16J-12D01*
G02X204610Y36205I-252J-293D01*
G02X204830Y35926I-62938J-49743D01*
G02X205047Y35631I-4726J-3701D01*
G02X205163Y35419I-992J-683D01*
G02X205249Y35163I-1598J-681D01*
G02X205369Y34660I-19009J-4786D01*
G03X205403Y34521I4155J932D01*
G03X205429Y34447I441J115D01*
G03X205464Y34390I246J112D01*
G03X205521Y34326I608J485D01*
G03X205571Y34279I758J757D01*
G03X205608Y34252I162J183D01*
G03X205639Y34240I55J94D01*
G03X205665Y34241I11J45D01*
G03X205690Y34255I-29J84D01*
G03X205747Y34301I-1518J1935D01*
G03X205814Y34359I-1482J1772D01*
G03X205884Y34425I-2208J2447D01*
G02X206096Y34624I12399J-12948D01*
G02X206264Y34775I4593J-4958D01*
G02X206417Y34901I3247J-3750D01*
G02X206576Y35023I3232J-4050D01*
G02X206904Y35243I2577J-3497D01*
G02X207179Y35375I822J-1359D01*
G02X207376Y35414I224J-610D01*
G02X207467Y35350I4J-92D01*
G02X207463Y35206I-212J-67D01*
G02X207324Y34860I-6045J2233D01*
G02X207152Y34506I-4484J1959D01*
G02X206981Y34238I-1844J989D01*
G02X206683Y33894I-2607J1958D01*
G02X206315Y33564I-3202J3194D01*
G02X205902Y33266I-3001J3732D01*
G02X205466Y33020I-2413J3757D01*
G01X205228Y32902D01*
X205228Y32442D01*
X205228Y31982D01*
X205155Y31968D01*
G02X205070Y31966I-47J235D01*
G02X205031Y32002I8J47D01*
G02X205019Y32101I412J102D01*
G02X205017Y32524I61585J415D01*
G03X205013Y32955I-22273J-2D01*
G03X204992Y33130I-880J-17D01*
G03X204938Y33259I-387J-86D01*
G03X204815Y33426I-1496J-970D01*
G02X204660Y33649I1256J1039D01*
G02X204536Y33905I1688J976D01*
G02X204444Y34192I2043J813D01*
G02X204385Y34508I2773J683D01*
G02X204361Y34885I2928J379D01*
G02X204377Y35346I6489J3D01*
G02X204426Y35811I6599J-465D01*
G02X204505Y36204I3542J-504D01*
G02X204529Y36256I146J-38D01*
G37*
G36*
G01X206704Y33028D02*
G02X206773Y33067I590J-971D01*
G02X206832Y33095I469J-909D01*
G02X206865Y33102I32J-74D01*
G01X206923D01*
X206908Y32826D01*
G02X206872Y32463I-4307J238D01*
G02X206808Y32147I-2629J370D01*
G02X206705Y31838I-2623J702D01*
G02X206552Y31496I-4370J1754D01*
G02X206432Y31272I-3686J1830D01*
G02X206298Y31057I-3497J2015D01*
G02X206147Y30843I-3610J2394D01*
G02X205973Y30623I-4552J3432D01*
G02X205834Y30468I-2269J1893D01*
G02X205619Y30250I-9428J9071D01*
G02X205403Y30040I-10013J10083D01*
G02X205277Y29932I-1041J1095D01*
G01X205197Y29872D01*
X205266Y29364D01*
G02X205311Y29024I-24877J-3420D01*
G02X205317Y28887I-921J-114D01*
G02X205298Y28819I-143J4D01*
G02X205252Y28786I-58J34D01*
G02X205194Y28787I-26J146D01*
G02X205145Y28811I25J113D01*
G02X205104Y28860I112J136D01*
G02X205068Y28937I457J262D01*
G02X205028Y29066I1160J433D01*
G02X204953Y29369I25903J6565D01*
G02X204881Y29676I20459J4932D01*
G02X204843Y29871I3541J798D01*
G03X204835Y29904I-287J-48D01*
G03X204824Y29935I-215J-63D01*
G03X204811Y29958I-155J-71D01*
G03X204798Y29968I-22J-15D01*
G02X204729Y30008I91J237D01*
G02X204556Y30152I6438J7912D01*
G02X204377Y30310I4456J5236D01*
G02X204233Y30449I2328J2549D01*
G02X203861Y30909I2302J2245D01*
G02X203604Y31403I2115J1412D01*
G02X203463Y31937I2332J903D01*
G02X203433Y32516I2970J442D01*
G02X203445Y32720I7490J-341D01*
G02X203461Y32882I3040J-220D01*
G02X203480Y33006I2817J-357D01*
G02X203500Y33046I72J-13D01*
G02X203532Y33050I19J-19D01*
G02X203654Y32984I-1556J-2997D01*
G02X203793Y32898I-1164J-2036D01*
G02X203937Y32796I-1739J-2601D01*
G02X204115Y32641I-1036J-1375D01*
G02X204297Y32442I-2053J-2064D01*
G02X204504Y32176I-3668J-3059D01*
G02X204762Y31807I-12035J-8674D01*
G03X204872Y31646I9904J6696D01*
G03X204972Y31507I5821J4072D01*
G03X205059Y31391I9771J7194D01*
G03X205084Y31369I62J47D01*
G03X205141Y31361I41J76D01*
G03X205200Y31389I-25J126D01*
G03X205261Y31459I-207J243D01*
G03X205330Y31578I-1163J748D01*
G02X205554Y31940I2284J-1167D01*
G02X205867Y32316I3573J-2652D01*
G02X206236Y32674I3570J-3314D01*
G02X206634Y32982I2913J-3344D01*
G02X206704Y33028I832J-1208D01*
G37*
G36*
G01X206337Y38943D02*
G02X206380Y39001I1605J-1135D01*
G02X206418Y39050I3039J-2318D01*
G02X206428Y39055I10J-8D01*
G02X206437Y39052I0J-18D01*
G02X206456Y39039I-205J-332D01*
G02X206479Y39022I-234J-331D01*
G02X206503Y39002I-369J-457D01*
G02X206538Y38952I-95J-105D01*
G02X206561Y38878I-347J-149D01*
G02X206583Y38743I-1697J-339D01*
G02X206621Y38410I-44388J-5281D01*
G02X206682Y37858I-255259J-28370D01*
G02X206710Y37581I-19319J-2109D01*
G02X206724Y37407I-6090J-574D01*
G02X206728Y37276I-1991J-131D01*
G03X206739Y37123I1109J0D01*
G03X206776Y37037I170J24D01*
G03X206845Y37000I82J67D01*
G03X206953Y37003I44J348D01*
G03X207067Y37047I-62J334D01*
G03X207260Y37173I-1851J3030D01*
G03X207475Y37336I-2248J3196D01*
G03X207684Y37517I-2732J3363D01*
G02X207881Y37686I2318J-2508D01*
G02X208048Y37798I798J-1006D01*
G02X208204Y37867I426J-756D01*
G02X208363Y37900I224J-682D01*
G02X208472Y37901I67J-736D01*
G02X208574Y37886I-35J-602D01*
G02X208652Y37860I-98J-419D01*
G02X208673Y37827I-15J-33D01*
G02X208670Y37808I-51J0D01*
G02X208647Y37752I-2764J1098D01*
G02X208618Y37686I-2141J897D01*
G02X208583Y37612I-3289J1504D01*
G02X208327Y37207I-1932J936D01*
G02X207949Y36799I-3010J2409D01*
G02X207501Y36435I-2807J3003D01*
G02X207032Y36162I-1844J2633D01*
G02X206827Y36073I-1600J3381D01*
G02X206605Y35990I-1745J4345D01*
G02X206392Y35923I-1395J4053D01*
G02X206215Y35881I-516J1799D01*
G01X206063Y35853D01*
X205944Y35459D01*
X205826Y35066D01*
X205736Y35078D01*
G02X205701Y35083I104J771D01*
G02X205669Y35090I96J529D01*
G02X205643Y35097I128J521D01*
G02X205633Y35103I7J22D01*
G02X205629Y35115I10J10D01*
G02X205650Y35234I20115J-3484D01*
G02X205676Y35370I6137J-1098D01*
G02X205710Y35530I11526J-2338D01*
G03X205764Y35791I-22275J4825D01*
G03X205783Y35909I-1196J245D01*
G03X205784Y36000I-494J51D01*
G03X205770Y36110I-1158J-91D01*
G02X205728Y36361I12707J2242D01*
G02X205706Y36534I2954J462D01*
G02X205696Y36698I2495J242D01*
G02X205692Y36910I7031J222D01*
G02X205702Y37196I4196J4D01*
G02X205731Y37455I2865J-193D01*
G02X205784Y37711I2841J-452D01*
G02X205864Y37986I4104J-1041D01*
G02X205950Y38225I3760J-1232D01*
G02X206051Y38455I3498J-1400D01*
G02X206165Y38672I3237J-1553D01*
G02X206289Y38873I2695J-1527D01*
G02X206337Y38943I2967J-1992D01*
G37*
G36*
G01X223883Y30361D02*
G02X223892Y30446I2192J-176D01*
G02X223901Y30517I4760J-578D01*
G02X223908Y30523I7J-1D01*
G02X223918Y30521I0J-22D01*
G02X223947Y30506I-492J-938D01*
G02X223980Y30486I-439J-774D01*
G02X224016Y30463I-729J-1173D01*
G02X224318Y30187I-758J-1136D01*
G02X224584Y29788I-1969J-1598D01*
G02X224800Y29291I-2854J-1532D01*
G02X224952Y28719I-4352J-1467D01*
G03X225000Y28489I12255J2430D01*
G03X225031Y28388I659J144D01*
G03X225064Y28335I148J58D01*
G03X225113Y28307I73J71D01*
G03X225238Y28313I52J209D01*
G03X225416Y28394I-388J1095D01*
G03X225719Y28577I-2579J4608D01*
G03X226439Y29049I-72929J112032D01*
G02X226754Y29255I24075J-36448D01*
G02X227029Y29431I13611J-21015D01*
G02X227267Y29580I30074J-47752D01*
G02X227312Y29599I82J-132D01*
G02X227352Y29606I74J-301D01*
G02X227368Y29599I2J-18D01*
G02X227375Y29578I-30J-22D01*
G02X227376Y29512I-1691J-64D01*
G02X227369Y29381I-1139J2D01*
G02X227345Y29230I-2075J244D01*
G02X227307Y29064I-2526J486D01*
G02X227256Y28886I-3432J900D01*
G02X226966Y28251I-2785J888D01*
G02X226540Y27722I-2253J1375D01*
G02X225979Y27304I-1950J2033D01*
G02X225289Y26999I-1861J3285D01*
G03X225191Y26967I2670J-8191D01*
G03X225097Y26934I2286J-6725D01*
G03X225019Y26906I2251J-6338D01*
G03X224980Y26890I179J-484D01*
G03X224936Y26855I51J-109D01*
G03X224859Y26751I2000J-1573D01*
G03X224754Y26596I3350J-2373D01*
G03X224605Y26360I16171J-10372D01*
G02X224484Y26168I-15029J9339D01*
G02X224379Y26007I-7847J5020D01*
G02X224285Y25868I-27913J18662D01*
G02X224271Y25861I-14J9D01*
G02X224258Y25864I0J29D01*
G02X224235Y25877I173J335D01*
G02X224208Y25895I221J361D01*
G02X224181Y25916I326J452D01*
G02X224143Y25964I87J107D01*
G02X224142Y26013I54J25D01*
G02X224186Y26097I587J-253D01*
G02X224424Y26480I114980J-71143D01*
G03X224534Y26661I-10025J6254D01*
G03X224612Y26798I-3119J1866D01*
G03X224668Y26904I-4200J2275D01*
G03X224666Y26928I-20J10D01*
G02X224652Y26947I440J327D01*
G01X224596Y27030D01*
G02X224530Y27127I36887J25016D01*
G02X224456Y27237I60729J40989D01*
G02X224213Y27629I5281J3553D01*
G02X224047Y27968I2528J1446D01*
G02X223942Y28290I2092J859D01*
G02X223886Y28625I2234J547D01*
G02X223869Y28920I4263J394D01*
G02X223862Y29402I27954J647D01*
G02X223864Y29896I26907J160D01*
G02X223876Y30260I8068J-100D01*
G02X223883Y30361I4304J-251D01*
G37*
G36*
G01X221560Y25983D02*
G02X221607Y26029I1037J-1021D01*
G02X221648Y26065I1422J-1529D01*
G02X221661Y26070I13J-15D01*
G02X221692Y26054I0J-37D01*
G02X221758Y25950I-2152J-1433D01*
G02X221822Y25832I-1473J-882D01*
G02X221871Y25720I-1057J-525D01*
G02X221963Y25408I-2196J-822D01*
G02X222012Y25086I-2282J-508D01*
G02X222014Y24775I-2123J-169D01*
G02X221968Y24499I-1417J94D01*
G02X221872Y24204I-3035J819D01*
G02X221745Y23909I-3413J1294D01*
G02X221595Y23631I-3170J1532D01*
G02X221432Y23391I-2187J1312D01*
G03X221351Y23274I1160J-890D01*
G03X221334Y23205I95J-59D01*
G03X221365Y23160I55J5D01*
G03X221453Y23131I156J319D01*
G03X221580Y23124I89J460D01*
G03X221741Y23148I-100J1210D01*
G03X221939Y23202I-414J1883D01*
G03X222180Y23290I-1501J4493D01*
G02X222535Y23414I1661J-4199D01*
G02X222872Y23497I961J-3182D01*
G02X223239Y23549I724J-3790D01*
G02X223685Y23578I750J-8061D01*
G02X223932Y23586I849J-22703D01*
G02X224041Y23583I29J-1098D01*
G02X224112Y23570I-24J-337D01*
G02X224183Y23542I-117J-399D01*
G02X224251Y23499I-207J-405D01*
G02X224278Y23459I-43J-56D01*
G02X224272Y23409I-75J-17D01*
G02X224230Y23335I-504J236D01*
G02X223954Y23066I-773J520D01*
G02X223334Y22708I-5018J7950D01*
G02X222672Y22392I-4053J7657D01*
G02X222185Y22252I-813J1912D01*
G02X221957Y22225I-485J3046D01*
G02X221628Y22202I-1054J12671D01*
G02X221265Y22186I-805J14050D01*
G02X220921Y22180I-353J11304D01*
G01X220524Y22180D01*
X220206Y21984D01*
X220082Y21908D01*
X219973Y21841D01*
X219880Y21784D01*
G02X219859Y21772I-478J788D01*
G02X219844Y21768I-16J27D01*
G02X219822Y21770I-2J125D01*
G02X219796Y21776I26J158D01*
G02X219771Y21787I58J169D01*
G02X219753Y21816I16J30D01*
G02X219767Y21852I50J2D01*
G02X219837Y21918I541J-512D01*
G02X220084Y22118I31100J-38222D01*
G01X220457Y22417D01*
X220472Y22556D01*
G03X220480Y22645I-1697J192D01*
G03X220493Y22869I-47925J2891D01*
G03X220507Y23136I-43925J2449D01*
G03X220521Y23427I-61249J3031D01*
G02X220548Y23929I30054J-1352D01*
G02X220577Y24206I3229J-198D01*
G02X220624Y24423I1660J-247D01*
G02X220706Y24671I3132J-899D01*
G02X220846Y24985I2692J-1013D01*
G02X221036Y25314I3812J-1982D01*
G02X221261Y25636I3852J-2458D01*
G02X221508Y25929I3270J-2506D01*
G02X221560Y25983I1814J-1678D01*
G37*
G36*
G01X223118Y28055D02*
G02X223147Y28080I196J-206D01*
G02X223172Y28095I120J-166D01*
G02X223186Y28095I6J-12D01*
G02X223234Y28047I-77J-125D01*
G02X223298Y27933I-1444J-893D01*
G02X223362Y27795I-1617J-833D01*
G02X223415Y27651I-1721J-713D01*
G02X223494Y27347I-2721J-872D01*
G02X223550Y27000I-4339J-879D01*
G02X223589Y26570I-6981J-846D01*
G02X223615Y26000I-20957J-1242D01*
G03X223628Y25644I34002J1082D01*
G03X223642Y25503I1203J51D01*
G03X223668Y25433I204J33D01*
G03X223712Y25399I62J36D01*
G03X223850Y25402I64J257D01*
G03X224167Y25503I-1730J5954D01*
G03X224485Y25627I-1588J4536D01*
G03X224695Y25743I-487J1130D01*
G02X224839Y25832I878J-1277D01*
G02X225112Y25975I6991J-13000D01*
G02X225390Y26112I6415J-12560D01*
G02X225561Y26186I883J-1826D01*
G02X225764Y26255I1148J-3060D01*
G02X225964Y26307I820J-2721D01*
G02X226148Y26341I519J-2324D01*
G02X226302Y26352I154J-1080D01*
G02X226422Y26348I0J-2105D01*
G02X226475Y26333I-7J-127D01*
G02X226501Y26300I-26J-47D01*
G02X226509Y26238I-225J-62D01*
G02X226496Y26177I-153J0D01*
G02X226435Y26047I-2760J1219D01*
G02X226360Y25907I-2348J1172D01*
G02X226282Y25784I-1620J935D01*
G02X226161Y25623I-1806J1240D01*
G02X225977Y25410I-6245J5190D01*
G02X225785Y25202I-6057J5402D01*
G02X225634Y25056I-1804J1726D01*
G02X225354Y24826I-3607J4084D01*
G02X225124Y24673I-1163J1508D01*
G02X224897Y24570I-719J1281D01*
G02X224634Y24495I-705J1981D01*
G02X224479Y24467I-543J2523D01*
G02X224339Y24452I-248J1639D01*
G02X224159Y24445I-211J3196D01*
G02X223849Y24444I-237J25519D01*
G02X223635Y24445I44J19096D01*
G02X223437Y24450I197J13977D01*
G02X223271Y24455I414J14735D01*
G02X223202Y24462I24J607D01*
G01X223093Y24479D01*
X222689Y24021D01*
G02X222533Y23845I-43633J38531D01*
G02X222401Y23697I-22410J19957D01*
G01X222282Y23565D01*
G02X222276Y23562I-6J5D01*
G02X222269Y23564I0J14D01*
G02X222236Y23581I2432J4922D01*
G02X222197Y23601I1079J2152D01*
G02X222152Y23624I1974J3762D01*
G01X222037Y23687D01*
X222439Y24118D01*
G03X222595Y24287I-16929J15763D01*
G03X222730Y24437I-10138J9252D01*
G03X222843Y24566I-18963J16795D01*
G03X222863Y24597I-99J87D01*
G03X222871Y24624I-74J35D01*
G03X222870Y24659I-172J16D01*
G03X222862Y24701I-279J-31D01*
G03X222846Y24753I-688J-186D01*
G02X222795Y24950I1077J383D01*
G02X222766Y25196I2503J414D01*
G02X222752Y25565I6734J448D01*
G02X222748Y26223I59605J682D01*
G02X222749Y26787I117062J74D01*
G02X222755Y27070I9026J-40D01*
G02X222767Y27249I2851J-102D01*
G02X222790Y27386I1050J-104D01*
G02X222840Y27554I1384J-325D01*
G02X222918Y27740I2279J-842D01*
G02X223005Y27909I2087J-974D01*
G02X223087Y28023I608J-348D01*
G02X223118Y28055I373J-327D01*
G37*
G36*
G01X218793Y41354D02*
G02X219107Y41344I-1279J-46948D01*
G02X219424Y41328I-360J-10559D01*
G02X219713Y41304I-465J-7229D01*
G02X219977Y41258I-210J-2006D01*
G02X220210Y41180I-341J-1410D01*
G02X220447Y41056I-697J-1616D01*
G02X220722Y40868I-2215J-3536D01*
G02X220922Y40708I-1978J-2662D01*
G02X221169Y40485I-6120J-7027D01*
G02X221420Y40248I-25816J-27594D01*
G02X221420Y40215I-16J-16D01*
G02X221408Y40209I-16J16D01*
G02X221346Y40198I-733J4044D01*
G02X221273Y40188I-383J2325D01*
G02X221189Y40177I-534J4025D01*
G02X220684Y40181I-235J2106D01*
G02X220168Y40302I329J2571D01*
G02X219665Y40533I922J2669D01*
G02X219202Y40863I1587J2717D01*
G02X219076Y40981I1369J1591D01*
G02X218930Y41135I3399J3358D01*
G02X218791Y41292I7831J7070D01*
G02X218775Y41336I51J44D01*
G02X218793Y41354I18J0D01*
G37*
G36*
G01X226122Y36115D02*
G02X226202Y36207I1464J-1197D01*
G02X226259Y36264I845J-788D01*
G02X226277Y36261I8J-8D01*
G02X226300Y36197I-186J-104D01*
G02X226345Y35954I-18836J-3601D01*
G02X226387Y35700I-9929J-1765D01*
G02X226414Y35487I-4922J-746D01*
G02X226433Y35232I-3775J-407D01*
G02X226438Y34950I-5607J-225D01*
G02X226428Y34678I-5349J54D01*
G02X226404Y34452I-2564J158D01*
G02X226341Y34137I-3343J504D01*
G02X226254Y33873I-1852J462D01*
G02X226136Y33640I-1534J632D01*
G02X225979Y33419I-1634J999D01*
G03X225859Y33256I1365J-1125D01*
G03X225807Y33131I319J-206D01*
G03X225787Y32960I848J-186D01*
G03X225783Y32528I24181J-434D01*
G02X225781Y32102I-62454J-8D01*
G02X225769Y32002I-430J3D01*
G02X225730Y31966I-47J11D01*
G02X225645Y31968I-38J235D01*
G01X225572Y31982D01*
X225572Y32442D01*
X225572Y32902D01*
X225334Y33020D01*
G02X224890Y33270I2051J4158D01*
G02X224481Y33565I2398J3757D01*
G02X224115Y33898I2699J3326D01*
G02X223802Y34263I2726J2664D01*
G02X223641Y34516I1463J1107D01*
G02X223474Y34865I4433J2330D01*
G02X223336Y35210I6277J2702D01*
G02X223333Y35350I203J75D01*
G02X223426Y35415I88J-28D01*
G02X223626Y35374I-31J-661D01*
G02X223904Y35239I-558J-1503D01*
G02X224232Y35016I-2227J-3642D01*
G02X224397Y34889I-3771J-5047D01*
G02X224548Y34763I-3160J-3946D01*
G02X224711Y34617I-4291J-4953D01*
G02X224916Y34425I-11796J-12729D01*
G03X224986Y34359I2278J2382D01*
G03X225053Y34301I1549J1715D01*
G03X225110Y34255I1575J1889D01*
G03X225135Y34241I55J70D01*
G03X225161Y34240I15J44D01*
G03X225192Y34252I-25J106D01*
G03X225229Y34279I-125J211D01*
G03X225279Y34326I-708J803D01*
G03X225336Y34390I-551J550D01*
G03X225371Y34447I-211J168D01*
G03X225397Y34521I-415J189D01*
G03X225431Y34660I-4121J1070D01*
G02X225552Y35167I17712J-3967D01*
G02X225642Y35428I1639J-417D01*
G02X225766Y35649I1165J-510D01*
G02X226004Y35969I5931J-4165D01*
G02X226122Y36115I7822J-6159D01*
G37*
G36*
G01X221871Y41079D02*
G02X221875Y41088I8J2D01*
G02X221886Y41090I8J-12D01*
G02X221918Y41082I-121J-501D01*
G02X222102Y41001I-268J-864D01*
G02X222394Y40823I-3440J-5966D01*
G02X222682Y40627I-3553J-5512D01*
G02X222864Y40472I-890J-1231D01*
G02X222963Y40357I-713J-716D01*
G02X223050Y40222I-991J-733D01*
G02X223123Y40069I-1214J-674D01*
G02X223182Y39898I-1652J-668D01*
G02X223208Y39790I-1152J-336D01*
G02X223225Y39676I-1324J-255D01*
G02X223236Y39530I-2417J-254D01*
G02X223244Y39312I-11450J-508D01*
G02X223246Y39145I-8101J-210D01*
G02X223245Y38982I-7415J-37D01*
G02X223241Y38841I-6693J115D01*
G02X223234Y38762I-774J29D01*
G01X223214Y38621D01*
X223440Y38281D01*
G02X223684Y37909I-32337J-21465D01*
G02X223762Y37766I-887J-574D01*
G02X223760Y37702I-69J-31D01*
G02X223712Y37672I-48J24D01*
G02X223674Y37688I0J55D01*
G02X223606Y37759I815J833D01*
G02X223509Y37880I1882J1623D01*
G02X223350Y38092I15257J11579D01*
G03X223113Y38402I-9293J-6856D01*
G03X222987Y38520I-455J-360D01*
G03X222855Y38571I-174J-252D01*
G03X222632Y38586I-225J-1663D01*
G02X222052Y38628I9J4172D01*
G02X221475Y38750I623J4368D01*
G02X220948Y38940I1091J3857D01*
G02X220520Y39184I973J2208D01*
G02X220386Y39291I869J1217D01*
G02X220250Y39425I1569J1738D01*
G02X220134Y39556I2146J2016D01*
G02X220111Y39618I75J63D01*
G02X220119Y39643I41J0D01*
G02X220139Y39657I30J-21D01*
G02X220182Y39663I48J-181D01*
G02X220283Y39664I103J-4061D01*
G02X220386Y39662I0J-2019D01*
G02X220595Y39650I-1436J-28194D01*
G02X220841Y39635I-1731J-29517D01*
G02X221101Y39616I-2414J-36301D01*
G03X221367Y39599I1401J18925D01*
G03X221632Y39585I1118J18631D01*
G03X221862Y39576I758J16649D01*
G03X222001Y39575I75J2395D01*
G01X222255Y39582D01*
X222254Y39758D01*
G03X222231Y39969I-1058J-9D01*
G03X222157Y40264I-4162J-886D01*
G03X222040Y40627I-6032J-1743D01*
G03X221879Y41055I-12267J-4366D01*
G02X221871Y41079I188J75D01*
G37*
G36*
G01X224321Y39022D02*
G02X224343Y39039I256J-314D01*
G02X224363Y39052I224J-319D01*
G02X224372Y39055I10J-15D01*
G02X224404Y39038I0J-38D01*
G02X224526Y38849I-13567J-8873D01*
G02X224644Y38653I-4720J-2994D01*
G02X224737Y38480I-2650J-1534D01*
G02X224955Y37931I-3208J-1590D01*
G02X225081Y37348I-3523J-1070D01*
G02X225111Y36759I-3578J-479D01*
G02X225043Y36189I-3256J100D01*
G03X225018Y36041I1856J-390D01*
G03X225015Y35933I524J-67D01*
G03X225034Y35800I1085J83D01*
G03X225095Y35509I19625J3973D01*
G02X225127Y35358I-10263J-2232D01*
G02X225151Y35228I-5468J-1108D01*
G02X225171Y35115I-16923J-3019D01*
G02X225167Y35103I-14J-2D01*
G02X225157Y35097I-16J17D01*
G02X225131Y35090I-152J505D01*
G02X225099Y35083I-129J520D01*
G02X225064Y35078I-138J757D01*
G01X224974Y35066D01*
X224856Y35459D01*
X224738Y35852D01*
X224575Y35885D01*
G02X224264Y35966I539J2700D01*
G02X223936Y36089I1213J3738D01*
G02X223612Y36244I1613J3785D01*
G02X223314Y36422I1690J3163D01*
G02X223096Y36585I1427J2144D01*
G02X222853Y36799I3290J3962D01*
G02X222624Y37029I3534J3747D01*
G02X222449Y37237I1883J1762D01*
G02X222347Y37386I1576J1189D01*
G02X222238Y37573I3394J2103D01*
G02X222144Y37753I4886J2674D01*
G02X222127Y37827I147J74D01*
G02X222148Y37860I36J0D01*
G02X222225Y37886I177J-397D01*
G02X222327Y37901I137J-584D01*
G02X222435Y37900I43J-714D01*
G02X222596Y37867I-69J-756D01*
G02X222750Y37800I-252J-795D01*
G02X222915Y37690I-599J-1072D01*
G02X223111Y37522I-2126J-2676D01*
G03X223323Y37338I3016J3259D01*
G03X223539Y37174I2473J3037D01*
G03X223732Y37047I2036J2888D01*
G03X223847Y37003I178J291D01*
G03X223955Y37000I65J344D01*
G03X224024Y37037I-13J105D01*
G03X224061Y37123I-133J109D01*
G03X224072Y37276I-1098J154D01*
G02X224076Y37407I1995J0D01*
G02X224090Y37581I6104J-400D01*
G02X224118Y37858I19348J-1832D01*
G02X224179Y38410I255320J-27817D01*
G02X224217Y38743I44427J-4949D01*
G02X224239Y38878I1718J-204D01*
G02X224262Y38952I371J-74D01*
G02X224297Y39002I131J-56D01*
G02X224321Y39022I393J-437D01*
G37*
G36*
G01X223884Y33107D02*
X223955Y33093D01*
G02X224105Y33030I-78J-391D01*
G02X224370Y32833I-3119J-4485D01*
G02X224657Y32589I-3330J-4219D01*
G02X224916Y32335I-3112J-3420D01*
G02X225086Y32144I-3276J-3080D01*
G02X225237Y31950I-2895J-2425D01*
G02X225366Y31760I-2683J-1965D01*
G02X225470Y31578I-1954J-1235D01*
G03X225539Y31459I1236J631D01*
G03X225600Y31389I268J172D01*
G03X225659Y31361I83J97D01*
G03X225716Y31369I17J85D01*
G03X225742Y31391I-37J68D01*
G03X225823Y31500I-8032J6102D01*
G03X225918Y31631I-5043J3721D01*
G03X226022Y31783I-8542J5964D01*
G02X226349Y32250I12033J-8098D01*
G02X226600Y32554I2788J-2041D01*
G02X226837Y32774I1546J-1428D01*
G02X227110Y32961I1448J-1823D01*
G02X227173Y32997I2199J-3767D01*
G02X227228Y33027I1258J-2234D01*
G02X227276Y33052I2164J-4078D01*
G02X227287Y33055I11J-22D01*
G02X227338Y33007I0J-51D01*
G02X227360Y32578I-16816J-1078D01*
G02X227363Y32158I-7115J-275D01*
G02X227332Y31871I-1644J34D01*
G02X227227Y31493I-2568J510D01*
G02X227065Y31127I-2644J953D01*
G02X226851Y30784I-2547J1353D01*
G02X226589Y30472I-2399J1745D01*
G02X226457Y30343I-2105J2025D01*
G02X226274Y30180I-5961J6511D01*
G02X226094Y30028I-7251J8375D01*
G02X226007Y29968I-377J454D01*
G03X225991Y29948I18J-31D01*
G03X225966Y29870I1895J-642D01*
G03X225939Y29770I1819J-536D01*
G03X225912Y29644I4169J-983D01*
G02X225860Y29406I-8932J1825D01*
G02X225802Y29174I-8102J1880D01*
G02X225748Y28977I-7401J1946D01*
G02X225709Y28872I-744J217D01*
G02X225682Y28832I-130J59D01*
G02X225642Y28802I-116J112D01*
G02X225596Y28786I-75J139D01*
G02X225548Y28786I-24J131D01*
G02X225502Y28819I12J67D01*
G02X225483Y28886I123J71D01*
G02X225489Y29023I917J24D01*
G02X225533Y29360I24501J-3019D01*
G01X225602Y29864D01*
X225523Y29929D01*
G02X225384Y30052I1456J1788D01*
G02X225170Y30261I10121J10562D01*
G02X224959Y30476I10125J10153D01*
G02X224827Y30623I2027J1948D01*
G02X224573Y30955I3797J3167D01*
G02X224349Y31306I4028J2819D01*
G02X224167Y31655I3820J2217D01*
G02X224041Y31977I2402J1122D01*
G02X223983Y32195I2439J771D01*
G02X223932Y32458I4945J1095D01*
G02X223896Y32717I4870J813D01*
G02X223884Y32919I1795J202D01*
G01Y33107D01*
G37*
G36*
G01X324075Y49181D02*
G02X324403Y49228I331J-1141D01*
G02X324734Y49183I3J-1213D01*
G02X325078Y49047I-491J-1753D01*
G02X325476Y48679I-466J-902D01*
G02X327764Y44957I-862165J-532739D01*
G02X331215Y39263I-644363J-394328D01*
G01X338096Y27776D01*
G02X338804Y26571I-77929J-46614D01*
G02X339167Y25881I-8678J-5011D01*
G02X339354Y25405I-3249J-1553D01*
G02X339416Y25013I-1286J-403D01*
G02X339401Y24732I-2354J-19D01*
G02X339351Y24508I-1033J116D01*
G02X339258Y24320I-798J275D01*
G02X339117Y24146I-921J605D01*
G01X338813Y23843D01*
X324605Y23807D01*
X310397Y23772D01*
X309942Y24227D01*
G02X309605Y24876I860J860D01*
G02X309685Y25623I1330J235D01*
G02X310324Y26915I9490J-3891D01*
G02X312682Y30909I548708J-321270D01*
G01X313199Y31779D01*
X313931Y33014D01*
X314732Y34367D01*
X315486Y35642D01*
X320506Y44127D01*
G02X322269Y47046I170019J-100708D01*
G02X323268Y48610I48538J-29897D01*
G02X323740Y49043I1105J-731D01*
G02X324075Y49181I804J-1479D01*
G37*
%LPC*%
G75*
G36*
G01X22961Y319134D02*
G03X22834Y319253I-6323J-6624D01*
G03X22678Y319392I-5398J-5877D01*
G03X22503Y319542I-7676J-8809D01*
G01X22056Y319916D01*
X21953Y319603D01*
G02X21890Y319451I-1086J359D01*
G02X21780Y319242I-4108J2052D01*
G02X21646Y319019I-4470J2528D01*
G02X21507Y318814I-3592J2277D01*
G03X21290Y318500I8345J-6004D01*
G03X21224Y318350I403J-268D01*
G03X21223Y318206I291J-73D01*
G03X21295Y317965I2388J578D01*
G02X21347Y317762I-1144J-404D01*
G02X21395Y317433I-7148J-1206D01*
G02X21432Y317054I-8170J-993D01*
G02X21452Y316674I-8097J-609D01*
G03X21488Y316059I9944J278D01*
G03X21565Y315652I2149J194D01*
G03X21711Y315300I1640J476D01*
G03X21971Y314885I4010J2222D01*
G01X22150Y314631D01*
X22414Y315190D01*
G02X22529Y315423I7411J-3505D01*
G02X22656Y315661I8437J-4319D01*
G02X22775Y315872I7423J-4074D01*
G02X22864Y316009I1597J-937D01*
G01X23049Y316268D01*
X22810Y317143D01*
X22572Y318017D01*
X22813Y318509D01*
G03X22901Y318703I-3376J1651D01*
G03X22967Y318880I-2146J903D01*
G03X23010Y319027I-2163J709D01*
G03X23001Y319084I-71J18D01*
G03X22961Y319134I-214J-132D01*
G37*
G36*
G01X24797Y314073D02*
G03X24651Y314131I-668J-1460D01*
G03X24512Y314171I-470J-1368D01*
G03X24405Y314184I-108J-460D01*
G03X23944Y314076I-1J-1036D01*
G03X23417Y313742I1320J-2664D01*
G03X22990Y313324I1765J-2228D01*
G03X22859Y312959I442J-365D01*
G03X22889Y312785I519J0D01*
G03X22977Y312682I180J64D01*
G03X23146Y312632I197J355D01*
G03X23462Y312624I244J3560D01*
G03X23842Y312674I-35J1751D01*
G03X24235Y312807I-567J2324D01*
G03X24593Y313003I-933J2129D01*
G03X24869Y313241I-820J1229D01*
G03X25098Y313522I-2616J2365D01*
G03X25165Y313704I-285J208D01*
G03X25112Y313853I-196J15D01*
G03X24926Y314005I-654J-614D01*
G03X24797Y314073I-641J-1051D01*
G37*
G36*
G01X24288Y318479D02*
G03X24184Y318572I-830J-814D01*
G03X24042Y318673I-918J-1145D01*
G03X23873Y318768I-1172J-1886D01*
G01X23432Y318992D01*
X23237Y318644D01*
G03X23096Y318314I1441J-810D01*
G03X23052Y318000I966J-293D01*
G03X23107Y317656I1283J27D01*
G03X23266Y317226I3555J1072D01*
G03X23445Y316868I3860J1708D01*
G03X23573Y316802I115J64D01*
G03X23742Y316875I-31J301D01*
G03X24244Y317326I-17698J20246D01*
G01X24744Y317785D01*
X24529Y318035D01*
G02X24447Y318141I1088J935D01*
G02X24377Y318250I1038J737D01*
G02X24328Y318349I923J523D01*
G02X24314Y318415I152J66D01*
G03X24288Y318479I-91J0D01*
G37*
G36*
G01X19971Y313712D02*
G03X19872Y313805I-430J-357D01*
G03X19761Y313865I-283J-385D01*
G03X19636Y313896I-184J-475D01*
G01X19377Y313926D01*
X19435Y313306D01*
G03X19511Y312834I3602J337D01*
G03X19643Y312502I1140J261D01*
G03X19835Y312295I567J334D01*
G03X20086Y312200I317J456D01*
G01X20341Y312170D01*
X20282Y312737D01*
G03X20247Y312975I-2934J-307D01*
G03X20192Y313220I-3477J-653D01*
G03X20126Y313439I-3039J-797D01*
G03X20059Y313585I-774J-265D01*
G03X19971Y313712I-802J-466D01*
G37*
G36*
G01X26218Y314242D02*
G03X26203Y314354I-949J-71D01*
G03X26181Y314437I-692J-135D01*
G03X26155Y314456I-26J-9D01*
G03X26044Y314403I2J-144D01*
G03X25646Y313901I28244J-22835D01*
G03X25250Y313386I35830J-27939D01*
G03X25256Y313303I50J-38D01*
G03X25352Y313278I70J70D01*
G03X25612Y313364I-854J3012D01*
G03X25877Y313483I-892J2342D01*
G03X26058Y313609I-398J766D01*
G03X26128Y313695I-242J267D01*
G03X26180Y313810I-530J308D01*
G03X26212Y313950I-745J246D01*
G03X26223Y314108I-1146J158D01*
G03X26218Y314242I-1826J0D01*
G37*
G36*
G01X27280Y315720D02*
G03X27184Y315774I-74J-19D01*
G03X27020Y315668I103J-340D01*
G03X26705Y315289I7332J-6418D01*
G03X26526Y315057I8570J-6766D01*
G03X26382Y314855I4514J-3372D01*
G03X26268Y314683I8910J-6066D01*
G03X26271Y314652I21J-14D01*
G03X26302Y314642I24J24D01*
G03X26419Y314670I-590J2716D01*
G03X26561Y314712I-576J2192D01*
G03X26722Y314770I-1271J3809D01*
G03X27001Y314903I-700J1830D01*
G03X27181Y315053I-336J583D01*
G03X27280Y315238I-391J328D01*
G03X27312Y315474I-789J230D01*
G03X27280Y315720I-995J-6D01*
G37*
G36*
G01X194867Y38822D02*
X191494D01*
G03X190198Y38817I1J-175092D01*
G03X189102Y38803I670J-90297D01*
G01X188130Y38783D01*
G03X188085Y38756I1J-52D01*
G03X188072Y38706I93J-51D01*
G03X188072Y38532I7803J-114D01*
G03X188077Y38323I5779J45D01*
G03X188090Y38088I9294J408D01*
G01X188132Y37487D01*
X189693Y35732D01*
G03X190296Y35060I95469J84928D01*
G03X190813Y34493I49578J44743D01*
G03X191274Y33995I280025J258649D01*
G03X191313Y33978I40J37D01*
G03X191352Y33994I0J55D01*
G03X191584Y34226I-33880J34083D01*
G03X191848Y34499I-12008J11911D01*
G03X192151Y34822I-22633J21468D01*
G01X192930Y35667D01*
X191765Y35692D01*
X190600Y35716D01*
Y36422D01*
X192015D01*
G02X192575Y36416I2J-26842D01*
G02X193034Y36398I-258J-12324D01*
G02X193413Y36373I-1431J-24590D01*
G02X193459Y36338I-4J-53D01*
G03X193493Y36329I20J7D01*
G03X193643Y36461I-2879J3432D01*
G03X193829Y36643I-2781J3027D01*
G03X194044Y36876I-6487J6223D01*
G03X194378Y37261I-11977J10707D01*
G03X194518Y37471I-897J752D01*
G03X194581Y37664I-530J277D01*
G03X194600Y37938I-1921J274D01*
G02X194606Y38154I3789J0D01*
G02X194629Y38282I551J-32D01*
G02X194671Y38352I160J-48D01*
G02X194733Y38378I63J-63D01*
G03X194788Y38394I0J104D01*
G03X194831Y38437I-69J111D01*
G03X194858Y38507I-184J111D01*
G03X194867Y38600I-486J93D01*
G01Y38822D01*
G37*
G36*
G01X192261Y32195D02*
G03X191788Y32717I-48402J-43515D01*
G03X191369Y33171I-188787J-173487D01*
G03X191319Y33204I-91J-84D01*
G03X191274Y33196I-16J-45D01*
G03X191165Y33108I1389J-1814D01*
G03X191037Y32987I1442J-1660D01*
G03X190900Y32840I2726J-2674D01*
G02X190712Y32629I-15073J13299D01*
G02X190400Y32287I-99295J90084D01*
G02X190041Y31896I-110565J101074D01*
G02X189681Y31506I-110227J101413D01*
G01X188806Y30562D01*
X188908Y29559D01*
G03X188950Y29160I53283J5410D01*
G03X188992Y28792I38975J4256D01*
G03X189030Y28483I41248J4907D01*
G03X189051Y28356I1677J212D01*
G03X189131Y28240I177J36D01*
G03X189295Y28181I211J331D01*
G03X189646Y28159I372J3103D01*
G03X190725Y28156I1065J166650D01*
G01X192358D01*
X192419Y28562D01*
G02X192612Y29070I1259J-189D01*
G02X193019Y29518I1606J-1051D01*
G02X193519Y29797I1078J-1346D01*
G02X193985Y29817I265J-747D01*
G03X194094Y29894I22J84D01*
G03X194040Y30103I-325J28D01*
G03X193659Y30607I-4362J-2906D01*
G03X192809Y31582I-56857J-48693D01*
G03X192261Y32195I-90434J-80201D01*
G37*
G36*
G01X190749Y40353D02*
G03X190672Y40393I-122J-139D01*
G03X190526Y40413I-167J-675D01*
G03X190267Y40415I-177J-5875D01*
G03X189804Y40396I115J-8402D01*
G03X189632Y40330I21J-310D01*
G03X189552Y40186I132J-167D01*
G03X189533Y39836I3185J-350D01*
G01Y39353D01*
X192222Y39376D01*
G03X193957Y39395I-3951J451838D01*
G03X194543Y39420I-120J9524D01*
G03X194816Y39470I-98J1322D01*
G03X194881Y39574I-26J88D01*
G03X194816Y39730I-383J-67D01*
G03X194687Y39858I-414J-291D01*
G03X194467Y39974I-621J-910D01*
G03X194110Y40100I-2045J-5231D01*
G03X193644Y40227I-1910J-6058D01*
G03X193223Y40302I-900J-3854D01*
G03X192893Y40326I-401J-3299D01*
G03X192822Y40256I-1J-69D01*
G02X192782Y40209I-48J0D01*
G02X192575Y40180I-465J2580D01*
G02X192265Y40161I-409J4128D01*
G02X191800Y40156I-462J19742D01*
G02X191247Y40160I-3J32130D01*
G02X190970Y40181I43J2467D01*
G02X190824Y40220I75J575D01*
G02X190778Y40289I29J69D01*
G03X190749Y40353I-85J0D01*
G37*
G36*
G01X189097Y35755D02*
G03X188653Y36244I-59695J-53779D01*
G01X188255Y36678D01*
G03X188230Y36689I-25J-22D01*
G03X188217Y36676I0J-13D01*
G03X188219Y36565I3894J8D01*
G03X188227Y36429I2538J75D01*
G03X188243Y36267I5079J426D01*
G02X188272Y35994I-18153J-2108D01*
G01X188343Y35291D01*
X188426Y34452D01*
X188515Y33538D01*
G03X188602Y32652I208996J20212D01*
G03X188681Y31901I108425J10954D01*
G01X188754Y31232D01*
G03X188767Y31203I47J5D01*
G03X188818Y31204I25J25D01*
G01X189852Y32331D01*
G03X190852Y33427I-382228J350122D01*
G03X190940Y33575I-309J281D01*
G03X190929Y33635I-59J20D01*
G03X190563Y34080I-72444J-59151D01*
G03X190133Y34588I-22143J-18303D01*
G03X189617Y35174I-41102J-35615D01*
G03X189097Y35755I-116169J-103620D01*
G37*
G36*
G01X188639Y39847D02*
G03X188622Y39962I-880J-72D01*
G03X188597Y40046I-601J-131D01*
G03X188568Y40067I-30J-11D01*
G03X188425Y40020I0J-243D01*
G03X188233Y39858I966J-1332D01*
G03X188069Y39668I1159J-1171D01*
G03X188022Y39527I190J-141D01*
G03X188039Y39442I227J0D01*
G03X188085Y39390I96J39D01*
G03X188174Y39363I109J199D01*
G03X188333Y39356I159J1748D01*
G03X188527Y39364I0J2126D01*
G03X188603Y39403I-10J115D01*
G03X188637Y39487I-106J93D01*
G03X188644Y39711I-3534J224D01*
G03X188639Y39847I-1674J1D01*
G37*
G36*
G01X194703Y36426D02*
G03X194692Y36588I-1571J-25D01*
G03X194670Y36714I-1339J-161D01*
G03X194638Y36750I-48J-11D01*
G03X194524Y36722I-34J-103D01*
G03X193118Y35230I711674J-672014D01*
G03X191729Y33748I536471J-504472D01*
G03X191667Y33591I169J-158D01*
G03X191714Y33465I191J0D01*
G03X192930Y32084I676649J594647D01*
G01X194162Y30690D01*
G03X194228Y30688I34J30D01*
G03X194258Y30751I-72J72D01*
G01X194457Y33094D01*
G03X194628Y35161I-455393J38606D01*
G03X194699Y36238I-39504J3167D01*
G03X194703Y36426I-2730J145D01*
G37*
G36*
G01X192357Y40773D02*
G03X192295Y40836I-97J-33D01*
G03X192158Y40862I-146J-400D01*
G03X191770Y40867I-391J-16624D01*
G03X191347Y40859I1J-11110D01*
G03X191163Y40821I22J-567D01*
G03X191076Y40737I57J-146D01*
G03X191044Y40585I349J-152D01*
G03X191076Y40500I131J0D01*
G03X191158Y40450I119J102D01*
G03X191328Y40427I191J783D01*
G03X191711Y40422I384J15026D01*
G03X192142Y40426I0J21620D01*
G03X192289Y40452I-10J496D01*
G03X192355Y40516I-33J101D01*
G03X192378Y40644I-350J129D01*
G03X192357Y40773I-402J0D01*
G37*
G36*
G01X195665Y37687D02*
G03X195658Y37816I-2980J-78D01*
G03X195650Y37923I-5788J-404D01*
G03X195639Y37933I-11J-1D01*
G03X195621Y37926I0J-26D01*
G03X195549Y37860I4408J-4859D01*
G03X195466Y37780I2374J-2540D01*
G03X195372Y37684I4353J-4351D01*
G03X195184Y37453I1334J-1278D01*
G03X195136Y37281I229J-158D01*
G03X195210Y37173I125J6D01*
G03X195400Y37133I190J433D01*
G03X195560Y37145I0J1110D01*
G03X195630Y37189I-15J100D01*
G03X195661Y37283I-154J103D01*
G03X195667Y37533I-5149J251D01*
G03X195665Y37687I-5884J0D01*
G37*
G36*
G01X193886Y29047D02*
G03X193426Y28909I-44J-690D01*
G03X193147Y28494I460J-610D01*
G03X193193Y28007I684J-181D01*
G03X193466Y27691I717J344D01*
G03X193847Y27579I368J547D01*
G03X194221Y27706I-13J652D01*
G03X194477Y28033I-462J626D01*
G03X194544Y28258I-1022J427D01*
G03X194541Y28449I-481J89D01*
G03X194465Y28634I-544J-115D01*
G03X194305Y28844I-1379J-886D01*
G03X193886Y29047I-458J-412D01*
G37*
G36*
G01X214115Y28232D02*
G03X213887Y28098I97J-428D01*
G03X213739Y27825I486J-439D01*
G03X213689Y27440I1476J-387D01*
G03X213724Y27099I1668J-2D01*
G03X213832Y26844I700J146D01*
G03X214005Y26689I394J266D01*
G03X214234Y26633I229J437D01*
G03X214357Y26647I0J551D01*
G03X214468Y26688I-100J436D01*
G03X214564Y26757I-211J394D01*
G03X214644Y26852I-377J400D01*
G03X214713Y26975I-788J527D01*
G03X214753Y27092I-506J238D01*
G03X214773Y27236I-834J184D01*
G03X214777Y27453I-4043J194D01*
G03X214774Y27614I-6139J-34D01*
G03X214766Y27716I-1096J-35D01*
G03X214750Y27797I-608J-77D01*
G03X214724Y27879I-736J-195D01*
G03X214665Y27994I-602J-235D01*
G03X214584Y28097I-588J-379D01*
G03X214491Y28177I-449J-427D01*
G03X214397Y28222I-188J-268D01*
G03X214115Y28232I-159J-530D01*
G37*
G36*
G01X212440Y28194D02*
G03X212303Y28205I-147J-963D01*
G03X212175Y28198I-10J-1072D01*
G03X212133Y28166I6J-51D01*
G03X212127Y28139I81J-31D01*
G03X212123Y28043I7171J-376D01*
G03X212120Y27928I5042J-194D01*
G03X212119Y27799I8036J-127D01*
G01Y27470D01*
X212268Y27484D01*
G03X212474Y27521I-111J1189D01*
G03X212610Y27593I-97J354D01*
G03X212688Y27702I-165J199D01*
G03X212716Y27855I-419J155D01*
G03X212706Y27960I-547J3D01*
G03X212676Y28042I-260J-49D01*
G03X212621Y28108I-213J-122D01*
G03X212539Y28162I-277J-329D01*
G03X212440Y28194I-147J-290D01*
G37*
G36*
G01X325231Y45449D02*
G03X324824Y46105I-44787J-27354D01*
G03X324461Y46679I-225440J-142285D01*
G03X324420Y46701I-41J-26D01*
G03X324380Y46679I0J-47D01*
G01X323767Y45675D01*
G03X323086Y44546I128215J-78147D01*
G03X322290Y43206I251421J-150240D01*
G02X319953Y39258I-1639993J968110D01*
G01X317110Y34475D01*
X314429Y29979D01*
G02X313004Y27609I-353356J210943D01*
G03X312584Y26905I44902J-27218D01*
G03X312248Y26311I22038J-12892D01*
G03X311970Y25802I64382J-35392D01*
G03X311990Y25765I22J-12D01*
G03X312292Y25748I296J2575D01*
G01X324583Y25774D01*
X336998Y25801D01*
G03X337041Y25819I0J61D01*
G03X337044Y25841I-13J13D01*
G01X336703Y26424D01*
G03X336318Y27075I-71239J-41735D01*
G03X335855Y27843I-139115J-83246D01*
G01X333678Y31441D01*
X330370Y36921D01*
X327088Y42363D01*
G02X325702Y44672I721984J435287D01*
G03X325231Y45449I-86611J-51843D01*
G37*
%LPD*%
G75*
G36*
G01X193563Y28657D02*
G02X193655Y28725I284J-288D01*
G02X193762Y28764I193J-358D01*
G02X193888Y28778I126J-583D01*
G02X194160Y28685I0J-448D01*
G02X194318Y28447I-266J-347D01*
G02X194298Y28154I-453J-116D01*
G02X194108Y27923I-467J190D01*
G02X193794Y27838I-287J438D01*
G02X193517Y27963I21J417D01*
G02X193396Y28244I304J298D01*
G02X193484Y28560I539J20D01*
G02X193563Y28657I493J-323D01*
G37*
G36*
G01X323374Y42383D02*
G02X323801Y42413I2028J-25348D01*
G02X324307Y42435I828J-13172D01*
G02X324897Y42442I593J-24081D01*
G01X326424D01*
X326239Y42009D01*
G03X325484Y40222I298211J-127111D01*
G03X324586Y38070I619151J-259569D01*
G01X323637Y35782D01*
G03X323620Y35701I197J-82D01*
G03X323646Y35685I18J0D01*
G03X324192Y35949I-66095J137340D01*
G03X324820Y36261I-16383J33689D01*
G03X325566Y36647I-34733J68173D01*
G02X326521Y37137I32582J-62242D01*
G02X327070Y37389I3612J-7165D01*
G02X327377Y37488I770J-1865D01*
G02X327440Y37421I12J-52D01*
G03X327028Y35932I46102J-13577D01*
G03X326253Y32920I627115J-162996D01*
G01X325380Y29494D01*
G03X325401Y29417I78J-20D01*
G03X325446Y29404I35J35D01*
G03X325586Y29437I-474J2307D01*
G03X325757Y29491I-590J2182D01*
G03X325950Y29566I-1321J3698D01*
G02X326135Y29637I1397J-3348D01*
G02X326284Y29680I451J-1269D01*
G02X326380Y29694I120J-523D01*
G02X326398Y29668I1J-18D01*
G02X326250Y29397I-1498J638D01*
G02X325208Y27856I-573850J386794D01*
G01X324103Y26227D01*
G02X324062Y26223I-22J15D01*
G02X324024Y26293I98J98D01*
G01X323626Y28196D01*
X323242Y30041D01*
G02X323220Y30252I1016J211D01*
G02X323246Y30268I18J0D01*
G02X323334Y30219I-255J-553D01*
G02X323459Y30123I-790J-1160D01*
G02X323607Y29988I-2397J-2794D01*
G01X323994Y29618D01*
X324071Y29997D01*
G03X324270Y31088I-25471J5201D01*
G03X324534Y32799I-142556J22831D01*
G01X324813Y34696D01*
G03X324781Y34793I-113J16D01*
G03X324723Y34804I-37J-37D01*
G03X324140Y34541I44505J-99546D01*
G03X323472Y34228I12944J-28498D01*
G03X322690Y33844I26227J-54314D01*
G02X321705Y33360I-32727J65337D01*
G02X321130Y33107I-3819J7924D01*
G02X320802Y33003I-913J2300D01*
G02X320739Y33070I-12J51D01*
G03X320783Y33222I-5666J1739D01*
G03X320886Y33591I-141087J39299D01*
G03X321006Y34032I-132896J36588D01*
G03X321136Y34509I-182136J49551D01*
G02X321830Y37070I640958J-172483D01*
G02X322545Y39664I679220J-185712D01*
G01X323251Y42206D01*
G02X323310Y42342I531J-147D01*
G02X323374Y42383I71J-43D01*
G37*
G54D10*
G01X184822Y8583D02*
X185052Y8893D01*
X185320Y9048D01*
X185627Y9100D01*
X186010Y8997D01*
X186278Y8738D01*
X186355Y8428D01*
X186317Y8118D01*
X186163Y7860D01*
X185397Y7343D01*
X185052Y6982D01*
X184822Y6465D01*
X184745Y6000D01*
X186355D01*
G01X188250Y9100D02*
X187943Y8997D01*
X187713Y8738D01*
X187560Y8428D01*
X187445Y8015D01*
X187407Y7550D01*
X187445Y7085D01*
X187560Y6672D01*
X187713Y6362D01*
X187943Y6103D01*
X188250Y6000D01*
X188557Y6103D01*
X188787Y6362D01*
X188940Y6672D01*
X189055Y7085D01*
X189093Y7550D01*
X189055Y8015D01*
X188940Y8428D01*
X188787Y8738D01*
X188557Y8997D01*
X188250Y9100D01*
G01X190950Y6000D02*
Y9100D01*
X190490Y8480D01*
G01Y6000D02*
X191410D01*
G01X192922Y7292D02*
X193190Y7653D01*
X193420Y7860D01*
X193727Y7963D01*
X193995Y7860D01*
X194187Y7653D01*
X194340Y7343D01*
X194378Y6982D01*
X194340Y6672D01*
X194187Y6362D01*
X193957Y6103D01*
X193688Y6000D01*
X193382Y6103D01*
X193113Y6413D01*
X192960Y6878D01*
X192922Y7395D01*
X192998Y8067D01*
X193113Y8428D01*
X193305Y8790D01*
X193573Y9048D01*
X193842Y9100D01*
X194110Y8997D01*
X194302Y8738D01*
G01X195852Y7033D02*
X196848D01*
G01X198973Y6000D02*
X199050Y6672D01*
X199165Y7240D01*
X199318Y7757D01*
X199510Y8325D01*
X199817Y9100D01*
X198283D01*
G01X201252Y7033D02*
X202248D01*
G01X203722Y8583D02*
X203952Y8893D01*
X204220Y9048D01*
X204527Y9100D01*
X204910Y8997D01*
X205178Y8738D01*
X205255Y8428D01*
X205217Y8118D01*
X205063Y7860D01*
X204297Y7343D01*
X203952Y6982D01*
X203722Y6465D01*
X203645Y6000D01*
X205255D01*
G01X184592Y13100D02*
X185550Y10000D01*
X186508Y13100D01*
G01X188557Y11653D02*
X188710Y11808D01*
X188825Y12067D01*
X188902Y12428D01*
X188825Y12738D01*
X188672Y12945D01*
X188403Y13100D01*
X187368D01*
Y10000D01*
X188633D01*
X188902Y10207D01*
X189055Y10517D01*
X189132Y10878D01*
X189055Y11240D01*
X188825Y11550D01*
X188557Y11653D01*
X187368D01*
G01X190183Y10000D02*
Y13100D01*
X191142D01*
X191448Y12945D01*
X191640Y12738D01*
X191717Y12325D01*
X191640Y11912D01*
X191410Y11653D01*
X191142Y11498D01*
X190183D01*
G01X191142D02*
X191717Y10000D01*
G01X192692D02*
X193650Y13100D01*
X194608Y10000D01*
G01X194263Y11085D02*
X193037D01*
G01X196350Y13100D02*
Y10000D01*
G01X195468Y13100D02*
X197232D01*
G01X198590D02*
X199510D01*
G01X199050D02*
Y10000D01*
G01X198590D02*
X199510D01*
G01X201750D02*
X201443Y10052D01*
X201175Y10258D01*
X200945Y10568D01*
X200792Y10930D01*
X200715Y11343D01*
Y11757D01*
X200792Y12170D01*
X200945Y12532D01*
X201175Y12842D01*
X201443Y13048D01*
X201750Y13100D01*
X202057Y13048D01*
X202325Y12842D01*
X202555Y12532D01*
X202708Y12170D01*
X202785Y11757D01*
Y11343D01*
X202708Y10930D01*
X202555Y10568D01*
X202325Y10258D01*
X202057Y10052D01*
X201750Y10000D01*
G01X203568D02*
Y13100D01*
X205332Y10000D01*
Y13100D01*
G01X208892D02*
X209850Y10000D01*
X210808Y13100D01*
G01X211822Y12583D02*
X212052Y12893D01*
X212320Y13048D01*
X212627Y13100D01*
X213010Y12997D01*
X213278Y12738D01*
X213355Y12428D01*
X213317Y12118D01*
X213163Y11860D01*
X212397Y11343D01*
X212052Y10982D01*
X211822Y10465D01*
X211745Y10000D01*
X213355D01*
G01X215250Y9897D02*
X215173Y9948D01*
Y10052D01*
X215250Y10103D01*
X215327Y10052D01*
Y9948D01*
X215250Y9897D01*
G01X217950Y10000D02*
Y13100D01*
X217490Y12480D01*
G01Y10000D02*
X218410D01*
G01X185550Y14000D02*
Y17100D01*
G01X188250Y14000D02*
X188020Y14052D01*
X187790Y14258D01*
X187637Y14620D01*
X187560Y15033D01*
X187637Y15447D01*
X187790Y15808D01*
X188020Y16015D01*
X188250Y16067D01*
X188480Y16015D01*
X188710Y15808D01*
X188863Y15447D01*
X188902Y15033D01*
X188863Y14620D01*
X188710Y14258D01*
X188480Y14052D01*
X188250Y14000D01*
G01X190950D02*
X190720Y14052D01*
X190490Y14258D01*
X190337Y14620D01*
X190260Y15033D01*
X190337Y15447D01*
X190490Y15808D01*
X190720Y16015D01*
X190950Y16067D01*
X191180Y16015D01*
X191410Y15808D01*
X191563Y15447D01*
X191602Y15033D01*
X191563Y14620D01*
X191410Y14258D01*
X191180Y14052D01*
X190950Y14000D01*
G01X193650D02*
Y17100D01*
G01X198590D02*
X199510D01*
G01X199050D02*
Y14000D01*
G01X198590D02*
X199510D01*
G01X201098D02*
Y16067D01*
G01Y15550D02*
X201252Y15808D01*
X201482Y16015D01*
X201788Y16067D01*
X202057Y16015D01*
X202287Y15808D01*
X202402Y15447D01*
Y14000D01*
G01X205140Y17100D02*
Y14000D01*
G01Y14465D02*
X204987Y14207D01*
X204757Y14052D01*
X204488Y14000D01*
X204182Y14103D01*
X203952Y14362D01*
X203798Y14672D01*
X203760Y15033D01*
X203798Y15395D01*
X203952Y15705D01*
X204182Y15963D01*
X204488Y16067D01*
X204757Y16015D01*
X204948Y15912D01*
X205140Y15705D01*
G01X206575Y14362D02*
X206767Y14155D01*
X207035Y14000D01*
X207265D01*
X207495Y14103D01*
X207648Y14258D01*
X207725Y14465D01*
X207687Y14775D01*
X207533Y14930D01*
X206843Y15240D01*
X206690Y15602D01*
X206767Y15860D01*
X206920Y16015D01*
X207150Y16067D01*
X207380Y16015D01*
X207610Y15860D01*
G01X185307Y49450D02*
Y52550D01*
G01X186763D02*
X185307Y50638D01*
G01X186993Y49450D02*
X185958Y51517D01*
G01X187892Y49450D02*
X188850Y52550D01*
X189808Y49450D01*
G01X189463Y50535D02*
X188237D01*
G01X171183Y52550D02*
Y49450D01*
X172717D01*
G01X175417D02*
X173883D01*
Y52550D01*
X175417D01*
G01X174803Y51052D02*
X173883D01*
G01X176507Y49450D02*
Y52550D01*
X177273D01*
X177580Y52395D01*
X177810Y52188D01*
X178002Y51878D01*
X178155Y51517D01*
X178193Y51000D01*
X178155Y50483D01*
X178002Y50122D01*
X177810Y49812D01*
X177580Y49605D01*
X177273Y49450D01*
X176507D01*
G01X179628Y50483D02*
X180548D01*
G01X180050Y51155D02*
Y49812D01*
G01X185307Y60950D02*
Y64050D01*
G01X186763D02*
X185307Y62138D01*
G01X186993Y60950D02*
X185958Y63017D01*
G01X189157Y62603D02*
X189310Y62758D01*
X189425Y63017D01*
X189502Y63378D01*
X189425Y63688D01*
X189272Y63895D01*
X189003Y64050D01*
X187968D01*
Y60950D01*
X189233D01*
X189502Y61157D01*
X189655Y61467D01*
X189732Y61828D01*
X189655Y62190D01*
X189425Y62500D01*
X189157Y62603D01*
X187968D01*
G01X171183Y64050D02*
Y60950D01*
X172717D01*
G01X175417D02*
X173883D01*
Y64050D01*
X175417D01*
G01X174803Y62552D02*
X173883D01*
G01X176507Y60950D02*
Y64050D01*
X177273D01*
X177580Y63895D01*
X177810Y63688D01*
X178002Y63378D01*
X178155Y63017D01*
X178193Y62500D01*
X178155Y61983D01*
X178002Y61622D01*
X177810Y61312D01*
X177580Y61105D01*
X177273Y60950D01*
X176507D01*
G01X179552Y61983D02*
X180548D01*
G01X270092Y30000D02*
X271050Y26900D01*
X272008Y30000D01*
G01X273328Y27933D02*
X274248D01*
G01X273750Y28605D02*
Y27262D01*
G01X270092Y17500D02*
X271050Y14400D01*
X272008Y17500D01*
G01X273252Y15433D02*
X274248D01*
G01X306725Y384312D02*
X306917Y384105D01*
X307185Y383950D01*
X307415D01*
X307645Y384053D01*
X307798Y384208D01*
X307875Y384415D01*
X307837Y384725D01*
X307683Y384880D01*
X306993Y385190D01*
X306840Y385552D01*
X306917Y385810D01*
X307070Y385965D01*
X307300Y386017D01*
X307530Y385965D01*
X307760Y385810D01*
G01X319160Y411017D02*
X319850Y408950D01*
X320540Y411017D01*
G01X322052Y409983D02*
X323048D01*
G01X332960Y386317D02*
X333650Y384250D01*
X334340Y386317D01*
G01X335928Y385283D02*
X336848D01*
G01X336350Y385955D02*
Y384612D01*
G54D11*
G01X181600Y56700D02*
X169600D01*
G01X181600Y44700D02*
X169600D01*
G01D02*
Y56700D01*
G01D02*
Y68700D01*
G01D02*
X181600D01*
G01Y56700D02*
Y44700D01*
G01Y56700D02*
X193600D01*
G01X181600D02*
Y68700D01*
G01Y44700D02*
X193600D01*
G01Y68700D02*
X181600D01*
G01X193600Y56700D02*
Y68700D01*
G01Y56700D02*
Y44700D01*
G01X277900Y10100D02*
X265900D01*
G01D02*
Y22100D01*
G01X277900D02*
Y10100D01*
G01X265900Y34100D02*
Y22100D01*
G01X277900D02*
Y34100D01*
G01Y22100D02*
X265900D01*
G01X277900Y34100D02*
X265900D01*
G54D12*
G01X13223Y109394D02*
X8577D01*
Y118606D01*
X13223D01*
Y109394D01*
G01X8577Y129106D02*
X13223D01*
Y119894D01*
X8577D01*
Y129106D01*
G01X13223Y132394D02*
X8577D01*
Y141606D01*
X13223D01*
Y132394D01*
G01X16723Y62386D02*
X12077D01*
Y71598D01*
X16723D01*
Y62386D01*
G01X26723Y79386D02*
X22077D01*
Y88598D01*
X26723D01*
Y79386D01*
G01X31723D02*
X27077D01*
Y88598D01*
X31723D01*
Y79386D01*
G01X21723D02*
X17077D01*
Y88598D01*
X21723D01*
Y79386D01*
G01X41723D02*
X37077D01*
Y88598D01*
X41723D01*
Y79386D01*
G01X46723D02*
X42077D01*
Y88598D01*
X46723D01*
Y79386D01*
G01X36723D02*
X32077D01*
Y88598D01*
X36723D01*
Y79386D01*
G01X38077Y178614D02*
X42723D01*
Y169402D01*
X38077D01*
Y178614D01*
G01X31077D02*
X35723D01*
Y169402D01*
X31077D01*
Y178614D01*
G01X46723Y289386D02*
X42077D01*
Y298598D01*
X46723D01*
Y289386D01*
G01X41723D02*
X37077D01*
Y298598D01*
X41723D01*
Y289386D01*
G01Y299386D02*
X37077D01*
Y308598D01*
X41723D01*
Y299386D01*
G01X46723D02*
X42077D01*
Y308598D01*
X46723D01*
Y299386D01*
G01X47723Y320386D02*
X43077D01*
Y329598D01*
X47723D01*
Y320386D01*
G01X37077Y329614D02*
X41723D01*
Y320402D01*
X37077D01*
Y329614D01*
G01X46014Y347323D02*
Y342677D01*
X36802D01*
Y347323D01*
X46014D01*
G01X41723Y330386D02*
X37077D01*
Y339598D01*
X41723D01*
Y330386D01*
G01X47723D02*
X43077D01*
Y339598D01*
X47723D01*
Y330386D01*
G01X61723Y79386D02*
X57077D01*
Y88598D01*
X61723D01*
Y79386D01*
G01X51723D02*
X47077D01*
Y88598D01*
X51723D01*
Y79386D01*
G01X56723D02*
X52077D01*
Y88598D01*
X56723D01*
Y79386D01*
G01X45077Y178614D02*
X49723D01*
Y169402D01*
X45077D01*
Y178614D01*
G01X59077D02*
X63723D01*
Y169402D01*
X59077D01*
Y178614D01*
G01X52077D02*
X56723D01*
Y169402D01*
X52077D01*
Y178614D01*
G01X44077Y248614D02*
X48723D01*
Y239402D01*
X44077D01*
Y248614D01*
G01Y268614D02*
X48723D01*
Y259402D01*
X44077D01*
Y268614D01*
G01X48723Y269386D02*
X44077D01*
Y278598D01*
X48723D01*
Y269386D01*
G01X60014Y294323D02*
Y289677D01*
X50802D01*
Y294323D01*
X60014D01*
G01X50786Y308677D02*
Y313323D01*
X59998D01*
Y308677D01*
X50786D01*
G01X60014Y319323D02*
Y314677D01*
X50802D01*
Y319323D01*
X60014D01*
G01X66723Y79386D02*
X62077D01*
Y88598D01*
X66723D01*
Y79386D01*
G01X71723D02*
X67077D01*
Y88598D01*
X71723D01*
Y79386D01*
G01X76723D02*
X72077D01*
Y88598D01*
X76723D01*
Y79386D01*
G01X63786Y289677D02*
Y294323D01*
X72998D01*
Y289677D01*
X63786D01*
G01X74014Y346323D02*
Y341677D01*
X64802D01*
Y346323D01*
X74014D01*
G01X64786Y347677D02*
Y352323D01*
X73998D01*
Y347677D01*
X64786D01*
G01X90676Y74835D02*
X100124D01*
Y89008D01*
X90676D01*
Y74835D01*
G01X87723Y62386D02*
X83077D01*
Y71598D01*
X87723D01*
Y62386D01*
G01X81723Y79394D02*
X77077D01*
Y88606D01*
X81723D01*
Y79394D01*
G01X89006Y262323D02*
Y257677D01*
X79794D01*
Y262323D01*
X89006D01*
G01X79786Y267677D02*
Y272323D01*
X88998D01*
Y267677D01*
X79786D01*
G01X89014Y277323D02*
Y272677D01*
X79802D01*
Y277323D01*
X89014D01*
G01X86723Y289386D02*
X82077D01*
Y298598D01*
X86723D01*
Y289386D01*
G01X81723D02*
X77077D01*
Y298598D01*
X81723D01*
Y289386D01*
G01X86723Y299386D02*
X82077D01*
Y308598D01*
X86723D01*
Y299386D01*
G01X81723D02*
X77077D01*
Y308598D01*
X81723D01*
Y299386D01*
G01X80077Y329614D02*
X84723D01*
Y320402D01*
X80077D01*
Y329614D01*
G01X85077D02*
X89723D01*
Y320402D01*
X85077D01*
Y329614D01*
G01Y339614D02*
X89723D01*
Y330402D01*
X85077D01*
Y339614D01*
G01X84723Y330386D02*
X80077D01*
Y339598D01*
X84723D01*
Y330386D01*
G01X88723Y354386D02*
X84077D01*
Y363598D01*
X88723D01*
Y354386D01*
G01X84077Y373614D02*
X88723D01*
Y364402D01*
X84077D01*
Y373614D01*
G01X110785Y18394D02*
X106140D01*
Y27606D01*
X110785D01*
Y18394D01*
G01Y28394D02*
X106140D01*
Y37606D01*
X110785D01*
Y28394D01*
G01Y38394D02*
X106140D01*
Y47606D01*
X110785D01*
Y38394D01*
G01X101014Y106323D02*
Y101677D01*
X91802D01*
Y106323D01*
X101014D01*
G01Y126323D02*
Y121677D01*
X91802D01*
Y126323D01*
X101014D01*
G01X91786Y126677D02*
Y131323D01*
X100998D01*
Y126677D01*
X91786D01*
G01Y131677D02*
Y136323D01*
X100998D01*
Y131677D01*
X91786D01*
G01Y147677D02*
Y152323D01*
X100998D01*
Y147677D01*
X91786D01*
G01X101014Y146323D02*
Y141677D01*
X91802D01*
Y146323D01*
X101014D01*
G01X91786Y167677D02*
Y172323D01*
X100998D01*
Y167677D01*
X91786D01*
G01Y175677D02*
Y180323D01*
X100998D01*
Y175677D01*
X91786D01*
G01Y182677D02*
Y187323D01*
X100998D01*
Y182677D01*
X91786D01*
G01Y187677D02*
Y192323D01*
X100998D01*
Y187677D01*
X91786D01*
G01Y192677D02*
Y197323D01*
X100998D01*
Y192677D01*
X91786D01*
G01X116014Y347323D02*
Y342677D01*
X106802D01*
Y347323D01*
X116014D01*
G01X109077Y88614D02*
X113723D01*
Y79402D01*
X109077D01*
Y88614D01*
G01X122077Y112614D02*
X126723D01*
Y103402D01*
X122077D01*
Y112614D01*
G01X117077D02*
X121723D01*
Y103402D01*
X117077D01*
Y112614D01*
G01X127614Y219123D02*
Y214477D01*
X118402D01*
Y219123D01*
X127614D01*
G01X114077Y268614D02*
X118723D01*
Y259402D01*
X114077D01*
Y268614D01*
G01X118723Y269386D02*
X114077D01*
Y278598D01*
X118723D01*
Y269386D01*
G01X116723Y289386D02*
X112077D01*
Y298598D01*
X116723D01*
Y289386D01*
G01X111723D02*
X107077D01*
Y298598D01*
X111723D01*
Y289386D01*
G01X130014Y294323D02*
Y289677D01*
X120802D01*
Y294323D01*
X130014D01*
G01X111723Y299386D02*
X107077D01*
Y308598D01*
X111723D01*
Y299386D01*
G01X120786Y308677D02*
Y313323D01*
X129998D01*
Y308677D01*
X120786D01*
G01X116723Y299386D02*
X112077D01*
Y308598D01*
X116723D01*
Y299386D01*
G01X117723Y320386D02*
X113077D01*
Y329598D01*
X117723D01*
Y320386D01*
G01X130014Y319323D02*
Y314677D01*
X120802D01*
Y319323D01*
X130014D01*
G01X107077Y329614D02*
X111723D01*
Y320402D01*
X107077D01*
Y329614D01*
G01X111723Y330386D02*
X107077D01*
Y339598D01*
X111723D01*
Y330386D01*
G01X117723D02*
X113077D01*
Y339598D01*
X117723D01*
Y330386D01*
G01X137894Y29677D02*
Y34323D01*
X147106D01*
Y29677D01*
X137894D01*
G01X133323Y65894D02*
X128677D01*
Y75106D01*
X133323D01*
Y65894D01*
G01X141723Y103386D02*
X137077D01*
Y112598D01*
X141723D01*
Y103386D01*
G01X137386Y214477D02*
Y219123D01*
X146598D01*
Y214477D01*
X137386D01*
G01X128677Y223414D02*
X133323D01*
Y214202D01*
X128677D01*
Y223414D01*
G01Y233414D02*
X133323D01*
Y224202D01*
X128677D01*
Y233414D01*
G01X133786Y289677D02*
Y294323D01*
X142998D01*
Y289677D01*
X133786D01*
G01X144014Y346323D02*
Y341677D01*
X134802D01*
Y346323D01*
X144014D01*
G01X134786Y347677D02*
Y352323D01*
X143998D01*
Y347677D01*
X134786D01*
G01X148394Y29677D02*
Y34323D01*
X157606D01*
Y29677D01*
X148394D01*
G01X157823Y89894D02*
X153177D01*
Y99106D01*
X157823D01*
Y89894D01*
G01X150823D02*
X146177D01*
Y99106D01*
X150823D01*
Y89894D01*
G01X152677Y223414D02*
X157323D01*
Y214202D01*
X152677D01*
Y223414D01*
G01Y233414D02*
X157323D01*
Y224202D01*
X152677D01*
Y233414D01*
G01X159006Y262323D02*
Y257677D01*
X149794D01*
Y262323D01*
X159006D01*
G01Y267323D02*
Y262677D01*
X149794D01*
Y267323D01*
X159006D01*
G01X149786Y267677D02*
Y272323D01*
X158998D01*
Y267677D01*
X149786D01*
G01X159014Y277323D02*
Y272677D01*
X149802D01*
Y277323D01*
X159014D01*
G01X151723Y289386D02*
X147077D01*
Y298598D01*
X151723D01*
Y289386D01*
G01X156723D02*
X152077D01*
Y298598D01*
X156723D01*
Y289386D01*
G01Y299386D02*
X152077D01*
Y308598D01*
X156723D01*
Y299386D01*
G01X151723D02*
X147077D01*
Y308598D01*
X151723D01*
Y299386D01*
G01X150077Y329614D02*
X154723D01*
Y320402D01*
X150077D01*
Y329614D01*
G01X154723Y330386D02*
X150077D01*
Y339598D01*
X154723D01*
Y330386D01*
G01X158723Y354386D02*
X154077D01*
Y363598D01*
X158723D01*
Y354386D01*
G01X154077Y373614D02*
X158723D01*
Y364402D01*
X154077D01*
Y373614D01*
G01X162723Y103386D02*
X158077D01*
Y112598D01*
X162723D01*
Y103386D01*
G01X170177Y224606D02*
X174823D01*
Y215394D01*
X170177D01*
Y224606D01*
G01X155077Y329614D02*
X159723D01*
Y320402D01*
X155077D01*
Y329614D01*
G01Y339614D02*
X159723D01*
Y330402D01*
X155077D01*
Y339614D01*
G01X189723Y103386D02*
X185077D01*
Y112598D01*
X189723D01*
Y103386D01*
G01X184723D02*
X180077D01*
Y112598D01*
X184723D01*
Y103386D01*
G01X179823Y215394D02*
X175177D01*
Y224606D01*
X179823D01*
Y215394D01*
G01X184077Y268614D02*
X188723D01*
Y259402D01*
X184077D01*
Y268614D01*
G01X188723Y269386D02*
X184077D01*
Y278598D01*
X188723D01*
Y269386D01*
G01X186723Y289386D02*
X182077D01*
Y298598D01*
X186723D01*
Y289386D01*
G01X181723D02*
X177077D01*
Y298598D01*
X181723D01*
Y289386D01*
G01Y299386D02*
X177077D01*
Y308598D01*
X181723D01*
Y299386D01*
G01X186723D02*
X182077D01*
Y308598D01*
X186723D01*
Y299386D01*
G01X187723Y320386D02*
X183077D01*
Y329598D01*
X187723D01*
Y320386D01*
G01X177077Y329614D02*
X181723D01*
Y320402D01*
X177077D01*
Y329614D01*
G01X181723Y330386D02*
X177077D01*
Y339598D01*
X181723D01*
Y330386D01*
G01X186014Y347323D02*
Y342677D01*
X176802D01*
Y347323D01*
X186014D01*
G01X187723Y330386D02*
X183077D01*
Y339598D01*
X187723D01*
Y330386D01*
G01X211014Y156323D02*
Y151677D01*
X201802D01*
Y156323D01*
X211014D01*
G01Y190323D02*
Y185677D01*
X201802D01*
Y190323D01*
X211014D01*
G01Y176323D02*
Y171677D01*
X201802D01*
Y176323D01*
X211014D01*
G01Y201323D02*
Y196677D01*
X201802D01*
Y201323D01*
X211014D01*
G01X200014Y294323D02*
Y289677D01*
X190802D01*
Y294323D01*
X200014D01*
G01X190786Y308677D02*
Y313323D01*
X199998D01*
Y308677D01*
X190786D01*
G01X200014Y319323D02*
Y314677D01*
X190802D01*
Y319323D01*
X200014D01*
G01X226606Y88323D02*
Y83677D01*
X217394D01*
Y88323D01*
X226606D01*
G01X221323Y118394D02*
X216677D01*
Y127606D01*
X221323D01*
Y118394D01*
G01X216677Y137614D02*
X221323D01*
Y128402D01*
X216677D01*
Y137614D01*
G01X214386Y180677D02*
Y185323D01*
X223598D01*
Y180677D01*
X214386D01*
G01X223606Y194323D02*
Y189677D01*
X214394D01*
Y194323D01*
X223606D01*
G01X225606Y230323D02*
Y225677D01*
X216394D01*
Y230323D01*
X225606D01*
G01X221723Y289386D02*
X217077D01*
Y298598D01*
X221723D01*
Y289386D01*
G01X203786Y289677D02*
Y294323D01*
X212998D01*
Y289677D01*
X203786D01*
G01X221723Y299386D02*
X217077D01*
Y308598D01*
X221723D01*
Y299386D01*
G01X214014Y346323D02*
Y341677D01*
X204802D01*
Y346323D01*
X214014D01*
G01X204786Y347677D02*
Y352323D01*
X213998D01*
Y347677D01*
X204786D01*
G01X240614Y88323D02*
Y83677D01*
X231402D01*
Y88323D01*
X240614D01*
G01X222677Y127606D02*
X227323D01*
Y118394D01*
X222677D01*
Y127606D01*
G01Y137606D02*
X227323D01*
Y128394D01*
X222677D01*
Y137606D01*
G01X229006Y262323D02*
Y257677D01*
X219794D01*
Y262323D01*
X229006D01*
G01X219786Y267677D02*
Y272323D01*
X228998D01*
Y267677D01*
X219786D01*
G01X229014Y277323D02*
Y272677D01*
X219802D01*
Y277323D01*
X229014D01*
G01X226723Y289386D02*
X222077D01*
Y298598D01*
X226723D01*
Y289386D01*
G01Y299386D02*
X222077D01*
Y308598D01*
X226723D01*
Y299386D01*
G01X220077Y329614D02*
X224723D01*
Y320402D01*
X220077D01*
Y329614D01*
G01X225077D02*
X229723D01*
Y320402D01*
X225077D01*
Y329614D01*
G01Y339614D02*
X229723D01*
Y330402D01*
X225077D01*
Y339614D01*
G01X224723Y330386D02*
X220077D01*
Y339598D01*
X224723D01*
Y330386D01*
G01X228723Y354386D02*
X224077D01*
Y363598D01*
X228723D01*
Y354386D01*
G01X224077Y373614D02*
X228723D01*
Y364402D01*
X224077D01*
Y373614D01*
G01X247606Y194323D02*
Y189677D01*
X238394D01*
Y194323D01*
X247606D01*
G01X249606Y230323D02*
Y225677D01*
X240394D01*
Y230323D01*
X249606D01*
G01X251723Y289386D02*
X247077D01*
Y298598D01*
X251723D01*
Y289386D01*
G01Y299386D02*
X247077D01*
Y308598D01*
X251723D01*
Y299386D01*
G01X247077Y329614D02*
X251723D01*
Y320402D01*
X247077D01*
Y329614D01*
G01X256014Y347323D02*
Y342677D01*
X246802D01*
Y347323D01*
X256014D01*
G01X251723Y330386D02*
X247077D01*
Y339598D01*
X251723D01*
Y330386D01*
G01X262606Y88323D02*
Y83677D01*
X253394D01*
Y88323D01*
X262606D01*
G01X257323Y118386D02*
X252677D01*
Y127598D01*
X257323D01*
Y118386D01*
G01X258677Y127606D02*
X263323D01*
Y118394D01*
X258677D01*
Y127606D01*
G01Y137606D02*
X263323D01*
Y128394D01*
X258677D01*
Y137606D01*
G01X252677Y137614D02*
X257323D01*
Y128402D01*
X252677D01*
Y137614D01*
G01X262386Y180677D02*
Y185323D01*
X271598D01*
Y180677D01*
X262386D01*
G01X273614Y194323D02*
Y189677D01*
X264402D01*
Y194323D01*
X273614D01*
G01X273606Y230323D02*
Y225677D01*
X264394D01*
Y230323D01*
X273606D01*
G01X254077Y268614D02*
X258723D01*
Y259402D01*
X254077D01*
Y268614D01*
G01X258723Y269386D02*
X254077D01*
Y278598D01*
X258723D01*
Y269386D01*
G01X256723Y289386D02*
X252077D01*
Y298598D01*
X256723D01*
Y289386D01*
G01X270014Y294323D02*
Y289677D01*
X260802D01*
Y294323D01*
X270014D01*
G01X260786Y308677D02*
Y313323D01*
X269998D01*
Y308677D01*
X260786D01*
G01X256723Y299386D02*
X252077D01*
Y308598D01*
X256723D01*
Y299386D01*
G01X257723Y320386D02*
X253077D01*
Y329598D01*
X257723D01*
Y320386D01*
G01X270014Y319323D02*
Y314677D01*
X260802D01*
Y319323D01*
X270014D01*
G01X257723Y330386D02*
X253077D01*
Y339598D01*
X257723D01*
Y330386D01*
G01X276614Y88323D02*
Y83677D01*
X267402D01*
Y88323D01*
X276614D01*
G01X274386Y189677D02*
Y194323D01*
X283598D01*
Y189677D01*
X274386D01*
G01X283606Y230323D02*
Y225677D01*
X274394D01*
Y230323D01*
X283606D01*
G01X273786Y289677D02*
Y294323D01*
X282998D01*
Y289677D01*
X273786D01*
G01X284014Y346323D02*
Y341677D01*
X274802D01*
Y346323D01*
X284014D01*
G01X274786Y347677D02*
Y352323D01*
X283998D01*
Y347677D01*
X274786D01*
G01X298606Y88323D02*
Y83677D01*
X289394D01*
Y88323D01*
X298606D01*
G01X293823Y118394D02*
X289177D01*
Y127606D01*
X293823D01*
Y118394D01*
G01X294677Y127606D02*
X299323D01*
Y118394D01*
X294677D01*
Y127606D01*
G01Y137606D02*
X299323D01*
Y128394D01*
X294677D01*
Y137606D01*
G01X289177D02*
X293823D01*
Y128394D01*
X289177D01*
Y137606D01*
G01X295614Y194323D02*
Y189677D01*
X286402D01*
Y194323D01*
X295614D01*
G01X296386Y189677D02*
Y194323D01*
X305598D01*
Y189677D01*
X296386D01*
G01X305606Y230323D02*
Y225677D01*
X296394D01*
Y230323D01*
X305606D01*
G01X295606D02*
Y225677D01*
X286394D01*
Y230323D01*
X295606D01*
G01X299006Y262323D02*
Y257677D01*
X289794D01*
Y262323D01*
X299006D01*
G01Y267323D02*
Y262677D01*
X289794D01*
Y267323D01*
X299006D01*
G01X289786Y267677D02*
Y272323D01*
X298998D01*
Y267677D01*
X289786D01*
G01X299014Y277323D02*
Y272677D01*
X289802D01*
Y277323D01*
X299014D01*
G01X296723Y289386D02*
X292077D01*
Y298598D01*
X296723D01*
Y289386D01*
G01X291723D02*
X287077D01*
Y298598D01*
X291723D01*
Y289386D01*
G01X296723Y299386D02*
X292077D01*
Y308598D01*
X296723D01*
Y299386D01*
G01X291723D02*
X287077D01*
Y308598D01*
X291723D01*
Y299386D01*
G01X290077Y329614D02*
X294723D01*
Y320402D01*
X290077D01*
Y329614D01*
G01X295077D02*
X299723D01*
Y320402D01*
X295077D01*
Y329614D01*
G01Y339614D02*
X299723D01*
Y330402D01*
X295077D01*
Y339614D01*
G01X294723Y330386D02*
X290077D01*
Y339598D01*
X294723D01*
Y330386D01*
G01X298723Y354386D02*
X294077D01*
Y363598D01*
X298723D01*
Y354386D01*
G01X294077Y373614D02*
X298723D01*
Y364402D01*
X294077D01*
Y373614D01*
G01X312614Y88323D02*
Y83677D01*
X303402D01*
Y88323D01*
X312614D01*
G01X312606Y178323D02*
Y173677D01*
X303394D01*
Y178323D01*
X312606D01*
G01X317614Y194323D02*
Y189677D01*
X308402D01*
Y194323D01*
X317614D01*
G01X317606Y230323D02*
Y225677D01*
X308394D01*
Y230323D01*
X317606D01*
G01X311077Y271614D02*
X315723D01*
Y262402D01*
X311077D01*
Y271614D01*
G01X310077Y302614D02*
X314723D01*
Y293402D01*
X310077D01*
Y302614D01*
G01X314723Y283386D02*
X310077D01*
Y292598D01*
X314723D01*
Y283386D01*
G01X310786Y305677D02*
Y310323D01*
X319998D01*
Y305677D01*
X310786D01*
G01X310723Y341386D02*
X306077D01*
Y350598D01*
X310723D01*
Y341386D01*
G01Y352386D02*
X306077D01*
Y361598D01*
X310723D01*
Y352386D01*
G01X326386Y83677D02*
Y88323D01*
X335598D01*
Y83677D01*
X326386D01*
G01X318386Y189677D02*
Y194323D01*
X327598D01*
Y189677D01*
X318386D01*
G01X327606Y230323D02*
Y225677D01*
X318394D01*
Y230323D01*
X327606D01*
G01X320786Y319677D02*
Y324323D01*
X329998D01*
Y319677D01*
X320786D01*
G01X325077Y350614D02*
X329723D01*
Y341402D01*
X325077D01*
Y350614D01*
G01X347614Y88323D02*
Y83677D01*
X338402D01*
Y88323D01*
X347614D01*
G01X342394Y89677D02*
Y94323D01*
X351606D01*
Y89677D01*
X342394D01*
G01X351606Y100323D02*
Y95677D01*
X342394D01*
Y100323D01*
X351606D01*
G01Y106323D02*
Y101677D01*
X342394D01*
Y106323D01*
X351606D01*
G01Y112323D02*
Y107677D01*
X342394D01*
Y112323D01*
X351606D01*
G01X343606Y201323D02*
Y196677D01*
X334394D01*
Y201323D01*
X343606D01*
G01X343614Y194323D02*
Y189677D01*
X334402D01*
Y194323D01*
X343614D01*
G01X341614Y223323D02*
Y218677D01*
X332402D01*
Y223323D01*
X341614D01*
G01X340786Y319677D02*
Y324323D01*
X349998D01*
Y319677D01*
X340786D01*
G01X340014Y324323D02*
Y319677D01*
X330802D01*
Y324323D01*
X340014D01*
G01X340786Y362677D02*
Y367323D01*
X349998D01*
Y362677D01*
X340786D01*
G01X350323Y204386D02*
X345677D01*
Y213598D01*
X350323D01*
Y204386D01*
G01X349723Y261386D02*
X345077D01*
Y270598D01*
X349723D01*
Y261386D01*
G01X345077Y280614D02*
X349723D01*
Y271402D01*
X345077D01*
Y280614D01*
G01X349723Y283386D02*
X345077D01*
Y292598D01*
X349723D01*
Y283386D01*
G01X345077Y302614D02*
X349723D01*
Y293402D01*
X345077D01*
Y302614D01*
G01X349723Y342386D02*
X345077D01*
Y351598D01*
X349723D01*
Y342386D01*
G01Y352386D02*
X345077D01*
Y361598D01*
X349723D01*
Y352386D01*
G54D13*
G01X25333Y96032D02*
G03I-492J0D01*
G01X44892Y385496D02*
G03I-492J0D01*
G01X51506Y280811D02*
G03I-492J0D01*
G01X52120Y307854D02*
G03I-492J0D01*
G01X50924Y341327D02*
G03I-492J0D01*
G01X81042Y234575D02*
G03I-492J0D01*
G01X81861Y352673D02*
G03I-492J0D01*
G01X96582Y22812D02*
G03I-492J0D01*
G01X118728Y83500D02*
G03I-492J0D01*
G01X121506Y280811D02*
G03I-492J0D01*
G01X122120Y307854D02*
G03I-492J0D01*
G01X120924Y341327D02*
G03I-492J0D01*
G01X114892Y385496D02*
G03I-492J0D01*
G01X151779Y233963D02*
X134479D01*
Y219763D01*
X151779D01*
Y233963D01*
G01X148592Y235734D02*
G03I-492J0D01*
G01X151861Y352673D02*
G03I-492J0D01*
G01X184892Y385496D02*
G03I-492J0D01*
G01X189451Y208968D02*
G03I-492J0D01*
G01X191506Y280811D02*
G03I-492J0D01*
G01X192120Y307854D02*
G03I-492J0D01*
G01X190924Y341327D02*
G03I-492J0D01*
G01X221861Y352673D02*
G03I-492J0D01*
G01X243634Y76000D02*
G03I-492J0D01*
G01X238319Y115598D02*
G03I-492J0D01*
G01X241319Y222598D02*
G03I-492J0D01*
G01X263319D02*
G03I-492J0D01*
G01X261506Y280811D02*
G03I-492J0D01*
G01X262120Y307854D02*
G03I-492J0D01*
G01X260924Y341327D02*
G03I-492J0D01*
G01X254892Y385496D02*
G03I-492J0D01*
G01X279634Y76000D02*
G03I-492J0D01*
G01X274319Y115598D02*
G03I-492J0D01*
G01X285319Y222598D02*
G03I-492J0D01*
G01X291861Y352673D02*
G03I-492J0D01*
G01X310319Y115598D02*
G03I-492J0D01*
G01X307319Y222598D02*
G03I-492J0D01*
G01X322350Y76000D02*
G03I-492J0D01*
G01X315634D02*
G03I-492J0D01*
G01X318949Y82929D02*
G03I-492J0D01*
G01X329319Y222598D02*
G03I-492J0D01*
G01X317876Y312850D02*
G03I-492J0D01*
G01X320396Y312000D02*
G03I-492J0D01*
G01X326404Y334000D02*
G03I-492J0D01*
G01X324746Y361575D02*
G03I-492J0D01*
G01X327404Y370000D02*
G03I-492J0D01*
G01X341346Y113575D02*
G03I-492J0D01*
G01X331602Y202898D02*
G03I-492J0D01*
G01X343057Y260673D02*
G03I-492J0D01*
G01X342861Y282673D02*
G03I-492J0D01*
G01X332908Y353150D02*
G03I-492J0D01*
G01Y366150D02*
G03I-492J0D01*
G54D14*
G01X8600Y88834D02*
Y75434D01*
X16100D01*
Y88834D01*
X8600D01*
G01X8109Y229161D02*
X80550D01*
Y191957D01*
X8109D01*
Y229161D01*
G01X17250Y419150D02*
X19218Y417181D01*
Y395134D01*
X8982D01*
Y417181D01*
X10950Y419150D01*
X17250D01*
G01X14100Y408913D02*
X16462Y406551D01*
X11738D01*
X14100Y408913D01*
G01X16462D02*
X11738D01*
G01X18345Y71787D02*
X81337D01*
Y-10890D01*
X18345D01*
Y71787D01*
G01X77006Y102331D02*
X25038D01*
Y154299D01*
X77006D01*
Y102331D01*
G01X21415Y387315D02*
X60785D01*
Y426685D01*
X21415D01*
Y387315D01*
G01X14100Y411669D02*
Y402614D01*
G01X17478Y435740D02*
X64722D01*
G01X17478Y439677D02*
X64722D01*
G01X21415Y426685D02*
X13541D01*
Y435740D01*
X17478D01*
Y455425D01*
X23384D01*
Y485740D01*
X21415D01*
Y487709D01*
X23384D01*
Y502669D01*
X58816D01*
Y487709D01*
X60785D01*
Y485740D01*
X58816D01*
Y455425D01*
X64722D01*
Y435740D01*
X68659D01*
Y426685D01*
X60785D01*
G01X17478Y443614D02*
X64722D01*
G01X17478Y447551D02*
X64722D01*
G01X17478Y451488D02*
X64722D01*
G01X17478Y455425D02*
X64722D01*
G01X35600Y272834D02*
Y259434D01*
X43100D01*
Y272834D01*
X35600D01*
G01X38101Y381165D02*
X35739D01*
Y352425D01*
X38101D01*
G01X29289Y435740D02*
Y426685D01*
G01X57215Y259157D02*
Y278842D01*
X71585D01*
Y259157D01*
X57215D01*
G01X47566Y281200D02*
X60966D01*
Y288700D01*
X47566D01*
Y281200D01*
G01X57731Y295256D02*
X66392D01*
G01X57731Y307067D02*
X66392D01*
G01X56928Y320854D02*
Y340146D01*
X69132D01*
Y320854D01*
X56928D01*
G01X50566Y341200D02*
X63966D01*
Y348700D01*
X50566D01*
Y341200D01*
G01X50699Y381165D02*
X53061D01*
Y352425D01*
X50699D01*
G01X52911Y435740D02*
Y426685D01*
G01X76234Y288800D02*
X62834D01*
Y281300D01*
X76234D01*
Y288800D01*
G01X60566Y312200D02*
X73966D01*
Y319700D01*
X60566D01*
Y312200D01*
G01X75069Y373146D02*
Y353854D01*
X62471D01*
Y373146D01*
X75069D01*
G01X67628Y379968D02*
Y376032D01*
G01X68022Y378000D02*
X69991Y376032D01*
Y379968D01*
X68022Y378000D01*
X61723D01*
G01X69991D02*
X76684D01*
G01X71250Y419150D02*
X73218Y417181D01*
Y395134D01*
X62982D01*
Y417181D01*
X64950Y419150D01*
X71250D01*
G01X68100Y408913D02*
X70462Y406551D01*
X65738D01*
X68100Y408913D01*
G01Y411669D02*
Y402614D01*
G01X70462Y408913D02*
X65738D01*
G01X83491Y18580D02*
X94909D01*
Y16021D01*
X83491D01*
Y18580D01*
G01X82600Y88834D02*
Y75434D01*
X90100D01*
Y88834D01*
X82600D01*
G01X90600Y277834D02*
Y264434D01*
X98100D01*
Y277834D01*
X90600D01*
G01X79566Y279200D02*
X92966D01*
Y286700D01*
X79566D01*
Y279200D01*
G01X75566Y341200D02*
X88966D01*
Y348700D01*
X75566D01*
Y341200D01*
G01X87250Y419150D02*
X89218Y417181D01*
Y395134D01*
X78982D01*
Y417181D01*
X80950Y419150D01*
X87250D01*
G01X84100Y408913D02*
X86462Y406551D01*
X81738D01*
X84100Y408913D01*
G01Y411669D02*
Y402614D01*
G01X86462Y408913D02*
X81738D01*
G01X87478Y435740D02*
X134722D01*
G01X87478Y439677D02*
X134722D01*
G01X91415Y426685D02*
X83541D01*
Y435740D01*
X87478D01*
Y455425D01*
X93384D01*
Y485740D01*
X91415D01*
Y487709D01*
X93384D01*
Y502669D01*
X128816D01*
Y487709D01*
X130785D01*
Y485740D01*
X128816D01*
Y455425D01*
X134722D01*
Y435740D01*
X138659D01*
Y426685D01*
X130785D01*
G01X87478Y443614D02*
X134722D01*
G01X87478Y447551D02*
X134722D01*
G01X87478Y451488D02*
X134722D01*
G01X87478Y455425D02*
X134722D01*
G01X108200Y75166D02*
Y88566D01*
X100700D01*
Y75166D01*
X108200D01*
G01X105600Y272834D02*
Y259434D01*
X113100D01*
Y272834D01*
X105600D01*
G01X108101Y381165D02*
X105739D01*
Y352425D01*
X108101D01*
G01X91415Y387315D02*
X130785D01*
Y426685D01*
X91415D01*
Y387315D01*
G01X99289Y435740D02*
Y426685D01*
G01X132305Y47591D02*
Y-3590D01*
X112620D01*
Y47591D01*
X132305D01*
G01X132187Y16488D02*
X112502D01*
G01X150500Y78500D02*
X120500D01*
Y88500D01*
G01D02*
X160500D01*
Y78500D01*
X150500D01*
G01X114156Y202669D02*
X189746D01*
Y127079D01*
X114156D01*
Y202669D01*
G01X114166Y220000D02*
X127566D01*
Y227500D01*
X114166D01*
Y220000D01*
G01Y229000D02*
X127566D01*
Y236500D01*
X114166D01*
Y229000D01*
G01X117566Y281200D02*
X130966D01*
Y288700D01*
X117566D01*
Y281200D01*
G01X120566Y341200D02*
X133966D01*
Y348700D01*
X120566D01*
Y341200D01*
G01X120699Y381165D02*
X123061D01*
Y352425D01*
X120699D01*
G01X122911Y435740D02*
Y426685D01*
G01X156134Y37004D02*
X134992D01*
Y74996D01*
G01X134933Y52850D02*
X132571D01*
Y49307D01*
X134933D01*
G01Y62299D02*
X132571D01*
Y58756D01*
X134933D01*
G01X156154Y75055D02*
X135012D01*
G01X127215Y259157D02*
Y278842D01*
X141585D01*
Y259157D01*
X127215D01*
G01X146234Y288800D02*
X132834D01*
Y281300D01*
X146234D01*
Y288800D01*
G01X127731Y295256D02*
X136392D01*
G01X130566Y312200D02*
X143966D01*
Y319700D01*
X130566D01*
Y312200D01*
G01X127731Y307067D02*
X136392D01*
G01X126928Y320854D02*
Y340146D01*
X139132D01*
Y320854D01*
X126928D01*
G01X145069Y373146D02*
Y353854D01*
X132471D01*
Y373146D01*
X145069D01*
G01X137628Y379968D02*
Y376032D01*
G01X138022Y378000D02*
X139991Y376032D01*
Y379968D01*
X138022Y378000D01*
X131723D01*
G01X141250Y419150D02*
X143218Y417181D01*
Y395134D01*
X132982D01*
Y417181D01*
X134950Y419150D01*
X141250D01*
G01X138100Y408913D02*
X140462Y406551D01*
X135738D01*
X138100Y408913D01*
G01Y411669D02*
Y402614D01*
G01X140462Y408913D02*
X135738D01*
G01X145850Y6307D02*
Y-3339D01*
X150377D01*
Y6307D01*
G01X140240Y28551D02*
X155988D01*
Y6307D01*
X140240D01*
Y28551D01*
G01X149566Y279200D02*
X162966D01*
Y286700D01*
X149566D01*
Y279200D01*
G01X145566Y341200D02*
X158966D01*
Y348700D01*
X145566D01*
Y341200D01*
G01X139991Y378000D02*
X146684D01*
G01X157250Y419150D02*
X159218Y417181D01*
Y395134D01*
X148982D01*
Y417181D01*
X150950Y419150D01*
X157250D01*
G01X154100Y408913D02*
X156462Y406551D01*
X151738D01*
X154100Y408913D01*
G01Y411669D02*
Y402614D01*
G01X156462Y408913D02*
X151738D01*
G01X161415Y426685D02*
X153541D01*
Y435740D01*
X157478D01*
Y455425D01*
X163384D01*
Y485740D01*
X161415D01*
Y487709D01*
X163384D01*
Y502669D01*
X198816D01*
Y487709D01*
X200785D01*
Y485740D01*
X198816D01*
Y455425D01*
X204722D01*
Y435740D01*
X208659D01*
Y426685D01*
X200785D01*
G01X161646Y37004D02*
X164008D01*
Y74996D01*
X161646D01*
G01X164067Y59543D02*
X168004D01*
Y52457D01*
X164067D01*
G01X160600Y277834D02*
Y264434D01*
X168100D01*
Y277834D01*
X160600D01*
G01X161415Y387315D02*
X200785D01*
Y426685D01*
X161415D01*
Y387315D01*
G01X169289Y435740D02*
Y426685D01*
G01X157478Y435740D02*
X204722D01*
G01X157478Y439677D02*
X204722D01*
G01X157478Y443614D02*
X204722D01*
G01X157478Y447551D02*
X204722D01*
G01X157478Y451488D02*
X204722D01*
G01X157478Y455425D02*
X204722D01*
G01X175600Y272834D02*
Y259434D01*
X183100D01*
Y272834D01*
X175600D01*
G01X178101Y381165D02*
X175739D01*
Y352425D01*
X178101D01*
G01X197215Y259157D02*
Y278842D01*
X211585D01*
Y259157D01*
X197215D01*
G01X187566Y281200D02*
X200966D01*
Y288700D01*
X187566D01*
Y281200D01*
G01X197731Y295256D02*
X206392D01*
G01X200566Y312200D02*
X213966D01*
Y319700D01*
X200566D01*
Y312200D01*
G01X197731Y307067D02*
X206392D01*
G01X196928Y320854D02*
Y340146D01*
X209132D01*
Y320854D01*
X196928D01*
G01X190566Y341200D02*
X203966D01*
Y348700D01*
X190566D01*
Y341200D01*
G01X190699Y381165D02*
X193061D01*
Y352425D01*
X190699D01*
G01X208022Y378000D02*
X209991Y376032D01*
Y379968D01*
X208022Y378000D01*
X201723D01*
G01X192911Y435740D02*
Y426685D01*
G01X238811Y69701D02*
X215189D01*
G01X238811Y82299D02*
X215189D01*
G01X217354Y107528D02*
Y98472D01*
G01X241780Y150126D02*
Y144220D01*
X214220D01*
Y150126D01*
G01X241780Y165874D02*
Y171780D01*
X214220D01*
Y165874D01*
G01X216234Y288800D02*
X202834D01*
Y281300D01*
X216234D01*
Y288800D01*
G01X215566Y341200D02*
X228966D01*
Y348700D01*
X215566D01*
Y341200D01*
G01X215069Y373146D02*
Y353854D01*
X202471D01*
Y373146D01*
X215069D01*
G01X207628Y379968D02*
Y376032D01*
G01X209991Y378000D02*
X216684D01*
G01X211250Y419150D02*
X213218Y417181D01*
Y395134D01*
X202982D01*
Y417181D01*
X204950Y419150D01*
X211250D01*
G01X208100Y408913D02*
X210462Y406551D01*
X205738D01*
X208100Y408913D01*
G01Y411669D02*
Y402614D01*
G01X210462Y408913D02*
X205738D01*
G01X230850Y118850D02*
X228882Y120819D01*
Y142866D01*
X239118D01*
Y120819D01*
X237150Y118850D01*
X230850D01*
G01X234000Y129087D02*
X231638Y131449D01*
X236362D01*
X234000Y129087D01*
G01X231638D02*
X236362D01*
G01X224756Y172850D02*
X219244D01*
G01X224756Y179150D02*
X219244D01*
G01X224300Y188200D02*
X237700D01*
Y195700D01*
X224300D01*
Y188200D01*
G01X220354Y216299D02*
X239646D01*
Y203701D01*
X220354D01*
Y216299D01*
G01X226300Y225200D02*
X239700D01*
Y232700D01*
X226300D01*
Y225200D01*
G01X230600Y277834D02*
Y264434D01*
X238100D01*
Y277834D01*
X230600D01*
G01X219566Y279200D02*
X232966D01*
Y286700D01*
X219566D01*
Y279200D01*
G01X231415Y387315D02*
X270785D01*
Y426685D01*
X231415D01*
Y387315D01*
G01X227250Y419150D02*
X229218Y417181D01*
Y395134D01*
X218982D01*
Y417181D01*
X220950Y419150D01*
X227250D01*
G01X224100Y408913D02*
X226462Y406551D01*
X221738D01*
X224100Y408913D01*
G01Y411669D02*
Y402614D01*
G01X226462Y408913D02*
X221738D01*
G01X227478Y435740D02*
X274722D01*
G01X227478Y439677D02*
X274722D01*
G01X231415Y426685D02*
X223541D01*
Y435740D01*
X227478D01*
Y455425D01*
X233384D01*
Y485740D01*
X231415D01*
Y487709D01*
X233384D01*
Y502669D01*
X268816D01*
Y487709D01*
X270785D01*
Y485740D01*
X268816D01*
Y455425D01*
X274722D01*
Y435740D01*
X278659D01*
Y426685D01*
X270785D01*
G01X227478Y443614D02*
X274722D01*
G01X227478Y447551D02*
X274722D01*
G01X227478Y451488D02*
X274722D01*
G01X227478Y455425D02*
X274722D01*
G01X234909Y29134D02*
Y7992D01*
X261091D01*
Y29134D01*
G01X241701Y7933D02*
Y5571D01*
X245244D01*
Y7933D01*
G01X261091Y34646D02*
Y37008D01*
X234909D01*
Y34646D01*
G01X244457Y37067D02*
Y41004D01*
X251543D01*
Y37067D01*
G01X236646Y107528D02*
Y98472D01*
G01X234000Y126331D02*
Y135386D01*
G01X248300Y188200D02*
X261700D01*
Y195700D01*
X248300D01*
Y188200D01*
G01X242354Y216299D02*
X261646D01*
Y203701D01*
X242354D01*
Y216299D01*
G01X245600Y272834D02*
Y259434D01*
X253100D01*
Y272834D01*
X245600D01*
G01X248101Y381165D02*
X245739D01*
Y352425D01*
X248101D01*
G01X239289Y435740D02*
Y426685D01*
G01X251150Y7933D02*
Y5571D01*
X254693D01*
Y7933D01*
G01X274811Y69701D02*
X251189D01*
G01X274811Y82299D02*
X251189D01*
G01X253354Y107528D02*
Y98472D01*
G01X266850Y118850D02*
X264882Y120819D01*
Y142866D01*
X275118D01*
Y120819D01*
X273150Y118850D01*
X266850D01*
G01X277780Y150126D02*
Y144220D01*
X250220D01*
Y150126D01*
G01X277780Y165874D02*
Y171780D01*
X250220D01*
Y165874D01*
G01X264354Y216299D02*
X283646D01*
Y203701D01*
X264354D01*
Y216299D01*
G01X250300Y225200D02*
X263700D01*
Y232700D01*
X250300D01*
Y225200D01*
G01X257566Y281200D02*
X270966D01*
Y288700D01*
X257566D01*
Y281200D01*
G01X260566Y341200D02*
X273966D01*
Y348700D01*
X260566D01*
Y341200D01*
G01X260699Y381165D02*
X263061D01*
Y352425D01*
X260699D01*
G01X262911Y435740D02*
Y426685D01*
G01X272646Y107528D02*
Y98472D01*
G01X270000Y129087D02*
X267638Y131449D01*
X272362D01*
X270000Y129087D01*
G01X267638D02*
X272362D01*
G01X270000Y126331D02*
Y135386D01*
G01X272654Y172850D02*
X267142D01*
G01X272654Y179150D02*
X267142D01*
G01X270300Y231200D02*
X283700D01*
Y238700D01*
X270300D01*
Y231200D01*
G01X267215Y259157D02*
Y278842D01*
X281585D01*
Y259157D01*
X267215D01*
G01X286234Y288800D02*
X272834D01*
Y281300D01*
X286234D01*
Y288800D01*
G01X267731Y295256D02*
X276392D01*
G01X270566Y312200D02*
X283966D01*
Y319700D01*
X270566D01*
Y312200D01*
G01X267731Y307067D02*
X276392D01*
G01X266928Y320854D02*
Y340146D01*
X279132D01*
Y320854D01*
X266928D01*
G01X285069Y373146D02*
Y353854D01*
X272471D01*
Y373146D01*
X285069D01*
G01X277628Y379968D02*
Y376032D01*
G01X278022Y378000D02*
X279991Y376032D01*
Y379968D01*
X278022Y378000D01*
X271723D01*
G01X279991D02*
X286684D01*
G01X281250Y419150D02*
X283218Y417181D01*
Y395134D01*
X272982D01*
Y417181D01*
X274950Y419150D01*
X281250D01*
G01X278100Y408913D02*
X280462Y406551D01*
X275738D01*
X278100Y408913D01*
G01Y411669D02*
Y402614D01*
G01X280462Y408913D02*
X275738D01*
G01X310811Y69701D02*
X287189D01*
G01X310811Y82299D02*
X287189D01*
G01X289354Y107528D02*
Y98472D01*
G01X313780Y150126D02*
Y144220D01*
X286220D01*
Y150126D01*
G01X313780Y165874D02*
Y171780D01*
X286220D01*
Y165874D01*
G01X296756Y172850D02*
X291244D01*
G01X296756Y179150D02*
X291244D01*
G01X286354Y216299D02*
X305646D01*
Y203701D01*
X286354D01*
Y216299D01*
G01X292300Y231200D02*
X305700D01*
Y238700D01*
X292300D01*
Y231200D01*
G01X289566Y279200D02*
X302966D01*
Y286700D01*
X289566D01*
Y279200D01*
G01X285566Y341200D02*
X298966D01*
Y348700D01*
X285566D01*
Y341200D01*
G01X295509Y435307D02*
X346691D01*
Y482551D01*
G03X344328Y484913I-2362J0D01*
G01X297872D01*
G03X295509Y482551I0J-2362D01*
G01Y435307D01*
X291572D01*
Y429795D01*
X295509D01*
Y421921D01*
X346691D01*
Y429795D01*
X350628D01*
Y435307D01*
X346691D01*
G01Y429795D02*
X295509D01*
G01X308646Y107528D02*
Y98472D01*
G01X302850Y118850D02*
X300882Y120819D01*
Y142866D01*
X311118D01*
Y120819D01*
X309150Y118850D01*
X302850D01*
G01X306000Y129087D02*
X303638Y131449D01*
X308362D01*
X306000Y129087D01*
G01X303638D02*
X308362D01*
G01X306000Y126331D02*
Y135386D01*
G01X308354Y216299D02*
X327646D01*
Y203701D01*
X308354D01*
Y216299D01*
G01X300600Y277834D02*
Y264434D01*
X308100D01*
Y277834D01*
X300600D01*
G01X313054Y325449D02*
Y314032D01*
X310691D01*
Y325449D01*
X313054D01*
G01X311656Y355866D02*
Y346811D01*
G01X340785Y394362D02*
G03I-19685J0D01*
G01X310470Y410898D02*
Y421921D01*
G01X326189Y69701D02*
X349811D01*
G01X325150Y89032D02*
X318850D01*
G01X325150Y88244D02*
X318850D01*
G01X325150Y87457D02*
X318850D01*
G01X325150Y85685D02*
Y96315D01*
G01X318850Y85685D02*
Y96315D01*
G01X326189Y82299D02*
X349811D01*
G01X318200Y114700D02*
Y101300D01*
X325700D01*
Y114700D01*
X318200D01*
G01X328256Y107866D02*
Y98811D01*
G01X322220Y122126D02*
Y116220D01*
X349780D01*
Y122126D01*
G01X322220Y137874D02*
Y143780D01*
X349780D01*
Y137874D01*
G01X322220Y152126D02*
Y146220D01*
X349780D01*
Y152126D01*
G01X322220Y167874D02*
Y173780D01*
X349780D01*
Y167874D01*
G01X314300Y231200D02*
X327700D01*
Y238700D01*
X314300D01*
Y231200D01*
G01X335872Y281146D02*
Y261854D01*
X324061D01*
Y281146D01*
X335872D01*
G01X336069Y303146D02*
Y283854D01*
X323471D01*
Y303146D01*
X336069D01*
G01X324235Y305701D02*
X347857D01*
G01X314691Y339315D02*
Y328685D01*
G01X324235Y318299D02*
X347857D01*
G01X323467Y355866D02*
Y346811D01*
G01X315691Y375315D02*
Y364685D01*
G01X326218Y413260D02*
Y421921D01*
G01X315982Y413260D02*
Y421921D01*
G01X340067Y107866D02*
Y98811D01*
G01X336300Y175200D02*
X349700D01*
Y182700D01*
X336300D01*
Y175200D01*
G01X343709Y208016D02*
X332291D01*
Y209984D01*
X343709D01*
Y208016D01*
G01X331166Y224200D02*
X344566D01*
Y231700D01*
X331166D01*
Y224200D01*
G01X331935Y261854D02*
X335872Y265791D01*
G01X332723Y261854D02*
X335872Y265004D01*
G01X333510Y261854D02*
X335872Y264216D01*
G01X334298Y261854D02*
X335872Y263429D01*
G01X335085Y261854D02*
X335872Y262642D01*
G01X336648Y340551D02*
Y351968D01*
X339207D01*
Y340551D01*
X336648D01*
G01Y353551D02*
Y364968D01*
X339207D01*
Y353551D01*
X336648D01*
G01X331730Y410898D02*
Y421921D01*
G54D15*
G01X10977Y246110D02*
X11447Y245375D01*
X12073Y244955D01*
X12778Y244850D01*
X13405Y244955D01*
X14032Y245480D01*
X14423Y246110D01*
X14502Y246740D01*
X14345Y247475D01*
X13797Y248000D01*
X13248Y248210D01*
X12543D01*
G01X13248D02*
X13718Y248525D01*
X14110Y249050D01*
X14267Y249680D01*
X14110Y250310D01*
X13718Y250835D01*
X13013Y251150D01*
X12308Y251045D01*
X11603Y250625D01*
G01X17042Y251150D02*
X19000Y244850D01*
X20958Y251150D01*
G01X23577Y246110D02*
X24047Y245375D01*
X24673Y244955D01*
X25378Y244850D01*
X26005Y244955D01*
X26632Y245480D01*
X27023Y246110D01*
X27102Y246740D01*
X26945Y247475D01*
X26397Y248000D01*
X25848Y248210D01*
X25143D01*
G01X25848D02*
X26318Y248525D01*
X26710Y249050D01*
X26867Y249680D01*
X26710Y250310D01*
X26318Y250835D01*
X25613Y251150D01*
X24908Y251045D01*
X24203Y250625D01*
G01X11127Y259795D02*
X11597Y259270D01*
X12145Y258955D01*
X12850Y258850D01*
X13555Y259060D01*
X14103Y259480D01*
X14495Y260215D01*
X14573Y261055D01*
X14417Y261895D01*
X14025Y262420D01*
X13477Y262840D01*
X12928Y262945D01*
X12380Y262840D01*
X11675Y262420D01*
X11910Y265150D01*
X14025D01*
G01X17192D02*
X19150Y258850D01*
X21108Y265150D01*
G01X8977Y277110D02*
X9447Y276375D01*
X10073Y275955D01*
X10778Y275850D01*
X11405Y275955D01*
X12032Y276480D01*
X12423Y277110D01*
X12502Y277740D01*
X12345Y278475D01*
X11797Y279000D01*
X11248Y279210D01*
X10543D01*
G01X11248D02*
X11718Y279525D01*
X12110Y280050D01*
X12267Y280680D01*
X12110Y281310D01*
X11718Y281835D01*
X11013Y282150D01*
X10308Y282045D01*
X9603Y281625D01*
G01X15042Y282150D02*
X17000Y275850D01*
X18958Y282150D01*
G01X21577Y277110D02*
X22047Y276375D01*
X22673Y275955D01*
X23378Y275850D01*
X24005Y275955D01*
X24632Y276480D01*
X25023Y277110D01*
X25102Y277740D01*
X24945Y278475D01*
X24397Y279000D01*
X23848Y279210D01*
X23143D01*
G01X23848D02*
X24318Y279525D01*
X24710Y280050D01*
X24867Y280680D01*
X24710Y281310D01*
X24318Y281835D01*
X23613Y282150D01*
X22908Y282045D01*
X22203Y281625D01*
G01X12127Y299795D02*
X12597Y299270D01*
X13145Y298955D01*
X13850Y298850D01*
X14555Y299060D01*
X15103Y299480D01*
X15495Y300215D01*
X15573Y301055D01*
X15417Y301895D01*
X15025Y302420D01*
X14477Y302840D01*
X13928Y302945D01*
X13380Y302840D01*
X12675Y302420D01*
X12910Y305150D01*
X15025D01*
G01X18192D02*
X20150Y298850D01*
X22108Y305150D01*
G01X8682Y333950D02*
X10718D01*
G01X14277Y332795D02*
X14747Y332270D01*
X15295Y331955D01*
X16000Y331850D01*
X16705Y332060D01*
X17253Y332480D01*
X17645Y333215D01*
X17723Y334055D01*
X17567Y334895D01*
X17175Y335420D01*
X16627Y335840D01*
X16078Y335945D01*
X15530Y335840D01*
X14825Y335420D01*
X15060Y338150D01*
X17175D01*
G01X20342D02*
X22300Y331850D01*
X24258Y338150D01*
G01X9212Y377100D02*
X9682Y377730D01*
X10230Y378045D01*
X10857Y378150D01*
X11640Y377940D01*
X12188Y377415D01*
X12345Y376785D01*
X12267Y376155D01*
X11953Y375630D01*
X10387Y374580D01*
X9682Y373845D01*
X9212Y372795D01*
X9055Y371850D01*
X12345D01*
G01X17000Y378150D02*
X16373Y377940D01*
X15903Y377415D01*
X15590Y376785D01*
X15355Y375945D01*
X15277Y375000D01*
X15355Y374055D01*
X15590Y373215D01*
X15903Y372585D01*
X16373Y372060D01*
X17000Y371850D01*
X17627Y372060D01*
X18097Y372585D01*
X18410Y373215D01*
X18645Y374055D01*
X18723Y375000D01*
X18645Y375945D01*
X18410Y376785D01*
X18097Y377415D01*
X17627Y377940D01*
X17000Y378150D01*
G01X21342D02*
X23300Y371850D01*
X25258Y378150D01*
G01X107477Y62110D02*
X107947Y61375D01*
X108573Y60955D01*
X109278Y60850D01*
X109905Y60955D01*
X110532Y61480D01*
X110923Y62110D01*
X111002Y62740D01*
X110845Y63475D01*
X110297Y64000D01*
X109748Y64210D01*
X109043D01*
G01X109748D02*
X110218Y64525D01*
X110610Y65050D01*
X110767Y65680D01*
X110610Y66310D01*
X110218Y66835D01*
X109513Y67150D01*
X108808Y67045D01*
X108103Y66625D01*
G01X113542Y67150D02*
X115500Y60850D01*
X117458Y67150D01*
G01X120077Y62110D02*
X120547Y61375D01*
X121173Y60955D01*
X121878Y60850D01*
X122505Y60955D01*
X123132Y61480D01*
X123523Y62110D01*
X123602Y62740D01*
X123445Y63475D01*
X122897Y64000D01*
X122348Y64210D01*
X121643D01*
G01X122348D02*
X122818Y64525D01*
X123210Y65050D01*
X123367Y65680D01*
X123210Y66310D01*
X122818Y66835D01*
X122113Y67150D01*
X121408Y67045D01*
X120703Y66625D01*
G54D16*
G01X58400Y254000D02*
X27400D01*
Y307900D01*
G01X58400Y385000D02*
X27400D01*
Y339100D01*
G54D17*
G01X29565Y105874D02*
G03I-984J0D01*
G01X62136Y274906D02*
G03I-984J0D01*
G01X77597Y225224D02*
G03I-984J0D01*
G01X72116Y357791D02*
G03I-984J0D01*
G01X132136Y274906D02*
G03I-984J0D01*
G01X142116Y357791D02*
G03I-984J0D01*
G01X187187Y199126D02*
G03I-984J0D01*
G01X202136Y274906D02*
G03I-984J0D01*
G01X212116Y357791D02*
G03I-984J0D01*
G01X236693Y212362D02*
G03I-984J0D01*
G01X258693D02*
G03I-984J0D01*
G01X280693D02*
G03I-984J0D01*
G01X272136Y274906D02*
G03I-984J0D01*
G01X282116Y357791D02*
G03I-984J0D01*
G01X302693Y212362D02*
G03I-984J0D01*
G01X324693D02*
G03I-984J0D01*
G01X333116Y287791D02*
G03I-984J0D01*
M02*
