G04 ================== begin FILE IDENTIFICATION RECORD ==================*
G04 Layout Name:  E:/material/lool Inds Vibration/hardware/v1.0/pcb/vibration.brd*
G04 Film Name:    BOTTOM*
G04 File Format:  Gerber RS274X*
G04 File Origin:  Cadence Allegro 16.6-2015-S065*
G04 Origin Date:  Fri May 06 18:24:12 2016*
G04 *
G04 Layer:  ETCH/BOTTOM*
G04 Layer:  PIN/BOTTOM*
G04 Layer:  VIA CLASS/BOTTOM*
G04 *
G04 Offset:    (0.000 0.000)*
G04 Mirror:    No*
G04 Mode:      Positive*
G04 Rotation:  0*
G04 FullContactRelief:  No*
G04 UndefLineWidth:     1.000*
G04 ================== end FILE IDENTIFICATION RECORD ====================*
%FSLAX25Y25*MOIN*%
%IR0*IPPOS*OFA0.00000B0.00000*MIA0B0*SFA1.00000B1.00000*%
%ADD13C,.138189*%
%ADD10C,.251969*%
%ADD12P,.063921X8X22.5*%
%ADD11C,.016*%
%ADD25R,.02126X.035433*%
%ADD18R,.035433X.02126*%
%ADD15C,.059055*%
%ADD21C,.033858*%
%ADD14C,.070866*%
%ADD24C,.098425*%
%ADD19C,.062992*%
%ADD23C,.039764*%
%ADD20R,.059055X.059055*%
%ADD17C,.094488*%
%ADD16R,.070866X.070866*%
%ADD22R,.062992X.062992*%
%ADD26C,.008*%
%ADD27C,.015*%
G75*
%LPD*%
G75*
G36*
G01X6455Y864D02*
G02X200Y10000I3545J9136D01*
G01Y417000D01*
G02X6455Y426136I9800J0D01*
G02X7000Y425763I145J-373D01*
G01Y409282D01*
X6997Y409265D01*
G03Y404735I13003J-2265D01*
G01X7000Y404718D01*
Y78597D01*
G03Y75603I1000J-1497D01*
G01Y22282D01*
X6997Y22265D01*
G03Y17735I13003J-2265D01*
G01X7000Y17718D01*
Y1237D01*
G02X6455Y864I-400J0D01*
G37*
G36*
G01X427000Y1237D02*
Y17718D01*
X427003Y17735D01*
G03Y22265I-13003J2265D01*
G01X427000Y22282D01*
Y404718D01*
X427003Y404735D01*
G03Y409265I-13003J2265D01*
G01X427000Y409282D01*
Y425763D01*
G02X427545Y426136I400J0D01*
G02X433800Y417000I-3545J-9136D01*
G01Y10000D01*
G02X427545Y864I-9800J0D01*
G02X427000Y1237I-145J373D01*
G37*
G54D10*
X20000Y20000D03*
Y407000D03*
X414000Y20000D03*
Y407000D03*
G54D20*
X188000Y23654D03*
Y33654D03*
Y43654D03*
X309000Y14000D03*
Y55000D03*
G54D11*
X4566Y18412D03*
Y38412D03*
Y58412D03*
X8000Y77100D03*
X4566Y78412D03*
X14200Y92400D03*
X5100Y95900D03*
X11000Y87000D03*
X3700Y103500D03*
Y111100D03*
X9000Y114300D03*
X5700Y119400D03*
X11016Y121216D03*
X4566Y138412D03*
Y158412D03*
Y178412D03*
Y198412D03*
Y218412D03*
Y238412D03*
Y258412D03*
Y278412D03*
Y298412D03*
Y318412D03*
Y338412D03*
Y358412D03*
Y378412D03*
Y398412D03*
Y418412D03*
X31716Y69984D03*
X24000Y72900D03*
X15000Y74200D03*
X23600Y96200D03*
X18843Y99400D03*
X26500Y102400D03*
X30200Y121800D03*
X30540Y128740D03*
X21000Y121200D03*
X16300Y138000D03*
X30000Y242000D03*
Y256000D03*
Y273000D03*
Y296000D03*
Y329000D03*
Y369000D03*
X33000Y73800D03*
X42300Y77600D03*
X36000Y117100D03*
X35700Y109700D03*
X33242Y138158D03*
X35400Y135600D03*
X45944Y165144D03*
X40000Y164700D03*
X47000Y168000D03*
X40100Y167800D03*
X43300Y168400D03*
X41000Y171200D03*
X45900Y175300D03*
X47606Y226800D03*
X60886Y91800D03*
X64914D03*
X53905Y93506D03*
X51800Y116504D03*
X58714Y110100D03*
X54686D03*
X52000Y120441D03*
X53905Y141300D03*
X65900Y152800D03*
X59000Y168000D03*
X51100Y164000D03*
X56800Y174900D03*
X50756Y194200D03*
X57055Y194500D03*
X53905Y194100D03*
X59900Y194700D03*
X63354Y194654D03*
X55738Y209430D03*
X54400Y207200D03*
X57700Y223900D03*
X60500Y224600D03*
X65594Y226413D03*
X63094Y224781D03*
X60900Y243400D03*
X54132Y270268D03*
X61137Y265863D03*
X56216Y306984D03*
X56100Y328000D03*
Y345000D03*
X71187Y77500D03*
X82000Y90600D03*
X75200Y91400D03*
X67900Y91926D03*
X78500Y92700D03*
X82000Y83848D03*
X67685Y104900D03*
X82000Y125700D03*
X81113Y142313D03*
X75500Y150200D03*
X81876Y151700D03*
X73700Y165400D03*
X75841Y163924D03*
X77403Y152244D03*
X68400Y163400D03*
X79496Y166159D03*
X75000Y168400D03*
X71200Y177000D03*
Y171800D03*
X78600Y177000D03*
X72700Y194200D03*
X69800Y194100D03*
X75900D03*
X79200Y193000D03*
X66504Y194696D03*
X76200Y226500D03*
X73000Y226200D03*
X79200Y227700D03*
X69800Y226100D03*
X82300Y248500D03*
X71600Y238100D03*
X79900Y251700D03*
X69800Y260043D03*
X79168Y265161D03*
X78720Y270280D03*
X78120Y267720D03*
X82400Y285000D03*
X79239Y272839D03*
X69116Y299861D03*
X70732Y289716D03*
X69441Y302441D03*
X80676Y298135D03*
X82676D03*
X80676Y300135D03*
X82676D03*
X80676Y302135D03*
X82676D03*
X80676Y304135D03*
X82676D03*
X82700Y292000D03*
X74622Y320322D03*
X70100Y311000D03*
X79000Y313800D03*
X81960Y324607D03*
X78960D03*
X81960Y336607D03*
X78960D03*
X81960Y333607D03*
X78960D03*
X81960Y330607D03*
X78960D03*
X81960Y327607D03*
X78960D03*
X82000Y349500D03*
X69500Y345000D03*
X89328Y73400D03*
X85300D03*
X95000Y89900D03*
X100000Y83500D03*
X95000Y83300D03*
X93200Y112800D03*
X95703Y115400D03*
X95600Y111000D03*
X93815Y109110D03*
X93400Y117100D03*
X90500Y110600D03*
X87500Y121700D03*
X90000Y117500D03*
X95500Y127964D03*
X92604Y130164D03*
X87300Y118100D03*
X94847Y132364D03*
X92400Y127500D03*
X84685Y150139D03*
X93300Y149085D03*
X90196Y147598D03*
X95100Y140390D03*
X91199Y134434D03*
X93471Y138364D03*
X96013Y143087D03*
X90500Y137700D03*
X90300Y145000D03*
X91302Y150748D03*
X87618Y149652D03*
X94877Y151154D03*
X86500Y152000D03*
X90863Y153311D03*
X95263Y153748D03*
X88600Y193700D03*
X89100Y273800D03*
X90000Y277612D03*
X88300Y270954D03*
X94284Y289716D03*
X95882Y299882D03*
X84676Y298135D03*
Y300135D03*
Y302135D03*
Y304135D03*
X99000Y311300D03*
X96300Y316000D03*
X99000Y338000D03*
X84960Y324607D03*
X87960D03*
Y336607D03*
X84960D03*
X87960Y333607D03*
X84960D03*
X87960Y330607D03*
X84960D03*
X87960Y327607D03*
X84960D03*
X95300Y344000D03*
X87000Y347000D03*
X95400Y350000D03*
X98732Y349768D03*
X95649Y366000D03*
X110984Y69984D03*
X107000Y81100D03*
X112000Y106800D03*
X111500Y143200D03*
X108609Y140100D03*
X116700Y148100D03*
X110300Y178000D03*
X110900Y171137D03*
X111200Y185000D03*
X107560Y195577D03*
X106700Y192700D03*
X110300Y193800D03*
X109600Y201795D03*
X107096Y198504D03*
X110900Y190000D03*
X109874Y210595D03*
X109700Y206195D03*
X107998Y212947D03*
X109600Y214995D03*
X108134Y204066D03*
X108071Y208529D03*
X113570Y217324D03*
X115600Y215700D03*
X110900Y217300D03*
X115000Y262800D03*
X101239Y265161D03*
X101028Y278022D03*
X116100Y283000D03*
X110994Y275268D03*
X105200Y318000D03*
X111800Y328000D03*
X111500Y345000D03*
X104000Y422500D03*
X121300Y77000D03*
X132000Y83400D03*
X129200Y97644D03*
X127200Y95300D03*
X126900Y99900D03*
X130400Y93100D03*
X128200Y90800D03*
X129000Y87000D03*
X125011Y104000D03*
X123400Y106200D03*
X117511Y109511D03*
X124011Y129000D03*
X117550Y122450D03*
X133500Y124600D03*
X122327Y152000D03*
X117500Y185000D03*
X117400Y178000D03*
X118000Y170000D03*
X117300Y189900D03*
X117900Y195000D03*
X133000Y202000D03*
X120498Y215498D03*
X130000Y205000D03*
X118100Y216700D03*
X125000Y262000D03*
Y273988D03*
X126400Y306984D03*
X126600Y328000D03*
X126000Y345000D03*
X151000Y87000D03*
X136516Y105016D03*
X148216D03*
X149913Y132900D03*
X137639Y118181D03*
X142039Y118039D03*
X135477Y146187D03*
X145976Y137500D03*
X139426Y143337D03*
X136300Y138000D03*
X135818Y149682D03*
X147945Y135300D03*
X137986Y145502D03*
X139500Y139800D03*
X138450Y155350D03*
X135693Y159699D03*
X138000Y158500D03*
X136106Y181606D03*
X136069Y177669D03*
X135795Y169795D03*
X136489Y173600D03*
X136695Y191900D03*
X136947Y187400D03*
X143577Y191938D03*
X144900Y189700D03*
X138161D03*
X136596Y194498D03*
X151000Y235700D03*
X137000Y262900D03*
X151300Y260800D03*
X148682Y258482D03*
X148780Y267720D03*
X149700Y273200D03*
X139116Y299861D03*
X140716Y289716D03*
X139441Y302441D03*
X150676Y298135D03*
Y300135D03*
Y302135D03*
Y304135D03*
X144638Y320322D03*
X140000Y311000D03*
X149000Y313900D03*
X148960Y324507D03*
Y327507D03*
Y330507D03*
Y333507D03*
Y336507D03*
X139300Y345000D03*
X153000Y35000D03*
X160916Y86984D03*
X163684Y110984D03*
X163300Y107500D03*
X159756Y131200D03*
X155500Y131300D03*
X163900Y144700D03*
X161700Y147000D03*
X155925Y161601D03*
X160286Y168052D03*
X157485Y163680D03*
X156369Y158894D03*
X159010Y157190D03*
X159008Y165788D03*
X163400Y172600D03*
X164991Y174747D03*
X166631Y176765D03*
X162600Y170000D03*
X166500Y235100D03*
X161300D03*
X156500D03*
X154800Y231800D03*
X156300Y259400D03*
X158939Y265161D03*
X159500Y273300D03*
X160200Y277412D03*
X152500Y285000D03*
X157100Y275602D03*
X165882Y299882D03*
X164284Y289716D03*
X152676Y298135D03*
X154676D03*
X152676Y300135D03*
X154676D03*
X152676Y302135D03*
X154676D03*
X152676Y304135D03*
X154676D03*
X152300Y292000D03*
X165700Y316000D03*
X151960Y324507D03*
X154960D03*
X157960D03*
X151960Y327507D03*
X154960D03*
X157960D03*
X151960Y330507D03*
X154960D03*
X157960D03*
X151960Y333507D03*
X154960D03*
X157960D03*
X151960Y336507D03*
X154960D03*
X157960D03*
X152000Y349800D03*
X165456Y344000D03*
X157000Y347000D03*
X166000Y350000D03*
X165600Y366000D03*
X185000Y90100D03*
X181400Y113697D03*
X181000Y101700D03*
X175400Y112500D03*
X176811Y178800D03*
X170811Y179532D03*
X175300Y169100D03*
X179200Y181200D03*
X169102Y177573D03*
X173100Y172152D03*
X185100Y183900D03*
X182050Y185450D03*
X180400Y188000D03*
X173900Y212222D03*
X175500Y219000D03*
X170400Y214700D03*
X169700Y218500D03*
X176900Y212800D03*
X171800Y235100D03*
X175600Y223800D03*
X172500Y225816D03*
X176400Y253000D03*
X181700Y252900D03*
X184000Y250400D03*
X171028Y278022D03*
X180994Y275268D03*
X169000Y310400D03*
X175500Y317300D03*
X169000Y338000D03*
X181700Y328000D03*
X181600Y345000D03*
X168732Y349868D03*
X174000Y422900D03*
X195931Y15169D03*
X202300Y93000D03*
X190600D03*
X195000Y90000D03*
X186750Y147150D03*
X188100Y149400D03*
X195842Y148142D03*
X194537Y150391D03*
X187631Y185331D03*
X193000Y201600D03*
X195800Y219000D03*
X195600Y213000D03*
X193000Y225300D03*
X191298Y251987D03*
X188700Y250400D03*
X200000Y238000D03*
X187300Y263200D03*
X200000Y264726D03*
Y274900D03*
X185700Y283000D03*
X195400Y271000D03*
X195616Y306984D03*
X196100Y328000D03*
X195600Y345000D03*
X216100Y26000D03*
X208900Y42600D03*
X216500Y32000D03*
X208900Y51000D03*
X219200Y90476D03*
X205000Y90400D03*
X208000Y117000D03*
Y101900D03*
X203000D03*
X205032Y128269D03*
X203100Y144500D03*
X219447Y154047D03*
X211800Y219500D03*
X211600Y223900D03*
X205300Y242600D03*
X202700Y240300D03*
X209700Y260100D03*
X219600Y264200D03*
Y256900D03*
X218120Y267720D03*
X209116Y299861D03*
X210716Y289716D03*
X209441Y302441D03*
X214622Y320322D03*
X210000Y311000D03*
X219000Y314000D03*
X218959Y324607D03*
Y327607D03*
Y330607D03*
Y333607D03*
Y336607D03*
X209600Y345000D03*
X222100Y3358D03*
X222269Y15169D03*
X230000Y150300D03*
X220000Y150500D03*
Y173732D03*
X230000Y184100D03*
Y169900D03*
X220700Y169700D03*
X220000Y199323D03*
X230000Y194700D03*
X223000Y265000D03*
X227400Y273200D03*
X229200Y278000D03*
X222400Y285000D03*
X219700Y276200D03*
X223100Y275500D03*
X235882Y299882D03*
X234284Y289716D03*
X222600Y292000D03*
X220676Y298135D03*
Y300135D03*
Y302135D03*
Y304135D03*
X222676Y298135D03*
X224676D03*
X222676Y300135D03*
X224676D03*
X222676Y302135D03*
X224676D03*
X222676Y304135D03*
X224676D03*
X236300Y316000D03*
X221960Y324607D03*
X224959D03*
X227960D03*
X221960Y327607D03*
X224959D03*
X227960D03*
X221960Y330607D03*
X224959D03*
X227960D03*
X221960Y333607D03*
X224959D03*
X227960D03*
X221960Y336607D03*
X224959D03*
X227960D03*
X235400Y344000D03*
X222000Y349600D03*
X227000Y347300D03*
X235600Y350000D03*
X235649Y366000D03*
X243000Y74000D03*
X252008Y82200D03*
X248592Y125992D03*
X249008Y196592D03*
X247000Y214000D03*
X243500Y228900D03*
X251008Y231500D03*
X242339Y265161D03*
X241028Y278022D03*
X248000Y278100D03*
X239000Y310700D03*
X245750Y318450D03*
X239000Y338000D03*
X251700Y328000D03*
X251500Y345000D03*
X238732Y348968D03*
X244000Y422700D03*
X269646Y81646D03*
X260000Y68000D03*
X262500Y88019D03*
X255523Y100001D03*
X258523D03*
X261523D03*
X264523D03*
X255523Y103001D03*
X258523D03*
X261523D03*
X264523D03*
X255523Y106001D03*
X258523D03*
X261523D03*
X264523D03*
X261900Y135992D03*
X260000Y159000D03*
X256192Y177692D03*
X259866Y186066D03*
X265500Y215400D03*
X263000Y211000D03*
X256992Y231500D03*
X270134Y225000D03*
X260500D03*
X255000Y262500D03*
X264000Y262300D03*
X270000Y274800D03*
X255100Y283000D03*
X265516Y306984D03*
X266200Y328000D03*
X265800Y345000D03*
X280000Y92000D03*
X278000Y114000D03*
X283984Y125984D03*
X280000Y137000D03*
X278000Y179000D03*
X274100Y197800D03*
X283866Y185534D03*
X287500Y215300D03*
X286000Y211000D03*
X280992Y231408D03*
X284349Y225249D03*
X275008Y231508D03*
X277000Y263379D03*
X279116Y299861D03*
X280784Y289716D03*
X279441Y302441D03*
X284638Y320338D03*
X280200Y311000D03*
X279800Y345000D03*
X297000Y75000D03*
X288008Y81800D03*
X298500Y88100D03*
X291523Y100001D03*
X294523D03*
X297523D03*
X300523D03*
X291523Y103001D03*
X294523D03*
X297523D03*
X300523D03*
X291523Y106001D03*
X294523D03*
X297523D03*
X300523D03*
X298000Y135992D03*
Y159000D03*
X303941Y177841D03*
X304500Y214700D03*
X292500Y225200D03*
X290900Y251500D03*
X300320Y270280D03*
X291400Y262600D03*
X294000Y268000D03*
X301139Y265161D03*
X289320Y267720D03*
X292500Y285000D03*
X300698Y275398D03*
X290000Y274100D03*
X294900Y271000D03*
X304284Y289716D03*
X292500Y292000D03*
X290676Y298135D03*
Y300135D03*
Y302135D03*
Y304135D03*
X292676Y298135D03*
X294676D03*
X292676Y300135D03*
X294676D03*
X292676Y302135D03*
X294676D03*
X292676Y304135D03*
X294676D03*
X288984Y313900D03*
X288960Y324607D03*
Y327607D03*
Y330607D03*
Y333607D03*
Y336607D03*
X291960Y324607D03*
X294960D03*
X297960D03*
X291960Y327607D03*
X294960D03*
X297960D03*
X291960Y330607D03*
X294960D03*
X297960D03*
X291960Y333607D03*
X294960D03*
X297960D03*
X291960Y336607D03*
X294960D03*
X297960D03*
X292000Y349800D03*
X297000Y347200D03*
X322000Y29800D03*
X305646Y81946D03*
X321000Y67000D03*
X316000Y94000D03*
X313000Y114000D03*
X320708Y125992D03*
X315000Y137000D03*
X316000Y184000D03*
X309000Y195100D03*
X305000D03*
X307000Y211000D03*
X309008Y231858D03*
X314992Y225000D03*
Y231000D03*
X307316Y224508D03*
X311028Y278022D03*
X320313Y275000D03*
X320500Y271500D03*
X305882Y299882D03*
X309000Y310500D03*
X315400Y318100D03*
X305700Y316000D03*
X309000Y338000D03*
X321500Y328000D03*
X305200Y344000D03*
X308732Y349332D03*
X305800Y350000D03*
X305649Y366000D03*
X314000Y422600D03*
X324000Y82000D03*
X334500Y88000D03*
X330523Y100001D03*
X333523D03*
X336523D03*
X327523D03*
X330523Y103001D03*
X333523D03*
X336523D03*
X330523Y106001D03*
X333523D03*
X336523D03*
X327523Y103001D03*
Y106001D03*
X334400Y135992D03*
X324500Y138900D03*
X333000Y159000D03*
X336000Y176000D03*
X331000Y195000D03*
X327000Y195100D03*
X331000Y212000D03*
X326500Y215400D03*
X329316Y224508D03*
X336992Y231000D03*
Y225000D03*
X331008Y231858D03*
X325000Y261900D03*
X335200Y279000D03*
X329200Y285000D03*
X325200Y283000D03*
X329184Y290984D03*
X329000Y301000D03*
X339000Y311585D03*
X324060Y319740D03*
X329900Y308000D03*
X323978Y345000D03*
X329583Y339778D03*
X325000Y370000D03*
X329000Y356500D03*
X341646Y81854D03*
X353000Y68000D03*
X350000Y92000D03*
X347000Y128000D03*
X349000Y195022D03*
X353000Y195100D03*
X350000Y211000D03*
X348500Y215000D03*
X351311Y224502D03*
X353008Y231858D03*
X349600Y264000D03*
X344500Y291000D03*
X354900Y299500D03*
X347900Y352638D03*
X343739Y351339D03*
X342000Y363600D03*
Y376300D03*
X360200Y86000D03*
X363025Y100025D03*
X367174Y101319D03*
X369174D03*
X371174D03*
X367174Y103319D03*
X369174D03*
X371174D03*
X367174Y105319D03*
X369174D03*
X371174D03*
X368000Y121000D03*
X371000Y135000D03*
Y160000D03*
X358000Y182000D03*
X369100Y179000D03*
X365100Y199200D03*
X369016Y195022D03*
X367016Y217978D03*
X358992Y231000D03*
Y225000D03*
X367016Y224000D03*
X371984Y268984D03*
X368000Y265200D03*
X371000Y285000D03*
X359000Y317300D03*
X358000Y339000D03*
X365793Y368900D03*
X389000Y76000D03*
X380981Y89300D03*
X381000Y203000D03*
X375101Y223501D03*
X373400Y344000D03*
X375400Y368900D03*
X400000Y71000D03*
X398000Y85000D03*
Y103000D03*
Y124000D03*
Y148000D03*
Y167000D03*
Y188000D03*
Y206000D03*
X397000Y226000D03*
X399000Y250000D03*
Y245000D03*
Y265000D03*
Y270000D03*
Y255000D03*
Y260000D03*
Y275000D03*
X421000Y245000D03*
Y250000D03*
Y270000D03*
Y265000D03*
Y260000D03*
Y255000D03*
Y275000D03*
X430663Y19708D03*
Y39708D03*
Y59708D03*
Y79708D03*
Y99708D03*
Y119708D03*
Y139708D03*
Y159708D03*
Y179708D03*
Y199708D03*
Y219708D03*
Y239708D03*
Y259708D03*
Y279708D03*
Y299708D03*
Y319708D03*
Y339708D03*
Y359708D03*
Y379708D03*
Y399708D03*
Y419708D03*
G54D21*
X208651Y5524D03*
Y17335D03*
G54D12*
X44437Y12929D03*
X96602D03*
G54D22*
X225000Y68000D03*
G54D13*
X48472Y32220D03*
X92016D03*
G54D23*
X293488Y2189D03*
Y25811D03*
Y31378D03*
Y66811D03*
G54D14*
X38945Y43835D03*
X68000Y66000D03*
X58000D03*
X63000Y56000D03*
X78000Y66000D03*
X83000Y56000D03*
X73000D03*
X101937Y43835D03*
X88000Y66000D03*
G54D24*
X349520Y390043D03*
X357000Y403000D03*
X364480Y390043D03*
G54D15*
X54437Y12929D03*
X86602D03*
X178000Y23654D03*
Y33654D03*
Y43654D03*
X297189Y14000D03*
Y43189D03*
Y55000D03*
X309000Y43189D03*
G54D16*
X53000Y56000D03*
G54D25*
X362016Y339000D03*
X368000D03*
G54D26*
G01X30200Y121800D02*
Y79900D01*
X40300Y69800D01*
Y52800D01*
X69000Y24100D01*
Y16600D01*
X65329Y12929D01*
X54437D01*
G01X86602D02*
X75287D01*
X71616Y16600D01*
Y25184D01*
X44000Y52799D01*
Y70700D01*
X33500Y81200D01*
Y125780D01*
X30540Y128740D01*
G01X53000Y56000D02*
Y61300D01*
X51627Y62673D01*
X47700Y66600D01*
Y71200D01*
X62200Y85700D01*
Y90486D01*
X60886Y91800D01*
G01X40100Y167800D02*
X39989D01*
X37800Y165611D01*
Y142886D01*
X85386Y95300D01*
X127200D01*
G01X130400Y93100D02*
X126000D01*
X125400Y93700D01*
X84723D01*
X35600Y142823D01*
Y169168D01*
X37632Y171200D01*
X41000D01*
G01X45900Y175300D02*
X38400D01*
X32900Y169800D01*
Y143260D01*
X84060Y92100D01*
X124500D01*
X125800Y90800D01*
X128200D01*
G01X125011Y104000D02*
X121111Y100100D01*
X87374D01*
X45944Y141530D01*
Y165144D01*
G01X129200Y97644D02*
X124644D01*
X123900Y96900D01*
X86049D01*
X40000Y142949D01*
Y164700D01*
G01X123400Y106200D02*
X118900Y101700D01*
X88037D01*
X48144Y141593D01*
Y166856D01*
X47000Y168000D01*
G01X126900Y99900D02*
X123900D01*
X122500Y98500D01*
X86712D01*
X43300Y141912D01*
Y168400D01*
G01X73700Y165400D02*
X46000Y193100D01*
Y221800D01*
X70500Y246300D01*
X94270D01*
X96370Y248400D01*
X131437D01*
X166600Y213237D01*
Y213126D01*
X168826Y210900D01*
X168937D01*
X185100Y194737D01*
Y183900D01*
G01X77500Y152300D02*
Y152589D01*
X77453Y152635D01*
Y154458D01*
X77500Y154505D01*
Y157500D01*
X44400Y190600D01*
Y223594D01*
X47606Y226800D01*
G01X58000Y66000D02*
X55790Y63790D01*
X55536D01*
G02X54936Y64390I0J600D01*
G03X53736I-600J0D01*
G02X53136Y63790I-600J0D01*
G01X52490D01*
X49100Y67180D01*
Y70620D01*
X63600Y85120D01*
Y90486D01*
X64914Y91800D01*
G01X58714Y110100D02*
X57400Y108786D01*
Y104406D01*
X60206Y101600D01*
X66759D01*
X66774Y101585D01*
X68596D01*
X68611Y101600D01*
X69100D01*
X73000Y97700D01*
Y82700D01*
X77500Y78200D01*
X85026D01*
X85755Y77471D01*
G03X86603I424J424D01*
G02X87452Y76623I424J-424D01*
G03Y75774I424J-424D01*
G03X88300I424J424D01*
G02X89149Y74926I424J-424D01*
G03Y74077I424J-424D01*
G01X89328Y73897D01*
Y73400D01*
G01X54686Y110100D02*
X56000Y108786D01*
Y103826D01*
X59626Y100200D01*
X66179D01*
X66194Y100185D01*
X68535D01*
X71600Y97120D01*
Y82120D01*
X76920Y76800D01*
X83268D01*
X85300Y74768D01*
Y73400D01*
G01X50756Y194200D02*
Y197156D01*
X67500Y213900D01*
X87702D01*
X104602Y230800D01*
X124146D01*
X149000Y205946D01*
Y205835D01*
X161535Y193300D01*
X161646D01*
X162791Y192155D01*
Y173209D01*
X163400Y172600D01*
G01X57055Y194500D02*
Y198930D01*
X68826Y210700D01*
X89028D01*
X105928Y227600D01*
X122821D01*
X145800Y204621D01*
Y204509D01*
X159591Y190718D01*
Y168747D01*
X160286Y168052D01*
G01X53905Y194100D02*
Y198043D01*
X68163Y212300D01*
X88365D01*
X105265Y229200D01*
X123484D01*
X147400Y205284D01*
Y205172D01*
X160872Y191700D01*
X160984D01*
X161191Y191493D01*
Y171409D01*
X162600Y170000D01*
G01X59900Y194700D02*
Y199512D01*
X69488Y209100D01*
X89691D01*
X106591Y226000D01*
X122158D01*
X144200Y203958D01*
Y203847D01*
X157991Y190056D01*
Y166805D01*
X159008Y165788D01*
G01X57700Y223900D02*
X65700Y215900D01*
X87440D01*
X103940Y232400D01*
X124809D01*
X150600Y206609D01*
Y206498D01*
X162198Y194900D01*
X162309D01*
X164400Y192809D01*
Y175338D01*
X164991Y174747D01*
G01X55738Y209430D02*
X55500Y209667D01*
Y226237D01*
X72163Y242900D01*
X95395D01*
X97695Y245200D01*
X130112D01*
X163400Y211912D01*
Y211800D01*
X167500Y207700D01*
X167612D01*
X180400Y194912D01*
Y188000D01*
G01X54400Y207200D02*
X50700Y210900D01*
Y223700D01*
X71700Y244700D01*
X94932D01*
X97032Y246800D01*
X130774D01*
X165000Y212574D01*
Y212463D01*
X168163Y209300D01*
X168274D01*
X182600Y194974D01*
Y186000D01*
X182050Y185450D01*
G01X60500Y224600D02*
Y224263D01*
X67263Y217500D01*
X86777D01*
X103277Y234000D01*
X125472D01*
X152200Y207272D01*
Y207161D01*
X162861Y196500D01*
X162972D01*
X166000Y193472D01*
Y177396D01*
X166631Y176765D01*
G01X170811Y179532D02*
Y193186D01*
X164298Y199700D01*
X164186D01*
X155400Y208486D01*
Y208598D01*
X126798Y237200D01*
X101951D01*
X85451Y220700D01*
X71307D01*
X65594Y226413D01*
G01X63094Y224781D02*
X68774Y219100D01*
X86114D01*
X102614Y235600D01*
X126135D01*
X153800Y207935D01*
Y207823D01*
X163523Y198100D01*
X163635D01*
X167900Y193835D01*
Y178775D01*
X169102Y177573D01*
G01X82000Y90600D02*
Y86984D01*
G01X203100Y144500D02*
X178200Y119600D01*
X150800D01*
X145439Y114239D01*
X125739D01*
X114900Y103400D01*
X88738D01*
X65900Y126237D01*
Y152800D01*
G01X195842Y148142D02*
X174800Y127100D01*
X128100D01*
X106000Y105000D01*
X89400D01*
X75500Y118900D01*
Y150200D01*
G01X194537Y150391D02*
X173146Y129000D01*
X127211D01*
X104811Y106600D01*
X90200D01*
X78702Y118098D01*
Y151098D01*
X77500Y152300D01*
G01X81876Y151700D02*
Y158877D01*
X91500Y168500D01*
Y199595D01*
X107052Y215147D01*
X109448D01*
X109600Y214995D01*
G01X75841Y163924D02*
X83924D01*
X88600Y168600D01*
Y193700D01*
G01X77403Y152244D02*
X77500D01*
Y152300D01*
G01X155925Y161601D02*
X154791Y162734D01*
Y188730D01*
X141000Y202521D01*
Y202632D01*
X120832Y222800D01*
X107916D01*
X90616Y205500D01*
X77500D01*
X72700Y200700D01*
Y194200D01*
G01X69800Y194100D02*
Y201500D01*
X75400Y207100D01*
X89954D01*
X107254Y224400D01*
X121495D01*
X142600Y203295D01*
Y203184D01*
X156391Y189393D01*
Y164775D01*
X157485Y163680D01*
G01X156369Y158894D02*
X155521D01*
X153191Y161223D01*
Y188067D01*
X139400Y201858D01*
Y201970D01*
X120170Y221200D01*
X108579D01*
X91279Y203900D01*
X79900D01*
X75900Y199900D01*
Y194100D01*
G01X159010Y157190D02*
X158514Y156694D01*
X155458D01*
X151591Y160560D01*
Y187404D01*
X137800Y201195D01*
Y201307D01*
X119583Y219524D01*
X109166D01*
X91742Y202100D01*
X82100D01*
X79200Y199200D01*
Y193000D01*
G01X76200Y226500D02*
X77200Y225500D01*
X83463D01*
X99963Y242000D01*
X128786D01*
X160200Y210586D01*
Y210475D01*
X166175Y204500D01*
X166286D01*
X176535Y194251D01*
Y181602D01*
X176811Y181326D01*
Y178800D01*
G01X73000Y226200D02*
X75300Y223900D01*
X84126D01*
X100626Y240400D01*
X128123D01*
X158600Y209923D01*
Y209812D01*
X165512Y202900D01*
X165623D01*
X174611Y193912D01*
Y176680D01*
X175300Y175991D01*
Y169100D01*
G01X79200Y227700D02*
X83400D01*
X99300Y243600D01*
X129449D01*
X161800Y211249D01*
Y211137D01*
X166837Y206100D01*
X166949D01*
X178135Y194914D01*
Y182265D01*
X179200Y181200D01*
G01X69800Y226100D02*
X73600Y222300D01*
X84788D01*
X101288Y238800D01*
X127460D01*
X157000Y209260D01*
Y209149D01*
X164849Y201300D01*
X164960D01*
X173011Y193249D01*
Y175589D01*
X173100Y175500D01*
Y172152D01*
G01X187631Y185331D02*
Y194469D01*
X169600Y212500D01*
X169489D01*
X168200Y213789D01*
Y213900D01*
X132100Y250000D01*
X83800D01*
X82300Y248500D01*
G01X79900Y251700D02*
X111900D01*
G01X78120Y267720D02*
X148780D01*
G01X95000Y86984D02*
Y89900D01*
G01X93200Y112800D02*
X93600Y113200D01*
X99200D01*
X121800Y135800D01*
X144276D01*
X145976Y137500D01*
G01X95703Y115400D02*
X98514D01*
X121114Y138000D01*
X136300D01*
G01X147945Y135300D02*
X146508Y133863D01*
X122863D01*
X100000Y111000D01*
X95600D01*
G01X93815Y109110D02*
X94124Y108800D01*
X100700D01*
X123363Y131463D01*
X148476D01*
X149913Y132900D01*
G01X135477Y146187D02*
X120249D01*
X98263Y124200D01*
X90000D01*
X87500Y121700D01*
G01X90000Y117500D02*
X92300Y119800D01*
X98388D01*
X120723Y142135D01*
X138224D01*
X139426Y143337D01*
G01X95500Y127964D02*
X99764D01*
X121482Y149682D01*
X135818D01*
G01X138450Y155350D02*
X120539D01*
X97047Y131859D01*
Y131452D01*
X95759Y130164D01*
X92604D01*
G01X137986Y145502D02*
X136468Y143985D01*
X120310D01*
X98426Y122100D01*
X91300D01*
X87300Y118100D01*
G01X93400Y117100D02*
X93900Y117600D01*
X98451D01*
X121051Y140200D01*
X139100D01*
X139500Y139800D01*
G01X94847Y132364D02*
X95201D01*
X120135Y157298D01*
X136798D01*
X138000Y158500D01*
G01X107998Y212947D02*
X107115D01*
X93100Y198932D01*
Y167100D01*
X84300Y158300D01*
Y150523D01*
X84685Y150139D01*
G01X93300Y149085D02*
X93432Y148954D01*
X95843D01*
X104300Y157410D01*
Y193411D01*
X106465Y195577D01*
X107560D01*
G01X106700Y192700D02*
Y157548D01*
X96360Y147208D01*
X94535D01*
X94212Y146885D01*
X92389D01*
X91676Y147598D01*
X90196D01*
G01X95100Y140390D02*
X96427D01*
X119737Y163700D01*
X138374D01*
X157374Y144700D01*
X163900D01*
G01X135693Y159699D02*
X120273D01*
X96210Y135636D01*
X92402D01*
X91199Y134434D01*
G01X93471Y138364D02*
X93644Y138190D01*
X96490D01*
X120400Y162100D01*
X137712D01*
X157512Y142300D01*
X181900D01*
X186750Y147150D01*
G01X96013Y143087D02*
X96765D01*
X118978Y165300D01*
X139037D01*
X157337Y147000D01*
X161700D01*
G01X188100Y149400D02*
X157200D01*
X139700Y166900D01*
X118316D01*
X97022Y145607D01*
X95422D01*
X90500Y140686D01*
Y137700D01*
G01X108134Y204066D02*
X107285D01*
X99500Y196281D01*
Y161500D01*
X93063Y155063D01*
Y152400D01*
X91412Y150748D01*
X91302D01*
G01X108071Y208529D02*
X107222D01*
X96300Y197607D01*
Y164300D01*
X88663Y156663D01*
Y152948D01*
X88700Y152911D01*
Y150735D01*
X87618Y149652D01*
G01X86500Y152000D02*
Y157500D01*
X94700Y165700D01*
Y198270D01*
X107159Y210729D01*
X109740D01*
X109874Y210595D01*
G01X90863Y153311D02*
Y155863D01*
X97900Y162900D01*
Y196944D01*
X107222Y206266D01*
X109629D01*
X109700Y206195D01*
G01X95263Y153748D02*
X101100Y159585D01*
Y195618D01*
X107277Y201795D01*
X109600D01*
G01X94877Y151154D02*
X95780D01*
X102700Y158073D01*
Y194107D01*
X107096Y198504D01*
G01X88300Y270954D02*
X126954D01*
X127000Y271000D01*
G01X113570Y217324D02*
X113400Y217155D01*
Y214789D01*
X115600Y212589D01*
Y191600D01*
X112900Y188900D01*
Y186700D01*
X111200Y185000D01*
G01X110900Y190000D02*
X114000Y193100D01*
Y211926D01*
X111800Y214126D01*
Y215989D01*
X110900Y216889D01*
Y217300D01*
G01X115600Y215700D02*
Y215021D01*
X117200Y213421D01*
Y210163D01*
X132865Y194498D01*
X136596D01*
G01X111900Y251700D02*
X170900D01*
X176100Y256900D01*
X184800D01*
X187300Y254400D01*
X192200D01*
X195100Y251500D01*
X211100D01*
G01X111900Y251700D02*
X114918Y254718D01*
X144918D01*
X148682Y258482D01*
G01X158939Y265161D02*
X101239D01*
G01X181700Y252900D02*
Y248800D01*
X198042Y232458D01*
Y147230D01*
X175511Y124700D01*
X137093D01*
X131009Y118616D01*
X130300D01*
G01Y124600D02*
X133500D01*
G01X136947Y187400D02*
X137000D01*
Y187500D01*
X120000D01*
X117500Y185000D01*
G01X136069Y177669D02*
X119431D01*
X119100Y178000D01*
X117400D01*
G01X136695Y191900D02*
X119300D01*
X117300Y189900D01*
G01X136106Y181606D02*
X140963Y186463D01*
Y195506D01*
X138169Y198300D01*
X133589D01*
X121802Y210087D01*
Y214193D01*
X120498Y215498D01*
G01X138161Y189700D02*
X138895Y190435D01*
Y195311D01*
X137506Y196700D01*
X132926D01*
X119002Y210624D01*
Y213882D01*
X118298Y214586D01*
Y216502D01*
X118100Y216700D01*
G01X157100Y275602D02*
X131602D01*
X127000Y271000D01*
G01D02*
X195400D01*
G01X205300Y242600D02*
Y143589D01*
X179711Y118000D01*
X152200D01*
X139216Y105016D01*
X136516D01*
G01X148216D02*
Y111416D01*
X152600Y115800D01*
X180100D01*
X208800Y144500D01*
Y249200D01*
X211100Y251500D01*
G01X202700Y240300D02*
Y147363D01*
X176637Y121300D01*
X149500D01*
X144039Y115839D01*
X139981D01*
X137639Y118181D01*
G01X200000Y238000D02*
Y146926D01*
X175974Y122900D01*
X146900D01*
X142039Y118039D01*
G01X148780Y267720D02*
X218120D01*
G01X155000Y68000D02*
X161000Y74000D01*
X243000D01*
G01X191298Y251987D02*
X190685Y252600D01*
X185500D01*
X182900Y255200D01*
X178600D01*
X176400Y253000D01*
G01X184000Y250400D02*
X188700D01*
G01X190600Y93000D02*
X202300D01*
G01X193000Y201600D02*
Y216200D01*
X195800Y219000D01*
G01X254700Y271000D02*
X221968D01*
G02X221118Y271850I0J850D01*
G03X220268Y272700I-850J0D01*
G01X218768D01*
G03X217918Y271850I0J-850D01*
G02X217068Y271000I-850J0D01*
G01X215568D01*
G02X214718Y271850I0J850D01*
G03X213868Y272700I-850J0D01*
G01X212368D01*
G03X211518Y271850I0J-850D01*
G02X210668Y271000I-850J0D01*
G01X195400D01*
G01X208900Y51000D02*
Y42600D01*
G01X211600Y223900D02*
Y222100D01*
X211800Y221900D01*
Y219500D01*
G01X211100Y251500D02*
X217959D01*
G02X219559Y249900I0J-1600D01*
G01Y244800D01*
G03X222759I1600J0D01*
G01Y249900D01*
G02X225959I1600J0D01*
G01Y244800D01*
G03X229159I1600J0D01*
G01Y249900D01*
G02X232359I1600J0D01*
G01Y244800D01*
G03X235559I1600J0D01*
G01Y249900D01*
G02X238759I1600J0D01*
G01Y244800D01*
G03X241959I1600J0D01*
G01Y249900D01*
G02X243559Y251500I1600J0D01*
G01X257000D01*
G01X218120Y267720D02*
X289320D01*
G01X257000Y251500D02*
X251600Y256900D01*
X219600D01*
G01X223100Y275500D02*
X250200D01*
X254700Y271000D01*
G01X301139Y265161D02*
X278329D01*
X277911Y265579D01*
X276089D01*
X275671Y265161D01*
X242339D01*
G01X257000Y251500D02*
X290900D01*
G01X294900Y271000D02*
X254700D01*
G01X365793Y368900D02*
X375400D01*
G54D17*
X61055Y391055D03*
Y422945D03*
X77000Y407000D03*
X92945Y391055D03*
Y422945D03*
X131055Y391055D03*
Y422945D03*
X147000Y407000D03*
X162945Y391055D03*
Y422945D03*
X201055Y391055D03*
Y422945D03*
X217000Y407000D03*
X232945Y391055D03*
Y422945D03*
X271055Y391055D03*
Y422945D03*
X287000Y407000D03*
X302945Y391055D03*
Y422945D03*
G54D27*
G01X82000Y81000D02*
Y83848D01*
G01X101028Y278022D02*
X94978D01*
X92100Y280900D01*
X75942D01*
X66566Y290277D01*
Y300918D01*
X68089Y302441D01*
X69441D01*
G01X70100Y311000D02*
Y305150D01*
X69441Y304491D01*
Y302441D01*
G01X82000Y349500D02*
X85894D01*
X85944Y349550D01*
X89750D01*
X95300Y344000D01*
G01X95000Y81000D02*
Y83300D01*
G01X94284Y289716D02*
Y298284D01*
X95882Y299882D01*
G01X105200Y318000D02*
Y309200D01*
X95882Y299882D01*
G01X99000Y338000D02*
Y311300D01*
G01Y338000D02*
Y340300D01*
X95300Y344000D01*
G01X101028Y278022D02*
X102968Y279962D01*
X134300D01*
G01X139441Y302441D02*
X138089D01*
X136566Y300918D01*
Y282228D01*
X134300Y279962D01*
G01D02*
X169087D01*
X171028Y278022D01*
G01X140000Y311000D02*
Y305050D01*
X139441Y304491D01*
Y302441D01*
G01X175500Y317300D02*
Y309500D01*
X165882Y299882D01*
G01X164284Y289716D02*
Y298284D01*
X165882Y299882D01*
G01X152000Y349800D02*
X159656D01*
X165456Y344000D01*
G01D02*
X169000Y340456D01*
Y338000D01*
G01X203900Y280716D02*
X190816D01*
X188122Y278022D01*
X171028D01*
G01X180994Y275268D02*
X180932D01*
G01X169000Y338000D02*
Y310400D01*
G01X209441Y302441D02*
X208089D01*
X206566Y300918D01*
Y283381D01*
X203900Y280716D01*
G01D02*
X231284D01*
X233978Y278022D01*
X241028D01*
G01X210000Y311000D02*
Y305050D01*
X209441Y304491D01*
Y302441D01*
G01X245750Y318450D02*
Y309750D01*
X235882Y299882D01*
G01X234284Y289716D02*
Y298284D01*
X235882Y299882D01*
G01X235400Y344000D02*
X239000Y340400D01*
Y338000D01*
G01X222000Y349600D02*
X225694D01*
X225944Y349850D01*
X229550D01*
X235400Y344000D01*
G01X243500Y228900D02*
X258200Y243600D01*
X329200D01*
X349600Y264000D01*
G01X241028Y278022D02*
X243656Y280650D01*
X250550D01*
X253178Y278022D01*
X273400D01*
G01X239000Y338000D02*
Y310700D01*
G01X280992Y231408D02*
X301408D01*
X310000Y240000D01*
X374000D01*
X399000Y265000D01*
G01X273400Y278022D02*
X311028D01*
G01X279441Y302441D02*
X278089D01*
X276000Y300352D01*
Y280622D01*
X273400Y278022D01*
G01X280200Y311000D02*
Y305250D01*
X279441Y304491D01*
Y302441D01*
G01X304284Y289716D02*
Y298284D01*
X305882Y299882D01*
G01X292000Y349800D02*
X299400D01*
X305200Y344000D01*
G01X309000Y338000D02*
Y340200D01*
X305200Y344000D01*
G01X314992Y231000D02*
X324253D01*
X330253Y237000D01*
X376000D01*
X399000Y260000D01*
G01X329000Y301000D02*
X311028Y283028D01*
Y278022D01*
G01X315400Y318100D02*
Y309400D01*
X305882Y299882D01*
G01X309000Y338000D02*
Y310500D01*
G01X324500Y138900D02*
Y133100D01*
X336600Y121000D01*
X368000D01*
G01X399000Y255000D02*
X378700Y234700D01*
X340692D01*
X336992Y231000D01*
G01X329000Y301000D02*
X343400D01*
X359400Y285000D01*
X371000D01*
G01X399000Y275000D02*
X386000Y288000D01*
Y363000D01*
X372700Y376300D01*
X342000D01*
G01X368000Y121000D02*
Y112400D01*
X363025Y107425D01*
Y100025D01*
G01X421000Y245000D02*
X405000D01*
X377978Y217978D01*
X367016D01*
G01X358992Y231000D02*
X380000D01*
X399000Y250000D01*
G01X371984Y268984D02*
X373000Y270000D01*
X399000D01*
G01X373400Y344000D02*
Y341000D01*
X371400Y339000D01*
X368000D01*
G01X358000D02*
X362016D01*
G54D18*
X82000Y81000D03*
Y86984D03*
X95000Y81000D03*
Y86984D03*
X130300Y118616D03*
Y124600D03*
G54D19*
X135000Y58000D03*
Y68000D03*
X145000Y58000D03*
Y68000D03*
X155000Y58000D03*
Y68000D03*
X165000Y58000D03*
Y68000D03*
X175000Y58000D03*
Y68000D03*
X185000Y58000D03*
Y68000D03*
X195000Y58000D03*
Y68000D03*
X205000Y58000D03*
Y68000D03*
X215000Y58000D03*
Y68000D03*
X225000Y58000D03*
M02*
