G04 ================== begin FILE IDENTIFICATION RECORD ==================*
G04 Layout Name:  E:/material/lool Inds Vibration/hardware/v1.0/pcb/vibration.brd*
G04 Film Name:    GND*
G04 File Format:  Gerber RS274X*
G04 File Origin:  Cadence Allegro 16.6-2015-S065*
G04 Origin Date:  Wed Jun 08 16:00:27 2016*
G04 *
G04 Layer:  ETCH/GND*
G04 Layer:  PIN/GND*
G04 Layer:  VIA CLASS/GND*
G04 *
G04 Offset:    (0.000 0.000)*
G04 Mirror:    No*
G04 Mode:      Positive*
G04 Rotation:  0*
G04 FullContactRelief:  No*
G04 UndefLineWidth:     1.000*
G04 ================== end FILE IDENTIFICATION RECORD ====================*
%FSLAX25Y25*MOIN*%
%IR0*IPPOS*OFA0.00000B0.00000*MIA0B0*SFA1.00000B1.00000*%
%ADD12C,.003937*%
%ADD10C,.251969*%
%ADD13P,.063921X8X22.5*%
%ADD11C,.016*%
%ADD18C,.035433*%
%ADD15C,.059055*%
%ADD14C,.070866*%
%ADD21C,.098425*%
%ADD19C,.062992*%
%ADD20R,.059055X.059055*%
%ADD17C,.094488*%
%ADD16R,.070866X.070866*%
%ADD22C,.008*%
%ADD23C,.015*%
%ADD30R,.08687X.08687*%
%ADD40C,.11043*%
%ADD39C,.11443*%
%ADD32C,.110492*%
%ADD26C,.1378*%
%ADD31C,.106492*%
%ADD24C,.263974*%
%ADD25C,.036004*%
%ADD38R,.07106X.07106*%
%ADD28C,.07506*%
%ADD41C,.051438*%
%ADD35R,.07506X.07506*%
%ADD37C,.055374*%
%ADD36C,.04947*%
%ADD27C,.08287*%
%ADD29C,.08687*%
%ADD33C,.074996*%
%ADD34C,.078996*%
G75*
%LPD*%
G75*
G36*
G01X56810Y426158D02*
G03X65301I4246J-3214D01*
G02X65620Y426800I319J241D01*
G01X88380D01*
G02X88699Y426158I0J-400D01*
G03X97190I4245J-3214D01*
G02X97509Y426800I319J241D01*
G01X126491D01*
G02X126810Y426158I0J-400D01*
G03X135301I4245J-3214D01*
G02X135620Y426800I319J241D01*
G01X158380D01*
G02X158699Y426158I0J-400D01*
G03X167190I4246J-3214D01*
G02X167509Y426800I319J241D01*
G01X196491D01*
G02X196810Y426158I0J-400D01*
G03X205301I4245J-3214D01*
G02X205620Y426800I319J241D01*
G01X228380D01*
G02X228699Y426158I0J-400D01*
G03X237190I4246J-3214D01*
G02X237509Y426800I319J241D01*
G01X266491D01*
G02X266810Y426158I0J-400D01*
G03X275301I4245J-3214D01*
G02X275620Y426800I319J241D01*
G01X298380D01*
G02X298699Y426158I0J-400D01*
G03X307190I4245J-3214D01*
G02X307509Y426800I319J241D01*
G01X424000D01*
G02X433800Y417000I0J-9800D01*
G01Y10000D01*
G02X424000Y200I-9800J0D01*
G01X296230D01*
G02X295884Y801I0J400D01*
G03X291093I-2395J1388D01*
G02X290747Y200I-346J-201D01*
G01X10000D01*
G02X200Y10000I0J9800D01*
G01Y417000D01*
G02X10000Y426800I9800J0D01*
G01X56491D01*
G02X56810Y426158I0J-400D01*
G37*
%LPC*%
G75*
G36*
G01X100355Y11375D02*
X98157Y9176D01*
X95048D01*
X92849Y11375D01*
Y14484D01*
X95048Y16682D01*
X98157D01*
X100355Y14484D01*
Y11375D01*
G37*
G36*
G01X48190D02*
X45992Y9176D01*
X42882D01*
X40684Y11375D01*
Y14484D01*
X42882Y16682D01*
X45992D01*
X48190Y14484D01*
Y11375D01*
G37*
G36*
G01X167293Y351253D02*
G03X167566Y351239I144J139D01*
G02X167439Y348615I1166J-1372D01*
G03X167166Y348628I-144J-139D01*
G02X167293Y351253I-1166J1372D01*
G37*
G36*
G01X96845Y351074D02*
G03X97450Y351032I321J239D01*
G02X97288Y348694I1282J-1264D01*
G03X96682Y348736I-321J-239D01*
G02X96845Y351074I-1282J1264D01*
G37*
G36*
G01X307291Y351008D02*
G03X307824Y350887I331J224D01*
G02X307241Y348324I908J-1555D01*
G03X306708Y348445I-331J-224D01*
G02X307291Y351008I-908J1555D01*
G37*
G36*
G01X237254Y350710D02*
G03X237824Y350522I368J158D01*
G02X237078Y348258I908J-1554D01*
G03X236508Y348446I-368J-158D01*
G02X237254Y350710I-908J1554D01*
G37*
G36*
G01X290732Y323290D02*
G03X290187I-273J-293D01*
G02X287642Y325834I-1227J1317D01*
G03Y326380I-293J273D01*
G02Y328834I1317J1227D01*
G03Y329380I-293J273D01*
G02Y331834I1317J1227D01*
G03Y332380I-293J273D01*
G02Y334834I1317J1227D01*
G03Y335380I-293J273D01*
G02X290187Y337924I1317J1227D01*
G03X290732I273J293D01*
G02X293187I1227J-1317D01*
G03X293732I273J293D01*
G02X296187I1227J-1317D01*
G03X296732I273J293D01*
G02X299276Y335380I1227J-1317D01*
G03Y334834I293J-273D01*
G02Y332380I-1317J-1227D01*
G03Y331834I293J-273D01*
G02Y329380I-1317J-1227D01*
G03Y328834I293J-273D01*
G02Y326380I-1317J-1227D01*
G03Y325834I293J-273D01*
G02X296732Y323290I-1317J-1227D01*
G03X296187I-273J-293D01*
G02X293732I-1227J1317D01*
G03X293187I-273J-293D01*
G02X290732I-1227J1317D01*
G37*
G36*
G01X220732D02*
G03X220187I-273J-293D01*
G02X217642Y325834I-1227J1317D01*
G03Y326380I-293J273D01*
G02Y328834I1317J1227D01*
G03Y329380I-293J273D01*
G02Y331834I1317J1227D01*
G03Y332380I-293J273D01*
G02Y334834I1317J1227D01*
G03Y335380I-293J273D01*
G02X220187Y337924I1317J1227D01*
G03X220732I273J293D01*
G02X223187I1227J-1317D01*
G03X223732I273J293D01*
G02X226187I1227J-1317D01*
G03X226732I273J293D01*
G02X229276Y335380I1227J-1317D01*
G03Y334834I293J-273D01*
G02Y332380I-1317J-1227D01*
G03Y331834I293J-273D01*
G02Y329380I-1317J-1227D01*
G03Y328834I293J-273D01*
G02Y326380I-1317J-1227D01*
G03Y325834I293J-273D01*
G02X226732Y323290I-1317J-1227D01*
G03X226187I-273J-293D01*
G02X223732I-1227J1317D01*
G03X223187I-273J-293D01*
G02X220732I-1227J1317D01*
G37*
G36*
G01X80732D02*
G03X80187I-273J-293D01*
G02X77642Y325834I-1227J1317D01*
G03Y326380I-293J273D01*
G02Y328834I1317J1227D01*
G03Y329380I-293J273D01*
G02Y331834I1317J1227D01*
G03Y332380I-293J273D01*
G02Y334834I1317J1227D01*
G03Y335380I-293J273D01*
G02X80187Y337924I1317J1227D01*
G03X80732I273J293D01*
G02X83187I1227J-1317D01*
G03X83732I273J293D01*
G02X86187I1227J-1317D01*
G03X86732I273J293D01*
G02X89276Y335380I1227J-1317D01*
G03Y334834I293J-273D01*
G02Y332380I-1317J-1227D01*
G03Y331834I293J-273D01*
G02Y329380I-1317J-1227D01*
G03Y328834I293J-273D01*
G02Y326380I-1317J-1227D01*
G03Y325834I293J-273D01*
G02X86732Y323290I-1317J-1227D01*
G03X86187I-273J-293D01*
G02X83732I-1227J1317D01*
G03X83187I-273J-293D01*
G02X80732I-1227J1317D01*
G37*
G36*
G01X150732Y323190D02*
G03X150187I-273J-293D01*
G02X147642Y325734I-1227J1317D01*
G03Y326280I-293J273D01*
G02Y328734I1317J1227D01*
G03Y329280I-293J273D01*
G02Y331734I1317J1227D01*
G03Y332280I-293J273D01*
G02Y334734I1317J1227D01*
G03Y335280I-293J273D01*
G02X150187Y337824I1317J1227D01*
G03X150732I273J293D01*
G02X153187I1227J-1317D01*
G03X153732I273J293D01*
G02X156187I1227J-1317D01*
G03X156732I273J293D01*
G02X159277Y335280I1227J-1317D01*
G03Y334734I293J-273D01*
G02Y332280I-1317J-1227D01*
G03Y331734I293J-273D01*
G02Y329280I-1317J-1227D01*
G03Y328734I293J-273D01*
G02Y326280I-1317J-1227D01*
G03Y325734I293J-273D01*
G02X156732Y323190I-1317J-1227D01*
G03X156187I-273J-293D01*
G02X153732I-1227J1317D01*
G03X153187I-273J-293D01*
G02X150732I-1227J1317D01*
G37*
G36*
G01X280652Y301109D02*
G03X280619Y300851I135J-148D01*
G02X277905Y301193I-1504J-990D01*
G03X277937Y301451I-135J148D01*
G02X280652Y301109I1504J990D01*
G37*
G36*
G01X210652D02*
G03X210619Y300851I135J-148D01*
G02X207905Y301193I-1504J-990D01*
G03X207937Y301451I-135J148D01*
G02X210652Y301109I1504J990D01*
G37*
G36*
G01X140652D02*
G03X140619Y300851I135J-148D01*
G02X137905Y301193I-1504J-990D01*
G03X137937Y301451I-135J148D01*
G02X140652Y301109I1504J990D01*
G37*
G36*
G01X67905Y301193D02*
G03X67937Y301451I-135J148D01*
G02X70652Y301109I1504J990D01*
G03X70619Y300851I135J-148D01*
G02X67905Y301193I-1504J-990D01*
G37*
G36*
G01X158898Y275511D02*
G03X159334Y275093I399J-20D01*
G02X157702Y273391I166J-1793D01*
G03X157266Y273810I-399J20D01*
G02X158898Y275511I-166J1793D01*
G37*
G36*
G01X87344Y272480D02*
G03X87489Y272997I-213J339D01*
G02X90056Y272275I1611J803D01*
G03X89911Y271758I213J-339D01*
G02X87344Y272480I-1611J-803D01*
G37*
G36*
G01X295743Y269409D02*
G03X295579Y268864I187J-353D01*
G02X293157Y269591I-1579J-864D01*
G03X293321Y270136I-187J353D01*
G02X295743Y269409I1579J864D01*
G37*
G36*
G01X77069Y269182D02*
G03X77129Y269438I-117J162D01*
G02X79772Y268818I1591J842D01*
G03X79712Y268562I117J-162D01*
G02X77069Y269182I-1591J-842D01*
G37*
G36*
G01X190913Y250228D02*
G03X190440Y249940I-86J-391D01*
G02X189085Y252159I-1740J460D01*
G03X189557Y252447I86J391D01*
G02X190913Y250228I1740J-460D01*
G37*
G36*
G01X183483Y252652D02*
G03X183901Y252198I396J-55D01*
G02X182217Y250648I99J-1797D01*
G03X181799Y251102I-396J55D01*
G02X183483Y252652I-99J1797D01*
G37*
G36*
G01X202286Y238548D02*
G03X201796Y238130I-92J-389D01*
G02X200414Y239752I-1795J-130D01*
G03X200904Y240170I92J389D01*
G02X203031Y242070I1796J130D01*
G03X203503Y242488I73J393D01*
G02X204969Y240830I1797J112D01*
G03X204497Y240412I-73J-393D01*
G02X202286Y238548I-1797J-112D01*
G37*
G36*
G01X71070Y227375D02*
G03X71652Y227393I282J283D01*
G02X74194Y227547I1348J-1194D01*
G03X74776Y227602I265J299D01*
G02X76973Y228126I1424J-1101D01*
G03X77519Y228344I172J361D01*
G02X78427Y226074I1681J-644D01*
G03X77881Y225856I-172J-361D01*
G02X75006Y225153I-1681J644D01*
G03X74424Y225098I-265J-299D01*
G02X71730Y224925I-1424J1102D01*
G03X71148Y224907I-282J-283D01*
G02X71070Y227375I-1348J1193D01*
G37*
G36*
G01X59684Y222995D02*
G03X59175Y222868I-181J-357D01*
G02X58516Y225505I-1475J1032D01*
G03X59025Y225632I181J357D01*
G02X61572Y226046I1475J-1032D01*
G03X61832Y226064I119J161D01*
G02X63394Y226556I1262J-1283D01*
G03X63849Y226852I67J394D01*
G02X65294Y224638I1746J-439D01*
G03X64839Y224341I-67J-394D01*
G02X62022Y223335I-1746J439D01*
G03X61762Y223316I-119J-161D01*
G02X59684Y222995I-1262J1283D01*
G37*
G36*
G01X53829Y208907D02*
G03X53963Y209130I-63J190D01*
G02X56309Y207722I1775J299D01*
G03X56175Y207499I63J-190D01*
G02X53829Y208907I-1775J-299D01*
G37*
G36*
G01X107895Y210320D02*
G03X108075Y210527I-20J199D01*
G02X108080Y210738I1799J68D01*
G03X107738Y211166I-399J32D01*
G02X107641Y214712I259J1781D01*
G03X107802Y214916I-40J196D01*
G02X109009Y216695I1799J79D01*
G03X109139Y216926I-66J189D01*
G02X112089Y218652I1761J374D01*
G03X112356Y218654I132J150D01*
G02X115338Y217662I1214J-1330D01*
G03X115541Y217499I196J38D01*
G02X116231Y217386I59J-1799D01*
G03X116481Y217486I70J187D01*
G02X119778Y217353I1619J-786D01*
G03X120017Y217233I186J72D01*
G02X118820Y214845I480J-1735D01*
G03X118580Y214965I-186J-72D01*
G02X117469Y215014I-480J1735D01*
G03X117219Y214914I-70J-187D01*
G02X113832Y215363I-1619J786D01*
G03X113629Y215525I-196J-38D01*
G02X112381Y215973I-59J1799D01*
G03X112114Y215970I-132J-150D01*
G02X111491Y215600I-1214J1330D01*
G03X111361Y215369I66J-189D01*
G02X109957Y213230I-1761J-374D01*
G03X109796Y213026I40J-196D01*
G02X109792Y212804I-1798J-78D01*
G03X110134Y212376I399J-32D01*
G02X110050Y208803I-259J-1781D01*
G03X109870Y208597I20J-199D01*
G02X109841Y208203I-1799J-68D01*
G03X110004Y207969I197J-36D01*
G02X110084Y204436I-304J-1774D01*
G03X109927Y204223I43J-195D01*
G02X109908Y203764I-1793J-157D01*
G03X110055Y203537I197J-34D01*
G02X107825Y202097I-455J-1742D01*
G03X107679Y202324I-197J34D01*
G02X107750Y205825I455J1742D01*
G03X107907Y206038I-43J195D01*
G02X107930Y206521I1793J157D01*
G03X107767Y206754I-197J36D01*
G02X107895Y210320I304J1774D01*
G37*
G36*
G01X55924Y193100D02*
G03X55351Y193027I-251J-311D01*
G02X52577Y192885I-1446J1073D01*
G03X52004Y192903I-295J-270D01*
G02X52084Y195415I-1249J1297D01*
G03X52657Y195397I295J270D01*
G02X55037Y195500I1249J-1297D01*
G03X55610Y195573I251J311D01*
G02X58247Y195849I1446J-1073D01*
G03X58531Y195869I132J150D01*
G02X61328Y195796I1369J-1169D01*
G03X61956Y195788I317J244D01*
G02X61926Y193558I1398J-1134D01*
G03X61298Y193566I-317J-244D01*
G02X58708Y193351I-1398J1134D01*
G03X58424Y193331I-132J-150D01*
G02X55924Y193100I-1369J1169D01*
G37*
G36*
G01X77599Y194696D02*
G03X78199Y194496I377J132D01*
G02X77501Y192404I1001J-1496D01*
G03X76901Y192604I-377J-132D01*
G02X74552Y192906I-1001J1496D01*
G03X73970Y192925I-299J-265D01*
G02X71560Y192807I-1271J1275D01*
G03X71033Y192788I-253J-310D01*
G02X70940Y195493I-1233J1312D01*
G03X71467Y195512I253J310D01*
G02X74048Y195394I1233J-1312D01*
G03X74630Y195375I299J265D01*
G02X77599Y194696I1271J-1275D01*
G37*
G36*
G01X108469Y194023D02*
G03X108313Y193500I202J-345D01*
G02X105791Y194254I-1613J-800D01*
G03X105948Y194777I-202J345D01*
G02X106056Y196566I1613J800D01*
G03X105972Y197098I-334J220D01*
G02X108601Y197514I1125J1406D01*
G03X108685Y196982I334J-220D01*
G02X108469Y194023I-1125J-1406D01*
G37*
G36*
G01X136377Y189941D02*
G03X136230Y190161I-198J27D01*
G02X135284Y193017I465J1739D01*
G03X135274Y193277I-157J124D01*
G02X138008Y193381I1323J1221D01*
G03X138018Y193121I157J-124D01*
G02X138479Y191659I-1323J-1221D01*
G03X138626Y191439I198J-27D01*
G02X138825Y188027I-465J-1739D01*
G03X138703Y187797I74J-186D01*
G02X136283Y189073I-1756J-397D01*
G03X136405Y189304I-74J186D01*
G02X136377Y189941I1756J396D01*
G37*
G36*
G01X187261Y183570D02*
G03X186801Y183310I-82J-391D01*
G02X183339Y183525I-1701J590D01*
G03X182785Y183807I-391J-83D01*
G02X180281Y185786I-735J1643D01*
G03X179981Y186249I-393J74D01*
G02X182169Y187664I419J1751D01*
G03X182469Y187201I393J-74D01*
G02X183811Y185825I-419J-1751D01*
G03X184365Y185543I391J83D01*
G02X185471Y185662I735J-1643D01*
G03X185931Y185922I82J391D01*
G02X187261Y183570I1701J-590D01*
G37*
G36*
G01X179038Y179407D02*
G03X178603Y178971I-36J-398D01*
G02X176974Y180593I-1792J-171D01*
G03X177408Y181029I36J398D01*
G02X179038Y179407I1792J171D01*
G37*
G36*
G01X74101Y163462D02*
G03X73887Y163610I-193J-51D01*
G02X73126Y167106I-187J1790D01*
G03X73363Y167652I-127J379D01*
G02X75574Y166694I1637J748D01*
G03X75337Y166148I127J-379D01*
G02X75440Y165862I-1637J-748D01*
G03X75654Y165715I193J51D01*
G02X74101Y163462I187J-1790D01*
G37*
G36*
G01X155533Y163358D02*
G03X155689Y163566I-43J195D01*
G02X157062Y165430I1797J115D01*
G03X157214Y165641I-47J194D01*
G02X158392Y167479I1794J147D01*
G03X158519Y167706I-69J188D01*
G02X160391Y169850I1766J347D01*
G03X160811Y170204I23J399D01*
G02X161698Y171558I1789J-204D01*
G03X161778Y171818I-100J173D01*
G02X163040Y174364I1622J782D01*
G03X163199Y174578I-40J196D01*
G02X164667Y176518I1792J169D01*
G03X164831Y176720I-36J197D01*
G02X167318Y178429I1800J45D01*
G03X167565Y178510I76J185D01*
G02X168840Y179354I1537J-937D01*
G03X169011Y179550I-29J198D01*
G02X171073Y177752I1800J-18D01*
G03X170902Y177556I29J-198D01*
G02X168415Y175909I-1800J18D01*
G03X168168Y175828I-76J-185D01*
G02X166955Y174994I-1537J937D01*
G03X166791Y174793I36J-197D01*
G02X165351Y172984I-1800J-45D01*
G03X165192Y172769I40J-196D01*
G02X164302Y171042I-1792J-169D01*
G03X164222Y170782I100J-173D01*
G02X162495Y168203I-1622J-782D01*
G03X162075Y167849I-23J-399D01*
G02X160903Y166361I-1789J204D01*
G03X160775Y166135I69J-188D01*
G02X159432Y164038I-1766J-347D01*
G03X159279Y163827I47J-194D01*
G02X157877Y161924I-1794J-147D01*
G03X157721Y161716I43J-195D01*
G02X157418Y160595I-1797J-115D01*
G03X157462Y160324I166J-112D01*
G02X158133Y159255I-1093J-1430D01*
G03X158613Y158946I392J80D01*
G02X157247Y156828I398J-1756D01*
G03X156767Y157138I-392J-80D01*
G02X154876Y159900I-397J1756D01*
G03X154832Y160170I-166J112D01*
G02X155533Y163358I1093J1430D01*
G37*
G36*
G01X139415Y157387D02*
G03X139497Y156815I314J-247D01*
G02X137035Y156463I-1047J-1465D01*
G03X136953Y157036I-314J247D01*
G02X136331Y157825I1047J1465D01*
G03X136100Y157945I-185J-75D01*
G02X137362Y160373I-408J1753D01*
G03X137592Y160254I185J75D01*
G02X139415Y157387I408J-1753D01*
G37*
G36*
G01X77490Y150446D02*
G03X77300Y150241I10J-200D01*
G02X75413Y151998I-1800J-41D01*
G03X75603Y152203I-10J200D01*
G02X77490Y150446I1800J41D01*
G37*
G36*
G01X196308Y150065D02*
G03X196438Y149840I197J-36D01*
G02X194071Y148467I-596J-1699D01*
G03X193941Y148692I-197J36D01*
G02X196308Y150065I596J1699D01*
G37*
G36*
G01X92515Y147465D02*
G03X91950Y147195I-175J-360D01*
G02X88398Y147506I-1754J403D01*
G03X87930Y147880I-399J-20D01*
G02X86201Y148542I-312J1773D01*
G03X85668Y148630I-315J-247D01*
G02X82938Y149702I-983J1508D01*
G03X82428Y149986I-388J-97D01*
G02X83623Y152136I-551J1714D01*
G03X84134Y151852I388J97D01*
G02X84522Y151931I551J-1714D01*
G03X84704Y152118I-18J199D01*
G02X88238Y151532I1796J-118D01*
G03X88350Y151297I193J-52D01*
G02X88875Y150941I-732J-1645D01*
G03X89545Y151140I279J286D01*
G02X89756Y151671I1757J-392D01*
G03X89712Y151927I-172J102D01*
G02X92409Y152389I1151J1384D01*
G03X92453Y152132I172J-102D01*
G02X92648Y151944I-1151J-1384D01*
G03X93297Y152018I299J266D01*
G02X93706Y152522I1579J-864D01*
G03X93745Y152781I-130J152D01*
G02X96434Y152380I1518J967D01*
G03X96395Y152121I130J-152D01*
G02X95255Y149394I-1518J-967D01*
G03X95098Y149187I42J-196D01*
G02X92515Y147465I-1797J-102D01*
G37*
G36*
G01X188658Y147688D02*
G03X188523Y147463I62J-190D01*
G02X186192Y148862I-1773J-313D01*
G03X186327Y149087I-62J190D01*
G02X188658Y147688I1773J313D01*
G37*
G36*
G01X163498Y146918D02*
G03X163898Y146500I400J-18D01*
G02X162102Y144782I2J-1800D01*
G03X161702Y145200I-400J18D01*
G02X163498Y146918I-2J1800D01*
G37*
G36*
G01X93138Y140133D02*
G03X93301Y140335I-37J197D01*
G02X94313Y142009I1799J54D01*
G03X94404Y142279I-87J180D01*
G02X96800Y141468I1608J808D01*
G03X96708Y141198I87J-180D01*
G02X95433Y138620I-1608J-809D01*
G03X95270Y138418I37J-197D01*
G02X92539Y136823I-1799J-54D01*
G03X91999Y136703I-207J-342D01*
G02X91932Y136609I-1498J998D01*
G03X92059Y136016I318J-242D01*
G02X89767Y135525I-860J-1582D01*
G03X89640Y136118I-318J242D01*
G02X91432Y139240I860J1582D01*
G03X91972Y139361I207J342D01*
G02X93138Y140133I1499J-997D01*
G37*
G36*
G01X148122Y133073D02*
G03X147764Y133509I-398J38D01*
G02X146145Y135310I181J1791D01*
G03X145787Y135710I-400J2D01*
G02X147777Y137490I190J1790D01*
G03X148134Y137090I400J-2D01*
G02X149737Y135127I-190J-1790D01*
G03X150095Y134691I398J-38D01*
G02X148122Y133073I-181J-1791D01*
G37*
G36*
G01X123223Y104212D02*
G03X123062Y104432I-199J24D01*
G02X125188Y105988I338J1768D01*
G03X125349Y105768I199J-24D01*
G02X123223Y104212I-338J-1768D01*
G37*
G36*
G01X74200Y61497D02*
Y60174D01*
G02X71800I-1200J-4174D01*
G01Y60503D01*
X70105Y62198D01*
X69975Y62132D01*
G02X71800Y63897I-1975J3868D01*
G01X74200Y61497D01*
G37*
G36*
G01X81918Y250259D02*
G02X80718Y249359I382J-1759D01*
G03X80282Y249941I-352J191D01*
G02X81482Y250841I-382J1759D01*
G03X81918Y250259I352J-191D01*
G37*
G36*
G01X136888Y179272D02*
G02X135280Y179288I-819J-1603D01*
G03X135287Y180003I-175J360D01*
G02X136895Y179988I819J1603D01*
G03X136888Y179272I175J-360D01*
G37*
G36*
G01X175158Y170895D02*
G02X173642Y169802I143J-1795D01*
G03X173242Y170357I-368J156D01*
G02X174758Y171449I-143J1795D01*
G03X175158Y170895I368J-156D01*
G37*
G36*
G01X41317Y165927D02*
G02X38765Y166009I-1317J-1227D01*
G03X38783Y166573I-275J291D01*
G02X39422Y169468I1317J1227D01*
G03X39586Y170086I-151J371D01*
G02X42730Y170703I1414J1114D01*
G03X43148Y170194I384J-110D01*
G02X44917Y169191I152J-1794D01*
G03X45590Y169119I359J176D01*
G02X47787Y166381I1410J-1119D01*
G03X47595Y165862I175J-360D01*
G02X45157Y166763I-1651J-718D01*
G03X45349Y167282I-175J360D01*
G02X45264Y167524I1651J718D01*
G03X44894Y167564I-193J-53D01*
G02X42214Y166964I-1594J837D01*
G03X41632Y166855I-241J-319D01*
G02X41335Y166491I-1532J945D01*
G03X41317Y165927I275J-291D01*
G37*
G36*
G01X138096Y137872D02*
G02X137123Y139601I-1796J128D01*
G03X137704Y139928I183J356D01*
G02X138399Y141225I1796J-128D01*
G03X138386Y141868I-245J317D01*
G02X137639Y143554I1040J1469D01*
G03X137495Y143770I-199J24D01*
G02X136497Y144490I491J1732D01*
G03X136246Y144559I-165J-112D01*
G02X134537Y147722I-769J1628D01*
G03X134599Y148357I-209J341D01*
G02X136758Y148147I1219J1325D01*
G03X136696Y147512I209J-341D01*
G02X136966Y147198I-1219J-1325D01*
G03X137217Y147130I165J112D01*
G02X139773Y145286I768J-1628D01*
G03X139917Y145069I199J-24D01*
G02X140526Y141913I-491J-1732D01*
G03X140540Y141270I245J-317D01*
G02X138677Y138199I-1040J-1469D01*
G03X138096Y137872I-183J-356D01*
G37*
G36*
G01X94928Y129670D02*
G02X93702Y128057I572J-1707D01*
G03X93176Y128457I-399J21D01*
G02X92639Y131963I-572J1707D01*
G03X93047Y132363I8J400D01*
G02X94812Y130564I1800J0D01*
G03X94404Y130164I-8J-400D01*
G02X94401Y130070I-1800J0D01*
G03X94928Y129670I399J-21D01*
G37*
G36*
G01X52681Y118074D02*
G02X51083Y118155I-881J-1570D01*
G03X51119Y118871I-159J367D01*
G02X52717Y118790I881J1570D01*
G03X52681Y118074I159J-367D01*
G37*
G36*
G01X95613Y109021D02*
G02X92628Y110464I-1798J89D01*
G03X92517Y111135I-264J301D01*
G02X93767Y114509I683J1665D01*
G03X94017Y114769I63J190D01*
G02X93948Y114995I1686J632D01*
G03X93530Y115305I-390J-90D01*
G02X91877Y116140I-130J1796D01*
G03X91259Y116213I-338J-213D01*
G02X88503Y116500I-1259J1287D01*
G03X88233Y116560I-166J-111D01*
G02X86351Y119630I-933J1540D01*
G03X86388Y120284I-211J340D01*
G02X88449Y120170I1112J1416D01*
G03X88412Y119516I211J-340D01*
G02X88797Y119100I-1112J-1416D01*
G03X89067Y119040I166J111D01*
G02X91523Y118460I933J-1540D01*
G03X92141Y118387I338J213D01*
G02X95154Y117505I1259J-1287D01*
G03X95573Y117195I390J90D01*
G02X95421Y113622I130J-1795D01*
G03X94966Y113149I-63J-395D01*
G02X94972Y113117I-1766J-347D01*
G03X95408Y112790I394J71D01*
G02X95791Y109210I192J-1790D01*
G03X95613Y109021I21J-199D01*
G37*
G36*
G01X129998Y90882D02*
G02X128202Y92600I-1798J-82D01*
G03X128602Y93018I0J400D01*
G02X128611Y93302I1798J82D01*
G03X128029Y93702I-397J45D01*
G02X127040Y97093I-829J1598D01*
G03X127404Y97519I-35J398D01*
G02X127400Y97692I1796J125D01*
G03X126982Y98102I-400J11D01*
G02X128700Y99853I-82J1798D01*
G03X129118Y99443I400J-11D01*
G02X129360Y95851I82J-1798D01*
G03X128996Y95425I35J-398D01*
G02X128989Y95098I-1796J-125D01*
G03X129571Y94698I397J-45D01*
G02X130398Y91300I829J-1598D01*
G03X129998Y90882I0J-400D01*
G37*
G36*
G01X204549Y92143D02*
G02X203241Y90784I450J-1743D01*
G03X202750Y91257I-391J85D01*
G02X204059Y92616I-450J1743D01*
G03X204549Y92143I391J-85D01*
G37*
G36*
G01X294811Y28243D02*
G02X292165I-1323J-2432D01*
G03Y28946I-191J351D01*
G02X294811I1323J2432D01*
G03Y28243I191J-351D01*
G37*
G54D30*
X53000Y56000D03*
G54D40*
X357000Y403000D03*
G54D39*
X349520Y390043D03*
X364480D03*
G54D32*
X77000Y407000D03*
X147000D03*
X217000D03*
X287000D03*
G54D26*
X48472Y32220D03*
X92016D03*
G54D31*
X61055Y391055D03*
X92945D03*
X131055D03*
X162945D03*
X201055D03*
X232945D03*
X271055D03*
X302945D03*
G54D24*
X20000Y20000D03*
Y407000D03*
X414000Y20000D03*
Y407000D03*
G54D25*
X8000Y77100D03*
X31716Y69984D03*
X24000Y72900D03*
X15000Y74200D03*
X30200Y121800D03*
X30540Y128740D03*
X30000Y242000D03*
Y256000D03*
Y273000D03*
Y296000D03*
Y329000D03*
Y369000D03*
X33242Y138158D03*
X45900Y175300D03*
X47606Y226800D03*
X60886Y91800D03*
X64914D03*
X58714Y110100D03*
X54686D03*
X53905Y141300D03*
X65900Y152800D03*
X59000Y168000D03*
X61137Y265863D03*
X82000Y90600D03*
X75200Y91400D03*
X67685Y104900D03*
X82000Y125700D03*
X81113Y142313D03*
X71200Y177000D03*
X71600Y238100D03*
X70732Y289716D03*
X74622Y320322D03*
X70100Y311000D03*
X82000Y349500D03*
X95000Y89900D03*
X88600Y193700D03*
X94284Y289716D03*
X95882Y299882D03*
X99000Y311300D03*
Y338000D03*
X95300Y344000D03*
X95649Y366000D03*
X110984Y69984D03*
X112000Y106800D03*
X111500Y143200D03*
X111200Y185000D03*
X110900Y190000D03*
X115000Y262800D03*
X101239Y265161D03*
X101028Y278022D03*
X105200Y318000D03*
X104000Y422500D03*
X121300Y77000D03*
X132000Y83400D03*
X124011Y129000D03*
X133500Y124600D03*
X122327Y152000D03*
X117500Y185000D03*
X117400Y178000D03*
X118000Y170000D03*
X117300Y189900D03*
X117900Y195000D03*
X130000Y205000D03*
X125000Y262000D03*
X151000Y87000D03*
X136516Y105016D03*
X148216D03*
X137639Y118181D03*
X142039Y118039D03*
X135795Y169795D03*
X143577Y191938D03*
X151000Y235700D03*
X148682Y258482D03*
X148780Y267720D03*
X140716Y289716D03*
X144638Y320322D03*
X140000Y311000D03*
X153000Y35000D03*
X160916Y86984D03*
X163684Y110984D03*
X159756Y131200D03*
X156300Y259400D03*
X158939Y265161D03*
X165882Y299882D03*
X164284Y289716D03*
X152000Y349800D03*
X165456Y344000D03*
X165600Y366000D03*
X181400Y113697D03*
X173900Y212222D03*
X176400Y253000D03*
X171028Y278022D03*
X169000Y310400D03*
X175500Y317300D03*
X169000Y338000D03*
X174000Y422900D03*
X190600Y93000D03*
X195000Y90000D03*
X193000Y201600D03*
X195800Y219000D03*
X195600Y213000D03*
X187300Y263200D03*
X200000Y264726D03*
X195400Y271000D03*
X208900Y42600D03*
X216500Y32000D03*
X208900Y51000D03*
X219200Y90476D03*
X208000Y117000D03*
X203100Y144500D03*
X219447Y154047D03*
X211800Y219500D03*
X211600Y223900D03*
X219600Y256900D03*
X218120Y267720D03*
X210716Y289716D03*
X214622Y320322D03*
X210000Y311000D03*
X220000Y173732D03*
Y199323D03*
X223000Y265000D03*
X227400Y273200D03*
X223100Y275500D03*
X235882Y299882D03*
X234284Y289716D03*
X235400Y344000D03*
X222000Y349600D03*
X235649Y366000D03*
X243000Y74000D03*
X243500Y228900D03*
X242339Y265161D03*
X241028Y278022D03*
X239000Y310700D03*
X245750Y318450D03*
X239000Y338000D03*
X244000Y422700D03*
X269646Y81646D03*
X262500Y88019D03*
X265500Y215400D03*
X256992Y231500D03*
X270134Y225000D03*
X255000Y262500D03*
X264000Y262300D03*
X287500Y215300D03*
X280992Y231408D03*
X280784Y289716D03*
X284638Y320338D03*
X280200Y311000D03*
X298500Y88100D03*
X292500Y225200D03*
X290900Y251500D03*
X300320Y270280D03*
X301139Y265161D03*
X289320Y267720D03*
X304284Y289716D03*
X292000Y349800D03*
X305646Y81946D03*
X314992Y225000D03*
Y231000D03*
X307316Y224508D03*
X311028Y278022D03*
X305882Y299882D03*
X309000Y310500D03*
X315400Y318100D03*
X309000Y338000D03*
X305200Y344000D03*
X305649Y366000D03*
X314000Y422600D03*
X334500Y88000D03*
X324500Y138900D03*
X329316Y224508D03*
X336992Y231000D03*
Y225000D03*
X325000Y261900D03*
X329184Y290984D03*
X329000Y301000D03*
X339000Y311585D03*
X341646Y81854D03*
X351311Y224502D03*
X349600Y264000D03*
X344500Y291000D03*
X343739Y351339D03*
X342000Y363600D03*
Y376300D03*
X363025Y100025D03*
X368000Y121000D03*
X367016Y217978D03*
X358992Y231000D03*
Y225000D03*
X367016Y224000D03*
X371984Y268984D03*
X371000Y285000D03*
X358000Y339000D03*
X365793Y368900D03*
X381000Y203000D03*
X373400Y344000D03*
X375400Y368900D03*
X399000Y250000D03*
Y265000D03*
Y270000D03*
Y255000D03*
Y260000D03*
Y275000D03*
X421000Y245000D03*
G54D38*
X309000Y14000D03*
G54D28*
X54437Y12929D03*
X86602D03*
X178000Y23654D03*
Y33654D03*
Y43654D03*
X297189Y14000D03*
Y43189D03*
Y55000D03*
X309000Y43189D03*
G54D41*
X79961Y378000D03*
X99961D03*
X149961D03*
X169961D03*
X219961D03*
X239961D03*
X289961D03*
X309961D03*
G54D35*
X188000Y23654D03*
Y33654D03*
Y43654D03*
X309000Y55000D03*
G54D37*
X293488Y66811D03*
G54D36*
X208651Y5524D03*
Y17335D03*
G54D27*
X38945Y43835D03*
X101937D03*
X88000Y66000D03*
G54D29*
X58000D03*
X63000Y56000D03*
X78000Y66000D03*
X83000Y56000D03*
G54D33*
X135000Y58000D03*
X145000D03*
X155000D03*
X165000D03*
X175000D03*
X185000D03*
X195000D03*
X205000D03*
X215000D03*
G54D34*
X135000Y68000D03*
X145000D03*
X155000D03*
X165000D03*
X175000D03*
X185000D03*
X195000D03*
X205000D03*
X215000D03*
X225000Y58000D03*
Y68000D03*
%LPD*%
G75*
G54D10*
X20000Y20000D03*
Y407000D03*
X414000Y20000D03*
Y407000D03*
G54D20*
X188000Y23654D03*
Y33654D03*
Y43654D03*
X309000Y14000D03*
Y55000D03*
G54D11*
X4566Y18412D03*
Y38412D03*
Y58412D03*
X8000Y77100D03*
X4566Y78412D03*
X5100Y95900D03*
X3700Y103500D03*
Y111100D03*
X5700Y119400D03*
X9000Y114300D03*
X4566Y138412D03*
Y158412D03*
Y178412D03*
Y198412D03*
Y218412D03*
Y238412D03*
Y258412D03*
Y278412D03*
Y298412D03*
Y318412D03*
Y338412D03*
Y358412D03*
Y378412D03*
Y398412D03*
Y418412D03*
X24000Y72900D03*
X15000Y74200D03*
X14200Y92400D03*
X11000Y87000D03*
X26500Y102400D03*
X23600Y96200D03*
X18843Y99400D03*
X11016Y121216D03*
X21000Y121200D03*
X16300Y138000D03*
X31716Y69984D03*
X33000Y73800D03*
X42300Y77600D03*
X35700Y109700D03*
X30200Y121800D03*
X30540Y128740D03*
X36000Y117100D03*
X33242Y138158D03*
X35400Y135600D03*
X40000Y164700D03*
X40100Y167800D03*
X43300Y168400D03*
X41000Y171200D03*
X30000Y242000D03*
Y256000D03*
Y273000D03*
Y296000D03*
Y329000D03*
Y369000D03*
X60886Y91800D03*
X53905Y93506D03*
X58714Y110100D03*
X54686D03*
X52000Y120441D03*
X51800Y116504D03*
X53905Y141300D03*
X45944Y165144D03*
X59000Y168000D03*
X47000D03*
X45900Y175300D03*
X56800Y174900D03*
X51100Y164000D03*
X50756Y194200D03*
X57055Y194500D03*
X53905Y194100D03*
X59900Y194700D03*
X55738Y209430D03*
X54400Y207200D03*
X57700Y223900D03*
X60500Y224600D03*
X47606Y226800D03*
X60900Y243400D03*
X61137Y265863D03*
X54132Y270268D03*
X56216Y306984D03*
X56100Y328000D03*
Y345000D03*
X74000Y77500D03*
X64914Y91800D03*
X75200Y91400D03*
X67900Y91926D03*
X78500Y92700D03*
X67685Y104900D03*
X65900Y152800D03*
X75500Y150200D03*
X77403Y152244D03*
X68400Y163400D03*
X73700Y165400D03*
X75841Y163924D03*
X75000Y168400D03*
X71200Y177000D03*
Y171800D03*
X78600Y177000D03*
X72700Y194200D03*
X69800Y194100D03*
X75900D03*
X63354Y194654D03*
X66504Y194696D03*
X76200Y226500D03*
X65594Y226413D03*
X73000Y226200D03*
X63094Y224781D03*
X69800Y226100D03*
X71600Y238100D03*
X69800Y260043D03*
X78720Y270280D03*
X78120Y267720D03*
X69116Y299861D03*
X70732Y289716D03*
X69441Y302441D03*
X70100Y311000D03*
X74622Y320322D03*
X69500Y345000D03*
X95000Y89900D03*
X82000Y90600D03*
X95000Y83300D03*
X82000Y83848D03*
X93200Y112800D03*
X95600Y111000D03*
X93815Y109110D03*
X90500Y110600D03*
X87500Y121700D03*
X90000Y117500D03*
X95703Y115400D03*
X95500Y127964D03*
X87300Y118100D03*
X93400Y117100D03*
X82000Y125700D03*
X92400Y127500D03*
X95100Y140390D03*
X92604Y130164D03*
X91199Y134434D03*
X93471Y138364D03*
X94847Y132364D03*
X90500Y137700D03*
X81113Y142313D03*
X90300Y145000D03*
X86500Y152000D03*
X90863Y153311D03*
X84685Y150139D03*
X93300Y149085D03*
X81876Y151700D03*
X90196Y147598D03*
X95263Y153748D03*
X91302Y150748D03*
X87618Y149652D03*
X94877Y151154D03*
X79496Y166159D03*
X79200Y193000D03*
X88600Y193700D03*
X79200Y227700D03*
X82300Y248500D03*
X79168Y265161D03*
X79900Y251700D03*
X89100Y273800D03*
X90000Y277612D03*
X79239Y272839D03*
X88300Y270954D03*
X94284Y289716D03*
X80676Y298135D03*
X82676D03*
X84676D03*
X80676Y300135D03*
X82676D03*
X84676D03*
X82700Y292000D03*
X82400Y285000D03*
X79000Y313800D03*
X80676Y302135D03*
X82676D03*
X84676D03*
X80676Y304135D03*
X82676D03*
X84676D03*
X81960Y324607D03*
X84960D03*
X87960D03*
X78960D03*
X87960Y333607D03*
X84960D03*
X81960D03*
X78960D03*
X87960Y330607D03*
X84960D03*
X81960D03*
X78960D03*
X87960Y327607D03*
X84960D03*
X81960D03*
X78960D03*
X95300Y344000D03*
X82000Y349500D03*
X87960Y336607D03*
X84960D03*
X81960D03*
X78960D03*
X87000Y347000D03*
X95400Y350000D03*
X95649Y366000D03*
X110984Y69984D03*
X100000Y83500D03*
X107000Y81100D03*
X112000Y106800D03*
X96013Y143087D03*
X111500Y143200D03*
X108609Y140100D03*
X110300Y178000D03*
X110900Y171137D03*
X107560Y195577D03*
X106700Y192700D03*
X110300Y193800D03*
X111200Y185000D03*
X110900Y190000D03*
X109874Y210595D03*
X109700Y206195D03*
X107998Y212947D03*
X109600Y214995D03*
Y201795D03*
X108134Y204066D03*
X108071Y208529D03*
X107096Y198504D03*
X110900Y217300D03*
X101239Y265161D03*
X101028Y278022D03*
X110994Y275268D03*
X95882Y299882D03*
X99000Y311300D03*
X96300Y316000D03*
X105200Y318000D03*
X111800Y328000D03*
X99000Y338000D03*
X111500Y345000D03*
X98732Y349768D03*
X104000Y422500D03*
X121300Y77000D03*
X127200Y95300D03*
X128200Y90800D03*
X129000Y87000D03*
X125011Y104000D03*
X129200Y97644D03*
X123400Y106200D03*
X126900Y99900D03*
X117511Y109511D03*
X124011Y129000D03*
X117550Y122450D03*
X122327Y152000D03*
X116700Y148100D03*
X117400Y178000D03*
X118000Y170000D03*
X117300Y189900D03*
X117500Y185000D03*
X117900Y195000D03*
X120498Y215498D03*
X113570Y217324D03*
X118100Y216700D03*
X115600Y215700D03*
X115000Y262800D03*
X125000Y262000D03*
Y273988D03*
X116100Y283000D03*
X126400Y306984D03*
X126600Y328000D03*
X126000Y345000D03*
X132000Y83400D03*
X130400Y93100D03*
X136516Y105016D03*
X133500Y124600D03*
X137639Y118181D03*
X142039Y118039D03*
X135477Y146187D03*
X145976Y137500D03*
X139426Y143337D03*
X136300Y138000D03*
X137986Y145502D03*
X139500Y139800D03*
X135818Y149682D03*
X138450Y155350D03*
X135693Y159699D03*
X138000Y158500D03*
X136069Y177669D03*
X135795Y169795D03*
X136489Y173600D03*
X136695Y191900D03*
X136947Y187400D03*
X136106Y181606D03*
X143577Y191938D03*
X144900Y189700D03*
X138161D03*
X136596Y194498D03*
X130000Y205000D03*
X133000Y202000D03*
X137000Y262900D03*
X139116Y299861D03*
X140716Y289716D03*
X139441Y302441D03*
X140000Y311000D03*
X144638Y320322D03*
X139300Y345000D03*
X153000Y35000D03*
X160916Y86984D03*
X151000Y87000D03*
X163684Y110984D03*
X163300Y107500D03*
X148216Y105016D03*
X163900Y144700D03*
X147945Y135300D03*
X149913Y132900D03*
X159756Y131200D03*
X155500Y131300D03*
X155925Y161601D03*
X157485Y163680D03*
X156369Y158894D03*
X161700Y147000D03*
X159010Y157190D03*
X163400Y172600D03*
X160286Y168052D03*
X162600Y170000D03*
X159008Y165788D03*
X154800Y231800D03*
X151000Y235700D03*
X161300Y235100D03*
X156500D03*
X151300Y260800D03*
X156300Y259400D03*
X148682Y258482D03*
X158939Y265161D03*
X159500Y273300D03*
X160200Y277412D03*
X149700Y273200D03*
X157100Y275602D03*
X148780Y267720D03*
X150676Y298135D03*
Y300135D03*
X152676Y298135D03*
X154676D03*
X152676Y300135D03*
X154676D03*
X152300Y292000D03*
X152500Y285000D03*
X149000Y313900D03*
X150676Y302135D03*
Y304135D03*
X152676Y302135D03*
X154676D03*
X152676Y304135D03*
X154676D03*
X148960Y324507D03*
Y327507D03*
Y330507D03*
Y333507D03*
X151960Y324507D03*
X154960D03*
X157960D03*
X151960Y327507D03*
X154960D03*
X157960D03*
X151960Y330507D03*
X154960D03*
X157960D03*
X151960Y333507D03*
X154960D03*
X157960D03*
X152000Y349800D03*
X148960Y336507D03*
X151960D03*
X154960D03*
X157960D03*
X157000Y347000D03*
X175400Y112500D03*
X176811Y178800D03*
X164991Y174747D03*
X166631Y176765D03*
X170811Y179532D03*
X175300Y169100D03*
X169102Y177573D03*
X173100Y172152D03*
X179200Y181200D03*
X180400Y188000D03*
X173900Y212222D03*
X170400Y214700D03*
X176900Y212800D03*
X175500Y219000D03*
X169700Y218500D03*
X175600Y223800D03*
X172500Y225816D03*
X171800Y235100D03*
X166500D03*
X176400Y253000D03*
X171028Y278022D03*
X165882Y299882D03*
X164284Y289716D03*
X169000Y310400D03*
X165700Y316000D03*
X175500Y317300D03*
X165456Y344000D03*
X169000Y338000D03*
X168732Y349868D03*
X166000Y350000D03*
X165600Y366000D03*
X174000Y422900D03*
X195931Y15169D03*
X190600Y93000D03*
X195000Y90000D03*
X185000Y90100D03*
X181000Y101700D03*
X181400Y113697D03*
X186750Y147150D03*
X188100Y149400D03*
X195842Y148142D03*
X194537Y150391D03*
X185100Y183900D03*
X187631Y185331D03*
X182050Y185450D03*
X193000Y201600D03*
X195600Y213000D03*
X195800Y219000D03*
X193000Y225300D03*
X187300Y263200D03*
X191298Y251987D03*
X181700Y252900D03*
X188700Y250400D03*
X184000D03*
X185700Y283000D03*
X180994Y275268D03*
X195400Y271000D03*
X195616Y306984D03*
X196100Y328000D03*
X181700D03*
X195600Y345000D03*
X181600D03*
X208900Y42600D03*
Y51000D03*
X202300Y93000D03*
X205000Y90400D03*
X208000Y101900D03*
X203000D03*
X208000Y117000D03*
X205032Y128269D03*
X203100Y144500D03*
X211600Y223900D03*
X211800Y219500D03*
X205300Y242600D03*
X202700Y240300D03*
X200000Y238000D03*
X209700Y260100D03*
X200000Y264726D03*
Y274900D03*
X209116Y299861D03*
X210716Y289716D03*
X209441Y302441D03*
X210000Y311000D03*
X214622Y320322D03*
X209600Y345000D03*
X222100Y3358D03*
X222269Y15169D03*
X216100Y26000D03*
X216500Y32000D03*
X219200Y90476D03*
X219447Y154047D03*
X230000Y150300D03*
X220000Y150500D03*
Y173732D03*
X230000Y169900D03*
X220700Y169700D03*
X230000Y194700D03*
Y184100D03*
X220000Y199323D03*
X219600Y264200D03*
X223000Y265000D03*
X219600Y256900D03*
X227400Y273200D03*
X229200Y278000D03*
X219700Y276200D03*
X223100Y275500D03*
X218120Y267720D03*
X222600Y292000D03*
X220676Y298135D03*
Y300135D03*
X222676Y298135D03*
X224676D03*
X222676Y300135D03*
X224676D03*
X222400Y285000D03*
X219000Y314000D03*
X220676Y302135D03*
Y304135D03*
X222676Y302135D03*
X224676D03*
X222676Y304135D03*
X224676D03*
X218959Y324607D03*
Y327607D03*
Y330607D03*
Y333607D03*
X221960Y324607D03*
X224959D03*
X227960D03*
X221960Y327607D03*
X224959D03*
X227960D03*
X221960Y330607D03*
X224959D03*
X227960D03*
X221960Y333607D03*
X224959D03*
X227960D03*
X222000Y349600D03*
X218959Y336607D03*
X221960D03*
X224959D03*
X227960D03*
X227000Y347300D03*
X243000Y74000D03*
X248592Y125992D03*
X249008Y196592D03*
X247000Y214000D03*
X243500Y228900D03*
X242339Y265161D03*
X241028Y278022D03*
X248000Y278100D03*
X235882Y299882D03*
X234284Y289716D03*
X239000Y310700D03*
X236300Y316000D03*
X245750Y318450D03*
X239000Y338000D03*
X235400Y344000D03*
X235600Y350000D03*
X238732Y348968D03*
X235649Y366000D03*
X244000Y422700D03*
X260000Y68000D03*
X262500Y88019D03*
X252008Y82200D03*
X255523Y100001D03*
X258523D03*
X261523D03*
X264523D03*
X255523Y103001D03*
X258523D03*
X261523D03*
X264523D03*
X255523Y106001D03*
X258523D03*
X261523D03*
X264523D03*
X261900Y135992D03*
X260000Y159000D03*
X256192Y177692D03*
X259866Y186066D03*
X263000Y211000D03*
X256992Y231500D03*
X265500Y215400D03*
X260500Y225000D03*
X251008Y231500D03*
X255000Y262500D03*
X264000Y262300D03*
X255100Y283000D03*
X265516Y306984D03*
X251700Y328000D03*
X265800Y345000D03*
X251500D03*
X269646Y81646D03*
X280000Y92000D03*
X278000Y114000D03*
X280000Y137000D03*
X278000Y179000D03*
X274100Y197800D03*
X280992Y231408D03*
X270134Y225000D03*
X275008Y231508D03*
X277000Y263379D03*
X270000Y274800D03*
X279116Y299861D03*
X280784Y289716D03*
X279441Y302441D03*
X280200Y311000D03*
X266200Y328000D03*
X279800Y345000D03*
X297000Y75000D03*
X298500Y88100D03*
X288008Y81800D03*
X291523Y100001D03*
X294523D03*
X297523D03*
X291523Y103001D03*
X294523D03*
X297523D03*
X291523Y106001D03*
X294523D03*
X297523D03*
X283984Y125984D03*
X298000Y135992D03*
Y159000D03*
X283866Y185534D03*
X286000Y211000D03*
X287500Y215300D03*
X292500Y225200D03*
X284349Y225249D03*
X291400Y262600D03*
X290900Y251500D03*
X290000Y274100D03*
X294000Y268000D03*
X294900Y271000D03*
X289320Y267720D03*
X292500Y292000D03*
X290676Y298135D03*
Y300135D03*
X292676Y298135D03*
X294676D03*
X292676Y300135D03*
X294676D03*
X292500Y285000D03*
X288984Y313900D03*
X290676Y302135D03*
Y304135D03*
X292676Y302135D03*
X294676D03*
X292676Y304135D03*
X294676D03*
X288960Y324607D03*
Y327607D03*
Y330607D03*
Y333607D03*
X291960Y324607D03*
X294960D03*
X297960D03*
X291960Y327607D03*
X294960D03*
X297960D03*
X291960Y330607D03*
X294960D03*
X297960D03*
X291960Y333607D03*
X294960D03*
X297960D03*
X284638Y320338D03*
X292000Y349800D03*
X288960Y336607D03*
X291960D03*
X294960D03*
X297960D03*
X297000Y347200D03*
X305646Y81946D03*
X316000Y94000D03*
X300523Y100001D03*
Y103001D03*
Y106001D03*
X313000Y114000D03*
X315000Y137000D03*
X303941Y177841D03*
X316000Y184000D03*
X309000Y195100D03*
X305000D03*
X307000Y211000D03*
X304500Y214700D03*
X309008Y231858D03*
X314992Y225000D03*
Y231000D03*
X307316Y224508D03*
X301139Y265161D03*
X311028Y278022D03*
X300320Y270280D03*
X300698Y275398D03*
X305882Y299882D03*
X304284Y289716D03*
X309000Y310500D03*
X305700Y316000D03*
X315400Y318100D03*
X305200Y344000D03*
X309000Y338000D03*
X308732Y349332D03*
X305800Y350000D03*
X305649Y366000D03*
X314000Y422600D03*
X322000Y29800D03*
X321000Y67000D03*
X324000Y82000D03*
X330523Y100001D03*
X333523D03*
X330523Y103001D03*
X333523D03*
X330523Y106001D03*
X333523D03*
X327523Y100001D03*
Y103001D03*
Y106001D03*
X320708Y125992D03*
X324500Y138900D03*
X333000Y159000D03*
X331000Y195000D03*
X327000Y195100D03*
X331000Y212000D03*
X329316Y224508D03*
X331008Y231858D03*
X326500Y215400D03*
X325000Y261900D03*
X325200Y283000D03*
X320313Y275000D03*
X320500Y271500D03*
X329184Y290984D03*
X329200Y285000D03*
X329000Y301000D03*
X329900Y308000D03*
X321500Y328000D03*
X324060Y319740D03*
X323978Y345000D03*
X329583Y339778D03*
X329000Y356500D03*
X325000Y370000D03*
X334500Y88000D03*
X341646Y81854D03*
X350000Y92000D03*
X336523Y100001D03*
Y103001D03*
Y106001D03*
X347000Y128000D03*
X334400Y135992D03*
X336000Y176000D03*
X349000Y195022D03*
X350000Y211000D03*
X336992Y231000D03*
Y225000D03*
X348500Y215000D03*
X349600Y264000D03*
X335200Y279000D03*
X344500Y291000D03*
X339000Y311585D03*
X347900Y352638D03*
X343739Y351339D03*
X342000Y363600D03*
Y376300D03*
X353000Y68000D03*
X360200Y86000D03*
X367174Y101319D03*
Y103319D03*
Y105319D03*
X363025Y100025D03*
X368000Y121000D03*
X358000Y182000D03*
X353000Y195100D03*
X365100Y199200D03*
X351311Y224502D03*
X358992Y231000D03*
Y225000D03*
X367016Y224000D03*
Y217978D03*
X353008Y231858D03*
X368000Y265200D03*
X354900Y299500D03*
X359000Y317300D03*
X358000Y339000D03*
X365793Y368900D03*
X380981Y89300D03*
X369174Y101319D03*
X371174D03*
X369174Y103319D03*
X371174D03*
X369174Y105319D03*
X371174D03*
X371000Y135000D03*
Y160000D03*
X369100Y179000D03*
X369016Y195022D03*
X381000Y203000D03*
X375101Y223501D03*
X371984Y268984D03*
X371000Y285000D03*
X373400Y344000D03*
X375400Y368900D03*
X400000Y71000D03*
X389000Y76000D03*
X398000Y85000D03*
Y103000D03*
Y124000D03*
Y148000D03*
Y167000D03*
Y188000D03*
Y206000D03*
X397000Y226000D03*
X399000Y245000D03*
Y250000D03*
Y265000D03*
Y255000D03*
Y260000D03*
Y270000D03*
Y275000D03*
X430663Y19708D03*
Y39708D03*
Y59708D03*
Y79708D03*
Y99708D03*
Y119708D03*
Y139708D03*
Y159708D03*
Y179708D03*
Y199708D03*
Y219708D03*
X421000Y245000D03*
X430663Y239708D03*
Y259708D03*
X421000Y265000D03*
Y260000D03*
Y255000D03*
Y250000D03*
X430663Y279708D03*
X421000Y275000D03*
Y270000D03*
X430663Y299708D03*
Y319708D03*
Y339708D03*
Y359708D03*
Y379708D03*
Y399708D03*
Y419708D03*
G54D21*
X349520Y390043D03*
X357000Y403000D03*
X364480Y390043D03*
G54D12*
X48472Y32220D03*
X92016D03*
X208651Y5524D03*
Y17335D03*
X293488Y2189D03*
Y25811D03*
Y31378D03*
Y66811D03*
G54D22*
G01X73000Y56000D02*
Y61000D01*
X68000Y66000D01*
G54D13*
X44437Y12929D03*
X96602D03*
G54D23*
G01X6601Y20000D02*
X20000D01*
G01X6601Y407000D02*
X20000D01*
G01Y6601D02*
Y20000D01*
G01D02*
Y33399D01*
G01Y20000D02*
X33399D01*
G01X20000Y393601D02*
Y407000D01*
G01D02*
Y420399D01*
G01Y407000D02*
X33399D01*
G01X38945Y39491D02*
Y43835D01*
G01D02*
Y48178D01*
G01X34601Y43835D02*
X38945D01*
G01D02*
X43288D01*
G01X61055Y385530D02*
Y391055D01*
G01D02*
Y396580D01*
G01X55530Y391055D02*
X61055D01*
G01D02*
X66580D01*
G01X61055Y417420D02*
Y422945D01*
G01X55530D02*
X61055D01*
G01D02*
X66580D01*
G01X88000Y61656D02*
Y66000D01*
G01D02*
Y70343D01*
G01X83657Y66000D02*
X88000D01*
G01D02*
X92344D01*
G01X92945Y385530D02*
Y391055D01*
G01D02*
Y396580D01*
G01X87420Y391055D02*
X92945D01*
G01D02*
X98470D01*
G01X92945Y417420D02*
Y422945D01*
G01X87420D02*
X92945D01*
G01D02*
X98470D01*
G01X101937Y39491D02*
Y43835D01*
G01D02*
Y48178D01*
G01X97594Y43835D02*
X101937D01*
G01D02*
X106280D01*
G01X125531Y391055D02*
X131055D01*
G01X125531Y422945D02*
X131055D01*
G01X145000Y54050D02*
Y58000D01*
G01D02*
Y61950D01*
G01X141050Y58000D02*
X145000D01*
G01D02*
X148950D01*
G01X135000Y54050D02*
Y58000D01*
G01D02*
Y61950D01*
G01X131050Y58000D02*
X135000D01*
G01D02*
X138950D01*
G01X131055Y385530D02*
Y391055D01*
G01D02*
Y396580D01*
G01Y391055D02*
X136580D01*
G01X131055Y417420D02*
Y422945D01*
G01D02*
X136580D01*
G01X161050Y58000D02*
X165000D01*
G01X155000Y54050D02*
Y58000D01*
G01D02*
Y61950D01*
G01X151050Y58000D02*
X155000D01*
G01D02*
X158950D01*
G01X162945Y385530D02*
Y391055D01*
G01D02*
Y396580D01*
G01X157420Y391055D02*
X162945D01*
G01D02*
X168470D01*
G01X162945Y417420D02*
Y422945D01*
G01X157420D02*
X162945D01*
G01D02*
X168470D01*
G01X175000Y54050D02*
Y58000D01*
G01D02*
Y61950D01*
G01X171050Y58000D02*
X175000D01*
G01D02*
X178950D01*
G01X165000Y54050D02*
Y58000D01*
G01D02*
Y61950D01*
G01Y58000D02*
X168950D01*
G01X195000Y54050D02*
Y58000D01*
G01D02*
Y61950D01*
G01X191050Y58000D02*
X195000D01*
G01D02*
X198950D01*
G01X185000Y54050D02*
Y58000D01*
G01D02*
Y61950D01*
G01X181050Y58000D02*
X185000D01*
G01D02*
X188950D01*
G01X195530Y391055D02*
X201055D01*
G01X195530Y422945D02*
X201055D01*
G01X211050Y58000D02*
X215000D01*
G01X205000Y54050D02*
Y58000D01*
G01D02*
Y61950D01*
G01X201050Y58000D02*
X205000D01*
G01D02*
X208950D01*
G01X201055Y385530D02*
Y391055D01*
G01D02*
Y396580D01*
G01Y391055D02*
X206580D01*
G01X201055Y417420D02*
Y422945D01*
G01D02*
X206580D01*
G01X215000Y54050D02*
Y58000D01*
G01D02*
Y61950D01*
G01Y58000D02*
X218950D01*
G01X227420Y391055D02*
X232945D01*
G01X227420Y422945D02*
X232945D01*
G01Y385530D02*
Y391055D01*
G01D02*
Y396580D01*
G01Y391055D02*
X238470D01*
G01X232945Y417420D02*
Y422945D01*
G01D02*
X238470D01*
G01X265530Y391055D02*
X271055D01*
G01X265530Y422945D02*
X271055D01*
G01Y385530D02*
Y391055D01*
G01D02*
Y396580D01*
G01Y391055D02*
X276580D01*
G01X271055Y417420D02*
Y422945D01*
G01D02*
X276580D01*
G01X297420Y391055D02*
X302945D01*
G01X297420Y422945D02*
X302945D01*
G01X309000Y10247D02*
Y14000D01*
G01D02*
Y17753D01*
G01X305247Y14000D02*
X309000D01*
G01D02*
X312753D01*
G01X302945Y385530D02*
Y391055D01*
G01D02*
Y396580D01*
G01Y391055D02*
X308470D01*
G01X302945Y417420D02*
Y422945D01*
G01D02*
X308470D01*
G01X357000Y397278D02*
Y403000D01*
G01D02*
Y408722D01*
G01X351278Y403000D02*
X357000D01*
G01D02*
X362722D01*
G01X400601Y20000D02*
X414000D01*
G01X400601Y407000D02*
X414000D01*
G01Y6601D02*
Y20000D01*
G01D02*
Y33399D01*
G01Y20000D02*
X427399D01*
G01X414000Y393601D02*
Y407000D01*
G01D02*
Y420399D01*
G01Y407000D02*
X427399D01*
G54D14*
X38945Y43835D03*
X63000Y56000D03*
X58000Y66000D03*
X73000Y56000D03*
X78000Y66000D03*
X68000D03*
X83000Y56000D03*
X88000Y66000D03*
X101937Y43835D03*
G54D15*
X54437Y12929D03*
X86602D03*
X178000Y23654D03*
Y33654D03*
Y43654D03*
X297189Y14000D03*
Y43189D03*
Y55000D03*
X309000Y43189D03*
G54D16*
X53000Y56000D03*
G54D17*
X61055Y391055D03*
Y422945D03*
X77000Y407000D03*
X92945Y391055D03*
Y422945D03*
X131055Y391055D03*
Y422945D03*
X147000Y407000D03*
X162945Y391055D03*
Y422945D03*
X201055Y391055D03*
Y422945D03*
X217000Y407000D03*
X232945Y391055D03*
Y422945D03*
X271055Y391055D03*
Y422945D03*
X287000Y407000D03*
X302945Y391055D03*
Y422945D03*
G54D18*
X79961Y378000D03*
X99961D03*
X149961D03*
X169961D03*
X219961D03*
X239961D03*
X289961D03*
X309961D03*
G54D19*
X135000Y58000D03*
X145000D03*
X135000Y68000D03*
X145000D03*
X155000Y58000D03*
X165000D03*
X155000Y68000D03*
X165000D03*
X175000Y58000D03*
Y68000D03*
X185000Y58000D03*
X195000D03*
X185000Y68000D03*
X195000D03*
X205000Y58000D03*
X215000D03*
X205000Y68000D03*
X215000D03*
X225000Y58000D03*
Y68000D03*
M02*
