G04 ================== begin FILE IDENTIFICATION RECORD ==================*
G04 Layout Name:  E:/material/lool Inds Vibration/hardware/v1.0/pcb/vibration.brd*
G04 Film Name:    PASTEMASK_BOTTOM*
G04 File Format:  Gerber RS274X*
G04 File Origin:  Cadence Allegro 16.6-2015-S065*
G04 Origin Date:  Fri May 06 18:24:12 2016*
G04 *
G04 Layer:  VIA CLASS/PASTEMASK_BOTTOM*
G04 Layer:  PIN/PASTEMASK_BOTTOM*
G04 *
G04 Offset:    (0.000 0.000)*
G04 Mirror:    No*
G04 Mode:      Positive*
G04 Rotation:  0*
G04 FullContactRelief:  No*
G04 UndefLineWidth:     1.000*
G04 ================== end FILE IDENTIFICATION RECORD ====================*
%FSLAX25Y25*MOIN*%
%IR0*IPPOS*OFA0.00000B0.00000*MIA0B0*SFA1.00000B1.00000*%
%ADD13C,.138189*%
%ADD10C,.251969*%
%ADD12P,.063921X8X22.5*%
%ADD11C,.016*%
%ADD25R,.02126X.035433*%
%ADD18R,.035433X.02126*%
%ADD15C,.059055*%
%ADD21C,.033858*%
%ADD14C,.070866*%
%ADD24C,.098425*%
%ADD19C,.062992*%
%ADD23C,.039764*%
%ADD20R,.059055X.059055*%
%ADD17C,.094488*%
%ADD16R,.070866X.070866*%
%ADD22R,.062992X.062992*%
%LPD*%
G75*
G54D10*
X20000Y20000D03*
Y407000D03*
X414000Y20000D03*
Y407000D03*
G54D20*
X188000Y23654D03*
Y33654D03*
Y43654D03*
X309000Y14000D03*
Y55000D03*
G54D11*
X4566Y18412D03*
Y38412D03*
Y58412D03*
X8000Y77100D03*
X4566Y78412D03*
X14200Y92400D03*
X5100Y95900D03*
X11000Y87000D03*
X3700Y103500D03*
Y111100D03*
X9000Y114300D03*
X5700Y119400D03*
X11016Y121216D03*
X4566Y138412D03*
Y158412D03*
Y178412D03*
Y198412D03*
Y218412D03*
Y238412D03*
Y258412D03*
Y278412D03*
Y298412D03*
Y318412D03*
Y338412D03*
Y358412D03*
Y378412D03*
Y398412D03*
Y418412D03*
X31716Y69984D03*
X24000Y72900D03*
X15000Y74200D03*
X23600Y96200D03*
X18843Y99400D03*
X26500Y102400D03*
X30200Y121800D03*
X30540Y128740D03*
X21000Y121200D03*
X16300Y138000D03*
X30000Y242000D03*
Y256000D03*
Y273000D03*
Y296000D03*
Y329000D03*
Y369000D03*
X33000Y73800D03*
X42300Y77600D03*
X36000Y117100D03*
X35700Y109700D03*
X33242Y138158D03*
X35400Y135600D03*
X45944Y165144D03*
X40000Y164700D03*
X47000Y168000D03*
X40100Y167800D03*
X43300Y168400D03*
X41000Y171200D03*
X45900Y175300D03*
X47606Y226800D03*
X60886Y91800D03*
X64914D03*
X53905Y93506D03*
X51800Y116504D03*
X58714Y110100D03*
X54686D03*
X52000Y120441D03*
X53905Y141300D03*
X65900Y152800D03*
X59000Y168000D03*
X51100Y164000D03*
X56800Y174900D03*
X50756Y194200D03*
X57055Y194500D03*
X53905Y194100D03*
X59900Y194700D03*
X63354Y194654D03*
X55738Y209430D03*
X54400Y207200D03*
X57700Y223900D03*
X60500Y224600D03*
X65594Y226413D03*
X63094Y224781D03*
X60900Y243400D03*
X54132Y270268D03*
X61137Y265863D03*
X56216Y306984D03*
X56100Y328000D03*
Y345000D03*
X71187Y77500D03*
X82000Y90600D03*
X75200Y91400D03*
X67900Y91926D03*
X78500Y92700D03*
X82000Y83848D03*
X67685Y104900D03*
X82000Y125700D03*
X81113Y142313D03*
X75500Y150200D03*
X81876Y151700D03*
X73700Y165400D03*
X75841Y163924D03*
X77403Y152244D03*
X68400Y163400D03*
X79496Y166159D03*
X75000Y168400D03*
X71200Y177000D03*
Y171800D03*
X78600Y177000D03*
X72700Y194200D03*
X69800Y194100D03*
X75900D03*
X79200Y193000D03*
X66504Y194696D03*
X76200Y226500D03*
X73000Y226200D03*
X79200Y227700D03*
X69800Y226100D03*
X82300Y248500D03*
X71600Y238100D03*
X79900Y251700D03*
X69800Y260043D03*
X79168Y265161D03*
X78720Y270280D03*
X78120Y267720D03*
X82400Y285000D03*
X79239Y272839D03*
X69116Y299861D03*
X70732Y289716D03*
X69441Y302441D03*
X80676Y298135D03*
X82676D03*
X80676Y300135D03*
X82676D03*
X80676Y302135D03*
X82676D03*
X80676Y304135D03*
X82676D03*
X82700Y292000D03*
X74622Y320322D03*
X70100Y311000D03*
X79000Y313800D03*
X81960Y324607D03*
X78960D03*
X81960Y336607D03*
X78960D03*
X81960Y333607D03*
X78960D03*
X81960Y330607D03*
X78960D03*
X81960Y327607D03*
X78960D03*
X82000Y349500D03*
X69500Y345000D03*
X89328Y73400D03*
X85300D03*
X95000Y89900D03*
X100000Y83500D03*
X95000Y83300D03*
X93200Y112800D03*
X95703Y115400D03*
X95600Y111000D03*
X93815Y109110D03*
X93400Y117100D03*
X90500Y110600D03*
X87500Y121700D03*
X90000Y117500D03*
X95500Y127964D03*
X92604Y130164D03*
X87300Y118100D03*
X94847Y132364D03*
X92400Y127500D03*
X84685Y150139D03*
X93300Y149085D03*
X90196Y147598D03*
X95100Y140390D03*
X91199Y134434D03*
X93471Y138364D03*
X96013Y143087D03*
X90500Y137700D03*
X90300Y145000D03*
X91302Y150748D03*
X87618Y149652D03*
X94877Y151154D03*
X86500Y152000D03*
X90863Y153311D03*
X95263Y153748D03*
X88600Y193700D03*
X89100Y273800D03*
X90000Y277612D03*
X88300Y270954D03*
X94284Y289716D03*
X95882Y299882D03*
X84676Y298135D03*
Y300135D03*
Y302135D03*
Y304135D03*
X99000Y311300D03*
X96300Y316000D03*
X99000Y338000D03*
X84960Y324607D03*
X87960D03*
Y336607D03*
X84960D03*
X87960Y333607D03*
X84960D03*
X87960Y330607D03*
X84960D03*
X87960Y327607D03*
X84960D03*
X95300Y344000D03*
X87000Y347000D03*
X95400Y350000D03*
X98732Y349768D03*
X95649Y366000D03*
X110984Y69984D03*
X107000Y81100D03*
X112000Y106800D03*
X111500Y143200D03*
X108609Y140100D03*
X116700Y148100D03*
X110300Y178000D03*
X110900Y171137D03*
X111200Y185000D03*
X107560Y195577D03*
X106700Y192700D03*
X110300Y193800D03*
X109600Y201795D03*
X107096Y198504D03*
X110900Y190000D03*
X109874Y210595D03*
X109700Y206195D03*
X107998Y212947D03*
X109600Y214995D03*
X108134Y204066D03*
X108071Y208529D03*
X113570Y217324D03*
X115600Y215700D03*
X110900Y217300D03*
X115000Y262800D03*
X101239Y265161D03*
X101028Y278022D03*
X116100Y283000D03*
X110994Y275268D03*
X105200Y318000D03*
X111800Y328000D03*
X111500Y345000D03*
X104000Y422500D03*
X121300Y77000D03*
X132000Y83400D03*
X129200Y97644D03*
X127200Y95300D03*
X126900Y99900D03*
X130400Y93100D03*
X128200Y90800D03*
X129000Y87000D03*
X125011Y104000D03*
X123400Y106200D03*
X117511Y109511D03*
X124011Y129000D03*
X117550Y122450D03*
X133500Y124600D03*
X122327Y152000D03*
X117500Y185000D03*
X117400Y178000D03*
X118000Y170000D03*
X117300Y189900D03*
X117900Y195000D03*
X133000Y202000D03*
X120498Y215498D03*
X130000Y205000D03*
X118100Y216700D03*
X125000Y262000D03*
Y273988D03*
X126400Y306984D03*
X126600Y328000D03*
X126000Y345000D03*
X151000Y87000D03*
X136516Y105016D03*
X148216D03*
X149913Y132900D03*
X137639Y118181D03*
X142039Y118039D03*
X135477Y146187D03*
X145976Y137500D03*
X139426Y143337D03*
X136300Y138000D03*
X135818Y149682D03*
X147945Y135300D03*
X137986Y145502D03*
X139500Y139800D03*
X138450Y155350D03*
X135693Y159699D03*
X138000Y158500D03*
X136106Y181606D03*
X136069Y177669D03*
X135795Y169795D03*
X136489Y173600D03*
X136695Y191900D03*
X136947Y187400D03*
X143577Y191938D03*
X144900Y189700D03*
X138161D03*
X136596Y194498D03*
X151000Y235700D03*
X137000Y262900D03*
X151300Y260800D03*
X148682Y258482D03*
X148780Y267720D03*
X149700Y273200D03*
X139116Y299861D03*
X140716Y289716D03*
X139441Y302441D03*
X150676Y298135D03*
Y300135D03*
Y302135D03*
Y304135D03*
X144638Y320322D03*
X140000Y311000D03*
X149000Y313900D03*
X148960Y324507D03*
Y327507D03*
Y330507D03*
Y333507D03*
Y336507D03*
X139300Y345000D03*
X153000Y35000D03*
X160916Y86984D03*
X163684Y110984D03*
X163300Y107500D03*
X159756Y131200D03*
X155500Y131300D03*
X163900Y144700D03*
X161700Y147000D03*
X155925Y161601D03*
X160286Y168052D03*
X157485Y163680D03*
X156369Y158894D03*
X159010Y157190D03*
X159008Y165788D03*
X163400Y172600D03*
X164991Y174747D03*
X166631Y176765D03*
X162600Y170000D03*
X166500Y235100D03*
X161300D03*
X156500D03*
X154800Y231800D03*
X156300Y259400D03*
X158939Y265161D03*
X159500Y273300D03*
X160200Y277412D03*
X152500Y285000D03*
X157100Y275602D03*
X165882Y299882D03*
X164284Y289716D03*
X152676Y298135D03*
X154676D03*
X152676Y300135D03*
X154676D03*
X152676Y302135D03*
X154676D03*
X152676Y304135D03*
X154676D03*
X152300Y292000D03*
X165700Y316000D03*
X151960Y324507D03*
X154960D03*
X157960D03*
X151960Y327507D03*
X154960D03*
X157960D03*
X151960Y330507D03*
X154960D03*
X157960D03*
X151960Y333507D03*
X154960D03*
X157960D03*
X151960Y336507D03*
X154960D03*
X157960D03*
X152000Y349800D03*
X165456Y344000D03*
X157000Y347000D03*
X166000Y350000D03*
X165600Y366000D03*
X185000Y90100D03*
X181400Y113697D03*
X181000Y101700D03*
X175400Y112500D03*
X176811Y178800D03*
X170811Y179532D03*
X175300Y169100D03*
X179200Y181200D03*
X169102Y177573D03*
X173100Y172152D03*
X185100Y183900D03*
X182050Y185450D03*
X180400Y188000D03*
X173900Y212222D03*
X175500Y219000D03*
X170400Y214700D03*
X169700Y218500D03*
X176900Y212800D03*
X171800Y235100D03*
X175600Y223800D03*
X172500Y225816D03*
X176400Y253000D03*
X181700Y252900D03*
X184000Y250400D03*
X171028Y278022D03*
X180994Y275268D03*
X169000Y310400D03*
X175500Y317300D03*
X169000Y338000D03*
X181700Y328000D03*
X181600Y345000D03*
X168732Y349868D03*
X174000Y422900D03*
X195931Y15169D03*
X202300Y93000D03*
X190600D03*
X195000Y90000D03*
X186750Y147150D03*
X188100Y149400D03*
X195842Y148142D03*
X194537Y150391D03*
X187631Y185331D03*
X193000Y201600D03*
X195800Y219000D03*
X195600Y213000D03*
X193000Y225300D03*
X191298Y251987D03*
X188700Y250400D03*
X200000Y238000D03*
X187300Y263200D03*
X200000Y264726D03*
Y274900D03*
X185700Y283000D03*
X195400Y271000D03*
X195616Y306984D03*
X196100Y328000D03*
X195600Y345000D03*
X216100Y26000D03*
X208900Y42600D03*
X216500Y32000D03*
X208900Y51000D03*
X219200Y90476D03*
X205000Y90400D03*
X208000Y117000D03*
Y101900D03*
X203000D03*
X205032Y128269D03*
X203100Y144500D03*
X219447Y154047D03*
X211800Y219500D03*
X211600Y223900D03*
X205300Y242600D03*
X202700Y240300D03*
X209700Y260100D03*
X219600Y264200D03*
Y256900D03*
X218120Y267720D03*
X209116Y299861D03*
X210716Y289716D03*
X209441Y302441D03*
X214622Y320322D03*
X210000Y311000D03*
X219000Y314000D03*
X218959Y324607D03*
Y327607D03*
Y330607D03*
Y333607D03*
Y336607D03*
X209600Y345000D03*
X222100Y3358D03*
X222269Y15169D03*
X230000Y150300D03*
X220000Y150500D03*
Y173732D03*
X230000Y184100D03*
Y169900D03*
X220700Y169700D03*
X220000Y199323D03*
X230000Y194700D03*
X223000Y265000D03*
X227400Y273200D03*
X229200Y278000D03*
X222400Y285000D03*
X219700Y276200D03*
X223100Y275500D03*
X235882Y299882D03*
X234284Y289716D03*
X222600Y292000D03*
X220676Y298135D03*
Y300135D03*
Y302135D03*
Y304135D03*
X222676Y298135D03*
X224676D03*
X222676Y300135D03*
X224676D03*
X222676Y302135D03*
X224676D03*
X222676Y304135D03*
X224676D03*
X236300Y316000D03*
X221960Y324607D03*
X224959D03*
X227960D03*
X221960Y327607D03*
X224959D03*
X227960D03*
X221960Y330607D03*
X224959D03*
X227960D03*
X221960Y333607D03*
X224959D03*
X227960D03*
X221960Y336607D03*
X224959D03*
X227960D03*
X235400Y344000D03*
X222000Y349600D03*
X227000Y347300D03*
X235600Y350000D03*
X235649Y366000D03*
X243000Y74000D03*
X252008Y82200D03*
X248592Y125992D03*
X249008Y196592D03*
X247000Y214000D03*
X243500Y228900D03*
X251008Y231500D03*
X242339Y265161D03*
X241028Y278022D03*
X248000Y278100D03*
X239000Y310700D03*
X245750Y318450D03*
X239000Y338000D03*
X251700Y328000D03*
X251500Y345000D03*
X238732Y348968D03*
X244000Y422700D03*
X269646Y81646D03*
X260000Y68000D03*
X262500Y88019D03*
X255523Y100001D03*
X258523D03*
X261523D03*
X264523D03*
X255523Y103001D03*
X258523D03*
X261523D03*
X264523D03*
X255523Y106001D03*
X258523D03*
X261523D03*
X264523D03*
X261900Y135992D03*
X260000Y159000D03*
X256192Y177692D03*
X259866Y186066D03*
X265500Y215400D03*
X263000Y211000D03*
X256992Y231500D03*
X270134Y225000D03*
X260500D03*
X255000Y262500D03*
X264000Y262300D03*
X270000Y274800D03*
X255100Y283000D03*
X265516Y306984D03*
X266200Y328000D03*
X265800Y345000D03*
X280000Y92000D03*
X278000Y114000D03*
X283984Y125984D03*
X280000Y137000D03*
X278000Y179000D03*
X274100Y197800D03*
X283866Y185534D03*
X287500Y215300D03*
X286000Y211000D03*
X280992Y231408D03*
X284349Y225249D03*
X275008Y231508D03*
X277000Y263379D03*
X279116Y299861D03*
X280784Y289716D03*
X279441Y302441D03*
X284638Y320338D03*
X280200Y311000D03*
X279800Y345000D03*
X297000Y75000D03*
X288008Y81800D03*
X298500Y88100D03*
X291523Y100001D03*
X294523D03*
X297523D03*
X300523D03*
X291523Y103001D03*
X294523D03*
X297523D03*
X300523D03*
X291523Y106001D03*
X294523D03*
X297523D03*
X300523D03*
X298000Y135992D03*
Y159000D03*
X303941Y177841D03*
X304500Y214700D03*
X292500Y225200D03*
X290900Y251500D03*
X300320Y270280D03*
X291400Y262600D03*
X294000Y268000D03*
X301139Y265161D03*
X289320Y267720D03*
X292500Y285000D03*
X300698Y275398D03*
X290000Y274100D03*
X294900Y271000D03*
X304284Y289716D03*
X292500Y292000D03*
X290676Y298135D03*
Y300135D03*
Y302135D03*
Y304135D03*
X292676Y298135D03*
X294676D03*
X292676Y300135D03*
X294676D03*
X292676Y302135D03*
X294676D03*
X292676Y304135D03*
X294676D03*
X288984Y313900D03*
X288960Y324607D03*
Y327607D03*
Y330607D03*
Y333607D03*
Y336607D03*
X291960Y324607D03*
X294960D03*
X297960D03*
X291960Y327607D03*
X294960D03*
X297960D03*
X291960Y330607D03*
X294960D03*
X297960D03*
X291960Y333607D03*
X294960D03*
X297960D03*
X291960Y336607D03*
X294960D03*
X297960D03*
X292000Y349800D03*
X297000Y347200D03*
X322000Y29800D03*
X305646Y81946D03*
X321000Y67000D03*
X316000Y94000D03*
X313000Y114000D03*
X320708Y125992D03*
X315000Y137000D03*
X316000Y184000D03*
X309000Y195100D03*
X305000D03*
X307000Y211000D03*
X309008Y231858D03*
X314992Y225000D03*
Y231000D03*
X307316Y224508D03*
X311028Y278022D03*
X320313Y275000D03*
X320500Y271500D03*
X305882Y299882D03*
X309000Y310500D03*
X315400Y318100D03*
X305700Y316000D03*
X309000Y338000D03*
X321500Y328000D03*
X305200Y344000D03*
X308732Y349332D03*
X305800Y350000D03*
X305649Y366000D03*
X314000Y422600D03*
X324000Y82000D03*
X334500Y88000D03*
X330523Y100001D03*
X333523D03*
X336523D03*
X327523D03*
X330523Y103001D03*
X333523D03*
X336523D03*
X330523Y106001D03*
X333523D03*
X336523D03*
X327523Y103001D03*
Y106001D03*
X334400Y135992D03*
X324500Y138900D03*
X333000Y159000D03*
X336000Y176000D03*
X331000Y195000D03*
X327000Y195100D03*
X331000Y212000D03*
X326500Y215400D03*
X329316Y224508D03*
X336992Y231000D03*
Y225000D03*
X331008Y231858D03*
X325000Y261900D03*
X335200Y279000D03*
X329200Y285000D03*
X325200Y283000D03*
X329184Y290984D03*
X329000Y301000D03*
X339000Y311585D03*
X324060Y319740D03*
X329900Y308000D03*
X323978Y345000D03*
X329583Y339778D03*
X325000Y370000D03*
X329000Y356500D03*
X341646Y81854D03*
X353000Y68000D03*
X350000Y92000D03*
X347000Y128000D03*
X349000Y195022D03*
X353000Y195100D03*
X350000Y211000D03*
X348500Y215000D03*
X351311Y224502D03*
X353008Y231858D03*
X349600Y264000D03*
X344500Y291000D03*
X354900Y299500D03*
X347900Y352638D03*
X343739Y351339D03*
X342000Y363600D03*
Y376300D03*
X360200Y86000D03*
X363025Y100025D03*
X367174Y101319D03*
X369174D03*
X371174D03*
X367174Y103319D03*
X369174D03*
X371174D03*
X367174Y105319D03*
X369174D03*
X371174D03*
X368000Y121000D03*
X371000Y135000D03*
Y160000D03*
X358000Y182000D03*
X369100Y179000D03*
X365100Y199200D03*
X369016Y195022D03*
X367016Y217978D03*
X358992Y231000D03*
Y225000D03*
X367016Y224000D03*
X371984Y268984D03*
X368000Y265200D03*
X371000Y285000D03*
X359000Y317300D03*
X358000Y339000D03*
X365793Y368900D03*
X389000Y76000D03*
X380981Y89300D03*
X381000Y203000D03*
X375101Y223501D03*
X373400Y344000D03*
X375400Y368900D03*
X400000Y71000D03*
X398000Y85000D03*
Y103000D03*
Y124000D03*
Y148000D03*
Y167000D03*
Y188000D03*
Y206000D03*
X397000Y226000D03*
X399000Y250000D03*
Y245000D03*
Y265000D03*
Y270000D03*
Y255000D03*
Y260000D03*
Y275000D03*
X421000Y245000D03*
Y250000D03*
Y270000D03*
Y265000D03*
Y260000D03*
Y255000D03*
Y275000D03*
X430663Y19708D03*
Y39708D03*
Y59708D03*
Y79708D03*
Y99708D03*
Y119708D03*
Y139708D03*
Y159708D03*
Y179708D03*
Y199708D03*
Y219708D03*
Y239708D03*
Y259708D03*
Y279708D03*
Y299708D03*
Y319708D03*
Y339708D03*
Y359708D03*
Y379708D03*
Y399708D03*
Y419708D03*
G54D21*
X208651Y5524D03*
Y17335D03*
G54D12*
X44437Y12929D03*
X96602D03*
G54D22*
X225000Y68000D03*
G54D13*
X48472Y32220D03*
X92016D03*
G54D23*
X293488Y2189D03*
Y25811D03*
Y31378D03*
Y66811D03*
G54D14*
X38945Y43835D03*
X68000Y66000D03*
X58000D03*
X63000Y56000D03*
X78000Y66000D03*
X83000Y56000D03*
X73000D03*
X101937Y43835D03*
X88000Y66000D03*
G54D24*
X349520Y390043D03*
X357000Y403000D03*
X364480Y390043D03*
G54D15*
X54437Y12929D03*
X86602D03*
X178000Y23654D03*
Y33654D03*
Y43654D03*
X297189Y14000D03*
Y43189D03*
Y55000D03*
X309000Y43189D03*
G54D16*
X53000Y56000D03*
G54D25*
X362016Y339000D03*
X368000D03*
G54D17*
X61055Y391055D03*
Y422945D03*
X77000Y407000D03*
X92945Y391055D03*
Y422945D03*
X131055Y391055D03*
Y422945D03*
X147000Y407000D03*
X162945Y391055D03*
Y422945D03*
X201055Y391055D03*
Y422945D03*
X217000Y407000D03*
X232945Y391055D03*
Y422945D03*
X271055Y391055D03*
Y422945D03*
X287000Y407000D03*
X302945Y391055D03*
Y422945D03*
G54D18*
X82000Y81000D03*
Y86984D03*
X95000Y81000D03*
Y86984D03*
X130300Y118616D03*
Y124600D03*
G54D19*
X135000Y58000D03*
Y68000D03*
X145000Y58000D03*
Y68000D03*
X155000Y58000D03*
Y68000D03*
X165000Y58000D03*
Y68000D03*
X175000Y58000D03*
Y68000D03*
X185000Y58000D03*
Y68000D03*
X195000Y58000D03*
Y68000D03*
X205000Y58000D03*
Y68000D03*
X215000Y58000D03*
Y68000D03*
X225000Y58000D03*
M02*
