G04 ================== begin FILE IDENTIFICATION RECORD ==================*
G04 Layout Name:  E:/material/lool Inds Vibration/hardware/v1.0/pcb/vibration.brd*
G04 Film Name:    SILKSCREEN_TOP*
G04 File Format:  Gerber RS274X*
G04 File Origin:  Cadence Allegro 16.6-2015-S065*
G04 Origin Date:  Fri May 06 18:24:12 2016*
G04 *
G04 Layer:  PACKAGE GEOMETRY/SILKSCREEN_TOP*
G04 Layer:  BOARD GEOMETRY/SILKSCREEN_TOP*
G04 *
G04 Offset:    (0.000 0.000)*
G04 Mirror:    No*
G04 Mode:      Positive*
G04 Rotation:  0*
G04 FullContactRelief:  No*
G04 UndefLineWidth:     1.000*
G04 ================== end FILE IDENTIFICATION RECORD ====================*
%FSLAX25Y25*MOIN*%
%IR0*IPPOS*OFA0.00000B0.00000*MIA0B0*SFA1.00000B1.00000*%
%ADD10C,.004*%
%ADD11C,.008*%
%ADD12C,.003937*%
%ADD13C,.009843*%
%ADD14C,.007874*%
%ADD15C,.012*%
%ADD16C,.019685*%
G75*
%LPD*%
G75*
G36*
G01X233418Y23733D02*
X246400D01*
Y20532D01*
X239933Y20555D01*
X233467Y20578D01*
X233442Y22156D01*
X233418Y23733D01*
G37*
G36*
G01X232619Y42961D02*
G02X232788Y42878I-47J-309D01*
G02X233191Y42461I-5146J-5389D01*
G02X234412Y41093I-324739J-290895D01*
G01X235135Y40279D01*
X235750Y39586D01*
X236298Y38969D01*
X236329Y38935D01*
G03X236343Y38940I6J5D01*
G03X236348Y39035I-1712J139D01*
G03X236347Y39168I-2279J58D01*
G03X236339Y39335I-5586J-187D01*
G03X236315Y39613I-5809J-365D01*
G03X236275Y39721I-240J-27D01*
G03X236196Y39776I-111J-75D01*
G03X236022Y39806I-290J-1174D01*
G02X235861Y39830I138J1429D01*
G02X235782Y39873I33J154D01*
G02X235744Y39949I96J96D01*
G02X235733Y40094I970J145D01*
G02X235743Y40240I1132J0D01*
G02X235778Y40312I120J-16D01*
G02X235851Y40346I88J-89D01*
G02X236000Y40356I150J-1215D01*
G03X236132Y40364I1J1078D01*
G03X236210Y40392I-23J182D01*
G03X236252Y40446I-58J88D01*
G03X236267Y40530I-241J85D01*
G02X236328Y40735I369J0D01*
G02X236548Y41020I2155J-1432D01*
G02X236810Y41276I1908J-1693D01*
G02X237027Y41387I348J-412D01*
G03X237112Y41421I-81J324D01*
G03X237184Y41478I-162J282D01*
G03X237236Y41550I-220J212D01*
G03X237262Y41631I-228J117D01*
G02X237295Y41729I281J-40D01*
G02X237358Y41791I136J-76D01*
G02X237472Y41828I164J-313D01*
G02X237680Y41850I415J-2876D01*
G02X237834Y41855I128J-1798D01*
G02X237972Y41845I-16J-1191D01*
G02X238081Y41824I-124J-947D01*
G02X238124Y41792I-18J-70D01*
G03X238270Y41714I139J86D01*
G03X238783Y41751I-305J7832D01*
G03X239291Y41820I-856J8179D01*
G03X239378Y41923I-17J103D01*
G02X239423Y41985I64J0D01*
G02X239588Y42020I273J-882D01*
G02X239876Y42039I345J-2912D01*
G02X240400Y42044I523J-27339D01*
G02X241001Y42040I1J-41863D01*
G02X241256Y42019I-26J-1845D01*
G02X241377Y41971I-46J-296D01*
G02X241422Y41887I-57J-84D01*
G03X241459Y41801I118J0D01*
G03X241566Y41731I251J268D01*
G03X241768Y41664I504J1180D01*
G03X242138Y41581I2668J11039D01*
G02X242442Y41510I-1233J-5957D01*
G02X242762Y41420I-1990J-7632D01*
G02X243053Y41324I-2097J-6841D01*
G02X243256Y41239I-665J-1879D01*
G03X243454Y41150I1552J3208D01*
G03X243591Y41110I266J647D01*
G03X243688Y41109I52J276D01*
G03X243758Y41144I-20J126D01*
G02X243908Y41226I215J-215D01*
G02X244117Y41238I140J-640D01*
G02X244329Y41182I-76J-716D01*
G02X244489Y41067I-187J-428D01*
G02X244605Y40859I-399J-361D01*
G02X244638Y40597I-765J-228D01*
G02X244583Y40345I-763J33D01*
G02X244450Y40164I-415J167D01*
G03X244380Y40100I511J-631D01*
G03X244320Y40031I495J-484D01*
G03X244279Y39966I443J-331D01*
G03X244267Y39919I86J-47D01*
G02X244250Y39882I-50J0D01*
G02X244201Y39851I-121J135D01*
G02X244130Y39829I-123J282D01*
G02X244044Y39822I-85J506D01*
G03X243931Y39812I0J-624D01*
G03X243866Y39777I22J-119D01*
G03X243832Y39711I90J-88D01*
G03X243822Y39594I681J-117D01*
G03X243830Y39494I669J0D01*
G03X243854Y39429I165J25D01*
G03X243895Y39397I67J43D01*
G03X243950Y39394I33J95D01*
G03X244034Y39440I-37J167D01*
G03X244558Y39974I-107871J106213D01*
G03X245155Y40597I-36744J35836D01*
G03X245839Y41331I-68114J64213D01*
G02X247004Y42587I287472J-265283D01*
G02X247375Y42952I4294J-3997D01*
G02X247538Y43019I176J-196D01*
G02X247629Y42940I4J-87D01*
G02X247626Y42767I-752J-73D01*
G02X247580Y42621I-452J61D01*
G02X247475Y42462I-739J376D01*
G02X247269Y42232I-4021J3390D01*
G03X247050Y42000I39586J-37581D01*
G01X246663Y41587D01*
X246212Y41104D01*
X245751Y40610D01*
X244622Y39398D01*
Y37778D01*
X243664D01*
X243599Y36869D01*
G02X243562Y36372I-83139J5948D01*
G01X243496Y35536D01*
X243419Y34575D01*
X243341Y33607D01*
X243148Y31253D01*
X244952Y29230D01*
G02X245643Y28449I-104028J-92731D01*
G02X246226Y27777I-55290J-48556D01*
G02X246735Y27182I-270400J-231754D01*
G02X246756Y27126I-66J-57D01*
G02X246747Y27087I-91J0D01*
G02X246719Y27038I-332J156D01*
G02X246679Y26986I-374J251D01*
G02X246631Y26941I-347J314D01*
G02X246518Y26938I-58J70D01*
G02X246275Y27146I1734J2279D01*
G02X245894Y27536I5394J5653D01*
G02X245199Y28308I64812J59057D01*
G03X244694Y28871I-90202J-80251D01*
G03X244262Y29346I-46708J-42083D01*
G01X243876Y29765D01*
G03X243847Y29778I-29J-27D01*
G03X243833Y29765I0J-14D01*
G03X243832Y29712I403J-31D01*
G03X243841Y29639I606J34D01*
G03X243860Y29552I1257J225D01*
G02X243866Y29114I-928J-233D01*
G02X243684Y28635I-1705J375D01*
G02X243361Y28214I-1628J912D01*
G02X242958Y27945I-921J941D01*
G02X242489Y27838I-523J1223D01*
G02X242004Y27903I-57J1418D01*
G02X241569Y28129I428J1353D01*
G02X241246Y28486I808J1056D01*
G01X241052Y28800D01*
X238311D01*
Y27822D01*
X237511D01*
Y28311D01*
G03X237505Y28499I-2741J0D01*
G03X237485Y28656I-1425J-98D01*
G03X237457Y28774I-1103J-200D01*
G03X237422Y28800I-35J-10D01*
G02X237387Y28823I0J38D01*
G02X237357Y28911I540J234D01*
G02X237335Y29033I851J217D01*
G02X237326Y29178I1627J178D01*
G03X237316Y29378I-3607J-73D01*
G03X237290Y29692I-20507J-1548D01*
G03X237255Y30047I-22981J-2099D01*
G03X237215Y30396I-21685J-2318D01*
G01X237111Y31236D01*
X235077Y29037D01*
G02X233802Y27665I-270794J250430D01*
G02X233314Y27177I-7472J6980D01*
G02X233042Y26969I-1169J1250D01*
G02X232882Y26984I-70J114D01*
G02X232854Y27144I88J97D01*
G02X233057Y27447I1744J-942D01*
G02X233536Y28004I9035J-7297D01*
G02X234900Y29483I318233J-292047D01*
G03X236328Y31031I-344331J318999D01*
G03X236792Y31575I-7420J6811D01*
G03X236991Y31895I-1277J1015D01*
G03X237030Y32163I-419J198D01*
G02X237002Y32386I4597J701D01*
G02X236929Y33098I277634J28692D01*
G02X236845Y33946I210241J21159D01*
G02X236756Y34889I321596J31063D01*
G03X236665Y35842I-284435J-26649D01*
G03X236578Y36720I-205443J-19930D01*
G03X236502Y37456I-222014J-22490D01*
G03X236466Y37753I-8287J-866D01*
G03X236361Y38096I-1156J-163D01*
G03X236145Y38450I-1877J-903D01*
G03X235696Y39000I-7804J-5911D01*
G03X234467Y40392I-235780J-207107D01*
G02X233321Y41690I193068J171625D01*
G02X232840Y42272I9334J8186D01*
G02X232602Y42629I2425J1879D01*
G02X232533Y42887I452J259D01*
G02X232619Y42961I74J0D01*
G37*
G36*
G01X255420Y31486D02*
G02X255453Y31506I472J-755D01*
G02X255482Y31521I520J-922D01*
G02X255492Y31523I10J-20D01*
G02X255526Y31489I0J-35D01*
G02X255537Y30746I-175136J-2800D01*
G02Y30065I-29384J-341D01*
G02X255514Y29625I-5467J63D01*
G02X255457Y29289I-2258J208D01*
G02X255350Y28964I-2221J550D01*
G02X255181Y28619I-2749J1137D01*
G02X254933Y28222I-5685J3266D01*
G01X254863Y28118D01*
G02X254801Y28025I-38311J25903D01*
G01X254748Y27948D01*
G02X254734Y27928I-531J363D01*
G03X254731Y27905I18J-13D01*
G03X254770Y27826I1806J833D01*
G03X254827Y27722I1815J939D01*
G03X254911Y27585I5775J3419D01*
G02X254993Y27453I-48995J-30648D01*
G02X255076Y27318I-53593J-33291D01*
G02X255150Y27199I-47670J-29464D01*
G02X255198Y27121I-9005J-5537D01*
G01X255288Y26972D01*
X255220Y26916D01*
G02X255192Y26895I-360J440D01*
G02X255165Y26877I-252J350D01*
G02X255142Y26864I-200J327D01*
G02X255129Y26861I-14J26D01*
G02X255115Y26868I0J17D01*
G02X255021Y27007I27820J18801D01*
G02X254916Y27168I7741J5181D01*
G02X254795Y27360I14908J9530D01*
G03X254646Y27596I-16319J-10136D01*
G03X254541Y27751I-3455J-2218D01*
G03X254464Y27855I-2078J-1469D01*
G03X254420Y27890I-94J-74D01*
G03X254381Y27906I-217J-468D01*
G03X254303Y27934I-2330J-6310D01*
G03X254209Y27967I-2379J-6692D01*
G03X254111Y27999I-2768J-8158D01*
G02X253470Y28275I1193J3656D01*
G02X252940Y28646I1367J2521D01*
G02X252525Y29111I1745J1977D01*
G02X252226Y29664I2236J1564D01*
G02X252151Y29868I3775J1509D01*
G02X252093Y30060I2735J924D01*
G02X252052Y30243I2424J636D01*
G02X252028Y30419I2049J378D01*
G01X252009Y30613D01*
X252080Y30599D01*
G02X252128Y30580I-29J-146D01*
G02X252371Y30430I-23981J-38838D01*
G02X252652Y30251I-11357J-18159D01*
G02X252972Y30041I-20194J-31170D01*
G03X253518Y29684I30072J45399D01*
G03X253876Y29463I5403J8376D01*
G03X254125Y29325I3030J5160D01*
G03X254239Y29297I114J217D01*
G03X254306Y29316I0J127D01*
G03X254355Y29368I-73J117D01*
G03X254393Y29469I-374J201D01*
G03X254434Y29660I-3752J905D01*
G02X254586Y30248I4532J-854D01*
G02X254805Y30765I3194J-1051D01*
G02X255076Y31180I2338J-1232D01*
G02X255384Y31463I1060J-844D01*
G02X255420Y31486I766J-1150D01*
G37*
G36*
G01X256224Y29113D02*
X256293Y29047D01*
G02X256373Y28945I-320J-334D01*
G02X256469Y28764I-2301J-1335D01*
G02X256556Y28564I-2427J-1168D01*
G02X256609Y28390I-1236J-476D01*
G02X256633Y28251I-1071J-251D01*
G02X256645Y28073I-2710J-277D01*
G02X256651Y27792I-8764J-318D01*
G02X256652Y27223I-119815J-495D01*
G02X256648Y26565I-59609J25D01*
G02X256634Y26196I-6748J78D01*
G02X256605Y25950I-2531J168D01*
G02X256554Y25753I-1128J187D01*
G03X256538Y25701I672J-238D01*
G03X256530Y25659I270J-74D01*
G03X256530Y25624I172J-19D01*
G03X256537Y25597I81J7D01*
G03X256557Y25566I120J56D01*
G03X256670Y25437I19076J16666D01*
G03X256805Y25287I10273J9102D01*
G03X256961Y25118I17085J15594D01*
G01X257363Y24686D01*
X257248Y24625D01*
G02X257203Y24601I-2019J3738D01*
G02X257164Y24581I-1118J2132D01*
G02X257131Y24564I-2466J4905D01*
G02X257124Y24562I-6J13D01*
G02X257118Y24565I0J8D01*
G01X256999Y24697D01*
G02X256867Y24845I22278J20105D01*
G02X256711Y25020I43477J38707D01*
G01X256307Y25479D01*
X256198Y25462D01*
G02X256130Y25455I-92J600D01*
G02X255963Y25450I-580J14729D01*
G02X255765Y25445I-395J13973D01*
G02X255551Y25444I-259J19095D01*
G02X255240Y25445I-73J25750D01*
G02X255061Y25452I31J3158D01*
G02X254921Y25467I107J1626D01*
G02X254766Y25496I394J2561D01*
G02X254661Y25521I487J2250D01*
G02X254551Y25553I778J2916D01*
G02X254450Y25586I806J2622D01*
G02X254379Y25614I254J728D01*
G02X254027Y25835I713J1529D01*
G02X253612Y26210I3420J4205D01*
G02X253230Y26634I3893J3886D01*
G02X252982Y27014I1736J1407D01*
G02X252925Y27129I2548J1320D01*
G02X252899Y27203I391J180D01*
G02X252893Y27260I186J47D01*
G02X252905Y27314I176J-8D01*
G02X252980Y27364I72J-28D01*
G02X253232Y27342I-94J-2538D01*
G02X253534Y27282I-360J-2613D01*
G02X253839Y27186I-766J-2953D01*
G02X254010Y27112I-712J-1899D01*
G02X254288Y26975I-6137J-12698D01*
G02X254561Y26832I-6718J-13143D01*
G02X254705Y26743I-734J-1365D01*
G03X254915Y26627I697J1014D01*
G03X255233Y26503I1905J4413D01*
G03X255550Y26402I2047J5853D01*
G03X255688Y26399I74J254D01*
G03X255733Y26434I-17J69D01*
G03X255758Y26507I-194J107D01*
G03X255772Y26655I-1309J200D01*
G03X255786Y27035I-39662J1589D01*
G02X255826Y27761I14236J-434D01*
G02X255902Y28324I5377J-439D01*
G02X256013Y28749I3195J-604D01*
G02X256164Y29034I932J-311D01*
G01X256224Y29113D01*
G37*
G36*
G01X255304Y34028D02*
G02X255373Y34067I590J-971D01*
G02X255432Y34095I469J-909D01*
G02X255465Y34102I32J-74D01*
G01X255523D01*
X255508Y33826D01*
G02X255472Y33463I-4307J238D01*
G02X255408Y33147I-2629J370D01*
G02X255305Y32838I-2623J702D01*
G02X255152Y32496I-4370J1754D01*
G02X255032Y32272I-3686J1830D01*
G02X254898Y32057I-3497J2015D01*
G02X254747Y31843I-3610J2394D01*
G02X254573Y31623I-4552J3432D01*
G02X254434Y31468I-2269J1893D01*
G02X254219Y31250I-9428J9071D01*
G02X254003Y31040I-10013J10083D01*
G02X253877Y30932I-1041J1095D01*
G01X253797Y30871D01*
X253866Y30364D01*
G02X253911Y30024I-24877J-3420D01*
G02X253917Y29887I-921J-114D01*
G02X253898Y29819I-143J4D01*
G02X253852Y29786I-58J34D01*
G02X253794Y29787I-26J146D01*
G02X253745Y29811I25J113D01*
G02X253704Y29860I112J136D01*
G02X253668Y29937I457J262D01*
G02X253628Y30066I1160J433D01*
G02X253553Y30369I25903J6565D01*
G02X253481Y30676I20459J4932D01*
G02X253443Y30871I3541J798D01*
G03X253435Y30904I-287J-48D01*
G03X253424Y30935I-215J-63D01*
G03X253411Y30958I-155J-71D01*
G03X253398Y30968I-22J-15D01*
G02X253329Y31008I91J237D01*
G02X253156Y31152I6438J7912D01*
G02X252977Y31310I4456J5236D01*
G02X252833Y31449I2328J2549D01*
G02X252461Y31909I2302J2245D01*
G02X252204Y32403I2115J1412D01*
G02X252063Y32937I2332J903D01*
G02X252033Y33516I2970J442D01*
G02X252045Y33720I7490J-341D01*
G02X252061Y33882I3040J-220D01*
G02X252080Y34006I2817J-357D01*
G02X252100Y34046I72J-13D01*
G02X252132Y34050I19J-19D01*
G02X252254Y33984I-1556J-2997D01*
G02X252393Y33898I-1164J-2036D01*
G02X252537Y33796I-1739J-2601D01*
G02X252715Y33641I-1036J-1375D01*
G02X252898Y33442I-2053J-2064D01*
G02X253104Y33176I-3668J-3059D01*
G02X253361Y32807I-12035J-8674D01*
G03X253472Y32646I9904J6696D01*
G03X253572Y32507I5821J4072D01*
G03X253659Y32391I9771J7194D01*
G03X253684Y32369I62J47D01*
G03X253741Y32361I41J76D01*
G03X253800Y32389I-25J126D01*
G03X253861Y32459I-207J243D01*
G03X253930Y32578I-1163J748D01*
G02X254154Y32940I2284J-1167D01*
G02X254467Y33316I3573J-2652D01*
G02X254836Y33674I3570J-3314D01*
G02X255234Y33982I2913J-3344D01*
G02X255304Y34028I832J-1208D01*
G37*
G36*
G01X268370Y37965D02*
X268632Y38270D01*
G02X268638Y38273I6J-5D01*
G02X268639Y38271I0J-2D01*
G02X268633Y38258I-179J73D01*
G02X268624Y38241I-221J109D01*
G02X268612Y38221I-486J287D01*
G03X268584Y38179I5716J-3723D01*
G01X268188Y37560D01*
X267741Y36864D01*
X267218Y36047D01*
X265509Y33381D01*
X264597Y31959D01*
X264025Y31067D01*
G02X263795Y30709I-164118J105291D01*
G01X263595Y30398D01*
X263496Y30533D01*
X262565Y31799D01*
X261584Y33136D01*
X260582Y34503D01*
G02X260578Y34514I14J10D01*
G02X260586Y34518I5J0D01*
G02X260775Y34398I-37715J-59465D01*
G02X261103Y34187I-37579J-58851D01*
G01X262200Y33478D01*
X262749Y33123D01*
X263219Y32820D01*
X263634Y32554D01*
G03X263671Y32532I290J449D01*
G03X263699Y32522I46J86D01*
G03X263722Y32525I7J39D01*
G03X263747Y32542I-34J76D01*
G03X263786Y32583I-580J577D01*
G03X263889Y32704I-11955J10393D01*
G01X265248Y34299D01*
X266575Y35859D01*
X267738Y37226D01*
G02X268370Y37965I117843J-99979D01*
G37*
G36*
G01X262632Y29348D02*
G02X262703Y29357I138J-855D01*
G02X262786Y29360I91J-1166D01*
G02X262882Y29358I10J-1956D01*
G02X262996Y29351I-97J-2297D01*
G02X263077Y29338I-56J-602D01*
G02X263149Y29315I-114J-489D01*
G02X263236Y29276I-451J-1132D01*
G02X263361Y29201I-388J-788D01*
G02X263466Y29110I-423J-589D01*
G02X263555Y28996I-576J-542D01*
G02X263634Y28854I-1045J-674D01*
G02X263676Y28756I-1349J-638D01*
G02X263696Y28684I-356J-138D01*
G02X263704Y28599I-565J-99D01*
G02X263706Y28441I-5593J-132D01*
G02X263703Y28302I-4252J18D01*
G02X263695Y28207I-944J35D01*
G02X263679Y28130I-589J82D01*
G02X263652Y28049I-778J215D01*
G02X263582Y27917I-653J258D01*
G02X263479Y27786I-893J599D01*
G02X263357Y27673I-790J728D01*
G02X263231Y27593I-433J546D01*
G02X263147Y27556I-427J871D01*
G02X263078Y27538I-130J341D01*
G02X262993Y27530I-102J611D01*
G02X262840Y27527I-156J5536D01*
G02X262687Y27529I0J5520D01*
G02X262602Y27538I18J626D01*
G02X262533Y27556I60J361D01*
G02X262450Y27592I331J877D01*
G02X262330Y27667I309J629D01*
G02X262213Y27773I649J837D01*
G02X262111Y27896I790J755D01*
G02X262036Y28026I691J489D01*
G02X262001Y28111I848J398D01*
G02X261983Y28182I369J131D01*
G02X261975Y28271I682J105D01*
G02X261973Y28430I6129J145D01*
G02X261976Y28577I4961J-10D01*
G02X261984Y28673I960J-31D01*
G02X261999Y28751I567J-75D01*
G02X262027Y28832I749J-208D01*
G02X262116Y28995I741J-296D01*
G02X262242Y29139I728J-513D01*
G02X262399Y29255I621J-679D01*
G02X262577Y29335I465J-796D01*
G02X262632Y29348I113J-345D01*
G37*
G36*
G01X266456Y23971D02*
G02X266516Y23972I38J-306D01*
G02X266543Y23961I-3J-46D01*
G02X266555Y23936I-22J-25D01*
G02X266543Y23847I-339J0D01*
G02X266485Y23644I-7370J2002D01*
G02X266417Y23433I-5654J1706D01*
G02X266353Y23268I-2280J783D01*
G02X266046Y22701I-3204J1369D01*
G02X265619Y22155I-3876J2590D01*
G02X265100Y21660I-3676J3343D01*
G02X264518Y21249I-3081J3747D01*
G02X264323Y21143I-1361J2262D01*
G02X264153Y21074I-554J1126D01*
G02X263989Y21036I-314J976D01*
G02X263814Y21023I-174J1181D01*
G02X263628Y21036I0J1363D01*
G02X263479Y21076I85J615D01*
G02X263320Y21159I359J887D01*
G02X263084Y21319I3076J4771D01*
G02X262830Y21504I19336J26907D01*
G02X262700Y21604I1702J2325D01*
G02X262587Y21704I1392J1688D01*
G02X262413Y21872I9193J9707D01*
G02X262156Y22155I2337J2379D01*
G02X261938Y22462I2442J1974D01*
G02X261764Y22781I2483J1555D01*
G02X261642Y23103I2134J993D01*
G02X261612Y23218I1722J513D01*
G02X261591Y23329I1399J318D01*
G02X261578Y23452I1792J260D01*
G02X261568Y23608I4459J341D01*
G01X261556Y23907D01*
X261694Y23892D01*
G02X261931Y23844I-151J-1358D01*
G02X262187Y23750I-619J-2084D01*
G02X262441Y23620I-958J-2182D01*
G02X262676Y23461I-1169J-1977D01*
G02X262832Y23325I-1117J-1449D01*
G02X263037Y23118I-4776J-4918D01*
G02X263239Y22896I-5064J-4794D01*
G02X263391Y22705I-2329J-2021D01*
G02X263461Y22607I-2765J-2037D01*
G02X263545Y22482I-7022J-4813D01*
G02X263629Y22352I-7390J-4872D01*
G02X263700Y22236I-4390J-2787D01*
G03X263849Y21990I29737J17791D01*
G03X263904Y21912I616J375D01*
G03X263946Y21879I89J72D01*
G03X263996Y21872I39J86D01*
G03X264034Y21886I-9J80D01*
G03X264070Y21921I-103J143D01*
G03X264114Y21986I-438J342D01*
G03X264185Y22113I-4878J2804D01*
G02X264451Y22555I4863J-2631D01*
G02X264745Y22947I3746J-2504D01*
G02X265060Y23281I3043J-2552D01*
G02X265391Y23551I2025J-2145D01*
G02X265614Y23691I1413J-2012D01*
G02X265860Y23811I1366J-2471D01*
G02X266102Y23902I1023J-2366D01*
G02X266317Y23951I414J-1303D01*
G02X266456Y23971I1027J-6995D01*
G37*
G36*
G01X259447Y25502D02*
G02X259656Y25405I-243J-790D01*
G02X259931Y25189I-1074J-1653D01*
G02X260247Y24866I-3681J-3919D01*
G02X260699Y24282I-3690J-3321D01*
G02X261023Y23676I-3102J-2049D01*
G02X261226Y23030I-3314J-1396D01*
G02X261316Y22327I-4231J-903D01*
G03X261323Y22218I4435J205D01*
G03X261331Y22120I2888J204D01*
G03X261341Y22038I3521J373D01*
G03X261349Y22012I71J9D01*
G03X261384Y21984I56J31D01*
G03X261580Y21915I3886J10837D01*
G03X261851Y21828I3170J9375D01*
G03X262257Y21705I13460J43923D01*
G01X262425Y21656D01*
X262402Y21557D01*
G02X262393Y21519I-1589J355D01*
G02X262384Y21485I-975J244D01*
G02X262376Y21457I-1338J385D01*
G02X262372Y21450I-17J5D01*
G02X262357Y21446I-11J11D01*
G02X262104Y21511I35451J138143D01*
G02X261824Y21585I5574J21598D01*
G02X261507Y21673I9845J36161D01*
G01X261299Y21732D01*
X261123Y21680D01*
G02X260716Y21580I-1216J4094D01*
G02X260328Y21529I-613J3183D01*
G02X259926Y21525I-239J3432D01*
G02X259477Y21565I257J5442D01*
G02X258726Y21711I794J6065D01*
G02X258079Y21941I1008J3865D01*
G02X257629Y22204I1063J2335D01*
G02X257542Y22446I136J186D01*
G02X257626Y22542I137J-34D01*
G02X257862Y22614I528J-1316D01*
G02X258174Y22655I420J-1987D01*
G02X258527Y22654I167J-3162D01*
G02X258659Y22645I-391J-6667D01*
G02X258851Y22629I-2293J-29019D01*
G02X259063Y22610I-2751J-32259D01*
G02X259266Y22591I-2484J-27032D01*
G03X259642Y22560I1067J10729D01*
G03X259938Y22552I263J4105D01*
G03X260160Y22561I-25J3238D01*
G03X260241Y22599I-10J129D01*
G03X260264Y22654I-55J55D01*
G03X260246Y22724I-147J-2D01*
G03X260175Y22826I-539J-298D01*
G03X260016Y23005I-5325J-4564D01*
G02X259918Y23115I3822J3507D01*
G02X259818Y23233I4733J4106D01*
G02X259731Y23342I4347J3586D01*
G02X259674Y23420I1056J827D01*
G02X259475Y23787I1809J1219D01*
G02X259342Y24197I2260J957D01*
G02X259279Y24641I2596J595D01*
G02X259287Y25109I3165J179D01*
G02X259299Y25229I5218J-475D01*
G02X259314Y25337I3481J-399D01*
G02X259328Y25427I4081J-599D01*
G02X259338Y25457I98J-16D01*
G02X259447Y25502I82J-44D01*
G37*
G36*
G01X268497Y25484D02*
G02X268570Y25498I84J-242D01*
G02X268627Y25489I6J-138D01*
G02X268662Y25458I-25J-63D01*
G02X268695Y25347I-260J-139D01*
G02X268716Y25078I-6482J-641D01*
G02X268725Y24791I-5155J-295D01*
G02X268713Y24555I-2387J-4D01*
G02X268637Y24118I-2963J289D01*
G02X268500Y23735I-2022J509D01*
G02X268286Y23373I-2054J972D01*
G02X267975Y22994I-3349J2429D01*
G03X267822Y22822I4626J-4275D01*
G03X267753Y22722I441J-379D01*
G03X267736Y22654I125J-68D01*
G03X267759Y22599I79J0D01*
G03X267840Y22561I92J92D01*
G03X268061Y22551I248J3162D01*
G03X268354Y22560I33J4000D01*
G03X268723Y22590I-655J10107D01*
G02X269181Y22633I2997J-29501D01*
G02X269502Y22654I629J-7296D01*
G02X269750Y22657I167J-4005D01*
G02X269964Y22642I-46J-2311D01*
G02X270156Y22611I-229J-2023D01*
G02X270308Y22565I-192J-912D01*
G02X270414Y22509I-203J-511D01*
G02X270458Y22446I-61J-90D01*
G02X270374Y22208I-221J-55D01*
G02X269942Y21950I-1450J1935D01*
G02X269316Y21722I-1618J3482D01*
G02X268582Y21574I-1570J5876D01*
G02X268107Y21527I-832J5996D01*
G02X267693Y21528I-203J3432D01*
G02X267297Y21577I194J3147D01*
G02X266879Y21679I800J4208D01*
G01X266705Y21730D01*
X266171Y21586D01*
G02X265965Y21531I-4864J17911D01*
G02X265790Y21488I-2431J9411D01*
G02X265636Y21451I-9209J38437D01*
G02X265623Y21455I-3J13D01*
G02X265618Y21465I14J14D01*
G02X265613Y21493I481J97D01*
G02X265609Y21528I496J71D01*
G02X265608Y21566I740J54D01*
G01X265606Y21663D01*
X266051Y21800D01*
G02X266226Y21854I13557J-44026D01*
G02X266384Y21902I8867J-29158D01*
G02X266518Y21941I11132J-37363D01*
G02X266561Y21952I206J-700D01*
G03X266588Y21961I-33J146D01*
G03X266614Y21975I-73J168D01*
G03X266636Y21992I-88J136D01*
G03X266649Y22008I-43J47D01*
G03X266658Y22037I-75J40D01*
G03X266668Y22119I-3102J419D01*
G03X266677Y22218I-2742J302D01*
G03X266684Y22328I-4072J297D01*
G02X266774Y23030I4317J-199D01*
G02X266977Y23676I3518J-751D01*
G02X267301Y24282I3427J-1444D01*
G02X267753Y24866I4142J-2736D01*
G02X267937Y25060I3970J-3571D01*
G02X268114Y25227I2626J-2614D01*
G02X268276Y25360I1890J-2144D01*
G02X268413Y25447I625J-823D01*
G02X268497Y25484I276J-515D01*
G37*
G36*
G01X270160Y26983D02*
G02X270207Y27029I1037J-1021D01*
G02X270248Y27065I1422J-1529D01*
G02X270261Y27070I13J-15D01*
G02X270292Y27054I0J-37D01*
G02X270358Y26950I-2152J-1433D01*
G02X270422Y26832I-1473J-882D01*
G02X270471Y26720I-1057J-525D01*
G02X270563Y26408I-2196J-822D01*
G02X270612Y26086I-2282J-508D01*
G02X270614Y25775I-2123J-169D01*
G02X270568Y25499I-1417J94D01*
G02X270472Y25204I-3035J819D01*
G02X270345Y24909I-3413J1294D01*
G02X270195Y24631I-3170J1532D01*
G02X270032Y24391I-2187J1312D01*
G03X269951Y24274I1160J-890D01*
G03X269934Y24205I95J-59D01*
G03X269965Y24160I55J5D01*
G03X270053Y24131I156J319D01*
G03X270180Y24124I89J460D01*
G03X270341Y24148I-100J1210D01*
G03X270538Y24202I-414J1883D01*
G03X270780Y24290I-1501J4493D01*
G02X271135Y24414I1661J-4199D01*
G02X271472Y24497I961J-3182D01*
G02X271839Y24549I724J-3790D01*
G02X272285Y24578I750J-8061D01*
G02X272532Y24586I849J-22703D01*
G02X272641Y24583I29J-1098D01*
G02X272712Y24570I-24J-337D01*
G02X272783Y24542I-117J-399D01*
G02X272851Y24499I-207J-405D01*
G02X272878Y24459I-43J-56D01*
G02X272872Y24409I-75J-17D01*
G02X272830Y24335I-504J236D01*
G02X272554Y24066I-773J520D01*
G02X271934Y23708I-5018J7950D01*
G02X271272Y23392I-4053J7657D01*
G02X270785Y23252I-813J1912D01*
G02X270557Y23225I-485J3046D01*
G02X270228Y23202I-1054J12671D01*
G02X269865Y23186I-805J14050D01*
G02X269521Y23180I-353J11304D01*
G01X269124Y23180D01*
X268806Y22984D01*
X268682Y22908D01*
X268573Y22841D01*
X268480Y22784D01*
G02X268460Y22772I-478J788D01*
G02X268444Y22768I-16J27D01*
G02X268422Y22770I-2J125D01*
G02X268396Y22776I26J158D01*
G02X268371Y22787I58J169D01*
G02X268353Y22816I16J30D01*
G02X268367Y22852I50J2D01*
G02X268437Y22918I541J-512D01*
G02X268684Y23118I31100J-38222D01*
G01X269057Y23417D01*
X269072Y23556D01*
G03X269080Y23645I-1697J192D01*
G03X269093Y23869I-47925J2891D01*
G03X269107Y24136I-43925J2449D01*
G03X269121Y24427I-61249J3031D01*
G02X269148Y24930I30054J-1352D01*
G02X269177Y25206I3229J-198D01*
G02X269224Y25423I1660J-247D01*
G02X269306Y25671I3132J-899D01*
G02X269446Y25985I2692J-1013D01*
G02X269636Y26314I3812J-1982D01*
G02X269861Y26636I3852J-2458D01*
G02X270108Y26929I3270J-2506D01*
G02X270160Y26983I1814J-1678D01*
G37*
G36*
G01X257676Y27002D02*
G02X257704Y27038I488J-346D01*
G02X257728Y27065I478J-396D01*
G02X257739Y27070I12J-11D01*
G02X257774Y27055I0J-47D01*
G02X257901Y26917I-7743J-7283D01*
G02X258036Y26763I-3615J-3283D01*
G02X258161Y26606I-3460J-2884D01*
G02X258343Y26349I-3560J-2711D01*
G02X258499Y26089I-3197J-2095D01*
G02X258627Y25829I-3076J-1684D01*
G02X258728Y25570I-2673J-1188D01*
G02X258793Y25350I-3167J-1061D01*
G02X258829Y25167I-1447J-377D01*
G02X258852Y24924I-3329J-434D01*
G02X258878Y24419I-49854J-2831D01*
G03X258892Y24134I59019J2753D01*
G03X258906Y23870I43020J2203D01*
G03X258919Y23649I46010J2640D01*
G03X258927Y23559I1797J114D01*
G01X258943Y23417D01*
X259316Y23118D01*
G02X259563Y22918I-30853J-38421D01*
G02X259633Y22852I-470J-577D01*
G02X259647Y22816I-37J-35D01*
G02X259629Y22787I-34J1D01*
G02X259604Y22776I-83J159D01*
G02X259578Y22770I-52J151D01*
G02X259556Y22768I-21J124D01*
G02X259541Y22772I1J31D01*
G02X259520Y22784I458J800D01*
G01X259427Y22841D01*
X259318Y22908D01*
X259194Y22984D01*
X258876Y23180D01*
X258479Y23180D01*
G02X258135Y23186I9J11310D01*
G02X257772Y23202I442J14066D01*
G02X257443Y23225I724J12694D01*
G02X257215Y23252I257J3074D01*
G02X256841Y23354I284J1787D01*
G02X256323Y23578I2839J7279D01*
G02X255801Y23850I3415J7176D01*
G02X255403Y24115I1742J3054D01*
G02X255286Y24215I861J1123D01*
G02X255183Y24325I889J929D01*
G02X255108Y24426I967J798D01*
G02X255108Y24472I36J24D01*
G02X255118Y24483I31J-19D01*
G02X255143Y24500I371J-516D01*
G02X255176Y24520I362J-561D01*
G02X255212Y24539I445J-785D01*
G02X255269Y24563I163J-319D01*
G02X255331Y24576I120J-388D01*
G02X255411Y24584I106J-733D01*
G02X255532Y24586I118J-3466D01*
G02X255982Y24568I-6J-5807D01*
G02X256407Y24515I-374J-4747D01*
G02X256806Y24428I-727J-4270D01*
G02X257179Y24306I-952J-3536D01*
G03X257449Y24207I2394J6172D01*
G03X257655Y24149I668J1972D01*
G03X257817Y24124I262J1154D01*
G03X257947Y24131I40J470D01*
G03X258033Y24159I-68J353D01*
G03X258067Y24203I-27J56D01*
G03X258057Y24265I-87J18D01*
G03X257993Y24357I-633J-369D01*
G02X257788Y24655I1766J1433D01*
G02X257605Y25018I3145J1813D01*
G02X257465Y25396I3292J1435D01*
G02X257390Y25740I2008J618D01*
G02X257380Y26041I1502J198D01*
G02X257427Y26377I2415J-165D01*
G02X257520Y26699I2329J-493D01*
G02X257648Y26960I1268J-462D01*
G02X257676Y27002I829J-528D01*
G37*
G36*
G01X260217Y29323D02*
G02X260255Y29337I49J-74D01*
G02X260338Y29342I87J-703D01*
G02X260572Y29343I177J-28154D01*
G02X261008Y29329I-14J-7324D01*
G02X261282Y29283I-81J-1314D01*
G02X261462Y29196I-154J-550D01*
G02X261581Y29060I-235J-326D01*
G02X261622Y28948I-366J-196D01*
G02X261631Y28826I-455J-94D01*
G02X261607Y28707I-448J27D01*
G02X261554Y28607I-335J115D01*
G02X261491Y28544I-275J210D01*
G02X261392Y28476I-651J839D01*
G02X261291Y28421I-566J928D01*
G02X261223Y28406I-67J143D01*
G03X261210Y28405I0J-73D01*
G03X261198Y28401I8J-43D01*
G03X261191Y28395I11J-23D01*
G03X261189Y28389I7J-6D01*
G03X261193Y28376I22J1D01*
G03X261270Y28276I30194J23079D01*
G03X261359Y28163I8242J6351D01*
G03X261464Y28031I15133J12001D01*
G03X261605Y27860I8512J6872D01*
G03X261702Y27753I1574J1323D01*
G03X261775Y27685I674J652D01*
G03X261838Y27645I184J221D01*
G02X261933Y27593I-354J-763D01*
G02X261935Y27562I-10J-16D01*
G02X261880Y27543I-56J72D01*
G02X261709Y27544I-55J3940D01*
G01X261480Y27551D01*
X261180Y27949D01*
G03X260998Y28188I-22914J-17289D01*
G03X260913Y28287I-1061J-817D01*
G03X260855Y28336I-226J-213D01*
G03X260799Y28355I-68J-105D01*
G01X260719Y28362D01*
X260719Y28062D01*
G03X260724Y27854I4768J6D01*
G03X260741Y27735I604J27D01*
G03X260774Y27668I176J44D01*
G03X260825Y27638I63J49D01*
G02X260902Y27625I-255J-1686D01*
G02X260945Y27611I-43J-218D01*
G02X260968Y27595I-27J-63D01*
G02X260977Y27574I-23J-21D01*
G02X260962Y27555I-19J0D01*
G02X260905Y27545I-89J355D01*
G02X260802Y27540I-118J1314D01*
G02X260590Y27539I-205J19044D01*
G02X260378Y27540I-8J19036D01*
G02X260274Y27545I15J1319D01*
G02X260218Y27555I33J365D01*
G02X260203Y27574I5J19D01*
G02X260208Y27588I24J0D01*
G02X260222Y27602I56J-42D01*
G02X260243Y27614I60J-80D01*
G02X260268Y27622I52J-122D01*
G03X260334Y27640I-120J569D01*
G03X260375Y27663I-41J121D01*
G03X260401Y27696I-64J77D01*
G03X260420Y27749I-253J123D01*
G03X260428Y27803I-235J61D01*
G03X260432Y28002I-21614J566D01*
G03X260434Y28239I-14737J243D01*
G03X260433Y28504I-23502J18D01*
G03X260428Y28926I-85946J-890D01*
G03X260420Y29089I-2801J-44D01*
G03X260407Y29176I-585J-43D01*
G03X260380Y29217I-68J-15D01*
G03X260358Y29230I-69J-95D01*
G03X260329Y29240I-102J-234D01*
G03X260297Y29248I-77J-256D01*
G03X260269Y29250I-28J-166D01*
G02X260237Y29252I0J231D01*
G02X260217Y29260I6J44D01*
G02X260207Y29274I16J23D01*
G02X260203Y29297I69J23D01*
G02X260217Y29323I31J0D01*
G37*
G36*
G01X266167Y29360D02*
G02X266270Y29362I66J-638D01*
G02X266381Y29348I-44J-749D01*
G02X266500Y29316I-231J-1096D01*
G01X266656Y29264D01*
X266690Y29316D01*
G02X266718Y29346I115J-76D01*
G02X266752Y29365I70J-85D01*
G02X266778Y29365I13J-39D01*
G02X266789Y29350I-5J-16D01*
G03X266792Y29308I380J1D01*
G03X266814Y29111I80266J9125D01*
G03X266836Y28923I41146J4783D01*
G03X266848Y28844I1721J208D01*
G02X266852Y28807I-418J-70D01*
G02X266848Y28791I-26J-2D01*
G02X266835Y28784I-13J9D01*
G02X266808Y28786I-5J152D01*
G02X266785Y28793I10J69D01*
G02X266766Y28808I35J66D01*
G02X266750Y28831I69J64D01*
G02X266739Y28860I146J71D01*
G03X266674Y29001I-442J-118D01*
G03X266564Y29120I-446J-306D01*
G03X266424Y29199I-328J-416D01*
G03X266275Y29227I-149J-389D01*
G03X266206Y29224I1J-841D01*
G03X266162Y29214I14J-169D01*
G03X266124Y29193I48J-131D01*
G03X266081Y29155I279J-360D01*
G03X266042Y29111I397J-396D01*
G03X266024Y29078I83J-68D01*
G03X266018Y29040I108J-36D01*
G03X266022Y28978I666J13D01*
G03X266047Y28885I321J36D01*
G03X266097Y28810I225J98D01*
G03X266195Y28730I449J445D01*
G03X266396Y28600I3822J5716D01*
G02X266596Y28468I-2151J-3474D01*
G02X266736Y28355I-776J-1102D01*
G02X266829Y28252I-521J-564D01*
G02X266878Y28154I-252J-188D01*
G02X266894Y27909I-520J-156D01*
G02X266797Y27702I-419J69D01*
G02X266599Y27564I-365J314D01*
G02X266332Y27517I-261J706D01*
G02X266260Y27521I8J886D01*
G02X266178Y27531I128J1419D01*
G02X266100Y27544I199J1346D01*
G02X266039Y27561I117J561D01*
G03X265950Y27587I-393J-1200D01*
G03X265894Y27592I-43J-175D01*
G03X265864Y27578I3J-48D01*
G03X265852Y27548I29J-29D01*
G02X265848Y27536I-25J0D01*
G02X265839Y27525I-31J18D01*
G02X265825Y27518I-27J36D01*
G02X265808Y27516I-17J55D01*
G02X265785Y27526I0J33D01*
G02X265768Y27553I54J52D01*
G02X265754Y27608I309J108D01*
G02X265737Y27721I4352J714D01*
G03X265725Y27806I-34303J-4678D01*
G03X265713Y27891I-35588J-4981D01*
G03X265702Y27967I-31687J-4512D01*
G03X265695Y28014I-5233J-765D01*
G02X265694Y28085I255J39D01*
G02X265720Y28103I21J-3D01*
G02X265764Y28073I-17J-71D01*
G02X265816Y27985I-660J-449D01*
G03X265922Y27818I903J457D01*
G03X266044Y27706I399J313D01*
G03X266185Y27648I229J351D01*
G03X266348Y27638I111J521D01*
G03X266457Y27665I-39J402D01*
G03X266537Y27719I-81J205D01*
G03X266585Y27801I-155J145D01*
G03X266601Y27909I-343J107D01*
G03X266581Y28030I-376J-1D01*
G03X266523Y28129I-274J-94D01*
G03X266408Y28229I-458J-410D01*
G03X266194Y28364I-2326J-3458D01*
G02X265959Y28527I988J1680D01*
G02X265821Y28686I376J466D01*
G02X265766Y28856I341J204D01*
G02X265784Y29051I554J47D01*
G02X265824Y29136I278J-77D01*
G02X265897Y29226I536J-364D01*
G02X265985Y29301I461J-452D01*
G02X266069Y29341I162J-228D01*
G02X266167Y29360I155J-539D01*
G37*
G36*
G01X263797Y29335D02*
G02X263904Y29338I399J-11936D01*
G02X264029Y29340I121J-4892D01*
G02X264174Y29338I-7J-8898D01*
G02X264379Y29334I-291J-17132D01*
G02X264480Y29327I-37J-1272D01*
G02X264536Y29316I-40J-363D01*
G02X264551Y29297I-5J-19D01*
G02X264545Y29282I-24J0D01*
G02X264528Y29268I-49J43D01*
G02X264501Y29257I-62J109D01*
G02X264464Y29248I-88J309D01*
G03X264371Y29221I62J-384D01*
G03X264326Y29175I34J-77D01*
G03X264308Y29087I240J-96D01*
G03X264305Y28849I8314J-238D01*
G01Y28523D01*
X265078D01*
Y28840D01*
G03X265077Y29026I-12605J5D01*
G03X265070Y29113I-768J-12D01*
G03X265057Y29165I-207J-27D01*
G03X265031Y29203I-108J-44D01*
G03X265006Y29223I-91J-91D01*
G03X264975Y29238I-93J-155D01*
G03X264939Y29247I-69J-192D01*
G03X264901Y29250I-38J-232D01*
G02X264857Y29252I-1J568D01*
G02X264835Y29258I4J56D01*
G02X264825Y29271I9J17D01*
G02X264825Y29291I45J11D01*
G02X264844Y29314I30J-6D01*
G02X264894Y29325I70J-187D01*
G02X264990Y29331I107J-1026D01*
G02X265219Y29332I228J-23546D01*
G02X265447Y29331I1J-23537D01*
G02X265544Y29325I-10J-1032D01*
G02X265594Y29314I-21J-199D01*
G02X265613Y29291I-11J-29D01*
G02X265612Y29271I-48J-10D01*
G02X265603Y29258I-19J4D01*
G02X265583Y29252I-25J41D01*
G02X265545Y29250I-38J423D01*
G03X265512Y29247I0J-184D01*
G03X265478Y29239I44J-249D01*
G03X265448Y29226I72J-220D01*
G03X265426Y29211I42J-86D01*
G03X265401Y29166I54J-59D01*
G03X265389Y29067I840J-146D01*
G03X265384Y28886I3566J-197D01*
G03X265383Y28439I94053J-455D01*
G03X265385Y27897I67610J3D01*
G03X265400Y27738I909J8D01*
G03X265444Y27664I122J23D01*
G03X265534Y27623I127J157D01*
G02X265568Y27614I-50J-266D01*
G02X265594Y27602I-40J-124D01*
G02X265612Y27588I-38J-64D01*
G02X265617Y27573I-17J-15D01*
G02X265602Y27555I-19J0D01*
G02X265543Y27545I-96J422D01*
G02X265436Y27540I-122J1440D01*
G02X265219Y27539I-218J19716D01*
G02X265002Y27540I1J19727D01*
G02X264895Y27545I15J1445D01*
G02X264835Y27555I37J432D01*
G02X264820Y27573I4J18D01*
G02X264826Y27588I22J0D01*
G02X264844Y27602I54J-50D01*
G02X264872Y27614I68J-119D01*
G02X264908Y27623I93J-305D01*
G03X265007Y27654I-71J398D01*
G03X265054Y27704I-39J85D01*
G03X265074Y27800I-259J104D01*
G03X265078Y28047I-7953J246D01*
G01Y28383D01*
X264305D01*
Y28045D01*
G03X264308Y27795I8802J-1D01*
G03X264327Y27701I283J8D01*
G03X264373Y27652I82J32D01*
G03X264467Y27624I152J335D01*
G02X264508Y27615I-67J-416D01*
G02X264538Y27604I-36J-137D01*
G02X264556Y27590I-32J-60D01*
G02X264562Y27574I-17J-16D01*
G02X264548Y27555I-19J0D01*
G02X264490Y27545I-92J373D01*
G02X264384Y27540I-121J1380D01*
G02X264164Y27539I-213J20525D01*
G02X263953Y27540I-2J18287D01*
G02X263843Y27545I18J1562D01*
G02X263780Y27554I45J549D01*
G02X263766Y27572I3J17D01*
G02X263774Y27596I38J0D01*
G02X263799Y27616I61J-50D01*
G02X263836Y27629I62J-119D01*
G02X263883Y27633I47J-253D01*
G03X263902Y27636I0J71D01*
G03X263924Y27644I-41J146D01*
G03X263946Y27656I-67J147D01*
G03X263963Y27670I-61J92D01*
G03X263984Y27713I-52J52D01*
G03X263994Y27826I-1622J193D01*
G03X263999Y28020I-4521J221D01*
G03X264000Y28426I-69873J410D01*
G03X263997Y28964I-51243J2D01*
G03X263980Y29142I-1030J-11D01*
G03X263933Y29219I-128J-24D01*
G03X263846Y29250I-87J-108D01*
G02X263798Y29256I0J205D01*
G02X263770Y29274I12J51D01*
G02X263764Y29299I22J18D01*
G02X263782Y29329I66J-19D01*
G02X263797Y29335I15J-15D01*
G37*
G36*
G01X267393Y42354D02*
G02X267707Y42344I-1279J-46948D01*
G02X268024Y42328I-360J-10559D01*
G02X268312Y42304I-465J-7229D01*
G02X268577Y42258I-210J-2006D01*
G02X268810Y42180I-341J-1410D01*
G02X269047Y42056I-697J-1616D01*
G02X269322Y41868I-2215J-3536D01*
G02X269522Y41708I-1978J-2662D01*
G02X269769Y41485I-6120J-7027D01*
G02X270020Y41248I-25816J-27594D01*
G02X270020Y41215I-16J-16D01*
G02X270008Y41209I-16J16D01*
G02X269946Y41198I-733J4044D01*
G02X269873Y41188I-383J2325D01*
G02X269789Y41177I-534J4025D01*
G02X269284Y41181I-235J2106D01*
G02X268768Y41302I329J2571D01*
G02X268265Y41533I922J2669D01*
G02X267802Y41863I1587J2717D01*
G02X267676Y41981I1369J1591D01*
G02X267530Y42135I3399J3358D01*
G02X267392Y42292I7831J7070D01*
G02X267375Y42336I51J44D01*
G02X267393Y42354I18J0D01*
G37*
G36*
G01X260240Y42345D02*
G02X260427Y42347I148J-5077D01*
G02X260612Y42345I-141J-18795D01*
G02X260625Y42332I0J-13D01*
G02X260621Y42319I-21J0D01*
G02X260589Y42277I-1942J1416D01*
G02X260550Y42228I-1278J975D01*
G02X260504Y42174I-2083J1722D01*
G02X260160Y41834I-2443J2130D01*
G02X259775Y41556I-1950J2296D01*
G02X259360Y41347I-1497J2462D01*
G02X258926Y41214I-987J2435D01*
G02X258731Y41186I-285J1321D01*
G02X258447Y41174I-378J5665D01*
G02X258169Y41176I-108J6638D01*
G02X258035Y41199I12J467D01*
G01X257965Y41222D01*
X258214Y41466D01*
G02X258506Y41732I4058J-4148D01*
G02X258784Y41947I2348J-2753D01*
G02X259049Y42111I1635J-2345D01*
G02X259305Y42227I888J-1627D01*
G02X259417Y42259I300J-823D01*
G02X259556Y42284I405J-1856D01*
G02X259754Y42308I604J-4244D01*
G02X260074Y42336I2496J-26413D01*
G02X260240Y42345I258J-3116D01*
G37*
G36*
G01X257433Y42064D02*
G02X257496Y42088I147J-298D01*
G02X257517Y42079I5J-20D01*
G02X257520Y42053I-24J-16D01*
G03X257437Y41835I11720J-4610D01*
G03X257360Y41622I10635J-3965D01*
G03X257292Y41420I9516J-3325D01*
G03X257235Y41238I6164J-2013D01*
G03X257179Y41018I2996J-881D01*
G03X257144Y40809I2308J-500D01*
G03X257128Y40634I2586J-320D01*
G03X257154Y40583I55J-3D01*
G03X257218Y40566I63J102D01*
G03X257500Y40571I-182J16493D01*
G03X257857Y40587I-346J12099D01*
G03X258314Y40616I-1866J32170D01*
G02X258700Y40643I6053J-83926D01*
G02X258959Y40659I1220J-17986D01*
G02X259140Y40667I498J-9335D01*
G02X259248Y40666I44J-1313D01*
G02X259280Y40644I-2J-37D01*
G02X259281Y40601I-51J-23D01*
G02X259240Y40528I-269J105D01*
G02X259156Y40429I-1200J935D01*
G02X258726Y40086I-1355J1255D01*
G02X258142Y39817I-1711J2953D01*
G02X257462Y39644I-1330J3803D01*
G02X256744Y39586I-718J4395D01*
G03X256540Y39570I1J-1337D01*
G03X256412Y39518I46J-296D01*
G03X256287Y39400I357J-501D01*
G03X256052Y39092I9307J-7382D01*
G02X255892Y38881I-15349J11382D01*
G02X255794Y38760I-2008J1531D01*
G02X255726Y38688I-910J788D01*
G02X255688Y38672I-38J39D01*
G02X255638Y38700I0J59D01*
G02X255633Y38759I56J34D01*
G02X255704Y38891I791J-338D01*
G02X255922Y39223I24281J-15783D01*
G01X256158Y39574D01*
X256160Y40148D01*
G02X256163Y40491I38213J-152D01*
G02X256170Y40660I2776J-35D01*
G02X256186Y40778I1024J-76D01*
G02X256216Y40898I1162J-223D01*
G02X256275Y41066I1801J-546D01*
G02X256348Y41217I1389J-569D01*
G02X256431Y41350I1142J-626D01*
G02X256523Y41460I753J-539D01*
G02X256656Y41577I905J-888D01*
G02X256864Y41730I3274J-4265D01*
G02X257091Y41879I3162J-4560D01*
G02X257292Y41993I1534J-2460D01*
G02X257433Y42064I3501J-6754D01*
G37*
G36*
G01X253129Y37256D02*
G02X253159Y37259I16J-12D01*
G02X253210Y37205I-252J-293D01*
G02X253430Y36926I-62938J-49743D01*
G02X253647Y36631I-4726J-3701D01*
G02X253763Y36419I-992J-683D01*
G02X253849Y36163I-1598J-681D01*
G02X253969Y35660I-19009J-4786D01*
G03X254003Y35521I4155J932D01*
G03X254029Y35447I441J115D01*
G03X254064Y35390I246J112D01*
G03X254121Y35326I608J485D01*
G03X254171Y35279I758J757D01*
G03X254208Y35252I162J183D01*
G03X254239Y35240I55J94D01*
G03X254265Y35241I11J45D01*
G03X254290Y35255I-29J84D01*
G03X254347Y35301I-1518J1935D01*
G03X254414Y35359I-1482J1772D01*
G03X254484Y35425I-2208J2447D01*
G02X254696Y35624I12399J-12948D01*
G02X254864Y35775I4593J-4958D01*
G02X255017Y35901I3247J-3750D01*
G02X255176Y36023I3232J-4050D01*
G02X255504Y36243I2577J-3497D01*
G02X255779Y36375I822J-1359D01*
G02X255976Y36414I224J-610D01*
G02X256067Y36350I4J-92D01*
G02X256063Y36206I-212J-67D01*
G02X255924Y35860I-6045J2233D01*
G02X255752Y35506I-4484J1959D01*
G02X255581Y35238I-1844J989D01*
G02X255283Y34894I-2607J1958D01*
G02X254915Y34564I-3202J3194D01*
G02X254501Y34266I-3001J3732D01*
G02X254066Y34020I-2413J3757D01*
G01X253828Y33902D01*
X253828Y33442D01*
X253828Y32982D01*
X253755Y32968D01*
G02X253670Y32966I-47J235D01*
G02X253631Y33002I8J47D01*
G02X253619Y33101I412J102D01*
G02X253617Y33524I61585J415D01*
G03X253613Y33955I-22273J-2D01*
G03X253592Y34130I-880J-17D01*
G03X253538Y34259I-387J-86D01*
G03X253415Y34426I-1496J-970D01*
G02X253260Y34649I1256J1039D01*
G02X253136Y34905I1688J976D01*
G02X253044Y35192I2043J813D01*
G02X252985Y35508I2773J683D01*
G02X252961Y35885I2928J379D01*
G02X252977Y36346I6489J3D01*
G02X253026Y36811I6599J-465D01*
G02X253105Y37204I3542J-504D01*
G02X253129Y37256I146J-38D01*
G37*
G36*
G01X270471Y42079D02*
G02X270475Y42088I8J2D01*
G02X270486Y42090I8J-12D01*
G02X270518Y42082I-121J-501D01*
G02X270702Y42001I-268J-864D01*
G02X270994Y41823I-3440J-5966D01*
G02X271282Y41627I-3553J-5512D01*
G02X271464Y41472I-890J-1231D01*
G02X271563Y41357I-713J-716D01*
G02X271650Y41222I-991J-733D01*
G02X271723Y41069I-1214J-674D01*
G02X271782Y40898I-1652J-668D01*
G02X271808Y40790I-1152J-336D01*
G02X271825Y40676I-1324J-255D01*
G02X271836Y40530I-2417J-254D01*
G02X271844Y40312I-11450J-508D01*
G02X271846Y40145I-8101J-210D01*
G02X271845Y39982I-7415J-37D01*
G02X271841Y39841I-6693J115D01*
G02X271834Y39762I-774J29D01*
G01X271814Y39621D01*
X272040Y39281D01*
G02X272284Y38909I-32337J-21465D01*
G02X272362Y38766I-887J-574D01*
G02X272360Y38702I-69J-31D01*
G02X272312Y38672I-48J24D01*
G02X272274Y38688I0J55D01*
G02X272206Y38759I815J833D01*
G02X272109Y38880I1882J1623D01*
G02X271950Y39092I15257J11579D01*
G03X271713Y39402I-9293J-6856D01*
G03X271587Y39520I-455J-360D01*
G03X271455Y39571I-174J-252D01*
G03X271232Y39586I-225J-1663D01*
G02X270652Y39628I9J4172D01*
G02X270075Y39750I623J4368D01*
G02X269548Y39940I1091J3857D01*
G02X269120Y40184I973J2208D01*
G02X268986Y40291I869J1217D01*
G02X268850Y40425I1569J1738D01*
G02X268734Y40556I2146J2016D01*
G02X268711Y40618I75J63D01*
G02X268719Y40643I41J0D01*
G02X268739Y40657I30J-21D01*
G02X268782Y40663I48J-181D01*
G02X268883Y40664I103J-4061D01*
G02X268986Y40662I0J-2019D01*
G02X269195Y40650I-1436J-28194D01*
G02X269441Y40635I-1731J-29517D01*
G02X269701Y40616I-2414J-36301D01*
G03X269967Y40599I1401J18925D01*
G03X270232Y40585I1118J18631D01*
G03X270462Y40576I758J16649D01*
G03X270601Y40575I75J2395D01*
G01X270856Y40582D01*
X270854Y40758D01*
G03X270831Y40969I-1058J-9D01*
G03X270757Y41264I-4162J-886D01*
G03X270640Y41627I-6032J-1743D01*
G03X270479Y42055I-12267J-4366D01*
G02X270471Y42079I188J75D01*
G37*
G36*
G01X254937Y39943D02*
G02X254980Y40001I1605J-1135D01*
G02X255018Y40050I3039J-2318D01*
G02X255028Y40055I10J-8D01*
G02X255037Y40052I0J-18D01*
G02X255057Y40039I-205J-332D01*
G02X255079Y40022I-234J-331D01*
G02X255103Y40002I-369J-457D01*
G02X255138Y39952I-95J-105D01*
G02X255161Y39878I-347J-149D01*
G02X255183Y39743I-1697J-339D01*
G02X255221Y39410I-44388J-5281D01*
G02X255282Y38858I-255259J-28370D01*
G02X255310Y38581I-19319J-2109D01*
G02X255324Y38407I-6090J-574D01*
G02X255328Y38276I-1991J-131D01*
G03X255339Y38123I1109J0D01*
G03X255376Y38037I170J24D01*
G03X255445Y38000I82J67D01*
G03X255553Y38003I44J348D01*
G03X255667Y38047I-62J334D01*
G03X255860Y38173I-1851J3030D01*
G03X256075Y38336I-2248J3196D01*
G03X256284Y38517I-2732J3363D01*
G02X256481Y38686I2318J-2508D01*
G02X256648Y38798I798J-1006D01*
G02X256804Y38867I426J-756D01*
G02X256963Y38900I224J-682D01*
G02X257072Y38901I67J-736D01*
G02X257174Y38886I-35J-602D01*
G02X257252Y38860I-98J-419D01*
G02X257273Y38827I-15J-33D01*
G02X257270Y38808I-51J0D01*
G02X257247Y38752I-2764J1098D01*
G02X257218Y38686I-2141J897D01*
G02X257183Y38612I-3289J1504D01*
G02X256927Y38207I-1932J936D01*
G02X256549Y37799I-3010J2409D01*
G02X256101Y37435I-2807J3003D01*
G02X255632Y37162I-1844J2633D01*
G02X255427Y37073I-1600J3381D01*
G02X255205Y36990I-1745J4345D01*
G02X254992Y36923I-1395J4053D01*
G02X254815Y36881I-516J1799D01*
G01X254663Y36853D01*
X254544Y36459D01*
X254426Y36066D01*
X254336Y36078D01*
G02X254301Y36083I104J771D01*
G02X254269Y36090I96J529D01*
G02X254243Y36097I128J521D01*
G02X254233Y36103I7J22D01*
G02X254229Y36115I10J10D01*
G02X254250Y36234I20115J-3484D01*
G02X254276Y36370I6137J-1098D01*
G02X254309Y36530I11526J-2338D01*
G03X254364Y36791I-22275J4825D01*
G03X254383Y36909I-1196J245D01*
G03X254384Y37000I-494J51D01*
G03X254370Y37110I-1158J-91D01*
G02X254328Y37361I12707J2242D01*
G02X254306Y37534I2954J462D01*
G02X254296Y37698I2495J242D01*
G02X254292Y37910I7031J222D01*
G02X254302Y38196I4196J4D01*
G02X254331Y38455I2865J-193D01*
G02X254384Y38711I2841J-452D01*
G02X254464Y38986I4104J-1041D01*
G02X254550Y39225I3760J-1232D01*
G02X254651Y39455I3498J-1400D01*
G02X254765Y39672I3237J-1553D01*
G02X254889Y39873I2695J-1527D01*
G02X254937Y39943I2967J-1992D01*
G37*
G36*
G01X272484Y34107D02*
X272555Y34093D01*
G02X272705Y34030I-78J-391D01*
G02X272970Y33833I-3119J-4485D01*
G02X273257Y33589I-3330J-4219D01*
G02X273516Y33335I-3112J-3420D01*
G02X273686Y33144I-3276J-3080D01*
G02X273837Y32950I-2895J-2425D01*
G02X273966Y32760I-2683J-1965D01*
G02X274070Y32578I-1954J-1235D01*
G03X274139Y32459I1236J631D01*
G03X274200Y32389I268J172D01*
G03X274259Y32361I83J97D01*
G03X274316Y32369I17J85D01*
G03X274342Y32391I-37J68D01*
G03X274423Y32500I-8032J6102D01*
G03X274518Y32631I-5043J3721D01*
G03X274622Y32783I-8542J5964D01*
G02X274949Y33250I12033J-8098D01*
G02X275200Y33554I2788J-2041D01*
G02X275437Y33774I1546J-1428D01*
G02X275710Y33961I1448J-1823D01*
G02X275773Y33997I2199J-3767D01*
G02X275828Y34027I1258J-2234D01*
G02X275876Y34052I2164J-4078D01*
G02X275887Y34055I11J-22D01*
G02X275938Y34007I0J-51D01*
G02X275960Y33578I-16816J-1078D01*
G02X275963Y33158I-7115J-275D01*
G02X275932Y32871I-1644J34D01*
G02X275827Y32493I-2568J510D01*
G02X275665Y32127I-2644J953D01*
G02X275451Y31784I-2547J1353D01*
G02X275189Y31472I-2399J1745D01*
G02X275057Y31343I-2105J2025D01*
G02X274874Y31180I-5961J6511D01*
G02X274694Y31028I-7251J8375D01*
G02X274607Y30968I-377J454D01*
G03X274590Y30948I18J-31D01*
G03X274566Y30870I1895J-642D01*
G03X274539Y30770I1819J-536D01*
G03X274512Y30645I4169J-983D01*
G02X274460Y30406I-8932J1825D01*
G02X274402Y30174I-8102J1880D01*
G02X274348Y29977I-7401J1946D01*
G02X274309Y29872I-744J217D01*
G02X274282Y29832I-130J59D01*
G02X274242Y29802I-116J112D01*
G02X274196Y29786I-75J139D01*
G02X274148Y29786I-24J131D01*
G02X274102Y29819I12J67D01*
G02X274083Y29886I123J71D01*
G02X274089Y30023I917J24D01*
G02X274133Y30360I24501J-3019D01*
G01X274202Y30864D01*
X274123Y30929D01*
G02X273984Y31052I1456J1788D01*
G02X273770Y31261I10121J10562D01*
G02X273559Y31476I10125J10153D01*
G02X273427Y31623I2027J1948D01*
G02X273173Y31955I3797J3167D01*
G02X272949Y32306I4028J2819D01*
G02X272767Y32655I3820J2217D01*
G02X272641Y32977I2402J1122D01*
G02X272583Y33195I2439J771D01*
G02X272532Y33458I4945J1095D01*
G02X272496Y33717I4870J813D01*
G02X272484Y33919I1795J202D01*
G01Y34107D01*
G37*
G36*
G01X272483Y31361D02*
G02X272492Y31446I2192J-176D01*
G02X272501Y31517I4760J-578D01*
G02X272508Y31523I7J-1D01*
G02X272518Y31521I0J-22D01*
G02X272547Y31506I-492J-938D01*
G02X272580Y31486I-439J-774D01*
G02X272616Y31463I-729J-1173D01*
G02X272918Y31187I-758J-1136D01*
G02X273184Y30788I-1969J-1598D01*
G02X273400Y30291I-2854J-1532D01*
G02X273552Y29719I-4352J-1467D01*
G03X273600Y29489I12255J2430D01*
G03X273631Y29388I659J144D01*
G03X273664Y29335I148J58D01*
G03X273713Y29307I73J71D01*
G03X273838Y29313I52J209D01*
G03X274016Y29394I-388J1095D01*
G03X274319Y29577I-2579J4608D01*
G03X275039Y30049I-72929J112032D01*
G02X275354Y30255I24075J-36448D01*
G02X275629Y30431I13611J-21015D01*
G02X275867Y30580I30074J-47752D01*
G02X275912Y30599I82J-132D01*
G02X275952Y30606I74J-301D01*
G02X275968Y30599I2J-18D01*
G02X275975Y30578I-30J-22D01*
G02X275976Y30512I-1691J-64D01*
G02X275969Y30381I-1139J2D01*
G02X275945Y30230I-2075J244D01*
G02X275907Y30064I-2526J486D01*
G02X275856Y29886I-3432J900D01*
G02X275566Y29251I-2785J888D01*
G02X275140Y28722I-2253J1375D01*
G02X274579Y28304I-1950J2033D01*
G02X273889Y27999I-1861J3285D01*
G03X273791Y27967I2670J-8191D01*
G03X273697Y27934I2286J-6725D01*
G03X273619Y27906I2251J-6338D01*
G03X273580Y27890I179J-484D01*
G03X273536Y27855I51J-109D01*
G03X273459Y27751I2000J-1573D01*
G03X273354Y27596I3350J-2373D01*
G03X273205Y27360I16171J-10372D01*
G02X273084Y27168I-15029J9339D01*
G02X272979Y27007I-7847J5020D01*
G02X272885Y26868I-27913J18662D01*
G02X272871Y26861I-14J9D01*
G02X272858Y26864I0J29D01*
G02X272835Y26877I173J335D01*
G02X272808Y26895I221J361D01*
G02X272781Y26916I326J452D01*
G02X272743Y26964I87J107D01*
G02X272742Y27013I54J25D01*
G02X272786Y27097I587J-253D01*
G02X273024Y27480I114980J-71143D01*
G03X273134Y27661I-10025J6254D01*
G03X273212Y27798I-3119J1866D01*
G03X273268Y27904I-4200J2275D01*
G03X273266Y27928I-20J10D01*
G02X273252Y27947I440J327D01*
G01X273196Y28030D01*
G02X273130Y28127I36887J25016D01*
G02X273056Y28237I60729J40989D01*
G02X272813Y28629I5281J3553D01*
G02X272647Y28968I2528J1446D01*
G02X272542Y29290I2092J859D01*
G02X272486Y29625I2234J547D01*
G02X272469Y29920I4263J394D01*
G02X272462Y30402I27954J647D01*
G02X272464Y30896I26907J160D01*
G02X272476Y31260I8068J-100D01*
G02X272483Y31361I4304J-251D01*
G37*
G36*
G01X271718Y29055D02*
G02X271747Y29080I196J-206D01*
G02X271772Y29095I120J-166D01*
G02X271786Y29095I6J-12D01*
G02X271834Y29047I-77J-125D01*
G02X271898Y28933I-1444J-893D01*
G02X271962Y28795I-1617J-833D01*
G02X272015Y28651I-1721J-713D01*
G02X272094Y28347I-2721J-872D01*
G02X272150Y28000I-4339J-879D01*
G02X272189Y27570I-6981J-846D01*
G02X272215Y27000I-20957J-1242D01*
G03X272228Y26644I34002J1082D01*
G03X272243Y26503I1203J51D01*
G03X272268Y26433I204J33D01*
G03X272312Y26399I62J36D01*
G03X272450Y26402I64J257D01*
G03X272767Y26503I-1730J5954D01*
G03X273085Y26627I-1588J4536D01*
G03X273295Y26743I-487J1130D01*
G02X273439Y26832I878J-1277D01*
G02X273712Y26975I6991J-13000D01*
G02X273990Y27112I6415J-12560D01*
G02X274161Y27186I883J-1826D01*
G02X274364Y27255I1148J-3060D01*
G02X274564Y27307I820J-2721D01*
G02X274748Y27341I519J-2324D01*
G02X274902Y27352I154J-1080D01*
G02X275022Y27348I0J-2105D01*
G02X275075Y27333I-7J-127D01*
G02X275101Y27300I-26J-47D01*
G02X275109Y27238I-225J-62D01*
G02X275096Y27177I-153J0D01*
G02X275035Y27047I-2760J1219D01*
G02X274960Y26907I-2348J1172D01*
G02X274882Y26784I-1620J935D01*
G02X274761Y26623I-1806J1240D01*
G02X274577Y26410I-6245J5190D01*
G02X274385Y26202I-6057J5402D01*
G02X274234Y26056I-1804J1726D01*
G02X273954Y25826I-3607J4084D01*
G02X273724Y25673I-1163J1508D01*
G02X273497Y25570I-719J1281D01*
G02X273234Y25495I-705J1981D01*
G02X273079Y25467I-543J2523D01*
G02X272939Y25452I-248J1639D01*
G02X272759Y25445I-211J3196D01*
G02X272449Y25444I-237J25519D01*
G02X272235Y25445I44J19096D01*
G02X272037Y25450I197J13977D01*
G02X271870Y25455I414J14735D01*
G02X271802Y25462I24J607D01*
G01X271693Y25479D01*
X271289Y25020D01*
G02X271133Y24845I-43633J38531D01*
G02X271001Y24697I-22410J19957D01*
G01X270882Y24565D01*
G02X270876Y24562I-6J5D01*
G02X270869Y24564I0J14D01*
G02X270836Y24581I2432J4922D01*
G02X270797Y24601I1079J2152D01*
G02X270752Y24625I1974J3762D01*
G01X270637Y24686D01*
X271039Y25118D01*
G03X271195Y25287I-16929J15763D01*
G03X271330Y25437I-10138J9252D01*
G03X271443Y25566I-18963J16795D01*
G03X271463Y25597I-99J87D01*
G03X271470Y25624I-74J35D01*
G03X271470Y25659I-172J16D01*
G03X271462Y25701I-279J-31D01*
G03X271446Y25753I-688J-186D01*
G02X271395Y25950I1077J383D01*
G02X271366Y26196I2503J414D01*
G02X271352Y26565I6734J448D01*
G02X271348Y27223I59605J682D01*
G02X271349Y27787I117062J74D01*
G02X271355Y28070I9026J-40D01*
G02X271367Y28249I2851J-102D01*
G02X271390Y28386I1050J-104D01*
G02X271440Y28554I1384J-325D01*
G02X271518Y28740I2279J-842D01*
G02X271605Y28909I2087J-974D01*
G02X271687Y29023I608J-348D01*
G02X271718Y29055I373J-327D01*
G37*
G36*
G01X274722Y37115D02*
G02X274802Y37207I1464J-1197D01*
G02X274859Y37264I845J-788D01*
G02X274877Y37261I8J-8D01*
G02X274900Y37197I-186J-104D01*
G02X274945Y36954I-18836J-3601D01*
G02X274987Y36700I-9929J-1765D01*
G02X275014Y36487I-4922J-746D01*
G02X275033Y36232I-3775J-407D01*
G02X275038Y35950I-5607J-225D01*
G02X275028Y35678I-5349J54D01*
G02X275004Y35452I-2564J158D01*
G02X274941Y35137I-3343J504D01*
G02X274854Y34873I-1852J462D01*
G02X274736Y34640I-1534J632D01*
G02X274579Y34419I-1634J999D01*
G03X274459Y34256I1365J-1125D01*
G03X274407Y34131I319J-206D01*
G03X274387Y33960I848J-186D01*
G03X274383Y33528I24181J-434D01*
G02X274381Y33102I-62454J-8D01*
G02X274369Y33002I-430J3D01*
G02X274330Y32966I-47J11D01*
G02X274245Y32968I-38J235D01*
G01X274172Y32982D01*
X274172Y33442D01*
X274172Y33902D01*
X273934Y34020D01*
G02X273490Y34270I2051J4158D01*
G02X273081Y34565I2398J3757D01*
G02X272715Y34898I2699J3326D01*
G02X272402Y35263I2726J2664D01*
G02X272241Y35516I1463J1107D01*
G02X272074Y35865I4433J2330D01*
G02X271936Y36210I6277J2702D01*
G02X271933Y36350I203J75D01*
G02X272026Y36415I88J-28D01*
G02X272226Y36374I-31J-661D01*
G02X272504Y36239I-558J-1503D01*
G02X272832Y36016I-2227J-3642D01*
G02X272997Y35889I-3771J-5047D01*
G02X273148Y35763I-3160J-3946D01*
G02X273311Y35617I-4291J-4953D01*
G02X273516Y35425I-11796J-12729D01*
G03X273586Y35359I2278J2382D01*
G03X273653Y35301I1549J1715D01*
G03X273710Y35255I1575J1889D01*
G03X273735Y35241I55J70D01*
G03X273761Y35240I15J44D01*
G03X273792Y35252I-25J106D01*
G03X273829Y35279I-125J211D01*
G03X273879Y35326I-708J803D01*
G03X273936Y35390I-551J550D01*
G03X273971Y35447I-211J168D01*
G03X273997Y35521I-415J189D01*
G03X274031Y35660I-4121J1070D01*
G02X274152Y36167I17712J-3967D01*
G02X274242Y36428I1639J-417D01*
G02X274366Y36649I1165J-510D01*
G02X274604Y36969I5931J-4165D01*
G02X274722Y37115I7822J-6159D01*
G37*
G36*
G01X272921Y40022D02*
G02X272944Y40039I256J-314D01*
G02X272963Y40052I224J-319D01*
G02X272972Y40055I10J-15D01*
G02X273004Y40038I0J-38D01*
G02X273126Y39849I-13567J-8873D01*
G02X273244Y39653I-4720J-2994D01*
G02X273337Y39480I-2650J-1534D01*
G02X273555Y38931I-3208J-1590D01*
G02X273681Y38348I-3523J-1070D01*
G02X273711Y37759I-3578J-479D01*
G02X273643Y37189I-3256J100D01*
G03X273618Y37041I1856J-390D01*
G03X273615Y36933I524J-67D01*
G03X273634Y36800I1085J83D01*
G03X273695Y36509I19625J3973D01*
G02X273727Y36358I-10263J-2232D01*
G02X273751Y36228I-5468J-1108D01*
G02X273771Y36115I-16923J-3019D01*
G02X273767Y36103I-14J-2D01*
G02X273757Y36097I-16J17D01*
G02X273731Y36090I-152J505D01*
G02X273699Y36083I-129J520D01*
G02X273664Y36078I-138J757D01*
G01X273574Y36066D01*
X273456Y36459D01*
X273338Y36852D01*
X273175Y36885D01*
G02X272864Y36966I539J2700D01*
G02X272536Y37089I1213J3738D01*
G02X272212Y37244I1613J3785D01*
G02X271914Y37422I1690J3163D01*
G02X271696Y37585I1427J2144D01*
G02X271453Y37799I3290J3962D01*
G02X271224Y38029I3534J3747D01*
G02X271049Y38237I1883J1762D01*
G02X270947Y38386I1576J1189D01*
G02X270838Y38573I3394J2103D01*
G02X270744Y38753I4886J2674D01*
G02X270727Y38827I147J74D01*
G02X270748Y38860I36J0D01*
G02X270825Y38886I177J-397D01*
G02X270927Y38901I137J-584D01*
G02X271035Y38900I43J-714D01*
G02X271196Y38867I-69J-756D01*
G02X271350Y38800I-252J-795D01*
G02X271515Y38690I-599J-1072D01*
G02X271711Y38522I-2126J-2676D01*
G03X271923Y38338I3016J3259D01*
G03X272139Y38174I2473J3037D01*
G03X272332Y38047I2036J2888D01*
G03X272447Y38003I178J291D01*
G03X272555Y38000I65J344D01*
G03X272624Y38037I-13J105D01*
G03X272661Y38123I-133J109D01*
G03X272672Y38276I-1098J154D01*
G02X272676Y38407I1995J0D01*
G02X272690Y38581I6104J-400D01*
G02X272718Y38858I19348J-1832D01*
G02X272779Y39410I255320J-27817D01*
G02X272817Y39743I44427J-4949D01*
G02X272839Y39878I1718J-204D01*
G02X272862Y39952I371J-74D01*
G02X272897Y40002I131J-56D01*
G02X272921Y40022I393J-437D01*
G37*
G36*
G01X394323Y324881D02*
G02X395570Y326942I597194J-360019D01*
G01X396700Y328801D01*
G02X396730Y328818I30J-18D01*
G02X396763Y328810I0J-68D01*
G02X396915Y328724I-8116J-14568D01*
G02X397091Y328620I-4258J-7441D01*
G02X397291Y328497I-7672J-12709D01*
G01X397804Y328177D01*
X397459Y327429D01*
G03X397309Y327094I14130J-6515D01*
G03X397143Y326701I25670J-11110D01*
G03X396986Y326315I25159J-10437D01*
G03X396866Y326000I10877J-4320D01*
G03X396731Y325595I7513J-2736D01*
G03X396669Y325311I1742J-531D01*
G03X396653Y325019I1814J-248D01*
G03X396674Y324591I8124J195D01*
G03X396820Y323551I8392J645D01*
G03X397148Y322119I30654J6263D01*
G03X397530Y320679I65860J16715D01*
G03X397737Y320403I455J126D01*
G03X397779Y320391I41J67D01*
G03X397846Y320398I-5J376D01*
G03X397922Y320420I-94J484D01*
G03X397998Y320454I-205J560D01*
G02X398318Y320457I163J-304D01*
G02X398614Y320186I-344J-673D01*
G02X398847Y319642I-1616J-1014D01*
G02X398979Y318892I-4929J-1255D01*
G03X399026Y318478I15612J1559D01*
G03X399071Y318318I565J71D01*
G03X399147Y318240I145J65D01*
G03X399287Y318199I190J399D01*
G03X399601Y318270I56J484D01*
G03X399828Y318526I-320J512D01*
G03X399960Y318999I-1354J635D01*
G03X399998Y319716I-6388J694D01*
G03X399973Y320259I-6566J-23D01*
G03X399901Y320688I-2698J-234D01*
G03X399768Y321069I-2202J-555D01*
G03X399557Y321464I-3114J-1410D01*
G02X399407Y321721I4663J2898D01*
G02X399345Y321879I573J314D01*
G02X399338Y322018I354J87D01*
G02X399379Y322187I887J-125D01*
G03X399451Y322598I-1221J426D01*
G03X399428Y323252I-7141J78D01*
G03X399343Y323913I-7023J-567D01*
G03X399202Y324375I-1972J-349D01*
G01X399016Y324796D01*
X399467Y325239D01*
G03X399661Y325441I-3061J3115D01*
G03X399869Y325685I-5585J4994D01*
G03X400062Y325930I-5586J4582D01*
G03X400204Y326136I-2409J1808D01*
G01X400315Y326313D01*
G02X400412Y326467I66477J-41882D01*
G01X400496Y326599D01*
G02X400513Y326624I502J-318D01*
G02X400534Y326627I12J-9D01*
G02X400684Y326514I-8455J-11351D01*
G02X400859Y326374I-3732J-4878D01*
G02X401063Y326202I-7807J-9462D01*
G03X401586Y325785I5894J6835D01*
G03X402140Y325405I5504J7435D01*
G03X402709Y325073I4747J7493D01*
G03X403273Y324803I3407J6379D01*
G02X403497Y324698I-1544J-3615D01*
G02X403682Y324593I-966J-1916D01*
G02X403818Y324498I-1018J-1601D01*
G02X403837Y324444I-32J-41D01*
G02X403730Y324234I-523J133D01*
G02X403376Y323826I-8343J6888D01*
G02X402900Y323332I-9278J8476D01*
G02X402307Y322769I-17641J17971D01*
G03X401618Y322081I7918J-8610D01*
G03X401225Y321534I2066J-1902D01*
G03X401024Y320987I1691J-932D01*
G03X400956Y320318I3307J-672D01*
G03X400961Y320062I6471J-7D01*
G03X400976Y319819I5309J207D01*
G03X400998Y319614I4852J411D01*
G03X401025Y319512I409J52D01*
G03X401076Y319445I142J58D01*
G03X401137Y319443I32J43D01*
G03X401228Y319524I-204J320D01*
G03X401413Y319759I-7691J6251D01*
G02X401901Y320248I2082J-1590D01*
G02X402469Y320552I1212J-1581D01*
G02X403050Y320639I526J-1537D01*
G02X403579Y320499I-42J-1234D01*
G03X403683Y320447I1455J2790D01*
G03X403781Y320404I981J2064D01*
G03X403865Y320371I876J2097D01*
G03X403903Y320364I39J103D01*
G03X403943Y320381I0J54D01*
G03X404133Y320594I-19767J17884D01*
G03X404351Y320847I-8595J7613D01*
G03X404597Y321148I-16104J13440D01*
G02X405174Y321823I11751J-9449D01*
G02X405734Y322393I7282J-6598D01*
G02X406221Y322819I6302J-6719D01*
G02X406475Y322909I254J-312D01*
G02X406616Y322870I0J-274D01*
G01X408228Y321901D01*
G02X410049Y320793I-116880J-194072D01*
G02X412174Y319477I-223277J-362984D01*
G01X417680Y316046D01*
X410469Y316022D01*
G02X407193Y316015I-5244J1618256D01*
G01X403285Y316013D01*
X399386Y316015D01*
G02X396138Y316022I1921J1576899D01*
G01X389018Y316046D01*
X392850Y322432D01*
G02X394323Y324881I1169952J-701986D01*
G37*
G36*
G01X411588Y160405D02*
G02X411915Y160452I331J-1141D01*
G02X412246Y160407I3J-1213D01*
G02X412591Y160271I-491J-1753D01*
G02X412989Y159903I-466J-902D01*
G02X415277Y156181I-862165J-532739D01*
G02X418728Y150487I-644363J-394328D01*
G01X425608Y139000D01*
G02X426317Y137795I-77929J-46614D01*
G02X426680Y137105I-8678J-5011D01*
G02X426867Y136629I-3249J-1553D01*
G02X426929Y136237I-1286J-403D01*
G02X426914Y135956I-2354J-19D01*
G02X426864Y135732I-1033J116D01*
G02X426771Y135544I-798J275D01*
G02X426630Y135370I-921J605D01*
G01X426326Y135067D01*
X412118Y135032D01*
X397910Y134996D01*
X397455Y135452D01*
G02X397117Y136100I860J860D01*
G02X397198Y136848I1330J235D01*
G02X397836Y138139I9490J-3891D01*
G02X400195Y142133I548708J-321270D01*
G01X400712Y143004D01*
X401444Y144239D01*
X402245Y145591D01*
X402999Y146867D01*
X408018Y155351D01*
G02X409782Y158271I170019J-100708D01*
G02X410781Y159834I48538J-29897D01*
G02X411253Y160267I1105J-731D01*
G02X411588Y160405I804J-1479D01*
G37*
G36*
G01X405567Y343255D02*
G02X405670Y343404I3146J-2065D01*
G02X405759Y343522I5098J-3713D01*
G02X405779Y343524I11J-8D01*
G02X405986Y343239I-792J-792D01*
G01X408137Y339006D01*
X410308Y334725D01*
G02X410364Y334491I-461J-234D01*
G02X410286Y334134I-862J0D01*
G02X410055Y333758I-1629J741D01*
G02X409707Y333410I-1725J1380D01*
G02X409281Y333137I-1540J1931D01*
G02X408456Y332800I-2507J4962D01*
G02X407491Y332554I-2606J8213D01*
G02X406262Y332371I-2714J13978D01*
G02X404591Y332226I-4798J45814D01*
G03X403817Y332166I2591J-38072D01*
G03X403069Y332091I2952J-33323D01*
G03X402432Y332014I3381J-30383D01*
G03X402091Y331948I401J-3029D01*
G03X401394Y331725I1383J-5516D01*
G03X400666Y331396I2959J-7531D01*
G03X400006Y331016I3435J-6710D01*
G03X399527Y330636I1725J-2667D01*
G01X399066Y330192D01*
X398531Y330555D01*
G02X398328Y330699I3292J4846D01*
G02X398164Y330831I1811J2439D01*
G02X398038Y330943I2397J2796D01*
G02X398033Y330982I22J23D01*
G02X398107Y331106I6753J-3971D01*
G01X401617Y336827D01*
X404928Y342222D01*
G02X405451Y343073I348374J-213779D01*
G02X405567Y343255I6544J-4036D01*
G37*
G36*
G01X412928Y328487D02*
G02X413116Y328552I1363J-3633D01*
G02X413276Y328599I1141J-3600D01*
G02X413350Y328604I52J-193D01*
G02X413468Y328526I-17J-153D01*
G01X416222Y323516D01*
X418980Y318496D01*
G02X418964Y318388I-80J-44D01*
G02X418941Y318385I-13J13D01*
G01X417473Y319228D01*
G02X415849Y320165I253570J441564D01*
G02X413924Y321283I503285J868928D01*
G02X411099Y322934I469353J806215D01*
G02X409791Y323726I28463J48499D01*
G02X409007Y324230I17945J28764D01*
G02X408909Y324412I121J182D01*
G02X408943Y324536I242J0D01*
G02X409044Y324667I569J-335D01*
G02X409228Y324824I1112J-1110D01*
G02X409534Y325038I4885J-6676D01*
G03X410149Y325509I-3194J4805D01*
G03X410765Y326107I-5719J6506D01*
G03X411329Y326775I-6538J6096D01*
G03X411789Y327456I-5558J4248D01*
G02X412060Y327894I11289J-6689D01*
G02X412237Y328114I1161J-751D01*
G02X412429Y328261I617J-610D01*
G02X412727Y328407I1447J-2575D01*
G02X412928Y328487I2058J-4870D01*
G37*
%LPC*%
G75*
G36*
G01X243467Y39822D02*
X240094D01*
G03X238798Y39817I1J-175092D01*
G03X237702Y39803I670J-90297D01*
G01X236730Y39783D01*
G03X236685Y39756I1J-52D01*
G03X236672Y39706I93J-51D01*
G03X236672Y39532I7803J-114D01*
G03X236677Y39323I5779J45D01*
G03X236690Y39088I9294J408D01*
G01X236732Y38487D01*
X238293Y36732D01*
G03X238896Y36060I95469J84928D01*
G03X239413Y35493I49578J44743D01*
G03X239874Y34995I280025J258649D01*
G03X239913Y34978I40J37D01*
G03X239952Y34994I0J55D01*
G03X240184Y35226I-33880J34083D01*
G03X240448Y35498I-12008J11911D01*
G03X240751Y35822I-22633J21468D01*
G01X241530Y36667D01*
X240365Y36692D01*
X239200Y36716D01*
Y37422D01*
X240615D01*
G02X241175Y37416I2J-26842D01*
G02X241634Y37398I-258J-12324D01*
G02X242013Y37373I-1431J-24590D01*
G02X242059Y37338I-4J-53D01*
G03X242093Y37329I20J7D01*
G03X242243Y37461I-2879J3432D01*
G03X242429Y37643I-2781J3027D01*
G03X242644Y37876I-6487J6223D01*
G03X242978Y38261I-11977J10707D01*
G03X243118Y38471I-897J752D01*
G03X243181Y38664I-530J277D01*
G03X243200Y38938I-1921J274D01*
G02X243206Y39154I3789J0D01*
G02X243229Y39282I551J-32D01*
G02X243271Y39352I160J-48D01*
G02X243333Y39378I63J-63D01*
G03X243388Y39394I0J104D01*
G03X243431Y39437I-69J111D01*
G03X243458Y39507I-184J111D01*
G03X243467Y39600I-486J93D01*
G01Y39822D01*
G37*
G36*
G01X240861Y33195D02*
G03X240388Y33717I-48402J-43515D01*
G03X239969Y34171I-188787J-173487D01*
G03X239919Y34204I-91J-84D01*
G03X239874Y34196I-16J-45D01*
G03X239765Y34108I1389J-1814D01*
G03X239637Y33987I1442J-1660D01*
G03X239500Y33840I2726J-2674D01*
G02X239312Y33629I-15073J13299D01*
G02X239000Y33287I-99295J90084D01*
G02X238641Y32896I-110565J101074D01*
G02X238281Y32506I-110227J101413D01*
G01X237406Y31562D01*
X237508Y30559D01*
G03X237550Y30160I53283J5410D01*
G03X237592Y29792I38975J4256D01*
G03X237630Y29483I41248J4907D01*
G03X237651Y29356I1677J212D01*
G03X237731Y29240I177J36D01*
G03X237895Y29181I211J331D01*
G03X238246Y29159I372J3103D01*
G03X239325Y29156I1065J166650D01*
G01X240958D01*
X241019Y29563D01*
G02X241212Y30070I1259J-189D01*
G02X241619Y30518I1606J-1051D01*
G02X242119Y30797I1078J-1346D01*
G02X242585Y30817I265J-747D01*
G03X242694Y30894I22J84D01*
G03X242640Y31103I-325J28D01*
G03X242259Y31607I-4362J-2906D01*
G03X241409Y32582I-56857J-48693D01*
G03X240861Y33195I-90434J-80201D01*
G37*
G36*
G01X239349Y41353D02*
G03X239272Y41393I-122J-139D01*
G03X239126Y41413I-167J-675D01*
G03X238867Y41415I-177J-5875D01*
G03X238404Y41396I115J-8402D01*
G03X238232Y41330I21J-310D01*
G03X238153Y41186I132J-167D01*
G03X238133Y40836I3185J-350D01*
G01Y40353D01*
X240822Y40376D01*
G03X242557Y40395I-3951J451838D01*
G03X243143Y40420I-120J9524D01*
G03X243416Y40470I-98J1322D01*
G03X243481Y40574I-26J88D01*
G03X243416Y40730I-383J-67D01*
G03X243287Y40858I-414J-291D01*
G03X243067Y40974I-621J-910D01*
G03X242710Y41100I-2045J-5231D01*
G03X242245Y41227I-1910J-6058D01*
G03X241823Y41302I-900J-3854D01*
G03X241493Y41326I-401J-3299D01*
G03X241422Y41256I-1J-69D01*
G02X241382Y41209I-48J0D01*
G02X241175Y41180I-465J2580D01*
G02X240865Y41161I-409J4128D01*
G02X240400Y41156I-462J19742D01*
G02X239847Y41160I-3J32130D01*
G02X239570Y41181I43J2467D01*
G02X239424Y41220I75J575D01*
G02X239378Y41289I29J69D01*
G03X239349Y41353I-85J0D01*
G37*
G36*
G01X237697Y36755D02*
G03X237253Y37244I-59695J-53779D01*
G01X236855Y37678D01*
G03X236830Y37689I-25J-22D01*
G03X236817Y37676I0J-13D01*
G03X236819Y37565I3894J8D01*
G03X236827Y37429I2538J75D01*
G03X236843Y37267I5079J426D01*
G02X236872Y36994I-18153J-2108D01*
G01X236943Y36291D01*
X237026Y35452D01*
X237115Y34538D01*
G03X237203Y33652I208996J20212D01*
G03X237281Y32901I108425J10954D01*
G01X237354Y32232D01*
G03X237367Y32203I47J5D01*
G03X237418Y32204I25J25D01*
G01X238452Y33331D01*
G03X239453Y34427I-382228J350122D01*
G03X239540Y34575I-309J281D01*
G03X239529Y34635I-59J20D01*
G03X239163Y35080I-72444J-59151D01*
G03X238733Y35588I-22143J-18303D01*
G03X238217Y36175I-41102J-35615D01*
G03X237697Y36755I-116169J-103620D01*
G37*
G36*
G01X237239Y40847D02*
G03X237222Y40962I-880J-72D01*
G03X237197Y41046I-601J-131D01*
G03X237168Y41067I-30J-11D01*
G03X237025Y41020I0J-243D01*
G03X236833Y40858I966J-1332D01*
G03X236669Y40668I1159J-1171D01*
G03X236622Y40527I190J-141D01*
G03X236639Y40442I227J0D01*
G03X236685Y40390I96J39D01*
G03X236774Y40363I109J199D01*
G03X236933Y40356I159J1748D01*
G03X237127Y40364I0J2126D01*
G03X237203Y40403I-10J115D01*
G03X237237Y40487I-106J93D01*
G03X237244Y40711I-3534J224D01*
G03X237239Y40847I-1674J1D01*
G37*
G36*
G01X243303Y37426D02*
G03X243292Y37588I-1571J-25D01*
G03X243270Y37714I-1339J-161D01*
G03X243238Y37750I-48J-11D01*
G03X243124Y37722I-34J-103D01*
G03X241718Y36230I711674J-672014D01*
G03X240329Y34749I536471J-504472D01*
G03X240267Y34591I169J-158D01*
G03X240314Y34465I191J0D01*
G03X241530Y33084I676649J594647D01*
G01X242762Y31690D01*
G03X242828Y31688I34J30D01*
G03X242858Y31751I-72J72D01*
G01X243057Y34094D01*
G03X243228Y36161I-455393J38606D01*
G03X243299Y37238I-39504J3167D01*
G03X243303Y37426I-2730J145D01*
G37*
G36*
G01X240957Y41773D02*
G03X240895Y41836I-97J-33D01*
G03X240758Y41862I-146J-400D01*
G03X240370Y41867I-391J-16624D01*
G03X239947Y41859I1J-11110D01*
G03X239763Y41821I22J-567D01*
G03X239676Y41737I57J-146D01*
G03X239644Y41585I349J-152D01*
G03X239676Y41500I131J0D01*
G03X239758Y41450I119J102D01*
G03X239928Y41427I191J783D01*
G03X240311Y41422I384J15026D01*
G03X240742Y41426I0J21620D01*
G03X240889Y41452I-10J496D01*
G03X240955Y41516I-33J101D01*
G03X240978Y41644I-350J129D01*
G03X240957Y41773I-402J0D01*
G37*
G36*
G01X244265Y38687D02*
G03X244259Y38816I-2980J-78D01*
G03X244250Y38923I-5788J-404D01*
G03X244239Y38933I-11J-1D01*
G03X244221Y38926I0J-26D01*
G03X244149Y38860I4408J-4859D01*
G03X244066Y38780I2374J-2540D01*
G03X243972Y38684I4353J-4351D01*
G03X243784Y38453I1334J-1278D01*
G03X243736Y38281I229J-158D01*
G03X243810Y38173I125J6D01*
G03X244000Y38133I190J433D01*
G03X244160Y38145I0J1110D01*
G03X244230Y38189I-15J100D01*
G03X244261Y38283I-154J103D01*
G03X244267Y38533I-5149J251D01*
G03X244265Y38687I-5884J0D01*
G37*
G36*
G01X242486Y30047D02*
G03X242026Y29909I-44J-690D01*
G03X241747Y29494I460J-610D01*
G03X241793Y29007I684J-181D01*
G03X242066Y28691I717J344D01*
G03X242447Y28579I368J547D01*
G03X242821Y28706I-13J652D01*
G03X243077Y29033I-462J626D01*
G03X243144Y29258I-1022J427D01*
G03X243141Y29449I-481J89D01*
G03X243065Y29634I-544J-115D01*
G03X242905Y29844I-1379J-886D01*
G03X242486Y30047I-458J-412D01*
G37*
G36*
G01X262715Y29232D02*
G03X262487Y29098I97J-428D01*
G03X262339Y28825I486J-439D01*
G03X262289Y28440I1476J-387D01*
G03X262324Y28099I1668J-2D01*
G03X262432Y27844I700J146D01*
G03X262605Y27689I394J266D01*
G03X262834Y27633I229J437D01*
G03X262957Y27647I0J551D01*
G03X263068Y27688I-100J436D01*
G03X263164Y27757I-211J394D01*
G03X263244Y27852I-377J400D01*
G03X263313Y27975I-788J527D01*
G03X263353Y28092I-506J238D01*
G03X263373Y28236I-834J184D01*
G03X263377Y28453I-4043J194D01*
G03X263374Y28614I-6139J-34D01*
G03X263366Y28716I-1096J-35D01*
G03X263350Y28797I-608J-77D01*
G03X263324Y28879I-736J-195D01*
G03X263265Y28994I-602J-235D01*
G03X263184Y29097I-588J-379D01*
G03X263091Y29177I-449J-427D01*
G03X262997Y29222I-188J-268D01*
G03X262715Y29232I-159J-530D01*
G37*
G36*
G01X261040Y29194D02*
G03X260903Y29205I-147J-963D01*
G03X260775Y29198I-10J-1072D01*
G03X260733Y29166I6J-51D01*
G03X260727Y29139I81J-31D01*
G03X260723Y29043I7171J-376D01*
G03X260720Y28928I5042J-194D01*
G03X260719Y28799I8036J-127D01*
G01Y28470D01*
X260868Y28484D01*
G03X261074Y28521I-111J1189D01*
G03X261210Y28593I-97J354D01*
G03X261288Y28702I-165J199D01*
G03X261316Y28855I-419J155D01*
G03X261306Y28960I-547J3D01*
G03X261276Y29042I-260J-49D01*
G03X261221Y29108I-213J-122D01*
G03X261139Y29162I-277J-329D01*
G03X261040Y29194I-147J-290D01*
G37*
G36*
G01X401466Y325404D02*
G03X401338Y325523I-6323J-6624D01*
G03X401182Y325663I-5398J-5877D01*
G03X401007Y325812I-7676J-8809D01*
G01X400561Y326186D01*
X400458Y325873D01*
G02X400395Y325721I-1086J359D01*
G02X400284Y325513I-4108J2052D01*
G02X400150Y325289I-4470J2528D01*
G02X400011Y325084I-3592J2277D01*
G03X399794Y324770I8345J-6004D01*
G03X399728Y324620I403J-268D01*
G03X399728Y324476I291J-73D01*
G03X399799Y324235I2388J578D01*
G02X399852Y324033I-1144J-404D01*
G02X399900Y323703I-7148J-1206D01*
G02X399937Y323324I-8170J-993D01*
G02X399956Y322945I-8097J-609D01*
G03X399993Y322330I9944J278D01*
G03X400069Y321922I2149J194D01*
G03X400216Y321570I1640J476D01*
G03X400476Y321155I4010J2222D01*
G01X400654Y320901D01*
X400919Y321460D01*
G02X401034Y321693I7411J-3505D01*
G02X401160Y321932I8437J-4319D01*
G02X401279Y322142I7423J-4074D01*
G02X401368Y322279I1597J-937D01*
G01X401553Y322539D01*
X401315Y323413D01*
X401077Y324287D01*
X401317Y324779D01*
G03X401406Y324973I-3376J1651D01*
G03X401472Y325151I-2146J903D01*
G03X401515Y325297I-2163J709D01*
G03X401506Y325354I-71J18D01*
G03X401466Y325404I-214J-132D01*
G37*
G36*
G01X403301Y320343D02*
G03X403156Y320401I-668J-1460D01*
G03X403017Y320442I-470J-1368D01*
G03X402909Y320454I-108J-460D01*
G03X402448Y320346I-1J-1036D01*
G03X401922Y320013I1320J-2664D01*
G03X401495Y319594I1765J-2228D01*
G03X401364Y319230I442J-365D01*
G03X401394Y319055I519J0D01*
G03X401481Y318952I180J64D01*
G03X401650Y318902I197J355D01*
G03X401966Y318895I244J3560D01*
G03X402347Y318944I-35J1751D01*
G03X402740Y319077I-567J2324D01*
G03X403098Y319273I-933J2129D01*
G03X403373Y319511I-820J1229D01*
G03X403602Y319792I-2616J2365D01*
G03X403669Y319974I-285J208D01*
G03X403617Y320123I-196J15D01*
G03X403430Y320275I-654J-614D01*
G03X403301Y320343I-641J-1051D01*
G37*
G36*
G01X402792Y324749D02*
G03X402689Y324843I-830J-814D01*
G03X402546Y324944I-918J-1145D01*
G03X402377Y325038I-1172J-1886D01*
G01X401936Y325262D01*
X401741Y324914D01*
G03X401600Y324584I1441J-810D01*
G03X401557Y324270I966J-293D01*
G03X401611Y323926I1283J27D01*
G03X401770Y323497I3555J1072D01*
G03X401950Y323139I3860J1708D01*
G03X402077Y323072I115J64D01*
G03X402246Y323145I-31J301D01*
G03X402749Y323596I-17698J20246D01*
G01X403249Y324055D01*
X403033Y324306D01*
G02X402951Y324411I1088J935D01*
G02X402881Y324520I1038J737D01*
G02X402832Y324619I923J523D01*
G02X402818Y324685I152J66D01*
G03X402792Y324749I-91J0D01*
G37*
G36*
G01X398475Y319982D02*
G03X398377Y320075I-430J-357D01*
G03X398266Y320136I-283J-385D01*
G03X398141Y320166I-184J-475D01*
G01X397881Y320197D01*
X397939Y319576D01*
G03X398015Y319104I3602J337D01*
G03X398147Y318772I1140J261D01*
G03X398339Y318565I567J334D01*
G03X398591Y318470I317J456D01*
G01X398846Y318440D01*
X398786Y319007D01*
G03X398752Y319245I-2934J-307D01*
G03X398696Y319490I-3477J-653D01*
G03X398631Y319709I-3039J-797D01*
G03X398564Y319856I-774J-265D01*
G03X398475Y319982I-802J-466D01*
G37*
G36*
G01X404722Y320512D02*
G03X404707Y320624I-949J-71D01*
G03X404686Y320707I-692J-135D01*
G03X404659Y320726I-26J-9D01*
G03X404549Y320673I2J-144D01*
G03X404150Y320171I28244J-22835D01*
G03X403754Y319656I35830J-27939D01*
G03X403760Y319573I50J-38D01*
G03X403857Y319548I70J70D01*
G03X404117Y319634I-854J3012D01*
G03X404381Y319753I-892J2342D01*
G03X404562Y319879I-398J766D01*
G03X404632Y319965I-242J267D01*
G03X404684Y320081I-530J308D01*
G03X404716Y320220I-745J246D01*
G03X404727Y320378I-1146J158D01*
G03X404722Y320512I-1826J0D01*
G37*
G36*
G01X405784Y321990D02*
G03X405688Y322044I-74J-19D01*
G03X405524Y321938I103J-340D01*
G03X405209Y321559I7332J-6418D01*
G03X405031Y321327I8570J-6766D01*
G03X404887Y321125I4514J-3372D01*
G03X404772Y320953I8910J-6066D01*
G03X404775Y320922I21J-14D01*
G03X404807Y320912I24J24D01*
G03X404924Y320940I-590J2716D01*
G03X405066Y320983I-576J2192D01*
G03X405226Y321040I-1271J3809D01*
G03X405505Y321173I-700J1830D01*
G03X405685Y321324I-336J583D01*
G03X405784Y321509I-391J328D01*
G03X405817Y321744I-789J230D01*
G03X405784Y321990I-995J-6D01*
G37*
G36*
G01X412744Y156674D02*
G03X412337Y157329I-44787J-27354D01*
G03X411974Y157903I-225440J-142285D01*
G03X411933Y157925I-41J-26D01*
G03X411892Y157903I0J-47D01*
G01X411280Y156899D01*
G03X410599Y155770I128215J-78147D01*
G03X409803Y154430I251421J-150240D01*
G02X407466Y150482I-1639993J968110D01*
G01X404623Y145699D01*
X401942Y141203D01*
G02X400516Y138833I-353356J210943D01*
G03X400097Y138129I44902J-27218D01*
G03X399760Y137535I22038J-12892D01*
G03X399483Y137026I64382J-35392D01*
G03X399503Y136989I22J-12D01*
G03X399805Y136972I296J2575D01*
G01X412096Y136998D01*
X424511Y137025D01*
G03X424554Y137043I0J61D01*
G03X424557Y137066I-13J13D01*
G01X424216Y137648D01*
G03X423831Y138299I-71239J-41735D01*
G03X423368Y139067I-139115J-83246D01*
G01X421191Y142666D01*
X417883Y148146D01*
X414601Y153588D01*
G02X413214Y155896I721984J435287D01*
G03X412744Y156674I-86611J-51843D01*
G37*
%LPD*%
G75*
G36*
G01X242163Y29657D02*
G02X242255Y29725I284J-288D01*
G02X242362Y29764I193J-358D01*
G02X242488Y29778I126J-583D01*
G02X242760Y29685I0J-448D01*
G02X242918Y29447I-266J-347D01*
G02X242898Y29154I-453J-116D01*
G02X242708Y28923I-467J190D01*
G02X242394Y28838I-287J438D01*
G02X242117Y28963I21J417D01*
G02X241996Y29244I304J298D01*
G02X242084Y29560I539J20D01*
G02X242163Y29657I493J-323D01*
G37*
G36*
G01X410887Y153607D02*
G02X411313Y153637I2028J-25348D01*
G02X411820Y153659I828J-13172D01*
G02X412410Y153667I593J-24081D01*
G01X413937D01*
X413752Y153233D01*
G03X412997Y151446I298211J-127111D01*
G03X412099Y149294I619151J-259569D01*
G01X411150Y147007D01*
G03X411133Y146925I197J-82D01*
G03X411159Y146909I18J0D01*
G03X411705Y147173I-66095J137340D01*
G03X412333Y147486I-16383J33689D01*
G03X413079Y147871I-34733J68173D01*
G02X414034Y148361I32582J-62242D01*
G02X414583Y148613I3612J-7165D01*
G02X414890Y148712I770J-1865D01*
G02X414953Y148645I12J-52D01*
G03X414540Y147156I46102J-13577D01*
G03X413765Y144144I627115J-162996D01*
G01X412893Y140718D01*
G03X412914Y140642I78J-20D01*
G03X412959Y140628I35J35D01*
G03X413099Y140662I-474J2307D01*
G03X413270Y140715I-590J2182D01*
G03X413462Y140790I-1321J3698D01*
G02X413648Y140861I1397J-3348D01*
G02X413797Y140905I451J-1269D01*
G02X413893Y140918I120J-523D01*
G02X413910Y140893I1J-18D01*
G02X413762Y140621I-1498J638D01*
G02X412721Y139080I-573850J386794D01*
G01X411616Y137452D01*
G02X411575Y137448I-22J15D01*
G02X411537Y137517I98J98D01*
G01X411139Y139420D01*
X410755Y141265D01*
G02X410733Y141476I1016J211D01*
G02X410759Y141492I18J0D01*
G02X410847Y141443I-255J-553D01*
G02X410972Y141347I-790J-1160D01*
G02X411120Y141213I-2397J-2794D01*
G01X411507Y140842D01*
X411584Y141221D01*
G03X411783Y142312I-25471J5201D01*
G03X412046Y144023I-142556J22831D01*
G01X412326Y145921D01*
G03X412294Y146018I-113J16D01*
G03X412236Y146028I-37J-37D01*
G03X411653Y145766I44505J-99546D01*
G03X410984Y145452I12944J-28498D01*
G03X410203Y145068I26227J-54314D01*
G02X409218Y144584I-32727J65337D01*
G02X408642Y144332I-3819J7924D01*
G02X408314Y144227I-913J2300D01*
G02X408252Y144294I-12J51D01*
G03X408296Y144446I-5666J1739D01*
G03X408399Y144815I-141087J39299D01*
G03X408519Y145256I-132896J36588D01*
G03X408648Y145733I-182136J49551D01*
G02X409343Y148294I640958J-172483D01*
G02X410058Y150888I679220J-185712D01*
G01X410764Y153430D01*
G02X410822Y153567I531J-147D01*
G02X410887Y153607I71J-43D01*
G37*
G54D10*
G01X233422Y9583D02*
X233652Y9893D01*
X233920Y10048D01*
X234227Y10100D01*
X234610Y9997D01*
X234878Y9738D01*
X234955Y9428D01*
X234917Y9118D01*
X234763Y8860D01*
X233997Y8343D01*
X233652Y7982D01*
X233422Y7465D01*
X233345Y7000D01*
X234955D01*
G01X236850Y10100D02*
X236543Y9997D01*
X236313Y9738D01*
X236160Y9428D01*
X236045Y9015D01*
X236007Y8550D01*
X236045Y8085D01*
X236160Y7672D01*
X236313Y7362D01*
X236543Y7103D01*
X236850Y7000D01*
X237157Y7103D01*
X237387Y7362D01*
X237540Y7672D01*
X237655Y8085D01*
X237693Y8550D01*
X237655Y9015D01*
X237540Y9428D01*
X237387Y9738D01*
X237157Y9997D01*
X236850Y10100D01*
G01X239550Y7000D02*
Y10100D01*
X239090Y9480D01*
G01Y7000D02*
X240010D01*
G01X241522Y8292D02*
X241790Y8653D01*
X242020Y8860D01*
X242327Y8963D01*
X242595Y8860D01*
X242787Y8653D01*
X242940Y8343D01*
X242978Y7982D01*
X242940Y7672D01*
X242787Y7362D01*
X242557Y7103D01*
X242288Y7000D01*
X241982Y7103D01*
X241713Y7413D01*
X241560Y7878D01*
X241522Y8395D01*
X241598Y9067D01*
X241713Y9428D01*
X241905Y9790D01*
X242173Y10048D01*
X242442Y10100D01*
X242710Y9997D01*
X242902Y9738D01*
G01X244452Y8033D02*
X245448D01*
G01X246807Y7465D02*
X247037Y7207D01*
X247305Y7052D01*
X247650Y7000D01*
X247995Y7103D01*
X248263Y7310D01*
X248455Y7672D01*
X248493Y8085D01*
X248417Y8498D01*
X248225Y8757D01*
X247957Y8963D01*
X247688Y9015D01*
X247420Y8963D01*
X247075Y8757D01*
X247190Y10100D01*
X248225D01*
G01X249852Y8033D02*
X250848D01*
G01X252207Y7465D02*
X252437Y7207D01*
X252705Y7052D01*
X253050Y7000D01*
X253395Y7103D01*
X253663Y7310D01*
X253855Y7672D01*
X253893Y8085D01*
X253817Y8498D01*
X253625Y8757D01*
X253357Y8963D01*
X253088Y9015D01*
X252820Y8963D01*
X252475Y8757D01*
X252590Y10100D01*
X253625D01*
G01X233192Y14100D02*
X234150Y11000D01*
X235108Y14100D01*
G01X237157Y12653D02*
X237310Y12808D01*
X237425Y13067D01*
X237502Y13428D01*
X237425Y13738D01*
X237272Y13945D01*
X237003Y14100D01*
X235968D01*
Y11000D01*
X237233D01*
X237502Y11207D01*
X237655Y11517D01*
X237732Y11878D01*
X237655Y12240D01*
X237425Y12550D01*
X237157Y12653D01*
X235968D01*
G01X238783Y11000D02*
Y14100D01*
X239742D01*
X240048Y13945D01*
X240240Y13738D01*
X240317Y13325D01*
X240240Y12912D01*
X240010Y12653D01*
X239742Y12498D01*
X238783D01*
G01X239742D02*
X240317Y11000D01*
G01X241292D02*
X242250Y14100D01*
X243208Y11000D01*
G01X242863Y12085D02*
X241637D01*
G01X244950Y14100D02*
Y11000D01*
G01X244068Y14100D02*
X245832D01*
G01X247190D02*
X248110D01*
G01X247650D02*
Y11000D01*
G01X247190D02*
X248110D01*
G01X250350D02*
X250043Y11052D01*
X249775Y11258D01*
X249545Y11568D01*
X249392Y11930D01*
X249315Y12343D01*
Y12757D01*
X249392Y13170D01*
X249545Y13532D01*
X249775Y13842D01*
X250043Y14048D01*
X250350Y14100D01*
X250657Y14048D01*
X250925Y13842D01*
X251155Y13532D01*
X251308Y13170D01*
X251385Y12757D01*
Y12343D01*
X251308Y11930D01*
X251155Y11568D01*
X250925Y11258D01*
X250657Y11052D01*
X250350Y11000D01*
G01X252168D02*
Y14100D01*
X253932Y11000D01*
Y14100D01*
G01X257492D02*
X258450Y11000D01*
X259408Y14100D01*
G01X261150Y11000D02*
Y14100D01*
X260690Y13480D01*
G01Y11000D02*
X261610D01*
G01X263850Y10897D02*
X263773Y10948D01*
Y11052D01*
X263850Y11103D01*
X263927Y11052D01*
Y10948D01*
X263850Y10897D01*
G01X266550Y14100D02*
X266243Y13997D01*
X266013Y13738D01*
X265860Y13428D01*
X265745Y13015D01*
X265707Y12550D01*
X265745Y12085D01*
X265860Y11672D01*
X266013Y11362D01*
X266243Y11103D01*
X266550Y11000D01*
X266857Y11103D01*
X267087Y11362D01*
X267240Y11672D01*
X267355Y12085D01*
X267393Y12550D01*
X267355Y13015D01*
X267240Y13428D01*
X267087Y13738D01*
X266857Y13997D01*
X266550Y14100D01*
G01X234150Y15000D02*
Y18100D01*
G01X236850Y15000D02*
X236620Y15052D01*
X236390Y15258D01*
X236237Y15620D01*
X236160Y16033D01*
X236237Y16447D01*
X236390Y16808D01*
X236620Y17015D01*
X236850Y17067D01*
X237080Y17015D01*
X237310Y16808D01*
X237463Y16447D01*
X237502Y16033D01*
X237463Y15620D01*
X237310Y15258D01*
X237080Y15052D01*
X236850Y15000D01*
G01X239550D02*
X239320Y15052D01*
X239090Y15258D01*
X238937Y15620D01*
X238860Y16033D01*
X238937Y16447D01*
X239090Y16808D01*
X239320Y17015D01*
X239550Y17067D01*
X239780Y17015D01*
X240010Y16808D01*
X240163Y16447D01*
X240202Y16033D01*
X240163Y15620D01*
X240010Y15258D01*
X239780Y15052D01*
X239550Y15000D01*
G01X242250D02*
Y18100D01*
G01X247190D02*
X248110D01*
G01X247650D02*
Y15000D01*
G01X247190D02*
X248110D01*
G01X249698D02*
Y17067D01*
G01Y16550D02*
X249852Y16808D01*
X250082Y17015D01*
X250388Y17067D01*
X250657Y17015D01*
X250887Y16808D01*
X251002Y16447D01*
Y15000D01*
G01X253740Y18100D02*
Y15000D01*
G01Y15465D02*
X253587Y15207D01*
X253357Y15052D01*
X253088Y15000D01*
X252782Y15103D01*
X252552Y15362D01*
X252398Y15672D01*
X252360Y16033D01*
X252398Y16395D01*
X252552Y16705D01*
X252782Y16963D01*
X253088Y17067D01*
X253357Y17015D01*
X253548Y16912D01*
X253740Y16705D01*
G01X255175Y15362D02*
X255367Y15155D01*
X255635Y15000D01*
X255865D01*
X256095Y15103D01*
X256248Y15258D01*
X256325Y15465D01*
X256287Y15775D01*
X256133Y15930D01*
X255443Y16240D01*
X255290Y16602D01*
X255367Y16860D01*
X255520Y17015D01*
X255750Y17067D01*
X255980Y17015D01*
X256210Y16860D01*
G01X332307Y13000D02*
Y16100D01*
G01X333763D02*
X332307Y14188D01*
G01X333993Y13000D02*
X332958Y15067D01*
G01X334892Y13000D02*
X335850Y16100D01*
X336808Y13000D01*
G01X336463Y14085D02*
X335237D01*
G01X332192Y45100D02*
X333150Y42000D01*
X334108Y45100D01*
G01X335352Y43033D02*
X336348D01*
G01X332192Y56100D02*
X333150Y53000D01*
X334108Y56100D01*
G01X335428Y54033D02*
X336348D01*
G01X335850Y54705D02*
Y53362D01*
G01X343307Y13000D02*
Y16100D01*
G01X344763D02*
X343307Y14188D01*
G01X344993Y13000D02*
X343958Y15067D01*
G01X347157Y14653D02*
X347310Y14808D01*
X347425Y15067D01*
X347502Y15428D01*
X347425Y15738D01*
X347272Y15945D01*
X347003Y16100D01*
X345968D01*
Y13000D01*
X347233D01*
X347502Y13207D01*
X347655Y13517D01*
X347732Y13878D01*
X347655Y14240D01*
X347425Y14550D01*
X347157Y14653D01*
X345968D01*
G01X341383Y45100D02*
Y42000D01*
X342917D01*
G01X345617D02*
X344083D01*
Y45100D01*
X345617D01*
G01X345003Y43602D02*
X344083D01*
G01X346707Y42000D02*
Y45100D01*
X347473D01*
X347780Y44945D01*
X348010Y44738D01*
X348202Y44428D01*
X348355Y44067D01*
X348393Y43550D01*
X348355Y43033D01*
X348202Y42672D01*
X348010Y42362D01*
X347780Y42155D01*
X347473Y42000D01*
X346707D01*
G01X349752Y43033D02*
X350748D01*
G01X341383Y57100D02*
Y54000D01*
X342917D01*
G01X345617D02*
X344083D01*
Y57100D01*
X345617D01*
G01X345003Y55602D02*
X344083D01*
G01X346707Y54000D02*
Y57100D01*
X347473D01*
X347780Y56945D01*
X348010Y56738D01*
X348202Y56428D01*
X348355Y56067D01*
X348393Y55550D01*
X348355Y55033D01*
X348202Y54672D01*
X348010Y54362D01*
X347780Y54155D01*
X347473Y54000D01*
X346707D01*
G01X349828Y55033D02*
X350748D01*
G01X350250Y55705D02*
Y54362D01*
G01X372192Y257100D02*
X373150Y254000D01*
X374108Y257100D01*
G01X375007Y254000D02*
Y257100D01*
X375773D01*
X376080Y256945D01*
X376310Y256738D01*
X376502Y256428D01*
X376655Y256067D01*
X376693Y255550D01*
X376655Y255033D01*
X376502Y254672D01*
X376310Y254362D01*
X376080Y254155D01*
X375773Y254000D01*
X375007D01*
G01X377707D02*
Y257100D01*
X378473D01*
X378780Y256945D01*
X379010Y256738D01*
X379202Y256428D01*
X379355Y256067D01*
X379393Y255550D01*
X379355Y255033D01*
X379202Y254672D01*
X379010Y254362D01*
X378780Y254155D01*
X378473Y254000D01*
X377707D01*
G01X380407Y254620D02*
X380637Y254258D01*
X380943Y254052D01*
X381288Y254000D01*
X381595Y254052D01*
X381902Y254310D01*
X382093Y254620D01*
X382132Y254930D01*
X382055Y255292D01*
X381787Y255550D01*
X381518Y255653D01*
X381173D01*
G01X381518D02*
X381748Y255808D01*
X381940Y256067D01*
X382017Y256377D01*
X381940Y256687D01*
X381748Y256945D01*
X381403Y257100D01*
X381058Y257048D01*
X380713Y256842D01*
G01X383950Y253897D02*
X383873Y253948D01*
Y254052D01*
X383950Y254103D01*
X384027Y254052D01*
Y253948D01*
X383950Y253897D01*
G01X385807Y254620D02*
X386037Y254258D01*
X386343Y254052D01*
X386688Y254000D01*
X386995Y254052D01*
X387302Y254310D01*
X387493Y254620D01*
X387532Y254930D01*
X387455Y255292D01*
X387187Y255550D01*
X386918Y255653D01*
X386573D01*
G01X386918D02*
X387148Y255808D01*
X387340Y256067D01*
X387417Y256377D01*
X387340Y256687D01*
X387148Y256945D01*
X386803Y257100D01*
X386458Y257048D01*
X386113Y256842D01*
G01X388852Y255033D02*
X389848D01*
G01X391092Y254000D02*
X392050Y257100D01*
X393008Y254000D01*
G01X392663Y255085D02*
X391437D01*
G01X393907Y254000D02*
Y257100D01*
X394673D01*
X394980Y256945D01*
X395210Y256738D01*
X395402Y256428D01*
X395555Y256067D01*
X395593Y255550D01*
X395555Y255033D01*
X395402Y254672D01*
X395210Y254362D01*
X394980Y254155D01*
X394673Y254000D01*
X393907D01*
G01X398293Y256842D02*
X398063Y256997D01*
X397795Y257100D01*
X397488D01*
X397143Y256945D01*
X396875Y256687D01*
X396683Y256377D01*
X396530Y255860D01*
X396492Y255395D01*
X396568Y254930D01*
X396683Y254620D01*
X396913Y254310D01*
X397182Y254103D01*
X397450Y254000D01*
X397718D01*
X397987Y254103D01*
X398217Y254258D01*
X398408Y254465D01*
G01X372192Y267100D02*
X373150Y264000D01*
X374108Y267100D01*
G01X375007Y264000D02*
Y267100D01*
X375773D01*
X376080Y266945D01*
X376310Y266738D01*
X376502Y266428D01*
X376655Y266067D01*
X376693Y265550D01*
X376655Y265033D01*
X376502Y264672D01*
X376310Y264362D01*
X376080Y264155D01*
X375773Y264000D01*
X375007D01*
G01X377707D02*
Y267100D01*
X378473D01*
X378780Y266945D01*
X379010Y266738D01*
X379202Y266428D01*
X379355Y266067D01*
X379393Y265550D01*
X379355Y265033D01*
X379202Y264672D01*
X379010Y264362D01*
X378780Y264155D01*
X378473Y264000D01*
X377707D01*
G01X380407Y264620D02*
X380637Y264258D01*
X380943Y264052D01*
X381288Y264000D01*
X381595Y264052D01*
X381902Y264310D01*
X382093Y264620D01*
X382132Y264930D01*
X382055Y265292D01*
X381787Y265550D01*
X381518Y265653D01*
X381173D01*
G01X381518D02*
X381748Y265808D01*
X381940Y266067D01*
X382017Y266377D01*
X381940Y266687D01*
X381748Y266945D01*
X381403Y267100D01*
X381058Y267048D01*
X380713Y266842D01*
G01X383950Y263897D02*
X383873Y263948D01*
Y264052D01*
X383950Y264103D01*
X384027Y264052D01*
Y263948D01*
X383950Y263897D01*
G01X385807Y264620D02*
X386037Y264258D01*
X386343Y264052D01*
X386688Y264000D01*
X386995Y264052D01*
X387302Y264310D01*
X387493Y264620D01*
X387532Y264930D01*
X387455Y265292D01*
X387187Y265550D01*
X386918Y265653D01*
X386573D01*
G01X386918D02*
X387148Y265808D01*
X387340Y266067D01*
X387417Y266377D01*
X387340Y266687D01*
X387148Y266945D01*
X386803Y267100D01*
X386458Y267048D01*
X386113Y266842D01*
G01X388852Y265033D02*
X389848D01*
G01X392817Y264000D02*
X391283D01*
Y267100D01*
X392817D01*
G01X392203Y265602D02*
X391283D01*
G01X394750Y267100D02*
Y264000D01*
G01X393868Y267100D02*
X395632D01*
G01X396645Y264000D02*
Y267100D01*
G01X398255D02*
Y264000D01*
G01Y265550D02*
X396645D01*
G01X388192Y252100D02*
X389150Y249000D01*
X390108Y252100D01*
G01X392693Y251842D02*
X392463Y251997D01*
X392195Y252100D01*
X391888D01*
X391543Y251945D01*
X391275Y251687D01*
X391083Y251377D01*
X390930Y250860D01*
X390892Y250395D01*
X390968Y249930D01*
X391083Y249620D01*
X391313Y249310D01*
X391582Y249103D01*
X391850Y249000D01*
X392118D01*
X392387Y249103D01*
X392617Y249258D01*
X392808Y249465D01*
G01X395393Y251842D02*
X395163Y251997D01*
X394895Y252100D01*
X394588D01*
X394243Y251945D01*
X393975Y251687D01*
X393783Y251377D01*
X393630Y250860D01*
X393592Y250395D01*
X393668Y249930D01*
X393783Y249620D01*
X394013Y249310D01*
X394282Y249103D01*
X394550Y249000D01*
X394818D01*
X395087Y249103D01*
X395317Y249258D01*
X395508Y249465D01*
G01X396407D02*
X396637Y249207D01*
X396905Y249052D01*
X397250Y249000D01*
X397595Y249103D01*
X397863Y249310D01*
X398055Y249672D01*
X398093Y250085D01*
X398017Y250498D01*
X397825Y250757D01*
X397557Y250963D01*
X397288Y251015D01*
X397020Y250963D01*
X396675Y250757D01*
X396790Y252100D01*
X397825D01*
G01X385192Y247100D02*
X386150Y244000D01*
X387108Y247100D01*
G01X389693Y246842D02*
X389463Y246997D01*
X389195Y247100D01*
X388888D01*
X388543Y246945D01*
X388275Y246687D01*
X388083Y246377D01*
X387930Y245860D01*
X387892Y245395D01*
X387968Y244930D01*
X388083Y244620D01*
X388313Y244310D01*
X388582Y244103D01*
X388850Y244000D01*
X389118D01*
X389387Y244103D01*
X389617Y244258D01*
X389808Y244465D01*
G01X392393Y246842D02*
X392163Y246997D01*
X391895Y247100D01*
X391588D01*
X391243Y246945D01*
X390975Y246687D01*
X390783Y246377D01*
X390630Y245860D01*
X390592Y245395D01*
X390668Y244930D01*
X390783Y244620D01*
X391013Y244310D01*
X391282Y244103D01*
X391550Y244000D01*
X391818D01*
X392087Y244103D01*
X392317Y244258D01*
X392508Y244465D01*
G01X393752Y245033D02*
X394748D01*
G01X396107Y244465D02*
X396337Y244207D01*
X396605Y244052D01*
X396950Y244000D01*
X397295Y244103D01*
X397563Y244310D01*
X397755Y244672D01*
X397793Y245085D01*
X397717Y245498D01*
X397525Y245757D01*
X397257Y245963D01*
X396988Y246015D01*
X396720Y245963D01*
X396375Y245757D01*
X396490Y247100D01*
X397525D01*
G01X383192Y272100D02*
X384150Y269000D01*
X385108Y272100D01*
G01X386007Y269000D02*
Y272100D01*
X386773D01*
X387080Y271945D01*
X387310Y271738D01*
X387502Y271428D01*
X387655Y271067D01*
X387693Y270550D01*
X387655Y270033D01*
X387502Y269672D01*
X387310Y269362D01*
X387080Y269155D01*
X386773Y269000D01*
X386007D01*
G01X388707D02*
Y272100D01*
X389473D01*
X389780Y271945D01*
X390010Y271738D01*
X390202Y271428D01*
X390355Y271067D01*
X390393Y270550D01*
X390355Y270033D01*
X390202Y269672D01*
X390010Y269362D01*
X389780Y269155D01*
X389473Y269000D01*
X388707D01*
G01X391407Y269620D02*
X391637Y269258D01*
X391943Y269052D01*
X392288Y269000D01*
X392595Y269052D01*
X392902Y269310D01*
X393093Y269620D01*
X393132Y269930D01*
X393055Y270292D01*
X392787Y270550D01*
X392518Y270653D01*
X392173D01*
G01X392518D02*
X392748Y270808D01*
X392940Y271067D01*
X393017Y271377D01*
X392940Y271687D01*
X392748Y271945D01*
X392403Y272100D01*
X392058Y272048D01*
X391713Y271842D01*
G01X394950Y268897D02*
X394873Y268948D01*
Y269052D01*
X394950Y269103D01*
X395027Y269052D01*
Y268948D01*
X394950Y268897D01*
G01X396807Y269620D02*
X397037Y269258D01*
X397343Y269052D01*
X397688Y269000D01*
X397995Y269052D01*
X398302Y269310D01*
X398493Y269620D01*
X398532Y269930D01*
X398455Y270292D01*
X398187Y270550D01*
X397918Y270653D01*
X397573D01*
G01X397918D02*
X398148Y270808D01*
X398340Y271067D01*
X398417Y271377D01*
X398340Y271687D01*
X398148Y271945D01*
X397803Y272100D01*
X397458Y272048D01*
X397113Y271842D01*
G01X377192Y262100D02*
X378150Y259000D01*
X379108Y262100D01*
G01X381693Y261842D02*
X381463Y261997D01*
X381195Y262100D01*
X380888D01*
X380543Y261945D01*
X380275Y261687D01*
X380083Y261377D01*
X379930Y260860D01*
X379892Y260395D01*
X379968Y259930D01*
X380083Y259620D01*
X380313Y259310D01*
X380582Y259103D01*
X380850Y259000D01*
X381118D01*
X381387Y259103D01*
X381617Y259258D01*
X381808Y259465D01*
G01X384393Y261842D02*
X384163Y261997D01*
X383895Y262100D01*
X383588D01*
X383243Y261945D01*
X382975Y261687D01*
X382783Y261377D01*
X382630Y260860D01*
X382592Y260395D01*
X382668Y259930D01*
X382783Y259620D01*
X383013Y259310D01*
X383282Y259103D01*
X383550Y259000D01*
X383818D01*
X384087Y259103D01*
X384317Y259258D01*
X384508Y259465D01*
G01X385407D02*
X385637Y259207D01*
X385905Y259052D01*
X386250Y259000D01*
X386595Y259103D01*
X386863Y259310D01*
X387055Y259672D01*
X387093Y260085D01*
X387017Y260498D01*
X386825Y260757D01*
X386557Y260963D01*
X386288Y261015D01*
X386020Y260963D01*
X385675Y260757D01*
X385790Y262100D01*
X386825D01*
G01X388452Y260033D02*
X389448D01*
G01X390692Y259000D02*
X391650Y262100D01*
X392608Y259000D01*
G01X392263Y260085D02*
X391037D01*
G01X393507Y259000D02*
Y262100D01*
X394273D01*
X394580Y261945D01*
X394810Y261738D01*
X395002Y261428D01*
X395155Y261067D01*
X395193Y260550D01*
X395155Y260033D01*
X395002Y259672D01*
X394810Y259362D01*
X394580Y259155D01*
X394273Y259000D01*
X393507D01*
G01X397893Y261842D02*
X397663Y261997D01*
X397395Y262100D01*
X397088D01*
X396743Y261945D01*
X396475Y261687D01*
X396283Y261377D01*
X396130Y260860D01*
X396092Y260395D01*
X396168Y259930D01*
X396283Y259620D01*
X396513Y259310D01*
X396782Y259103D01*
X397050Y259000D01*
X397318D01*
X397587Y259103D01*
X397817Y259258D01*
X398008Y259465D01*
G01X385192Y277100D02*
X386150Y274000D01*
X387108Y277100D01*
G01X389693Y276842D02*
X389463Y276997D01*
X389195Y277100D01*
X388888D01*
X388543Y276945D01*
X388275Y276687D01*
X388083Y276377D01*
X387930Y275860D01*
X387892Y275395D01*
X387968Y274930D01*
X388083Y274620D01*
X388313Y274310D01*
X388582Y274103D01*
X388850Y274000D01*
X389118D01*
X389387Y274103D01*
X389617Y274258D01*
X389808Y274465D01*
G01X392393Y276842D02*
X392163Y276997D01*
X391895Y277100D01*
X391588D01*
X391243Y276945D01*
X390975Y276687D01*
X390783Y276377D01*
X390630Y275860D01*
X390592Y275395D01*
X390668Y274930D01*
X390783Y274620D01*
X391013Y274310D01*
X391282Y274103D01*
X391550Y274000D01*
X391818D01*
X392087Y274103D01*
X392317Y274258D01*
X392508Y274465D01*
G01X393522Y276583D02*
X393752Y276893D01*
X394020Y277048D01*
X394327Y277100D01*
X394710Y276997D01*
X394978Y276738D01*
X395055Y276428D01*
X395017Y276118D01*
X394863Y275860D01*
X394097Y275343D01*
X393752Y274982D01*
X393522Y274465D01*
X393445Y274000D01*
X395055D01*
G01X396950Y277100D02*
X396643Y276997D01*
X396413Y276738D01*
X396260Y276428D01*
X396145Y276015D01*
X396107Y275550D01*
X396145Y275085D01*
X396260Y274672D01*
X396413Y274362D01*
X396643Y274103D01*
X396950Y274000D01*
X397257Y274103D01*
X397487Y274362D01*
X397640Y274672D01*
X397755Y275085D01*
X397793Y275550D01*
X397755Y276015D01*
X397640Y276428D01*
X397487Y276738D01*
X397257Y276997D01*
X396950Y277100D01*
G01X382575Y403362D02*
X382767Y403155D01*
X383035Y403000D01*
X383265D01*
X383495Y403103D01*
X383648Y403258D01*
X383725Y403465D01*
X383687Y403775D01*
X383533Y403930D01*
X382843Y404240D01*
X382690Y404602D01*
X382767Y404860D01*
X382920Y405015D01*
X383150Y405067D01*
X383380Y405015D01*
X383610Y404860D01*
G01X386460Y413067D02*
X387150Y411000D01*
X387840Y413067D01*
G01X389428Y412033D02*
X390348D01*
G01X389850Y412705D02*
Y411362D01*
G01X401728Y241033D02*
X402648D01*
G01X402150Y241705D02*
Y240362D01*
G01X401728Y280033D02*
X402648D01*
G01X402150Y280705D02*
Y279362D01*
G01X391460Y405067D02*
X392150Y403000D01*
X392840Y405067D01*
G01X394352Y404033D02*
X395348D01*
G01X422652Y255033D02*
X423648D01*
G01X422652Y250033D02*
X423648D01*
G01X422652Y245033D02*
X423648D01*
G01X422652Y270033D02*
X423648D01*
G01X422652Y265033D02*
X423648D01*
G01X422652Y260033D02*
X423648D01*
G01X422652Y275033D02*
X423648D01*
G54D11*
G01X48000Y254000D02*
X79000D01*
G01X48000Y285000D02*
Y254000D01*
G01Y354000D02*
Y385000D01*
G01D02*
X79000D01*
G01X271000Y64000D02*
X240000D01*
G01Y95000D02*
Y64000D01*
G01Y208000D02*
Y239000D01*
G01X271000D02*
X240000D01*
G01X328000Y20000D02*
Y8000D01*
G01D02*
X340000D01*
G01Y20000D02*
X328000D01*
G01Y49000D02*
Y37000D01*
G01D02*
X340000D01*
G01Y49000D02*
X328000D01*
G01X340000Y61000D02*
X328000D01*
G01Y49000D02*
Y61000D01*
G01X352000Y20000D02*
Y8000D01*
G01X340000Y20000D02*
Y8000D01*
G01X352000D02*
X340000D01*
G01Y20000D02*
X352000D01*
G01X340000Y49000D02*
Y37000D01*
G01X352000Y49000D02*
Y37000D01*
G01D02*
X340000D01*
G01Y49000D02*
Y61000D01*
G01Y49000D02*
X352000D01*
G01X340000Y61000D02*
X352000D01*
G01D02*
Y49000D01*
G01X380000Y64000D02*
X412000D01*
G01X380000Y239000D02*
X412000D01*
Y165000D01*
G01X375000Y385000D02*
X406000D01*
Y348000D01*
G01X397900Y407000D02*
G03I-9899J0D01*
G01X406000Y283000D02*
Y312000D01*
G01X412000Y64000D02*
Y130000D01*
G54D12*
G01X5677Y88614D02*
X10323D01*
Y79402D01*
X5677D01*
Y88614D01*
G01X18614Y98323D02*
Y93677D01*
X9402D01*
Y98323D01*
X18614D01*
G01Y120323D02*
Y115677D01*
X9402D01*
Y120323D01*
X18614D01*
G01X19276Y74835D02*
X28724D01*
Y89008D01*
X19276D01*
Y74835D01*
G01X19386Y115677D02*
Y120323D01*
X28598D01*
Y115677D01*
X19386D01*
G01X28323Y105386D02*
X23677D01*
Y114598D01*
X28323D01*
Y105386D01*
G01X19386Y135677D02*
Y140323D01*
X28598D01*
Y135677D01*
X19386D01*
G01X37323Y62386D02*
X32677D01*
Y71598D01*
X37323D01*
Y62386D01*
G01X42323Y79386D02*
X37677D01*
Y88598D01*
X42323D01*
Y79386D01*
G01X52323D02*
X47677D01*
Y88598D01*
X52323D01*
Y79386D01*
G01X47323D02*
X42677D01*
Y88598D01*
X47323D01*
Y79386D01*
G01X57323D02*
X52677D01*
Y88598D01*
X57323D01*
Y79386D01*
G01X67323D02*
X62677D01*
Y88598D01*
X67323D01*
Y79386D01*
G01X62323D02*
X57677D01*
Y88598D01*
X62323D01*
Y79386D01*
G01X51677Y178614D02*
X56323D01*
Y169402D01*
X51677D01*
Y178614D01*
G01X58677D02*
X63323D01*
Y169402D01*
X58677D01*
Y178614D01*
G01X64677Y248614D02*
X69323D01*
Y239402D01*
X64677D01*
Y248614D01*
G01X69323Y269386D02*
X64677D01*
Y278598D01*
X69323D01*
Y269386D01*
G01X64677Y268614D02*
X69323D01*
Y259402D01*
X64677D01*
Y268614D01*
G01X67323Y299386D02*
X62677D01*
Y308598D01*
X67323D01*
Y299386D01*
G01X62323D02*
X57677D01*
Y308598D01*
X62323D01*
Y299386D01*
G01Y289386D02*
X57677D01*
Y298598D01*
X62323D01*
Y289386D01*
G01X67323D02*
X62677D01*
Y298598D01*
X67323D01*
Y289386D01*
G01X57677Y329614D02*
X62323D01*
Y320402D01*
X57677D01*
Y329614D01*
G01X68323Y320386D02*
X63677D01*
Y329598D01*
X68323D01*
Y320386D01*
G01Y330386D02*
X63677D01*
Y339598D01*
X68323D01*
Y330386D01*
G01X62323D02*
X57677D01*
Y339598D01*
X62323D01*
Y330386D01*
G01X66614Y347323D02*
Y342677D01*
X57402D01*
Y347323D01*
X66614D01*
G01X77323Y79386D02*
X72677D01*
Y88598D01*
X77323D01*
Y79386D01*
G01X72323D02*
X67677D01*
Y88598D01*
X72323D01*
Y79386D01*
G01X82323D02*
X77677D01*
Y88598D01*
X82323D01*
Y79386D01*
G01X72677Y178614D02*
X77323D01*
Y169402D01*
X72677D01*
Y178614D01*
G01X79677D02*
X84323D01*
Y169402D01*
X79677D01*
Y178614D01*
G01X65677D02*
X70323D01*
Y169402D01*
X65677D01*
Y178614D01*
G01X80614Y294323D02*
Y289677D01*
X71402D01*
Y294323D01*
X80614D01*
G01Y319323D02*
Y314677D01*
X71402D01*
Y319323D01*
X80614D01*
G01X71386Y308677D02*
Y313323D01*
X80598D01*
Y308677D01*
X71386D01*
G01X102323Y79394D02*
X97677D01*
Y88606D01*
X102323D01*
Y79394D01*
G01X97323Y79386D02*
X92677D01*
Y88598D01*
X97323D01*
Y79386D01*
G01X92323D02*
X87677D01*
Y88598D01*
X92323D01*
Y79386D01*
G01X87323D02*
X82677D01*
Y88598D01*
X87323D01*
Y79386D01*
G01X84386Y289677D02*
Y294323D01*
X93598D01*
Y289677D01*
X84386D01*
G01X102323Y299386D02*
X97677D01*
Y308598D01*
X102323D01*
Y299386D01*
G01Y289386D02*
X97677D01*
Y298598D01*
X102323D01*
Y289386D01*
G01X85386Y347677D02*
Y352323D01*
X94598D01*
Y347677D01*
X85386D01*
G01X94614Y346323D02*
Y341677D01*
X85402D01*
Y346323D01*
X94614D01*
G01X108323Y62386D02*
X103677D01*
Y71598D01*
X108323D01*
Y62386D01*
G01X111276Y74835D02*
X120724D01*
Y89008D01*
X111276D01*
Y74835D01*
G01X121614Y106323D02*
Y101677D01*
X112402D01*
Y106323D01*
X121614D01*
G01Y126323D02*
Y121677D01*
X112402D01*
Y126323D01*
X121614D01*
G01X112386Y131677D02*
Y136323D01*
X121598D01*
Y131677D01*
X112386D01*
G01Y126677D02*
Y131323D01*
X121598D01*
Y126677D01*
X112386D01*
G01X121614Y146323D02*
Y141677D01*
X112402D01*
Y146323D01*
X121614D01*
G01X112386Y147677D02*
Y152323D01*
X121598D01*
Y147677D01*
X112386D01*
G01Y167677D02*
Y172323D01*
X121598D01*
Y167677D01*
X112386D01*
G01Y182677D02*
Y187323D01*
X121598D01*
Y182677D01*
X112386D01*
G01Y175677D02*
Y180323D01*
X121598D01*
Y175677D01*
X112386D01*
G01Y192677D02*
Y197323D01*
X121598D01*
Y192677D01*
X112386D01*
G01Y187677D02*
Y192323D01*
X121598D01*
Y187677D01*
X112386D01*
G01X100386Y267677D02*
Y272323D01*
X109598D01*
Y267677D01*
X100386D01*
G01X109606Y262323D02*
Y257677D01*
X100394D01*
Y262323D01*
X109606D01*
G01X109614Y277323D02*
Y272677D01*
X100402D01*
Y277323D01*
X109614D01*
G01X107323Y289386D02*
X102677D01*
Y298598D01*
X107323D01*
Y289386D01*
G01Y299386D02*
X102677D01*
Y308598D01*
X107323D01*
Y299386D01*
G01X105677Y329614D02*
X110323D01*
Y320402D01*
X105677D01*
Y329614D01*
G01X100677D02*
X105323D01*
Y320402D01*
X100677D01*
Y329614D01*
G01X105323Y330386D02*
X100677D01*
Y339598D01*
X105323D01*
Y330386D01*
G01X105677Y339614D02*
X110323D01*
Y330402D01*
X105677D01*
Y339614D01*
G01X109323Y354386D02*
X104677D01*
Y363598D01*
X109323D01*
Y354386D01*
G01X104677Y373614D02*
X109323D01*
Y364402D01*
X104677D01*
Y373614D01*
G01X129677Y88614D02*
X134323D01*
Y79402D01*
X129677D01*
Y88614D01*
G01X137323Y299386D02*
X132677D01*
Y308598D01*
X137323D01*
Y299386D01*
G01X132323D02*
X127677D01*
Y308598D01*
X132323D01*
Y299386D01*
G01Y289386D02*
X127677D01*
Y298598D01*
X132323D01*
Y289386D01*
G01X137323D02*
X132677D01*
Y298598D01*
X137323D01*
Y289386D01*
G01X127677Y329614D02*
X132323D01*
Y320402D01*
X127677D01*
Y329614D01*
G01X132323Y330386D02*
X127677D01*
Y339598D01*
X132323D01*
Y330386D01*
G01X136614Y347323D02*
Y342677D01*
X127402D01*
Y347323D01*
X136614D01*
G01X137677Y112614D02*
X142323D01*
Y103402D01*
X137677D01*
Y112614D01*
G01X142677D02*
X147323D01*
Y103402D01*
X142677D01*
Y112614D01*
G01X148214Y219123D02*
Y214477D01*
X139002D01*
Y219123D01*
X148214D01*
G01X149277Y223414D02*
X153923D01*
Y214202D01*
X149277D01*
Y223414D01*
G01Y233414D02*
X153923D01*
Y224202D01*
X149277D01*
Y233414D01*
G01X139323Y269386D02*
X134677D01*
Y278598D01*
X139323D01*
Y269386D01*
G01X134677Y268614D02*
X139323D01*
Y259402D01*
X134677D01*
Y268614D01*
G01X150614Y294323D02*
Y289677D01*
X141402D01*
Y294323D01*
X150614D01*
G01X141386Y308677D02*
Y313323D01*
X150598D01*
Y308677D01*
X141386D01*
G01X150614Y319323D02*
Y314677D01*
X141402D01*
Y319323D01*
X150614D01*
G01X138323Y320386D02*
X133677D01*
Y329598D01*
X138323D01*
Y320386D01*
G01Y330386D02*
X133677D01*
Y339598D01*
X138323D01*
Y330386D01*
G01X171323Y28394D02*
X166677D01*
Y37606D01*
X171323D01*
Y28394D01*
G01Y18394D02*
X166677D01*
Y27606D01*
X171323D01*
Y18394D01*
G01Y38394D02*
X166677D01*
Y47606D01*
X171323D01*
Y38394D01*
G01X167323Y79386D02*
X162677D01*
Y88598D01*
X167323D01*
Y79386D01*
G01X152677Y88614D02*
X157323D01*
Y79402D01*
X152677D01*
Y88614D01*
G01X162323Y103386D02*
X157677D01*
Y112598D01*
X162323D01*
Y103386D01*
G01X157986Y214477D02*
Y219123D01*
X167198D01*
Y214477D01*
X157986D01*
G01X154386Y289677D02*
Y294323D01*
X163598D01*
Y289677D01*
X154386D01*
G01X172323Y299386D02*
X167677D01*
Y308598D01*
X172323D01*
Y299386D01*
G01Y289386D02*
X167677D01*
Y298598D01*
X172323D01*
Y289386D01*
G01X155386Y347677D02*
Y352323D01*
X164598D01*
Y347677D01*
X155386D01*
G01X164614Y346323D02*
Y341677D01*
X155402D01*
Y346323D01*
X164614D01*
G01X187323Y79386D02*
X182677D01*
Y88598D01*
X187323D01*
Y79386D01*
G01X183323Y103386D02*
X178677D01*
Y112598D01*
X183323D01*
Y103386D01*
G01X173277Y223414D02*
X177923D01*
Y214202D01*
X173277D01*
Y223414D01*
G01Y233414D02*
X177923D01*
Y224202D01*
X173277D01*
Y233414D01*
G01X170386Y267677D02*
Y272323D01*
X179598D01*
Y267677D01*
X170386D01*
G01X179606Y267323D02*
Y262677D01*
X170394D01*
Y267323D01*
X179606D01*
G01Y262323D02*
Y257677D01*
X170394D01*
Y262323D01*
X179606D01*
G01X179614Y277323D02*
Y272677D01*
X170402D01*
Y277323D01*
X179614D01*
G01X177323Y299386D02*
X172677D01*
Y308598D01*
X177323D01*
Y299386D01*
G01Y289386D02*
X172677D01*
Y298598D01*
X177323D01*
Y289386D01*
G01X175677Y329614D02*
X180323D01*
Y320402D01*
X175677D01*
Y329614D01*
G01X170677D02*
X175323D01*
Y320402D01*
X170677D01*
Y329614D01*
G01X175323Y330386D02*
X170677D01*
Y339598D01*
X175323D01*
Y330386D01*
G01X175677Y339614D02*
X180323D01*
Y330402D01*
X175677D01*
Y339614D01*
G01X179323Y354386D02*
X174677D01*
Y363598D01*
X179323D01*
Y354386D01*
G01X174677Y373614D02*
X179323D01*
Y364402D01*
X174677D01*
Y373614D01*
G01X197323Y79386D02*
X192677D01*
Y88598D01*
X197323D01*
Y79386D01*
G01X205323Y103386D02*
X200677D01*
Y112598D01*
X205323D01*
Y103386D01*
G01X190677Y223614D02*
X195323D01*
Y214402D01*
X190677D01*
Y223614D01*
G01X202323Y299386D02*
X197677D01*
Y308598D01*
X202323D01*
Y299386D01*
G01Y289386D02*
X197677D01*
Y298598D01*
X202323D01*
Y289386D01*
G01X197677Y329614D02*
X202323D01*
Y320402D01*
X197677D01*
Y329614D01*
G01X202323Y330386D02*
X197677D01*
Y339598D01*
X202323D01*
Y330386D01*
G01X206614Y347323D02*
Y342677D01*
X197402D01*
Y347323D01*
X206614D01*
G01X204386Y23677D02*
Y28323D01*
X213598D01*
Y23677D01*
X204386D01*
G01X213614Y34323D02*
Y29677D01*
X204402D01*
Y34323D01*
X213614D01*
G01X207323Y79386D02*
X202677D01*
Y88598D01*
X207323D01*
Y79386D01*
G01X217323D02*
X212677D01*
Y88598D01*
X217323D01*
Y79386D01*
G01X210323Y103386D02*
X205677D01*
Y112598D01*
X210323D01*
Y103386D01*
G01X209323Y269386D02*
X204677D01*
Y278598D01*
X209323D01*
Y269386D01*
G01X204677Y268614D02*
X209323D01*
Y259402D01*
X204677D01*
Y268614D01*
G01X207323Y299386D02*
X202677D01*
Y308598D01*
X207323D01*
Y299386D01*
G01X220614Y294323D02*
Y289677D01*
X211402D01*
Y294323D01*
X220614D01*
G01X207323Y289386D02*
X202677D01*
Y298598D01*
X207323D01*
Y289386D01*
G01X211386Y308677D02*
Y313323D01*
X220598D01*
Y308677D01*
X211386D01*
G01X220614Y319323D02*
Y314677D01*
X211402D01*
Y319323D01*
X220614D01*
G01X208323Y320386D02*
X203677D01*
Y329598D01*
X208323D01*
Y320386D01*
G01Y330386D02*
X203677D01*
Y339598D01*
X208323D01*
Y330386D01*
G01X231614Y156323D02*
Y151677D01*
X222402D01*
Y156323D01*
X231614D01*
G01Y176323D02*
Y171677D01*
X222402D01*
Y176323D01*
X231614D01*
G01Y201323D02*
Y196677D01*
X222402D01*
Y201323D01*
X231614D01*
G01Y190323D02*
Y185677D01*
X222402D01*
Y190323D01*
X231614D01*
G01X224386Y289677D02*
Y294323D01*
X233598D01*
Y289677D01*
X224386D01*
G01X225386Y347677D02*
Y352323D01*
X234598D01*
Y347677D01*
X225386D01*
G01X234614Y346323D02*
Y341677D01*
X225402D01*
Y346323D01*
X234614D01*
G01X259606Y88323D02*
Y83677D01*
X250394D01*
Y88323D01*
X259606D01*
G01X254323Y118394D02*
X249677D01*
Y127606D01*
X254323D01*
Y118394D01*
G01X249677Y137614D02*
X254323D01*
Y128402D01*
X249677D01*
Y137614D01*
G01X247386Y180677D02*
Y185323D01*
X256598D01*
Y180677D01*
X247386D01*
G01X256606Y194323D02*
Y189677D01*
X247394D01*
Y194323D01*
X256606D01*
G01X258606Y230323D02*
Y225677D01*
X249394D01*
Y230323D01*
X258606D01*
G01X240386Y267677D02*
Y272323D01*
X249598D01*
Y267677D01*
X240386D01*
G01X249606Y262323D02*
Y257677D01*
X240394D01*
Y262323D01*
X249606D01*
G01X249614Y277323D02*
Y272677D01*
X240402D01*
Y277323D01*
X249614D01*
G01X242323Y299386D02*
X237677D01*
Y308598D01*
X242323D01*
Y299386D01*
G01Y289386D02*
X237677D01*
Y298598D01*
X242323D01*
Y289386D01*
G01X247323D02*
X242677D01*
Y298598D01*
X247323D01*
Y289386D01*
G01Y299386D02*
X242677D01*
Y308598D01*
X247323D01*
Y299386D01*
G01X245677Y329614D02*
X250323D01*
Y320402D01*
X245677D01*
Y329614D01*
G01X240677D02*
X245323D01*
Y320402D01*
X240677D01*
Y329614D01*
G01X245323Y330386D02*
X240677D01*
Y339598D01*
X245323D01*
Y330386D01*
G01X245677Y339614D02*
X250323D01*
Y330402D01*
X245677D01*
Y339614D01*
G01X249323Y354386D02*
X244677D01*
Y363598D01*
X249323D01*
Y354386D01*
G01X244677Y373614D02*
X249323D01*
Y364402D01*
X244677D01*
Y373614D01*
G01X273614Y88323D02*
Y83677D01*
X264402D01*
Y88323D01*
X273614D01*
G01X255677Y127606D02*
X260323D01*
Y118394D01*
X255677D01*
Y127606D01*
G01Y137606D02*
X260323D01*
Y128394D01*
X255677D01*
Y137606D01*
G01X272323Y299386D02*
X267677D01*
Y308598D01*
X272323D01*
Y299386D01*
G01Y289386D02*
X267677D01*
Y298598D01*
X272323D01*
Y289386D01*
G01X267677Y329614D02*
X272323D01*
Y320402D01*
X267677D01*
Y329614D01*
G01X272323Y330386D02*
X267677D01*
Y339598D01*
X272323D01*
Y330386D01*
G01X276614Y347323D02*
Y342677D01*
X267402D01*
Y347323D01*
X276614D01*
G01X295606Y88323D02*
Y83677D01*
X286394D01*
Y88323D01*
X295606D01*
G01X290323Y118386D02*
X285677D01*
Y127598D01*
X290323D01*
Y118386D01*
G01X285677Y137614D02*
X290323D01*
Y128402D01*
X285677D01*
Y137614D01*
G01X280606Y194323D02*
Y189677D01*
X271394D01*
Y194323D01*
X280606D01*
G01X282606Y230323D02*
Y225677D01*
X273394D01*
Y230323D01*
X282606D01*
G01X279323Y269386D02*
X274677D01*
Y278598D01*
X279323D01*
Y269386D01*
G01X274677Y268614D02*
X279323D01*
Y259402D01*
X274677D01*
Y268614D01*
G01X277323Y299386D02*
X272677D01*
Y308598D01*
X277323D01*
Y299386D01*
G01X290614Y294323D02*
Y289677D01*
X281402D01*
Y294323D01*
X290614D01*
G01X277323Y289386D02*
X272677D01*
Y298598D01*
X277323D01*
Y289386D01*
G01X281386Y308677D02*
Y313323D01*
X290598D01*
Y308677D01*
X281386D01*
G01X290614Y319323D02*
Y314677D01*
X281402D01*
Y319323D01*
X290614D01*
G01X278323Y320386D02*
X273677D01*
Y329598D01*
X278323D01*
Y320386D01*
G01Y330386D02*
X273677D01*
Y339598D01*
X278323D01*
Y330386D01*
G01X309614Y88323D02*
Y83677D01*
X300402D01*
Y88323D01*
X309614D01*
G01X291677Y127606D02*
X296323D01*
Y118394D01*
X291677D01*
Y127606D01*
G01Y137606D02*
X296323D01*
Y128394D01*
X291677D01*
Y137606D01*
G01X295386Y180677D02*
Y185323D01*
X304598D01*
Y180677D01*
X295386D01*
G01X306614Y194323D02*
Y189677D01*
X297402D01*
Y194323D01*
X306614D01*
G01X306606Y230323D02*
Y225677D01*
X297394D01*
Y230323D01*
X306606D01*
G01X294386Y289677D02*
Y294323D01*
X303598D01*
Y289677D01*
X294386D01*
G01X304614Y346323D02*
Y341677D01*
X295402D01*
Y346323D01*
X304614D01*
G01X295386Y347677D02*
Y352323D01*
X304598D01*
Y347677D01*
X295386D01*
G01X319677Y40614D02*
X324323D01*
Y31402D01*
X319677D01*
Y40614D01*
G01X307386Y189677D02*
Y194323D01*
X316598D01*
Y189677D01*
X307386D01*
G01X328614Y194323D02*
Y189677D01*
X319402D01*
Y194323D01*
X328614D01*
G01X316606Y230323D02*
Y225677D01*
X307394D01*
Y230323D01*
X316606D01*
G01X328606D02*
Y225677D01*
X319394D01*
Y230323D01*
X328606D01*
G01X310386Y267677D02*
Y272323D01*
X319598D01*
Y267677D01*
X310386D01*
G01X319606Y267323D02*
Y262677D01*
X310394D01*
Y267323D01*
X319606D01*
G01Y262323D02*
Y257677D01*
X310394D01*
Y262323D01*
X319606D01*
G01X319614Y277323D02*
Y272677D01*
X310402D01*
Y277323D01*
X319614D01*
G01X312323Y299386D02*
X307677D01*
Y308598D01*
X312323D01*
Y299386D01*
G01Y289386D02*
X307677D01*
Y298598D01*
X312323D01*
Y289386D01*
G01X317323D02*
X312677D01*
Y298598D01*
X317323D01*
Y289386D01*
G01Y299386D02*
X312677D01*
Y308598D01*
X317323D01*
Y299386D01*
G01X315677Y329614D02*
X320323D01*
Y320402D01*
X315677D01*
Y329614D01*
G01X310677D02*
X315323D01*
Y320402D01*
X310677D01*
Y329614D01*
G01X315323Y330386D02*
X310677D01*
Y339598D01*
X315323D01*
Y330386D01*
G01X315677Y339614D02*
X320323D01*
Y330402D01*
X315677D01*
Y339614D01*
G01X319323Y354386D02*
X314677D01*
Y363598D01*
X319323D01*
Y354386D01*
G01X314677Y373614D02*
X319323D01*
Y364402D01*
X314677D01*
Y373614D01*
G01X345614Y88323D02*
Y83677D01*
X336402D01*
Y88323D01*
X345614D01*
G01X331606D02*
Y83677D01*
X322394D01*
Y88323D01*
X331606D01*
G01X327677Y127606D02*
X332323D01*
Y118394D01*
X327677D01*
Y127606D01*
G01X326823Y118394D02*
X322177D01*
Y127606D01*
X326823D01*
Y118394D01*
G01X322177Y137606D02*
X326823D01*
Y128394D01*
X322177D01*
Y137606D01*
G01X327677D02*
X332323D01*
Y128394D01*
X327677D01*
Y137606D01*
G01X345606Y178323D02*
Y173677D01*
X336394D01*
Y178323D01*
X345606D01*
G01X329386Y189677D02*
Y194323D01*
X338598D01*
Y189677D01*
X329386D01*
G01X338606Y230323D02*
Y225677D01*
X329394D01*
Y230323D01*
X338606D01*
G01X331677Y271614D02*
X336323D01*
Y262402D01*
X331677D01*
Y271614D01*
G01X335323Y283386D02*
X330677D01*
Y292598D01*
X335323D01*
Y283386D01*
G01X330677Y302614D02*
X335323D01*
Y293402D01*
X330677D01*
Y302614D01*
G01X331386Y305677D02*
Y310323D01*
X340598D01*
Y305677D01*
X331386D01*
G01X331323Y341386D02*
X326677D01*
Y350598D01*
X331323D01*
Y341386D01*
G01Y352386D02*
X326677D01*
Y361598D01*
X331323D01*
Y352386D01*
G01X351386Y189677D02*
Y194323D01*
X360598D01*
Y189677D01*
X351386D01*
G01X350614Y194323D02*
Y189677D01*
X341402D01*
Y194323D01*
X350614D01*
G01X350606Y230323D02*
Y225677D01*
X341394D01*
Y230323D01*
X350606D01*
G01X360606D02*
Y225677D01*
X351394D01*
Y230323D01*
X360606D01*
G01X360614Y324323D02*
Y319677D01*
X351402D01*
Y324323D01*
X360614D01*
G01X341386Y319677D02*
Y324323D01*
X350598D01*
Y319677D01*
X341386D01*
G01X345677Y350614D02*
X350323D01*
Y341402D01*
X345677D01*
Y350614D01*
G01X361386Y83677D02*
Y88323D01*
X370598D01*
Y83677D01*
X361386D01*
G01X376614Y194323D02*
Y189677D01*
X367402D01*
Y194323D01*
X376614D01*
G01X376606Y201323D02*
Y196677D01*
X367394D01*
Y201323D01*
X376606D01*
G01X374614Y223323D02*
Y218677D01*
X365402D01*
Y223323D01*
X374614D01*
G01X370323Y261386D02*
X365677D01*
Y270598D01*
X370323D01*
Y261386D01*
G01Y283386D02*
X365677D01*
Y292598D01*
X370323D01*
Y283386D01*
G01X365677Y280614D02*
X370323D01*
Y271402D01*
X365677D01*
Y280614D01*
G01Y302614D02*
X370323D01*
Y293402D01*
X365677D01*
Y302614D01*
G01X361386Y319677D02*
Y324323D01*
X370598D01*
Y319677D01*
X361386D01*
G01X370323Y342386D02*
X365677D01*
Y351598D01*
X370323D01*
Y342386D01*
G01Y352386D02*
X365677D01*
Y361598D01*
X370323D01*
Y352386D01*
G01X361386Y362677D02*
Y367323D01*
X370598D01*
Y362677D01*
X361386D01*
G01X377394Y89677D02*
Y94323D01*
X386606D01*
Y89677D01*
X377394D01*
G01X382614Y88323D02*
Y83677D01*
X373402D01*
Y88323D01*
X382614D01*
G01X386606Y100323D02*
Y95677D01*
X377394D01*
Y100323D01*
X386606D01*
G01Y112323D02*
Y107677D01*
X377394D01*
Y112323D01*
X386606D01*
G01Y106323D02*
Y101677D01*
X377394D01*
Y106323D01*
X386606D01*
G01X383323Y204386D02*
X378677D01*
Y213598D01*
X383323D01*
Y204386D01*
G01X409614Y252323D02*
Y247677D01*
X400402D01*
Y252323D01*
X409614D01*
G01Y247323D02*
Y242677D01*
X400402D01*
Y247323D01*
X409614D01*
G01Y257323D02*
Y252677D01*
X400402D01*
Y257323D01*
X409614D01*
G01Y262323D02*
Y257677D01*
X400402D01*
Y262323D01*
X409614D01*
G01Y272323D02*
Y267677D01*
X400402D01*
Y272323D01*
X409614D01*
G01Y267323D02*
Y262677D01*
X400402D01*
Y267323D01*
X409614D01*
G01Y277323D02*
Y272677D01*
X400402D01*
Y277323D01*
X409614D01*
G01X419614Y252323D02*
Y247677D01*
X410402D01*
Y252323D01*
X419614D01*
G01Y247323D02*
Y242677D01*
X410402D01*
Y247323D01*
X419614D01*
G01Y257323D02*
Y252677D01*
X410402D01*
Y257323D01*
X419614D01*
G01Y262323D02*
Y257677D01*
X410402D01*
Y262323D01*
X419614D01*
G01Y272323D02*
Y267677D01*
X410402D01*
Y272323D01*
X419614D01*
G01Y267323D02*
Y262677D01*
X410402D01*
Y267323D01*
X419614D01*
G01Y277323D02*
Y272677D01*
X410402D01*
Y277323D01*
X419614D01*
G54D13*
G01X9392Y98066D02*
G03I-492J0D01*
G01X5221Y99837D02*
X22521D01*
Y114037D01*
X5221D01*
Y99837D01*
G01X28476Y121850D02*
G03I-492J0D01*
G01X45933Y96032D02*
G03I-492J0D01*
G01X58492Y382496D02*
G03I-492J0D01*
G01X72106Y280811D02*
G03I-492J0D01*
G01X72721Y307854D02*
G03I-492J0D01*
G01X71524Y341327D02*
G03I-492J0D01*
G01X76358Y378000D02*
G03I-492J0D01*
G01X101642Y234575D02*
G03I-492J0D01*
G01X102461Y352673D02*
G03I-492J0D01*
G01X142106Y280811D02*
G03I-492J0D01*
G01X142720Y307854D02*
G03I-492J0D01*
G01X141524Y341327D02*
G03I-492J0D01*
G01X135492Y385496D02*
G03I-492J0D01*
G01X146358Y378000D02*
G03I-492J0D01*
G01X172379Y233963D02*
X155079D01*
Y219763D01*
X172379D01*
Y233963D01*
G01X169192Y235734D02*
G03I-492J0D01*
G01X172461Y352673D02*
G03I-492J0D01*
G01X210051Y208968D02*
G03I-492J0D01*
G01X212106Y280811D02*
G03I-492J0D01*
G01X212720Y307854D02*
G03I-492J0D01*
G01X211524Y341327D02*
G03I-492J0D01*
G01X205492Y385496D02*
G03I-492J0D01*
G01X216358Y378000D02*
G03I-492J0D01*
G01X232756Y68000D02*
G03I-492J0D01*
G01X242461Y352673D02*
G03I-492J0D01*
G01X271319Y115598D02*
G03I-492J0D01*
G01X276634Y76000D02*
G03I-492J0D01*
G01X274319Y222598D02*
G03I-492J0D01*
G01X282106Y280811D02*
G03I-492J0D01*
G01X282720Y307854D02*
G03I-492J0D01*
G01X281524Y341327D02*
G03I-492J0D01*
G01X275492Y385496D02*
G03I-492J0D01*
G01X286358Y378000D02*
G03I-492J0D01*
G01X296319Y222598D02*
G03I-492J0D01*
G01X312634Y76000D02*
G03I-492J0D01*
G01X307319Y115598D02*
G03I-492J0D01*
G01X318319Y222598D02*
G03I-492J0D01*
G01X312461Y352673D02*
G03I-492J0D01*
G01X338476Y312850D02*
G03I-492J0D01*
G01X348634Y76000D02*
G03I-492J0D01*
G01X353949Y82929D02*
G03I-492J0D01*
G01X343319Y115598D02*
G03I-492J0D01*
G01X340319Y222598D02*
G03I-492J0D01*
G01X340996Y312000D02*
G03I-492J0D01*
G01X347004Y334000D02*
G03I-492J0D01*
G01X353508Y353150D02*
G03I-492J0D01*
G01X348004Y370000D02*
G03I-492J0D01*
G01X345346Y361575D02*
G03I-492J0D01*
G01X353508Y366150D02*
G03I-492J0D01*
G01X357350Y76000D02*
G03I-492J0D01*
G01X364602Y202898D02*
G03I-492J0D01*
G01X362319Y222598D02*
G03I-492J0D01*
G01X363658Y260673D02*
G03I-492J0D01*
G01X363461Y282673D02*
G03I-492J0D01*
G01X376346Y113575D02*
G03I-492J0D01*
G54D14*
G01X18800Y75166D02*
Y88566D01*
X11300D01*
Y75166D01*
X18800D01*
G01X29200Y88834D02*
Y75434D01*
X36700D01*
Y88834D01*
X29200D01*
G01X23752Y134449D02*
Y123032D01*
X21193D01*
Y134449D01*
X23752D01*
G01X28709Y229161D02*
X101150D01*
Y191957D01*
X28709D01*
Y229161D01*
G01X38945Y71787D02*
X101937D01*
Y-10890D01*
X38945D01*
Y71787D01*
G01X97606Y102331D02*
X45638D01*
Y154299D01*
X97606D01*
Y102331D01*
G01X53150Y419150D02*
X55118Y417181D01*
Y395134D01*
X44882D01*
Y417181D01*
X46850Y419150D01*
X53150D01*
G01X50000Y408913D02*
X52362Y406551D01*
X47638D01*
X50000Y408913D01*
G01X52362D02*
X47638D01*
G01X56200Y272834D02*
Y259434D01*
X63700D01*
Y272834D01*
X56200D01*
G01X58701Y381165D02*
X56339D01*
Y352425D01*
X58701D01*
G01X57315Y387315D02*
X96685D01*
Y426685D01*
X57315D01*
Y387315D01*
G01X50000Y411669D02*
Y402614D01*
G01X65189Y435740D02*
Y426685D01*
G01X53378Y435740D02*
X100622D01*
G01X53378Y439677D02*
X100622D01*
G01X57315Y426685D02*
X49441D01*
Y435740D01*
X53378D01*
Y455425D01*
X59284D01*
Y485740D01*
X57315D01*
Y487709D01*
X59284D01*
Y502669D01*
X94716D01*
Y487709D01*
X96685D01*
Y485740D01*
X94716D01*
Y455425D01*
X100622D01*
Y435740D01*
X104559D01*
Y426685D01*
X96685D01*
G01X53378Y443614D02*
X100622D01*
G01X53378Y447551D02*
X100622D01*
G01X53378Y451488D02*
X100622D01*
G01X53378Y455425D02*
X100622D01*
G01X77815Y259157D02*
Y278842D01*
X92185D01*
Y259157D01*
X77815D01*
G01X68166Y281200D02*
X81566D01*
Y288700D01*
X68166D01*
Y281200D01*
G01X78331Y295256D02*
X86992D01*
G01X81166Y312200D02*
X94566D01*
Y319700D01*
X81166D01*
Y312200D01*
G01X77528Y320854D02*
Y340146D01*
X89732D01*
Y320854D01*
X77528D01*
G01X78331Y307067D02*
X86992D01*
G01X71166Y341200D02*
X84566D01*
Y348700D01*
X71166D01*
Y341200D01*
G01X71299Y381165D02*
X73661D01*
Y352425D01*
X71299D01*
G01X96834Y288800D02*
X83434D01*
Y281300D01*
X96834D01*
Y288800D01*
G01X96166Y341200D02*
X109566D01*
Y348700D01*
X96166D01*
Y341200D01*
G01X95669Y373146D02*
Y353854D01*
X83071D01*
Y373146D01*
X95669D01*
G01X85118Y375244D02*
Y380756D01*
G01X84331Y375244D02*
Y380756D01*
G01X89842Y375244D02*
X83543D01*
Y380756D01*
X89842D01*
G01X107150Y419150D02*
X109118Y417181D01*
Y395134D01*
X98882D01*
Y417181D01*
X100850Y419150D01*
X107150D01*
G01X88811Y435740D02*
Y426685D01*
G01X103200Y88834D02*
Y75434D01*
X110700D01*
Y88834D01*
X103200D01*
G01X111200Y277834D02*
Y264434D01*
X118700D01*
Y277834D01*
X111200D01*
G01X100166Y279200D02*
X113566D01*
Y286700D01*
X100166D01*
Y279200D01*
G01X104000Y408913D02*
X106362Y406551D01*
X101638D01*
X104000Y408913D01*
G01Y411669D02*
Y402614D01*
G01X123150Y419150D02*
X125118Y417181D01*
Y395134D01*
X114882D01*
Y417181D01*
X116850Y419150D01*
X123150D01*
G01X106362Y408913D02*
X101638D01*
G01X230000Y53000D02*
X130000D01*
Y73000D01*
X230000D01*
Y53000D01*
G01X128800Y75166D02*
Y88566D01*
X121300D01*
Y75166D01*
X128800D01*
G01X126200Y272834D02*
Y259434D01*
X133700D01*
Y272834D01*
X126200D01*
G01X128701Y381165D02*
X126339D01*
Y352425D01*
X128701D01*
G01X127315Y387315D02*
X166685D01*
Y426685D01*
X127315D01*
Y387315D01*
G01X120000Y408913D02*
X122362Y406551D01*
X117638D01*
X120000Y408913D01*
G01Y411669D02*
Y402614D01*
G01X122362Y408913D02*
X117638D01*
G01X123378Y435740D02*
X170622D01*
G01X123378Y439677D02*
X170622D01*
G01X127315Y426685D02*
X119441D01*
Y435740D01*
X123378D01*
Y455425D01*
X129284D01*
Y485740D01*
X127315D01*
Y487709D01*
X129284D01*
Y502669D01*
X164716D01*
Y487709D01*
X166685D01*
Y485740D01*
X164716D01*
Y455425D01*
X170622D01*
Y435740D01*
X174559D01*
Y426685D01*
X166685D01*
G01X123378Y443614D02*
X170622D01*
G01X123378Y447551D02*
X170622D01*
G01X123378Y451488D02*
X170622D01*
G01X123378Y455425D02*
X170622D01*
G01X134756Y202669D02*
X210347D01*
Y127079D01*
X134756D01*
Y202669D01*
G01X134766Y229000D02*
X148166D01*
Y236500D01*
X134766D01*
Y229000D01*
G01Y220000D02*
X148166D01*
Y227500D01*
X134766D01*
Y220000D01*
G01X147815Y259157D02*
Y278842D01*
X162185D01*
Y259157D01*
X147815D01*
G01X138166Y281200D02*
X151566D01*
Y288700D01*
X138166D01*
Y281200D01*
G01X148331Y295256D02*
X156992D01*
G01X147528Y320854D02*
Y340146D01*
X159732D01*
Y320854D01*
X147528D01*
G01X148331Y307067D02*
X156992D01*
G01X141166Y341200D02*
X154566D01*
Y348700D01*
X141166D01*
Y341200D01*
G01X141299Y381165D02*
X143661D01*
Y352425D01*
X141299D01*
G01X135189Y435740D02*
Y426685D01*
G01X166834Y288800D02*
X153434D01*
Y281300D01*
X166834D01*
Y288800D01*
G01X151166Y312200D02*
X164566D01*
Y319700D01*
X151166D01*
Y312200D01*
G01X166166Y341200D02*
X179566D01*
Y348700D01*
X166166D01*
Y341200D01*
G01X165669Y373146D02*
Y353854D01*
X153071D01*
Y373146D01*
X165669D01*
G01X155118Y375244D02*
Y380756D01*
G01X154331Y375244D02*
Y380756D01*
G01X159842Y375244D02*
X153543D01*
Y380756D01*
X159842D01*
G01X158811Y435740D02*
Y426685D01*
G01X192842Y47591D02*
Y-3590D01*
X173158D01*
Y47591D01*
X192842D01*
G01X192724Y16488D02*
X173039D01*
G01X185000Y73000D02*
Y78000D01*
X175000D01*
Y73000D01*
G01X181200Y277834D02*
Y264434D01*
X188700D01*
Y277834D01*
X181200D01*
G01X170166Y279200D02*
X183566D01*
Y286700D01*
X170166D01*
Y279200D01*
G01X177150Y419150D02*
X179118Y417181D01*
Y395134D01*
X168882D01*
Y417181D01*
X170850Y419150D01*
X177150D01*
G01X174000Y408913D02*
X176362Y406551D01*
X171638D01*
X174000Y408913D01*
G01Y411669D02*
Y402614D01*
G01X193150Y419150D02*
X195118Y417181D01*
Y395134D01*
X184882D01*
Y417181D01*
X186850Y419150D01*
X193150D01*
G01X176362Y408913D02*
X171638D01*
G01X200777Y22551D02*
X216525D01*
Y307D01*
X200777D01*
Y22551D01*
G01X196200Y272834D02*
Y259434D01*
X203700D01*
Y272834D01*
X196200D01*
G01X198701Y381165D02*
X196339D01*
Y352425D01*
X198701D01*
G01X197315Y387315D02*
X236685D01*
Y426685D01*
X197315D01*
Y387315D01*
G01X190000Y408913D02*
X192362Y406551D01*
X187638D01*
X190000Y408913D01*
G01Y411669D02*
Y402614D01*
G01X192362Y408913D02*
X187638D01*
G01X193378Y435740D02*
X240622D01*
G01X193378Y439677D02*
X240622D01*
G01X197315Y426685D02*
X189441D01*
Y435740D01*
X193378D01*
Y455425D01*
X199284D01*
Y485740D01*
X197315D01*
Y487709D01*
X199284D01*
Y502669D01*
X234716D01*
Y487709D01*
X236685D01*
Y485740D01*
X234716D01*
Y455425D01*
X240622D01*
Y435740D01*
X244559D01*
Y426685D01*
X236685D01*
G01X193378Y443614D02*
X240622D01*
G01X193378Y447551D02*
X240622D01*
G01X193378Y451488D02*
X240622D01*
G01X193378Y455425D02*
X240622D01*
G01X206387Y307D02*
Y-9339D01*
X210915D01*
Y307D01*
G01X217815Y259157D02*
Y278842D01*
X232185D01*
Y259157D01*
X217815D01*
G01X208166Y281200D02*
X221566D01*
Y288700D01*
X208166D01*
Y281200D01*
G01X218331Y295256D02*
X226992D01*
G01X217528Y320854D02*
Y340146D01*
X229732D01*
Y320854D01*
X217528D01*
G01X218331Y307067D02*
X226992D01*
G01X211166Y341200D02*
X224566D01*
Y348700D01*
X211166D01*
Y341200D01*
G01X211299Y381165D02*
X213661D01*
Y352425D01*
X211299D01*
G01X205189Y435740D02*
Y426685D01*
G01X236834Y288800D02*
X223434D01*
Y281300D01*
X236834D01*
Y288800D01*
G01X221166Y312200D02*
X234566D01*
Y319700D01*
X221166D01*
Y312200D01*
G01X236166Y341200D02*
X249566D01*
Y348700D01*
X236166D01*
Y341200D01*
G01X235669Y373146D02*
Y353854D01*
X223071D01*
Y373146D01*
X235669D01*
G01X225118Y375244D02*
Y380756D01*
G01X224331Y375244D02*
Y380756D01*
G01X229843Y375244D02*
X223543D01*
Y380756D01*
X229843D01*
G01X228811Y435740D02*
Y426685D01*
G01X271811Y69701D02*
X248189D01*
G01X271811Y82299D02*
X248189D01*
G01X250354Y107528D02*
Y98472D01*
G01X274780Y150126D02*
Y144220D01*
X247220D01*
Y150126D01*
G01X274780Y165874D02*
Y171780D01*
X247220D01*
Y165874D01*
G01X257756Y172850D02*
X252244D01*
G01X257756Y179150D02*
X252244D01*
G01X251200Y277834D02*
Y264434D01*
X258700D01*
Y277834D01*
X251200D01*
G01X240166Y279200D02*
X253566D01*
Y286700D01*
X240166D01*
Y279200D01*
G01X247150Y419150D02*
X249118Y417181D01*
Y395134D01*
X238882D01*
Y417181D01*
X240850Y419150D01*
X247150D01*
G01X244000Y408913D02*
X246362Y406551D01*
X241638D01*
X244000Y408913D01*
G01Y411669D02*
Y402614D01*
G01X246362Y408913D02*
X241638D01*
G01X269646Y107528D02*
Y98472D01*
G01X263850Y118850D02*
X261882Y120819D01*
Y142866D01*
X272118D01*
Y120819D01*
X270150Y118850D01*
X263850D01*
G01X267000Y129087D02*
X264638Y131449D01*
X269362D01*
X267000Y129087D01*
G01X264638D02*
X269362D01*
G01X267000Y126331D02*
Y135386D01*
G01X257300Y188200D02*
X270700D01*
Y195700D01*
X257300D01*
Y188200D01*
G01X253354Y216299D02*
X272646D01*
Y203701D01*
X253354D01*
Y216299D01*
G01X259300Y225200D02*
X272700D01*
Y232700D01*
X259300D01*
Y225200D01*
G01X266200Y272834D02*
Y259434D01*
X273700D01*
Y272834D01*
X266200D01*
G01X268701Y381165D02*
X266339D01*
Y352425D01*
X268701D01*
G01X267315Y387315D02*
X306685D01*
Y426685D01*
X267315D01*
Y387315D01*
G01X263150Y419150D02*
X265118Y417181D01*
Y395134D01*
X254882D01*
Y417181D01*
X256850Y419150D01*
X263150D01*
G01X260000Y408913D02*
X262362Y406551D01*
X257638D01*
X260000Y408913D01*
G01Y411669D02*
Y402614D01*
G01X262362Y408913D02*
X257638D01*
G01X263378Y435740D02*
X310622D01*
G01X263378Y439677D02*
X310622D01*
G01X267315Y426685D02*
X259441D01*
Y435740D01*
X263378D01*
Y455425D01*
X269284D01*
Y485740D01*
X267315D01*
Y487709D01*
X269284D01*
Y502669D01*
X304716D01*
Y487709D01*
X306685D01*
Y485740D01*
X304716D01*
Y455425D01*
X310622D01*
Y435740D01*
X314559D01*
Y426685D01*
X306685D01*
G01X263378Y443614D02*
X310622D01*
G01X263378Y447551D02*
X310622D01*
G01X263378Y451488D02*
X310622D01*
G01X263378Y455425D02*
X310622D01*
G01X288528Y10457D02*
X284591D01*
Y17543D01*
X288528D01*
G01Y45551D02*
X284591D01*
Y52638D01*
X288528D01*
G01X307811Y69701D02*
X284189D01*
G01X307811Y82299D02*
X284189D01*
G01X286354Y107528D02*
Y98472D01*
G01X310780Y150126D02*
Y144220D01*
X283220D01*
Y150126D01*
G01X310780Y165874D02*
Y171780D01*
X283220D01*
Y165874D01*
G01X281300Y188200D02*
X294700D01*
Y195700D01*
X281300D01*
Y188200D01*
G01X275354Y216299D02*
X294646D01*
Y203701D01*
X275354D01*
Y216299D01*
G01X283300Y225200D02*
X296700D01*
Y232700D01*
X283300D01*
Y225200D01*
G01X278166Y281200D02*
X291566D01*
Y288700D01*
X278166D01*
Y281200D01*
G01X281166Y341200D02*
X294566D01*
Y348700D01*
X281166D01*
Y341200D01*
G01X281299Y381165D02*
X283661D01*
Y352425D01*
X281299D01*
G01X275189Y435740D02*
Y426685D01*
G01X290949Y27091D02*
X288587D01*
Y909D01*
X290949D01*
G01X296461D02*
X317602D01*
Y27091D01*
X296461D01*
G01X296441Y30039D02*
X317583D01*
G01X290949Y68091D02*
X288587D01*
Y30098D01*
X290949D01*
G01X296461Y68091D02*
X317602D01*
Y30098D01*
G01X299850Y118850D02*
X297882Y120819D01*
Y142866D01*
X308118D01*
Y120819D01*
X306150Y118850D01*
X299850D01*
G01X303000Y129087D02*
X300638Y131449D01*
X305362D01*
X303000Y129087D01*
G01X300638D02*
X305362D01*
G01X303000Y126331D02*
Y135386D01*
G01X305654Y172850D02*
X300142D01*
G01X305654Y179150D02*
X300142D01*
G01X297354Y216299D02*
X316646D01*
Y203701D01*
X297354D01*
Y216299D01*
G01X303300Y231200D02*
X316700D01*
Y238700D01*
X303300D01*
Y231200D01*
G01X287815Y259157D02*
Y278842D01*
X302185D01*
Y259157D01*
X287815D01*
G01X306834Y288800D02*
X293434D01*
Y281300D01*
X306834D01*
Y288800D01*
G01X288331Y295256D02*
X296992D01*
G01X291166Y312200D02*
X304566D01*
Y319700D01*
X291166D01*
Y312200D01*
G01X287528Y320854D02*
Y340146D01*
X299732D01*
Y320854D01*
X287528D01*
G01X288331Y307067D02*
X296992D01*
G01X305669Y373146D02*
Y353854D01*
X293071D01*
Y373146D01*
X305669D01*
G01X295118Y375244D02*
Y380756D01*
G01X294331Y375244D02*
Y380756D01*
G01X299842Y375244D02*
X293543D01*
Y380756D01*
X299842D01*
G01X298811Y435740D02*
Y426685D01*
G01X317661Y7701D02*
X320024D01*
Y11244D01*
X317661D01*
G01Y17150D02*
X320024D01*
Y20693D01*
X317661D01*
G01Y42795D02*
X320024D01*
Y46339D01*
X317661D01*
G01Y52244D02*
X320024D01*
Y55787D01*
X317661D01*
G01X343811Y69701D02*
X320189D01*
G01X343811Y82299D02*
X320189D01*
G01X305646Y107528D02*
Y98472D01*
G01X346780Y150126D02*
Y144220D01*
X319220D01*
Y150126D01*
G01X346780Y165874D02*
Y171780D01*
X319220D01*
Y165874D01*
G01X319354Y216299D02*
X338646D01*
Y203701D01*
X319354D01*
Y216299D01*
G01X321200Y277834D02*
Y264434D01*
X328700D01*
Y277834D01*
X321200D01*
G01X310166Y279200D02*
X323566D01*
Y286700D01*
X310166D01*
Y279200D01*
G01X306166Y341200D02*
X319566D01*
Y348700D01*
X306166D01*
Y341200D01*
G01X317150Y419150D02*
X319118Y417181D01*
Y395134D01*
X308882D01*
Y417181D01*
X310850Y419150D01*
X317150D01*
G01X314000Y408913D02*
X316362Y406551D01*
X311638D01*
X314000Y408913D01*
G01Y411669D02*
Y402614D01*
G01X316362Y408913D02*
X311638D01*
G01X322354Y107528D02*
Y98472D01*
G01X335850Y118850D02*
X333882Y120819D01*
Y142866D01*
X344118D01*
Y120819D01*
X342150Y118850D01*
X335850D01*
G01X339000Y129087D02*
X336638Y131449D01*
X341362D01*
X339000Y129087D01*
G01X336638D02*
X341362D01*
G01X329756Y172850D02*
X324244D01*
G01X329756Y179150D02*
X324244D01*
G01X325300Y231200D02*
X338700D01*
Y238700D01*
X325300D01*
Y231200D01*
G01X333654Y325449D02*
Y314032D01*
X331291D01*
Y325449D01*
X333654D01*
G01X335291Y339315D02*
Y328685D01*
G01X332256Y355866D02*
Y346811D01*
G01X336291Y375315D02*
Y364685D01*
G01X376685Y394362D02*
G03I-19685J0D01*
G01X331409Y435307D02*
X382591D01*
Y482551D01*
G03X380228Y484913I-2362J0D01*
G01X333772D01*
G03X331409Y482551I0J-2362D01*
G01Y435307D01*
X327472D01*
Y429795D01*
X331409D01*
Y421921D01*
X382591D01*
Y429795D01*
X386528D01*
Y435307D01*
X382591D01*
G01Y429795D02*
X331409D01*
G01X341646Y107528D02*
Y98472D01*
G01X360150Y89032D02*
X353850D01*
G01X360150Y88244D02*
X353850D01*
G01X360150Y87457D02*
X353850D01*
G01Y85685D02*
Y96315D01*
G01X353200Y114700D02*
Y101300D01*
X360700D01*
Y114700D01*
X353200D01*
G01X339000Y126331D02*
Y135386D01*
G01X341354Y216299D02*
X360646D01*
Y203701D01*
X341354D01*
Y216299D01*
G01X347300Y231200D02*
X360700D01*
Y238700D01*
X347300D01*
Y231200D01*
G01X352535Y261854D02*
X356472Y265791D01*
G01X353323Y261854D02*
X356472Y265004D01*
G01X354110Y261854D02*
X356472Y264216D01*
G01X354898Y261854D02*
X356472Y263429D01*
G01X355685Y261854D02*
X356472Y262642D01*
G01Y281146D02*
Y261854D01*
X344661D01*
Y281146D01*
X356472D01*
G01X356669Y303146D02*
Y283854D01*
X344071D01*
Y303146D01*
X356669D01*
G01X344835Y318299D02*
X368457D01*
G01X344835Y305701D02*
X368457D01*
G01X344067Y355866D02*
Y346811D01*
G01X351882Y413260D02*
Y421921D01*
G01X346370Y410898D02*
Y421921D01*
G01X361189Y82299D02*
X384811D01*
G01X361189Y69701D02*
X384811D01*
G01X363256Y107866D02*
Y98811D01*
G01X360150Y85685D02*
Y96315D01*
G01X357220Y122126D02*
Y116220D01*
X384780D01*
Y122126D01*
G01X357220Y152126D02*
Y146220D01*
X384780D01*
Y152126D01*
G01X357220Y137874D02*
Y143780D01*
X384780D01*
Y137874D01*
G01X357220Y167874D02*
Y173780D01*
X384780D01*
Y167874D01*
G01X371300Y175200D02*
X384700D01*
Y182700D01*
X371300D01*
Y175200D01*
G01X376709Y208016D02*
X365291D01*
Y209984D01*
X376709D01*
Y208016D01*
G01X364166Y224200D02*
X377566D01*
Y231700D01*
X364166D01*
Y224200D01*
G01X357248Y340551D02*
Y351968D01*
X359807D01*
Y340551D01*
X357248D01*
G01Y353551D02*
Y364968D01*
X359807D01*
Y353551D01*
X357248D01*
G01X362118Y413260D02*
Y421921D01*
G01X367630Y410898D02*
Y421921D01*
G01X375067Y107866D02*
Y98811D01*
G54D15*
G01X6627Y240260D02*
X7097Y239525D01*
X7723Y239105D01*
X8428Y239000D01*
X9055Y239105D01*
X9682Y239630D01*
X10073Y240260D01*
X10152Y240890D01*
X9995Y241625D01*
X9447Y242150D01*
X8898Y242360D01*
X8193D01*
G01X8898D02*
X9368Y242675D01*
X9760Y243200D01*
X9917Y243830D01*
X9760Y244460D01*
X9368Y244985D01*
X8663Y245300D01*
X7958Y245195D01*
X7253Y244775D01*
G01X14650Y238790D02*
X14493Y238895D01*
Y239105D01*
X14650Y239210D01*
X14807Y239105D01*
Y238895D01*
X14650Y238790D01*
G01X19227Y240260D02*
X19697Y239525D01*
X20323Y239105D01*
X21028Y239000D01*
X21655Y239105D01*
X22282Y239630D01*
X22673Y240260D01*
X22752Y240890D01*
X22595Y241625D01*
X22047Y242150D01*
X21498Y242360D01*
X20793D01*
G01X21498D02*
X21968Y242675D01*
X22360Y243200D01*
X22517Y243830D01*
X22360Y244460D01*
X21968Y244985D01*
X21263Y245300D01*
X20558Y245195D01*
X19853Y244775D01*
G01X25292Y245300D02*
X27250Y239000D01*
X29208Y245300D01*
G01X6627Y271260D02*
X7097Y270525D01*
X7723Y270105D01*
X8428Y270000D01*
X9055Y270105D01*
X9682Y270630D01*
X10073Y271260D01*
X10152Y271890D01*
X9995Y272625D01*
X9447Y273150D01*
X8898Y273360D01*
X8193D01*
G01X8898D02*
X9368Y273675D01*
X9760Y274200D01*
X9917Y274830D01*
X9760Y275460D01*
X9368Y275985D01*
X8663Y276300D01*
X7958Y276195D01*
X7253Y275775D01*
G01X14650Y269790D02*
X14493Y269895D01*
Y270105D01*
X14650Y270210D01*
X14807Y270105D01*
Y269895D01*
X14650Y269790D01*
G01X19227Y271260D02*
X19697Y270525D01*
X20323Y270105D01*
X21028Y270000D01*
X21655Y270105D01*
X22282Y270630D01*
X22673Y271260D01*
X22752Y271890D01*
X22595Y272625D01*
X22047Y273150D01*
X21498Y273360D01*
X20793D01*
G01X21498D02*
X21968Y273675D01*
X22360Y274200D01*
X22517Y274830D01*
X22360Y275460D01*
X21968Y275985D01*
X21263Y276300D01*
X20558Y276195D01*
X19853Y275775D01*
G01X25292Y276300D02*
X27250Y270000D01*
X29208Y276300D01*
G01X13332Y328100D02*
X15368D01*
G01X18927Y326945D02*
X19397Y326420D01*
X19945Y326105D01*
X20650Y326000D01*
X21355Y326210D01*
X21903Y326630D01*
X22295Y327365D01*
X22373Y328205D01*
X22217Y329045D01*
X21825Y329570D01*
X21277Y329990D01*
X20728Y330095D01*
X20180Y329990D01*
X19475Y329570D01*
X19710Y332300D01*
X21825D01*
G01X24992D02*
X26950Y326000D01*
X28908Y332300D01*
G01X12862Y371250D02*
X13332Y371880D01*
X13880Y372195D01*
X14507Y372300D01*
X15290Y372090D01*
X15838Y371565D01*
X15995Y370935D01*
X15917Y370305D01*
X15603Y369780D01*
X14037Y368730D01*
X13332Y367995D01*
X12862Y366945D01*
X12705Y366000D01*
X15995D01*
G01X20650Y372300D02*
X20023Y372090D01*
X19553Y371565D01*
X19240Y370935D01*
X19005Y370095D01*
X18927Y369150D01*
X19005Y368205D01*
X19240Y367365D01*
X19553Y366735D01*
X20023Y366210D01*
X20650Y366000D01*
X21277Y366210D01*
X21747Y366735D01*
X22060Y367365D01*
X22295Y368205D01*
X22373Y369150D01*
X22295Y370095D01*
X22060Y370935D01*
X21747Y371565D01*
X21277Y372090D01*
X20650Y372300D01*
G01X24992D02*
X26950Y366000D01*
X28908Y372300D01*
G01X18627Y253945D02*
X19097Y253420D01*
X19645Y253105D01*
X20350Y253000D01*
X21055Y253210D01*
X21603Y253630D01*
X21995Y254365D01*
X22073Y255205D01*
X21917Y256045D01*
X21525Y256570D01*
X20977Y256990D01*
X20428Y257095D01*
X19880Y256990D01*
X19175Y256570D01*
X19410Y259300D01*
X21525D01*
G01X24692D02*
X26650Y253000D01*
X28608Y259300D01*
G01X18627Y293945D02*
X19097Y293420D01*
X19645Y293105D01*
X20350Y293000D01*
X21055Y293210D01*
X21603Y293630D01*
X21995Y294365D01*
X22073Y295205D01*
X21917Y296045D01*
X21525Y296570D01*
X20977Y296990D01*
X20428Y297095D01*
X19880Y296990D01*
X19175Y296570D01*
X19410Y299300D01*
X21525D01*
G01X24692D02*
X26650Y293000D01*
X28608Y299300D01*
G01X129627Y33260D02*
X130097Y32525D01*
X130723Y32105D01*
X131428Y32000D01*
X132055Y32105D01*
X132682Y32630D01*
X133073Y33260D01*
X133152Y33890D01*
X132995Y34625D01*
X132447Y35150D01*
X131898Y35360D01*
X131193D01*
G01X131898D02*
X132368Y35675D01*
X132760Y36200D01*
X132917Y36830D01*
X132760Y37460D01*
X132368Y37985D01*
X131663Y38300D01*
X130958Y38195D01*
X130253Y37775D01*
G01X137650Y31790D02*
X137493Y31895D01*
Y32105D01*
X137650Y32210D01*
X137807Y32105D01*
Y31895D01*
X137650Y31790D01*
G01X142227Y33260D02*
X142697Y32525D01*
X143323Y32105D01*
X144028Y32000D01*
X144655Y32105D01*
X145282Y32630D01*
X145673Y33260D01*
X145752Y33890D01*
X145595Y34625D01*
X145047Y35150D01*
X144498Y35360D01*
X143793D01*
G01X144498D02*
X144968Y35675D01*
X145360Y36200D01*
X145517Y36830D01*
X145360Y37460D01*
X144968Y37985D01*
X144263Y38300D01*
X143558Y38195D01*
X142853Y37775D01*
G01X148292Y38300D02*
X150250Y32000D01*
X152208Y38300D01*
G54D16*
G01X50165Y105874D02*
G03I-984J0D01*
G01X82736Y274906D02*
G03I-984J0D01*
G01X98197Y225224D02*
G03I-984J0D01*
G01X92716Y357791D02*
G03I-984J0D01*
G01X152736Y274906D02*
G03I-984J0D01*
G01X162716Y357791D02*
G03I-984J0D01*
G01X207787Y199126D02*
G03I-984J0D01*
G01X222736Y274906D02*
G03I-984J0D01*
G01X232716Y357791D02*
G03I-984J0D01*
G01X269693Y212362D02*
G03I-984J0D01*
G01X291693D02*
G03I-984J0D01*
G01X292736Y274906D02*
G03I-984J0D01*
G01X302716Y357791D02*
G03I-984J0D01*
G01X313693Y212362D02*
G03I-984J0D01*
G01X335693D02*
G03I-984J0D01*
G01X357693D02*
G03I-984J0D01*
G01X353716Y287791D02*
G03I-984J0D01*
M02*
