G04 ================== begin FILE IDENTIFICATION RECORD ==================*
G04 Layout Name:  E:/material/lool Inds Vibration/hardware/v1.0/pcb/vibration.brd*
G04 Film Name:    SOLDERMASK_BOTTOM*
G04 File Format:  Gerber RS274X*
G04 File Origin:  Cadence Allegro 16.6-2015-S065*
G04 Origin Date:  Fri May 06 18:24:12 2016*
G04 *
G04 Layer:  VIA CLASS/SOLDERMASK_BOTTOM*
G04 Layer:  PIN/SOLDERMASK_BOTTOM*
G04 Layer:  BOARD GEOMETRY/SOLDERMASK_BOTTOM*
G04 *
G04 Offset:    (0.000 0.000)*
G04 Mirror:    No*
G04 Mode:      Positive*
G04 Rotation:  0*
G04 FullContactRelief:  No*
G04 UndefLineWidth:     1.000*
G04 ================== end FILE IDENTIFICATION RECORD ====================*
%FSLAX25Y25*MOIN*%
%IR0*IPPOS*OFA0.00000B0.00000*MIA0B0*SFA1.00000B1.00000*%
%ADD12C,.138189*%
%ADD10C,.251969*%
%ADD11P,.063921X8X22.5*%
%ADD24R,.02126X.035433*%
%ADD17R,.035433X.02126*%
%ADD14C,.059055*%
%ADD20C,.033858*%
%ADD13C,.070866*%
%ADD23C,.098425*%
%ADD18C,.062992*%
%ADD22C,.039764*%
%ADD19R,.059055X.059055*%
%ADD16C,.094488*%
%ADD15R,.070866X.070866*%
%ADD21R,.062992X.062992*%
G75*
%LPD*%
G75*
G36*
G01X-2000Y68000D02*
Y-4000D01*
X7000D01*
Y68000D01*
X-2000D01*
G37*
G36*
G01Y430000D02*
Y146000D01*
X7000D01*
Y430000D01*
X-2000D01*
G37*
G36*
G01X437000Y-3000D02*
Y236000D01*
X427000D01*
Y-3000D01*
X437000D01*
G37*
G36*
G01Y284000D02*
Y432000D01*
X427000D01*
Y284000D01*
X437000D01*
G37*
G54D10*
X20000Y20000D03*
Y407000D03*
X414000Y20000D03*
Y407000D03*
G54D20*
X208651Y5524D03*
Y17335D03*
G54D11*
X44437Y12929D03*
X96602D03*
G54D21*
X225000Y68000D03*
G54D12*
X48472Y32220D03*
X92016D03*
G54D22*
X293488Y2189D03*
Y25811D03*
Y31378D03*
Y66811D03*
G54D13*
X38945Y43835D03*
X68000Y66000D03*
X58000D03*
X63000Y56000D03*
X78000Y66000D03*
X83000Y56000D03*
X73000D03*
X101937Y43835D03*
X88000Y66000D03*
G54D23*
X349520Y390043D03*
X357000Y403000D03*
X364480Y390043D03*
G54D14*
X54437Y12929D03*
X86602D03*
X178000Y23654D03*
Y33654D03*
Y43654D03*
X297189Y14000D03*
Y43189D03*
Y55000D03*
X309000Y43189D03*
G54D15*
X53000Y56000D03*
G54D24*
X362016Y339000D03*
X368000D03*
G54D16*
X61055Y391055D03*
Y422945D03*
X77000Y407000D03*
X92945Y391055D03*
Y422945D03*
X131055Y391055D03*
Y422945D03*
X147000Y407000D03*
X162945Y391055D03*
Y422945D03*
X201055Y391055D03*
Y422945D03*
X217000Y407000D03*
X232945Y391055D03*
Y422945D03*
X271055Y391055D03*
Y422945D03*
X287000Y407000D03*
X302945Y391055D03*
Y422945D03*
G54D17*
X82000Y81000D03*
Y86984D03*
X95000Y81000D03*
Y86984D03*
X130300Y118616D03*
Y124600D03*
G54D18*
X135000Y58000D03*
Y68000D03*
X145000Y58000D03*
Y68000D03*
X155000Y58000D03*
Y68000D03*
X165000Y58000D03*
Y68000D03*
X175000Y58000D03*
Y68000D03*
X185000Y58000D03*
Y68000D03*
X195000Y58000D03*
Y68000D03*
X205000Y58000D03*
Y68000D03*
X215000Y58000D03*
Y68000D03*
X225000Y58000D03*
G54D19*
X188000Y23654D03*
Y33654D03*
Y43654D03*
X309000Y14000D03*
Y55000D03*
M02*
