G04 ================== begin FILE IDENTIFICATION RECORD ==================*
G04 Layout Name:  E:/material/lool Inds Vibration/hardware/v1.0/pcb/vibration.brd*
G04 Film Name:    SOLDERMASK_TOP*
G04 File Format:  Gerber RS274X*
G04 File Origin:  Cadence Allegro 16.6-2015-S065*
G04 Origin Date:  Wed Jun 08 16:00:27 2016*
G04 *
G04 Layer:  VIA CLASS/SOLDERMASK_TOP*
G04 Layer:  PIN/SOLDERMASK_TOP*
G04 Layer:  BOARD GEOMETRY/SOLDERMASK_TOP*
G04 *
G04 Offset:    (0.000 0.000)*
G04 Mirror:    No*
G04 Mode:      Positive*
G04 Rotation:  0*
G04 FullContactRelief:  No*
G04 UndefLineWidth:     1.000*
G04 ================== end FILE IDENTIFICATION RECORD ====================*
%FSLAX25Y25*MOIN*%
%IR0*IPPOS*OFA0.00000B0.00000*MIA0B0*SFA1.00000B1.00000*%
%ADD27R,.062992X.062992*%
%ADD41R,.03937X.068898*%
%ADD10C,.251969*%
%ADD40R,.07874X.127953*%
%ADD33R,.094488X.135827*%
%ADD17P,.063921X8X22.5*%
%ADD44R,.023622X.061024*%
%ADD31R,.061024X.023622*%
%ADD15R,.02126X.035433*%
%ADD11R,.035433X.02126*%
%ADD21C,.035433*%
%ADD52O,.021654X.049213*%
%ADD49O,.017717X.05315*%
%ADD20R,.021654X.051181*%
%ADD45R,.041339X.023622*%
%ADD24R,.011811X.059055*%
%ADD19R,.059055X.011811*%
%ADD32R,.061024X.072835*%
%ADD22C,.059055*%
%ADD16R,.03937X.023622*%
%ADD12R,.055118X.043307*%
%ADD43R,.135827X.100394*%
%ADD39R,.090551X.090551*%
%ADD35R,.043307X.031496*%
%ADD18C,.070866*%
%ADD50C,.098425*%
%ADD37R,.033465X.033465*%
%ADD34C,.062992*%
%ADD13R,.086614X.037402*%
%ADD42R,.023622X.076772*%
%ADD36R,.059055X.059055*%
%ADD29R,.029528X.055118*%
%ADD46R,.070866X.090551*%
%ADD26C,.094488*%
%ADD14R,.055118X.029528*%
%ADD28R,.059055X.017717*%
%ADD23R,.070866X.070866*%
%ADD47R,.064961X.025591*%
%ADD38R,.062992X.062992*%
%ADD25R,.098425X.090551*%
%ADD51R,.029528X.045276*%
%ADD30R,.057087X.017717*%
%ADD48R,.072835X.064961*%
G75*
%LPD*%
G75*
G36*
G01X7000Y-4000D02*
Y68000D01*
X-2000D01*
Y-4000D01*
X7000D01*
G37*
G36*
G01X-2000Y430000D02*
Y146000D01*
X7000D01*
Y430000D01*
X-2000D01*
G37*
G36*
G01X437000Y236000D02*
Y-3000D01*
X427000D01*
Y236000D01*
X437000D01*
G37*
G36*
G01Y432000D02*
Y284000D01*
X427000D01*
Y432000D01*
X437000D01*
G37*
G54D10*
X20000Y20000D03*
Y407000D03*
X414000Y20000D03*
Y407000D03*
G54D20*
X44457Y188118D03*
X41307D03*
X38157D03*
X35008D03*
X31858D03*
Y233000D03*
X35008D03*
X38157D03*
X41307D03*
X44457D03*
X60205Y188118D03*
X57055D03*
X53905D03*
X50756D03*
X47606D03*
Y233000D03*
X50756D03*
X53905D03*
X57055D03*
X60205D03*
X75953Y188118D03*
X72803D03*
X69654D03*
X66504D03*
X63354D03*
Y233000D03*
X66504D03*
X69654D03*
X72803D03*
X75953D03*
X94850Y188118D03*
X91701D03*
X88551D03*
X85402D03*
X82252D03*
X79102D03*
Y233000D03*
X82252D03*
X85402D03*
X88551D03*
X91701D03*
X94850D03*
X98000Y188118D03*
Y233000D03*
G54D11*
X8000Y81016D03*
Y87000D03*
X26000Y112984D03*
Y107000D03*
X35000Y69984D03*
Y64000D03*
X45000Y86984D03*
Y81000D03*
X40000Y86984D03*
Y81000D03*
X60000Y86984D03*
Y81000D03*
X50000Y86984D03*
Y81000D03*
X55000Y86984D03*
Y81000D03*
X61000Y171016D03*
Y177000D03*
X54000Y171016D03*
Y177000D03*
X60000Y296984D03*
Y291000D03*
Y306984D03*
Y301000D03*
Y332000D03*
Y322016D03*
Y328000D03*
Y337984D03*
X65000Y86984D03*
Y81000D03*
X70000Y86984D03*
Y81000D03*
X75000Y86984D03*
Y81000D03*
X68000Y171016D03*
Y177000D03*
X75000Y171016D03*
Y177000D03*
X67000Y241016D03*
Y247000D03*
Y261016D03*
Y267000D03*
Y276984D03*
Y271000D03*
X65000Y296984D03*
Y291000D03*
Y306984D03*
Y301000D03*
X66000Y327984D03*
Y322000D03*
Y332000D03*
Y337984D03*
X85000Y86984D03*
Y81000D03*
X90000Y86984D03*
Y81000D03*
X95000Y86984D03*
Y81000D03*
X80000Y86984D03*
Y81000D03*
X82000Y171016D03*
Y177000D03*
X106000Y69984D03*
Y64000D03*
X100000Y86992D03*
Y81008D03*
X105000Y296984D03*
Y291000D03*
X100000Y296984D03*
Y291000D03*
X105000Y306984D03*
Y301000D03*
X100000Y306984D03*
Y301000D03*
X103000Y322016D03*
Y328000D03*
X108000Y332016D03*
Y322016D03*
Y328000D03*
X103000Y332000D03*
X108000Y338000D03*
X103000Y337984D03*
X107000Y366016D03*
Y361984D03*
Y356000D03*
Y372000D03*
X130000Y296984D03*
Y291000D03*
Y306984D03*
Y301000D03*
Y332000D03*
Y322016D03*
Y328000D03*
Y337984D03*
X132000Y81016D03*
Y87000D03*
X145000Y105016D03*
Y111000D03*
X140000Y105016D03*
Y111000D03*
X137000Y261016D03*
Y267000D03*
Y276984D03*
Y271000D03*
X135000Y296984D03*
Y291000D03*
Y306984D03*
Y301000D03*
X136000Y327984D03*
Y322000D03*
Y332000D03*
Y337984D03*
X155000Y81016D03*
Y87000D03*
X160000Y110984D03*
Y105000D03*
X151600Y215816D03*
Y221800D03*
Y225816D03*
Y231800D03*
X169000Y25992D03*
Y20008D03*
Y35992D03*
Y30008D03*
Y40008D03*
Y45992D03*
X165000Y86984D03*
Y81000D03*
X181000Y110984D03*
Y105000D03*
X175600Y215816D03*
Y221800D03*
Y225816D03*
Y231800D03*
X170000Y296984D03*
Y291000D03*
X175000Y296984D03*
Y291000D03*
Y306984D03*
Y301000D03*
X170000Y306984D03*
Y301000D03*
X178000Y332016D03*
X173000Y322016D03*
Y328000D03*
X178000Y322016D03*
Y328000D03*
X173000Y332000D03*
X178000Y338000D03*
X173000Y337984D03*
X177000Y366016D03*
Y361984D03*
Y356000D03*
Y372000D03*
X195000Y86984D03*
Y81000D03*
X185000Y86984D03*
Y81000D03*
X193000Y216016D03*
Y222000D03*
X215000Y86984D03*
Y81000D03*
X205000Y86984D03*
Y81000D03*
X208000Y110984D03*
Y105000D03*
X203000Y110984D03*
Y105000D03*
X207000Y261016D03*
Y267000D03*
Y276984D03*
Y271000D03*
X205000Y296984D03*
Y291000D03*
X200000Y296984D03*
Y291000D03*
Y306984D03*
Y301000D03*
X205000Y306984D03*
Y301000D03*
X206000Y327984D03*
Y322000D03*
X200000Y332000D03*
Y322016D03*
Y328000D03*
X206000Y332000D03*
X200000Y337984D03*
X206000D03*
X245000Y296984D03*
Y291000D03*
X240000Y296984D03*
Y291000D03*
X245000Y306984D03*
Y301000D03*
X240000Y306984D03*
Y301000D03*
X243000Y322016D03*
Y328000D03*
X248000Y332016D03*
Y322016D03*
Y328000D03*
X243000Y332000D03*
X248000Y338000D03*
X243000Y337984D03*
X247000Y366016D03*
Y361984D03*
Y356000D03*
Y372000D03*
X258000Y130008D03*
X252000Y130016D03*
Y125992D03*
Y120008D03*
X258000D03*
Y125992D03*
Y135992D03*
X252000Y136000D03*
X277000Y261016D03*
Y267000D03*
Y276984D03*
Y271000D03*
X275000Y296984D03*
Y291000D03*
X270000Y296984D03*
Y291000D03*
Y306984D03*
Y301000D03*
X275000Y306984D03*
Y301000D03*
X276000Y327984D03*
Y322000D03*
X270000Y332000D03*
Y322016D03*
Y328000D03*
X276000Y332000D03*
X270000Y337984D03*
X276000D03*
X294000Y130008D03*
X288000Y130016D03*
Y125984D03*
Y120000D03*
X294000Y120008D03*
Y125992D03*
Y135992D03*
X288000Y136000D03*
X315000Y296984D03*
Y291000D03*
X310000Y296984D03*
Y291000D03*
X315000Y306984D03*
Y301000D03*
X310000Y306984D03*
Y301000D03*
X313000Y322016D03*
Y328000D03*
X318000Y332016D03*
Y322016D03*
Y328000D03*
X313000Y332000D03*
X318000Y338000D03*
X313000Y337984D03*
X317000Y366016D03*
Y361984D03*
Y356000D03*
Y372000D03*
X322000Y33016D03*
Y39000D03*
X330000Y130008D03*
X324500D03*
Y125992D03*
Y120008D03*
X330000D03*
Y125992D03*
Y135992D03*
X324500D03*
X334000Y264016D03*
Y270000D03*
X333000Y295016D03*
Y290984D03*
Y285000D03*
Y301000D03*
X329000Y348984D03*
Y343000D03*
Y359984D03*
Y354000D03*
X348000Y343016D03*
Y349000D03*
X368000Y263000D03*
Y273016D03*
Y279000D03*
Y268984D03*
Y290984D03*
Y285000D03*
Y295016D03*
Y301000D03*
Y349984D03*
Y344000D03*
Y359984D03*
Y354000D03*
X381000Y211984D03*
Y206000D03*
G54D30*
X74000Y297323D03*
Y299882D03*
Y302441D03*
Y305000D03*
X91323Y299882D03*
Y297323D03*
Y305000D03*
Y302441D03*
X144000Y297323D03*
Y299882D03*
Y302441D03*
Y305000D03*
X161323Y299882D03*
Y297323D03*
Y305000D03*
Y302441D03*
X214000Y297323D03*
Y299882D03*
Y302441D03*
Y305000D03*
X231323Y299882D03*
Y297323D03*
Y305000D03*
Y302441D03*
X284000Y297323D03*
Y299882D03*
Y302441D03*
Y305000D03*
X301323Y299882D03*
Y297323D03*
Y305000D03*
Y302441D03*
G54D12*
X9000Y110874D03*
Y103000D03*
X18843Y110874D03*
Y103000D03*
X158757Y222926D03*
Y230800D03*
X168600Y222926D03*
Y230800D03*
G54D21*
X34000Y242000D03*
Y256000D03*
Y273000D03*
Y296000D03*
Y329000D03*
Y369000D03*
X79961Y378000D03*
X99961D03*
X157000Y35000D03*
X149961Y378000D03*
X169961D03*
X219961D03*
X239961D03*
X289961D03*
X309961D03*
G54D13*
X24000Y77000D03*
Y86843D03*
X116000Y77000D03*
Y86843D03*
G54D22*
X54437Y12929D03*
X86602D03*
X178000Y23654D03*
Y33654D03*
Y43654D03*
X297189Y14000D03*
Y43189D03*
Y55000D03*
X309000Y43189D03*
G54D31*
X73000Y323000D03*
Y328000D03*
Y333000D03*
Y338000D03*
X78740Y356000D03*
Y361000D03*
Y366000D03*
Y371000D03*
X94260Y333000D03*
Y328000D03*
Y323000D03*
Y338000D03*
X100000Y366000D03*
Y361000D03*
Y356000D03*
Y371000D03*
X143000Y323000D03*
Y328000D03*
Y333000D03*
Y338000D03*
X148740Y356000D03*
Y361000D03*
Y366000D03*
Y371000D03*
X164260Y333000D03*
Y328000D03*
Y323000D03*
Y338000D03*
X170000Y366000D03*
Y361000D03*
Y356000D03*
Y371000D03*
X213000Y323000D03*
Y328000D03*
Y333000D03*
Y338000D03*
X234260Y333000D03*
Y328000D03*
Y323000D03*
Y338000D03*
X218740Y356000D03*
Y361000D03*
Y366000D03*
Y371000D03*
X240000Y366000D03*
Y361000D03*
Y356000D03*
Y371000D03*
X283000Y323000D03*
Y328000D03*
Y333000D03*
Y338000D03*
X288740Y356000D03*
Y361000D03*
Y366000D03*
Y371000D03*
X304260Y333000D03*
Y328000D03*
Y323000D03*
Y338000D03*
X310000Y366000D03*
Y361000D03*
Y356000D03*
Y371000D03*
X339740Y286000D03*
Y291000D03*
Y296000D03*
Y301000D03*
X361000Y296000D03*
Y291000D03*
Y286000D03*
Y301000D03*
G54D40*
X248795Y158000D03*
X273205D03*
X284795D03*
X309205D03*
X320795D03*
X345205D03*
X358795Y130000D03*
Y160000D03*
X383205Y130000D03*
Y160000D03*
G54D23*
X53000Y56000D03*
G54D14*
X15000Y77732D03*
Y86000D03*
X33000Y78000D03*
Y86268D03*
X60000Y262000D03*
Y270268D03*
X107000Y78000D03*
Y86268D03*
X125000Y77732D03*
Y86000D03*
X130000Y262000D03*
Y270268D03*
X115000Y275268D03*
Y267000D03*
X185000Y275268D03*
Y267000D03*
X200000Y262000D03*
Y270268D03*
X255000Y275268D03*
Y267000D03*
X270000Y262000D03*
Y270268D03*
X325000Y275268D03*
Y267000D03*
X357000Y112134D03*
Y103866D03*
G54D50*
X349520Y390043D03*
X357000Y403000D03*
X364480Y390043D03*
G54D32*
X82661Y301161D03*
X152661D03*
X222661D03*
X292661D03*
G54D41*
X248898Y176000D03*
X261102D03*
X296795D03*
X309000D03*
X320898D03*
X333102D03*
G54D51*
X357000Y84110D03*
Y97890D03*
G54D42*
X262500Y93158D03*
X257500D03*
X252500D03*
Y112842D03*
X257500D03*
X262500D03*
X267500Y93158D03*
Y112842D03*
X298500Y93158D03*
X293500D03*
X288500D03*
Y112842D03*
X293500D03*
X298500D03*
X303500Y93158D03*
Y112842D03*
X334500Y93158D03*
X329500D03*
X324500D03*
Y112842D03*
X329500D03*
X334500D03*
X339500Y93158D03*
Y112842D03*
G54D24*
X59811Y98000D03*
X57842D03*
X55874D03*
X53905D03*
X51937D03*
X49968D03*
X48000D03*
Y158630D03*
X49968D03*
X51937D03*
X53905D03*
X55874D03*
X57842D03*
X59811D03*
X77528Y98000D03*
X75559D03*
X73590D03*
X71622D03*
X69654D03*
X67685D03*
X65716D03*
X63748D03*
X61780D03*
Y158630D03*
X63748D03*
X65716D03*
X67685D03*
X69654D03*
X71622D03*
X73590D03*
X75559D03*
X77528D03*
X95244Y98000D03*
X93276D03*
X91307D03*
X89338D03*
X87370D03*
X85402D03*
X83433D03*
X81464D03*
X79496D03*
Y158630D03*
X81464D03*
X83433D03*
X85402D03*
X87370D03*
X89338D03*
X91307D03*
X93276D03*
X95244D03*
X145976Y122748D03*
X144008D03*
X142039D03*
X140071D03*
X138102D03*
Y207000D03*
X140071D03*
X142039D03*
X144008D03*
X145976D03*
X161724Y122748D03*
X159756D03*
X157787D03*
X155819D03*
X153850D03*
X151882D03*
X149913D03*
X147945D03*
Y207000D03*
X149913D03*
X151882D03*
X153850D03*
X155819D03*
X157787D03*
X159756D03*
X161724D03*
X179441Y122748D03*
X177472D03*
X175504D03*
X173536D03*
X171567D03*
X169598D03*
X167630D03*
X165661D03*
X163693D03*
Y207000D03*
X165661D03*
X167630D03*
X169598D03*
X171567D03*
X173536D03*
X175504D03*
X177472D03*
X179441D03*
X197158Y122748D03*
X195189D03*
X193220D03*
X191252D03*
X189284D03*
X187315D03*
X185346D03*
X183378D03*
X181410D03*
Y207000D03*
X183378D03*
X185346D03*
X187315D03*
X189284D03*
X191252D03*
X193220D03*
X195189D03*
X197158D03*
X207000Y122748D03*
X205032D03*
X203063D03*
X201094D03*
X199126D03*
Y207000D03*
X201094D03*
X203063D03*
X205032D03*
X207000D03*
G54D15*
X11016Y96000D03*
X17000D03*
X26984Y118000D03*
X21000D03*
X11016D03*
X17000D03*
X26984Y138000D03*
X21000D03*
X59016Y345000D03*
X73016Y292000D03*
X79000D03*
X78984Y311000D03*
X73000D03*
X73016Y317000D03*
X79000D03*
X65000Y345000D03*
X91984Y292000D03*
X86000D03*
X87016Y344000D03*
X93000D03*
X92984Y350000D03*
X87000D03*
X102008Y260000D03*
X107992D03*
X107984Y270000D03*
X102000D03*
X102016Y275000D03*
X108000D03*
X114016Y104000D03*
X120000D03*
X119984Y129000D03*
X114000D03*
X114016Y124000D03*
X120000D03*
X119984Y134000D03*
X114000D03*
X114016Y144000D03*
X120000D03*
X119984Y150000D03*
X114000D03*
X119984Y178000D03*
X114000D03*
X119984Y170000D03*
X114000D03*
X119984Y185000D03*
X114000D03*
X119984Y190000D03*
X114000D03*
X119984Y195000D03*
X114000D03*
X129016Y345000D03*
X140616Y216800D03*
X146600D03*
X143016Y292000D03*
Y317000D03*
X143000Y311000D03*
X135000Y345000D03*
X159600Y216800D03*
X149000Y292000D03*
X161984D03*
X156000D03*
X149000Y317000D03*
X148984Y311000D03*
X157016Y344000D03*
X163000D03*
X162984Y350000D03*
X157000D03*
X165584Y216800D03*
X172008Y260000D03*
X177992D03*
X172008Y265000D03*
X177992D03*
X177984Y270000D03*
X172000D03*
X172016Y275000D03*
X178000D03*
X211984Y26000D03*
X206000D03*
X206016Y32000D03*
X212000D03*
X213016Y292000D03*
Y317000D03*
X213000Y311000D03*
X199016Y345000D03*
X205000D03*
X224016Y154000D03*
X230000D03*
X224016Y174000D03*
X230000D03*
X224016Y188000D03*
X230000D03*
X224016Y199000D03*
X230000D03*
X219000Y292000D03*
X231984D03*
X226000D03*
X219000Y317000D03*
X218984Y311000D03*
X227016Y344000D03*
X227000Y350000D03*
X249008Y192000D03*
X249000Y183000D03*
X242008Y260000D03*
X247992D03*
X247984Y270000D03*
X242000D03*
X242016Y275000D03*
X248000D03*
X233000Y344000D03*
X232984Y350000D03*
X252008Y86000D03*
X257992D03*
X266016D03*
X254992Y192000D03*
X254984Y183000D03*
X251008Y228000D03*
X256992D03*
X272000Y86000D03*
X273008Y192000D03*
X278992D03*
X275008Y228000D03*
X280992D03*
X283016Y292000D03*
Y317000D03*
X283000Y311000D03*
X269016Y345000D03*
X275000D03*
X288008Y86000D03*
X293992D03*
X299016Y192000D03*
X297000Y183000D03*
X299008Y228000D03*
X289000Y292000D03*
X296000D03*
X289000Y317000D03*
X288984Y311000D03*
X297000Y350000D03*
X297016Y344000D03*
X302016Y86000D03*
X308000D03*
X305000Y192000D03*
X314984D03*
X309000D03*
X302984Y183000D03*
X309008Y228000D03*
X314992D03*
X304992D03*
X312008Y260000D03*
Y265000D03*
X312000Y270000D03*
X312016Y275000D03*
X301984Y292000D03*
X302984Y350000D03*
X303000Y344000D03*
X324008Y86000D03*
X329992D03*
X321016Y192000D03*
X327000D03*
X331000D03*
X331008Y228000D03*
X321008D03*
X326992D03*
X317992Y260000D03*
Y265000D03*
X317984Y270000D03*
X318000Y275000D03*
X333000Y308000D03*
X338016Y86000D03*
X344000D03*
X338008Y176000D03*
X343992D03*
X336984Y192000D03*
X343016D03*
X349000D03*
X336992Y228000D03*
X343008D03*
X348992D03*
X338984Y308000D03*
X348984Y322000D03*
X343000D03*
X363000Y86000D03*
X358984Y192000D03*
X353000D03*
X367016Y221000D03*
X353008Y228000D03*
X358992D03*
X363000Y322000D03*
X353016D03*
X359000D03*
X363000Y365000D03*
X368984Y86000D03*
X375016D03*
X381000D03*
X384992Y92000D03*
X379008D03*
Y98000D03*
X384992D03*
X379008Y104000D03*
X384992D03*
X379008Y110000D03*
X384992D03*
X369016Y192000D03*
X375000D03*
X369008Y199000D03*
X374992D03*
X373000Y221000D03*
X368984Y322000D03*
Y365000D03*
X402016Y245000D03*
Y250000D03*
Y265000D03*
Y255000D03*
Y260000D03*
Y275000D03*
Y270000D03*
X412016Y245000D03*
X418000D03*
X412016Y250000D03*
X418000D03*
X408000Y245000D03*
Y250000D03*
X412016Y265000D03*
X418000D03*
X412016Y255000D03*
X418000D03*
X412016Y260000D03*
X418000D03*
X408000Y265000D03*
Y255000D03*
Y260000D03*
X412016Y270000D03*
X418000D03*
X412016Y275000D03*
X418000D03*
X408000D03*
Y270000D03*
G54D33*
X83630Y330500D03*
X153630D03*
X223630D03*
X293630D03*
G54D25*
X65000Y354591D03*
Y379000D03*
X135000Y354591D03*
Y379000D03*
X205000Y354591D03*
Y379000D03*
X275000Y354591D03*
Y379000D03*
G54D34*
X135000Y58000D03*
X145000D03*
X135000Y68000D03*
X145000D03*
X155000Y58000D03*
X165000D03*
X155000Y68000D03*
X165000D03*
X175000Y58000D03*
Y68000D03*
X185000Y58000D03*
X195000D03*
X185000Y68000D03*
X195000D03*
X205000Y58000D03*
X215000D03*
X205000Y68000D03*
X215000D03*
X225000Y58000D03*
G54D43*
X260000Y103000D03*
X296000D03*
X332000D03*
G54D16*
X17945Y128740D03*
X27000Y125000D03*
Y132480D03*
X363055Y346260D03*
X354000Y342520D03*
Y350000D03*
X363055Y359260D03*
X354000Y355520D03*
Y363000D03*
G54D52*
X367260Y213724D03*
Y204276D03*
X374740Y213724D03*
Y204276D03*
X371000D03*
G54D26*
X61055Y391055D03*
Y422945D03*
X77000Y407000D03*
X92945Y391055D03*
Y422945D03*
X131055Y391055D03*
Y422945D03*
X147000Y407000D03*
X162945Y391055D03*
Y422945D03*
X201055Y391055D03*
Y422945D03*
X217000Y407000D03*
X232945Y391055D03*
Y422945D03*
X271055Y391055D03*
Y422945D03*
X287000Y407000D03*
X302945Y391055D03*
Y422945D03*
G54D35*
X199202Y3358D03*
Y19500D03*
X218100Y3358D03*
Y19500D03*
G54D44*
X265500Y199370D03*
X260500D03*
X255500D03*
Y220630D03*
X260500D03*
X265500D03*
X282500Y199370D03*
X277500D03*
X270500D03*
X277500Y220630D03*
X282500D03*
X270500D03*
X292500Y199370D03*
X287500D03*
X299500D03*
X287500Y220630D03*
X292500D03*
X299500D03*
X314500Y199370D03*
X309500D03*
X304500D03*
Y220630D03*
X309500D03*
X314500D03*
X331500Y199370D03*
X326500D03*
X321500D03*
Y220630D03*
X326500D03*
X331500D03*
X336500Y199370D03*
X348500D03*
X343500D03*
X336500Y220630D03*
X343500D03*
X348500D03*
X358500Y199370D03*
X353500D03*
Y220630D03*
X358500D03*
G54D17*
X44437Y12929D03*
X96602D03*
G54D36*
X188000Y23654D03*
Y33654D03*
Y43654D03*
X309000Y14000D03*
Y55000D03*
G54D18*
X38945Y43835D03*
X63000Y56000D03*
X58000Y66000D03*
X73000Y56000D03*
X78000Y66000D03*
X68000D03*
X83000Y56000D03*
X88000Y66000D03*
X101937Y43835D03*
G54D45*
X327945Y319740D03*
X337000Y316000D03*
Y323480D03*
G54D27*
X50000Y398284D03*
Y416000D03*
X104000Y398284D03*
Y416000D03*
X120000Y398284D03*
Y416000D03*
X174000Y398284D03*
Y416000D03*
X190000Y398284D03*
Y416000D03*
X244000Y398284D03*
Y416000D03*
X267000Y122000D03*
Y139716D03*
X260000Y398284D03*
Y416000D03*
X303000Y122000D03*
Y139716D03*
X314000Y398284D03*
Y416000D03*
X339000Y122000D03*
Y139716D03*
G54D28*
X73583Y260043D03*
Y262602D03*
Y265161D03*
Y267720D03*
Y270280D03*
Y272839D03*
Y275398D03*
Y277957D03*
X96417Y265161D03*
Y262602D03*
Y260043D03*
Y277957D03*
Y275398D03*
Y272839D03*
Y270280D03*
Y267720D03*
X143583Y260043D03*
Y262602D03*
Y265161D03*
Y267720D03*
Y270280D03*
Y272839D03*
Y275398D03*
Y277957D03*
X166417Y265161D03*
Y262602D03*
Y260043D03*
Y277957D03*
Y275398D03*
Y272839D03*
Y270280D03*
Y267720D03*
X213583Y260043D03*
Y262602D03*
Y265161D03*
Y267720D03*
Y270280D03*
Y272839D03*
Y275398D03*
Y277957D03*
X236417Y265161D03*
Y262602D03*
Y260043D03*
Y277957D03*
Y275398D03*
Y272839D03*
Y270280D03*
Y267720D03*
X283583Y260043D03*
Y262602D03*
Y265161D03*
Y267720D03*
Y270280D03*
Y272839D03*
Y275398D03*
Y277957D03*
X306417Y265161D03*
Y262602D03*
Y260043D03*
Y277957D03*
Y275398D03*
Y272839D03*
Y270280D03*
Y267720D03*
G54D46*
X329583Y334000D03*
X330583Y370000D03*
X341000Y334000D03*
X342000Y370000D03*
G54D37*
X199694Y15169D03*
X217608D03*
G54D19*
X41307Y104693D03*
Y106662D03*
Y108630D03*
Y110598D03*
Y112567D03*
Y114536D03*
Y116504D03*
Y118472D03*
Y120441D03*
Y122410D03*
Y124378D03*
Y126346D03*
Y128315D03*
Y130284D03*
Y132252D03*
Y134220D03*
Y136189D03*
Y138158D03*
Y140126D03*
Y142094D03*
Y144063D03*
Y146032D03*
Y148000D03*
Y149968D03*
Y151937D03*
X101937Y112567D03*
Y110598D03*
Y108630D03*
Y106662D03*
Y104693D03*
Y128315D03*
Y126346D03*
Y124378D03*
Y122410D03*
Y120441D03*
Y118472D03*
Y116504D03*
Y114536D03*
Y146032D03*
Y144063D03*
Y142094D03*
Y140126D03*
Y138158D03*
Y136189D03*
Y134220D03*
Y132252D03*
Y130284D03*
Y151937D03*
Y149968D03*
Y148000D03*
X130425Y130425D03*
Y132394D03*
Y134362D03*
Y136331D03*
Y138299D03*
Y140268D03*
Y142236D03*
Y144205D03*
Y146173D03*
Y148142D03*
Y150110D03*
Y152079D03*
Y154047D03*
Y156016D03*
Y157984D03*
Y159953D03*
Y161921D03*
Y163890D03*
Y165858D03*
Y167827D03*
Y169795D03*
Y171764D03*
Y173732D03*
Y175701D03*
Y177669D03*
Y179638D03*
Y181606D03*
Y183575D03*
Y185543D03*
Y187512D03*
Y189480D03*
Y191449D03*
Y193417D03*
Y195386D03*
Y197354D03*
Y199323D03*
X214677Y146173D03*
Y144205D03*
Y142236D03*
Y140268D03*
Y138299D03*
Y136331D03*
Y134362D03*
Y132394D03*
Y130425D03*
Y161921D03*
Y159953D03*
Y157984D03*
Y156016D03*
Y154047D03*
Y152079D03*
Y150110D03*
Y148142D03*
Y179638D03*
Y177669D03*
Y175701D03*
Y173732D03*
Y171764D03*
Y169795D03*
Y167827D03*
Y165858D03*
Y163890D03*
Y197354D03*
Y195386D03*
Y193417D03*
Y191449D03*
Y189480D03*
Y187512D03*
Y185543D03*
Y183575D03*
Y181606D03*
Y199323D03*
G54D38*
X225000Y68000D03*
G54D47*
X340134Y264000D03*
Y269000D03*
Y274000D03*
Y279000D03*
X361000Y264000D03*
Y279000D03*
Y274000D03*
Y269000D03*
G54D29*
X70732Y285000D03*
X79000D03*
X73732Y345000D03*
X94268Y285000D03*
X86000D03*
X83732Y316000D03*
X92000D03*
X82000Y345000D03*
X102732Y283000D03*
X111000D03*
X98732Y345000D03*
X107000D03*
X137332Y223800D03*
X145600D03*
X137332Y232800D03*
X145600D03*
X140732Y285000D03*
X143732Y345000D03*
X149000Y285000D03*
X164268D03*
X156000D03*
X153732Y316000D03*
X162000D03*
X152000Y345000D03*
X172732Y283000D03*
X181000D03*
X168732Y345000D03*
X177000D03*
X210732Y285000D03*
X213732Y345000D03*
X219000Y285000D03*
X226000D03*
X223732Y316000D03*
X232000D03*
X222000Y345000D03*
X242732Y283000D03*
X234268Y285000D03*
X238732Y345000D03*
X247000D03*
X259866Y192000D03*
X261866Y229000D03*
X251000Y283000D03*
X268134Y192000D03*
X270134Y229000D03*
X280732Y285000D03*
X283732Y345000D03*
X283866Y192000D03*
X292134D03*
X285866Y229000D03*
X294134D03*
X289000Y285000D03*
X296000D03*
X293732Y316000D03*
X292000Y345000D03*
X305866Y235000D03*
X314134D03*
X312732Y283000D03*
X304268Y285000D03*
X302000Y316000D03*
X308732Y345000D03*
X317000D03*
X327866Y235000D03*
X321000Y283000D03*
X336134Y235000D03*
X349866D03*
X366732Y228000D03*
X358134Y235000D03*
X373866Y179000D03*
X382134D03*
X375000Y228000D03*
G54D48*
X338161Y351339D03*
X369161Y103339D03*
G54D39*
X250354Y76000D03*
X269646D03*
X286354D03*
X305646D03*
X322354D03*
X341646D03*
X347000Y312000D03*
X363354Y76000D03*
X366291Y312000D03*
X382646Y76000D03*
G54D49*
X342000Y342677D03*
X339441D03*
X336882D03*
X334323D03*
Y360000D03*
X336882D03*
X339441D03*
X342000D03*
X367882Y94677D03*
X365323D03*
Y112000D03*
X367882D03*
X373000Y94677D03*
X370441D03*
Y112000D03*
X373000D03*
M02*
