G04 ================== begin FILE IDENTIFICATION RECORD ==================*
G04 Layout Name:  E:/material/lool Inds Vibration/hardware/v2.0/pcb/vibration.brd*
G04 Film Name:    DRILL*
G04 File Format:  Gerber RS274X*
G04 File Origin:  Cadence Allegro 16.6-2015-S065*
G04 Origin Date:  Mon Jun 13 17:14:19 2016*
G04 *
G04 Layer:  MANUFACTURING/NCLEGEND-1-4*
G04 Layer:  BOARD GEOMETRY/OUTLINE*
G04 *
G04 Offset:    (0.000 0.000)*
G04 Mirror:    No*
G04 Mode:      Positive*
G04 Rotation:  0*
G04 FullContactRelief:  No*
G04 UndefLineWidth:     1.000*
G04 ================== end FILE IDENTIFICATION RECORD ====================*
%FSLAX25Y25*MOIN*%
%IR0*IPPOS*OFA0.00000B0.00000*MIA0B0*SFA1.00000B1.00000*%
%AMMACRO15*
1,1,.001,.011811,0.0*
20,1,.001,.011811,0.0,.005906,.010229,0.0*
1,1,.001,.005906,.010229*
20,1,.001,.005906,.010229,-.005905,.010229,0.0*
1,1,.001,-.005905,.010229*
20,1,.001,-.005905,.010229,-.011811,0.0,0.0*
1,1,.001,-.011811,0.0*
20,1,.001,-.011811,0.0,-.005906,-.010229,0.0*
1,1,.001,-.005906,-.010229*
20,1,.001,-.005906,-.010229,.005905,-.010229,0.0*
1,1,.001,.005905,-.010229*
20,1,.001,.005905,-.010229,.011811,0.0,0.0*
1,1,.001,.011811,0.0*
1,1,.001,-.004921,-.005905*
20,1,.001,-.004921,-.005905,0.0,.005906,0.0*
1,1,.001,0.0,.005906*
20,1,.001,0.0,.005906,.004922,-.005905,0.0*
1,1,.001,.004922,-.005905*
1,1,.001,.00315,-.001771*
20,1,.001,.00315,-.001771,-.003149,-.001771,0.0*
1,1,.001,-.003149,-.001771*
%
%ADD15MACRO15*%
%AMMACRO17*
1,1,.001,.017717,0.0*
20,1,.001,.017717,0.0,.008858,.015343,0.0*
1,1,.001,.008858,.015343*
20,1,.001,.008858,.015343,-.008858,.015343,0.0*
1,1,.001,-.008858,.015343*
20,1,.001,-.008858,.015343,-.017717,0.0,0.0*
1,1,.001,-.017717,0.0*
20,1,.001,-.017717,0.0,-.008858,-.015343,0.0*
1,1,.001,-.008858,-.015343*
20,1,.001,-.008858,-.015343,.008858,-.015343,0.0*
1,1,.001,.008858,-.015343*
20,1,.001,.008858,-.015343,.017717,0.0,0.0*
1,1,.001,.017717,0.0*
1,1,.001,-.007382,-.008858*
20,1,.001,-.007382,-.008858,0.0,.008858,0.0*
1,1,.001,0.0,.008858*
20,1,.001,0.0,.008858,.007382,-.008858,0.0*
1,1,.001,.007382,-.008858*
1,1,.001,.004724,-.002658*
20,1,.001,.004724,-.002658,-.004725,-.002658,0.0*
1,1,.001,-.004725,-.002658*
%
%ADD17MACRO17*%
%AMMACRO16*
1,1,.001,.02067,0.0*
20,1,.001,.02067,0.0,.010335,.0179,0.0*
1,1,.001,.010335,.0179*
20,1,.001,.010335,.0179,-.010335,.0179,0.0*
1,1,.001,-.010335,.0179*
20,1,.001,-.010335,.0179,-.02067,0.0,0.0*
1,1,.001,-.02067,0.0*
20,1,.001,-.02067,0.0,-.010335,-.0179,0.0*
1,1,.001,-.010335,-.0179*
20,1,.001,-.010335,-.0179,.010335,-.0179,0.0*
1,1,.001,.010335,-.0179*
20,1,.001,.010335,-.0179,.02067,0.0,0.0*
1,1,.001,.02067,0.0*
1,1,.001,-.008612,-.010334*
20,1,.001,-.008612,-.010334,0.0,.010335,0.0*
1,1,.001,0.0,.010335*
20,1,.001,0.0,.010335,.008613,-.010334,0.0*
1,1,.001,.008613,-.010334*
1,1,.001,.005512,-.0031*
20,1,.001,.005512,-.0031,-.005512,-.0031,0.0*
1,1,.001,-.005512,-.0031*
%
%ADD16MACRO16*%
%AMMACRO14*
1,1,.001,.027559,0.0*
20,1,.001,.027559,0.0,.01378,.023867,0.0*
1,1,.001,.01378,.023867*
20,1,.001,.01378,.023867,-.013779,.023867,0.0*
1,1,.001,-.013779,.023867*
20,1,.001,-.013779,.023867,-.027559,0.0,0.0*
1,1,.001,-.027559,0.0*
20,1,.001,-.027559,0.0,-.01378,-.023867,0.0*
1,1,.001,-.01378,-.023867*
20,1,.001,-.01378,-.023867,.013779,-.023867,0.0*
1,1,.001,.013779,-.023867*
20,1,.001,.013779,-.023867,.027559,0.0,0.0*
1,1,.001,.027559,0.0*
1,1,.001,-.011483,-.013779*
20,1,.001,-.011483,-.013779,0.0,.01378,0.0*
1,1,.001,0.0,.01378*
20,1,.001,0.0,.01378,.011484,-.013779,0.0*
1,1,.001,.011484,-.013779*
1,1,.001,.007349,-.004134*
20,1,.001,.007349,-.004134,-.007349,-.004134,0.0*
1,1,.001,-.007349,-.004134*
%
%ADD14MACRO14*%
%AMMACRO18*
1,1,.001,.016733,0.0*
20,1,.001,.016733,0.0,.008366,.014491,0.0*
1,1,.001,.008366,.014491*
20,1,.001,.008366,.014491,-.008366,.014491,0.0*
1,1,.001,-.008366,.014491*
20,1,.001,-.008366,.014491,-.016733,0.0,0.0*
1,1,.001,-.016733,0.0*
20,1,.001,-.016733,0.0,-.008366,-.014491,0.0*
1,1,.001,-.008366,-.014491*
20,1,.001,-.008366,-.014491,.008366,-.014491,0.0*
1,1,.001,.008366,-.014491*
20,1,.001,.008366,-.014491,.016733,0.0,0.0*
1,1,.001,.016733,0.0*
1,1,.001,-.006972,-.008366*
20,1,.001,-.006972,-.008366,0.0,.008366,0.0*
1,1,.001,0.0,.008366*
20,1,.001,0.0,.008366,.006972,-.008366,0.0*
1,1,.001,.006972,-.008366*
1,1,.001,.004462,-.00251*
20,1,.001,.004462,-.00251,-.004462,-.00251,0.0*
1,1,.001,-.004462,-.00251*
%
%ADD18MACRO18*%
%AMMACRO11*
1,1,.001,.019685,0.0*
20,1,.001,.019685,0.0,.009843,.017048,0.0*
1,1,.001,.009843,.017048*
20,1,.001,.009843,.017048,-.009842,.017048,0.0*
1,1,.001,-.009842,.017048*
20,1,.001,-.009842,.017048,-.019685,0.0,0.0*
1,1,.001,-.019685,0.0*
20,1,.001,-.019685,0.0,-.009843,-.017048,0.0*
1,1,.001,-.009843,-.017048*
20,1,.001,-.009843,-.017048,.009842,-.017048,0.0*
1,1,.001,.009842,-.017048*
20,1,.001,.009842,-.017048,.019685,0.0,0.0*
1,1,.001,.019685,0.0*
1,1,.001,-.008202,-.009842*
20,1,.001,-.008202,-.009842,0.0,.009843,0.0*
1,1,.001,0.0,.009843*
20,1,.001,0.0,.009843,.008203,-.009842,0.0*
1,1,.001,.008203,-.009842*
1,1,.001,.00525,-.002953*
20,1,.001,.00525,-.002953,-.005249,-.002953,0.0*
1,1,.001,-.005249,-.002953*
%
%ADD11MACRO11*%
%AMMACRO13*
1,1,.001,.029528,0.0*
20,1,.001,.029528,0.0,.014764,.025572,0.0*
1,1,.001,.014764,.025572*
20,1,.001,.014764,.025572,-.014764,.025572,0.0*
1,1,.001,-.014764,.025572*
20,1,.001,-.014764,.025572,-.029528,0.0,0.0*
1,1,.001,-.029528,0.0*
20,1,.001,-.029528,0.0,-.014764,-.025572,0.0*
1,1,.001,-.014764,-.025572*
20,1,.001,-.014764,-.025572,.014764,-.025572,0.0*
1,1,.001,.014764,-.025572*
20,1,.001,.014764,-.025572,.029528,0.0,0.0*
1,1,.001,.029528,0.0*
1,1,.001,-.012303,-.014763*
20,1,.001,-.012303,-.014763,0.0,.014764,0.0*
1,1,.001,0.0,.014764*
20,1,.001,0.0,.014764,.012304,-.014763,0.0*
1,1,.001,.012304,-.014763*
1,1,.001,.007874,-.004429*
20,1,.001,.007874,-.004429,-.007874,-.004429,0.0*
1,1,.001,-.007874,-.004429*
%
%ADD13MACRO13*%
%AMMACRO12*
1,1,.001,.068898,0.0*
20,1,.001,.068898,0.0,.034449,.059667,0.0*
1,1,.001,.034449,.059667*
20,1,.001,.034449,.059667,-.034449,.059667,0.0*
1,1,.001,-.034449,.059667*
20,1,.001,-.034449,.059667,-.068898,0.0,0.0*
1,1,.001,-.068898,0.0*
20,1,.001,-.068898,0.0,-.034449,-.059667,0.0*
1,1,.001,-.034449,-.059667*
20,1,.001,-.034449,-.059667,.034449,-.059667,0.0*
1,1,.001,.034449,-.059667*
20,1,.001,.034449,-.059667,.068898,0.0,0.0*
1,1,.001,.068898,0.0*
1,1,.001,-.028708,-.034448*
20,1,.001,-.028708,-.034448,-.000001,.034449,0.0*
1,1,.001,-.000001,.034449*
20,1,.001,-.000001,.034449,.028709,-.034448,0.0*
1,1,.001,.028709,-.034448*
1,1,.001,.018372,-.010335*
20,1,.001,.018372,-.010335,-.018373,-.010335,0.0*
1,1,.001,-.018373,-.010335*
%
%ADD12MACRO12*%
%AMMACRO19*
1,1,.001,.033465,0.0*
20,1,.001,.033465,0.0,.016732,.028981,0.0*
1,1,.001,.016732,.028981*
20,1,.001,.016732,.028981,-.016732,.028981,0.0*
1,1,.001,-.016732,.028981*
20,1,.001,-.016732,.028981,-.033465,0.0,0.0*
1,1,.001,-.033465,0.0*
20,1,.001,-.033465,0.0,-.016732,-.028981,0.0*
1,1,.001,-.016732,-.028981*
20,1,.001,-.016732,-.028981,.016732,-.028981,0.0*
1,1,.001,.016732,-.028981*
20,1,.001,.016732,-.028981,.033465,0.0,0.0*
1,1,.001,.033465,0.0*
1,1,.001,-.013944,-.016732*
20,1,.001,-.013944,-.016732,-.000001,.016732,0.0*
1,1,.001,-.000001,.016732*
20,1,.001,-.000001,.016732,.013944,-.016732,0.0*
1,1,.001,.013944,-.016732*
1,1,.001,.008923,-.00502*
20,1,.001,.008923,-.00502,-.008924,-.00502,0.0*
1,1,.001,-.008924,-.00502*
%
%ADD19MACRO19*%
%AMMACRO10*
1,1,.001,.006,0.0*
20,1,.001,.006,0.0,.003,.005196,0.0*
1,1,.001,.003,.005196*
20,1,.001,.003,.005196,-.003,.005196,0.0*
1,1,.001,-.003,.005196*
20,1,.001,-.003,.005196,-.006,0.0,0.0*
1,1,.001,-.006,0.0*
20,1,.001,-.006,0.0,-.003,-.005196,0.0*
1,1,.001,-.003,-.005196*
20,1,.001,-.003,-.005196,.003,-.005196,0.0*
1,1,.001,.003,-.005196*
20,1,.001,.003,-.005196,.006,0.0,0.0*
1,1,.001,.006,0.0*
1,1,.001,-.0025,-.003*
20,1,.001,-.0025,-.003,0.0,.003,0.0*
1,1,.001,0.0,.003*
20,1,.001,0.0,.003,.0025,-.003,0.0*
1,1,.001,.0025,-.003*
1,1,.001,.0016,-.0009*
20,1,.001,.0016,-.0009,-.0016,-.0009,0.0*
1,1,.001,-.0016,-.0009*
%
%ADD10MACRO10*%
%ADD20C,.001*%
G75*
%LPD*%
G75*
G54D10*
X4282Y3966D03*
Y13966D03*
Y23966D03*
Y33966D03*
Y43966D03*
Y53966D03*
Y63966D03*
Y73966D03*
Y83966D03*
Y93966D03*
Y103966D03*
Y113966D03*
X10900Y130500D03*
X4282Y123966D03*
Y133966D03*
Y143966D03*
Y153966D03*
Y163966D03*
Y173966D03*
Y183966D03*
Y193966D03*
Y203966D03*
Y213966D03*
Y223966D03*
Y233966D03*
Y243966D03*
Y253966D03*
Y263966D03*
Y273966D03*
Y283966D03*
Y293966D03*
Y303966D03*
Y313966D03*
Y323966D03*
Y333966D03*
Y343966D03*
Y353966D03*
Y363966D03*
Y373966D03*
Y383966D03*
Y393966D03*
Y403966D03*
Y413966D03*
Y423966D03*
X14400Y72600D03*
X21900Y62900D03*
X16400Y86984D03*
Y91421D03*
X17300Y76134D03*
X16100Y81000D03*
X22500Y96000D03*
X17000Y96200D03*
X14500Y96300D03*
Y100900D03*
X14400Y106100D03*
X26200Y111100D03*
X15600Y122300D03*
X14679Y117820D03*
X15100Y109700D03*
X14847Y125153D03*
X14848Y127791D03*
X14200Y130600D03*
X13900Y138158D03*
X15400Y135500D03*
X25344Y165144D03*
X19400Y164700D03*
X26400Y168000D03*
X19500Y167800D03*
X22700Y168400D03*
X20400Y171200D03*
X25300Y175300D03*
X27006Y226800D03*
X18000Y242000D03*
Y256000D03*
Y273000D03*
Y296000D03*
Y329000D03*
Y369000D03*
X14100Y391100D03*
X34550Y44650D03*
X28039Y76439D03*
X30400Y78000D03*
X40286Y91800D03*
X33306Y93506D03*
X35300Y116504D03*
X29837Y113137D03*
X39600Y108401D03*
X38900Y111000D03*
X37500Y114100D03*
X34300Y110500D03*
X35950Y112650D03*
X33306Y141300D03*
X38400Y168000D03*
X30500Y164000D03*
X36200Y174900D03*
X30156Y194200D03*
X36455Y194500D03*
X33306Y194100D03*
X39300Y194700D03*
X42754Y194654D03*
X35138Y209430D03*
X33800Y207200D03*
X37100Y223900D03*
X39900Y224600D03*
X42494Y224781D03*
X40300Y243400D03*
X40537Y265863D03*
X33532Y270268D03*
X35616Y306984D03*
X35500Y328000D03*
Y345000D03*
X54600Y91400D03*
X53400Y77500D03*
X47085Y104900D03*
X44314Y91800D03*
X57900Y92700D03*
X47300Y91926D03*
X45300Y152800D03*
X54900Y150200D03*
X56803Y152244D03*
X53100Y165400D03*
X55241Y163924D03*
X54400Y168400D03*
X58896Y166159D03*
X47800Y163400D03*
X50600Y177000D03*
X58000D03*
X50600Y171800D03*
X52100Y194200D03*
X49200Y194100D03*
X55300D03*
X58600Y193000D03*
X45904Y194696D03*
X55600Y226500D03*
X44994Y226413D03*
X52400Y226200D03*
X58600Y227700D03*
X49200Y226100D03*
X51000Y238100D03*
X58568Y265161D03*
X49200Y260043D03*
X59300Y251700D03*
X58639Y272839D03*
X58121Y270280D03*
X57521Y267720D03*
X50132Y289716D03*
X48516Y299861D03*
X48841Y302441D03*
X49500Y311000D03*
X58400Y313800D03*
X58360Y324607D03*
Y330607D03*
Y327607D03*
X54022Y320322D03*
X58360Y336607D03*
Y333607D03*
X48900Y345000D03*
X74400Y89900D03*
X61400Y90600D03*
X74400Y83300D03*
X61400Y83848D03*
X66900Y121700D03*
X72600Y112800D03*
X69400Y117500D03*
X75103Y115400D03*
X75000Y111000D03*
X66700Y118100D03*
X73215Y109110D03*
X72800Y117100D03*
X69900Y110600D03*
X74900Y127964D03*
X72004Y130164D03*
X70599Y134434D03*
X72871Y138364D03*
X74247Y132364D03*
X69900Y137700D03*
X61400Y125700D03*
X71800Y127500D03*
X65900Y152000D03*
X70263Y153311D03*
X64085Y150139D03*
X72700Y149085D03*
X61276Y151700D03*
X69596Y147598D03*
X74500Y140390D03*
X75413Y143087D03*
X60513Y142313D03*
X69700Y145000D03*
X74663Y153748D03*
X70702Y150748D03*
X67018Y149652D03*
X74277Y151154D03*
X68000Y193700D03*
X61700Y248500D03*
X68500Y273800D03*
X69400Y277612D03*
X67700Y270954D03*
X73684Y289716D03*
X61800Y285000D03*
X62100Y292000D03*
X64076Y298135D03*
X62076D03*
X60076D03*
X75282Y299882D03*
X64076Y304135D03*
X62076D03*
X60076D03*
X64076Y302135D03*
X62076D03*
X60076D03*
X64076Y300135D03*
X62076D03*
X60076D03*
X61360Y324607D03*
X64360D03*
X67360D03*
Y330607D03*
X64360D03*
X61360D03*
X67360Y327607D03*
X64360D03*
X61360D03*
X75700Y316000D03*
X74700Y344000D03*
X67360Y336607D03*
X64360D03*
X61360D03*
X67360Y333607D03*
X64360D03*
X61360D03*
X66400Y347000D03*
X61400Y349500D03*
X74800Y350000D03*
X75049Y366000D03*
X68100Y422900D03*
X85400Y25700D03*
X90384Y69984D03*
X86400Y81100D03*
X79400Y83500D03*
X91400Y106800D03*
X90900Y143200D03*
X88009Y140100D03*
X90300Y171137D03*
X89700Y178000D03*
X90600Y185000D03*
X86960Y195577D03*
X86100Y192700D03*
X89700Y193800D03*
X89000Y201795D03*
X86497Y198504D03*
X90300Y190000D03*
X89274Y210595D03*
X89100Y206195D03*
X87398Y212947D03*
X89000Y214995D03*
X87534Y204066D03*
X87471Y208529D03*
X90300Y217300D03*
X80639Y265161D03*
X80428Y278022D03*
X90394Y275268D03*
X78400Y311300D03*
X84600Y318000D03*
X91200Y328000D03*
X78400Y338000D03*
X90900Y345000D03*
X78132Y349768D03*
X84100Y391100D03*
X92850Y25250D03*
X100700Y77000D03*
X107600Y90800D03*
X104411Y104000D03*
X102800Y106200D03*
X106600Y95300D03*
X106300Y99900D03*
X96950Y122450D03*
X96911Y109511D03*
X103411Y129000D03*
X101727Y152000D03*
X96100Y148100D03*
X97400Y170000D03*
X96900Y185000D03*
X96800Y178000D03*
X96700Y189900D03*
X97300Y195000D03*
X99898Y215498D03*
X92970Y217324D03*
X97500Y216700D03*
X95000Y215700D03*
X94400Y262800D03*
X104400Y262000D03*
Y273988D03*
X95500Y283000D03*
X105800Y306984D03*
X106000Y328000D03*
X105400Y345000D03*
X116400Y35000D03*
X111400Y83400D03*
X108400Y87000D03*
X108600Y97644D03*
X109800Y93100D03*
X115916Y105016D03*
X117039Y118181D03*
X121439Y118039D03*
X115700Y138000D03*
X112900Y124600D03*
X114877Y146187D03*
X118826Y143337D03*
X115218Y149682D03*
X117850Y155350D03*
X117386Y145502D03*
X118900Y139800D03*
X115093Y159699D03*
X117400Y158500D03*
X115195Y169795D03*
X116347Y187400D03*
X115506Y181606D03*
X115469Y177669D03*
X115889Y173600D03*
X116095Y191900D03*
X122977Y191938D03*
X112400Y202000D03*
X117561Y189700D03*
X115996Y194498D03*
X109400Y205000D03*
X116400Y262900D03*
X120116Y289716D03*
X118516Y299861D03*
X118841Y302441D03*
X119400Y311000D03*
X118700Y345000D03*
X130400Y87000D03*
X127616Y105016D03*
X125376Y137500D03*
X127345Y135300D03*
X129313Y132900D03*
X139156Y131200D03*
X134900Y131300D03*
X135325Y161601D03*
X136885Y163680D03*
X135769Y158894D03*
X138410Y157190D03*
X138408Y165788D03*
X124300Y189700D03*
X134200Y231800D03*
X135900Y235100D03*
X130400Y235700D03*
X130700Y260800D03*
X135700Y259400D03*
X128082Y258482D03*
X138339Y265161D03*
X138900Y273300D03*
X139600Y277412D03*
X129100Y273200D03*
X136500Y275602D03*
X128180Y267720D03*
X131900Y285000D03*
X131700Y292000D03*
X134076Y298135D03*
X132076D03*
X130076D03*
X128400Y313900D03*
X134076Y304135D03*
X132076D03*
X134076Y302135D03*
X132076D03*
X134076Y300135D03*
X132076D03*
X130076Y304135D03*
Y302135D03*
Y300135D03*
X137360Y330507D03*
X134360D03*
X131360D03*
X137360Y327507D03*
X134360D03*
X131360D03*
X137360Y324507D03*
X134360D03*
X131360D03*
X128360Y330507D03*
Y327507D03*
Y324507D03*
X124038Y320322D03*
X137360Y336507D03*
X134360D03*
X131360D03*
X137360Y333507D03*
X134360D03*
X131360D03*
X128360Y336507D03*
Y333507D03*
X136400Y347000D03*
X131400Y349800D03*
X138100Y422900D03*
X140316Y86984D03*
X142700Y107500D03*
X143084Y110984D03*
X154800Y112500D03*
X143300Y144700D03*
X141100Y147000D03*
X139686Y168052D03*
X154700Y169100D03*
X142000Y170000D03*
X142800Y172600D03*
X144391Y174747D03*
X146031Y176765D03*
X150211Y179532D03*
X148502Y177573D03*
X152500Y172152D03*
X153300Y212222D03*
X149100Y218500D03*
X149800Y214700D03*
X154900Y219000D03*
X140700Y235100D03*
X145900D03*
X151200D03*
X151900Y225816D03*
X155000Y223800D03*
X150428Y278022D03*
X143684Y289716D03*
X148400Y310400D03*
X145282Y299882D03*
X154900Y317300D03*
X145100Y316000D03*
X148400Y338000D03*
X144856Y344000D03*
X148132Y349868D03*
X145400Y350000D03*
X145000Y366000D03*
X154100Y391100D03*
X159331Y15169D03*
X164400Y90100D03*
X170000Y93000D03*
X160400Y101700D03*
X160800Y113697D03*
X166150Y147150D03*
X167500Y149400D03*
X156211Y178800D03*
X158600Y181200D03*
X164500Y183900D03*
X167031Y185331D03*
X161450Y185450D03*
X159800Y188000D03*
X156300Y212800D03*
X168100Y250400D03*
X163400D03*
X166700Y263200D03*
X155800Y253000D03*
X170698Y251987D03*
X161100Y252900D03*
X165100Y283000D03*
X160394Y275268D03*
X161100Y328000D03*
X161000Y345000D03*
X185500Y3358D03*
X185669Y15169D03*
X179500Y26000D03*
X179900Y32000D03*
X184400Y90400D03*
X174400Y90000D03*
X181700Y93000D03*
X182400Y101900D03*
X187400D03*
Y117000D03*
X184432Y128269D03*
X182500Y144500D03*
X175242Y148142D03*
X173937Y150391D03*
X172400Y201600D03*
X175200Y219000D03*
X175000Y213000D03*
X172400Y225300D03*
X184700Y242600D03*
X182100Y240300D03*
X179400Y238000D03*
Y264726D03*
Y274900D03*
X174800Y271000D03*
X175016Y306984D03*
X175500Y328000D03*
X175000Y345000D03*
X198600Y90476D03*
X198847Y154047D03*
X199400Y150500D03*
Y171000D03*
X202200Y179400D03*
X199400Y173732D03*
X200700Y177100D03*
X199400Y199323D03*
X201950Y212450D03*
X199794Y210996D03*
X194600Y221700D03*
X191000Y219500D03*
Y223900D03*
X199000Y264200D03*
X189100Y260100D03*
X202400Y265000D03*
X199000Y256900D03*
X199100Y276200D03*
X202500Y275500D03*
X197520Y267720D03*
X190116Y289716D03*
X201800Y285000D03*
X202076Y298135D03*
X200076D03*
X202000Y292000D03*
X188516Y299861D03*
X188841Y302441D03*
X189400Y311000D03*
X198400Y314000D03*
X202076Y304135D03*
Y302135D03*
Y300135D03*
X200076Y304135D03*
Y302135D03*
Y300135D03*
X201360Y330607D03*
Y327607D03*
Y324607D03*
X198360Y330607D03*
Y327607D03*
Y324607D03*
X194022Y320322D03*
X201360Y336607D03*
Y333607D03*
X198360Y336607D03*
Y333607D03*
X189000Y345000D03*
X201400Y349600D03*
X208400Y51900D03*
X210900Y49700D03*
X208700Y47400D03*
X206100Y45200D03*
X219008Y82200D03*
X215700Y125992D03*
X206100Y149200D03*
Y168900D03*
Y183500D03*
X206300Y194700D03*
X217700Y203400D03*
X216008Y196592D03*
X204400Y213800D03*
X206200Y215700D03*
X214000Y214000D03*
X215300Y222300D03*
X218008Y231500D03*
X214000Y236100D03*
X206800Y273200D03*
X208600Y278000D03*
X213684Y289716D03*
X204076Y298135D03*
X218400Y310700D03*
X215282Y299882D03*
X204076Y304135D03*
Y302135D03*
Y300135D03*
X207359Y330607D03*
X204360D03*
X207359Y327607D03*
X204360D03*
X207359Y324607D03*
X204360D03*
X215700Y316000D03*
X214800Y344000D03*
X218400Y338000D03*
X207359Y336607D03*
X204360D03*
X207359Y333607D03*
X204360D03*
X206400Y347300D03*
X218132Y348968D03*
X215000Y350000D03*
X215049Y366000D03*
X208100Y422900D03*
X229500Y88019D03*
X226400Y75900D03*
X231523Y106001D03*
X228523D03*
X225523D03*
X222523D03*
X231523Y103001D03*
X228523D03*
X225523D03*
X222523D03*
X231523Y100001D03*
X228523D03*
X225523D03*
X222523D03*
X228900Y135992D03*
X225400Y146400D03*
X224200Y169700D03*
X227900Y160600D03*
X226866Y186066D03*
X223192Y177692D03*
X230000Y211000D03*
X232500Y215400D03*
X224100Y213000D03*
X223992Y231500D03*
X227500Y225000D03*
X234400Y262500D03*
X221739Y265161D03*
X220428Y278022D03*
X234500Y283000D03*
X227400Y278100D03*
X225150Y318450D03*
X231100Y328000D03*
X230900Y345000D03*
X224100Y391100D03*
X245400Y73700D03*
X236646Y81646D03*
X248700Y90400D03*
X246500Y84200D03*
X246800Y96500D03*
X245800Y104900D03*
X244800Y113200D03*
X241600Y123000D03*
X245800Y133800D03*
X250984Y125984D03*
X246800Y145900D03*
X236200Y170200D03*
X247500Y178300D03*
X236200Y180500D03*
X250866Y185534D03*
X241100Y197800D03*
X235800Y209400D03*
X247700Y212800D03*
X247992Y231408D03*
X237134Y225000D03*
X251349Y225249D03*
X242008Y231508D03*
X245500Y236600D03*
X243400Y262300D03*
X249400Y274800D03*
X244916Y306984D03*
X245600Y328000D03*
X245200Y345000D03*
X265500Y88100D03*
X263200Y76900D03*
X255008Y81800D03*
X264523Y106001D03*
X261523D03*
X258523D03*
X264523Y103001D03*
X261523D03*
X258523D03*
X264523Y100001D03*
X261523D03*
X258523D03*
X265000Y135992D03*
X262500Y147300D03*
X265400Y156400D03*
X254600Y179500D03*
X253000Y211000D03*
X254500Y215300D03*
X259300Y208800D03*
X259500Y225200D03*
X257800Y236300D03*
X256400Y263379D03*
X260184Y289716D03*
X258516Y299861D03*
X258841Y302441D03*
X259600Y311000D03*
X264038Y320338D03*
X259200Y345000D03*
X272646Y81946D03*
X280600Y80800D03*
X282100Y90400D03*
X282800Y99200D03*
X281600Y105800D03*
X267523Y106001D03*
Y103001D03*
Y100001D03*
X279900Y115700D03*
X278700Y129900D03*
X282400Y143900D03*
X268400Y167500D03*
X278900Y184300D03*
X270941Y177841D03*
X276000Y195100D03*
X272000D03*
X280900Y210400D03*
X268800Y212000D03*
X271500Y214700D03*
X274000Y211000D03*
X276008Y231858D03*
X281992Y225000D03*
Y231000D03*
X274316Y224508D03*
X270800Y262600D03*
X280539Y265161D03*
X270300Y251500D03*
X279720Y270280D03*
X280098Y275398D03*
X269400Y274100D03*
X273400Y268000D03*
X274300Y271000D03*
X268720Y267720D03*
X271900Y285000D03*
X274076Y298135D03*
X272076D03*
X270076D03*
X271900Y292000D03*
X268384Y313900D03*
X274076Y304135D03*
X272076D03*
X274076Y302135D03*
X272076D03*
X274076Y300135D03*
X272076D03*
X270076Y304135D03*
Y302135D03*
Y300135D03*
X277360Y330607D03*
X274360D03*
X271360D03*
X277360Y327607D03*
X274360D03*
X271360D03*
X277360Y324607D03*
X274360D03*
X271360D03*
X268360Y330607D03*
Y327607D03*
Y324607D03*
X277360Y336607D03*
X274360D03*
X271360D03*
X277360Y333607D03*
X274360D03*
X271360D03*
X268360Y336607D03*
Y333607D03*
X271400Y349800D03*
X276400Y347200D03*
X278100Y422900D03*
X285400Y29800D03*
X298800Y75400D03*
X291000Y82000D03*
X294523Y106001D03*
Y103001D03*
Y100001D03*
X297523Y106001D03*
Y103001D03*
Y100001D03*
X287708Y125992D03*
X291500Y138900D03*
X286500Y183900D03*
X293600Y183700D03*
X298000Y195000D03*
X294000Y195100D03*
X298000Y212000D03*
X290900Y212800D03*
X293500Y215400D03*
X296316Y224508D03*
X298008Y231858D03*
X288200Y235600D03*
X290428Y278022D03*
X283684Y289716D03*
X288400Y310500D03*
X285282Y299882D03*
X294800Y318100D03*
X285100Y316000D03*
X288400Y338000D03*
X284600Y344000D03*
X285200Y350000D03*
X288132Y349332D03*
X285049Y366000D03*
X301500Y88000D03*
X308646Y81854D03*
X303523Y106001D03*
X300523D03*
X303523Y103001D03*
X300523D03*
X303523Y100001D03*
X300523D03*
X312800Y114900D03*
X301400Y135992D03*
X300300Y148800D03*
X300800Y157600D03*
X303000Y184300D03*
Y176000D03*
X304200Y210400D03*
X312200Y211800D03*
X303992Y231000D03*
Y225000D03*
X310000Y236800D03*
X304400Y261900D03*
X314600Y279000D03*
X304600Y283000D03*
X299900Y271500D03*
X299713Y275000D03*
X308584Y290984D03*
X308600Y285000D03*
X308400Y301000D03*
X309300Y308000D03*
X303460Y319740D03*
X300900Y328000D03*
X308983Y339778D03*
X303378Y345000D03*
X308400Y356500D03*
X304400Y370000D03*
X325200Y86000D03*
X315500Y96800D03*
X328025Y100025D03*
X317900Y148700D03*
X325800Y176900D03*
X317700Y173800D03*
X327800Y182200D03*
X319700Y183200D03*
X320000Y195100D03*
X316000Y195022D03*
X317000Y211000D03*
X325800Y210400D03*
X315500Y215000D03*
X318311Y224502D03*
X325992Y225000D03*
Y231000D03*
X320008Y231858D03*
X329000Y264000D03*
X323591Y291000D03*
X318400Y311585D03*
X327300Y352638D03*
X323139Y351339D03*
X321400Y376300D03*
Y363600D03*
X337800Y75600D03*
X345981Y89300D03*
X332174Y101319D03*
X334174D03*
X336174D03*
X332174Y103319D03*
X334174D03*
X336174D03*
X332174Y105319D03*
X334174D03*
X336174D03*
X333000Y121000D03*
X332700Y130900D03*
X336400Y140000D03*
X336100Y150500D03*
X337300Y162300D03*
X332200Y171600D03*
X334100Y179000D03*
X332100Y199200D03*
X336016Y195022D03*
X334016Y217978D03*
Y224000D03*
X342101Y223501D03*
X339700Y235800D03*
X331450Y242650D03*
X336700Y282400D03*
X334300Y299500D03*
X338400Y317300D03*
X333400Y335500D03*
X358262Y3466D03*
Y23466D03*
Y13466D03*
Y43466D03*
Y33466D03*
Y53466D03*
Y73466D03*
Y63466D03*
Y83466D03*
X352000Y85600D03*
X357000Y78500D03*
X358262Y103466D03*
Y93466D03*
X351400Y115600D03*
X358262Y123466D03*
Y113466D03*
Y133466D03*
X348200Y150800D03*
X358262Y153466D03*
Y143466D03*
Y163466D03*
Y183466D03*
Y173466D03*
X348000Y203000D03*
X358262Y203466D03*
Y193466D03*
X347300Y196100D03*
X358262Y213466D03*
Y233466D03*
Y223466D03*
X349300Y220400D03*
X348800Y229000D03*
X358262Y243466D03*
X347400Y265200D03*
X358262Y263466D03*
Y253466D03*
X352500Y279000D03*
X358262Y273466D03*
Y293466D03*
Y283466D03*
Y313466D03*
Y303466D03*
Y323466D03*
X347400Y341537D03*
X358262Y343466D03*
Y333466D03*
Y353466D03*
Y373466D03*
Y363466D03*
X348384Y369000D03*
X358262Y393466D03*
Y383466D03*
Y403466D03*
Y423466D03*
Y413466D03*
X574350Y255500D03*
G54D20*
G01X0Y10000D02*
Y417000D01*
G02X10000Y427000I10000J0D01*
G01X352200D01*
G02X362200Y417000I0J-10000D01*
G01Y10000D01*
G02X352200Y0I-10000J0D01*
G01X10000D01*
G02X0Y10000I0J10000D01*
G01X529400Y-7000D02*
Y343000D01*
X1013000D01*
Y-7000D01*
X529400D01*
G01Y18000D02*
X1013000D01*
G01X529400Y43000D02*
X1013000D01*
G01X529400Y68000D02*
X1013000D01*
G01X529400Y93000D02*
X1013000D01*
G01X529400Y118000D02*
X1013000D01*
G01X529400Y143000D02*
X1013000D01*
G01X529400Y168000D02*
X1013000D01*
G01X529400Y193000D02*
X1013000D01*
G01X529400Y218000D02*
X1013000D01*
G01X529400Y243000D02*
X1013000D01*
G01X529400Y268000D02*
X1013000D01*
G01X529400Y293000D02*
X1013000D01*
G01X529400Y318000D02*
X1013000D01*
G01X540405Y274250D02*
Y286750D01*
X546295D01*
G01X544125Y280708D02*
X540405D01*
G01X553890Y286750D02*
X557610D01*
G01X555750D02*
Y274250D01*
G01X553890D02*
X557610D01*
G01X569080Y280500D02*
X572180D01*
Y276750D01*
X571250Y275500D01*
X570165Y274667D01*
X568615Y274250D01*
X567065Y274667D01*
X565980Y275500D01*
X565050Y276750D01*
X564430Y278208D01*
X564120Y279875D01*
Y281333D01*
X564430Y282583D01*
X565050Y284042D01*
X565980Y285292D01*
X566910Y286125D01*
X568150Y286750D01*
X569235D01*
X570475Y286333D01*
X571405Y285500D01*
G01X577140Y286750D02*
Y277792D01*
X577760Y275916D01*
X579000Y274667D01*
X580550Y274250D01*
X582100Y274667D01*
X583340Y275916D01*
X583960Y277792D01*
Y286750D01*
G01X589850Y274250D02*
Y286750D01*
X593725D01*
X594965Y286125D01*
X595740Y285292D01*
X596050Y283625D01*
X595740Y281958D01*
X594810Y280917D01*
X593725Y280292D01*
X589850D01*
G01X593725D02*
X596050Y274250D01*
G01X608450D02*
X602250D01*
Y286750D01*
X608450D01*
G01X605970Y280708D02*
X602250D01*
G01X612790Y324250D02*
Y336750D01*
X615890D01*
X617130Y336125D01*
X618060Y335292D01*
X618835Y334042D01*
X619455Y332583D01*
X619610Y330500D01*
X619455Y328416D01*
X618835Y326958D01*
X618060Y325708D01*
X617130Y324875D01*
X615890Y324250D01*
X612790D01*
G01X625500D02*
Y336750D01*
X629375D01*
X630615Y336125D01*
X631390Y335292D01*
X631700Y333625D01*
X631390Y331958D01*
X630460Y330917D01*
X629375Y330292D01*
X625500D01*
G01X629375D02*
X631700Y324250D01*
G01X639140Y336750D02*
X642860D01*
G01X641000D02*
Y324250D01*
G01X639140D02*
X642860D01*
G01X650300Y336750D02*
Y324250D01*
X656500D01*
G01X662700Y336750D02*
Y324250D01*
X668900D01*
G01X694010Y335708D02*
X693080Y336333D01*
X691995Y336750D01*
X690755D01*
X689360Y336125D01*
X688275Y335083D01*
X687500Y333833D01*
X686880Y331750D01*
X686725Y329875D01*
X687035Y328000D01*
X687500Y326750D01*
X688430Y325500D01*
X689515Y324667D01*
X690600Y324250D01*
X691685D01*
X692770Y324667D01*
X693700Y325291D01*
X694475Y326125D01*
G01X699745Y324250D02*
Y336750D01*
G01X706255D02*
Y324250D01*
G01Y330500D02*
X699745D01*
G01X711525Y324250D02*
X715400Y336750D01*
X719275Y324250D01*
G01X717880Y328625D02*
X712920D01*
G01X724700Y324250D02*
Y336750D01*
X728575D01*
X729815Y336125D01*
X730590Y335292D01*
X730900Y333625D01*
X730590Y331958D01*
X729660Y330917D01*
X728575Y330292D01*
X724700D01*
G01X728575D02*
X730900Y324250D01*
G01X740200Y336750D02*
Y324250D01*
G01X736635Y336750D02*
X743765D01*
G01X752600Y323833D02*
X752290Y324042D01*
Y324458D01*
X752600Y324667D01*
X752910Y324458D01*
Y324042D01*
X752600Y323833D01*
G01Y329458D02*
X752290Y329667D01*
Y330083D01*
X752600Y330292D01*
X752910Y330083D01*
Y329667D01*
X752600Y329458D01*
G01X777400Y336750D02*
Y324250D01*
G01X773835Y336750D02*
X780965D01*
G01X789800Y324250D02*
X788560Y324458D01*
X787475Y325291D01*
X786545Y326542D01*
X785925Y328000D01*
X785615Y329667D01*
Y331333D01*
X785925Y333000D01*
X786545Y334458D01*
X787475Y335708D01*
X788560Y336542D01*
X789800Y336750D01*
X791040Y336542D01*
X792125Y335708D01*
X793055Y334458D01*
X793675Y333000D01*
X793985Y331333D01*
Y329667D01*
X793675Y328000D01*
X793055Y326542D01*
X792125Y325291D01*
X791040Y324458D01*
X789800Y324250D01*
G01X799100D02*
Y336750D01*
X802820D01*
X804060Y336125D01*
X804990Y334667D01*
X805300Y333000D01*
X804990Y331333D01*
X804215Y330083D01*
X802820Y329458D01*
X799100D01*
G01X827000Y336750D02*
Y324250D01*
G01X824830Y332583D02*
X829170D01*
G01X839400Y324250D02*
X838470Y324458D01*
X837540Y325291D01*
X836920Y326750D01*
X836610Y328416D01*
X836920Y330083D01*
X837540Y331542D01*
X838470Y332375D01*
X839400Y332583D01*
X840330Y332375D01*
X841260Y331542D01*
X841880Y330083D01*
X842035Y328416D01*
X841880Y326750D01*
X841260Y325291D01*
X840330Y324458D01*
X839400Y324250D01*
G01X865440Y330917D02*
X866060Y331542D01*
X866525Y332583D01*
X866835Y334042D01*
X866525Y335292D01*
X865905Y336125D01*
X864820Y336750D01*
X860635D01*
Y324250D01*
X865750D01*
X866835Y325083D01*
X867455Y326333D01*
X867765Y327792D01*
X867455Y329250D01*
X866525Y330500D01*
X865440Y330917D01*
X860635D01*
G01X876600Y324250D02*
X875360Y324458D01*
X874275Y325291D01*
X873345Y326542D01*
X872725Y328000D01*
X872415Y329667D01*
Y331333D01*
X872725Y333000D01*
X873345Y334458D01*
X874275Y335708D01*
X875360Y336542D01*
X876600Y336750D01*
X877840Y336542D01*
X878925Y335708D01*
X879855Y334458D01*
X880475Y333000D01*
X880785Y331333D01*
Y329667D01*
X880475Y328000D01*
X879855Y326542D01*
X878925Y325291D01*
X877840Y324458D01*
X876600Y324250D01*
G01X889000Y336750D02*
Y324250D01*
G01X885435Y336750D02*
X892565D01*
G01X901400D02*
Y324250D01*
G01X897835Y336750D02*
X904965D01*
G01X913800Y324250D02*
X912560Y324458D01*
X911475Y325291D01*
X910545Y326542D01*
X909925Y328000D01*
X909615Y329667D01*
Y331333D01*
X909925Y333000D01*
X910545Y334458D01*
X911475Y335708D01*
X912560Y336542D01*
X913800Y336750D01*
X915040Y336542D01*
X916125Y335708D01*
X917055Y334458D01*
X917675Y333000D01*
X917985Y331333D01*
Y329667D01*
X917675Y328000D01*
X917055Y326542D01*
X916125Y325291D01*
X915040Y324458D01*
X913800Y324250D01*
G01X922170D02*
Y336750D01*
X926200Y326333D01*
X930230Y336750D01*
Y324250D01*
G01X619300Y293000D02*
Y-7000D01*
G01X643325Y299250D02*
X647200Y311750D01*
X651075Y299250D01*
G01X649680Y303625D02*
X644720D01*
G01X656500Y311750D02*
Y299250D01*
X662700D01*
G01X668900Y311750D02*
Y299250D01*
X675100D01*
G01X693390Y311750D02*
Y302792D01*
X694010Y300916D01*
X695250Y299667D01*
X696800Y299250D01*
X698350Y299667D01*
X699590Y300916D01*
X700210Y302792D01*
Y311750D01*
G01X705635Y299250D02*
Y311750D01*
X712765Y299250D01*
Y311750D01*
G01X719740D02*
X723460D01*
G01X721600D02*
Y299250D01*
G01X719740D02*
X723460D01*
G01X734000Y311750D02*
Y299250D01*
G01X730435Y311750D02*
X737565D01*
G01X743145Y300916D02*
X744385Y299875D01*
X745780Y299250D01*
X747020D01*
X748260Y299875D01*
X749190Y300916D01*
X749655Y302375D01*
X749345Y303833D01*
X748570Y305083D01*
X747175Y305917D01*
X745315Y306333D01*
X744230Y307166D01*
X743765Y308625D01*
X744075Y310083D01*
X744850Y311125D01*
X745935Y311750D01*
X747020D01*
X748105Y311333D01*
X749035Y310292D01*
G01X767325Y299250D02*
X771200Y311750D01*
X775075Y299250D01*
G01X773680Y303625D02*
X768720D01*
G01X780500Y299250D02*
Y311750D01*
X784375D01*
X785615Y311125D01*
X786390Y310292D01*
X786700Y308625D01*
X786390Y306958D01*
X785460Y305917D01*
X784375Y305292D01*
X780500D01*
G01X784375D02*
X786700Y299250D01*
G01X799100D02*
X792900D01*
Y311750D01*
X799100D01*
G01X796620Y305708D02*
X792900D01*
G01X818940Y311750D02*
X822660D01*
G01X820800D02*
Y299250D01*
G01X818940D02*
X822660D01*
G01X829635D02*
Y311750D01*
X836765Y299250D01*
Y311750D01*
G01X853970Y299250D02*
Y311750D01*
X858000Y301333D01*
X862030Y311750D01*
Y299250D01*
G01X868540Y311750D02*
X872260D01*
G01X870400D02*
Y299250D01*
G01X868540D02*
X872260D01*
G01X879700Y311750D02*
Y299250D01*
X885900D01*
G01X891945Y300916D02*
X893185Y299875D01*
X894580Y299250D01*
X895820D01*
X897060Y299875D01*
X897990Y300916D01*
X898455Y302375D01*
X898145Y303833D01*
X897370Y305083D01*
X895975Y305917D01*
X894115Y306333D01*
X893030Y307166D01*
X892565Y308625D01*
X892875Y310083D01*
X893650Y311125D01*
X894735Y311750D01*
X895820D01*
X896905Y311333D01*
X897835Y310292D01*
G01X676650Y-750D02*
Y11750D01*
X674790Y9250D01*
G01Y-750D02*
X678510D01*
G01X685640Y1750D02*
X686570Y291D01*
X687810Y-542D01*
X689205Y-750D01*
X690445Y-542D01*
X691685Y500D01*
X692460Y1750D01*
X692615Y3000D01*
X692305Y4458D01*
X691220Y5500D01*
X690135Y5917D01*
X688740D01*
G01X690135D02*
X691065Y6542D01*
X691840Y7583D01*
X692150Y8833D01*
X691840Y10083D01*
X691065Y11125D01*
X689670Y11750D01*
X688275Y11542D01*
X686880Y10708D01*
G01X701140Y-750D02*
X701450Y1958D01*
X701915Y4250D01*
X702535Y6333D01*
X703310Y8625D01*
X704550Y11750D01*
X698350D01*
G01X713850Y-1167D02*
X713540Y-958D01*
Y-542D01*
X713850Y-333D01*
X714160Y-542D01*
Y-958D01*
X713850Y-1167D01*
G01X725940Y-750D02*
X726250Y1958D01*
X726715Y4250D01*
X727335Y6333D01*
X728110Y8625D01*
X729350Y11750D01*
X723150D01*
G01X736015Y708D02*
X737100Y-333D01*
X738340Y-750D01*
X739580Y-333D01*
X740665Y916D01*
X741440Y2792D01*
X741750Y4667D01*
Y6958D01*
X741440Y8833D01*
X740665Y10500D01*
X739735Y11333D01*
X738650Y11750D01*
X737410Y11333D01*
X736480Y10500D01*
X735860Y9250D01*
X735550Y7583D01*
X735860Y6125D01*
X736635Y4667D01*
X737565Y3833D01*
X738650Y3625D01*
X739890Y4041D01*
X740820Y5083D01*
X741750Y6958D01*
G01X747640Y1125D02*
X748570Y83D01*
X749655Y-542D01*
X751050Y-750D01*
X752445Y-333D01*
X753530Y500D01*
X754305Y1958D01*
X754460Y3625D01*
X754150Y5292D01*
X753375Y6333D01*
X752290Y7167D01*
X751205Y7375D01*
X750120Y7167D01*
X748725Y6333D01*
X749190Y11750D01*
X753375D01*
G01X679440Y51750D02*
X680370Y50291D01*
X681610Y49458D01*
X683005Y49250D01*
X684245Y49458D01*
X685485Y50500D01*
X686260Y51750D01*
X686415Y53000D01*
X686105Y54458D01*
X685020Y55500D01*
X683935Y55917D01*
X682540D01*
G01X683935D02*
X684865Y56542D01*
X685640Y57583D01*
X685950Y58833D01*
X685640Y60083D01*
X684865Y61125D01*
X683470Y61750D01*
X682075Y61542D01*
X680680Y60708D01*
G01X691840Y51750D02*
X692770Y50291D01*
X694010Y49458D01*
X695405Y49250D01*
X696645Y49458D01*
X697885Y50500D01*
X698660Y51750D01*
X698815Y53000D01*
X698505Y54458D01*
X697420Y55500D01*
X696335Y55917D01*
X694940D01*
G01X696335D02*
X697265Y56542D01*
X698040Y57583D01*
X698350Y58833D01*
X698040Y60083D01*
X697265Y61125D01*
X695870Y61750D01*
X694475Y61542D01*
X693080Y60708D01*
G01X707650Y48833D02*
X707340Y49042D01*
Y49458D01*
X707650Y49667D01*
X707960Y49458D01*
Y49042D01*
X707650Y48833D01*
G01X721910Y49250D02*
Y61750D01*
X716175Y52792D01*
X723925D01*
G01X729505Y54458D02*
X730590Y55917D01*
X731520Y56750D01*
X732760Y57166D01*
X733845Y56750D01*
X734620Y55917D01*
X735240Y54667D01*
X735395Y53208D01*
X735240Y51958D01*
X734620Y50708D01*
X733690Y49667D01*
X732605Y49250D01*
X731365Y49667D01*
X730280Y50916D01*
X729660Y52792D01*
X729505Y54875D01*
X729815Y57583D01*
X730280Y59042D01*
X731055Y60500D01*
X732140Y61542D01*
X733225Y61750D01*
X734310Y61333D01*
X735085Y60292D01*
G01X741440Y51125D02*
X742370Y50083D01*
X743455Y49458D01*
X744850Y49250D01*
X746245Y49667D01*
X747330Y50500D01*
X748105Y51958D01*
X748260Y53625D01*
X747950Y55291D01*
X747175Y56333D01*
X746090Y57166D01*
X745005Y57375D01*
X743920Y57166D01*
X742525Y56333D01*
X742990Y61750D01*
X747175D01*
G01X679905Y79458D02*
X680990Y80917D01*
X681920Y81750D01*
X683160Y82166D01*
X684245Y81750D01*
X685020Y80917D01*
X685640Y79667D01*
X685795Y78208D01*
X685640Y76958D01*
X685020Y75708D01*
X684090Y74667D01*
X683005Y74250D01*
X681765Y74667D01*
X680680Y75916D01*
X680060Y77792D01*
X679905Y79875D01*
X680215Y82583D01*
X680680Y84042D01*
X681455Y85500D01*
X682540Y86542D01*
X683625Y86750D01*
X684710Y86333D01*
X685485Y85292D01*
G01X692305Y79458D02*
X693390Y80917D01*
X694320Y81750D01*
X695560Y82166D01*
X696645Y81750D01*
X697420Y80917D01*
X698040Y79667D01*
X698195Y78208D01*
X698040Y76958D01*
X697420Y75708D01*
X696490Y74667D01*
X695405Y74250D01*
X694165Y74667D01*
X693080Y75916D01*
X692460Y77792D01*
X692305Y79875D01*
X692615Y82583D01*
X693080Y84042D01*
X693855Y85500D01*
X694940Y86542D01*
X696025Y86750D01*
X697110Y86333D01*
X697885Y85292D01*
G01X707650Y73833D02*
X707340Y74042D01*
Y74458D01*
X707650Y74667D01*
X707960Y74458D01*
Y74042D01*
X707650Y73833D01*
G01X717415Y75708D02*
X718500Y74667D01*
X719740Y74250D01*
X720980Y74667D01*
X722065Y75916D01*
X722840Y77792D01*
X723150Y79667D01*
Y81958D01*
X722840Y83833D01*
X722065Y85500D01*
X721135Y86333D01*
X720050Y86750D01*
X718810Y86333D01*
X717880Y85500D01*
X717260Y84250D01*
X716950Y82583D01*
X717260Y81125D01*
X718035Y79667D01*
X718965Y78833D01*
X720050Y78625D01*
X721290Y79041D01*
X722220Y80083D01*
X723150Y81958D01*
G01X729505Y84667D02*
X730435Y85916D01*
X731520Y86542D01*
X732760Y86750D01*
X734310Y86333D01*
X735395Y85292D01*
X735705Y84042D01*
X735550Y82791D01*
X734930Y81750D01*
X731830Y79667D01*
X730435Y78208D01*
X729505Y76125D01*
X729195Y74250D01*
X735705D01*
G01X742215Y75708D02*
X743300Y74667D01*
X744540Y74250D01*
X745780Y74667D01*
X746865Y75916D01*
X747640Y77792D01*
X747950Y79667D01*
Y81958D01*
X747640Y83833D01*
X746865Y85500D01*
X745935Y86333D01*
X744850Y86750D01*
X743610Y86333D01*
X742680Y85500D01*
X742060Y84250D01*
X741750Y82583D01*
X742060Y81125D01*
X742835Y79667D01*
X743765Y78833D01*
X744850Y78625D01*
X746090Y79041D01*
X747020Y80083D01*
X747950Y81958D01*
G01X679440Y101125D02*
X680370Y100083D01*
X681455Y99458D01*
X682850Y99250D01*
X684245Y99667D01*
X685330Y100500D01*
X686105Y101958D01*
X686260Y103625D01*
X685950Y105292D01*
X685175Y106333D01*
X684090Y107167D01*
X683005Y107375D01*
X681920Y107167D01*
X680525Y106333D01*
X680990Y111750D01*
X685175D01*
G01X692615Y100708D02*
X693700Y99667D01*
X694940Y99250D01*
X696180Y99667D01*
X697265Y100916D01*
X698040Y102792D01*
X698350Y104667D01*
Y106958D01*
X698040Y108833D01*
X697265Y110500D01*
X696335Y111333D01*
X695250Y111750D01*
X694010Y111333D01*
X693080Y110500D01*
X692460Y109250D01*
X692150Y107583D01*
X692460Y106125D01*
X693235Y104667D01*
X694165Y103833D01*
X695250Y103625D01*
X696490Y104041D01*
X697420Y105083D01*
X698350Y106958D01*
G01X707650Y98833D02*
X707340Y99042D01*
Y99458D01*
X707650Y99667D01*
X707960Y99458D01*
Y99042D01*
X707650Y98833D01*
G01X720050Y111750D02*
X718810Y111333D01*
X717880Y110292D01*
X717260Y109042D01*
X716795Y107375D01*
X716640Y105500D01*
X716795Y103625D01*
X717260Y101958D01*
X717880Y100708D01*
X718810Y99667D01*
X720050Y99250D01*
X721290Y99667D01*
X722220Y100708D01*
X722840Y101958D01*
X723305Y103625D01*
X723460Y105500D01*
X723305Y107375D01*
X722840Y109042D01*
X722220Y110292D01*
X721290Y111333D01*
X720050Y111750D01*
G01X729040Y101125D02*
X729970Y100083D01*
X731055Y99458D01*
X732450Y99250D01*
X733845Y99667D01*
X734930Y100500D01*
X735705Y101958D01*
X735860Y103625D01*
X735550Y105292D01*
X734775Y106333D01*
X733690Y107167D01*
X732605Y107375D01*
X731520Y107167D01*
X730125Y106333D01*
X730590Y111750D01*
X734775D01*
G01X741440Y101125D02*
X742370Y100083D01*
X743455Y99458D01*
X744850Y99250D01*
X746245Y99667D01*
X747330Y100500D01*
X748105Y101958D01*
X748260Y103625D01*
X747950Y105292D01*
X747175Y106333D01*
X746090Y107167D01*
X745005Y107375D01*
X743920Y107167D01*
X742525Y106333D01*
X742990Y111750D01*
X747175D01*
G01X679440Y126125D02*
X680370Y125083D01*
X681455Y124458D01*
X682850Y124250D01*
X684245Y124667D01*
X685330Y125500D01*
X686105Y126958D01*
X686260Y128625D01*
X685950Y130292D01*
X685175Y131333D01*
X684090Y132166D01*
X683005Y132375D01*
X681920Y132166D01*
X680525Y131333D01*
X680990Y136750D01*
X685175D01*
G01X691840Y126125D02*
X692770Y125083D01*
X693855Y124458D01*
X695250Y124250D01*
X696645Y124667D01*
X697730Y125500D01*
X698505Y126958D01*
X698660Y128625D01*
X698350Y130292D01*
X697575Y131333D01*
X696490Y132166D01*
X695405Y132375D01*
X694320Y132166D01*
X692925Y131333D01*
X693390Y136750D01*
X697575D01*
G01X707650Y123833D02*
X707340Y124042D01*
Y124458D01*
X707650Y124667D01*
X707960Y124458D01*
Y124042D01*
X707650Y123833D01*
G01X720050Y124250D02*
Y136750D01*
X718190Y134250D01*
G01Y124250D02*
X721910D01*
G01X732450D02*
Y136750D01*
X730590Y134250D01*
G01Y124250D02*
X734310D01*
G01X744850D02*
X745935Y124458D01*
X747175Y125083D01*
X747950Y126125D01*
X748260Y127583D01*
X747950Y129041D01*
X747020Y130292D01*
X745625Y130917D01*
X744075D01*
X743145Y131333D01*
X742370Y132375D01*
X742060Y133833D01*
X742525Y135292D01*
X743610Y136333D01*
X744850Y136750D01*
X746090Y136333D01*
X747175Y135292D01*
X747640Y133833D01*
X747330Y132375D01*
X746555Y131333D01*
X745625Y130917D01*
X744075D01*
X742680Y130292D01*
X741750Y129041D01*
X741440Y127583D01*
X741750Y126125D01*
X742525Y125083D01*
X743765Y124458D01*
X744850Y124250D01*
G01X684710Y149250D02*
Y161750D01*
X678975Y152792D01*
X686725D01*
G01X695250Y149250D02*
Y161750D01*
X693390Y159250D01*
G01Y149250D02*
X697110D01*
G01X707650Y148833D02*
X707340Y149042D01*
Y149458D01*
X707650Y149667D01*
X707960Y149458D01*
Y149042D01*
X707650Y148833D01*
G01X716640Y151750D02*
X717570Y150291D01*
X718810Y149458D01*
X720205Y149250D01*
X721445Y149458D01*
X722685Y150500D01*
X723460Y151750D01*
X723615Y153000D01*
X723305Y154458D01*
X722220Y155500D01*
X721135Y155917D01*
X719740D01*
G01X721135D02*
X722065Y156542D01*
X722840Y157583D01*
X723150Y158833D01*
X722840Y160083D01*
X722065Y161125D01*
X720670Y161750D01*
X719275Y161542D01*
X717880Y160708D01*
G01X729040Y151750D02*
X729970Y150291D01*
X731210Y149458D01*
X732605Y149250D01*
X733845Y149458D01*
X735085Y150500D01*
X735860Y151750D01*
X736015Y153000D01*
X735705Y154458D01*
X734620Y155500D01*
X733535Y155917D01*
X732140D01*
G01X733535D02*
X734465Y156542D01*
X735240Y157583D01*
X735550Y158833D01*
X735240Y160083D01*
X734465Y161125D01*
X733070Y161750D01*
X731675Y161542D01*
X730280Y160708D01*
G01X742215Y150708D02*
X743300Y149667D01*
X744540Y149250D01*
X745780Y149667D01*
X746865Y150916D01*
X747640Y152792D01*
X747950Y154667D01*
Y156958D01*
X747640Y158833D01*
X746865Y160500D01*
X745935Y161333D01*
X744850Y161750D01*
X743610Y161333D01*
X742680Y160500D01*
X742060Y159250D01*
X741750Y157583D01*
X742060Y156125D01*
X742835Y154667D01*
X743765Y153833D01*
X744850Y153625D01*
X746090Y154041D01*
X747020Y155083D01*
X747950Y156958D01*
G01X679440Y201750D02*
X680370Y200291D01*
X681610Y199458D01*
X683005Y199250D01*
X684245Y199458D01*
X685485Y200500D01*
X686260Y201750D01*
X686415Y203000D01*
X686105Y204458D01*
X685020Y205500D01*
X683935Y205917D01*
X682540D01*
G01X683935D02*
X684865Y206542D01*
X685640Y207583D01*
X685950Y208833D01*
X685640Y210083D01*
X684865Y211125D01*
X683470Y211750D01*
X682075Y211542D01*
X680680Y210708D01*
G01X691840Y201125D02*
X692770Y200083D01*
X693855Y199458D01*
X695250Y199250D01*
X696645Y199667D01*
X697730Y200500D01*
X698505Y201958D01*
X698660Y203625D01*
X698350Y205292D01*
X697575Y206333D01*
X696490Y207166D01*
X695405Y207375D01*
X694320Y207166D01*
X692925Y206333D01*
X693390Y211750D01*
X697575D01*
G01X707650Y198833D02*
X707340Y199042D01*
Y199458D01*
X707650Y199667D01*
X707960Y199458D01*
Y199042D01*
X707650Y198833D01*
G01X721910Y199250D02*
Y211750D01*
X716175Y202792D01*
X723925D01*
G01X729040Y201750D02*
X729970Y200291D01*
X731210Y199458D01*
X732605Y199250D01*
X733845Y199458D01*
X735085Y200500D01*
X735860Y201750D01*
X736015Y203000D01*
X735705Y204458D01*
X734620Y205500D01*
X733535Y205917D01*
X732140D01*
G01X733535D02*
X734465Y206542D01*
X735240Y207583D01*
X735550Y208833D01*
X735240Y210083D01*
X734465Y211125D01*
X733070Y211750D01*
X731675Y211542D01*
X730280Y210708D01*
G01X741440Y201750D02*
X742370Y200291D01*
X743610Y199458D01*
X745005Y199250D01*
X746245Y199458D01*
X747485Y200500D01*
X748260Y201750D01*
X748415Y203000D01*
X748105Y204458D01*
X747020Y205500D01*
X745935Y205917D01*
X744540D01*
G01X745935D02*
X746865Y206542D01*
X747640Y207583D01*
X747950Y208833D01*
X747640Y210083D01*
X746865Y211125D01*
X745470Y211750D01*
X744075Y211542D01*
X742680Y210708D01*
G01X679905Y234667D02*
X680835Y235916D01*
X681920Y236542D01*
X683160Y236750D01*
X684710Y236333D01*
X685795Y235292D01*
X686105Y234042D01*
X685950Y232791D01*
X685330Y231750D01*
X682230Y229667D01*
X680835Y228208D01*
X679905Y226125D01*
X679595Y224250D01*
X686105D01*
G01X691840Y226750D02*
X692770Y225291D01*
X694010Y224458D01*
X695405Y224250D01*
X696645Y224458D01*
X697885Y225500D01*
X698660Y226750D01*
X698815Y228000D01*
X698505Y229458D01*
X697420Y230500D01*
X696335Y230917D01*
X694940D01*
G01X696335D02*
X697265Y231542D01*
X698040Y232583D01*
X698350Y233833D01*
X698040Y235083D01*
X697265Y236125D01*
X695870Y236750D01*
X694475Y236542D01*
X693080Y235708D01*
G01X707650Y223833D02*
X707340Y224042D01*
Y224458D01*
X707650Y224667D01*
X707960Y224458D01*
Y224042D01*
X707650Y223833D01*
G01X717105Y229458D02*
X718190Y230917D01*
X719120Y231750D01*
X720360Y232166D01*
X721445Y231750D01*
X722220Y230917D01*
X722840Y229667D01*
X722995Y228208D01*
X722840Y226958D01*
X722220Y225708D01*
X721290Y224667D01*
X720205Y224250D01*
X718965Y224667D01*
X717880Y225916D01*
X717260Y227792D01*
X717105Y229875D01*
X717415Y232583D01*
X717880Y234042D01*
X718655Y235500D01*
X719740Y236542D01*
X720825Y236750D01*
X721910Y236333D01*
X722685Y235292D01*
G01X729505Y234667D02*
X730435Y235916D01*
X731520Y236542D01*
X732760Y236750D01*
X734310Y236333D01*
X735395Y235292D01*
X735705Y234042D01*
X735550Y232791D01*
X734930Y231750D01*
X731830Y229667D01*
X730435Y228208D01*
X729505Y226125D01*
X729195Y224250D01*
X735705D01*
G01X741905Y234667D02*
X742835Y235916D01*
X743920Y236542D01*
X745160Y236750D01*
X746710Y236333D01*
X747795Y235292D01*
X748105Y234042D01*
X747950Y232791D01*
X747330Y231750D01*
X744230Y229667D01*
X742835Y228208D01*
X741905Y226125D01*
X741595Y224250D01*
X748105D01*
G01X685640Y26750D02*
X686570Y25291D01*
X687810Y24458D01*
X689205Y24250D01*
X690445Y24458D01*
X691685Y25500D01*
X692460Y26750D01*
X692615Y28000D01*
X692305Y29458D01*
X691220Y30500D01*
X690135Y30917D01*
X688740D01*
G01X690135D02*
X691065Y31542D01*
X691840Y32583D01*
X692150Y33833D01*
X691840Y35083D01*
X691065Y36125D01*
X689670Y36750D01*
X688275Y36542D01*
X686880Y35708D01*
G01X698815Y25708D02*
X699900Y24667D01*
X701140Y24250D01*
X702380Y24667D01*
X703465Y25916D01*
X704240Y27792D01*
X704550Y29667D01*
Y31958D01*
X704240Y33833D01*
X703465Y35500D01*
X702535Y36333D01*
X701450Y36750D01*
X700210Y36333D01*
X699280Y35500D01*
X698660Y34250D01*
X698350Y32583D01*
X698660Y31125D01*
X699435Y29667D01*
X700365Y28833D01*
X701450Y28625D01*
X702690Y29041D01*
X703620Y30083D01*
X704550Y31958D01*
G01X713850Y23833D02*
X713540Y24042D01*
Y24458D01*
X713850Y24667D01*
X714160Y24458D01*
Y24042D01*
X713850Y23833D01*
G01X722840Y26750D02*
X723770Y25291D01*
X725010Y24458D01*
X726405Y24250D01*
X727645Y24458D01*
X728885Y25500D01*
X729660Y26750D01*
X729815Y28000D01*
X729505Y29458D01*
X728420Y30500D01*
X727335Y30917D01*
X725940D01*
G01X727335D02*
X728265Y31542D01*
X729040Y32583D01*
X729350Y33833D01*
X729040Y35083D01*
X728265Y36125D01*
X726870Y36750D01*
X725475Y36542D01*
X724080Y35708D01*
G01X738340Y24250D02*
X738650Y26958D01*
X739115Y29250D01*
X739735Y31333D01*
X740510Y33625D01*
X741750Y36750D01*
X735550D01*
G01X685640Y176750D02*
X686570Y175291D01*
X687810Y174458D01*
X689205Y174250D01*
X690445Y174458D01*
X691685Y175500D01*
X692460Y176750D01*
X692615Y178000D01*
X692305Y179458D01*
X691220Y180500D01*
X690135Y180917D01*
X688740D01*
G01X690135D02*
X691065Y181542D01*
X691840Y182583D01*
X692150Y183833D01*
X691840Y185083D01*
X691065Y186125D01*
X689670Y186750D01*
X688275Y186542D01*
X686880Y185708D01*
G01X698815Y175708D02*
X699900Y174667D01*
X701140Y174250D01*
X702380Y174667D01*
X703465Y175916D01*
X704240Y177792D01*
X704550Y179667D01*
Y181958D01*
X704240Y183833D01*
X703465Y185500D01*
X702535Y186333D01*
X701450Y186750D01*
X700210Y186333D01*
X699280Y185500D01*
X698660Y184250D01*
X698350Y182583D01*
X698660Y181125D01*
X699435Y179667D01*
X700365Y178833D01*
X701450Y178625D01*
X702690Y179041D01*
X703620Y180083D01*
X704550Y181958D01*
G01X713850Y173833D02*
X713540Y174042D01*
Y174458D01*
X713850Y174667D01*
X714160Y174458D01*
Y174042D01*
X713850Y173833D01*
G01X722840Y176750D02*
X723770Y175291D01*
X725010Y174458D01*
X726405Y174250D01*
X727645Y174458D01*
X728885Y175500D01*
X729660Y176750D01*
X729815Y178000D01*
X729505Y179458D01*
X728420Y180500D01*
X727335Y180917D01*
X725940D01*
G01X727335D02*
X728265Y181542D01*
X729040Y182583D01*
X729350Y183833D01*
X729040Y185083D01*
X728265Y186125D01*
X726870Y186750D01*
X725475Y186542D01*
X724080Y185708D01*
G01X738340Y174250D02*
X738650Y176958D01*
X739115Y179250D01*
X739735Y181333D01*
X740510Y183625D01*
X741750Y186750D01*
X735550D01*
G01X695250Y249250D02*
Y261750D01*
X693390Y259250D01*
G01Y249250D02*
X697110D01*
G01X704705Y259667D02*
X705635Y260916D01*
X706720Y261542D01*
X707960Y261750D01*
X709510Y261333D01*
X710595Y260292D01*
X710905Y259042D01*
X710750Y257791D01*
X710130Y256750D01*
X707030Y254667D01*
X705635Y253208D01*
X704705Y251125D01*
X704395Y249250D01*
X710905D01*
G01X720050Y248833D02*
X719740Y249042D01*
Y249458D01*
X720050Y249667D01*
X720360Y249458D01*
Y249042D01*
X720050Y248833D01*
G01X732450Y261750D02*
X731210Y261333D01*
X730280Y260292D01*
X729660Y259042D01*
X729195Y257375D01*
X729040Y255500D01*
X729195Y253625D01*
X729660Y251958D01*
X730280Y250708D01*
X731210Y249667D01*
X732450Y249250D01*
X733690Y249667D01*
X734620Y250708D01*
X735240Y251958D01*
X735705Y253625D01*
X735860Y255500D01*
X735705Y257375D01*
X735240Y259042D01*
X734620Y260292D01*
X733690Y261333D01*
X732450Y261750D01*
G01X691995Y275916D02*
X693235Y274875D01*
X694630Y274250D01*
X695870D01*
X697110Y274875D01*
X698040Y275916D01*
X698505Y277375D01*
X698195Y278833D01*
X697420Y280083D01*
X696025Y280917D01*
X694165Y281333D01*
X693080Y282166D01*
X692615Y283625D01*
X692925Y285083D01*
X693700Y286125D01*
X694785Y286750D01*
X695870D01*
X696955Y286333D01*
X697885Y285292D01*
G01X705790Y286750D02*
X709510D01*
G01X707650D02*
Y274250D01*
G01X705790D02*
X709510D01*
G01X717105Y286750D02*
X722995D01*
X717105Y274250D01*
X722995D01*
G01X735550D02*
X729350D01*
Y286750D01*
X735550D01*
G01X733070Y280708D02*
X729350D01*
G01X808400Y293000D02*
Y-7000D01*
G01X812585Y-750D02*
Y11750D01*
X819715Y-750D01*
Y11750D01*
G01X828550Y-750D02*
X827310Y-542D01*
X826225Y291D01*
X825295Y1542D01*
X824675Y3000D01*
X824365Y4667D01*
Y6333D01*
X824675Y8000D01*
X825295Y9458D01*
X826225Y10708D01*
X827310Y11542D01*
X828550Y11750D01*
X829790Y11542D01*
X830875Y10708D01*
X831805Y9458D01*
X832425Y8000D01*
X832735Y6333D01*
Y4667D01*
X832425Y3000D01*
X831805Y1542D01*
X830875Y291D01*
X829790Y-542D01*
X828550Y-750D01*
G01X837385D02*
Y11750D01*
X844515Y-750D01*
Y11750D01*
G01X851335Y3416D02*
X855365D01*
G01X862650Y-750D02*
Y11750D01*
X866370D01*
X867610Y11125D01*
X868540Y9667D01*
X868850Y8000D01*
X868540Y6333D01*
X867765Y5083D01*
X866370Y4458D01*
X862650D01*
G01X875050Y11750D02*
Y-750D01*
X881250D01*
G01X886675D02*
X890550Y11750D01*
X894425Y-750D01*
G01X893030Y3625D02*
X888070D01*
G01X902950Y11750D02*
Y-750D01*
G01X899385Y11750D02*
X906515D01*
G01X918450Y-750D02*
X912250D01*
Y11750D01*
X918450D01*
G01X915970Y5708D02*
X912250D01*
G01X924340Y-750D02*
Y11750D01*
X927440D01*
X928680Y11125D01*
X929610Y10292D01*
X930385Y9042D01*
X931005Y7583D01*
X931160Y5500D01*
X931005Y3416D01*
X930385Y1958D01*
X929610Y708D01*
X928680Y-125D01*
X927440Y-750D01*
X924340D01*
G01X812585Y24250D02*
Y36750D01*
X819715Y24250D01*
Y36750D01*
G01X828550Y24250D02*
X827310Y24458D01*
X826225Y25291D01*
X825295Y26542D01*
X824675Y28000D01*
X824365Y29667D01*
Y31333D01*
X824675Y33000D01*
X825295Y34458D01*
X826225Y35708D01*
X827310Y36542D01*
X828550Y36750D01*
X829790Y36542D01*
X830875Y35708D01*
X831805Y34458D01*
X832425Y33000D01*
X832735Y31333D01*
Y29667D01*
X832425Y28000D01*
X831805Y26542D01*
X830875Y25291D01*
X829790Y24458D01*
X828550Y24250D01*
G01X837385D02*
Y36750D01*
X844515Y24250D01*
Y36750D01*
G01X851335Y28416D02*
X855365D01*
G01X862650Y24250D02*
Y36750D01*
X866370D01*
X867610Y36125D01*
X868540Y34667D01*
X868850Y33000D01*
X868540Y31333D01*
X867765Y30083D01*
X866370Y29458D01*
X862650D01*
G01X875050Y36750D02*
Y24250D01*
X881250D01*
G01X886675D02*
X890550Y36750D01*
X894425Y24250D01*
G01X893030Y28625D02*
X888070D01*
G01X902950Y36750D02*
Y24250D01*
G01X899385Y36750D02*
X906515D01*
G01X918450Y24250D02*
X912250D01*
Y36750D01*
X918450D01*
G01X915970Y30708D02*
X912250D01*
G01X924340Y24250D02*
Y36750D01*
X927440D01*
X928680Y36125D01*
X929610Y35292D01*
X930385Y34042D01*
X931005Y32583D01*
X931160Y30500D01*
X931005Y28416D01*
X930385Y26958D01*
X929610Y25708D01*
X928680Y24875D01*
X927440Y24250D01*
X924340D01*
G01X812585Y49250D02*
Y61750D01*
X819715Y49250D01*
Y61750D01*
G01X828550Y49250D02*
X827310Y49458D01*
X826225Y50291D01*
X825295Y51542D01*
X824675Y53000D01*
X824365Y54667D01*
Y56333D01*
X824675Y58000D01*
X825295Y59458D01*
X826225Y60708D01*
X827310Y61542D01*
X828550Y61750D01*
X829790Y61542D01*
X830875Y60708D01*
X831805Y59458D01*
X832425Y58000D01*
X832735Y56333D01*
Y54667D01*
X832425Y53000D01*
X831805Y51542D01*
X830875Y50291D01*
X829790Y49458D01*
X828550Y49250D01*
G01X837385D02*
Y61750D01*
X844515Y49250D01*
Y61750D01*
G01X851335Y53416D02*
X855365D01*
G01X862650Y49250D02*
Y61750D01*
X866370D01*
X867610Y61125D01*
X868540Y59667D01*
X868850Y58000D01*
X868540Y56333D01*
X867765Y55083D01*
X866370Y54458D01*
X862650D01*
G01X875050Y61750D02*
Y49250D01*
X881250D01*
G01X886675D02*
X890550Y61750D01*
X894425Y49250D01*
G01X893030Y53625D02*
X888070D01*
G01X902950Y61750D02*
Y49250D01*
G01X899385Y61750D02*
X906515D01*
G01X918450Y49250D02*
X912250D01*
Y61750D01*
X918450D01*
G01X915970Y55709D02*
X912250D01*
G01X924340Y49250D02*
Y61750D01*
X927440D01*
X928680Y61125D01*
X929610Y60292D01*
X930385Y59042D01*
X931005Y57583D01*
X931160Y55500D01*
X931005Y53416D01*
X930385Y51958D01*
X929610Y50708D01*
X928680Y49875D01*
X927440Y49250D01*
X924340D01*
G01X837850Y74250D02*
Y86750D01*
X841570D01*
X842810Y86125D01*
X843740Y84667D01*
X844050Y83000D01*
X843740Y81333D01*
X842965Y80083D01*
X841570Y79458D01*
X837850D01*
G01X850250Y86750D02*
Y74250D01*
X856450D01*
G01X861875D02*
X865750Y86750D01*
X869625Y74250D01*
G01X868230Y78625D02*
X863270D01*
G01X878150Y86750D02*
Y74250D01*
G01X874585Y86750D02*
X881715D01*
G01X893650Y74250D02*
X887450D01*
Y86750D01*
X893650D01*
G01X891170Y80708D02*
X887450D01*
G01X899540Y74250D02*
Y86750D01*
X902640D01*
X903880Y86125D01*
X904810Y85292D01*
X905585Y84042D01*
X906205Y82583D01*
X906360Y80500D01*
X906205Y78416D01*
X905585Y76958D01*
X904810Y75708D01*
X903880Y74875D01*
X902640Y74250D01*
X899540D01*
G01X837850Y99250D02*
Y111750D01*
X841570D01*
X842810Y111125D01*
X843740Y109667D01*
X844050Y108000D01*
X843740Y106333D01*
X842965Y105083D01*
X841570Y104458D01*
X837850D01*
G01X850250Y111750D02*
Y99250D01*
X856450D01*
G01X861875D02*
X865750Y111750D01*
X869625Y99250D01*
G01X868230Y103625D02*
X863270D01*
G01X878150Y111750D02*
Y99250D01*
G01X874585Y111750D02*
X881715D01*
G01X893650Y99250D02*
X887450D01*
Y111750D01*
X893650D01*
G01X891170Y105708D02*
X887450D01*
G01X899540Y99250D02*
Y111750D01*
X902640D01*
X903880Y111125D01*
X904810Y110292D01*
X905585Y109042D01*
X906205Y107583D01*
X906360Y105500D01*
X906205Y103416D01*
X905585Y101958D01*
X904810Y100708D01*
X903880Y99875D01*
X902640Y99250D01*
X899540D01*
G01X837850Y124250D02*
Y136750D01*
X841570D01*
X842810Y136125D01*
X843740Y134667D01*
X844050Y133000D01*
X843740Y131333D01*
X842965Y130083D01*
X841570Y129458D01*
X837850D01*
G01X850250Y136750D02*
Y124250D01*
X856450D01*
G01X861875D02*
X865750Y136750D01*
X869625Y124250D01*
G01X868230Y128625D02*
X863270D01*
G01X878150Y136750D02*
Y124250D01*
G01X874585Y136750D02*
X881715D01*
G01X893650Y124250D02*
X887450D01*
Y136750D01*
X893650D01*
G01X891170Y130708D02*
X887450D01*
G01X899540Y124250D02*
Y136750D01*
X902640D01*
X903880Y136125D01*
X904810Y135292D01*
X905585Y134042D01*
X906205Y132583D01*
X906360Y130500D01*
X906205Y128416D01*
X905585Y126958D01*
X904810Y125708D01*
X903880Y124875D01*
X902640Y124250D01*
X899540D01*
G01X837850Y149250D02*
Y161750D01*
X841570D01*
X842810Y161125D01*
X843740Y159667D01*
X844050Y158000D01*
X843740Y156333D01*
X842965Y155083D01*
X841570Y154458D01*
X837850D01*
G01X850250Y161750D02*
Y149250D01*
X856450D01*
G01X861875D02*
X865750Y161750D01*
X869625Y149250D01*
G01X868230Y153625D02*
X863270D01*
G01X878150Y161750D02*
Y149250D01*
G01X874585Y161750D02*
X881715D01*
G01X893650Y149250D02*
X887450D01*
Y161750D01*
X893650D01*
G01X891170Y155708D02*
X887450D01*
G01X899540Y149250D02*
Y161750D01*
X902640D01*
X903880Y161125D01*
X904810Y160292D01*
X905585Y159042D01*
X906205Y157583D01*
X906360Y155500D01*
X906205Y153416D01*
X905585Y151958D01*
X904810Y150708D01*
X903880Y149875D01*
X902640Y149250D01*
X899540D01*
G01X837850Y174250D02*
Y186750D01*
X841570D01*
X842810Y186125D01*
X843740Y184667D01*
X844050Y183000D01*
X843740Y181333D01*
X842965Y180083D01*
X841570Y179458D01*
X837850D01*
G01X850250Y186750D02*
Y174250D01*
X856450D01*
G01X861875D02*
X865750Y186750D01*
X869625Y174250D01*
G01X868230Y178625D02*
X863270D01*
G01X878150Y186750D02*
Y174250D01*
G01X874585Y186750D02*
X881715D01*
G01X893650Y174250D02*
X887450D01*
Y186750D01*
X893650D01*
G01X891170Y180708D02*
X887450D01*
G01X899540Y174250D02*
Y186750D01*
X902640D01*
X903880Y186125D01*
X904810Y185292D01*
X905585Y184042D01*
X906205Y182583D01*
X906360Y180500D01*
X906205Y178416D01*
X905585Y176958D01*
X904810Y175708D01*
X903880Y174875D01*
X902640Y174250D01*
X899540D01*
G01X837850Y199250D02*
Y211750D01*
X841570D01*
X842810Y211125D01*
X843740Y209667D01*
X844050Y208000D01*
X843740Y206333D01*
X842965Y205083D01*
X841570Y204458D01*
X837850D01*
G01X850250Y211750D02*
Y199250D01*
X856450D01*
G01X861875D02*
X865750Y211750D01*
X869625Y199250D01*
G01X868230Y203625D02*
X863270D01*
G01X878150Y211750D02*
Y199250D01*
G01X874585Y211750D02*
X881715D01*
G01X893650Y199250D02*
X887450D01*
Y211750D01*
X893650D01*
G01X891170Y205709D02*
X887450D01*
G01X899540Y199250D02*
Y211750D01*
X902640D01*
X903880Y211125D01*
X904810Y210292D01*
X905585Y209042D01*
X906205Y207583D01*
X906360Y205500D01*
X906205Y203417D01*
X905585Y201958D01*
X904810Y200708D01*
X903880Y199875D01*
X902640Y199250D01*
X899540D01*
G01X837850Y224250D02*
Y236750D01*
X841570D01*
X842810Y236125D01*
X843740Y234667D01*
X844050Y233000D01*
X843740Y231333D01*
X842965Y230083D01*
X841570Y229458D01*
X837850D01*
G01X850250Y236750D02*
Y224250D01*
X856450D01*
G01X861875D02*
X865750Y236750D01*
X869625Y224250D01*
G01X868230Y228625D02*
X863270D01*
G01X878150Y236750D02*
Y224250D01*
G01X874585Y236750D02*
X881715D01*
G01X893650Y224250D02*
X887450D01*
Y236750D01*
X893650D01*
G01X891170Y230709D02*
X887450D01*
G01X899540Y224250D02*
Y236750D01*
X902640D01*
X903880Y236125D01*
X904810Y235292D01*
X905585Y234042D01*
X906205Y232583D01*
X906360Y230500D01*
X906205Y228417D01*
X905585Y226958D01*
X904810Y225708D01*
X903880Y224875D01*
X902640Y224250D01*
X899540D01*
G01X837850Y249250D02*
Y261750D01*
X841570D01*
X842810Y261125D01*
X843740Y259667D01*
X844050Y258000D01*
X843740Y256333D01*
X842965Y255083D01*
X841570Y254458D01*
X837850D01*
G01X850250Y261750D02*
Y249250D01*
X856450D01*
G01X861875D02*
X865750Y261750D01*
X869625Y249250D01*
G01X868230Y253625D02*
X863270D01*
G01X878150Y261750D02*
Y249250D01*
G01X874585Y261750D02*
X881715D01*
G01X893650Y249250D02*
X887450D01*
Y261750D01*
X893650D01*
G01X891170Y255709D02*
X887450D01*
G01X899540Y249250D02*
Y261750D01*
X902640D01*
X903880Y261125D01*
X904810Y260292D01*
X905585Y259042D01*
X906205Y257583D01*
X906360Y255500D01*
X906205Y253417D01*
X905585Y251958D01*
X904810Y250708D01*
X903880Y249875D01*
X902640Y249250D01*
X899540D01*
G01X837850Y274250D02*
Y286750D01*
X841570D01*
X842810Y286125D01*
X843740Y284667D01*
X844050Y283000D01*
X843740Y281333D01*
X842965Y280083D01*
X841570Y279458D01*
X837850D01*
G01X850250Y286750D02*
Y274250D01*
X856450D01*
G01X861875D02*
X865750Y286750D01*
X869625Y274250D01*
G01X868230Y278625D02*
X863270D01*
G01X878150Y286750D02*
Y274250D01*
G01X874585Y286750D02*
X881715D01*
G01X893650Y274250D02*
X887450D01*
Y286750D01*
X893650D01*
G01X891170Y280708D02*
X887450D01*
G01X899540Y274250D02*
Y286750D01*
X902640D01*
X903880Y286125D01*
X904810Y285292D01*
X905585Y284042D01*
X906205Y282583D01*
X906360Y280500D01*
X906205Y278416D01*
X905585Y276958D01*
X904810Y275708D01*
X903880Y274875D01*
X902640Y274250D01*
X899540D01*
G01X935500Y293000D02*
Y-7000D01*
G01X965105Y134667D02*
X966035Y135916D01*
X967120Y136542D01*
X968360Y136750D01*
X969910Y136333D01*
X970995Y135292D01*
X971305Y134042D01*
X971150Y132791D01*
X970530Y131750D01*
X967430Y129667D01*
X966035Y128208D01*
X965105Y126125D01*
X964795Y124250D01*
X971305D01*
G01X980450Y136750D02*
X979210Y136333D01*
X978280Y135292D01*
X977660Y134042D01*
X977195Y132375D01*
X977040Y130500D01*
X977195Y128625D01*
X977660Y126958D01*
X978280Y125708D01*
X979210Y124667D01*
X980450Y124250D01*
X981690Y124667D01*
X982620Y125708D01*
X983240Y126958D01*
X983705Y128625D01*
X983860Y130500D01*
X983705Y132375D01*
X983240Y134042D01*
X982620Y135292D01*
X981690Y136333D01*
X980450Y136750D01*
G01X965105Y159667D02*
X966035Y160916D01*
X967120Y161542D01*
X968360Y161750D01*
X969910Y161333D01*
X970995Y160292D01*
X971305Y159042D01*
X971150Y157791D01*
X970530Y156750D01*
X967430Y154667D01*
X966035Y153208D01*
X965105Y151125D01*
X964795Y149250D01*
X971305D01*
G01X980450Y161750D02*
X979210Y161333D01*
X978280Y160292D01*
X977660Y159042D01*
X977195Y157375D01*
X977040Y155500D01*
X977195Y153625D01*
X977660Y151958D01*
X978280Y150708D01*
X979210Y149667D01*
X980450Y149250D01*
X981690Y149667D01*
X982620Y150708D01*
X983240Y151958D01*
X983705Y153625D01*
X983860Y155500D01*
X983705Y157375D01*
X983240Y159042D01*
X982620Y160292D01*
X981690Y161333D01*
X980450Y161750D01*
G01X968050Y174250D02*
Y186750D01*
X966190Y184250D01*
G01Y174250D02*
X969910D01*
G01X980450D02*
X981535Y174458D01*
X982775Y175083D01*
X983550Y176125D01*
X983860Y177583D01*
X983550Y179041D01*
X982620Y180292D01*
X981225Y180917D01*
X979675D01*
X978745Y181333D01*
X977970Y182375D01*
X977660Y183833D01*
X978125Y185292D01*
X979210Y186333D01*
X980450Y186750D01*
X981690Y186333D01*
X982775Y185292D01*
X983240Y183833D01*
X982930Y182375D01*
X982155Y181333D01*
X981225Y180917D01*
X979675D01*
X978280Y180292D01*
X977350Y179041D01*
X977040Y177583D01*
X977350Y176125D01*
X978125Y175083D01*
X979365Y174458D01*
X980450Y174250D01*
G01X959215Y250708D02*
X960300Y249667D01*
X961540Y249250D01*
X962780Y249667D01*
X963865Y250916D01*
X964640Y252792D01*
X964950Y254667D01*
Y256958D01*
X964640Y258833D01*
X963865Y260500D01*
X962935Y261333D01*
X961850Y261750D01*
X960610Y261333D01*
X959680Y260500D01*
X959060Y259250D01*
X958750Y257583D01*
X959060Y256125D01*
X959835Y254667D01*
X960765Y253833D01*
X961850Y253625D01*
X963090Y254041D01*
X964020Y255083D01*
X964950Y256958D01*
G01X974250Y249250D02*
Y261750D01*
X972390Y259250D01*
G01Y249250D02*
X976110D01*
G01X986650Y261750D02*
X985410Y261333D01*
X984480Y260292D01*
X983860Y259042D01*
X983395Y257375D01*
X983240Y255500D01*
X983395Y253625D01*
X983860Y251958D01*
X984480Y250708D01*
X985410Y249667D01*
X986650Y249250D01*
X987890Y249667D01*
X988820Y250708D01*
X989440Y251958D01*
X989905Y253625D01*
X990060Y255500D01*
X989905Y257375D01*
X989440Y259042D01*
X988820Y260292D01*
X987890Y261333D01*
X986650Y261750D01*
G01X961850Y274250D02*
X960610Y274458D01*
X959525Y275291D01*
X958595Y276542D01*
X957975Y278000D01*
X957665Y279667D01*
Y281333D01*
X957975Y283000D01*
X958595Y284458D01*
X959525Y285708D01*
X960610Y286542D01*
X961850Y286750D01*
X963090Y286542D01*
X964175Y285708D01*
X965105Y284458D01*
X965725Y283000D01*
X966035Y281333D01*
Y279667D01*
X965725Y278000D01*
X965105Y276542D01*
X964175Y275291D01*
X963090Y274458D01*
X961850Y274250D01*
G01X963090Y277583D02*
X964950Y274250D01*
G01X974250Y286750D02*
Y274250D01*
G01X970685Y286750D02*
X977815D01*
G01X986650Y274250D02*
Y279875D01*
X983550Y286750D01*
G01X989750D02*
X986650Y279875D01*
G01X971305Y9667D02*
X972235Y10917D01*
X973320Y11542D01*
X974560Y11750D01*
X976110Y11333D01*
X977195Y10292D01*
X977505Y9042D01*
X977350Y7791D01*
X976730Y6750D01*
X973630Y4667D01*
X972235Y3208D01*
X971305Y1125D01*
X970995Y-750D01*
X977505D01*
G01X976110Y24250D02*
Y36750D01*
X970375Y27792D01*
X978125D01*
G01X971305Y59667D02*
X972235Y60916D01*
X973320Y61542D01*
X974560Y61750D01*
X976110Y61333D01*
X977195Y60292D01*
X977505Y59042D01*
X977350Y57791D01*
X976730Y56750D01*
X973630Y54667D01*
X972235Y53208D01*
X971305Y51125D01*
X970995Y49250D01*
X977505D01*
G01X970840Y76750D02*
X971770Y75291D01*
X973010Y74458D01*
X974405Y74250D01*
X975645Y74458D01*
X976885Y75500D01*
X977660Y76750D01*
X977815Y78000D01*
X977505Y79458D01*
X976420Y80500D01*
X975335Y80917D01*
X973940D01*
G01X975335D02*
X976265Y81542D01*
X977040Y82583D01*
X977350Y83833D01*
X977040Y85083D01*
X976265Y86125D01*
X974870Y86750D01*
X973475Y86542D01*
X972080Y85708D01*
G01X971305Y109667D02*
X972235Y110916D01*
X973320Y111542D01*
X974560Y111750D01*
X976110Y111333D01*
X977195Y110292D01*
X977505Y109042D01*
X977350Y107791D01*
X976730Y106750D01*
X973630Y104667D01*
X972235Y103208D01*
X971305Y101125D01*
X970995Y99250D01*
X977505D01*
G01X971305Y204458D02*
X972390Y205917D01*
X973320Y206750D01*
X974560Y207166D01*
X975645Y206750D01*
X976420Y205917D01*
X977040Y204667D01*
X977195Y203208D01*
X977040Y201958D01*
X976420Y200708D01*
X975490Y199667D01*
X974405Y199250D01*
X973165Y199667D01*
X972080Y200916D01*
X971460Y202792D01*
X971305Y204875D01*
X971615Y207583D01*
X972080Y209042D01*
X972855Y210500D01*
X973940Y211542D01*
X975025Y211750D01*
X976110Y211333D01*
X976885Y210292D01*
G01X974250Y224250D02*
X975335Y224458D01*
X976575Y225083D01*
X977350Y226125D01*
X977660Y227583D01*
X977350Y229041D01*
X976420Y230292D01*
X975025Y230917D01*
X973475D01*
X972545Y231333D01*
X971770Y232375D01*
X971460Y233833D01*
X971925Y235292D01*
X973010Y236333D01*
X974250Y236750D01*
X975490Y236333D01*
X976575Y235292D01*
X977040Y233833D01*
X976730Y232375D01*
X975955Y231333D01*
X975025Y230917D01*
X973475D01*
X972080Y230292D01*
X971150Y229041D01*
X970840Y227583D01*
X971150Y226125D01*
X971925Y225083D01*
X973165Y224458D01*
X974250Y224250D01*
G54D11*
X23837Y12929D03*
X33837D03*
X42400Y56000D03*
X32400D03*
X37400Y66000D03*
X62400Y56000D03*
X52400D03*
X57400Y66000D03*
X47400D03*
X66002Y12929D03*
X76002D03*
X67400Y66000D03*
X256888Y2189D03*
X260589Y14000D03*
X256888Y25811D03*
Y31378D03*
X260589Y43189D03*
Y55000D03*
X256888Y66811D03*
X272400Y14000D03*
Y43189D03*
Y55000D03*
X574350Y30500D03*
Y180500D03*
G54D12*
X27872Y32220D03*
X71416D03*
X574350Y5500D03*
G54D13*
X18345Y43835D03*
X81337D03*
X574350Y105500D03*
G54D14*
X25155Y391055D03*
Y422945D03*
X41100Y407000D03*
X57045Y391055D03*
Y422945D03*
X95155Y391055D03*
Y422945D03*
X111100Y407000D03*
X127045Y391055D03*
Y422945D03*
X165155Y391055D03*
Y422945D03*
X181100Y407000D03*
X197045Y391055D03*
Y422945D03*
X235155Y391055D03*
Y422945D03*
X251100Y407000D03*
X267045Y391055D03*
Y422945D03*
X574350Y130500D03*
G54D15*
X59361Y378000D03*
X79361D03*
X129361D03*
X149361D03*
X199361D03*
X219361D03*
X269361D03*
X289361D03*
X574350Y230500D03*
G54D16*
X114400Y63000D03*
Y73000D03*
X124400Y63000D03*
Y73000D03*
X134400Y63000D03*
Y73000D03*
X144400Y63000D03*
Y73000D03*
X154400Y63000D03*
Y73000D03*
X164400Y63000D03*
Y73000D03*
X174400Y63000D03*
Y73000D03*
X184400Y63000D03*
Y73000D03*
X194400Y63000D03*
Y73000D03*
X204400Y63000D03*
Y73000D03*
X574350Y155500D03*
G54D17*
X141400Y23654D03*
Y33654D03*
Y43654D03*
X151400Y23654D03*
Y33654D03*
Y43654D03*
X574350Y205500D03*
G54D18*
X172051Y5524D03*
Y17335D03*
X574350Y55500D03*
G54D19*
X313620Y390043D03*
X328580D03*
X321100Y403000D03*
X574350Y80500D03*
M02*
