G04 ================== begin FILE IDENTIFICATION RECORD ==================*
G04 Layout Name:  E:/material/lool Inds Vibration/hardware/v2.0/pcb/vibration.brd*
G04 Film Name:    POWER*
G04 File Format:  Gerber RS274X*
G04 File Origin:  Cadence Allegro 16.6-2015-S065*
G04 Origin Date:  Sat Jul 16 01:22:29 2016*
G04 *
G04 Layer:  ETCH/POWER*
G04 Layer:  PIN/POWER*
G04 Layer:  VIA CLASS/POWER*
G04 *
G04 Offset:    (0.000 0.000)*
G04 Mirror:    No*
G04 Mode:      Positive*
G04 Rotation:  0*
G04 FullContactRelief:  No*
G04 UndefLineWidth:     1.000*
G04 ================== end FILE IDENTIFICATION RECORD ====================*
%FSLAX25Y25*MOIN*%
%IR0*IPPOS*OFA0.00000B0.00000*MIA0B0*SFA1.00000B1.00000*%
%ADD12C,.003937*%
%ADD11P,.063921X8X22.5*%
%ADD10C,.016*%
%ADD17C,.035433*%
%ADD15C,.059055*%
%ADD13C,.070866*%
%ADD20C,.098425*%
%ADD19C,.062992*%
%ADD18R,.059055X.059055*%
%ADD14C,.094488*%
%ADD16R,.070866X.070866*%
%ADD21C,.015*%
%ADD26R,.08687X.08687*%
%ADD38C,.11043*%
%ADD37C,.11443*%
%ADD28C,.110492*%
%ADD23C,.1378*%
%ADD22C,.036004*%
%ADD35C,.07106*%
%ADD25C,.07506*%
%ADD29C,.051438*%
%ADD33R,.07506X.07506*%
%ADD34C,.04947*%
%ADD27C,.055374*%
%ADD36R,.071058X.071058*%
%ADD24C,.08687*%
%ADD32R,.07506X.075058*%
%ADD31C,.074996*%
%ADD30C,.078996*%
G75*
%LPD*%
G75*
G36*
G01X10000Y100D02*
G02X4828Y1559I0J9900D01*
G02X4900Y2275I209J341D01*
G03X2560Y4492I-618J1691D01*
G02X1849Y4382I-383J117D01*
G02X100Y10000I8151J5618D01*
G01Y248200D01*
X59918D01*
X59957Y248050D01*
G03X63443I1743J450D01*
G01X63482Y248200D01*
X263100D01*
Y189000D01*
X242000D01*
Y196241D01*
G03Y199359I-900J1559D01*
G01Y229708D01*
G03Y233308I8J1800D01*
G01Y235900D01*
X216000D01*
G02X215800Y236100I0J200D01*
G03X212200I-1800J0D01*
G02X212000Y235900I-200J0D01*
G01X180797D01*
G02X180543Y236609I0J400D01*
G03X181196Y238130I-1143J1391D01*
G02X181686Y238548I399J29D01*
G03X183897Y240412I414J1752D01*
G02X184369Y240830I399J25D01*
G03X182903Y242488I331J1770D01*
G02X182431Y242070I-399J-25D01*
G03X180304Y240170I-331J-1770D01*
G02X179814Y239752I-399J-29D01*
G03X178257Y236609I-414J-1752D01*
G02X178003Y235900I-254J-309D01*
G01X152813D01*
G03X149587I-1613J-800D01*
G01X147513D01*
G03X144287I-1613J-800D01*
G01X142313D01*
G03X139087I-1613J-800D01*
G01X137513D01*
G03X135491Y236853I-1613J-800D01*
G02X135000Y237243I-91J390D01*
G01Y239800D01*
X55100D01*
Y242114D01*
X54514Y242700D01*
X42480D01*
G02X42084Y243155I0J400D01*
G03X38517I-1783J246D01*
G02X38121Y242700I-396J-55D01*
G01X34000D01*
Y210825D01*
G03X33363Y209130I1138J-1395D01*
G02X33229Y208907I-197J-33D01*
G03X33800Y205400I571J-1707D01*
G02X34000Y205200I0J-200D01*
G01Y196280D01*
G02X33546Y195884I-400J0D01*
G03X32057Y195397I-241J-1784D01*
G02X31484Y195415I-277J288D01*
G03X31405Y192903I-1328J-1215D01*
G02X31977Y192885I277J-288D01*
G03X33546Y192316I1328J1215D01*
G02X34000Y191920I54J-396D01*
G01Y172100D01*
X48402D01*
G02X48802Y171718I0J-400D01*
G03X52398I1798J82D01*
G02X52798Y172100I400J-18D01*
G01X88173D01*
G02X88560Y171598I0J-400D01*
G03X92040I1740J-461D01*
G02X92427Y172100I387J102D01*
G01X93400D01*
Y100700D01*
X82614D01*
X74886Y108429D01*
X74924Y108546D01*
G03X75013Y109021I-1709J564D01*
G02X75191Y109210I200J-10D01*
G03X74808Y112790I-191J1790D01*
G02X74372Y113117I-43J398D01*
G03X74366Y113149I-1772J-315D01*
G02X74821Y113622I392J78D01*
G03X74973Y117195I282J1778D01*
G02X74554Y117505I-29J399D01*
G03X71541Y118387I-1754J-405D01*
G02X70923Y118460I-280J286D01*
G03X68467Y119040I-1523J-960D01*
G02X68197Y119100I-104J171D01*
G03X67600Y119659I-1497J-1000D01*
G01Y120042D01*
G03Y123359I-700J1659D01*
G01Y143603D01*
G02X68309Y143857I400J0D01*
G03X71020Y146224I1391J1143D01*
G02X71010Y146484I147J136D01*
G03X71350Y147195I-1414J1114D01*
G02X71915Y147465I390J-90D01*
G03X74498Y149187I785J1620D01*
G02X74655Y149394I200J11D01*
G03X75795Y152121I-379J1760D01*
G02X75834Y152380I169J107D01*
G03X73145Y152781I-1170J1368D01*
G02X73106Y152522I-169J-107D01*
G03X72697Y152018I1170J-1368D01*
G02X72048Y151944I-351J192D01*
G03X71853Y152132I-1345J-1196D01*
G02X71809Y152389I128J154D01*
G03X69112Y151927I-1546J922D01*
G02X69156Y151671I-128J-154D01*
G03X68945Y151140I1546J-923D01*
G02X68275Y150941I-390J87D01*
G03X67750Y151297I-1257J-1288D01*
G02X67638Y151532I81J183D01*
G03X64104Y152118I-1738J468D01*
G02X63922Y151931I-200J13D01*
G03X63534Y151852I162J-1793D01*
G02X63023Y152136I-123J381D01*
G03X59634Y150964I-1747J-436D01*
G02X59269Y150400I-365J-164D01*
G01X58463D01*
G02X58161Y151062I0J400D01*
G03X55003Y152203I-1358J1181D01*
G02X54813Y151998I-200J-5D01*
G03X53136Y150560I87J-1798D01*
G01X53103Y150400D01*
X27586D01*
X27000Y149814D01*
Y113264D01*
G02X26527Y112870I-400J0D01*
G03Y109330I-327J-1770D01*
G02X27000Y108937I73J-393D01*
G01Y101200D01*
X56700D01*
Y94042D01*
G03Y91358I1200J-1342D01*
G01Y71700D01*
X91800D01*
Y30986D01*
X95500Y27286D01*
Y100D01*
X10000D01*
G37*
G36*
G01X265100Y189000D02*
Y250200D01*
X172406D01*
G02X172095Y250852I0J400D01*
G03X168957Y252447I-1397J1135D01*
G02X168485Y252159I-387J102D01*
G03X166300Y250400I-385J-1759D01*
G02X166100Y250200I-200J0D01*
G01X165400D01*
G02X165200Y250400I0J200D01*
G03X163301Y252198I-1800J0D01*
G02X162883Y252652I-22J399D01*
G03X161199Y251102I-1783J248D01*
G02X161617Y250648I22J-399D01*
G03X161600Y250400I1783J-248D01*
G02X161400Y250200I-200J0D01*
G01X62293D01*
X62263Y250210D01*
G03X61137I-563J-1710D01*
G01X61107Y250200D01*
X60620D01*
Y250474D01*
X60668Y250530D01*
G03X57741Y250800I-1368J1170D01*
G02X57395Y250200I-346J-200D01*
G01X100D01*
Y263000D01*
X2763D01*
G03X5801I1519J966D01*
G01X32400D01*
Y268193D01*
G02X32933Y268570I400J0D01*
G03X35076Y271194I599J1698D01*
G02X35419Y271800I343J206D01*
G01X57168D01*
G03X60109I1470J1039D01*
G01X63500D01*
Y258300D01*
X101500D01*
Y266800D01*
X126632D01*
G03X129727I1547J920D01*
G01X136520D01*
G02X136851Y266175I0J-400D01*
G03X137300Y263691I1488J-1013D01*
G01Y258100D01*
X174000D01*
Y268400D01*
X195338D01*
G02X195735Y267949I0J-400D01*
G03X197301Y265934I1786J-229D01*
G02X197570Y265294I-49J-397D01*
G03X199219Y265987I1430J-1094D01*
G02X198950Y266627I49J397D01*
G03X199306Y267949I-1430J1094D01*
G02X199703Y268400I397J51D01*
G01X204400D01*
Y257200D01*
X239900D01*
Y270600D01*
X272539D01*
X272583Y270460D01*
G03X274791Y269268I1717J540D01*
G02X275300Y268883I109J-385D01*
G01Y264486D01*
X275886Y263900D01*
X279254D01*
G03X281823I1284J1261D01*
G01X284200D01*
Y189000D01*
X265100D01*
G37*
G36*
G01X286200D02*
Y234090D01*
G02X286891Y234364I400J0D01*
G03Y236836I1309J1236D01*
G02X286200Y237110I-291J275D01*
G01Y265900D01*
X282180D01*
G03X278897I-1642J-739D01*
G01X277300D01*
Y272600D01*
X275125D01*
G03X273475I-825J-1600D01*
G01X271306D01*
G02X270959Y273200I0J400D01*
G03X267841I-1559J900D01*
G02X267494Y272600I-346J-200D01*
G01X250665D01*
G02X250435Y273327I0J400D01*
G03X248365I-1035J1473D01*
G02X248135Y272600I-230J-327D01*
G01X237900D01*
Y259200D01*
X206400D01*
Y270400D01*
X176991D01*
G02X176593Y270836I0J400D01*
G03X173007I-1793J164D01*
G02X172609Y270400I-398J-36D01*
G01X172000D01*
Y260100D01*
X139300D01*
Y263639D01*
G03Y266683I-961J1522D01*
G01Y268800D01*
X129620D01*
G03X126739I-1441J-1080D01*
G01X99500D01*
Y260300D01*
X65500D01*
Y269689D01*
G02X66227Y269919I400J0D01*
G03Y271990I1473J1035D01*
G02X65500Y272220I-327J230D01*
G01Y273800D01*
X60161D01*
G03X57117I-1522J-961D01*
G01X30400D01*
Y265000D01*
X5756D01*
G03X2808I-1474J-1034D01*
G01X100D01*
Y280400D01*
X306300D01*
Y211797D01*
G02X305591Y211543I-400J0D01*
G03Y209257I-1391J-1143D01*
G02X306300Y209003I309J-254D01*
G01Y189000D01*
X286200D01*
G37*
G36*
G01X308300D02*
Y235025D01*
G02X308936Y235348I400J0D01*
G03Y238252I1064J1452D01*
G02X308300Y238575I-236J323D01*
G01Y282400D01*
X306791D01*
G02X306393Y282836I0J400D01*
G03X302807I-1793J164D01*
G02X302409Y282400I-398J-36D01*
G01X236691D01*
G02X236293Y282836I0J400D01*
G03X232707I-1793J164D01*
G02X232309Y282400I-398J-36D01*
G01X167291D01*
G02X166893Y282836I0J400D01*
G03X163307I-1793J164D01*
G02X162909Y282400I-398J-36D01*
G01X97691D01*
G02X97293Y282836I0J400D01*
G03X93707I-1793J164D01*
G02X93309Y282400I-398J-36D01*
G01X6148D01*
G02X5809Y283012I0J400D01*
G03X2755I-1527J954D01*
G02X2416Y282400I-339J-212D01*
G01X100D01*
Y313200D01*
X2653D01*
G03X5911I1629J766D01*
G01X48235D01*
G02X48465Y312473I0J-400D01*
G03X50535I1035J-1473D01*
G02X50765Y313200I230J327D01*
G01X56698D01*
X56750Y313080D01*
G03X60050I1650J720D01*
G01X60102Y313200D01*
X118135D01*
G02X118365Y312473I0J-400D01*
G03X120435I1035J-1473D01*
G02X120665Y313200I230J327D01*
G01X126742D01*
G03X130059I1659J700D01*
G01X188135D01*
G02X188365Y312473I0J-400D01*
G03X190435I1035J-1473D01*
G02X190665Y313200I230J327D01*
G01X196787D01*
G03X200013I1613J800D01*
G01X258335D01*
G02X258565Y312473I0J-400D01*
G03X260635I1035J-1473D01*
G02X260865Y313200I230J327D01*
G01X266726D01*
G03X270043I1659J700D01*
G01X304700D01*
Y318435D01*
G03Y321045I-1240J1305D01*
G01Y326600D01*
X328600D01*
Y265761D01*
X328460Y265717D01*
G03Y262283I540J-1717D01*
G01X328600Y262239D01*
Y189000D01*
X308300D01*
G37*
G36*
G01X330600D02*
Y197294D01*
G02X331200Y197641I400J0D01*
G03Y200759I900J1559D01*
G02X330600Y201106I-200J346D01*
G01Y240496D01*
G02X331082Y240888I400J0D01*
G03Y244412I368J1762D01*
G02X330600Y244804I-82J392D01*
G01Y263175D01*
G03Y264825I-1600J825D01*
G01Y328600D01*
X302602D01*
X302550Y328720D01*
G03X302046Y326611I-1650J-720D01*
G02X302700Y326303I254J-309D01*
G01Y321372D01*
G03Y318108I760J-1632D01*
G01Y315200D01*
X287264D01*
G02X286870Y315673I0J400D01*
G03X283330I-1770J327D01*
G02X282936Y315200I-393J-73D01*
G01X269630D01*
G03X267139I-1245J-1300D01*
G01X217864D01*
G02X217470Y315673I0J400D01*
G03X213930I-1770J327D01*
G02X213536Y315200I-393J-73D01*
G01X199742D01*
G03X197058I-1342J-1200D01*
G01X147264D01*
G02X146870Y315673I0J400D01*
G03X143330I-1770J327D01*
G02X142936Y315200I-393J-73D01*
G01X129645D01*
G03X127155I-1245J-1300D01*
G01X77864D01*
G02X77470Y315673I0J400D01*
G03X73930I-1770J327D01*
G02X73536Y315200I-393J-73D01*
G01X59532D01*
G03X57268I-1132J-1400D01*
G01X5593D01*
G03X2971I-1311J-1234D01*
G01X100D01*
Y343900D01*
X2475D01*
X2498Y343727D01*
G03X6066I1784J239D01*
G01X6090Y343900D01*
X34075D01*
G03X36925I1425J1100D01*
G01X47475D01*
G03X50325I1425J1100D01*
G01X72894D01*
X72920Y343730D01*
G03X76480I1780J270D01*
G01X76506Y343900D01*
X89475D01*
G03X92325I1425J1100D01*
G01X103975D01*
G03X106825I1425J1100D01*
G01X117275D01*
G03X120125I1425J1100D01*
G01X143050D01*
X143076Y343730D01*
G03X146636I1780J270D01*
G01X146661Y343900D01*
X159575D01*
G03X162425I1425J1100D01*
G01X173575D01*
G03X176425I1425J1100D01*
G01X187575D01*
G03X190425I1425J1100D01*
G01X212994D01*
X213020Y343730D01*
G03X216580I1780J270D01*
G01X216606Y343900D01*
X229475D01*
G03X232325I1425J1100D01*
G01X243775D01*
G03X246625I1425J1100D01*
G01X257775D01*
G03X260625I1425J1100D01*
G01X282794D01*
X282820Y343730D01*
G03X286380I1780J270D01*
G01X286406Y343900D01*
X293700D01*
Y338000D01*
X308698D01*
X308713Y337998D01*
G03X309252I270J1780D01*
G01X309267Y338000D01*
X350900D01*
Y279825D01*
G03Y278175I1600J-825D01*
G01Y230397D01*
G02X350191Y230143I-400J0D01*
G03Y227857I-1391J-1143D01*
G02X350900Y227603I309J-254D01*
G01Y222244D01*
G02X350282Y221909I-400J0D01*
G03Y218891I-982J-1509D01*
G02X350900Y218556I218J-335D01*
G01Y189000D01*
X330600D01*
G37*
G36*
G01X100Y417000D02*
G02X2126Y423000I9900J0D01*
G02X2778Y422977I318J-242D01*
G03X5545Y425248I1504J989D01*
G02X5650Y425893I281J285D01*
G02X10000Y426900I4350J-8893D01*
G01X20415D01*
G02X20735Y426260I0J-400D01*
G03X29575I4420J-3315D01*
G02X29895Y426900I320J240D01*
G01X52305D01*
G02X52625Y426260I0J-400D01*
G03X61465I4420J-3315D01*
G02X61785Y426900I320J240D01*
G01X90415D01*
G02X90735Y426260I0J-400D01*
G03X99575I4420J-3315D01*
G02X99895Y426900I320J240D01*
G01X122305D01*
G02X122625Y426260I0J-400D01*
G03X131465I4420J-3315D01*
G02X131785Y426900I320J240D01*
G01X160415D01*
G02X160735Y426260I0J-400D01*
G03X169575I4420J-3315D01*
G02X169895Y426900I320J240D01*
G01X192305D01*
G02X192625Y426260I0J-400D01*
G03X201465I4420J-3315D01*
G02X201785Y426900I320J240D01*
G01X230415D01*
G02X230735Y426260I0J-400D01*
G03X239575I4420J-3315D01*
G02X239895Y426900I320J240D01*
G01X262305D01*
G02X262625Y426260I0J-400D01*
G03X271465I4420J-3315D01*
G02X271785Y426900I320J240D01*
G01X301600D01*
Y367300D01*
X328800D01*
Y354544D01*
G02X328200Y354197I-400J0D01*
G03Y351079I-900J-1559D01*
G02X328800Y350733I200J-346D01*
G01Y340000D01*
X310776D01*
X310742Y340158D01*
G03X307223I-1760J-380D01*
G01X307189Y340000D01*
X295700D01*
Y345900D01*
X278408D01*
G02X278043Y346464I0J400D01*
G03X274757I-1643J736D01*
G02X274392Y345900I-365J-164D01*
G01X260759D01*
G03X257641I-1559J-900D01*
G01X246759D01*
G03X243641I-1559J-900D01*
G01X232459D01*
G03X229341I-1559J-900D01*
G01X208360D01*
G02X208004Y346482I0J400D01*
G03X204796I-1604J818D01*
G02X204440Y345900I-356J-182D01*
G01X190559D01*
G03X187441I-1559J-900D01*
G01X176559D01*
G03X173441I-1559J-900D01*
G01X162559D01*
G03X159441I-1559J-900D01*
G01X138486D01*
G02X138107Y346427I0J400D01*
G03X134693I-1707J573D01*
G02X134314Y345900I-379J-127D01*
G01X120259D01*
G03X117141I-1559J-900D01*
G01X106959D01*
G03X103841I-1559J-900D01*
G01X92459D01*
G03X89341I-1559J-900D01*
G01X68486D01*
G02X68107Y346427I0J400D01*
G03X64693I-1707J573D01*
G02X64314Y345900I-379J-127D01*
G01X50459D01*
G03X47341I-1559J-900D01*
G01X37059D01*
G03X33941I-1559J-900D01*
G01X100D01*
Y417000D01*
G37*
G36*
G01X58700Y73700D02*
Y91087D01*
G03Y94313I-800J1613D01*
G01Y103200D01*
X29000D01*
Y110981D01*
G02X29479Y111373I400J0D01*
G03Y114901I358J1764D01*
G02X29000Y115293I-79J392D01*
G01Y148400D01*
X54875D01*
G03X54926I26J1800D01*
G01X63617D01*
X63641Y148394D01*
G03X64528I443J1745D01*
G01X64552Y148400D01*
X65600D01*
Y122945D01*
G03Y120455I1300J-1245D01*
G01Y119525D01*
G03Y116675I1100J-1425D01*
G01Y114886D01*
X68614Y111872D01*
X68500Y111732D01*
G03X71032Y109200I1400J-1132D01*
G01X71172Y109314D01*
X71413Y109072D01*
X71418Y108997D01*
G03X73102Y107313I1797J113D01*
G01X73178Y107308D01*
X81786Y98700D01*
X93400D01*
Y90800D01*
X105791D01*
X105809Y90620D01*
G03X107099Y89071I1791J180D01*
G02X107244Y88380I-111J-384D01*
G03X108901Y88729I1156J-1380D01*
G02X108756Y89420I111J384D01*
G03X109391Y90620I-1156J1380D01*
G01X109409Y90800D01*
X115600D01*
Y73700D01*
X58700D01*
G37*
G36*
G01X117600D02*
Y92800D01*
X111998D01*
G02X111598Y93182I0J400D01*
G03X108971Y94698I-1798J-82D01*
G02X108389Y95098I-184J355D01*
G03X108396Y95425I-1789J203D01*
G02X108760Y95851I399J28D01*
G03X108518Y99443I-160J1793D01*
G02X108100Y99853I-18J400D01*
G03X106382Y98102I-1800J47D01*
G02X106800Y97692I18J-400D01*
G03X106804Y97519I1800J-48D01*
G02X106440Y97093I-399J-28D01*
G03X107429Y93702I159J-1793D01*
G02X108011Y93302I184J-355D01*
G03X108002Y93182I1789J-202D01*
G02X107602Y92800I-400J18D01*
G01X95400D01*
Y107612D01*
G02X96002Y107957I400J0D01*
G03Y111065I909J1554D01*
G02X95400Y111410I-202J345D01*
G01Y120574D01*
G02X96009Y120915I400J0D01*
G03Y123985I941J1535D01*
G02X95400Y124326I-209J341D01*
G01Y145920D01*
G02X95854Y146317I400J0D01*
G03Y149883I245J1783D01*
G02X95400Y150280I-55J396D01*
G01Y174100D01*
X38364D01*
G02X37970Y174573I0J400D01*
G03X36200Y176700I-1770J327D01*
G02X36000Y176900I0J200D01*
G01Y192300D01*
G02X36410Y192700I400J0D01*
G03X37824Y193331I45J1800D01*
G02X38108Y193351I152J-130D01*
G03X37931Y195869I1192J1349D01*
G02X37647Y195849I-152J130D01*
G03X36410Y196300I-1192J-1349D01*
G02X36000Y196699I-10J400D01*
G01Y207849D01*
G03Y211010I-862J1580D01*
G01Y221814D01*
G02X36527Y222193I400J0D01*
G03X38575Y222868I573J1707D01*
G02X39084Y222995I328J-229D01*
G03X41162Y223316I816J1605D01*
G02X41422Y223335I140J-143D01*
G03X44240Y224341I1072J1446D01*
G02X44694Y224638I388J-98D01*
G03X43249Y226852I300J1775D01*
G02X42794Y226556I-388J98D01*
G03X41232Y226064I-300J-1775D01*
G02X40972Y226046I-140J143D01*
G03X38425Y225632I-1072J-1446D01*
G02X37916Y225505I-328J229D01*
G03X36527Y225607I-816J-1605D01*
G02X36000Y225986I-127J379D01*
G01Y240700D01*
X53100D01*
Y237800D01*
X133000D01*
Y233848D01*
G02X133057Y233191I-197J-348D01*
G03X135755Y232707I1143J-1391D01*
G02X136064Y233307I345J202D01*
G03X137242Y233900I-164J1793D01*
G01X139358D01*
G03X142042I1342J1200D01*
G01X144558D01*
G03X147242I1342J1200D01*
G01X149858D01*
G03X152542I1342J1200D01*
G01X240000D01*
Y199225D01*
G03Y196375I1100J-1425D01*
G01Y189000D01*
X217586D01*
X217000Y188414D01*
Y128000D01*
G02X216436Y127635I-400J0D01*
G03Y124349I-736J-1643D01*
G02X217000Y123984I164J-365D01*
G01Y73700D01*
X159464D01*
G02X159167Y74367I0J400D01*
G03X155046I-2060J1849D01*
G02X154748Y73700I-298J-267D01*
G01X117600D01*
G37*
G36*
G01X352900Y277239D02*
X353040Y277283D01*
G03Y280717I-540J1717D01*
G01X352900Y280761D01*
Y340000D01*
X330800D01*
Y369300D01*
X303600D01*
Y426900D01*
X352200D01*
G02X357146Y425576I0J-9900D01*
G02X357185Y424909I-200J-347D01*
G03X359771Y422484I1077J-1443D01*
G02X360439Y422488I335J-218D01*
G02X362100Y417000I-8239J-5488D01*
G01Y10000D01*
G02X360416Y4477I-9900J0D01*
G02X359753Y4476I-332J223D01*
G03X357144Y2055I-1490J-1010D01*
G02X357093Y1394I-249J-313D01*
G02X352200Y100I-4893J8606D01*
G01X347000D01*
Y15900D01*
X344794D01*
Y25700D01*
X340500D01*
Y39500D01*
X328500D01*
Y25700D01*
X324106D01*
Y15800D01*
X267294D01*
Y25700D01*
X262900D01*
Y39500D01*
X250900D01*
Y25700D01*
X246606D01*
Y15800D01*
X244400D01*
Y100D01*
X97500D01*
Y28114D01*
X93800Y31814D01*
Y71700D01*
X115925D01*
G02X116248Y71064I0J-400D01*
G03X119152I1452J-1064D01*
G02X119475Y71700I323J236D01*
G01X219000D01*
Y80400D01*
G03Y84000I8J1800D01*
G01Y187000D01*
X224732D01*
G02X225120Y186503I0J-400D01*
G03X228613I1746J-437D01*
G02X229001Y187000I388J97D01*
G01X248941D01*
G02X249291Y186406I0J-400D01*
G03X252441I1575J-872D01*
G02X252791Y187000I350J194D01*
G01X352900D01*
Y277239D01*
G37*
%LPC*%
G75*
G36*
G01X79755Y11375D02*
X77557Y9176D01*
X74448D01*
X72249Y11375D01*
Y14484D01*
X74448Y16682D01*
X77557D01*
X79755Y14484D01*
Y11375D01*
G37*
G36*
G01X27590D02*
X25392Y9176D01*
X22282D01*
X20084Y11375D01*
Y14484D01*
X22282Y16682D01*
X25392D01*
X27590Y14484D01*
Y11375D01*
G37*
G36*
G01X54840Y165862D02*
G03X55054Y165715I193J51D01*
G02X53501Y163462I187J-1790D01*
G03X53287Y163610I-193J-51D01*
G02X54840Y165862I-187J1790D01*
G37*
G36*
G01X72538Y140133D02*
G03X72701Y140335I-37J197D01*
G02X73713Y142009I1799J54D01*
G03X73804Y142279I-87J180D01*
G02X76200Y141468I1608J808D01*
G03X76108Y141198I87J-180D01*
G02X74833Y138620I-1608J-809D01*
G03X74670Y138418I37J-197D01*
G02X71939Y136823I-1799J-54D01*
G03X71399Y136703I-207J-342D01*
G02X71332Y136609I-1498J998D01*
G03X71459Y136016I318J-242D01*
G02X69167Y135525I-860J-1582D01*
G03X69040Y136118I-318J242D01*
G02X70832Y139240I860J1582D01*
G03X71372Y139361I207J342D01*
G02X72538Y140133I1499J-997D01*
G37*
G36*
G01X70555Y128801D02*
G03X70576Y129067I-138J145D01*
G02X72039Y131963I1428J1096D01*
G03X72447Y132363I8J400D01*
G02X74212Y130564I1800J0D01*
G03X73804Y130164I-8J-400D01*
G02X73801Y130070I-1800J0D01*
G03X74328Y129670I399J-21D01*
G02X73819Y126524I572J-1707D01*
G03X73255Y126440I-240J-320D01*
G02X70555Y128801I-1455J1060D01*
G37*
G36*
G01X13257Y128635D02*
G03X13140Y129145I-353J187D01*
G02X12886Y129370I1061J1455D01*
G03X12286Y129351I-292J-273D01*
G02X12214Y131731I-1386J1149D01*
G03X12814Y131749I292J273D01*
G02X15790Y129756I1386J-1149D01*
G03X15908Y129246I353J-187D01*
G02X16201Y126604I-1061J-1455D01*
G03Y126340I150J-132D01*
G02X16446Y124327I-1354J-1187D01*
G03X16583Y123808I355J-184D01*
G02X14001Y123126I-983J-1508D01*
G03X13864Y123645I-355J184D01*
G02X13494Y126341I983J1508D01*
G03Y126604I-150J132D01*
G02X13257Y128635I1354J1187D01*
G37*
G36*
G01X15698Y94957D02*
G02X15802Y97544I-1198J1343D01*
G02X15698Y94957I1198J-1343D01*
G37*
G36*
G01X46134Y90554D02*
G03X45591Y90531I-259J-305D01*
G02X45480Y93172I-1277J1269D01*
G03X46023Y93194I259J305D01*
G02X46134Y90554I1277J-1269D01*
G37*
G36*
G01X30039Y76236D02*
G03X29803Y76080I-40J-196D01*
G02X28400Y78203I-1764J359D01*
G03X28636Y78359I40J196D01*
G02X30039Y76236I1764J-359D01*
G37*
G36*
G01X20717Y165927D02*
G02X18165Y166009I-1317J-1227D01*
G03X18183Y166573I-275J291D01*
G02X18822Y169468I1317J1227D01*
G03X18986Y170086I-151J371D01*
G02X22130Y170703I1414J1114D01*
G03X22548Y170194I384J-110D01*
G02X24317Y169191I152J-1794D01*
G03X24990Y169119I359J176D01*
G02X27187Y166381I1410J-1119D01*
G03X26995Y165862I175J-360D01*
G02X24557Y166763I-1651J-718D01*
G03X24749Y167282I-175J360D01*
G02X24664Y167524I1651J718D01*
G03X24294Y167564I-193J-53D01*
G02X21614Y166964I-1594J837D01*
G03X21032Y166855I-241J-319D01*
G02X20735Y166491I-1532J945D01*
G03X20717Y165927I275J-291D01*
G37*
G36*
G01X15663Y107383D02*
G02X13710Y107763I-1263J-1283D01*
G03X13837Y108417I-153J369D01*
G02X15790Y108037I1263J1283D01*
G03X15663Y107383I153J-369D01*
G37*
G36*
G01X56892Y265820D02*
G03X56788Y266076I-186J73D01*
G02X59196Y267062I733J1644D01*
G03X59300Y266806I186J-73D01*
G02X56892Y265820I-733J-1644D01*
G37*
G36*
G01X130354Y259034D02*
G03X129878Y258612I-77J-393D01*
G02X128429Y260249I-1795J-130D01*
G03X128904Y260670I77J393D01*
G02X130354Y259034I1795J130D01*
G37*
G36*
G01X270537Y212472D02*
G02X269272Y213737I-1737J-472D01*
G03X269763Y214228I105J386D01*
G02X271028Y212963I1737J472D01*
G03X270537Y212472I-105J-386D01*
G37*
G36*
G01X273636Y194350D02*
G02Y195850I-1636J750D01*
G03X274364I364J167D01*
G02Y194350I1636J-750D01*
G03X273636I-364J-167D01*
G37*
G36*
G01X138857Y275772D02*
G03X138293Y275443I-165J-364D01*
G02X137243Y277242I-1793J159D01*
G03X137807Y277571I165J364D01*
G02X138857Y275772I1793J-159D01*
G37*
G36*
G01X200714Y276997D02*
G03X201332Y276870I359J177D01*
G02X200886Y274703I1168J-1370D01*
G03X200268Y274830I-359J-177D01*
G02X200714Y276997I-1168J1370D01*
G37*
G36*
G01X300876Y273626D02*
G03X300910Y272990I258J-305D01*
G02X298737Y272874I-1010J-1490D01*
G03X298703Y273510I-258J305D01*
G02X300876Y273626I1010J1490D01*
G37*
G36*
G01X292663Y213164D02*
G02X291264Y214563I-1763J-364D01*
G03X291737Y215036I81J392D01*
G02X293136Y213637I1763J364D01*
G03X292663Y213164I-81J-392D01*
G37*
G36*
G01X273076Y296638D02*
G02X271076I-1000J1497D01*
G02X268579Y299135I-1000J1497D01*
G02Y301135I1497J1000D01*
G02Y303135I1497J1000D01*
G02X271076Y305632I1497J1000D01*
G02X273076I1000J-1497D01*
G02X275573Y303135I1000J-1497D01*
G02Y301135I-1497J-1000D01*
G02Y299135I-1497J-1000D01*
G02X273076Y296638I-1497J-1000D01*
G37*
G36*
G01X198579Y303135D02*
G02X201076Y305632I1497J1000D01*
G02X203076I1000J-1497D01*
G02X205573Y303135I1000J-1497D01*
G02Y301135I-1497J-1000D01*
G02Y299135I-1497J-1000D01*
G02X203076Y296638I-1497J-1000D01*
G02X201076I-1000J1497D01*
G02X198579Y299135I-1000J1497D01*
G02Y301135I1497J1000D01*
G02Y303135I1497J1000D01*
G37*
G36*
G01X128579D02*
G02X131076Y305632I1497J1000D01*
G02X133076I1000J-1497D01*
G02X135573Y303135I1000J-1497D01*
G02Y301135I-1497J-1000D01*
G02Y299135I-1497J-1000D01*
G02X133076Y296638I-1497J-1000D01*
G02X131076I-1000J1497D01*
G02X128579Y299135I-1000J1497D01*
G02Y301135I1497J1000D01*
G02Y303135I1497J1000D01*
G37*
G36*
G01X58579D02*
G02X61076Y305632I1497J1000D01*
G02X63076I1000J-1497D01*
G02X65573Y303135I1000J-1497D01*
G02Y301135I-1497J-1000D01*
G02Y299135I-1497J-1000D01*
G02X63076Y296638I-1497J-1000D01*
G02X61076I-1000J1497D01*
G02X58579Y299135I-1000J1497D01*
G02Y301135I1497J1000D01*
G02Y303135I1497J1000D01*
G37*
G36*
G01X40501Y110177D02*
G03X40571Y109917I178J-91D01*
G02X37999Y109224I-971J-1516D01*
G03X37929Y109484I-178J91D01*
G02X37130Y110669I971J1516D01*
G03X36594Y110969I-393J-74D01*
G02X36258Y110876I-644J1681D01*
G03X36093Y110661I34J-197D01*
G02X33992Y112274I-1793J-161D01*
G03X34157Y112489I-34J197D01*
G02X35732Y114437I1793J161D01*
G02X39114Y113302I1768J-337D01*
G03X39368Y112738I359J-177D01*
G02X40501Y110177I-468J-1738D01*
G37*
G36*
G01X173830Y225632D02*
G03X173570I-130J-152D01*
G02Y228368I-1170J1368D01*
G03X173830I130J152D01*
G02Y225632I1170J-1368D01*
G37*
G36*
G01X51130Y224925D02*
G03X50548Y224907I-282J-283D01*
G02X50470Y227375I-1348J1193D01*
G03X51052Y227393I282J283D01*
G02X53594Y227547I1348J-1194D01*
G03X54176Y227602I265J299D01*
G02X56373Y228126I1424J-1101D01*
G03X56919Y228344I172J361D01*
G02X57827Y226074I1681J-644D01*
G03X57281Y225856I-172J-361D01*
G02X54406Y225153I-1681J644D01*
G03X53824Y225098I-265J-299D01*
G02X51130Y224925I-1424J1102D01*
G37*
G36*
G01X87295Y210320D02*
G03X87475Y210527I-20J199D01*
G02X87480Y210738I1799J68D01*
G03X87138Y211166I-399J32D01*
G02X87041Y214712I259J1781D01*
G03X87202Y214916I-40J196D01*
G02X88409Y216695I1799J79D01*
G03X88539Y216926I-66J189D01*
G02X91489Y218652I1761J374D01*
G03X91756Y218654I132J150D01*
G02X94738Y217662I1214J-1330D01*
G03X94941Y217499I196J38D01*
G02X95631Y217386I59J-1799D01*
G03X95880Y217486I70J187D01*
G02X99178Y217353I1619J-786D01*
G03X99417Y217233I186J72D01*
G02X98220Y214845I480J-1735D01*
G03X97980Y214965I-186J-72D01*
G02X96869Y215014I-480J1735D01*
G03X96620Y214914I-70J-187D01*
G02X93232Y215363I-1619J786D01*
G03X93029Y215525I-196J-38D01*
G02X91780Y215973I-59J1799D01*
G03X91514Y215970I-132J-150D01*
G02X90891Y215600I-1214J1330D01*
G03X90761Y215369I66J-189D01*
G02X89357Y213230I-1761J-374D01*
G03X89196Y213026I40J-196D01*
G02X89192Y212804I-1798J-78D01*
G03X89534Y212376I399J-32D01*
G02X89450Y208803I-259J-1781D01*
G03X89270Y208597I20J-199D01*
G02X89241Y208203I-1799J-68D01*
G03X89404Y207969I197J-36D01*
G02X89484Y204436I-304J-1774D01*
G03X89327Y204223I43J-195D01*
G02X89308Y203764I-1793J-157D01*
G03X89455Y203537I197J-34D01*
G02X87225Y202097I-455J-1742D01*
G03X87079Y202324I-197J34D01*
G02X87150Y205825I455J1742D01*
G03X87307Y206038I-43J195D01*
G02X87330Y206521I1793J157D01*
G03X87167Y206754I-197J36D01*
G02X87295Y210320I304J1774D01*
G37*
G36*
G01X50960Y192807D02*
G03X50433Y192788I-253J-310D01*
G02X47644Y193195I-1233J1312D01*
G03X47045Y193303I-346J-201D01*
G02X47460Y195601I-1141J1393D01*
G03X48059Y195493I346J201D01*
G02X50340Y195493I1141J-1393D01*
G03X50867Y195512I253J310D01*
G02X53448Y195394I1233J-1312D01*
G03X54030Y195375I299J265D01*
G02X56999Y194696I1271J-1275D01*
G03X57599Y194496I377J132D01*
G02X56901Y192404I1001J-1496D01*
G03X56301Y192604I-377J-132D01*
G02X53952Y192906I-1001J1496D01*
G03X53371Y192925I-299J-265D01*
G02X50960Y192807I-1271J1275D01*
G37*
G36*
G01X115777Y189941D02*
G03X115630Y190161I-198J27D01*
G02X114684Y193017I465J1739D01*
G03X114674Y193277I-157J124D01*
G02X117408Y193381I1323J1221D01*
G03X117418Y193121I157J-124D01*
G02X117879Y191659I-1323J-1221D01*
G03X118026Y191439I198J-27D01*
G02X118225Y188027I-465J-1739D01*
G03X118103Y187797I74J-186D01*
G02X115683Y189073I-1756J-397D01*
G03X115805Y189304I-74J186D01*
G02X115777Y189941I1756J396D01*
G37*
G36*
G01X166661Y183570D02*
G03X166201Y183310I-82J-391D01*
G02X162739Y183525I-1701J590D01*
G03X162185Y183807I-391J-83D01*
G02X159681Y185786I-735J1643D01*
G03X159381Y186249I-393J74D01*
G02X161569Y187664I419J1751D01*
G03X161869Y187201I393J-74D01*
G02X163211Y185825I-419J-1751D01*
G03X163765Y185543I391J83D01*
G02X164871Y185662I735J-1643D01*
G03X165331Y185922I82J391D01*
G02X166661Y183570I1701J-590D01*
G37*
G36*
G01X158438Y179407D02*
G03X158003Y178971I-36J-398D01*
G02X156374Y180593I-1792J-171D01*
G03X156808Y181029I36J398D01*
G02X158438Y179407I1792J171D01*
G37*
G36*
G01X134933Y163358D02*
G03X135089Y163566I-43J195D01*
G02X136462Y165430I1797J115D01*
G03X136614Y165641I-47J194D01*
G02X137792Y167479I1794J147D01*
G03X137919Y167706I-69J188D01*
G02X139791Y169850I1766J347D01*
G03X140211Y170204I23J399D01*
G02X141098Y171558I1789J-204D01*
G03X141178Y171818I-100J173D01*
G02X142440Y174364I1622J782D01*
G03X142599Y174578I-40J196D01*
G02X144067Y176518I1792J169D01*
G03X144231Y176720I-36J197D01*
G02X146718Y178429I1800J45D01*
G03X146965Y178510I76J185D01*
G02X148240Y179354I1537J-937D01*
G03X148411Y179550I-29J198D01*
G02X150473Y177752I1800J-18D01*
G03X150302Y177556I29J-198D01*
G02X147815Y175909I-1800J18D01*
G03X147568Y175828I-76J-185D01*
G02X146355Y174994I-1537J937D01*
G03X146191Y174793I36J-197D01*
G02X144751Y172984I-1800J-45D01*
G03X144592Y172769I40J-196D01*
G02X143702Y171042I-1792J-169D01*
G03X143622Y170782I100J-173D01*
G02X141895Y168203I-1622J-782D01*
G03X141475Y167849I-23J-399D01*
G02X140303Y166361I-1789J204D01*
G03X140175Y166135I69J-188D01*
G02X138832Y164038I-1766J-347D01*
G03X138679Y163827I47J-194D01*
G02X137277Y161924I-1794J-147D01*
G03X137121Y161716I43J-195D01*
G02X136818Y160595I-1797J-115D01*
G03X136862Y160324I166J-112D01*
G02X137533Y159255I-1093J-1430D01*
G03X138013Y158946I392J80D01*
G02X136647Y156828I398J-1756D01*
G03X136167Y157138I-392J-80D01*
G02X134276Y159900I-397J1756D01*
G03X134232Y160170I-166J112D01*
G02X134933Y163358I1093J1430D01*
G37*
G36*
G01X118815Y157387D02*
G03X118897Y156815I314J-247D01*
G02X116435Y156463I-1047J-1465D01*
G03X116353Y157036I-314J247D01*
G02X115731Y157825I1047J1465D01*
G03X115500Y157945I-185J-75D01*
G02X116762Y160373I-408J1753D01*
G03X116992Y160254I185J75D01*
G02X118815Y157387I408J-1753D01*
G37*
G36*
G01X175708Y150065D02*
G03X175838Y149840I197J-36D01*
G02X173471Y148467I-596J-1699D01*
G03X173341Y148692I-197J36D01*
G02X175708Y150065I596J1699D01*
G37*
G36*
G01X168058Y147688D02*
G03X167923Y147463I62J-190D01*
G02X165592Y148862I-1773J-313D01*
G03X165727Y149087I-62J190D01*
G02X168058Y147688I1773J313D01*
G37*
G36*
G01X142898Y146918D02*
G03X143298Y146500I400J-18D01*
G02X141502Y144782I2J-1800D01*
G03X141102Y145200I-400J18D01*
G02X142898Y146918I-2J1800D01*
G37*
G36*
G01X127522Y133073D02*
G03X127164Y133509I-398J38D01*
G02X125545Y135310I181J1791D01*
G03X125187Y135710I-400J2D01*
G02X127177Y137490I190J1790D01*
G03X127534Y137090I400J-2D01*
G02X129137Y135127I-190J-1790D01*
G03X129495Y134691I398J-38D01*
G02X127522Y133073I-181J-1791D01*
G37*
G36*
G01X102623Y104212D02*
G03X102462Y104432I-199J24D01*
G02X104588Y105988I338J1768D01*
G03X104749Y105768I199J-24D01*
G02X102623Y104212I-338J-1768D01*
G37*
G36*
G01X154264Y225443D02*
G02X153200Y223807I736J-1643D01*
G03X152636Y224173I-400J1D01*
G02X153700Y225809I-736J1643D01*
G03X154264Y225443I400J-1D01*
G37*
G36*
G01X150627Y216688D02*
G02X148637Y216176I-627J-1688D01*
G03X148473Y216812I-303J261D01*
G02X150463Y217324I627J1688D01*
G03X150627Y216688I303J-261D01*
G37*
G36*
G01X204786Y208851D02*
G02X201668Y209508I-1386J1149D01*
G03X200967Y209644I-385J-109D01*
G02X201275Y211237I-1424J1102D01*
G03X201976Y211102I385J109D01*
G02X204632Y211312I1424J-1102D01*
G03X205214Y211349I274J292D01*
G02X205409Y211550I1386J-1149D01*
G03X205446Y212114I-264J300D01*
G02X207991Y211950I1354J1186D01*
G03X207954Y211386I264J-300D01*
G02X205368Y208888I-1354J-1186D01*
G03X204786Y208851I-274J-292D01*
G37*
G36*
G01X90918Y191691D02*
G02X89191Y191418I-618J-1691D01*
G03X89082Y192109I-246J315D01*
G02X88500Y192458I618J1691D01*
G03X87845Y192258I-267J-298D01*
G02X85191Y194254I-1745J442D01*
G03X85348Y194777I-202J345D01*
G02X85456Y196566I1613J800D01*
G03X85372Y197098I-334J220D01*
G02X88001Y197514I1125J1406D01*
G03X88085Y196982I334J-220D01*
G02X88738Y195862I-1125J-1406D01*
G03X89236Y195539I395J63D01*
G02X90809Y192382I464J-1739D01*
G03X90918Y191691I246J-315D01*
G37*
G36*
G01X116288Y179272D02*
G02X114681Y179288I-819J-1603D01*
G03X114687Y180003I-175J360D01*
G02X116295Y179988I819J1603D01*
G03X116288Y179272I175J-360D01*
G37*
G36*
G01X154558Y170895D02*
G02X153042Y169802I143J-1795D01*
G03X152642Y170357I-368J156D01*
G02X154158Y171449I-143J1795D01*
G03X154558Y170895I368J-156D01*
G37*
G36*
G01X117496Y137872D02*
G02X116523Y139601I-1796J128D01*
G03X117104Y139928I183J356D01*
G02X117799Y141225I1796J-128D01*
G03X117786Y141868I-245J317D01*
G02X117039Y143554I1040J1469D01*
G03X116895Y143770I-199J24D01*
G02X115897Y144490I491J1732D01*
G03X115646Y144559I-165J-112D01*
G02X113937Y147722I-769J1628D01*
G03X113999Y148357I-209J341D01*
G02X116158Y148147I1219J1325D01*
G03X116096Y147512I209J-341D01*
G02X116366Y147198I-1219J-1325D01*
G03X116617Y147130I165J112D01*
G02X119173Y145286I768J-1628D01*
G03X119317Y145069I199J-24D01*
G02X119926Y141913I-491J-1732D01*
G03X119940Y141270I245J-317D01*
G02X118077Y138199I-1040J-1469D01*
G03X117496Y137872I-183J-356D01*
G37*
G36*
G01X335174Y99822D02*
G02X333174I-1000J1497D01*
G02X330677Y102319I-1000J1497D01*
G02Y104319I1497J1000D01*
G02X333174Y106816I1497J1000D01*
G02X335174I1000J-1497D01*
G02X337670Y104319I1000J-1497D01*
G02Y102319I-1497J-1000D01*
G02X335174Y99822I-1497J-1000D01*
G37*
G36*
G01X296296Y98684D02*
G03X295750I-273J-293D01*
G02X293206Y101229I-1227J1317D01*
G03Y101774I-293J273D01*
G02Y104229I1317J1227D01*
G03Y104774I-293J273D01*
G02X295750Y107318I1317J1227D01*
G03X296296I273J293D01*
G02X298750I1227J-1317D01*
G03X299296I273J293D01*
G02X301750I1227J-1317D01*
G03X302296I273J293D01*
G02X304840Y104774I1227J-1317D01*
G03Y104229I293J-273D01*
G02Y101774I-1317J-1227D01*
G03Y101229I293J-273D01*
G02X302296Y98684I-1317J-1227D01*
G03X301750I-273J-293D01*
G02X299296I-1227J1317D01*
G03X298750I-273J-293D01*
G02X296296I-1227J1317D01*
G37*
G36*
G01X260296D02*
G03X259750I-273J-293D01*
G02X257206Y101229I-1227J1317D01*
G03Y101774I-293J273D01*
G02Y104229I1317J1227D01*
G03Y104774I-293J273D01*
G02X259750Y107318I1317J1227D01*
G03X260296I273J293D01*
G02X262750I1227J-1317D01*
G03X263296I273J293D01*
G02X265750I1227J-1317D01*
G03X266296I273J293D01*
G02X268840Y104774I1227J-1317D01*
G03Y104229I293J-273D01*
G02Y101774I-1317J-1227D01*
G03Y101229I293J-273D01*
G02X266296Y98684I-1317J-1227D01*
G03X265750I-273J-293D01*
G02X263296I-1227J1317D01*
G03X262750I-273J-293D01*
G02X260296I-1227J1317D01*
G37*
G36*
G01X224295D02*
G03X223750I-273J-293D01*
G02X221206Y101229I-1227J1317D01*
G03Y101774I-293J273D01*
G02Y104229I1317J1227D01*
G03Y104774I-293J273D01*
G02X223750Y107318I1317J1227D01*
G03X224295I273J293D01*
G02X226750I1227J-1317D01*
G03X227296I273J293D01*
G02X229750I1227J-1317D01*
G03X230296I273J293D01*
G02X232840Y104774I1227J-1317D01*
G03Y104229I293J-273D01*
G02Y101774I-1317J-1227D01*
G03Y101229I293J-273D01*
G02X230296Y98684I-1317J-1227D01*
G03X229750I-273J-293D01*
G02X227296I-1227J1317D01*
G03X226750I-273J-293D01*
G02X224295I-1227J1317D01*
G37*
G54D26*
X32400Y56000D03*
G54D38*
X328580Y384138D03*
G54D37*
X313620D03*
X321100Y397095D03*
G54D28*
X25155Y391055D03*
X41100Y407000D03*
X57045Y391055D03*
X95155D03*
X111100Y407000D03*
X127045Y391055D03*
X165155D03*
X181100Y407000D03*
X197045Y391055D03*
X235155D03*
X251100Y407000D03*
X267045Y391055D03*
G54D23*
X27872Y32220D03*
X71416D03*
G54D22*
X4282Y23966D03*
Y13966D03*
Y33966D03*
Y53966D03*
Y43966D03*
Y73966D03*
Y63966D03*
Y83966D03*
Y103966D03*
Y93966D03*
Y113966D03*
Y133966D03*
Y123966D03*
Y153966D03*
Y143966D03*
Y163966D03*
Y183966D03*
Y173966D03*
Y193966D03*
Y213966D03*
Y203966D03*
Y223966D03*
Y243966D03*
Y233966D03*
X21900Y62900D03*
X16400Y86984D03*
X16100Y81000D03*
X14500Y100900D03*
X22500Y96000D03*
X14679Y117820D03*
X15400Y135500D03*
X25300Y175300D03*
X27006Y226800D03*
X34550Y44650D03*
X40286Y91800D03*
X33306Y93506D03*
X30500Y164000D03*
X53400Y77500D03*
X45300Y152800D03*
X47800Y163400D03*
X58896Y166159D03*
X85400Y25700D03*
X88009Y140100D03*
X92850Y25250D03*
X247700Y212800D03*
X245500Y236600D03*
X259300Y208800D03*
X251349Y225249D03*
X257800Y236300D03*
X4282Y253966D03*
X49200Y260043D03*
X116400Y262900D03*
X155800Y253000D03*
X189100Y260100D03*
X199000Y256900D03*
X256400Y263379D03*
X280900Y210400D03*
X276008Y231858D03*
X270800Y262600D03*
X270300Y251500D03*
X268720Y267720D03*
X4282Y273966D03*
X69400Y277612D03*
X80639Y265161D03*
X80428Y278022D03*
X90394Y275268D03*
X104400Y273988D03*
X129100Y273200D03*
X150428Y278022D03*
X160394Y275268D03*
X179400Y274900D03*
X208600Y278000D03*
X221739Y265161D03*
X220428Y278022D03*
X227400Y278100D03*
X280098Y275398D03*
X294000Y195100D03*
X290428Y278022D03*
X298000Y195000D03*
X298008Y231858D03*
X4282Y293966D03*
Y303966D03*
X35616Y306984D03*
X48841Y302441D03*
X73684Y289716D03*
X62100Y292000D03*
X61800Y285000D03*
X75282Y299882D03*
X105800Y306984D03*
X118841Y302441D03*
X131700Y292000D03*
X131900Y285000D03*
X143684Y289716D03*
X145282Y299882D03*
X175016Y306984D03*
X202000Y292000D03*
X201800Y285000D03*
X188841Y302441D03*
X213684Y289716D03*
X215282Y299882D03*
X244916Y306984D03*
X258841Y302441D03*
X271900Y292000D03*
Y285000D03*
X283684Y289716D03*
X285282Y299882D03*
X312200Y211800D03*
X308600Y285000D03*
X308400Y301000D03*
X309300Y308000D03*
X320000Y195100D03*
X316000Y195022D03*
X325800Y210400D03*
X315500Y215000D03*
X320008Y231858D03*
X314600Y279000D03*
X4282Y323966D03*
Y333966D03*
X35500Y328000D03*
X91200D03*
X78400Y338000D03*
X106000Y328000D03*
X148400Y338000D03*
X161100Y328000D03*
X175500D03*
X218400Y338000D03*
X231100Y328000D03*
X245600D03*
X288400Y338000D03*
X336016Y195022D03*
X342101Y223501D03*
X339700Y235800D03*
X336700Y282400D03*
X334300Y299500D03*
X338400Y317300D03*
X333400Y335500D03*
X347300Y196100D03*
X347400Y265200D03*
X4282Y353966D03*
Y373966D03*
Y363966D03*
Y383966D03*
Y403966D03*
Y393966D03*
Y413966D03*
X14100Y391100D03*
X61400Y349500D03*
X84100Y391100D03*
X131400Y349800D03*
X154100Y391100D03*
X201400Y349600D03*
X224100Y391100D03*
X271400Y349800D03*
X292000Y393000D03*
X303378Y345000D03*
X308400Y356500D03*
X74400Y89900D03*
X61400Y90600D03*
Y83848D03*
X74400Y83300D03*
X79400Y83500D03*
X86400Y81100D03*
X58000Y177000D03*
X68000Y193700D03*
X89700Y178000D03*
X90600Y185000D03*
X96900D03*
X96800Y178000D03*
X96700Y189900D03*
X115916Y105016D03*
X117039Y118181D03*
X121439Y118039D03*
X112900Y124600D03*
X115889Y173600D03*
X112400Y202000D03*
X127616Y105016D03*
X134900Y131300D03*
X124300Y189700D03*
X148500Y100800D03*
X142700Y107500D03*
X154800Y112500D03*
X154900Y219000D03*
X160400Y101700D03*
X156300Y212800D03*
X182400Y101900D03*
X184432Y128269D03*
X182500Y144500D03*
X172400Y201600D03*
X187400Y101900D03*
X199400Y150500D03*
Y171000D03*
X191000Y219500D03*
Y223900D03*
X206100Y149200D03*
Y168900D03*
Y183500D03*
X206300Y194700D03*
X216008Y196592D03*
X217700Y203400D03*
X215300Y222300D03*
X218008Y231500D03*
X224100Y213000D03*
X227500Y225000D03*
X235800Y209400D03*
X119000Y60000D03*
X135513Y18413D03*
X161398Y6602D03*
X160487Y18413D03*
X166800Y42600D03*
X158500Y32000D03*
X168000Y47500D03*
X169500Y57500D03*
X173220Y59831D03*
X226400Y75900D03*
X228900Y135992D03*
X225400Y146400D03*
X224200Y169700D03*
X227900Y160600D03*
X223192Y177692D03*
X245400Y73700D03*
X248700Y90400D03*
X246500Y84200D03*
X246800Y96500D03*
X245800Y104900D03*
X244800Y113200D03*
X241600Y123000D03*
X245800Y133800D03*
X246800Y145900D03*
X236200Y170200D03*
X247500Y178300D03*
X236200Y180500D03*
X263200Y76900D03*
X255008Y81800D03*
X265000Y135992D03*
X250984Y125984D03*
X262500Y147300D03*
X265400Y156400D03*
X254600Y179500D03*
X280600Y80800D03*
X281600Y105800D03*
X279900Y115700D03*
X278700Y129900D03*
X268400Y167500D03*
X278900Y184300D03*
X270941Y177841D03*
X282100Y90400D03*
X291000Y82000D03*
X282800Y99200D03*
X287708Y125992D03*
X291500Y138900D03*
X282400Y143900D03*
X286500Y183900D03*
X293600Y183700D03*
X298800Y75400D03*
X312800Y114900D03*
X301400Y135992D03*
X300300Y148800D03*
X300800Y157600D03*
X303000Y184300D03*
Y176000D03*
X325200Y86000D03*
X315500Y96800D03*
X328025Y100025D03*
X317900Y148700D03*
X325800Y176900D03*
X317700Y173800D03*
X327800Y182200D03*
X319700Y183200D03*
X337800Y75600D03*
X333000Y121000D03*
X332700Y130900D03*
X336400Y140000D03*
X336100Y150500D03*
X337300Y162300D03*
X332200Y171600D03*
X334100Y179000D03*
X358262Y23466D03*
Y13466D03*
Y43466D03*
Y33466D03*
Y53466D03*
Y73466D03*
Y63466D03*
Y83466D03*
X352000Y85600D03*
X345981Y89300D03*
X358262Y103466D03*
Y93466D03*
X351400Y115600D03*
X358262Y123466D03*
Y113466D03*
Y133466D03*
X348200Y150800D03*
X358262Y153466D03*
Y143466D03*
Y163466D03*
Y183466D03*
Y173466D03*
Y193466D03*
Y213466D03*
Y203466D03*
Y233466D03*
Y223466D03*
Y243466D03*
Y263466D03*
Y253466D03*
Y273466D03*
Y293466D03*
Y283466D03*
Y313466D03*
Y303466D03*
Y323466D03*
Y343466D03*
Y333466D03*
Y353466D03*
Y373466D03*
Y363466D03*
X348384Y369000D03*
X358262Y383466D03*
Y403466D03*
Y393466D03*
Y413466D03*
G54D35*
X153406Y52595D03*
G54D25*
X33837Y12929D03*
X66002D03*
X98500Y51905D03*
X117462Y27654D03*
Y37654D03*
Y47654D03*
X153406Y64405D03*
X141594D03*
G54D29*
X59361Y378000D03*
X79361D03*
X129361D03*
X149361D03*
X199361D03*
X219361D03*
X269361D03*
X289361D03*
G54D33*
X127462Y27654D03*
Y37654D03*
Y47654D03*
G54D34*
X147799Y8768D03*
Y20579D03*
G54D27*
X86689Y55606D03*
X110311D03*
X157106Y40784D03*
G54D36*
X141594Y52595D03*
G54D24*
X18345Y43835D03*
X42400Y56000D03*
X37400Y66000D03*
X52400Y56000D03*
X57400Y66000D03*
X47400D03*
X62400Y56000D03*
X67400Y66000D03*
X81337Y43835D03*
G54D32*
X98500Y40094D03*
G54D31*
X135500Y84500D03*
G54D30*
X125500D03*
X155500D03*
X145500D03*
%LPD*%
G75*
G54D10*
X4282Y3966D03*
Y23966D03*
Y13966D03*
Y33966D03*
Y53966D03*
Y43966D03*
Y73966D03*
Y63966D03*
Y83966D03*
Y103966D03*
Y93966D03*
Y113966D03*
X10900Y130500D03*
X4282Y133966D03*
Y123966D03*
Y153966D03*
Y143966D03*
Y163966D03*
Y183966D03*
Y173966D03*
Y193966D03*
Y213966D03*
Y203966D03*
Y223966D03*
Y243966D03*
Y233966D03*
Y263966D03*
Y253966D03*
Y273966D03*
Y293966D03*
Y283966D03*
Y303966D03*
Y323966D03*
Y313966D03*
Y343966D03*
Y333966D03*
Y353966D03*
Y373966D03*
Y363966D03*
Y383966D03*
Y403966D03*
Y393966D03*
Y413966D03*
Y423966D03*
X14400Y72600D03*
X21900Y62900D03*
X16400Y86984D03*
X17300Y76134D03*
X16100Y81000D03*
X16400Y91421D03*
X14400Y106100D03*
X14500Y100900D03*
Y96300D03*
X17000Y96200D03*
X22500Y96000D03*
X26200Y111100D03*
X15100Y109700D03*
X14679Y117820D03*
X15600Y122300D03*
X14847Y125153D03*
X14848Y127791D03*
X14200Y130600D03*
X13900Y138158D03*
X15400Y135500D03*
X25344Y165144D03*
X19400Y164700D03*
X26400Y168000D03*
X19500Y167800D03*
X22700Y168400D03*
X20400Y171200D03*
X25300Y175300D03*
X27006Y226800D03*
X13500Y242000D03*
X18000Y256000D03*
Y273000D03*
Y296000D03*
Y329000D03*
Y369000D03*
X14100Y391100D03*
X34550Y44650D03*
X28039Y76439D03*
X30400Y78000D03*
X40286Y91800D03*
X33306Y93506D03*
X35300Y116504D03*
X29837Y113137D03*
X39600Y108401D03*
X38900Y111000D03*
X35950Y112650D03*
X34300Y110500D03*
X37500Y114100D03*
X33306Y141300D03*
X38400Y168000D03*
X30500Y164000D03*
X36200Y174900D03*
X30156Y194200D03*
X36455Y194500D03*
X33306Y194100D03*
X39300Y194700D03*
X42754Y194654D03*
X35138Y209430D03*
X33800Y207200D03*
X37100Y223900D03*
X39900Y224600D03*
X42494Y224781D03*
X38000Y238500D03*
X40300Y243400D03*
X33532Y270268D03*
X40537Y265863D03*
X35616Y306984D03*
X35500Y328000D03*
Y345000D03*
X53400Y77500D03*
X47085Y104900D03*
X44314Y91800D03*
X54600Y91400D03*
X47300Y91926D03*
X57900Y92700D03*
X45300Y152800D03*
X54900Y150200D03*
X56803Y152244D03*
X53100Y165400D03*
X55241Y163924D03*
X54400Y168400D03*
X47800Y163400D03*
X58896Y166159D03*
X50600Y177000D03*
Y171800D03*
X58000Y177000D03*
X52100Y194200D03*
X49200Y194100D03*
X55300D03*
X58600Y193000D03*
X45904Y194696D03*
X55600Y226500D03*
X44994Y226413D03*
X52400Y226200D03*
X58600Y227700D03*
X49200Y226100D03*
X51000Y238100D03*
X49200Y260043D03*
X58568Y265161D03*
X59300Y251700D03*
X58639Y272839D03*
X58121Y270280D03*
X57521Y267720D03*
X50132Y289716D03*
X48516Y299861D03*
X48841Y302441D03*
X49500Y311000D03*
X54022Y320322D03*
X58360Y324607D03*
Y327607D03*
X58400Y313800D03*
X58360Y336607D03*
Y333607D03*
Y330607D03*
X48900Y345000D03*
X74400Y89900D03*
X61400Y90600D03*
Y83848D03*
X74400Y83300D03*
X66900Y121700D03*
X72600Y112800D03*
X69400Y117500D03*
X75103Y115400D03*
X75000Y111000D03*
X66700Y118100D03*
X73215Y109110D03*
X72800Y117100D03*
X69900Y110600D03*
X74900Y127964D03*
X72004Y130164D03*
X70599Y134434D03*
X72871Y138364D03*
X74247Y132364D03*
X69900Y137700D03*
X61400Y125700D03*
X71800Y127500D03*
X65900Y152000D03*
X70263Y153311D03*
X64085Y150139D03*
X72700Y149085D03*
X61276Y151700D03*
X69596Y147598D03*
X74500Y140390D03*
X60513Y142313D03*
X69700Y145000D03*
X74663Y153748D03*
X70702Y150748D03*
X67018Y149652D03*
X74277Y151154D03*
X68000Y193700D03*
X61700Y248500D03*
X68500Y273800D03*
X69400Y277612D03*
X67700Y270954D03*
X73684Y289716D03*
X62100Y292000D03*
X61800Y285000D03*
X60076Y298135D03*
X62076D03*
X64076D03*
X60076Y300135D03*
X62076D03*
X64076D03*
X60076Y302135D03*
X62076D03*
X64076D03*
X60076Y304135D03*
X62076D03*
X64076D03*
X61360Y324607D03*
X64360D03*
X67360D03*
Y327607D03*
X64360D03*
X61360D03*
X74700Y344000D03*
X67360Y336607D03*
X64360D03*
X61360D03*
X67360Y333607D03*
X64360D03*
X61360D03*
X67360Y330607D03*
X64360D03*
X61360D03*
X61400Y349500D03*
X66400Y347000D03*
X74800Y350000D03*
X75049Y366000D03*
X68100Y422900D03*
X85400Y25700D03*
X90384Y69984D03*
X79400Y83500D03*
X86400Y81100D03*
X75413Y143087D03*
X90900Y143200D03*
X88009Y140100D03*
X89700Y178000D03*
X90300Y171137D03*
X90600Y185000D03*
X86960Y195577D03*
X86100Y192700D03*
X89700Y193800D03*
X89000Y201795D03*
X86497Y198504D03*
X90300Y190000D03*
X89274Y210595D03*
X89100Y206195D03*
X87398Y212947D03*
X89000Y214995D03*
X87534Y204066D03*
X87471Y208529D03*
X90300Y217300D03*
X80639Y265161D03*
X80428Y278022D03*
X90394Y275268D03*
X78400Y311300D03*
X75282Y299882D03*
X84600Y318000D03*
X75700Y316000D03*
X78400Y338000D03*
X90900Y345000D03*
X78132Y349768D03*
X84100Y391100D03*
X92850Y25250D03*
X100700Y77000D03*
X104411Y104000D03*
X91400Y106800D03*
X102800Y106200D03*
X106600Y95300D03*
X106300Y99900D03*
X96911Y109511D03*
X96950Y122450D03*
X103411Y129000D03*
X101727Y152000D03*
X96100Y148100D03*
X97400Y170000D03*
X96900Y185000D03*
X96800Y178000D03*
X96700Y189900D03*
X97300Y195000D03*
X99898Y215498D03*
X92970Y217324D03*
X97500Y216700D03*
X95000Y215700D03*
X94400Y262800D03*
X104400Y262000D03*
Y273988D03*
X95500Y283000D03*
X105800Y306984D03*
X106000Y328000D03*
X91200D03*
X105400Y345000D03*
X119000Y60000D03*
X117700Y70000D03*
X111400Y83400D03*
X107600Y90800D03*
X108400Y87000D03*
X108600Y97644D03*
X109800Y93100D03*
X115916Y105016D03*
X117039Y118181D03*
X121439Y118039D03*
X115700Y138000D03*
X112900Y124600D03*
X114877Y146187D03*
X118826Y143337D03*
X115218Y149682D03*
X117386Y145502D03*
X118900Y139800D03*
X117850Y155350D03*
X115093Y159699D03*
X117400Y158500D03*
X115195Y169795D03*
X115506Y181606D03*
X115469Y177669D03*
X115889Y173600D03*
X116095Y191900D03*
X116347Y187400D03*
X117561Y189700D03*
X115996Y194498D03*
X109400Y205000D03*
X112400Y202000D03*
X116400Y262900D03*
X120116Y289716D03*
X118516Y299861D03*
X118841Y302441D03*
X119400Y311000D03*
X118700Y345000D03*
X135513Y18413D03*
X127616Y105016D03*
X125376Y137500D03*
X127345Y135300D03*
X129313Y132900D03*
X134900Y131300D03*
X135325Y161601D03*
X136885Y163680D03*
X135769Y158894D03*
X138410Y157190D03*
X138408Y165788D03*
X122977Y191938D03*
X124300Y189700D03*
X134200Y231800D03*
X130400Y235700D03*
X135900Y235100D03*
X130700Y260800D03*
X135700Y259400D03*
X128082Y258482D03*
X138339Y265161D03*
X129100Y273200D03*
X136500Y275602D03*
X128180Y267720D03*
X131700Y292000D03*
X131900Y285000D03*
X130076Y298135D03*
Y300135D03*
Y302135D03*
Y304135D03*
X132076Y298135D03*
X134076D03*
X132076Y300135D03*
X134076D03*
X132076Y302135D03*
X134076D03*
X132076Y304135D03*
X134076D03*
X124038Y320322D03*
X137360Y327507D03*
X134360D03*
X131360D03*
X137360Y324507D03*
X134360D03*
X131360D03*
X128360Y327507D03*
Y324507D03*
X128400Y313900D03*
X137360Y336507D03*
X134360D03*
X131360D03*
X137360Y333507D03*
X134360D03*
X131360D03*
X137360Y330507D03*
X134360D03*
X131360D03*
X128360Y336507D03*
Y333507D03*
Y330507D03*
X131400Y349800D03*
X136400Y347000D03*
X138100Y422900D03*
X148500Y100800D03*
X143084Y110984D03*
X142700Y107500D03*
X139156Y131200D03*
X143300Y144700D03*
X141100Y147000D03*
X139686Y168052D03*
X142000Y170000D03*
X142800Y172600D03*
X144391Y174747D03*
X146031Y176765D03*
X150211Y179532D03*
X148502Y177573D03*
X152500Y172152D03*
X153300Y212222D03*
X150000Y215000D03*
X149100Y218500D03*
X151900Y225816D03*
X151200Y235100D03*
X145900D03*
X140700D03*
X150428Y278022D03*
X138900Y273300D03*
X139600Y277412D03*
X143684Y289716D03*
X148400Y310400D03*
X145282Y299882D03*
X145100Y316000D03*
X148400Y338000D03*
X144856Y344000D03*
X145400Y350000D03*
X148132Y349868D03*
X145000Y366000D03*
X154100Y391100D03*
X161398Y6602D03*
X160487Y18413D03*
X166800Y42600D03*
X158500Y32000D03*
X169500Y57500D03*
X168000Y47500D03*
X155500Y100900D03*
X160400Y101700D03*
X160800Y113697D03*
X154800Y112500D03*
X166150Y147150D03*
X167500Y149400D03*
X154700Y169100D03*
X156211Y178800D03*
X158600Y181200D03*
X164500Y183900D03*
X167031Y185331D03*
X161450Y185450D03*
X159800Y188000D03*
X156300Y212800D03*
X154900Y219000D03*
X155000Y223800D03*
X166700Y263200D03*
X155800Y253000D03*
X161100Y252900D03*
X168100Y250400D03*
X163400D03*
X160394Y275268D03*
X165100Y283000D03*
X154900Y317300D03*
X161100Y328000D03*
X161000Y345000D03*
X173220Y59831D03*
X182400Y101900D03*
X184432Y128269D03*
X182500Y144500D03*
X175242Y148142D03*
X173937Y150391D03*
X172400Y201600D03*
X175000Y213000D03*
Y227000D03*
X172400D03*
X184700Y242600D03*
X182100Y240300D03*
X179400Y238000D03*
Y264726D03*
X170698Y251987D03*
X179400Y274900D03*
X174800Y271000D03*
X175016Y306984D03*
X175500Y328000D03*
X175000Y345000D03*
X187400Y101900D03*
Y117000D03*
X198847Y154047D03*
X199400Y150500D03*
Y173732D03*
Y171000D03*
Y199323D03*
X199543Y210745D03*
X191000Y219500D03*
Y223900D03*
X189100Y260100D03*
X199000Y264200D03*
Y256900D03*
X199100Y276200D03*
X197520Y267720D03*
X190116Y289716D03*
X201800Y285000D03*
X188516Y299861D03*
X188841Y302441D03*
X189400Y311000D03*
X200076Y298135D03*
Y300135D03*
Y302135D03*
Y304135D03*
X194022Y320322D03*
X201360Y327607D03*
Y324607D03*
X198360Y327607D03*
Y324607D03*
X198400Y314000D03*
X201360Y336607D03*
Y333607D03*
Y330607D03*
X198360Y336607D03*
Y333607D03*
Y330607D03*
X201400Y349600D03*
X189000Y345000D03*
X215700Y125992D03*
X206100Y149200D03*
Y168900D03*
Y183500D03*
X206300Y194700D03*
X216008Y196592D03*
X203400Y210000D03*
X206600Y210200D03*
X206800Y213300D03*
X214000Y214000D03*
X217700Y203400D03*
X215300Y222300D03*
X214000Y236100D03*
X202400Y265000D03*
X206800Y273200D03*
X208600Y278000D03*
X202500Y275500D03*
X213684Y289716D03*
X202000Y292000D03*
X215282Y299882D03*
X202076Y298135D03*
X204076D03*
X202076Y300135D03*
X204076D03*
X202076Y302135D03*
X204076D03*
X202076Y304135D03*
X204076D03*
X207359Y327607D03*
X204360D03*
X207359Y324607D03*
X204360D03*
X215700Y316000D03*
X214800Y344000D03*
X207359Y336607D03*
X204360D03*
X207359Y333607D03*
X204360D03*
X207359Y330607D03*
X204360D03*
X206400Y347300D03*
X215000Y350000D03*
X215049Y366000D03*
X208100Y422900D03*
X229500Y88019D03*
X226400Y75900D03*
X219008Y82200D03*
X231523Y106001D03*
X228523D03*
X225523D03*
X222523D03*
X231523Y103001D03*
X228523D03*
X225523D03*
X222523D03*
X231523Y100001D03*
X228523D03*
X225523D03*
X222523D03*
X228900Y135992D03*
X225400Y146400D03*
X224200Y169700D03*
X227900Y160600D03*
X226866Y186066D03*
X223192Y177692D03*
X232500Y215400D03*
X224100Y213000D03*
X223992Y231500D03*
X227500Y225000D03*
X218008Y231500D03*
X221739Y265161D03*
X220428Y278022D03*
X227400Y278100D03*
X218400Y310700D03*
X225150Y318450D03*
X231100Y328000D03*
X218400Y338000D03*
X230900Y345000D03*
X218132Y348968D03*
X224100Y391100D03*
X245400Y73700D03*
X236646Y81646D03*
X248700Y90400D03*
X246500Y84200D03*
X246800Y96500D03*
X245800Y104900D03*
X244800Y113200D03*
X241600Y123000D03*
X245800Y133800D03*
X246800Y145900D03*
X236200Y170200D03*
X247500Y178300D03*
X236200Y180500D03*
X241100Y197800D03*
X235800Y209400D03*
X247700Y212800D03*
X247992Y231408D03*
X237134Y225000D03*
X242008Y231508D03*
X245500Y236600D03*
X234400Y262500D03*
X243400Y262300D03*
X249400Y274800D03*
X234500Y283000D03*
X244916Y306984D03*
X245600Y328000D03*
X245200Y345000D03*
X263200Y76900D03*
X255008Y81800D03*
X264523Y106001D03*
X261523D03*
X258523D03*
X264523Y103001D03*
X261523D03*
X258523D03*
X264523Y100001D03*
X261523D03*
X258523D03*
X265000Y135992D03*
X250984Y125984D03*
X262500Y147300D03*
X254600Y179500D03*
X250866Y185534D03*
X254500Y215300D03*
X259300Y208800D03*
X259500Y225200D03*
X251349Y225249D03*
X257800Y236300D03*
X256400Y263379D03*
X260184Y289716D03*
X258516Y299861D03*
X258841Y302441D03*
X259600Y311000D03*
X264038Y320338D03*
X259200Y345000D03*
X272646Y81946D03*
X265500Y88100D03*
X280600Y80800D03*
X267523Y106001D03*
Y103001D03*
Y100001D03*
X279900Y115700D03*
X278700Y129900D03*
X268400Y167500D03*
X265400Y156400D03*
X278900Y184300D03*
X270941Y177841D03*
X276000Y195100D03*
X272000D03*
X280900Y210400D03*
X268800Y212000D03*
X271500Y214700D03*
X276008Y231858D03*
X274316Y224508D03*
X270800Y262600D03*
X280539Y265161D03*
X270300Y251500D03*
X279720Y270280D03*
X269400Y274100D03*
X280098Y275398D03*
X273400Y268000D03*
X274300Y271000D03*
X268720Y267720D03*
X271900Y292000D03*
Y285000D03*
X270076Y298135D03*
Y300135D03*
Y302135D03*
Y304135D03*
X272076Y298135D03*
X274076D03*
X272076Y300135D03*
X274076D03*
X272076Y302135D03*
X274076D03*
X272076Y304135D03*
X274076D03*
X277360Y327607D03*
X274360D03*
X271360D03*
X277360Y324607D03*
X274360D03*
X271360D03*
X268360Y327607D03*
Y324607D03*
X268384Y313900D03*
X277360Y336607D03*
X274360D03*
X271360D03*
X277360Y333607D03*
X274360D03*
X271360D03*
X277360Y330607D03*
X274360D03*
X271360D03*
X268360Y336607D03*
Y333607D03*
Y330607D03*
X271400Y349800D03*
X276400Y347200D03*
X278100Y422900D03*
X282100Y90400D03*
X291000Y82000D03*
X282800Y99200D03*
X281600Y105800D03*
X294523Y106001D03*
Y103001D03*
Y100001D03*
X287708Y125992D03*
X282400Y143900D03*
X291500Y138900D03*
X286500Y183900D03*
X293600Y183700D03*
X294000Y195100D03*
X290900Y212800D03*
X293500Y215400D03*
X296316Y224508D03*
X281992Y225000D03*
Y231000D03*
X288200Y235600D03*
X290428Y278022D03*
X283684Y289716D03*
X288400Y310500D03*
X285282Y299882D03*
X294800Y318100D03*
X285100Y316000D03*
X288400Y338000D03*
X284600Y344000D03*
X288132Y349332D03*
X285200Y350000D03*
X285049Y366000D03*
X292000Y393000D03*
X285091Y410709D03*
X308646Y81854D03*
X301500Y88000D03*
X298800Y75400D03*
X303523Y106001D03*
X300523D03*
X297523D03*
X303523Y103001D03*
X300523D03*
X297523D03*
X303523Y100001D03*
X300523D03*
X297523D03*
X312800Y114900D03*
X301400Y135992D03*
X300300Y148800D03*
X300800Y157600D03*
X303000Y184300D03*
Y176000D03*
X298000Y195000D03*
X304200Y210400D03*
X312200Y211800D03*
X303992Y231000D03*
Y225000D03*
X298008Y231858D03*
X310000Y236800D03*
X304400Y261900D03*
X299713Y275000D03*
X299900Y271500D03*
X308584Y290984D03*
X304600Y283000D03*
X308600Y285000D03*
X308400Y301000D03*
X309300Y308000D03*
X300900Y328000D03*
X303460Y319740D03*
X308983Y339778D03*
X308400Y356500D03*
X303378Y345000D03*
X325200Y86000D03*
X315500Y96800D03*
X328025Y100025D03*
X317900Y148700D03*
X325800Y176900D03*
X317700Y173800D03*
X327800Y182200D03*
X319700Y183200D03*
X320000Y195100D03*
X316000Y195022D03*
X325800Y210400D03*
X315500Y215000D03*
X325992Y225000D03*
Y231000D03*
X318311Y224502D03*
X320008Y231858D03*
X314600Y279000D03*
X323591Y291000D03*
X318400Y311585D03*
X327300Y352638D03*
X323139Y351339D03*
X321400Y365800D03*
X318841Y365841D03*
X316282Y365918D03*
X337800Y75600D03*
X332174Y101319D03*
X334174D03*
X336174D03*
X332174Y103319D03*
X334174D03*
X336174D03*
X332174Y105319D03*
X334174D03*
X336174D03*
X333000Y121000D03*
X332700Y130900D03*
X336400Y140000D03*
X336100Y150500D03*
X337300Y162300D03*
X332200Y171600D03*
X334100Y179000D03*
X332100Y199200D03*
X336016Y195022D03*
X334016Y217978D03*
Y224000D03*
X342101Y223501D03*
X339700Y235800D03*
X331450Y242650D03*
X329000Y264000D03*
X336700Y282400D03*
X334300Y299500D03*
X338400Y317300D03*
X333400Y335500D03*
X358262Y3466D03*
Y23466D03*
Y13466D03*
Y43466D03*
Y33466D03*
Y53466D03*
Y73466D03*
Y63466D03*
Y83466D03*
X352000Y85600D03*
X345981Y89300D03*
X358262Y103466D03*
Y93466D03*
X351400Y115600D03*
X358262Y113466D03*
Y133466D03*
Y123466D03*
X348200Y150800D03*
X358262Y153466D03*
Y143466D03*
Y163466D03*
Y183466D03*
Y173466D03*
Y193466D03*
X347300Y196100D03*
X348000Y203000D03*
X358262Y213466D03*
Y203466D03*
Y233466D03*
Y223466D03*
X349300Y220400D03*
X348800Y229000D03*
X358262Y243466D03*
X347400Y265200D03*
X358262Y263466D03*
Y253466D03*
X352500Y279000D03*
X358262Y273466D03*
Y293466D03*
Y283466D03*
Y303466D03*
Y323466D03*
Y313466D03*
X347400Y341537D03*
X358262Y343466D03*
Y333466D03*
Y353466D03*
Y373466D03*
Y363466D03*
X348384Y369000D03*
X358262Y383466D03*
Y403466D03*
Y393466D03*
Y423466D03*
Y413466D03*
G54D20*
X313620Y384138D03*
X328580D03*
X321100Y397095D03*
G54D11*
X23837Y12929D03*
X76002D03*
G54D21*
G01X137842Y52595D02*
X141594D01*
G01X135500Y80550D02*
Y84500D01*
G01D02*
Y88450D01*
G01X131550Y84500D02*
X135500D01*
G01D02*
X139450D01*
G01X141594Y48842D02*
Y52595D01*
G01D02*
Y56348D01*
G01Y52595D02*
X145347D01*
G01X153406Y48842D02*
Y52595D01*
G01D02*
Y56348D01*
G01X149652Y52595D02*
X153406D01*
G01D02*
X157158D01*
G01X328580Y378416D02*
Y384138D01*
G01D02*
Y389859D01*
G01X322859Y384138D02*
X328580D01*
G01D02*
X334302D01*
G54D12*
X27872Y32220D03*
X71416D03*
X86689Y55606D03*
X110311D03*
X147799Y8768D03*
Y20579D03*
X157106Y40784D03*
Y76216D03*
G54D13*
X18345Y43835D03*
X42400Y56000D03*
X37400Y66000D03*
X52400Y56000D03*
X57400Y66000D03*
X47400D03*
X62400Y56000D03*
X67400Y66000D03*
X81337Y43835D03*
G54D14*
X25155Y391055D03*
Y422945D03*
X41100Y407000D03*
X57045Y391055D03*
Y422945D03*
X95155Y391055D03*
Y422945D03*
X111100Y407000D03*
X127045Y391055D03*
Y422945D03*
X165155Y391055D03*
Y422945D03*
X181100Y407000D03*
X197045Y391055D03*
Y422945D03*
X235155Y391055D03*
Y422945D03*
X251100Y407000D03*
X267045Y391055D03*
Y422945D03*
G54D15*
X33837Y12929D03*
X66002D03*
X98500Y51905D03*
X117462Y27654D03*
Y37654D03*
Y47654D03*
X153406Y52595D03*
Y64405D03*
X141594D03*
G54D16*
X32400Y56000D03*
G54D17*
X59361Y378000D03*
X79361D03*
X129361D03*
X149361D03*
X199361D03*
X219361D03*
X269361D03*
X289361D03*
G54D18*
X98500Y40094D03*
X127462Y27654D03*
Y37654D03*
Y47654D03*
X141594Y52595D03*
G54D19*
X135500Y84500D03*
X125500D03*
X155500D03*
X145500D03*
M02*
