G04 ================== begin FILE IDENTIFICATION RECORD ==================*
G04 Layout Name:  E:/material/lool Inds Vibration/hardware/v2.0/pcb/vibration.brd*
G04 Film Name:    SILKSCREEN_TOP*
G04 File Format:  Gerber RS274X*
G04 File Origin:  Cadence Allegro 16.6-2015-S065*
G04 Origin Date:  Mon Jul 25 21:35:30 2016*
G04 *
G04 Layer:  PACKAGE GEOMETRY/SILKSCREEN_TOP*
G04 Layer:  BOARD GEOMETRY/SILKSCREEN_TOP*
G04 *
G04 Offset:    (0.000 0.000)*
G04 Mirror:    No*
G04 Mode:      Positive*
G04 Rotation:  0*
G04 FullContactRelief:  No*
G04 UndefLineWidth:     1.000*
G04 ================== end FILE IDENTIFICATION RECORD ====================*
%FSLAX25Y25*MOIN*%
%IR0*IPPOS*OFA0.00000B0.00000*MIA0B0*SFA1.00000B1.00000*%
%ADD10C,.004*%
%ADD11C,.008*%
%ADD12C,.003937*%
%ADD13C,.009843*%
%ADD14C,.007874*%
%ADD15C,.012*%
%ADD16C,.015*%
%ADD17C,.019685*%
G75*
%LPD*%
G75*
G36*
G01X15818Y318610D02*
G02X17066Y320672I597194J-360019D01*
G01X18196Y322531D01*
G02X18226Y322548I30J-18D01*
G02X18259Y322539I0J-68D01*
G02X18410Y322454I-8116J-14568D01*
G02X18587Y322350I-4258J-7441D01*
G02X18787Y322227I-7672J-12709D01*
G01X19300Y321906D01*
X18955Y321159D01*
G03X18805Y320823I14130J-6515D01*
G03X18639Y320431I25670J-11110D01*
G03X18482Y320045I25159J-10437D01*
G03X18362Y319730I10877J-4320D01*
G03X18227Y319325I7513J-2736D01*
G03X18164Y319040I1742J-531D01*
G03X18148Y318749I1814J-248D01*
G03X18170Y318321I8124J195D01*
G03X18315Y317281I8392J645D01*
G03X18643Y315848I30654J6263D01*
G03X19025Y314409I65860J16715D01*
G03X19232Y314133I455J126D01*
G03X19275Y314121I41J67D01*
G03X19341Y314128I-5J376D01*
G03X19418Y314149I-94J484D01*
G03X19494Y314183I-205J560D01*
G02X19813Y314186I163J-304D01*
G02X20110Y313915I-344J-673D01*
G02X20343Y313371I-1616J-1014D01*
G02X20475Y312621I-4929J-1255D01*
G03X20522Y312208I15612J1559D01*
G03X20566Y312048I565J71D01*
G03X20643Y311969I145J65D01*
G03X20783Y311929I190J399D01*
G03X21097Y312000I56J484D01*
G03X21323Y312256I-320J512D01*
G03X21456Y312729I-1354J635D01*
G03X21493Y313446I-6388J694D01*
G03X21469Y313989I-6566J-23D01*
G03X21397Y314417I-2698J-234D01*
G03X21264Y314799I-2202J-555D01*
G03X21053Y315194I-3114J-1410D01*
G02X20902Y315451I4663J2898D01*
G02X20841Y315609I573J314D01*
G02X20834Y315747I354J87D01*
G02X20875Y315917I887J-125D01*
G03X20947Y316328I-1221J426D01*
G03X20924Y316982I-7141J78D01*
G03X20839Y317643I-7023J-567D01*
G03X20698Y318105I-1972J-349D01*
G01X20512Y318525D01*
X20963Y318968D01*
G03X21156Y319171I-3061J3115D01*
G03X21365Y319415I-5585J4994D01*
G03X21558Y319660I-5586J4582D01*
G03X21699Y319866I-2409J1808D01*
G01X21810Y320043D01*
G02X21908Y320197I66477J-41882D01*
G01X21991Y320329D01*
G02X22008Y320354I502J-318D01*
G02X22029Y320357I12J-9D01*
G02X22180Y320244I-8455J-11351D01*
G02X22355Y320104I-3732J-4878D01*
G02X22559Y319932I-7807J-9462D01*
G03X23081Y319515I5894J6835D01*
G03X23636Y319134I5504J7435D01*
G03X24204Y318803I4747J7493D01*
G03X24768Y318533I3407J6379D01*
G02X24993Y318428I-1544J-3615D01*
G02X25178Y318323I-966J-1916D01*
G02X25314Y318228I-1018J-1601D01*
G02X25332Y318174I-32J-41D01*
G02X25225Y317964I-523J133D01*
G02X24872Y317556I-8343J6888D01*
G02X24395Y317062I-9278J8476D01*
G02X23802Y316499I-17641J17971D01*
G03X23114Y315811I7918J-8610D01*
G03X22720Y315264I2066J-1902D01*
G03X22520Y314717I1691J-932D01*
G03X22452Y314048I3307J-672D01*
G03X22457Y313792I6471J-7D01*
G03X22472Y313548I5309J207D01*
G03X22494Y313344I4852J411D01*
G03X22520Y313241I409J52D01*
G03X22572Y313175I142J58D01*
G03X22633Y313173I32J43D01*
G03X22723Y313254I-204J320D01*
G03X22908Y313489I-7691J6251D01*
G02X23396Y313978I2082J-1590D01*
G02X23964Y314282I1212J-1581D01*
G02X24545Y314368I526J-1537D01*
G02X25074Y314229I-42J-1234D01*
G03X25179Y314177I1455J2790D01*
G03X25277Y314133I981J2064D01*
G03X25360Y314100I876J2097D01*
G03X25398Y314093I39J103D01*
G03X25439Y314111I0J54D01*
G03X25629Y314324I-19767J17884D01*
G03X25846Y314577I-8595J7613D01*
G03X26093Y314877I-16104J13440D01*
G02X26670Y315553I11751J-9449D01*
G02X27229Y316122I7282J-6598D01*
G02X27717Y316549I6302J-6719D01*
G02X27971Y316639I254J-312D01*
G02X28112Y316600I0J-274D01*
G01X29724Y315631D01*
G02X31544Y314523I-116880J-194072D01*
G02X33669Y313207I-223277J-362984D01*
G01X39175Y309775D01*
X31965Y309752D01*
G02X28688Y309745I-5244J1618256D01*
G01X24781Y309742D01*
X20881Y309745D01*
G02X17634Y309752I1921J1576899D01*
G01X10514Y309775D01*
X14345Y316162D01*
G02X15818Y318610I1169952J-701986D01*
G37*
G36*
G01X27063Y336985D02*
G02X27166Y337134I3146J-2065D01*
G02X27254Y337252I5098J-3713D01*
G02X27275Y337254I11J-8D01*
G02X27481Y336969I-792J-792D01*
G01X29632Y332735D01*
X31803Y328455D01*
G02X31859Y328221I-461J-234D01*
G02X31782Y327864I-862J0D01*
G02X31551Y327488I-1629J741D01*
G02X31202Y327140I-1725J1380D01*
G02X30776Y326867I-1540J1931D01*
G02X29951Y326530I-2507J4962D01*
G02X28987Y326284I-2606J8213D01*
G02X27757Y326101I-2714J13978D01*
G02X26086Y325956I-4798J45814D01*
G03X25312Y325896I2591J-38072D01*
G03X24565Y325821I2952J-33323D01*
G03X23928Y325743I3381J-30383D01*
G03X23587Y325678I401J-3029D01*
G03X22890Y325455I1383J-5516D01*
G03X22161Y325126I2959J-7531D01*
G03X21502Y324746I3435J-6710D01*
G03X21023Y324366I1725J-2667D01*
G01X20562Y323922D01*
X20026Y324285D01*
G02X19824Y324429I3292J4846D01*
G02X19659Y324561I1811J2439D01*
G02X19534Y324673I2397J2796D01*
G02X19528Y324712I22J23D01*
G02X19603Y324836I6753J-3971D01*
G01X23113Y330557D01*
X26423Y335952D01*
G02X26947Y336802I348374J-213779D01*
G02X27063Y336985I6544J-4036D01*
G37*
G36*
G01X34423Y322217D02*
G02X34612Y322282I1363J-3633D01*
G02X34771Y322329I1141J-3600D01*
G02X34845Y322334I52J-193D01*
G02X34963Y322256I-17J-153D01*
G01X37717Y317246D01*
X40475Y312226D01*
G02X40460Y312118I-80J-44D01*
G02X40437Y312115I-13J13D01*
G01X38969Y312958D01*
G02X37344Y313895I253570J441564D01*
G02X35420Y315013I503285J868928D01*
G02X32594Y316664I469353J806215D01*
G02X31286Y317456I28463J48499D01*
G02X30502Y317960I17945J28764D01*
G02X30405Y318142I121J182D01*
G02X30438Y318265I242J0D01*
G02X30540Y318397I569J-335D01*
G02X30724Y318554I1112J-1110D01*
G02X31029Y318767I4885J-6676D01*
G03X31644Y319239I-3194J4805D01*
G03X32261Y319837I-5719J6506D01*
G03X32825Y320505I-6538J6096D01*
G03X33285Y321186I-5558J4248D01*
G02X33555Y321623I11289J-6689D01*
G02X33732Y321844I1161J-751D01*
G02X33925Y321991I617J-610D01*
G02X34223Y322137I1447J-2575D01*
G02X34423Y322217I2058J-4870D01*
G37*
G36*
G01X209075Y71681D02*
G02X209403Y71728I331J-1141D01*
G02X209734Y71683I3J-1213D01*
G02X210078Y71547I-491J-1753D01*
G02X210476Y71179I-466J-902D01*
G02X212764Y67457I-862165J-532739D01*
G02X216215Y61763I-644363J-394328D01*
G01X223096Y50276D01*
G02X223804Y49071I-77929J-46614D01*
G02X224167Y48381I-8678J-5011D01*
G02X224354Y47905I-3249J-1553D01*
G02X224416Y47513I-1286J-403D01*
G02X224401Y47232I-2354J-19D01*
G02X224351Y47008I-1033J116D01*
G02X224258Y46820I-798J275D01*
G02X224117Y46646I-921J605D01*
G01X223813Y46342D01*
X209605Y46307D01*
X195397Y46272D01*
X194942Y46727D01*
G02X194605Y47376I860J860D01*
G02X194685Y48123I1330J235D01*
G02X195324Y49415I9490J-3891D01*
G02X197682Y53409I548708J-321270D01*
G01X198199Y54279D01*
X198931Y55514D01*
X199732Y56867D01*
X200486Y58142D01*
X205506Y66627D01*
G02X207269Y69546I170019J-100708D01*
G02X208268Y71110I48538J-29897D01*
G02X208740Y71543I1105J-731D01*
G02X209075Y71681I804J-1479D01*
G37*
G36*
G01X278455Y40314D02*
G02X278663Y40216I-243J-790D01*
G02X278938Y40001I-1074J-1653D01*
G02X279254Y39678I-3681J-3919D01*
G02X279706Y39093I-3690J-3321D01*
G02X280030Y38488I-3102J-2049D01*
G02X280233Y37842I-3314J-1396D01*
G02X280324Y37139I-4231J-903D01*
G03X280330Y37029I4435J205D01*
G03X280339Y36931I2888J204D01*
G03X280348Y36850I3521J373D01*
G03X280357Y36824I71J9D01*
G03X280391Y36795I56J31D01*
G03X280587Y36727I3886J10837D01*
G03X280858Y36639I3170J9375D01*
G03X281264Y36517I13460J43923D01*
G01X281432Y36467D01*
X281410Y36369D01*
G02X281401Y36330I-1589J355D01*
G02X281392Y36296I-975J244D01*
G02X281383Y36268I-1338J385D01*
G02X281379Y36261I-17J5D01*
G02X281364Y36257I-11J11D01*
G02X281111Y36322I35451J138143D01*
G02X280832Y36397I5574J21598D01*
G02X280514Y36485I9845J36161D01*
G01X280306Y36543D01*
X280130Y36491D01*
G02X279723Y36392I-1216J4094D01*
G02X279335Y36341I-613J3183D01*
G02X278933Y36336I-239J3432D01*
G02X278484Y36376I257J5442D01*
G02X277734Y36523I794J6065D01*
G02X277086Y36752I1008J3865D01*
G02X276637Y37015I1063J2335D01*
G02X276549Y37257I136J186D01*
G02X276634Y37354I137J-34D01*
G02X276869Y37425I528J-1316D01*
G02X277182Y37466I420J-1987D01*
G02X277535Y37465I167J-3162D01*
G02X277666Y37456I-391J-6667D01*
G02X277858Y37441I-2293J-29019D01*
G02X278070Y37422I-2751J-32259D01*
G02X278273Y37402I-2484J-27032D01*
G03X278650Y37372I1067J10729D01*
G03X278945Y37363I263J4105D01*
G03X279167Y37373I-25J3238D01*
G03X279249Y37410I-10J129D01*
G03X279271Y37466I-55J55D01*
G03X279253Y37536I-147J-2D01*
G03X279182Y37638I-539J-298D01*
G03X279023Y37817I-5325J-4564D01*
G02X278925Y37927I3822J3507D01*
G02X278826Y38044I4733J4106D01*
G02X278738Y38153I4347J3586D01*
G02X278681Y38231I1056J827D01*
G02X278482Y38599I1809J1219D01*
G02X278349Y39009I2260J957D01*
G02X278286Y39452I2596J595D01*
G02X278294Y39921I3165J179D01*
G02X278307Y40040I5218J-475D01*
G02X278321Y40149I3481J-399D01*
G02X278335Y40238I4081J-599D01*
G02X278345Y40269I98J-16D01*
G02X278455Y40314I82J-44D01*
G37*
G36*
G01X274428Y46298D02*
G02X274461Y46317I472J-755D01*
G02X274489Y46332I520J-922D01*
G02X274499Y46335I10J-20D01*
G02X274534Y46301I0J-35D01*
G02X274544Y45558I-175136J-2800D01*
G02Y44876I-29384J-341D01*
G02X274521Y44437I-5467J63D01*
G02X274464Y44100I-2258J208D01*
G02X274358Y43775I-2221J550D01*
G02X274189Y43431I-2749J1137D01*
G02X273941Y43033I-5685J3266D01*
G01X273870Y42929D01*
G02X273808Y42837I-38311J25903D01*
G01X273755Y42759D01*
G02X273741Y42740I-531J363D01*
G03X273739Y42716I18J-13D01*
G03X273777Y42638I1806J833D01*
G03X273835Y42534I1815J939D01*
G03X273918Y42397I5775J3419D01*
G02X274000Y42265I-48995J-30648D01*
G02X274084Y42130I-53593J-33291D01*
G02X274158Y42010I-47670J-29464D01*
G02X274205Y41932I-9005J-5537D01*
G01X274295Y41783D01*
X274227Y41728D01*
G02X274200Y41707I-360J440D01*
G02X274173Y41689I-252J350D01*
G02X274149Y41676I-200J327D01*
G02X274136Y41672I-14J26D01*
G02X274122Y41680I0J17D01*
G02X274028Y41819I27820J18801D01*
G02X273923Y41980I7741J5181D01*
G02X273802Y42172I14908J9530D01*
G03X273653Y42407I-16319J-10136D01*
G03X273549Y42563I-3455J-2218D01*
G03X273471Y42667I-2078J-1469D01*
G03X273427Y42701I-94J-74D01*
G03X273389Y42717I-217J-468D01*
G03X273310Y42746I-2330J-6310D01*
G03X273217Y42778I-2379J-6692D01*
G03X273118Y42811I-2768J-8158D01*
G02X272478Y43086I1193J3656D01*
G02X271947Y43458I1367J2521D01*
G02X271532Y43922I1745J1977D01*
G02X271234Y44475I2236J1564D01*
G02X271158Y44680I3775J1509D01*
G02X271100Y44872I2735J924D01*
G02X271060Y45054I2424J636D01*
G02X271035Y45231I2049J378D01*
G01X271016Y45425D01*
X271087Y45411D01*
G02X271136Y45392I-29J-146D01*
G02X271378Y45241I-23981J-38838D01*
G02X271659Y45062I-11357J-18159D01*
G02X271979Y44853I-20194J-31170D01*
G03X272525Y44495I30072J45399D01*
G03X272883Y44275I5403J8376D01*
G03X273132Y44137I3030J5160D01*
G03X273247Y44108I114J217D01*
G03X273313Y44128I0J127D01*
G03X273362Y44179I-73J117D01*
G03X273401Y44281I-374J201D01*
G03X273442Y44472I-3752J905D01*
G02X273593Y45060I4532J-854D01*
G02X273812Y45576I3194J-1051D01*
G02X274084Y45991I2338J-1232D01*
G02X274391Y46274I1060J-844D01*
G02X274428Y46298I766J-1150D01*
G37*
G36*
G01X275231Y43925D02*
X275301Y43858D01*
G02X275381Y43756I-320J-334D01*
G02X275477Y43575I-2301J-1335D01*
G02X275563Y43376I-2427J-1168D01*
G02X275617Y43202I-1236J-476D01*
G02X275640Y43062I-1071J-251D01*
G02X275652Y42884I-2710J-277D01*
G02X275658Y42603I-8764J-318D01*
G02X275659Y42034I-119815J-495D01*
G02X275655Y41377I-59609J25D01*
G02X275641Y41008I-6748J78D01*
G02X275612Y40761I-2531J168D01*
G02X275561Y40565I-1128J187D01*
G03X275545Y40513I672J-238D01*
G03X275537Y40470I270J-74D01*
G03X275537Y40436I172J-19D01*
G03X275544Y40408I81J7D01*
G03X275564Y40378I120J56D01*
G03X275678Y40249I19076J16666D01*
G03X275812Y40099I10273J9102D01*
G03X275968Y39930I17085J15594D01*
G01X276370Y39498D01*
X276255Y39436D01*
G02X276211Y39412I-2019J3738D01*
G02X276172Y39392I-1118J2132D01*
G02X276138Y39376I-2466J4905D01*
G02X276132Y39374I-6J13D01*
G02X276126Y39377I0J8D01*
G01X276007Y39509D01*
G02X275874Y39656I22278J20105D01*
G02X275718Y39832I43477J38707D01*
G01X275314Y40290D01*
X275206Y40273D01*
G02X275137Y40267I-92J600D01*
G02X274971Y40261I-580J14729D01*
G02X274772Y40257I-395J13973D01*
G02X274558Y40255I-259J19095D01*
G02X274247Y40256I-73J25750D01*
G02X274068Y40263I31J3158D01*
G02X273928Y40278I107J1626D01*
G02X273773Y40307I394J2561D01*
G02X273668Y40332I487J2250D01*
G02X273558Y40364I778J2916D01*
G02X273457Y40397I806J2622D01*
G02X273386Y40426I254J728D01*
G02X273035Y40646I713J1529D01*
G02X272619Y41022I3420J4205D01*
G02X272238Y41446I3893J3886D01*
G02X271989Y41825I1736J1407D01*
G02X271933Y41941I2548J1320D01*
G02X271906Y42014I391J180D01*
G02X271901Y42071I186J47D01*
G02X271912Y42126I176J-8D01*
G02X271987Y42176I72J-28D01*
G02X272240Y42154I-94J-2538D01*
G02X272542Y42094I-360J-2613D01*
G02X272847Y41997I-766J-2953D01*
G02X273018Y41924I-712J-1899D01*
G02X273295Y41786I-6137J-12698D01*
G02X273568Y41643I-6718J-13143D01*
G02X273713Y41555I-734J-1365D01*
G03X273923Y41439I697J1014D01*
G03X274240Y41315I1905J4413D01*
G03X274557Y41214I2047J5853D01*
G03X274695Y41211I74J254D01*
G03X274740Y41246I-17J69D01*
G03X274765Y41319I-194J107D01*
G03X274780Y41467I-1309J200D01*
G03X274793Y41847I-39662J1589D01*
G02X274834Y42573I14236J-434D01*
G02X274910Y43136I5377J-439D01*
G02X275020Y43561I3195J-604D01*
G02X275171Y43846I932J-311D01*
G01X275231Y43925D01*
G37*
G36*
G01X276684Y41814D02*
G02X276711Y41850I488J-346D01*
G02X276735Y41877I478J-396D01*
G02X276746Y41882I12J-11D01*
G02X276781Y41867I0J-47D01*
G02X276909Y41729I-7743J-7283D01*
G02X277043Y41574I-3615J-3283D01*
G02X277168Y41417I-3460J-2884D01*
G02X277350Y41160I-3560J-2711D01*
G02X277506Y40900I-3197J-2095D01*
G02X277635Y40640I-3076J-1684D01*
G02X277735Y40382I-2673J-1188D01*
G02X277800Y40162I-3167J-1061D01*
G02X277836Y39978I-1447J-377D01*
G02X277859Y39735I-3329J-434D01*
G02X277885Y39230I-49854J-2831D01*
G03X277899Y38945I59019J2753D01*
G03X277913Y38682I43020J2203D01*
G03X277926Y38461I46010J2640D01*
G03X277934Y38370I1797J114D01*
G01X277951Y38229D01*
X278323Y37929D01*
G02X278570Y37730I-30853J-38421D01*
G02X278641Y37664I-470J-577D01*
G02X278654Y37628I-37J-35D01*
G02X278636Y37599I-34J1D01*
G02X278611Y37588I-83J159D01*
G02X278586Y37581I-52J151D01*
G02X278563Y37580I-21J124D01*
G02X278548Y37584I1J31D01*
G02X278527Y37596I458J800D01*
G01X278434Y37653D01*
X278325Y37720D01*
X278201Y37796D01*
X277883Y37991D01*
X277486Y37992D01*
G02X277142Y37997I9J11310D01*
G02X276780Y38013I442J14066D01*
G02X276450Y38036I724J12694D01*
G02X276222Y38064I257J3074D01*
G02X275849Y38165I284J1787D01*
G02X275330Y38389I2839J7279D01*
G02X274809Y38662I3415J7176D01*
G02X274410Y38926I1742J3054D01*
G02X274293Y39027I861J1123D01*
G02X274191Y39137I889J929D01*
G02X274116Y39237I967J798D01*
G02X274115Y39284I36J24D01*
G02X274125Y39294I31J-19D01*
G02X274151Y39312I371J-516D01*
G02X274183Y39332I362J-561D01*
G02X274219Y39351I445J-785D01*
G02X274276Y39374I163J-319D01*
G02X274338Y39388I120J-388D01*
G02X274419Y39395I106J-733D01*
G02X274540Y39397I118J-3466D01*
G02X274989Y39379I-6J-5807D01*
G02X275414Y39327I-374J-4747D01*
G02X275814Y39239I-727J-4270D01*
G02X276186Y39117I-952J-3536D01*
G03X276456Y39019I2394J6172D01*
G03X276663Y38961I668J1972D01*
G03X276825Y38936I262J1154D01*
G03X276954Y38942I40J470D01*
G03X277040Y38971I-68J353D01*
G03X277074Y39014I-27J56D01*
G03X277064Y39076I-87J18D01*
G03X277000Y39169I-633J-369D01*
G02X276795Y39467I1766J1433D01*
G02X276612Y39829I3145J1813D01*
G02X276472Y40208I3292J1435D01*
G02X276397Y40552I2008J618D01*
G02X276388Y40853I1502J198D01*
G02X276434Y41188I2415J-165D01*
G02X276527Y41511I2329J-493D01*
G02X276655Y41772I1268J-462D01*
G02X276684Y41814I829J-528D01*
G37*
G36*
G01X279225Y44135D02*
G02X279262Y44149I49J-74D01*
G02X279346Y44154I87J-703D01*
G02X279580Y44155I177J-28154D01*
G02X280015Y44141I-14J-7324D01*
G02X280290Y44094I-81J-1314D01*
G02X280469Y44008I-154J-550D01*
G02X280589Y43872I-235J-326D01*
G02X280629Y43760I-366J-196D01*
G02X280638Y43637I-455J-94D01*
G02X280615Y43519I-448J27D01*
G02X280561Y43419I-335J115D01*
G02X280498Y43355I-275J210D01*
G02X280400Y43288I-651J839D01*
G02X280298Y43233I-566J928D01*
G02X280231Y43218I-67J143D01*
G03X280217Y43217I0J-73D01*
G03X280206Y43213I8J-43D01*
G03X280198Y43207I11J-23D01*
G03X280196Y43200I7J-6D01*
G03X280201Y43188I22J1D01*
G03X280277Y43088I30194J23079D01*
G03X280366Y42974I8242J6351D01*
G03X280471Y42843I15133J12001D01*
G03X280612Y42672I8512J6872D01*
G03X280709Y42565I1574J1323D01*
G03X280782Y42496I674J652D01*
G03X280845Y42457I184J221D01*
G02X280940Y42405I-354J-763D01*
G02X280942Y42374I-10J-16D01*
G02X280887Y42354I-56J72D01*
G02X280716Y42356I-55J3940D01*
G01X280488Y42362D01*
X280187Y42761D01*
G03X280005Y43000I-22914J-17289D01*
G03X279921Y43099I-1061J-817D01*
G03X279863Y43147I-226J-213D01*
G03X279806Y43166I-68J-105D01*
G01X279726Y43174D01*
X279726Y42874D01*
G03X279731Y42666I4768J6D01*
G03X279748Y42546I604J27D01*
G03X279781Y42480I176J44D01*
G03X279832Y42450I63J49D01*
G02X279909Y42436I-255J-1686D01*
G02X279952Y42423I-43J-218D01*
G02X279976Y42407I-27J-63D01*
G02X279984Y42385I-23J-21D01*
G02X279969Y42367I-19J0D01*
G02X279913Y42357I-89J355D01*
G02X279810Y42352I-118J1314D01*
G02X279597Y42351I-205J19044D01*
G02X279385Y42352I-8J19036D01*
G02X279282Y42357I15J1319D01*
G02X279225Y42367I33J365D01*
G02X279210Y42385I5J19D01*
G02X279215Y42400I24J0D01*
G02X279229Y42414I56J-42D01*
G02X279250Y42426I60J-80D01*
G02X279275Y42434I52J-122D01*
G03X279342Y42452I-120J569D01*
G03X279382Y42475I-41J121D01*
G03X279408Y42508I-64J77D01*
G03X279428Y42560I-253J123D01*
G03X279435Y42615I-235J61D01*
G03X279440Y42814I-21614J566D01*
G03X279442Y43050I-14737J243D01*
G03X279440Y43316I-23502J18D01*
G03X279435Y43738I-85946J-890D01*
G03X279428Y43901I-2801J-44D01*
G03X279414Y43987I-585J-43D01*
G03X279388Y44028I-68J-15D01*
G03X279365Y44041I-69J-95D01*
G03X279336Y44052I-102J-234D01*
G03X279305Y44059I-77J-256D01*
G03X279276Y44062I-28J-166D01*
G02X279244Y44064I0J231D01*
G02X279224Y44072I6J44D01*
G02X279214Y44086I16J23D01*
G02X279210Y44108I69J23D01*
G02X279225Y44135I31J0D01*
G37*
G36*
G01X279247Y57157D02*
G02X279434Y57159I148J-5077D01*
G02X279619Y57157I-141J-18795D01*
G02X279632Y57143I0J-13D01*
G02X279628Y57131I-21J0D01*
G02X279597Y57089I-1942J1416D01*
G02X279558Y57040I-1278J975D01*
G02X279512Y56985I-2083J1722D01*
G02X279167Y56645I-2443J2130D01*
G02X278782Y56367I-1950J2296D01*
G02X278367Y56159I-1497J2462D01*
G02X277933Y56025I-987J2435D01*
G02X277739Y55998I-285J1321D01*
G02X277455Y55986I-378J5665D01*
G02X277176Y55987I-108J6638D01*
G02X277043Y56011I12J467D01*
G01X276972Y56034D01*
X277221Y56277D01*
G02X277513Y56544I4058J-4148D01*
G02X277791Y56758I2348J-2753D01*
G02X278057Y56923I1635J-2345D01*
G02X278312Y57038I888J-1627D01*
G02X278424Y57071I300J-823D01*
G02X278563Y57096I405J-1856D01*
G02X278761Y57119I604J-4244D01*
G02X279082Y57148I2496J-26413D01*
G02X279247Y57157I258J-3116D01*
G37*
G36*
G01X287377Y52777D02*
X287639Y53082D01*
G02X287645Y53085I6J-5D01*
G02X287646Y53082I0J-2D01*
G02X287641Y53070I-179J73D01*
G02X287632Y53052I-221J109D01*
G02X287619Y53032I-486J287D01*
G03X287592Y52990I5716J-3723D01*
G01X287195Y52372D01*
X286749Y51675D01*
X286225Y50858D01*
X284516Y48193D01*
X283604Y46770D01*
X283032Y45878D01*
G02X282802Y45521I-164118J105291D01*
G01X282602Y45210D01*
X282503Y45345D01*
X281572Y46610D01*
X280591Y47947D01*
X279589Y49315D01*
G02X279585Y49325I14J10D01*
G02X279594Y49330I5J0D01*
G02X279782Y49210I-37715J-59465D01*
G02X280110Y48999I-37579J-58851D01*
G01X281207Y48290D01*
X281756Y47935D01*
X282226Y47632D01*
X282641Y47365D01*
G03X282678Y47343I290J449D01*
G03X282706Y47334I46J86D01*
G03X282730Y47336I7J39D01*
G03X282755Y47354I-34J76D01*
G03X282793Y47395I-580J577D01*
G03X282897Y47515I-11955J10393D01*
G01X284255Y49111D01*
X285582Y50670D01*
X286746Y52037D01*
G02X287377Y52777I117843J-99979D01*
G37*
G36*
G01X276440Y56876D02*
G02X276503Y56899I147J-298D01*
G02X276525Y56891I5J-20D01*
G02X276527Y56864I-24J-16D01*
G03X276444Y56647I11720J-4610D01*
G03X276367Y56434I10635J-3965D01*
G03X276299Y56232I9516J-3325D01*
G03X276243Y56050I6164J-2013D01*
G03X276186Y55830I2996J-881D01*
G03X276151Y55621I2308J-500D01*
G03X276135Y55445I2586J-320D01*
G03X276161Y55395I55J-3D01*
G03X276226Y55377I63J102D01*
G03X276507Y55383I-182J16493D01*
G03X276864Y55398I-346J12099D01*
G03X277322Y55428I-1866J32170D01*
G02X277707Y55455I6053J-83926D01*
G02X277966Y55471I1220J-17986D01*
G02X278147Y55478I498J-9335D01*
G02X278255Y55478I44J-1313D01*
G02X278287Y55456I-2J-37D01*
G02X278288Y55412I-51J-23D01*
G02X278247Y55339I-269J105D01*
G02X278163Y55241I-1200J935D01*
G02X277734Y54897I-1355J1255D01*
G02X277150Y54629I-1711J2953D01*
G02X276469Y54456I-1330J3803D01*
G02X275752Y54398I-718J4395D01*
G03X275548Y54382I1J-1337D01*
G03X275420Y54330I46J-296D01*
G03X275295Y54211I357J-501D01*
G03X275059Y53904I9307J-7382D01*
G02X274900Y53692I-15349J11382D01*
G02X274802Y53572I-2008J1531D01*
G02X274734Y53499I-910J788D01*
G02X274695Y53484I-38J39D01*
G02X274645Y53512I0J59D01*
G02X274641Y53571I56J34D01*
G02X274711Y53703I791J-338D01*
G02X274930Y54034I24281J-15783D01*
G01X275165Y54386D01*
X275168Y54960D01*
G02X275170Y55303I38213J-152D01*
G02X275178Y55472I2776J-35D01*
G02X275193Y55590I1024J-76D01*
G02X275223Y55710I1162J-223D01*
G02X275282Y55877I1801J-546D01*
G02X275355Y56029I1389J-569D01*
G02X275438Y56161I1142J-626D01*
G02X275530Y56271I753J-539D01*
G02X275663Y56389I905J-888D01*
G02X275872Y56541I3274J-4265D01*
G02X276099Y56690I3162J-4560D01*
G02X276299Y56805I1534J-2460D01*
G02X276440Y56876I3501J-6754D01*
G37*
G36*
G01X272137Y52067D02*
G02X272166Y52071I16J-12D01*
G02X272218Y52017I-252J-293D01*
G02X272437Y51737I-62938J-49743D01*
G02X272654Y51442I-4726J-3701D01*
G02X272770Y51231I-992J-683D01*
G02X272857Y50975I-1598J-681D01*
G02X272976Y50472I-19009J-4786D01*
G03X273010Y50333I4155J932D01*
G03X273036Y50258I441J115D01*
G03X273071Y50202I246J112D01*
G03X273129Y50137I608J485D01*
G03X273178Y50091I758J757D01*
G03X273216Y50064I162J183D01*
G03X273246Y50051I55J94D01*
G03X273272Y50053I11J45D01*
G03X273298Y50067I-29J84D01*
G03X273355Y50113I-1518J1935D01*
G03X273421Y50171I-1482J1772D01*
G03X273492Y50236I-2208J2447D01*
G02X273703Y50435I12399J-12948D01*
G02X273872Y50586I4593J-4958D01*
G02X274024Y50713I3247J-3750D01*
G02X274183Y50835I3232J-4050D01*
G02X274511Y51054I2577J-3497D01*
G02X274786Y51187I822J-1359D01*
G02X274983Y51226I224J-610D01*
G02X275074Y51162I4J-92D01*
G02X275071Y51018I-212J-67D01*
G02X274932Y50672I-6045J2233D01*
G02X274759Y50318I-4484J1959D01*
G02X274588Y50050I-1844J989D01*
G02X274290Y49706I-2607J1958D01*
G02X273922Y49376I-3202J3194D01*
G02X273509Y49078I-3001J3732D01*
G02X273073Y48831I-2413J3757D01*
G01X272836Y48714D01*
X272836Y48254D01*
X272835Y47794D01*
X272762Y47779D01*
G02X272677Y47778I-47J235D01*
G02X272638Y47814I8J47D01*
G02X272626Y47913I412J102D01*
G02X272624Y48336I61585J415D01*
G03X272620Y48766I-22273J-2D01*
G03X272599Y48942I-880J-17D01*
G03X272545Y49071I-387J-86D01*
G03X272423Y49238I-1496J-970D01*
G02X272268Y49460I1256J1039D01*
G02X272144Y49716I1688J976D01*
G02X272052Y50003I2043J813D01*
G02X271992Y50319I2773J683D01*
G02X271968Y50696I2928J379D01*
G02X271984Y51157I6489J3D01*
G02X272034Y51623I6599J-465D01*
G02X272112Y52016I3542J-504D01*
G02X272137Y52067I146J-38D01*
G37*
G36*
G01X274311Y48840D02*
G02X274380Y48878I590J-971D01*
G02X274440Y48906I469J-909D01*
G02X274472Y48913I32J-74D01*
G01X274530D01*
X274515Y48638D01*
G02X274479Y48275I-4307J238D01*
G02X274415Y47958I-2629J370D01*
G02X274312Y47649I-2623J702D01*
G02X274159Y47308I-4370J1754D01*
G02X274039Y47084I-3686J1830D01*
G02X273906Y46868I-3497J2015D01*
G02X273755Y46655I-3610J2394D01*
G02X273580Y46435I-4552J3432D01*
G02X273441Y46279I-2269J1893D01*
G02X273226Y46061I-9428J9071D01*
G02X273011Y45852I-10013J10083D01*
G02X272884Y45744I-1041J1095D01*
G01X272804Y45683D01*
X272874Y45175D01*
G02X272918Y44836I-24877J-3420D01*
G02X272925Y44698I-921J-114D01*
G02X272906Y44630I-143J4D01*
G02X272859Y44598I-58J34D01*
G02X272801Y44599I-26J146D01*
G02X272752Y44623I25J113D01*
G02X272711Y44671I112J136D01*
G02X272675Y44748I457J262D01*
G02X272635Y44877I1160J433D01*
G02X272560Y45181I25903J6565D01*
G02X272489Y45487I20459J4932D01*
G02X272450Y45682I3541J798D01*
G03X272442Y45716I-287J-48D01*
G03X272431Y45746I-215J-63D01*
G03X272418Y45770I-155J-71D01*
G03X272406Y45780I-22J-15D01*
G02X272336Y45820I91J237D01*
G02X272163Y45964I6438J7912D01*
G02X271984Y46122I4456J5236D01*
G02X271840Y46261I2328J2549D01*
G02X271468Y46720I2302J2245D01*
G02X271211Y47214I2115J1412D01*
G02X271070Y47749I2332J903D01*
G02X271040Y48327I2970J442D01*
G02X271052Y48532I7490J-341D01*
G02X271068Y48694I3040J-220D01*
G02X271087Y48818I2817J-357D01*
G02X271107Y48857I72J-13D01*
G02X271139Y48862I19J-19D01*
G02X271261Y48795I-1556J-2997D01*
G02X271401Y48709I-1164J-2036D01*
G02X271544Y48607I-1739J-2601D01*
G02X271723Y48452I-1036J-1375D01*
G02X271905Y48254I-2053J-2064D01*
G02X272111Y47987I-3668J-3059D01*
G02X272369Y47619I-12035J-8674D01*
G03X272480Y47458I9904J6696D01*
G03X272579Y47318I5821J4072D01*
G03X272666Y47202I9771J7194D01*
G03X272691Y47181I62J47D01*
G03X272749Y47172I41J76D01*
G03X272807Y47200I-25J126D01*
G03X272869Y47271I-207J243D01*
G03X272937Y47390I-1163J748D01*
G02X273161Y47751I2284J-1167D01*
G02X273474Y48127I3573J-2652D01*
G02X273844Y48486I3570J-3314D01*
G02X274241Y48794I2913J-3344D01*
G02X274311Y48840I832J-1208D01*
G37*
G36*
G01X273944Y54754D02*
G02X273987Y54813I1605J-1135D01*
G02X274025Y54862I3039J-2318D01*
G02X274035Y54866I10J-8D01*
G02X274044Y54864I0J-18D01*
G02X274064Y54851I-205J-332D01*
G02X274086Y54834I-234J-331D01*
G02X274110Y54814I-369J-457D01*
G02X274145Y54764I-95J-105D01*
G02X274168Y54689I-347J-149D01*
G02X274190Y54554I-1697J-339D01*
G02X274228Y54222I-44388J-5281D01*
G02X274289Y53669I-255259J-28370D01*
G02X274317Y53393I-19319J-2109D01*
G02X274331Y53219I-6090J-574D01*
G02X274335Y53088I-1991J-131D01*
G03X274346Y52934I1109J0D01*
G03X274384Y52849I170J24D01*
G03X274452Y52811I82J67D01*
G03X274560Y52814I44J348D01*
G03X274675Y52858I-62J334D01*
G03X274867Y52984I-1851J3030D01*
G03X275082Y53147I-2248J3196D01*
G03X275292Y53329I-2732J3363D01*
G02X275488Y53497I2318J-2508D01*
G02X275656Y53610I798J-1006D01*
G02X275811Y53678I426J-756D01*
G02X275970Y53711I224J-682D01*
G02X276079Y53713I67J-736D01*
G02X276182Y53698I-35J-602D01*
G02X276259Y53672I-98J-419D01*
G02X276281Y53639I-15J-33D01*
G02X276277Y53620I-51J0D01*
G02X276254Y53564I-2764J1098D01*
G02X276225Y53497I-2141J897D01*
G02X276190Y53424I-3289J1504D01*
G02X275935Y53018I-1932J936D01*
G02X275557Y52610I-3010J2409D01*
G02X275108Y52247I-2807J3003D01*
G02X274639Y51974I-1844J2633D01*
G02X274434Y51884I-1600J3381D01*
G02X274212Y51802I-1745J4345D01*
G02X273999Y51734I-1395J4053D01*
G02X273822Y51693I-516J1799D01*
G01X273670Y51665D01*
X273552Y51271D01*
X273433Y50877D01*
X273343Y50889D01*
G02X273308Y50895I104J771D01*
G02X273276Y50902I96J529D01*
G02X273250Y50909I128J521D01*
G02X273240Y50915I7J22D01*
G02X273236Y50927I10J10D01*
G02X273257Y51045I20115J-3484D01*
G02X273283Y51182I6137J-1098D01*
G02X273317Y51341I11526J-2338D01*
G03X273372Y51602I-22275J4825D01*
G03X273390Y51721I-1196J245D01*
G03X273391Y51811I-494J51D01*
G03X273377Y51922I-1158J-91D01*
G02X273335Y52173I12707J2242D01*
G02X273313Y52346I2954J462D01*
G02X273303Y52509I2495J242D01*
G02X273299Y52722I7031J222D01*
G02X273309Y53008I4196J4D01*
G02X273338Y53267I2865J-193D01*
G02X273391Y53522I2841J-452D01*
G02X273471Y53798I4104J-1041D01*
G02X273558Y54037I3760J-1232D01*
G02X273659Y54267I3498J-1400D01*
G02X273772Y54484I3237J-1553D01*
G02X273896Y54685I2695J-1527D01*
G02X273944Y54754I2967J-1992D01*
G37*
G36*
G01X281640Y44160D02*
G02X281710Y44168I138J-855D01*
G02X281794Y44172I91J-1166D01*
G02X281889Y44170I10J-1956D01*
G02X282004Y44162I-97J-2297D01*
G02X282084Y44149I-56J-602D01*
G02X282157Y44126I-114J-489D01*
G02X282244Y44088I-451J-1132D01*
G02X282369Y44013I-388J-788D01*
G02X282473Y43921I-423J-589D01*
G02X282562Y43808I-576J-542D01*
G02X282641Y43666I-1045J-674D01*
G02X282683Y43568I-1349J-638D01*
G02X282703Y43496I-356J-138D01*
G02X282712Y43410I-565J-99D01*
G02X282713Y43253I-5593J-132D01*
G02X282710Y43113I-4252J18D01*
G02X282702Y43019I-944J35D01*
G02X282686Y42942I-589J82D01*
G02X282659Y42860I-778J215D01*
G02X282589Y42728I-653J258D01*
G02X282486Y42597I-893J599D01*
G02X282364Y42484I-790J728D01*
G02X282238Y42404I-433J546D01*
G02X282154Y42368I-427J871D01*
G02X282085Y42349I-130J341D01*
G02X282000Y42341I-102J611D01*
G02X281847Y42339I-156J5536D01*
G02X281695Y42341I0J5520D01*
G02X281609Y42349I18J626D01*
G02X281541Y42368I60J361D01*
G02X281458Y42404I331J877D01*
G02X281337Y42479I309J629D01*
G02X281220Y42584I649J837D01*
G02X281118Y42708I790J755D01*
G02X281043Y42838I691J489D01*
G02X281008Y42922I848J398D01*
G02X280990Y42994I369J131D01*
G02X280982Y43082I682J105D01*
G02X280981Y43241I6129J145D01*
G02X280983Y43389I4961J-10D01*
G02X280991Y43485I960J-31D01*
G02X281007Y43562I567J-75D01*
G02X281034Y43643I749J-208D01*
G02X281123Y43807I741J-296D01*
G02X281250Y43951I728J-513D01*
G02X281407Y44066I621J-679D01*
G02X281584Y44146I465J-796D01*
G02X281640Y44160I113J-345D01*
G37*
G36*
G01X285464Y38782D02*
G02X285523Y38784I38J-306D01*
G02X285551Y38772I-3J-46D01*
G02X285562Y38747I-22J-25D01*
G02X285550Y38658I-339J0D01*
G02X285492Y38455I-7370J2002D01*
G02X285424Y38244I-5654J1706D01*
G02X285360Y38079I-2280J783D01*
G02X285054Y37513I-3204J1369D01*
G02X284626Y36966I-3876J2590D01*
G02X284107Y36472I-3676J3343D01*
G02X283525Y36061I-3081J3747D01*
G02X283330Y35955I-1361J2262D01*
G02X283160Y35886I-554J1126D01*
G02X282996Y35848I-314J976D01*
G02X282822Y35835I-174J1181D01*
G02X282635Y35848I0J1363D01*
G02X282487Y35888I85J615D01*
G02X282328Y35970I359J887D01*
G02X282092Y36131I3076J4771D01*
G02X281837Y36316I19336J26907D01*
G02X281708Y36416I1702J2325D01*
G02X281594Y36516I1392J1688D01*
G02X281420Y36684I9193J9707D01*
G02X281164Y36967I2337J2379D01*
G02X280945Y37273I2442J1974D01*
G02X280771Y37593I2483J1555D01*
G02X280649Y37914I2134J993D01*
G02X280619Y38030I1722J513D01*
G02X280599Y38140I1399J318D01*
G02X280585Y38264I1792J260D01*
G02X280576Y38420I4459J341D01*
G01X280564Y38719D01*
X280701Y38704D01*
G02X280938Y38656I-151J-1358D01*
G02X281194Y38562I-619J-2084D01*
G02X281448Y38432I-958J-2182D01*
G02X281683Y38273I-1169J-1977D01*
G02X281840Y38137I-1117J-1449D01*
G02X282044Y37930I-4776J-4918D01*
G02X282246Y37707I-5064J-4794D01*
G02X282399Y37516I-2329J-2021D01*
G02X282468Y37419I-2765J-2037D01*
G02X282552Y37294I-7022J-4813D01*
G02X282636Y37163I-7390J-4872D01*
G02X282708Y37048I-4390J-2787D01*
G03X282856Y36802I29737J17791D01*
G03X282912Y36723I616J375D01*
G03X282954Y36691I89J72D01*
G03X283003Y36683I39J86D01*
G03X283041Y36698I-9J80D01*
G03X283077Y36733I-103J143D01*
G03X283121Y36798I-438J342D01*
G03X283192Y36925I-4878J2804D01*
G02X283458Y37366I4863J-2631D01*
G02X283752Y37758I3746J-2504D01*
G02X284067Y38093I3043J-2552D01*
G02X284398Y38362I2025J-2145D01*
G02X284622Y38502I1413J-2012D01*
G02X284867Y38623I1366J-2471D01*
G02X285110Y38714I1023J-2366D01*
G02X285325Y38763I414J-1303D01*
G02X285464Y38782I1027J-6995D01*
G37*
G36*
G01X287504Y40296D02*
G02X287578Y40310I84J-242D01*
G02X287634Y40300I6J-138D01*
G02X287669Y40269I-25J-63D01*
G02X287702Y40159I-260J-139D01*
G02X287724Y39890I-6482J-641D01*
G02X287732Y39603I-5155J-295D01*
G02X287721Y39367I-2387J-4D01*
G02X287645Y38929I-2963J289D01*
G02X287508Y38547I-2022J509D01*
G02X287293Y38184I-2054J972D01*
G02X286982Y37805I-3349J2429D01*
G03X286830Y37634I4626J-4275D01*
G03X286760Y37534I441J-379D01*
G03X286743Y37465I125J-68D01*
G03X286766Y37410I79J0D01*
G03X286848Y37372I92J92D01*
G03X287068Y37363I248J3162D01*
G03X287361Y37371I33J4000D01*
G03X287730Y37402I-655J10107D01*
G02X288189Y37445I2997J-29501D01*
G02X288510Y37465I629J-7296D01*
G02X288757Y37468I167J-4005D01*
G02X288972Y37454I-46J-2311D01*
G02X289163Y37423I-229J-2023D01*
G02X289315Y37377I-192J-912D01*
G02X289421Y37321I-203J-511D01*
G02X289465Y37257I-61J-90D01*
G02X289381Y37019I-221J-55D01*
G02X288950Y36761I-1450J1935D01*
G02X288323Y36534I-1618J3482D01*
G02X287589Y36386I-1570J5876D01*
G02X287114Y36339I-832J5996D01*
G02X286700Y36339I-203J3432D01*
G02X286305Y36389I194J3147D01*
G02X285886Y36490I800J4208D01*
G01X285712Y36542D01*
X285178Y36397D01*
G02X284973Y36343I-4864J17911D01*
G02X284797Y36299I-2431J9411D01*
G02X284644Y36263I-9209J38437D01*
G02X284631Y36266I-3J13D01*
G02X284625Y36277I14J14D01*
G02X284620Y36305I481J97D01*
G02X284617Y36339I496J71D01*
G02X284615Y36377I740J54D01*
G01X284613Y36475D01*
X285058Y36612D01*
G02X285233Y36665I13557J-44026D01*
G02X285392Y36713I8867J-29158D01*
G02X285525Y36752I11132J-37363D01*
G02X285569Y36764I206J-700D01*
G03X285595Y36773I-33J146D01*
G03X285621Y36786I-73J168D01*
G03X285643Y36803I-88J136D01*
G03X285656Y36820I-43J47D01*
G03X285665Y36849I-75J40D01*
G03X285675Y36931I-3102J419D01*
G03X285684Y37030I-2742J302D01*
G03X285691Y37139I-4072J297D01*
G02X285782Y37842I4317J-199D01*
G02X285985Y38488I3518J-751D01*
G02X286309Y39093I3427J-1444D01*
G02X286761Y39678I4142J-2736D01*
G02X286944Y39872I3970J-3571D01*
G02X287121Y40039I2626J-2614D01*
G02X287284Y40171I1890J-2144D01*
G02X287420Y40259I625J-823D01*
G02X287504Y40296I276J-515D01*
G37*
G36*
G01X291491Y46173D02*
G02X291499Y46258I2192J-176D01*
G02X291508Y46329I4760J-578D01*
G02X291515Y46335I7J-1D01*
G02X291526Y46332I0J-22D01*
G02X291554Y46317I-492J-938D01*
G02X291587Y46298I-439J-774D01*
G02X291623Y46274I-729J-1173D01*
G02X291926Y45999I-758J-1136D01*
G02X292191Y45600I-1969J-1598D01*
G02X292407Y45102I-2854J-1532D01*
G02X292559Y44530I-4352J-1467D01*
G03X292607Y44301I12255J2430D01*
G03X292638Y44199I659J144D01*
G03X292672Y44146I148J58D01*
G03X292720Y44119I73J71D01*
G03X292845Y44125I52J209D01*
G03X293024Y44206I-388J1095D01*
G03X293326Y44389I-2579J4608D01*
G03X294046Y44861I-72929J112032D01*
G02X294361Y45066I24075J-36448D01*
G02X294636Y45242I13611J-21015D01*
G02X294874Y45391I30074J-47752D01*
G02X294919Y45410I82J-132D01*
G02X294959Y45417I74J-301D01*
G02X294975Y45410I2J-18D01*
G02X294982Y45389I-30J-22D01*
G02X294984Y45324I-1691J-64D01*
G02X294976Y45193I-1139J2D01*
G02X294952Y45042I-2075J244D01*
G02X294915Y44875I-2526J486D01*
G02X294863Y44698I-3432J900D01*
G02X294573Y44063I-2785J888D01*
G02X294147Y43533I-2253J1375D01*
G02X293586Y43115I-1950J2033D01*
G02X292896Y42811I-1861J3285D01*
G03X292798Y42778I2670J-8191D01*
G03X292705Y42746I2286J-6725D01*
G03X292626Y42717I2251J-6338D01*
G03X292587Y42701I179J-484D01*
G03X292544Y42667I51J-109D01*
G03X292466Y42563I2000J-1573D01*
G03X292361Y42407I3350J-2373D01*
G03X292212Y42172I16171J-10372D01*
G02X292092Y41980I-15029J9339D01*
G02X291986Y41819I-7847J5020D01*
G02X291893Y41680I-27913J18662D01*
G02X291878Y41672I-14J9D01*
G02X291866Y41676I0J29D01*
G02X291842Y41689I173J335D01*
G02X291815Y41706I221J361D01*
G02X291788Y41727I326J452D01*
G02X291750Y41776I87J107D01*
G02X291750Y41825I54J25D01*
G02X291793Y41908I587J-253D01*
G02X292031Y42291I114980J-71143D01*
G03X292142Y42473I-10025J6254D01*
G03X292220Y42610I-3119J1866D01*
G03X292276Y42716I-4200J2275D01*
G03X292273Y42739I-20J10D01*
G02X292260Y42759I440J327D01*
G01X292203Y42841D01*
G02X292138Y42939I36887J25016D01*
G02X292063Y43049I60729J40989D01*
G02X291820Y43440I5281J3553D01*
G02X291654Y43780I2528J1446D01*
G02X291550Y44102I2092J859D01*
G02X291493Y44437I2234J547D01*
G02X291476Y44731I4263J394D01*
G02X291469Y45213I27954J647D01*
G02X291471Y45708I26907J160D01*
G02X291484Y46071I8068J-100D01*
G02X291491Y46173I4304J-251D01*
G37*
G36*
G01X289167Y41794D02*
G02X289214Y41840I1037J-1021D01*
G02X289255Y41877I1422J-1529D01*
G02X289268Y41882I13J-15D01*
G02X289299Y41865I0J-37D01*
G02X289365Y41761I-2152J-1433D01*
G02X289429Y41644I-1473J-882D01*
G02X289478Y41532I-1057J-525D01*
G02X289571Y41219I-2196J-822D01*
G02X289619Y40897I-2282J-508D01*
G02X289621Y40587I-2123J-169D01*
G02X289575Y40311I-1417J94D01*
G02X289480Y40016I-3035J819D01*
G02X289353Y39720I-3413J1294D01*
G02X289203Y39443I-3170J1532D01*
G02X289039Y39202I-2187J1312D01*
G03X288958Y39085I1160J-890D01*
G03X288941Y39017I95J-59D01*
G03X288972Y38972I55J5D01*
G03X289060Y38942I156J319D01*
G03X289188Y38935I89J460D01*
G03X289349Y38960I-100J1210D01*
G03X289546Y39014I-414J1883D01*
G03X289787Y39102I-1501J4493D01*
G02X290142Y39226I1661J-4199D01*
G02X290480Y39308I961J-3182D01*
G02X290847Y39361I724J-3790D01*
G02X291293Y39390I750J-8061D01*
G02X291540Y39398I849J-22703D01*
G02X291648Y39395I29J-1098D01*
G02X291719Y39382I-24J-337D01*
G02X291790Y39354I-117J-399D01*
G02X291859Y39311I-207J-405D01*
G02X291885Y39270I-43J-56D01*
G02X291879Y39220I-75J-17D01*
G02X291837Y39146I-504J236D01*
G02X291561Y38878I-773J520D01*
G02X290942Y38519I-5018J7950D01*
G02X290280Y38204I-4053J7657D01*
G02X289793Y38064I-813J1912D01*
G02X289565Y38036I-485J3046D01*
G02X289235Y38013I-1054J12671D01*
G02X288872Y37997I-805J14050D01*
G02X288528Y37992I-353J11304D01*
G01X288131Y37991D01*
X287813Y37796D01*
X287690Y37720D01*
X287580Y37653D01*
X287488Y37596D01*
G02X287467Y37584I-478J788D01*
G02X287452Y37580I-16J27D01*
G02X287429Y37581I-2J125D01*
G02X287403Y37588I26J158D01*
G02X287378Y37599I58J169D01*
G02X287360Y37628I16J30D01*
G02X287374Y37664I50J2D01*
G02X287445Y37730I541J-512D01*
G02X287691Y37929I31100J-38222D01*
G01X288064Y38229D01*
X288080Y38367D01*
G03X288088Y38456I-1697J192D01*
G03X288100Y38680I-47925J2891D01*
G03X288115Y38948I-43925J2449D01*
G03X288128Y39239I-61249J3031D01*
G02X288155Y39741I30054J-1352D01*
G02X288184Y40018I3229J-198D01*
G02X288231Y40234I1660J-247D01*
G02X288313Y40483I3132J-899D01*
G02X288453Y40796I2692J-1013D01*
G02X288643Y41126I3812J-1982D01*
G02X288869Y41447I3852J-2458D01*
G02X289116Y41740I3270J-2506D01*
G02X289167Y41794I1814J-1678D01*
G37*
G36*
G01X290725Y43867D02*
G02X290754Y43891I196J-206D01*
G02X290780Y43907I120J-166D01*
G02X290793Y43906I6J-12D01*
G02X290841Y43859I-77J-125D01*
G02X290905Y43745I-1444J-893D01*
G02X290969Y43606I-1617J-833D01*
G02X291022Y43462I-1721J-713D01*
G02X291102Y43158I-2721J-872D01*
G02X291158Y42812I-4339J-879D01*
G02X291196Y42382I-6981J-846D01*
G02X291222Y41812I-20957J-1242D01*
G03X291236Y41456I34002J1082D01*
G03X291250Y41315I1203J51D01*
G03X291275Y41245I204J33D01*
G03X291319Y41211I62J36D01*
G03X291458Y41214I64J257D01*
G03X291775Y41315I-1730J5954D01*
G03X292092Y41439I-1588J4536D01*
G03X292302Y41555I-487J1130D01*
G02X292446Y41643I878J-1277D01*
G02X292720Y41786I6991J-13000D01*
G02X292997Y41924I6415J-12560D01*
G02X293168Y41997I883J-1826D01*
G02X293371Y42066I1148J-3060D01*
G02X293572Y42119I820J-2721D01*
G02X293756Y42152I519J-2324D01*
G02X293909Y42163I154J-1080D01*
G02X294029Y42160I0J-2105D01*
G02X294082Y42144I-7J-127D01*
G02X294108Y42112I-26J-47D01*
G02X294117Y42050I-225J-62D01*
G02X294104Y41988I-153J0D01*
G02X294043Y41859I-2760J1219D01*
G02X293968Y41719I-2348J1172D01*
G02X293890Y41595I-1620J935D01*
G02X293768Y41435I-1806J1240D01*
G02X293585Y41222I-6245J5190D01*
G02X293392Y41013I-6057J5402D01*
G02X293241Y40868I-1804J1726D01*
G02X292962Y40637I-3607J4084D01*
G02X292731Y40484I-1163J1508D01*
G02X292504Y40381I-719J1281D01*
G02X292242Y40307I-705J1981D01*
G02X292086Y40278I-543J2523D01*
G02X291946Y40263I-248J1639D01*
G02X291766Y40256I-211J3196D01*
G02X291456Y40255I-237J25519D01*
G02X291242Y40257I44J19096D01*
G02X291044Y40261I197J13977D01*
G02X290878Y40267I414J14735D01*
G02X290809Y40273I24J607D01*
G01X290700Y40290D01*
X290296Y39832D01*
G02X290140Y39656I-43633J38531D01*
G02X290008Y39509I-22410J19957D01*
G01X289889Y39377D01*
G02X289883Y39374I-6J5D01*
G02X289877Y39376I0J14D01*
G02X289843Y39392I2432J4922D01*
G02X289804Y39412I1079J2152D01*
G02X289759Y39436I1974J3762D01*
G01X289645Y39498D01*
X290047Y39930D01*
G03X290202Y40099I-16929J15763D01*
G03X290337Y40249I-10138J9252D01*
G03X290450Y40378I-18963J16795D01*
G03X290470Y40408I-99J87D01*
G03X290478Y40436I-74J35D01*
G03X290478Y40470I-172J16D01*
G03X290469Y40513I-279J-31D01*
G03X290453Y40565I-688J-186D01*
G02X290402Y40761I1077J383D01*
G02X290374Y41008I2503J414D01*
G02X290359Y41377I6734J448D01*
G02X290356Y42034I59605J682D01*
G02X290356Y42598I117062J74D01*
G02X290362Y42882I9026J-40D01*
G02X290374Y43060I2851J-102D01*
G02X290397Y43198I1050J-104D01*
G02X290448Y43366I1384J-325D01*
G02X290525Y43551I2279J-842D01*
G02X290613Y43720I2087J-974D01*
G02X290694Y43835I608J-348D01*
G02X290725Y43867I373J-327D01*
G37*
G36*
G01X285174Y44172D02*
G02X285278Y44174I66J-638D01*
G02X285388Y44159I-44J-749D01*
G02X285507Y44127I-231J-1096D01*
G01X285664Y44076D01*
X285698Y44127D01*
G02X285725Y44158I115J-76D01*
G02X285759Y44177I70J-85D01*
G02X285785Y44177I13J-39D01*
G02X285796Y44161I-5J-16D01*
G03X285799Y44120I380J1D01*
G03X285822Y43922I80266J9125D01*
G03X285844Y43734I41146J4783D01*
G03X285855Y43656I1721J208D01*
G02X285860Y43619I-418J-70D01*
G02X285855Y43603I-26J-2D01*
G02X285843Y43596I-13J9D01*
G02X285815Y43597I-5J152D01*
G02X285792Y43605I10J69D01*
G02X285773Y43620I35J66D01*
G02X285757Y43642I69J64D01*
G02X285747Y43672I146J71D01*
G03X285682Y43813I-442J-118D01*
G03X285571Y43932I-446J-306D01*
G03X285431Y44011I-328J-416D01*
G03X285283Y44038I-149J-389D01*
G03X285214Y44035I1J-841D01*
G03X285169Y44026I14J-169D01*
G03X285132Y44005I48J-131D01*
G03X285089Y43967I279J-360D01*
G03X285049Y43923I397J-396D01*
G03X285031Y43890I83J-68D01*
G03X285025Y43851I108J-36D01*
G03X285029Y43790I666J13D01*
G03X285054Y43696I321J36D01*
G03X285105Y43622I225J98D01*
G03X285202Y43541I449J445D01*
G03X285404Y43412I3822J5716D01*
G02X285603Y43280I-2151J-3474D01*
G02X285744Y43166I-776J-1102D01*
G02X285836Y43063I-521J-564D01*
G02X285886Y42965I-252J-188D01*
G02X285901Y42721I-520J-156D01*
G02X285805Y42514I-419J69D01*
G02X285607Y42376I-365J314D01*
G02X285339Y42329I-261J706D01*
G02X285267Y42333I8J886D01*
G02X285186Y42342I128J1419D01*
G02X285108Y42356I199J1346D01*
G02X285046Y42372I117J561D01*
G03X284957Y42398I-393J-1200D01*
G03X284902Y42403I-43J-175D01*
G03X284871Y42389I3J-48D01*
G03X284859Y42360I29J-29D01*
G02X284856Y42347I-25J0D01*
G02X284846Y42337I-31J18D01*
G02X284832Y42330I-27J36D01*
G02X284816Y42327I-17J55D01*
G02X284792Y42337I0J33D01*
G02X284775Y42365I54J52D01*
G02X284761Y42420I309J108D01*
G02X284744Y42532I4352J714D01*
G03X284732Y42617I-34303J-4678D01*
G03X284720Y42703I-35588J-4981D01*
G03X284709Y42778I-31687J-4512D01*
G03X284702Y42825I-5233J-765D01*
G02X284701Y42897I255J39D01*
G02X284728Y42915I21J-3D01*
G02X284771Y42885I-17J-71D01*
G02X284823Y42797I-660J-449D01*
G03X284929Y42630I903J457D01*
G03X285052Y42518I399J313D01*
G03X285193Y42459I229J351D01*
G03X285355Y42450I111J521D01*
G03X285465Y42476I-39J402D01*
G03X285544Y42531I-81J205D01*
G03X285592Y42613I-155J145D01*
G03X285609Y42720I-343J107D01*
G03X285588Y42842I-376J-1D01*
G03X285530Y42941I-274J-94D01*
G03X285415Y43041I-458J-410D01*
G03X285202Y43176I-2326J-3458D01*
G02X284966Y43338I988J1680D01*
G02X284828Y43497I376J466D01*
G02X284773Y43668I341J204D01*
G02X284791Y43862I554J47D01*
G02X284831Y43948I278J-77D01*
G02X284904Y44037I536J-364D01*
G02X284992Y44112I461J-452D01*
G02X285076Y44153I162J-228D01*
G02X285174Y44172I155J-539D01*
G37*
G36*
G01X282804Y44147D02*
G02X282911Y44150I399J-11936D01*
G02X283036Y44151I121J-4892D01*
G02X283182Y44150I-7J-8898D01*
G02X283386Y44145I-291J-17132D01*
G02X283488Y44138I-37J-1272D01*
G02X283544Y44128I-40J-363D01*
G02X283558Y44109I-5J-19D01*
G02X283552Y44093I-24J0D01*
G02X283535Y44080I-49J43D01*
G02X283508Y44068I-62J109D01*
G02X283471Y44060I-88J309D01*
G03X283378Y44033I62J-384D01*
G03X283334Y43987I34J-77D01*
G03X283315Y43898I240J-96D01*
G03X283312Y43660I8314J-238D01*
G01Y43335D01*
X284085D01*
Y43651D01*
G03X284084Y43837I-12605J5D01*
G03X284078Y43924I-768J-12D01*
G03X284064Y43976I-207J-27D01*
G03X284039Y44015I-108J-44D01*
G03X284013Y44034I-91J-91D01*
G03X283982Y44049I-93J-155D01*
G03X283946Y44058I-69J-192D01*
G03X283908Y44062I-38J-232D01*
G02X283865Y44063I-1J568D01*
G02X283842Y44070I4J56D01*
G02X283833Y44082I9J17D01*
G02X283832Y44103I45J11D01*
G02X283851Y44125I30J-6D01*
G02X283901Y44137I70J-187D01*
G02X283998Y44142I107J-1026D01*
G02X284226Y44144I228J-23546D01*
G02X284454Y44142I1J-23537D01*
G02X284551Y44137I-10J-1032D01*
G02X284601Y44125I-21J-199D01*
G02X284620Y44103I-11J-29D01*
G02X284620Y44083I-48J-10D01*
G02X284611Y44070I-19J4D01*
G02X284590Y44063I-25J41D01*
G02X284552Y44062I-38J423D01*
G03X284520Y44059I0J-184D01*
G03X284486Y44050I44J-249D01*
G03X284455Y44038I72J-220D01*
G03X284433Y44023I42J-86D01*
G03X284408Y43977I54J-59D01*
G03X284397Y43879I840J-146D01*
G03X284391Y43698I3566J-197D01*
G03X284390Y43251I94053J-455D01*
G03X284392Y42708I67610J3D01*
G03X284407Y42550I909J8D01*
G03X284452Y42476I122J23D01*
G03X284541Y42434I127J157D01*
G02X284575Y42426I-50J-266D01*
G02X284602Y42414I-40J-124D01*
G02X284619Y42400I-38J-64D01*
G02X284624Y42385I-17J-15D01*
G02X284610Y42366I-19J0D01*
G02X284550Y42357I-96J422D01*
G02X284443Y42352I-122J1440D01*
G02X284226Y42351I-218J19716D01*
G02X284009Y42352I1J19727D01*
G02X283902Y42357I15J1445D01*
G02X283842Y42366I37J432D01*
G02X283828Y42385I4J18D01*
G02X283834Y42400I22J0D01*
G02X283851Y42414I54J-50D01*
G02X283879Y42426I68J-119D01*
G02X283916Y42435I93J-305D01*
G03X284014Y42466I-71J398D01*
G03X284062Y42516I-39J85D01*
G03X284082Y42611I-259J104D01*
G03X284085Y42858I-7953J246D01*
G01Y43194D01*
X283312D01*
Y42856D01*
G03X283316Y42607I8802J-1D01*
G03X283334Y42513I283J8D01*
G03X283380Y42464I82J32D01*
G03X283474Y42436I152J335D01*
G02X283516Y42427I-67J-416D01*
G02X283545Y42415I-36J-137D01*
G02X283564Y42402I-32J-60D01*
G02X283570Y42386I-17J-16D01*
G02X283555Y42367I-19J0D01*
G02X283497Y42357I-92J373D01*
G02X283391Y42352I-121J1380D01*
G02X283171Y42351I-213J20525D01*
G02X282960Y42352I-2J18287D01*
G02X282850Y42357I18J1562D01*
G02X282787Y42366I45J549D01*
G02X282773Y42383I3J17D01*
G02X282782Y42408I38J0D01*
G02X282806Y42427I61J-50D01*
G02X282844Y42440I62J-119D01*
G02X282890Y42444I47J-253D01*
G03X282910Y42447I0J71D01*
G03X282932Y42455I-41J146D01*
G03X282953Y42467I-67J147D01*
G03X282970Y42481I-61J92D01*
G03X282991Y42524I-52J52D01*
G03X283001Y42638I-1622J193D01*
G03X283006Y42832I-4521J221D01*
G03X283007Y43238I-69873J410D01*
G03X283004Y43775I-51243J2D01*
G03X282987Y43953I-1030J-11D01*
G03X282941Y44031I-128J-24D01*
G03X282854Y44062I-87J-108D01*
G02X282806Y44067I0J205D01*
G02X282777Y44085I12J51D01*
G02X282772Y44111I22J18D01*
G02X282789Y44140I66J-19D01*
G02X282804Y44147I15J-15D01*
G37*
G36*
G01X286400Y57165D02*
G02X286714Y57155I-1279J-46948D01*
G02X287032Y57140I-360J-10559D01*
G02X287320Y57116I-465J-7229D01*
G02X287584Y57070I-210J-2006D01*
G02X287818Y56992I-341J-1410D01*
G02X288055Y56868I-697J-1616D01*
G02X288329Y56680I-2215J-3536D01*
G02X288529Y56519I-1978J-2662D01*
G02X288776Y56296I-6120J-7027D01*
G02X289027Y56059I-25816J-27594D01*
G02X289027Y56027I-16J-16D01*
G02X289015Y56021I-16J16D01*
G02X288954Y56010I-733J4044D01*
G02X288880Y55999I-383J2325D01*
G02X288796Y55989I-534J4025D01*
G02X288292Y55993I-235J2106D01*
G02X287775Y56114I329J2571D01*
G02X287272Y56345I922J2669D01*
G02X286809Y56675I1587J2717D01*
G02X286683Y56792I1369J1591D01*
G02X286537Y56947I3399J3358D01*
G02X286399Y57103I7831J7070D01*
G02X286382Y57148I51J44D01*
G02X286400Y57165I18J0D01*
G37*
G36*
G01X293729Y51927D02*
G02X293809Y52019I1464J-1197D01*
G02X293866Y52076I845J-788D01*
G02X293884Y52073I8J-8D01*
G02X293908Y52009I-186J-104D01*
G02X293952Y51765I-18836J-3601D01*
G02X293994Y51512I-9929J-1765D01*
G02X294022Y51299I-4922J-746D01*
G02X294041Y51044I-3775J-407D01*
G02X294045Y50762I-5607J-225D01*
G02X294035Y50489I-5349J54D01*
G02X294011Y50264I-2564J158D01*
G02X293948Y49949I-3343J504D01*
G02X293862Y49685I-1852J462D01*
G02X293743Y49452I-1534J632D01*
G02X293586Y49231I-1634J999D01*
G03X293466Y49067I1365J-1125D01*
G03X293414Y48942I319J-206D01*
G03X293394Y48772I848J-186D01*
G03X293390Y48340I24181J-434D01*
G02X293389Y47914I-62454J-8D01*
G02X293376Y47814I-430J3D01*
G02X293337Y47778I-47J11D01*
G02X293252Y47779I-38J235D01*
G01X293179Y47794D01*
X293179Y48254D01*
X293179Y48714D01*
X292941Y48831D01*
G02X292497Y49081I2051J4158D01*
G02X292088Y49377I2398J3757D01*
G02X291722Y49710I2699J3326D01*
G02X291409Y50074I2726J2664D01*
G02X291248Y50327I1463J1107D01*
G02X291081Y50677I4433J2330D01*
G02X290944Y51022I6277J2702D01*
G02X290941Y51162I203J75D01*
G02X291033Y51226I88J-28D01*
G02X291233Y51186I-31J-661D01*
G02X291511Y51051I-558J-1503D01*
G02X291840Y50828I-2227J-3642D01*
G02X292004Y50701I-3771J-5047D01*
G02X292155Y50575I-3160J-3946D01*
G02X292318Y50429I-4291J-4953D01*
G02X292523Y50236I-11796J-12729D01*
G03X292593Y50171I2278J2382D01*
G03X292660Y50113I1549J1715D01*
G03X292717Y50067I1575J1889D01*
G03X292743Y50053I55J70D01*
G03X292769Y50051I15J44D01*
G03X292799Y50064I-25J106D01*
G03X292836Y50091I-125J211D01*
G03X292886Y50137I-708J803D01*
G03X292944Y50202I-551J550D01*
G03X292978Y50258I-211J168D01*
G03X293005Y50333I-415J189D01*
G03X293038Y50472I-4121J1070D01*
G02X293159Y50978I17712J-3967D01*
G02X293249Y51240I1639J-417D01*
G02X293373Y51460I1165J-510D01*
G02X293611Y51780I5931J-4165D01*
G02X293729Y51927I7822J-6159D01*
G37*
G36*
G01X289478Y56891D02*
G02X289482Y56900I8J2D01*
G02X289494Y56902I8J-12D01*
G02X289525Y56893I-121J-501D01*
G02X289709Y56813I-268J-864D01*
G02X290001Y56635I-3440J-5966D01*
G02X290289Y56438I-3553J-5512D01*
G02X290471Y56284I-890J-1231D01*
G02X290570Y56168I-713J-716D01*
G02X290657Y56034I-991J-733D01*
G02X290730Y55881I-1214J-674D01*
G02X290789Y55710I-1652J-668D01*
G02X290816Y55601I-1152J-336D01*
G02X290832Y55488I-1324J-255D01*
G02X290843Y55342I-2417J-254D01*
G02X290851Y55124I-11450J-508D01*
G02X290854Y54957I-8101J-210D01*
G02X290853Y54793I-7415J-37D01*
G02X290849Y54653I-6693J115D01*
G02X290842Y54573I-774J29D01*
G01X290822Y54433D01*
X291047Y54093D01*
G02X291291Y53721I-32337J-21465D01*
G02X291369Y53577I-887J-574D01*
G02X291368Y53514I-69J-31D01*
G02X291319Y53484I-48J24D01*
G02X291281Y53499I0J55D01*
G02X291213Y53571I815J833D01*
G02X291116Y53691I1882J1623D01*
G02X290958Y53903I15257J11579D01*
G03X290720Y54214I-9293J-6856D01*
G03X290595Y54331I-455J-360D01*
G03X290462Y54383I-174J-252D01*
G03X290240Y54398I-225J-1663D01*
G02X289659Y54440I9J4172D01*
G02X289082Y54562I623J4368D01*
G02X288555Y54752I1091J3857D01*
G02X288127Y54995I973J2208D01*
G02X287994Y55102I869J1217D01*
G02X287857Y55237I1569J1738D01*
G02X287741Y55367I2146J2016D01*
G02X287718Y55430I75J63D01*
G02X287726Y55454I41J0D01*
G02X287746Y55468I30J-21D01*
G02X287789Y55474I48J-181D01*
G02X287891Y55476I103J-4061D01*
G02X287993Y55473I0J-2019D01*
G02X288202Y55462I-1436J-28194D01*
G02X288449Y55446I-1731J-29517D01*
G02X288708Y55428I-2414J-36301D01*
G03X288974Y55410I1401J18925D01*
G03X289239Y55396I1118J18631D01*
G03X289469Y55387I758J16649D01*
G03X289608Y55387I75J2395D01*
G01X289863Y55394D01*
X289861Y55569D01*
G03X289838Y55781I-1058J-9D01*
G03X289764Y56076I-4162J-886D01*
G03X289647Y56439I-6032J-1743D01*
G03X289486Y56867I-12267J-4366D01*
G02X289478Y56891I188J75D01*
G37*
G36*
G01X291928Y54834D02*
G02X291951Y54851I256J-314D01*
G02X291970Y54864I224J-319D01*
G02X291980Y54866I10J-15D01*
G02X292011Y54849I0J-38D01*
G02X292133Y54660I-13567J-8873D01*
G02X292251Y54465I-4720J-2994D01*
G02X292344Y54292I-2650J-1534D01*
G02X292562Y53742I-3208J-1590D01*
G02X292689Y53160I-3523J-1070D01*
G02X292719Y52571I-3578J-479D01*
G02X292650Y52000I-3256J100D01*
G03X292625Y51853I1856J-390D01*
G03X292623Y51745I524J-67D01*
G03X292641Y51612I1085J83D01*
G03X292702Y51321I19625J3973D01*
G02X292734Y51169I-10263J-2232D01*
G02X292759Y51040I-5468J-1108D01*
G02X292778Y50927I-16923J-3019D01*
G02X292774Y50915I-14J-2D01*
G02X292765Y50909I-16J17D01*
G02X292739Y50902I-152J505D01*
G02X292707Y50895I-129J520D01*
G02X292671Y50889I-138J757D01*
G01X292581Y50877D01*
X292463Y51270D01*
X292345Y51664D01*
X292182Y51696D01*
G02X291872Y51777I539J2700D01*
G02X291544Y51900I1213J3738D01*
G02X291219Y52056I1613J3785D01*
G02X290921Y52234I1690J3163D01*
G02X290703Y52396I1427J2144D01*
G02X290460Y52611I3290J3962D01*
G02X290232Y52840I3534J3747D01*
G02X290057Y53049I1883J1762D01*
G02X289954Y53198I1576J1189D01*
G02X289846Y53384I3394J2103D01*
G02X289751Y53565I4886J2674D01*
G02X289734Y53639I147J74D01*
G02X289755Y53672I36J0D01*
G02X289833Y53698I177J-397D01*
G02X289934Y53713I137J-584D01*
G02X290042Y53711I43J-714D01*
G02X290203Y53679I-69J-756D01*
G02X290358Y53612I-252J-795D01*
G02X290522Y53501I-599J-1072D01*
G02X290718Y53334I-2126J-2676D01*
G03X290930Y53150I3016J3259D01*
G03X291146Y52985I2473J3037D01*
G03X291339Y52859I2036J2888D01*
G03X291454Y52814I178J291D01*
G03X291563Y52811I65J344D01*
G03X291631Y52849I-13J105D01*
G03X291668Y52934I-133J109D01*
G03X291679Y53088I-1098J154D01*
G02X291684Y53219I1995J0D01*
G02X291697Y53393I6104J-400D01*
G02X291726Y53669I19348J-1832D01*
G02X291786Y54222I255320J-27817D01*
G02X291825Y54554I44427J-4949D01*
G02X291846Y54689I1718J-204D01*
G02X291869Y54764I371J-74D01*
G02X291905Y54814I131J-56D01*
G02X291928Y54834I393J-437D01*
G37*
G36*
G01X291492Y48919D02*
X291563Y48905D01*
G02X291712Y48841I-78J-391D01*
G02X291978Y48644I-3119J-4485D01*
G02X292265Y48401I-3330J-4219D01*
G02X292523Y48147I-3112J-3420D01*
G02X292693Y47955I-3276J-3080D01*
G02X292845Y47762I-2895J-2425D01*
G02X292974Y47572I-2683J-1965D01*
G02X293078Y47390I-1954J-1235D01*
G03X293146Y47271I1236J631D01*
G03X293208Y47200I268J172D01*
G03X293266Y47172I83J97D01*
G03X293324Y47181I17J85D01*
G03X293349Y47202I-37J68D01*
G03X293431Y47312I-8032J6102D01*
G03X293525Y47443I-5043J3721D01*
G03X293629Y47594I-8542J5964D01*
G02X293957Y48061I12033J-8098D01*
G02X294207Y48366I2788J-2041D01*
G02X294444Y48586I1546J-1428D01*
G02X294718Y48773I1448J-1823D01*
G02X294780Y48808I2199J-3767D01*
G02X294835Y48839I1258J-2234D01*
G02X294883Y48864I2164J-4078D01*
G02X294894Y48866I11J-22D01*
G02X294945Y48818I0J-51D01*
G02X294967Y48390I-16816J-1078D01*
G02X294971Y47969I-7115J-275D01*
G02X294940Y47683I-1644J34D01*
G02X294834Y47305I-2568J510D01*
G02X294673Y46939I-2644J953D01*
G02X294458Y46596I-2547J1353D01*
G02X294196Y46284I-2399J1745D01*
G02X294064Y46155I-2105J2025D01*
G02X293882Y45992I-5961J6511D01*
G02X293702Y45840I-7251J8375D01*
G02X293614Y45779I-377J454D01*
G03X293598Y45760I18J-31D01*
G03X293573Y45682I1895J-642D01*
G03X293546Y45581I1819J-536D01*
G03X293519Y45456I4169J-983D01*
G02X293467Y45218I-8932J1825D01*
G02X293410Y44986I-8102J1880D01*
G02X293355Y44788I-7401J1946D01*
G02X293316Y44684I-744J217D01*
G02X293289Y44644I-130J59D01*
G02X293249Y44614I-116J112D01*
G02X293203Y44598I-75J139D01*
G02X293156Y44598I-24J131D01*
G02X293109Y44630I12J67D01*
G02X293090Y44698I123J71D01*
G02X293096Y44835I917J24D01*
G02X293140Y45172I24501J-3019D01*
G01X293210Y45676D01*
X293130Y45741D01*
G02X292991Y45863I1456J1788D01*
G02X292777Y46073I10121J10562D01*
G02X292566Y46288I10125J10153D01*
G02X292434Y46435I2027J1948D01*
G02X292181Y46767I3797J3167D01*
G02X291956Y47118I4028J2819D01*
G02X291774Y47466I3820J2217D01*
G02X291649Y47788I2402J1122D01*
G02X291590Y48006I2439J771D01*
G02X291539Y48270I4945J1095D01*
G02X291503Y48529I4870J813D01*
G02X291492Y48731I1795J202D01*
G01Y48919D01*
G37*
G36*
G01X297835Y38458D02*
X310817D01*
Y35256D01*
X304350Y35279D01*
X297884Y35302D01*
X297860Y36880D01*
X297835Y38458D01*
G37*
G36*
G01X297036Y57685D02*
G02X297205Y57602I-47J-309D01*
G02X297609Y57186I-5146J-5389D01*
G02X298829Y55817I-324739J-290895D01*
G01X299552Y55003D01*
X300167Y54311D01*
X300716Y53694D01*
X300746Y53659D01*
G03X300760Y53664I6J5D01*
G03X300765Y53759I-1712J139D01*
G03X300764Y53892I-2279J58D01*
G03X300756Y54059I-5586J-187D01*
G03X300732Y54337I-5809J-365D01*
G03X300692Y54445I-240J-27D01*
G03X300613Y54500I-111J-75D01*
G03X300439Y54530I-290J-1174D01*
G02X300278Y54555I138J1429D01*
G02X300200Y54598I33J154D01*
G02X300161Y54674I96J96D01*
G02X300151Y54819I970J145D01*
G02X300160Y54965I1132J0D01*
G02X300196Y55036I120J-16D01*
G02X300268Y55071I88J-89D01*
G02X300417Y55080I150J-1215D01*
G03X300550Y55088I1J1078D01*
G03X300628Y55117I-23J182D01*
G03X300670Y55170I-58J88D01*
G03X300684Y55254I-241J85D01*
G02X300746Y55459I369J0D01*
G02X300966Y55745I2155J-1432D01*
G02X301228Y56000I1908J-1693D01*
G02X301444Y56111I348J-412D01*
G03X301530Y56146I-81J324D01*
G03X301602Y56202I-162J282D01*
G03X301653Y56274I-220J212D01*
G03X301679Y56355I-228J117D01*
G02X301712Y56453I281J-40D01*
G02X301776Y56515I136J-76D01*
G02X301889Y56552I164J-313D01*
G02X302097Y56575I415J-2876D01*
G02X302251Y56579I128J-1798D01*
G02X302389Y56569I-16J-1191D01*
G02X302498Y56548I-124J-947D01*
G02X302542Y56516I-18J-70D01*
G03X302688Y56439I139J86D01*
G03X303200Y56476I-305J7832D01*
G03X303708Y56545I-856J8179D01*
G03X303795Y56648I-17J103D01*
G02X303840Y56709I64J0D01*
G02X304005Y56744I273J-882D01*
G02X304294Y56764I345J-2912D01*
G02X304817Y56769I523J-27339D01*
G02X305418Y56764I1J-41863D01*
G02X305673Y56743I-26J-1845D01*
G02X305794Y56696I-46J-296D01*
G02X305839Y56611I-57J-84D01*
G03X305876Y56525I118J0D01*
G03X305984Y56456I251J268D01*
G03X306186Y56389I504J1180D01*
G03X306556Y56306I2668J11039D01*
G02X306859Y56235I-1233J-5957D01*
G02X307179Y56144I-1990J-7632D01*
G02X307470Y56048I-2097J-6841D01*
G02X307673Y55963I-665J-1879D01*
G03X307872Y55875I1552J3208D01*
G03X308008Y55834I266J647D01*
G03X308105Y55833I52J276D01*
G03X308175Y55869I-20J126D01*
G02X308325Y55951I215J-215D01*
G02X308534Y55962I140J-640D01*
G02X308746Y55906I-76J-716D01*
G02X308906Y55791I-187J-428D01*
G02X309023Y55584I-399J-361D01*
G02X309055Y55322I-765J-228D01*
G02X309000Y55069I-763J33D01*
G02X308867Y54888I-415J167D01*
G03X308797Y54825I511J-631D01*
G03X308738Y54755I495J-484D01*
G03X308696Y54690I443J-331D01*
G03X308684Y54643I86J-47D01*
G02X308667Y54606I-50J0D01*
G02X308619Y54575I-121J135D01*
G02X308547Y54554I-123J282D01*
G02X308462Y54547I-85J506D01*
G03X308348Y54536I0J-624D01*
G03X308283Y54501I22J-119D01*
G03X308249Y54435I90J-88D01*
G03X308239Y54318I681J-117D01*
G03X308247Y54218I669J0D01*
G03X308271Y54153I165J25D01*
G03X308312Y54121I67J43D01*
G03X308367Y54118I33J95D01*
G03X308452Y54165I-37J167D01*
G03X308975Y54699I-107871J106213D01*
G03X309572Y55321I-36744J35836D01*
G03X310256Y56055I-68114J64213D01*
G02X311421Y57312I287472J-265283D01*
G02X311792Y57676I4294J-3997D01*
G02X311955Y57743I176J-196D01*
G02X312046Y57665I4J-87D01*
G02X312043Y57491I-752J-73D01*
G02X311997Y57345I-452J61D01*
G02X311892Y57187I-739J376D01*
G02X311686Y56956I-4021J3390D01*
G03X311468Y56725I39586J-37581D01*
G01X311080Y56311D01*
X310629Y55828D01*
X310168Y55334D01*
X309039Y54122D01*
Y52502D01*
X308081D01*
X308016Y51594D01*
G02X307979Y51096I-83139J5948D01*
G01X307913Y50261D01*
X307837Y49299D01*
X307758Y48332D01*
X307565Y45978D01*
X309369Y43954D01*
G02X310060Y43173I-104028J-92731D01*
G02X310643Y42502I-55290J-48556D01*
G02X311152Y41906I-270400J-231754D01*
G02X311173Y41850I-66J-57D01*
G02X311164Y41811I-91J0D01*
G02X311136Y41762I-332J156D01*
G02X311096Y41711I-374J251D01*
G02X311048Y41665I-347J314D01*
G02X310936Y41663I-58J70D01*
G02X310692Y41870I1734J2279D01*
G02X310312Y42260I5394J5653D01*
G02X309616Y43032I64812J59057D01*
G03X309112Y43596I-90202J-80251D01*
G03X308680Y44070I-46708J-42083D01*
G01X308294Y44489D01*
G03X308264Y44502I-29J-27D01*
G03X308250Y44489I0J-14D01*
G03X308250Y44436I403J-31D01*
G03X308258Y44363I606J34D01*
G03X308277Y44276I1257J225D01*
G02X308283Y43838I-928J-233D01*
G02X308101Y43360I-1705J375D01*
G02X307779Y42938I-1628J912D01*
G02X307376Y42669I-921J941D01*
G02X306906Y42563I-523J1223D01*
G02X306421Y42628I-57J1418D01*
G02X305986Y42854I428J1353D01*
G02X305663Y43210I808J1056D01*
G01X305469Y43524D01*
X302728D01*
Y42546D01*
X301928D01*
Y43035D01*
G03X301922Y43223I-2741J0D01*
G03X301902Y43381I-1425J-98D01*
G03X301874Y43498I-1103J-200D01*
G03X301839Y43524I-35J-10D01*
G02X301805Y43547I0J38D01*
G02X301774Y43635I540J234D01*
G02X301752Y43757I851J217D01*
G02X301743Y43902I1627J178D01*
G03X301733Y44102I-3607J-73D01*
G03X301707Y44416I-20507J-1548D01*
G03X301672Y44771I-22981J-2099D01*
G03X301632Y45120I-21685J-2318D01*
G01X301528Y45961D01*
X299495Y43762D01*
G02X298219Y42389I-270794J250430D01*
G02X297732Y41902I-7472J6980D01*
G02X297459Y41694I-1169J1250D01*
G02X297299Y41708I-70J114D01*
G02X297272Y41868I88J97D01*
G02X297474Y42172I1744J-942D01*
G02X297953Y42728I9035J-7297D01*
G02X299317Y44208I318233J-292047D01*
G03X300745Y45755I-344331J318999D01*
G03X301209Y46299I-7420J6811D01*
G03X301408Y46620I-1277J1015D01*
G03X301447Y46887I-419J198D01*
G02X301419Y47110I4597J701D01*
G02X301346Y47822I277634J28692D01*
G02X301263Y48670I210241J21159D01*
G02X301173Y49613I321596J31063D01*
G03X301082Y50566I-284435J-26649D01*
G03X300995Y51445I-205443J-19930D01*
G03X300919Y52181I-222014J-22490D01*
G03X300883Y52477I-8287J-866D01*
G03X300779Y52820I-1156J-163D01*
G03X300562Y53175I-1877J-903D01*
G03X300113Y53725I-7804J-5911D01*
G03X298884Y55116I-235780J-207107D01*
G02X297738Y56414I193068J171625D01*
G02X297258Y56997I9334J8186D01*
G02X297019Y57353I2425J1879D01*
G02X296950Y57612I452J259D01*
G02X297036Y57685I74J0D01*
G37*
%LPC*%
G75*
G36*
G01X22961Y319134D02*
G03X22834Y319253I-6323J-6624D01*
G03X22678Y319392I-5398J-5877D01*
G03X22503Y319542I-7676J-8809D01*
G01X22056Y319916D01*
X21953Y319603D01*
G02X21890Y319451I-1086J359D01*
G02X21780Y319242I-4108J2052D01*
G02X21646Y319019I-4470J2528D01*
G02X21507Y318814I-3592J2277D01*
G03X21290Y318500I8345J-6004D01*
G03X21224Y318350I403J-268D01*
G03X21223Y318206I291J-73D01*
G03X21295Y317965I2388J578D01*
G02X21347Y317762I-1144J-404D01*
G02X21395Y317433I-7148J-1206D01*
G02X21432Y317054I-8170J-993D01*
G02X21452Y316674I-8097J-609D01*
G03X21488Y316059I9944J278D01*
G03X21565Y315652I2149J194D01*
G03X21711Y315300I1640J476D01*
G03X21971Y314885I4010J2222D01*
G01X22150Y314631D01*
X22414Y315190D01*
G02X22529Y315423I7411J-3505D01*
G02X22656Y315661I8437J-4319D01*
G02X22775Y315872I7423J-4074D01*
G02X22864Y316009I1597J-937D01*
G01X23049Y316268D01*
X22810Y317143D01*
X22572Y318017D01*
X22813Y318509D01*
G03X22901Y318703I-3376J1651D01*
G03X22967Y318880I-2146J903D01*
G03X23010Y319027I-2163J709D01*
G03X23001Y319084I-71J18D01*
G03X22961Y319134I-214J-132D01*
G37*
G36*
G01X24797Y314073D02*
G03X24651Y314131I-668J-1460D01*
G03X24512Y314171I-470J-1368D01*
G03X24405Y314184I-108J-460D01*
G03X23944Y314076I-1J-1036D01*
G03X23417Y313742I1320J-2664D01*
G03X22990Y313324I1765J-2228D01*
G03X22859Y312959I442J-365D01*
G03X22889Y312785I519J0D01*
G03X22977Y312682I180J64D01*
G03X23146Y312632I197J355D01*
G03X23462Y312624I244J3560D01*
G03X23842Y312674I-35J1751D01*
G03X24235Y312807I-567J2324D01*
G03X24593Y313003I-933J2129D01*
G03X24869Y313241I-820J1229D01*
G03X25098Y313522I-2616J2365D01*
G03X25165Y313704I-285J208D01*
G03X25112Y313853I-196J15D01*
G03X24926Y314005I-654J-614D01*
G03X24797Y314073I-641J-1051D01*
G37*
G36*
G01X24288Y318479D02*
G03X24184Y318572I-830J-814D01*
G03X24042Y318673I-918J-1145D01*
G03X23873Y318768I-1172J-1886D01*
G01X23432Y318992D01*
X23237Y318644D01*
G03X23096Y318314I1441J-810D01*
G03X23052Y318000I966J-293D01*
G03X23107Y317656I1283J27D01*
G03X23266Y317226I3555J1072D01*
G03X23445Y316868I3860J1708D01*
G03X23573Y316802I115J64D01*
G03X23742Y316875I-31J301D01*
G03X24244Y317326I-17698J20246D01*
G01X24744Y317785D01*
X24529Y318035D01*
G02X24447Y318141I1088J935D01*
G02X24377Y318250I1038J737D01*
G02X24328Y318349I923J523D01*
G02X24314Y318415I152J66D01*
G03X24288Y318479I-91J0D01*
G37*
G36*
G01X19971Y313712D02*
G03X19872Y313805I-430J-357D01*
G03X19761Y313865I-283J-385D01*
G03X19636Y313896I-184J-475D01*
G01X19377Y313926D01*
X19435Y313306D01*
G03X19511Y312834I3602J337D01*
G03X19643Y312502I1140J261D01*
G03X19835Y312295I567J334D01*
G03X20086Y312200I317J456D01*
G01X20341Y312170D01*
X20282Y312737D01*
G03X20247Y312975I-2934J-307D01*
G03X20192Y313220I-3477J-653D01*
G03X20126Y313439I-3039J-797D01*
G03X20059Y313585I-774J-265D01*
G03X19971Y313712I-802J-466D01*
G37*
G36*
G01X26218Y314242D02*
G03X26203Y314354I-949J-71D01*
G03X26181Y314437I-692J-135D01*
G03X26155Y314456I-26J-9D01*
G03X26044Y314403I2J-144D01*
G03X25646Y313901I28244J-22835D01*
G03X25250Y313386I35830J-27939D01*
G03X25256Y313303I50J-38D01*
G03X25352Y313278I70J70D01*
G03X25612Y313364I-854J3012D01*
G03X25877Y313483I-892J2342D01*
G03X26058Y313609I-398J766D01*
G03X26128Y313695I-242J267D01*
G03X26180Y313810I-530J308D01*
G03X26212Y313950I-745J246D01*
G03X26223Y314108I-1146J158D01*
G03X26218Y314242I-1826J0D01*
G37*
G36*
G01X27280Y315720D02*
G03X27184Y315774I-74J-19D01*
G03X27020Y315668I103J-340D01*
G03X26705Y315289I7332J-6418D01*
G03X26526Y315057I8570J-6766D01*
G03X26382Y314855I4514J-3372D01*
G03X26268Y314683I8910J-6066D01*
G03X26271Y314652I21J-14D01*
G03X26302Y314642I24J24D01*
G03X26419Y314670I-590J2716D01*
G03X26561Y314712I-576J2192D01*
G03X26722Y314770I-1271J3809D01*
G03X27001Y314903I-700J1830D01*
G03X27181Y315053I-336J583D01*
G03X27280Y315238I-391J328D01*
G03X27312Y315474I-789J230D01*
G03X27280Y315720I-995J-6D01*
G37*
G36*
G01X210231Y67949D02*
G03X209824Y68605I-44787J-27354D01*
G03X209461Y69179I-225440J-142285D01*
G03X209420Y69201I-41J-26D01*
G03X209380Y69178I0J-47D01*
G01X208767Y68175D01*
G03X208086Y67046I128215J-78147D01*
G03X207290Y65706I251421J-150240D01*
G02X204953Y61758I-1639993J968110D01*
G01X202110Y56975D01*
X199429Y52479D01*
G02X198004Y50109I-353356J210943D01*
G03X197584Y49405I44902J-27218D01*
G03X197248Y48811I22038J-12892D01*
G03X196970Y48302I64382J-35392D01*
G03X196990Y48265I22J-12D01*
G03X197292Y48248I296J2575D01*
G01X209583Y48274D01*
X221998Y48301D01*
G03X222041Y48319I0J61D01*
G03X222044Y48341I-13J13D01*
G01X221703Y48924D01*
G03X221318Y49575I-71239J-41735D01*
G03X220855Y50343I-139115J-83246D01*
G01X218678Y53941D01*
X215370Y59421D01*
X212088Y64863D01*
G02X210702Y67172I721984J435287D01*
G03X210231Y67949I-86611J-51843D01*
G37*
G36*
G01X280048Y44005D02*
G03X279910Y44016I-147J-963D01*
G03X279782Y44010I-10J-1072D01*
G03X279740Y43978I6J-51D01*
G03X279735Y43951I81J-31D01*
G03X279730Y43855I7171J-376D01*
G03X279727Y43740I5042J-194D01*
G03X279726Y43611I8036J-127D01*
G01Y43281D01*
X279875Y43295D01*
G03X280081Y43333I-111J1189D01*
G03X280218Y43404I-97J354D01*
G03X280295Y43514I-165J199D01*
G03X280323Y43666I-419J155D01*
G03X280313Y43772I-547J3D01*
G03X280283Y43854I-260J-49D01*
G03X280228Y43919I-213J-122D01*
G03X280146Y43974I-277J-329D01*
G03X280048Y44005I-147J-290D01*
G37*
G36*
G01X281722Y44044D02*
G03X281494Y43910I97J-428D01*
G03X281346Y43636I486J-439D01*
G03X281297Y43252I1476J-387D01*
G03X281332Y42910I1668J-2D01*
G03X281439Y42656I700J146D01*
G03X281613Y42501I394J266D01*
G03X281841Y42444I229J437D01*
G03X281965Y42458I0J551D01*
G03X282075Y42500I-100J436D01*
G03X282171Y42569I-211J394D01*
G03X282251Y42663I-377J400D01*
G03X282321Y42786I-788J527D01*
G03X282361Y42903I-506J238D01*
G03X282380Y43047I-834J184D01*
G03X282384Y43265I-4043J194D01*
G03X282382Y43425I-6139J-34D01*
G03X282373Y43528I-1096J-35D01*
G03X282358Y43608I-608J-77D01*
G03X282331Y43691I-736J-195D01*
G03X282272Y43805I-602J-235D01*
G03X282191Y43908I-588J-379D01*
G03X282098Y43988I-449J-427D01*
G03X282004Y44034I-188J-268D01*
G03X281722Y44044I-159J-530D01*
G37*
G36*
G01X307884Y54547D02*
X304511D01*
G03X303216Y54542I1J-175092D01*
G03X302119Y54527I670J-90297D01*
G01X301147Y54507D01*
G03X301102Y54480I1J-52D01*
G03X301089Y54431I93J-51D01*
G03X301089Y54256I7803J-114D01*
G03X301094Y54047I5779J45D01*
G03X301108Y53812I9294J408D01*
G01X301149Y53211D01*
X302710Y51457D01*
G03X303313Y50784I95469J84928D01*
G03X303830Y50218I49578J44743D01*
G03X304291Y49719I280025J258649D01*
G03X304330Y49702I40J37D01*
G03X304369Y49718I0J55D01*
G03X304601Y49950I-33880J34083D01*
G03X304866Y50223I-12008J11911D01*
G03X305168Y50546I-22633J21468D01*
G01X305947Y51391D01*
X304782Y51416D01*
X303617Y51441D01*
Y52147D01*
X305032D01*
G02X305592Y52141I2J-26842D01*
G02X306051Y52123I-258J-12324D01*
G02X306431Y52098I-1431J-24590D01*
G02X306476Y52062I-4J-53D01*
G03X306510Y52053I20J7D01*
G03X306661Y52186I-2879J3432D01*
G03X306846Y52368I-2781J3027D01*
G03X307062Y52600I-6487J6223D01*
G03X307396Y52986I-11977J10707D01*
G03X307536Y53195I-897J752D01*
G03X307598Y53388I-530J277D01*
G03X307617Y53662I-1921J274D01*
G02X307623Y53878I3789J0D01*
G02X307646Y54006I551J-32D01*
G02X307688Y54076I160J-48D01*
G02X307751Y54102I63J-63D01*
G03X307806Y54118I0J104D01*
G03X307848Y54161I-69J111D01*
G03X307875Y54232I-184J111D01*
G03X307884Y54324I-486J93D01*
G01Y54547D01*
G37*
G36*
G01X305279Y47920D02*
G03X304805Y48441I-48402J-43515D01*
G03X304386Y48895I-188787J-173487D01*
G03X304336Y48928I-91J-84D01*
G03X304291Y48921I-16J-45D01*
G03X304182Y48832I1389J-1814D01*
G03X304054Y48712I1442J-1660D01*
G03X303917Y48564I2726J-2674D01*
G02X303729Y48354I-15073J13299D01*
G02X303417Y48011I-99295J90084D01*
G02X303058Y47620I-110565J101074D01*
G02X302698Y47230I-110227J101413D01*
G01X301824Y46286D01*
X301926Y45283D01*
G03X301968Y44884I53283J5410D01*
G03X302010Y44516I38975J4256D01*
G03X302048Y44207I41248J4907D01*
G03X302068Y44080I1677J212D01*
G03X302148Y43964I177J36D01*
G03X302312Y43905I211J331D01*
G03X302663Y43883I372J3103D01*
G03X303742Y43880I1065J166650D01*
G01X305375D01*
X305436Y44287D01*
G02X305629Y44795I1259J-189D01*
G02X306036Y45242I1606J-1051D01*
G02X306537Y45521I1078J-1346D01*
G02X307002Y45541I265J-747D01*
G03X307111Y45618I22J84D01*
G03X307058Y45827I-325J28D01*
G03X306676Y46331I-4362J-2906D01*
G03X305827Y47306I-56857J-48693D01*
G03X305279Y47920I-90434J-80201D01*
G37*
G36*
G01X303766Y56077D02*
G03X303689Y56117I-122J-139D01*
G03X303543Y56137I-167J-675D01*
G03X303284Y56140I-177J-5875D01*
G03X302821Y56120I115J-8402D01*
G03X302649Y56054I21J-310D01*
G03X302570Y55910I132J-167D01*
G03X302551Y55560I3185J-350D01*
G01Y55077D01*
X305239Y55101D01*
G03X306974Y55119I-3951J451838D01*
G03X307560Y55145I-120J9524D01*
G03X307833Y55194I-98J1322D01*
G03X307898Y55298I-26J88D01*
G03X307833Y55455I-383J-67D01*
G03X307704Y55582I-414J-291D01*
G03X307485Y55698I-621J-910D01*
G03X307127Y55824I-2045J-5231D01*
G03X306662Y55952I-1910J-6058D01*
G03X306240Y56026I-900J-3854D01*
G03X305910Y56050I-401J-3299D01*
G03X305839Y55981I-1J-69D01*
G02X305800Y55933I-48J0D01*
G02X305592Y55904I-465J2580D01*
G02X305282Y55885I-409J4128D01*
G02X304817Y55880I-462J19742D01*
G02X304264Y55885I-3J32130D01*
G02X303988Y55905I43J2467D01*
G02X303841Y55944I75J575D01*
G02X303795Y56013I29J69D01*
G03X303766Y56077I-85J0D01*
G37*
G36*
G01X302114Y51479D02*
G03X301670Y51968I-59695J-53779D01*
G01X301272Y52402D01*
G03X301248Y52413I-25J-22D01*
G03X301234Y52400I0J-13D01*
G03X301236Y52289I3894J8D01*
G03X301244Y52153I2538J75D01*
G03X301260Y51991I5079J426D01*
G02X301290Y51718I-18153J-2108D01*
G01X301360Y51015D01*
X301443Y50177D01*
X301532Y49263D01*
G03X301620Y48377I208996J20212D01*
G03X301698Y47626I108425J10954D01*
G01X301771Y46956D01*
G03X301784Y46928I47J5D01*
G03X301836Y46929I25J25D01*
G01X302869Y48056D01*
G03X303870Y49151I-382228J350122D01*
G03X303957Y49299I-309J281D01*
G03X303946Y49359I-59J20D01*
G03X303580Y49804I-72444J-59151D01*
G03X303150Y50312I-22143J-18303D01*
G03X302635Y50899I-41102J-35615D01*
G03X302114Y51479I-116169J-103620D01*
G37*
G36*
G01X301656Y55572D02*
G03X301639Y55687I-880J-72D01*
G03X301615Y55770I-601J-131D01*
G03X301585Y55791I-30J-11D01*
G03X301442Y55745I0J-243D01*
G03X301250Y55582I966J-1332D01*
G03X301086Y55392I1159J-1171D01*
G03X301039Y55251I190J-141D01*
G03X301056Y55166I227J0D01*
G03X301102Y55114I96J39D01*
G03X301191Y55087I109J199D01*
G03X301351Y55080I159J1748D01*
G03X301544Y55089I0J2126D01*
G03X301620Y55127I-10J115D01*
G03X301654Y55211I-106J93D01*
G03X301662Y55435I-3534J224D01*
G03X301656Y55572I-1674J1D01*
G37*
G36*
G01X307720Y52150D02*
G03X307709Y52312I-1571J-25D01*
G03X307688Y52438I-1339J-161D01*
G03X307655Y52475I-48J-11D01*
G03X307541Y52446I-34J-103D01*
G03X306135Y50954I711674J-672014D01*
G03X304746Y49473I536471J-504472D01*
G03X304684Y49315I169J-158D01*
G03X304732Y49189I191J0D01*
G03X305947Y47808I676649J594647D01*
G01X307179Y46414D01*
G03X307246Y46412I34J30D01*
G03X307275Y46475I-72J72D01*
G01X307474Y48819D01*
G03X307645Y50886I-455393J38606D01*
G03X307716Y51963I-39504J3167D01*
G03X307720Y52150I-2730J145D01*
G37*
G36*
G01X305374Y56497D02*
G03X305312Y56561I-97J-33D01*
G03X305176Y56586I-146J-400D01*
G03X304788Y56591I-391J-16624D01*
G03X304364Y56583I1J-11110D01*
G03X304180Y56545I22J-567D01*
G03X304093Y56461I57J-146D01*
G03X304062Y56310I349J-152D01*
G03X304093Y56224I131J0D01*
G03X304175Y56174I119J102D01*
G03X304346Y56151I191J783D01*
G03X304728Y56146I384J15026D01*
G03X305159Y56151I0J21620D01*
G03X305306Y56176I-10J496D01*
G03X305372Y56240I-33J101D01*
G03X305395Y56369I-350J129D01*
G03X305374Y56497I-402J0D01*
G37*
G36*
G01X308682Y53411D02*
G03X308676Y53540I-2980J-78D01*
G03X308667Y53647I-5788J-404D01*
G03X308656Y53658I-11J-1D01*
G03X308638Y53651I0J-26D01*
G03X308566Y53584I4408J-4859D01*
G03X308483Y53504I2374J-2540D01*
G03X308389Y53408I4353J-4351D01*
G03X308201Y53177I1334J-1278D01*
G03X308153Y53005I229J-158D01*
G03X308227Y52897I125J6D01*
G03X308417Y52858I190J433D01*
G03X308577Y52869I0J1110D01*
G03X308647Y52913I-15J100D01*
G03X308678Y53007I-154J103D01*
G03X308684Y53258I-5149J251D01*
G03X308682Y53411I-5884J0D01*
G37*
G36*
G01X306904Y44771D02*
G03X306443Y44634I-44J-690D01*
G03X306164Y44219I460J-610D01*
G03X306210Y43732I684J-181D01*
G03X306483Y43416I717J344D01*
G03X306864Y43304I368J547D01*
G03X307238Y43431I-13J652D01*
G03X307494Y43757I-462J626D01*
G03X307561Y43982I-1022J427D01*
G03X307559Y44173I-481J89D01*
G03X307482Y44358I-544J-115D01*
G03X307322Y44569I-1379J-886D01*
G03X306904Y44771I-458J-412D01*
G37*
%LPD*%
G75*
G36*
G01X208374Y64883D02*
G02X208801Y64913I2028J-25348D01*
G02X209307Y64935I828J-13172D01*
G02X209897Y64942I593J-24081D01*
G01X211424D01*
X211239Y64509D01*
G03X210484Y62722I298211J-127111D01*
G03X209586Y60570I619151J-259569D01*
G01X208637Y58283D01*
G03X208620Y58201I197J-82D01*
G03X208646Y58185I18J0D01*
G03X209192Y58449I-66095J137340D01*
G03X209820Y58761I-16383J33689D01*
G03X210566Y59147I-34733J68173D01*
G02X211521Y59637I32582J-62242D01*
G02X212070Y59889I3612J-7165D01*
G02X212377Y59988I770J-1865D01*
G02X212440Y59921I12J-52D01*
G03X212028Y58432I46102J-13577D01*
G03X211253Y55420I627115J-162996D01*
G01X210380Y51994D01*
G03X210401Y51917I78J-20D01*
G03X210446Y51904I35J35D01*
G03X210586Y51937I-474J2307D01*
G03X210757Y51991I-590J2182D01*
G03X210950Y52066I-1321J3698D01*
G02X211135Y52137I1397J-3348D01*
G02X211284Y52180I451J-1269D01*
G02X211380Y52193I120J-523D01*
G02X211398Y52168I1J-18D01*
G02X211250Y51897I-1498J638D01*
G02X210208Y50356I-573850J386794D01*
G01X209103Y48727D01*
G02X209062Y48723I-22J15D01*
G02X209024Y48793I98J98D01*
G01X208626Y50696D01*
X208242Y52541D01*
G02X208220Y52752I1016J211D01*
G02X208246Y52768I18J0D01*
G02X208334Y52719I-255J-553D01*
G02X208459Y52623I-790J-1160D01*
G02X208607Y52489I-2397J-2794D01*
G01X208994Y52118D01*
X209071Y52497D01*
G03X209270Y53588I-25471J5201D01*
G03X209534Y55299I-142556J22831D01*
G01X209813Y57197D01*
G03X209781Y57293I-113J16D01*
G03X209723Y57304I-37J-37D01*
G03X209140Y57041I44505J-99546D01*
G03X208472Y56728I12944J-28498D01*
G03X207690Y56344I26227J-54314D01*
G02X206705Y55860I-32727J65337D01*
G02X206130Y55607I-3819J7924D01*
G02X205802Y55503I-913J2300D01*
G02X205739Y55570I-12J51D01*
G03X205783Y55722I-5666J1739D01*
G03X205886Y56091I-141087J39299D01*
G03X206006Y56532I-132896J36588D01*
G03X206136Y57009I-182136J49551D01*
G02X206830Y59570I640958J-172483D01*
G02X207545Y62164I679220J-185712D01*
G01X208251Y64706D01*
G02X208309Y64842I531J-147D01*
G02X208374Y64883I71J-43D01*
G37*
G36*
G01X306580Y44381D02*
G02X306672Y44449I284J-288D01*
G02X306780Y44489I193J-358D01*
G02X306905Y44502I126J-583D01*
G02X307178Y44410I0J-448D01*
G02X307335Y44171I-266J-347D01*
G02X307315Y43878I-453J-116D01*
G02X307125Y43647I-467J190D01*
G02X306812Y43562I-287J438D01*
G02X306534Y43687I21J417D01*
G02X306413Y43968I304J298D01*
G02X306501Y44284I539J20D01*
G02X306580Y44381I493J-323D01*
G37*
G54D10*
G01X102492Y10200D02*
X103450Y7100D01*
X104408Y10200D01*
G01X105652Y8133D02*
X106648D01*
G01X102492Y22700D02*
X103450Y19600D01*
X104408Y22700D01*
G01X105728Y20633D02*
X106648D01*
G01X106150Y21305D02*
Y19962D01*
G01X185807Y51450D02*
Y54550D01*
G01X187263D02*
X185807Y52638D01*
G01X187493Y51450D02*
X186458Y53517D01*
G01X188392Y51450D02*
X189350Y54550D01*
X190308Y51450D01*
G01X189963Y52535D02*
X188737D01*
G01X171683Y54550D02*
Y51450D01*
X173217D01*
G01X175917D02*
X174383D01*
Y54550D01*
X175917D01*
G01X175303Y53052D02*
X174383D01*
G01X177007Y51450D02*
Y54550D01*
X177773D01*
X178080Y54395D01*
X178310Y54188D01*
X178502Y53878D01*
X178655Y53517D01*
X178693Y53000D01*
X178655Y52483D01*
X178502Y52122D01*
X178310Y51812D01*
X178080Y51605D01*
X177773Y51450D01*
X177007D01*
G01X180128Y52483D02*
X181048D01*
G01X180550Y53155D02*
Y51812D01*
G01X185807Y62950D02*
Y66050D01*
G01X187263D02*
X185807Y64138D01*
G01X187493Y62950D02*
X186458Y65017D01*
G01X189657Y64603D02*
X189810Y64758D01*
X189925Y65017D01*
X190002Y65378D01*
X189925Y65688D01*
X189772Y65895D01*
X189503Y66050D01*
X188468D01*
Y62950D01*
X189733D01*
X190002Y63157D01*
X190155Y63467D01*
X190232Y63828D01*
X190155Y64190D01*
X189925Y64500D01*
X189657Y64603D01*
X188468D01*
G01X171683Y66050D02*
Y62950D01*
X173217D01*
G01X175917D02*
X174383D01*
Y66050D01*
X175917D01*
G01X175303Y64552D02*
X174383D01*
G01X177007Y62950D02*
Y66050D01*
X177773D01*
X178080Y65895D01*
X178310Y65688D01*
X178502Y65378D01*
X178655Y65017D01*
X178693Y64500D01*
X178655Y63983D01*
X178502Y63622D01*
X178310Y63312D01*
X178080Y63105D01*
X177773Y62950D01*
X177007D01*
G01X180052Y63983D02*
X181048D01*
G01X280972Y21033D02*
X281202Y21343D01*
X281470Y21498D01*
X281777Y21550D01*
X282160Y21447D01*
X282428Y21188D01*
X282505Y20878D01*
X282467Y20568D01*
X282313Y20310D01*
X281547Y19793D01*
X281202Y19432D01*
X280972Y18915D01*
X280895Y18450D01*
X282505D01*
G01X284400Y21550D02*
X284093Y21447D01*
X283863Y21188D01*
X283710Y20878D01*
X283595Y20465D01*
X283557Y20000D01*
X283595Y19535D01*
X283710Y19122D01*
X283863Y18812D01*
X284093Y18553D01*
X284400Y18450D01*
X284707Y18553D01*
X284937Y18812D01*
X285090Y19122D01*
X285205Y19535D01*
X285243Y20000D01*
X285205Y20465D01*
X285090Y20878D01*
X284937Y21188D01*
X284707Y21447D01*
X284400Y21550D01*
G01X287100Y18450D02*
Y21550D01*
X286640Y20930D01*
G01Y18450D02*
X287560D01*
G01X289072Y19742D02*
X289340Y20103D01*
X289570Y20310D01*
X289877Y20413D01*
X290145Y20310D01*
X290337Y20103D01*
X290490Y19793D01*
X290528Y19432D01*
X290490Y19122D01*
X290337Y18812D01*
X290107Y18553D01*
X289838Y18450D01*
X289532Y18553D01*
X289263Y18863D01*
X289110Y19328D01*
X289072Y19845D01*
X289148Y20517D01*
X289263Y20878D01*
X289455Y21240D01*
X289723Y21498D01*
X289992Y21550D01*
X290260Y21447D01*
X290452Y21188D01*
G01X292002Y19483D02*
X292998D01*
G01X295123Y18450D02*
X295200Y19122D01*
X295315Y19690D01*
X295468Y20207D01*
X295660Y20775D01*
X295967Y21550D01*
X294433D01*
G01X297402Y19483D02*
X298398D01*
G01X299872Y21033D02*
X300102Y21343D01*
X300370Y21498D01*
X300677Y21550D01*
X301060Y21447D01*
X301328Y21188D01*
X301405Y20878D01*
X301367Y20568D01*
X301213Y20310D01*
X300447Y19793D01*
X300102Y19432D01*
X299872Y18915D01*
X299795Y18450D01*
X301405D01*
G01X302457Y18915D02*
X302687Y18657D01*
X302955Y18502D01*
X303300Y18450D01*
X303645Y18553D01*
X303913Y18760D01*
X304105Y19122D01*
X304143Y19535D01*
X304067Y19948D01*
X303875Y20207D01*
X303607Y20413D01*
X303338Y20465D01*
X303070Y20413D01*
X302725Y20207D01*
X302840Y21550D01*
X303875D01*
G01X280842Y26067D02*
X281800Y22967D01*
X282758Y26067D01*
G01X284807Y24620D02*
X284960Y24775D01*
X285075Y25033D01*
X285152Y25395D01*
X285075Y25705D01*
X284922Y25912D01*
X284653Y26067D01*
X283618D01*
Y22967D01*
X284883D01*
X285152Y23173D01*
X285305Y23483D01*
X285382Y23845D01*
X285305Y24207D01*
X285075Y24517D01*
X284807Y24620D01*
X283618D01*
G01X286433Y22967D02*
Y26067D01*
X287392D01*
X287698Y25912D01*
X287890Y25705D01*
X287967Y25292D01*
X287890Y24878D01*
X287660Y24620D01*
X287392Y24465D01*
X286433D01*
G01X287392D02*
X287967Y22967D01*
G01X288942D02*
X289900Y26067D01*
X290858Y22967D01*
G01X290513Y24052D02*
X289287D01*
G01X292600Y26067D02*
Y22967D01*
G01X291718Y26067D02*
X293482D01*
G01X294840D02*
X295760D01*
G01X295300D02*
Y22967D01*
G01X294840D02*
X295760D01*
G01X298000D02*
X297693Y23018D01*
X297425Y23225D01*
X297195Y23535D01*
X297042Y23897D01*
X296965Y24310D01*
Y24723D01*
X297042Y25137D01*
X297195Y25498D01*
X297425Y25808D01*
X297693Y26015D01*
X298000Y26067D01*
X298307Y26015D01*
X298575Y25808D01*
X298805Y25498D01*
X298958Y25137D01*
X299035Y24723D01*
Y24310D01*
X298958Y23897D01*
X298805Y23535D01*
X298575Y23225D01*
X298307Y23018D01*
X298000Y22967D01*
G01X299818D02*
Y26067D01*
X301582Y22967D01*
Y26067D01*
G01X305142D02*
X306100Y22967D01*
X307058Y26067D01*
G01X308072Y25550D02*
X308302Y25860D01*
X308570Y26015D01*
X308877Y26067D01*
X309260Y25963D01*
X309528Y25705D01*
X309605Y25395D01*
X309567Y25085D01*
X309413Y24827D01*
X308647Y24310D01*
X308302Y23948D01*
X308072Y23432D01*
X307995Y22967D01*
X309605D01*
G01X311500Y22863D02*
X311423Y22915D01*
Y23018D01*
X311500Y23070D01*
X311577Y23018D01*
Y22915D01*
X311500Y22863D01*
G01X314200Y22967D02*
Y26067D01*
X313740Y25447D01*
G01Y22967D02*
X314660D01*
G01X281700Y27450D02*
Y30550D01*
G01X284400Y27450D02*
X284170Y27502D01*
X283940Y27708D01*
X283787Y28070D01*
X283710Y28483D01*
X283787Y28897D01*
X283940Y29258D01*
X284170Y29465D01*
X284400Y29517D01*
X284630Y29465D01*
X284860Y29258D01*
X285013Y28897D01*
X285052Y28483D01*
X285013Y28070D01*
X284860Y27708D01*
X284630Y27502D01*
X284400Y27450D01*
G01X287100D02*
X286870Y27502D01*
X286640Y27708D01*
X286487Y28070D01*
X286410Y28483D01*
X286487Y28897D01*
X286640Y29258D01*
X286870Y29465D01*
X287100Y29517D01*
X287330Y29465D01*
X287560Y29258D01*
X287713Y28897D01*
X287752Y28483D01*
X287713Y28070D01*
X287560Y27708D01*
X287330Y27502D01*
X287100Y27450D01*
G01X289800D02*
Y30550D01*
G01X294740D02*
X295660D01*
G01X295200D02*
Y27450D01*
G01X294740D02*
X295660D01*
G01X297248D02*
Y29517D01*
G01Y29000D02*
X297402Y29258D01*
X297632Y29465D01*
X297938Y29517D01*
X298207Y29465D01*
X298437Y29258D01*
X298552Y28897D01*
Y27450D01*
G01X301290Y30550D02*
Y27450D01*
G01Y27915D02*
X301137Y27657D01*
X300907Y27502D01*
X300638Y27450D01*
X300332Y27553D01*
X300102Y27812D01*
X299948Y28122D01*
X299910Y28483D01*
X299948Y28845D01*
X300102Y29155D01*
X300332Y29413D01*
X300638Y29517D01*
X300907Y29465D01*
X301098Y29362D01*
X301290Y29155D01*
G01X302725Y27812D02*
X302917Y27605D01*
X303185Y27450D01*
X303415D01*
X303645Y27553D01*
X303798Y27708D01*
X303875Y27915D01*
X303837Y28225D01*
X303683Y28380D01*
X302993Y28690D01*
X302840Y29052D01*
X302917Y29310D01*
X303070Y29465D01*
X303300Y29517D01*
X303530Y29465D01*
X303760Y29310D01*
G01X307525Y378512D02*
X307717Y378305D01*
X307985Y378150D01*
X308215D01*
X308445Y378253D01*
X308598Y378408D01*
X308675Y378615D01*
X308637Y378925D01*
X308483Y379080D01*
X307793Y379390D01*
X307640Y379752D01*
X307717Y380010D01*
X307870Y380165D01*
X308100Y380217D01*
X308330Y380165D01*
X308560Y380010D01*
G01X320060Y406117D02*
X320750Y404050D01*
X321440Y406117D01*
G01X322952Y405083D02*
X323948D01*
G01X332860Y380017D02*
X333550Y377950D01*
X334240Y380017D01*
G01X335828Y378983D02*
X336748D01*
G01X336250Y379655D02*
Y378312D01*
G54D11*
G01X110300Y2800D02*
X98300D01*
G01D02*
Y14800D01*
G01X110300Y26800D02*
X98300D01*
G01D02*
Y14800D01*
G01X110300D02*
X98300D01*
G01X110300D02*
Y2800D01*
G01Y14800D02*
Y26800D01*
G01X182100Y58700D02*
Y46700D01*
G01Y58700D02*
X194100D01*
G01X182100D02*
Y70700D01*
G01Y58700D02*
X170100D01*
G01X182100Y46700D02*
X170100D01*
G01X182100D02*
X194100D01*
G01X170100D02*
Y58700D01*
G01D02*
Y70700D01*
G01D02*
X182100D01*
G01X194100D02*
X182100D01*
G01X194100Y58700D02*
Y70700D01*
G01Y58700D02*
Y46700D01*
G54D12*
G01X13223Y109394D02*
X8577D01*
Y118606D01*
X13223D01*
Y109394D01*
G01X8577Y129106D02*
X13223D01*
Y119894D01*
X8577D01*
Y129106D01*
G01X13223Y132394D02*
X8577D01*
Y141606D01*
X13223D01*
Y132394D01*
G01X16723Y62386D02*
X12077D01*
Y71598D01*
X16723D01*
Y62386D01*
G01X26723Y79386D02*
X22077D01*
Y88598D01*
X26723D01*
Y79386D01*
G01X31723D02*
X27077D01*
Y88598D01*
X31723D01*
Y79386D01*
G01X21723D02*
X17077D01*
Y88598D01*
X21723D01*
Y79386D01*
G01X41723D02*
X37077D01*
Y88598D01*
X41723D01*
Y79386D01*
G01X46723D02*
X42077D01*
Y88598D01*
X46723D01*
Y79386D01*
G01X36723D02*
X32077D01*
Y88598D01*
X36723D01*
Y79386D01*
G01X38077Y178614D02*
X42723D01*
Y169402D01*
X38077D01*
Y178614D01*
G01X31077D02*
X35723D01*
Y169402D01*
X31077D01*
Y178614D01*
G01X46723Y289386D02*
X42077D01*
Y298598D01*
X46723D01*
Y289386D01*
G01X41723D02*
X37077D01*
Y298598D01*
X41723D01*
Y289386D01*
G01Y299386D02*
X37077D01*
Y308598D01*
X41723D01*
Y299386D01*
G01X46723D02*
X42077D01*
Y308598D01*
X46723D01*
Y299386D01*
G01X37077Y329614D02*
X41723D01*
Y320402D01*
X37077D01*
Y329614D01*
G01X46014Y347323D02*
Y342677D01*
X36802D01*
Y347323D01*
X46014D01*
G01X41723Y330386D02*
X37077D01*
Y339598D01*
X41723D01*
Y330386D01*
G01X61723Y79386D02*
X57077D01*
Y88598D01*
X61723D01*
Y79386D01*
G01X51723D02*
X47077D01*
Y88598D01*
X51723D01*
Y79386D01*
G01X56723D02*
X52077D01*
Y88598D01*
X56723D01*
Y79386D01*
G01X45077Y178614D02*
X49723D01*
Y169402D01*
X45077D01*
Y178614D01*
G01X52077D02*
X56723D01*
Y169402D01*
X52077D01*
Y178614D01*
G01X44077Y248614D02*
X48723D01*
Y239402D01*
X44077D01*
Y248614D01*
G01Y268614D02*
X48723D01*
Y259402D01*
X44077D01*
Y268614D01*
G01X48723Y269386D02*
X44077D01*
Y278598D01*
X48723D01*
Y269386D01*
G01X60014Y294323D02*
Y289677D01*
X50802D01*
Y294323D01*
X60014D01*
G01X50786Y308677D02*
Y313323D01*
X59998D01*
Y308677D01*
X50786D01*
G01X47723Y320386D02*
X43077D01*
Y329598D01*
X47723D01*
Y320386D01*
G01X60014Y319323D02*
Y314677D01*
X50802D01*
Y319323D01*
X60014D01*
G01X47723Y330386D02*
X43077D01*
Y339598D01*
X47723D01*
Y330386D01*
G01X66723Y79386D02*
X62077D01*
Y88598D01*
X66723D01*
Y79386D01*
G01X71723D02*
X67077D01*
Y88598D01*
X71723D01*
Y79386D01*
G01X76723D02*
X72077D01*
Y88598D01*
X76723D01*
Y79386D01*
G01X59077Y178614D02*
X63723D01*
Y169402D01*
X59077D01*
Y178614D01*
G01X63786Y289677D02*
Y294323D01*
X72998D01*
Y289677D01*
X63786D01*
G01X74014Y346323D02*
Y341677D01*
X64802D01*
Y346323D01*
X74014D01*
G01X64786Y347677D02*
Y352323D01*
X73998D01*
Y347677D01*
X64786D01*
G01X87723Y62386D02*
X83077D01*
Y71598D01*
X87723D01*
Y62386D01*
G01X81723Y79394D02*
X77077D01*
Y88606D01*
X81723D01*
Y79394D01*
G01X89006Y262323D02*
Y257677D01*
X79794D01*
Y262323D01*
X89006D01*
G01X79786Y267677D02*
Y272323D01*
X88998D01*
Y267677D01*
X79786D01*
G01X89014Y277323D02*
Y272677D01*
X79802D01*
Y277323D01*
X89014D01*
G01X86723Y289386D02*
X82077D01*
Y298598D01*
X86723D01*
Y289386D01*
G01X81723D02*
X77077D01*
Y298598D01*
X81723D01*
Y289386D01*
G01X86723Y299386D02*
X82077D01*
Y308598D01*
X86723D01*
Y299386D01*
G01X81723D02*
X77077D01*
Y308598D01*
X81723D01*
Y299386D01*
G01X80077Y329614D02*
X84723D01*
Y320402D01*
X80077D01*
Y329614D01*
G01X85077D02*
X89723D01*
Y320402D01*
X85077D01*
Y329614D01*
G01Y339614D02*
X89723D01*
Y330402D01*
X85077D01*
Y339614D01*
G01X84723Y330386D02*
X80077D01*
Y339598D01*
X84723D01*
Y330386D01*
G01X88723Y354386D02*
X84077D01*
Y363598D01*
X88723D01*
Y354386D01*
G01X84077Y373614D02*
X88723D01*
Y364402D01*
X84077D01*
Y373614D01*
G01X90676Y74835D02*
X100124D01*
Y89008D01*
X90676D01*
Y74835D01*
G01X101014Y106323D02*
Y101677D01*
X91802D01*
Y106323D01*
X101014D01*
G01Y126323D02*
Y121677D01*
X91802D01*
Y126323D01*
X101014D01*
G01X91786Y126677D02*
Y131323D01*
X100998D01*
Y126677D01*
X91786D01*
G01Y131677D02*
Y136323D01*
X100998D01*
Y131677D01*
X91786D01*
G01Y147677D02*
Y152323D01*
X100998D01*
Y147677D01*
X91786D01*
G01X101014Y146323D02*
Y141677D01*
X91802D01*
Y146323D01*
X101014D01*
G01X91786Y167677D02*
Y172323D01*
X100998D01*
Y167677D01*
X91786D01*
G01Y175677D02*
Y180323D01*
X100998D01*
Y175677D01*
X91786D01*
G01Y182677D02*
Y187323D01*
X100998D01*
Y182677D01*
X91786D01*
G01Y187677D02*
Y192323D01*
X100998D01*
Y187677D01*
X91786D01*
G01Y192677D02*
Y197323D01*
X100998D01*
Y192677D01*
X91786D01*
G01X119894Y52677D02*
Y57323D01*
X129106D01*
Y52677D01*
X119894D01*
G01Y57677D02*
Y62323D01*
X129106D01*
Y57677D01*
X119894D01*
G01Y62677D02*
Y67323D01*
X129106D01*
Y62677D01*
X119894D01*
G01X129106Y72323D02*
Y67677D01*
X119894D01*
Y72323D01*
X129106D01*
G01X109077Y88614D02*
X113723D01*
Y79402D01*
X109077D01*
Y88614D01*
G01X122077Y112614D02*
X126723D01*
Y103402D01*
X122077D01*
Y112614D01*
G01X117077D02*
X121723D01*
Y103402D01*
X117077D01*
Y112614D01*
G01X127614Y219123D02*
Y214477D01*
X118402D01*
Y219123D01*
X127614D01*
G01X114077Y268614D02*
X118723D01*
Y259402D01*
X114077D01*
Y268614D01*
G01X118723Y269386D02*
X114077D01*
Y278598D01*
X118723D01*
Y269386D01*
G01X116723Y289386D02*
X112077D01*
Y298598D01*
X116723D01*
Y289386D01*
G01X111723D02*
X107077D01*
Y298598D01*
X111723D01*
Y289386D01*
G01X130014Y294323D02*
Y289677D01*
X120802D01*
Y294323D01*
X130014D01*
G01X111723Y299386D02*
X107077D01*
Y308598D01*
X111723D01*
Y299386D01*
G01X120786Y308677D02*
Y313323D01*
X129998D01*
Y308677D01*
X120786D01*
G01X116723Y299386D02*
X112077D01*
Y308598D01*
X116723D01*
Y299386D01*
G01X117723Y320386D02*
X113077D01*
Y329598D01*
X117723D01*
Y320386D01*
G01X130014Y319323D02*
Y314677D01*
X120802D01*
Y319323D01*
X130014D01*
G01X107077Y329614D02*
X111723D01*
Y320402D01*
X107077D01*
Y329614D01*
G01X116014Y347323D02*
Y342677D01*
X106802D01*
Y347323D01*
X116014D01*
G01X111723Y330386D02*
X107077D01*
Y339598D01*
X111723D01*
Y330386D01*
G01X117723D02*
X113077D01*
Y339598D01*
X117723D01*
Y330386D01*
G01X137894Y29677D02*
Y34323D01*
X147106D01*
Y29677D01*
X137894D01*
G01X141723Y103386D02*
X137077D01*
Y112598D01*
X141723D01*
Y103386D01*
G01X137386Y214477D02*
Y219123D01*
X146598D01*
Y214477D01*
X137386D01*
G01X128677Y223414D02*
X133323D01*
Y214202D01*
X128677D01*
Y223414D01*
G01Y233414D02*
X133323D01*
Y224202D01*
X128677D01*
Y233414D01*
G01X133786Y289677D02*
Y294323D01*
X142998D01*
Y289677D01*
X133786D01*
G01X144014Y346323D02*
Y341677D01*
X134802D01*
Y346323D01*
X144014D01*
G01X134786Y347677D02*
Y352323D01*
X143998D01*
Y347677D01*
X134786D01*
G01X148394Y29677D02*
Y34323D01*
X157606D01*
Y29677D01*
X148394D01*
G01X157823Y90394D02*
X153177D01*
Y99606D01*
X157823D01*
Y90394D01*
G01X150823D02*
X146177D01*
Y99606D01*
X150823D01*
Y90394D01*
G01X152677Y223414D02*
X157323D01*
Y214202D01*
X152677D01*
Y223414D01*
G01Y233414D02*
X157323D01*
Y224202D01*
X152677D01*
Y233414D01*
G01X159006Y262323D02*
Y257677D01*
X149794D01*
Y262323D01*
X159006D01*
G01Y267323D02*
Y262677D01*
X149794D01*
Y267323D01*
X159006D01*
G01X149786Y267677D02*
Y272323D01*
X158998D01*
Y267677D01*
X149786D01*
G01X159014Y277323D02*
Y272677D01*
X149802D01*
Y277323D01*
X159014D01*
G01X151723Y289386D02*
X147077D01*
Y298598D01*
X151723D01*
Y289386D01*
G01X156723D02*
X152077D01*
Y298598D01*
X156723D01*
Y289386D01*
G01Y299386D02*
X152077D01*
Y308598D01*
X156723D01*
Y299386D01*
G01X151723D02*
X147077D01*
Y308598D01*
X151723D01*
Y299386D01*
G01X150077Y329614D02*
X154723D01*
Y320402D01*
X150077D01*
Y329614D01*
G01X154723Y330386D02*
X150077D01*
Y339598D01*
X154723D01*
Y330386D01*
G01X162723Y103386D02*
X158077D01*
Y112598D01*
X162723D01*
Y103386D01*
G01X155077Y329614D02*
X159723D01*
Y320402D01*
X155077D01*
Y329614D01*
G01Y339614D02*
X159723D01*
Y330402D01*
X155077D01*
Y339614D01*
G01X158723Y354386D02*
X154077D01*
Y363598D01*
X158723D01*
Y354386D01*
G01X154077Y373614D02*
X158723D01*
Y364402D01*
X154077D01*
Y373614D01*
G01X189723Y103386D02*
X185077D01*
Y112598D01*
X189723D01*
Y103386D01*
G01X184723D02*
X180077D01*
Y112598D01*
X184723D01*
Y103386D01*
G01X179823Y215394D02*
X175177D01*
Y224606D01*
X179823D01*
Y215394D01*
G01X170177Y224606D02*
X174823D01*
Y215394D01*
X170177D01*
Y224606D01*
G01X184077Y268614D02*
X188723D01*
Y259402D01*
X184077D01*
Y268614D01*
G01X188723Y269386D02*
X184077D01*
Y278598D01*
X188723D01*
Y269386D01*
G01X186723Y289386D02*
X182077D01*
Y298598D01*
X186723D01*
Y289386D01*
G01X181723D02*
X177077D01*
Y298598D01*
X181723D01*
Y289386D01*
G01Y299386D02*
X177077D01*
Y308598D01*
X181723D01*
Y299386D01*
G01X186723D02*
X182077D01*
Y308598D01*
X186723D01*
Y299386D01*
G01X187723Y320386D02*
X183077D01*
Y329598D01*
X187723D01*
Y320386D01*
G01X177077Y329614D02*
X181723D01*
Y320402D01*
X177077D01*
Y329614D01*
G01X181723Y330386D02*
X177077D01*
Y339598D01*
X181723D01*
Y330386D01*
G01X186014Y347323D02*
Y342677D01*
X176802D01*
Y347323D01*
X186014D01*
G01X187723Y330386D02*
X183077D01*
Y339598D01*
X187723D01*
Y330386D01*
G01X200014Y294323D02*
Y289677D01*
X190802D01*
Y294323D01*
X200014D01*
G01X190786Y308677D02*
Y313323D01*
X199998D01*
Y308677D01*
X190786D01*
G01X200014Y319323D02*
Y314677D01*
X190802D01*
Y319323D01*
X200014D01*
G01X221323Y118394D02*
X216677D01*
Y127606D01*
X221323D01*
Y118394D01*
G01X216677Y137614D02*
X221323D01*
Y128402D01*
X216677D01*
Y137614D01*
G01X211014Y156323D02*
Y151677D01*
X201802D01*
Y156323D01*
X211014D01*
G01Y176323D02*
Y171677D01*
X201802D01*
Y176323D01*
X211014D01*
G01X214386Y180677D02*
Y185323D01*
X223598D01*
Y180677D01*
X214386D01*
G01X223606Y194323D02*
Y189677D01*
X214394D01*
Y194323D01*
X223606D01*
G01X211014Y190323D02*
Y185677D01*
X201802D01*
Y190323D01*
X211014D01*
G01Y201323D02*
Y196677D01*
X201802D01*
Y201323D01*
X211014D01*
G01X225606Y230323D02*
Y225677D01*
X216394D01*
Y230323D01*
X225606D01*
G01X221723Y289386D02*
X217077D01*
Y298598D01*
X221723D01*
Y289386D01*
G01X203786Y289677D02*
Y294323D01*
X212998D01*
Y289677D01*
X203786D01*
G01X221723Y299386D02*
X217077D01*
Y308598D01*
X221723D01*
Y299386D01*
G01X214014Y346323D02*
Y341677D01*
X204802D01*
Y346323D01*
X214014D01*
G01X204786Y347677D02*
Y352323D01*
X213998D01*
Y347677D01*
X204786D01*
G01X226606Y88323D02*
Y83677D01*
X217394D01*
Y88323D01*
X226606D01*
G01X240614D02*
Y83677D01*
X231402D01*
Y88323D01*
X240614D01*
G01X222677Y127606D02*
X227323D01*
Y118394D01*
X222677D01*
Y127606D01*
G01Y137606D02*
X227323D01*
Y128394D01*
X222677D01*
Y137606D01*
G01X229006Y262323D02*
Y257677D01*
X219794D01*
Y262323D01*
X229006D01*
G01X219786Y267677D02*
Y272323D01*
X228998D01*
Y267677D01*
X219786D01*
G01X229014Y277323D02*
Y272677D01*
X219802D01*
Y277323D01*
X229014D01*
G01X226723Y289386D02*
X222077D01*
Y298598D01*
X226723D01*
Y289386D01*
G01Y299386D02*
X222077D01*
Y308598D01*
X226723D01*
Y299386D01*
G01X220077Y329614D02*
X224723D01*
Y320402D01*
X220077D01*
Y329614D01*
G01X225077D02*
X229723D01*
Y320402D01*
X225077D01*
Y329614D01*
G01Y339614D02*
X229723D01*
Y330402D01*
X225077D01*
Y339614D01*
G01X224723Y330386D02*
X220077D01*
Y339598D01*
X224723D01*
Y330386D01*
G01X228723Y354386D02*
X224077D01*
Y363598D01*
X228723D01*
Y354386D01*
G01X224077Y373614D02*
X228723D01*
Y364402D01*
X224077D01*
Y373614D01*
G01X247606Y194323D02*
Y189677D01*
X238394D01*
Y194323D01*
X247606D01*
G01X249606Y230323D02*
Y225677D01*
X240394D01*
Y230323D01*
X249606D01*
G01X251723Y289386D02*
X247077D01*
Y298598D01*
X251723D01*
Y289386D01*
G01Y299386D02*
X247077D01*
Y308598D01*
X251723D01*
Y299386D01*
G01X247077Y329614D02*
X251723D01*
Y320402D01*
X247077D01*
Y329614D01*
G01X256014Y347323D02*
Y342677D01*
X246802D01*
Y347323D01*
X256014D01*
G01X251723Y330386D02*
X247077D01*
Y339598D01*
X251723D01*
Y330386D01*
G01X262606Y88323D02*
Y83677D01*
X253394D01*
Y88323D01*
X262606D01*
G01X257323Y118386D02*
X252677D01*
Y127598D01*
X257323D01*
Y118386D01*
G01X258677Y127606D02*
X263323D01*
Y118394D01*
X258677D01*
Y127606D01*
G01Y137606D02*
X263323D01*
Y128394D01*
X258677D01*
Y137606D01*
G01X252677Y137614D02*
X257323D01*
Y128402D01*
X252677D01*
Y137614D01*
G01X262386Y180677D02*
Y185323D01*
X271598D01*
Y180677D01*
X262386D01*
G01X273614Y194323D02*
Y189677D01*
X264402D01*
Y194323D01*
X273614D01*
G01X273606Y230323D02*
Y225677D01*
X264394D01*
Y230323D01*
X273606D01*
G01X254077Y268614D02*
X258723D01*
Y259402D01*
X254077D01*
Y268614D01*
G01X258723Y269386D02*
X254077D01*
Y278598D01*
X258723D01*
Y269386D01*
G01X256723Y289386D02*
X252077D01*
Y298598D01*
X256723D01*
Y289386D01*
G01X270014Y294323D02*
Y289677D01*
X260802D01*
Y294323D01*
X270014D01*
G01X260786Y308677D02*
Y313323D01*
X269998D01*
Y308677D01*
X260786D01*
G01X256723Y299386D02*
X252077D01*
Y308598D01*
X256723D01*
Y299386D01*
G01X257723Y320386D02*
X253077D01*
Y329598D01*
X257723D01*
Y320386D01*
G01X270014Y319323D02*
Y314677D01*
X260802D01*
Y319323D01*
X270014D01*
G01X257723Y330386D02*
X253077D01*
Y339598D01*
X257723D01*
Y330386D01*
G01X276614Y88323D02*
Y83677D01*
X267402D01*
Y88323D01*
X276614D01*
G01X274386Y189677D02*
Y194323D01*
X283598D01*
Y189677D01*
X274386D01*
G01X283606Y230323D02*
Y225677D01*
X274394D01*
Y230323D01*
X283606D01*
G01X273786Y289677D02*
Y294323D01*
X282998D01*
Y289677D01*
X273786D01*
G01X284014Y346323D02*
Y341677D01*
X274802D01*
Y346323D01*
X284014D01*
G01X274786Y347677D02*
Y352323D01*
X283998D01*
Y347677D01*
X274786D01*
G01X298606Y88323D02*
Y83677D01*
X289394D01*
Y88323D01*
X298606D01*
G01X293823Y118394D02*
X289177D01*
Y127606D01*
X293823D01*
Y118394D01*
G01X294677Y127606D02*
X299323D01*
Y118394D01*
X294677D01*
Y127606D01*
G01Y137606D02*
X299323D01*
Y128394D01*
X294677D01*
Y137606D01*
G01X289177D02*
X293823D01*
Y128394D01*
X289177D01*
Y137606D01*
G01X295614Y194323D02*
Y189677D01*
X286402D01*
Y194323D01*
X295614D01*
G01X295606Y230323D02*
Y225677D01*
X286394D01*
Y230323D01*
X295606D01*
G01X299006Y262323D02*
Y257677D01*
X289794D01*
Y262323D01*
X299006D01*
G01Y267323D02*
Y262677D01*
X289794D01*
Y267323D01*
X299006D01*
G01X289786Y267677D02*
Y272323D01*
X298998D01*
Y267677D01*
X289786D01*
G01X299014Y277323D02*
Y272677D01*
X289802D01*
Y277323D01*
X299014D01*
G01X296723Y289386D02*
X292077D01*
Y298598D01*
X296723D01*
Y289386D01*
G01X291723D02*
X287077D01*
Y298598D01*
X291723D01*
Y289386D01*
G01X296723Y299386D02*
X292077D01*
Y308598D01*
X296723D01*
Y299386D01*
G01X291723D02*
X287077D01*
Y308598D01*
X291723D01*
Y299386D01*
G01X290077Y329614D02*
X294723D01*
Y320402D01*
X290077D01*
Y329614D01*
G01X295077D02*
X299723D01*
Y320402D01*
X295077D01*
Y329614D01*
G01Y339614D02*
X299723D01*
Y330402D01*
X295077D01*
Y339614D01*
G01X294723Y330386D02*
X290077D01*
Y339598D01*
X294723D01*
Y330386D01*
G01X298723Y354386D02*
X294077D01*
Y363598D01*
X298723D01*
Y354386D01*
G01X294077Y373614D02*
X298723D01*
Y364402D01*
X294077D01*
Y373614D01*
G01X312614Y88323D02*
Y83677D01*
X303402D01*
Y88323D01*
X312614D01*
G01X312606Y178323D02*
Y173677D01*
X303394D01*
Y178323D01*
X312606D01*
G01X296386Y189677D02*
Y194323D01*
X305598D01*
Y189677D01*
X296386D01*
G01X317614Y194323D02*
Y189677D01*
X308402D01*
Y194323D01*
X317614D01*
G01X305606Y230323D02*
Y225677D01*
X296394D01*
Y230323D01*
X305606D01*
G01X317606D02*
Y225677D01*
X308394D01*
Y230323D01*
X317606D01*
G01X311077Y271614D02*
X315723D01*
Y262402D01*
X311077D01*
Y271614D01*
G01X310077Y302614D02*
X314723D01*
Y293402D01*
X310077D01*
Y302614D01*
G01X314723Y283386D02*
X310077D01*
Y292598D01*
X314723D01*
Y283386D01*
G01X310786Y305677D02*
Y310323D01*
X319998D01*
Y305677D01*
X310786D01*
G01X310723Y341386D02*
X306077D01*
Y350598D01*
X310723D01*
Y341386D01*
G01Y352386D02*
X306077D01*
Y361598D01*
X310723D01*
Y352386D01*
G01X326386Y83677D02*
Y88323D01*
X335598D01*
Y83677D01*
X326386D01*
G01X318386Y189677D02*
Y194323D01*
X327598D01*
Y189677D01*
X318386D01*
G01X327606Y230323D02*
Y225677D01*
X318394D01*
Y230323D01*
X327606D01*
G01X320786Y319677D02*
Y324323D01*
X329998D01*
Y319677D01*
X320786D01*
G01X325077Y350614D02*
X329723D01*
Y341402D01*
X325077D01*
Y350614D01*
G01X347614Y88323D02*
Y83677D01*
X338402D01*
Y88323D01*
X347614D01*
G01X342394Y89677D02*
Y94323D01*
X351606D01*
Y89677D01*
X342394D01*
G01X351606Y100323D02*
Y95677D01*
X342394D01*
Y100323D01*
X351606D01*
G01Y106323D02*
Y101677D01*
X342394D01*
Y106323D01*
X351606D01*
G01Y112323D02*
Y107677D01*
X342394D01*
Y112323D01*
X351606D01*
G01X343606Y201323D02*
Y196677D01*
X334394D01*
Y201323D01*
X343606D01*
G01X343614Y194323D02*
Y189677D01*
X334402D01*
Y194323D01*
X343614D01*
G01X341614Y223323D02*
Y218677D01*
X332402D01*
Y223323D01*
X341614D01*
G01X340786Y319677D02*
Y324323D01*
X349998D01*
Y319677D01*
X340786D01*
G01X340014Y324323D02*
Y319677D01*
X330802D01*
Y324323D01*
X340014D01*
G01X340786Y362677D02*
Y367323D01*
X349998D01*
Y362677D01*
X340786D01*
G01X350323Y204386D02*
X345677D01*
Y213598D01*
X350323D01*
Y204386D01*
G01X349723Y261386D02*
X345077D01*
Y270598D01*
X349723D01*
Y261386D01*
G01X345077Y280614D02*
X349723D01*
Y271402D01*
X345077D01*
Y280614D01*
G01X349723Y283386D02*
X345077D01*
Y292598D01*
X349723D01*
Y283386D01*
G01X345077Y302614D02*
X349723D01*
Y293402D01*
X345077D01*
Y302614D01*
G01X349723Y342386D02*
X345077D01*
Y351598D01*
X349723D01*
Y342386D01*
G01Y352386D02*
X345077D01*
Y361598D01*
X349723D01*
Y352386D01*
G54D13*
G01X25333Y96032D02*
G03I-492J0D01*
G01X51506Y280811D02*
G03I-492J0D01*
G01X52120Y307854D02*
G03I-492J0D01*
G01X50924Y341327D02*
G03I-492J0D01*
G01X44892Y385496D02*
G03I-492J0D01*
G01X81042Y234575D02*
G03I-492J0D01*
G01X81861Y352673D02*
G03I-492J0D01*
G01X96582Y22812D02*
G03I-492J0D01*
G01X118728Y84500D02*
G03I-492J0D01*
G01X121506Y280811D02*
G03I-492J0D01*
G01X122120Y307854D02*
G03I-492J0D01*
G01X120924Y341327D02*
G03I-492J0D01*
G01X114892Y385496D02*
G03I-492J0D01*
G01X151779Y233963D02*
X134479D01*
Y219763D01*
X151779D01*
Y233963D01*
G01X148592Y235734D02*
G03I-492J0D01*
G01X151861Y352673D02*
G03I-492J0D01*
G01X184892Y385496D02*
G03I-492J0D01*
G01X189451Y208968D02*
G03I-492J0D01*
G01X191506Y280811D02*
G03I-492J0D01*
G01X192120Y307854D02*
G03I-492J0D01*
G01X190924Y341327D02*
G03I-492J0D01*
G01X221861Y352673D02*
G03I-492J0D01*
G01X243634Y76000D02*
G03I-492J0D01*
G01X238319Y115598D02*
G03I-492J0D01*
G01X241319Y222598D02*
G03I-492J0D01*
G01X263319D02*
G03I-492J0D01*
G01X261506Y280811D02*
G03I-492J0D01*
G01X262120Y307854D02*
G03I-492J0D01*
G01X260924Y341327D02*
G03I-492J0D01*
G01X254892Y385496D02*
G03I-492J0D01*
G01X279634Y76000D02*
G03I-492J0D01*
G01X274319Y115598D02*
G03I-492J0D01*
G01X285319Y222598D02*
G03I-492J0D01*
G01X291861Y352673D02*
G03I-492J0D01*
G01X292492Y416220D02*
G03I-492J0D01*
G01X310319Y115598D02*
G03I-492J0D01*
G01X307319Y222598D02*
G03I-492J0D01*
G01X318949Y82929D02*
G03I-492J0D01*
G01X322350Y76000D02*
G03I-492J0D01*
G01X315634D02*
G03I-492J0D01*
G01X329319Y222598D02*
G03I-492J0D01*
G01X317876Y312850D02*
G03I-492J0D01*
G01X320396Y312000D02*
G03I-492J0D01*
G01X326404Y334000D02*
G03I-492J0D01*
G01X324746Y361575D02*
G03I-492J0D01*
G01X341346Y113575D02*
G03I-492J0D01*
G01X331602Y202898D02*
G03I-492J0D01*
G01X343057Y260673D02*
G03I-492J0D01*
G01X342861Y282673D02*
G03I-492J0D01*
G01X332908Y353150D02*
G03I-492J0D01*
G01Y366150D02*
G03I-492J0D01*
G54D14*
G01X8600Y88834D02*
Y75434D01*
X16100D01*
Y88834D01*
X8600D01*
G01X8109Y229161D02*
X80550D01*
Y191957D01*
X8109D01*
Y229161D01*
G01X17250Y419150D02*
X19218Y417181D01*
Y395134D01*
X8982D01*
Y417181D01*
X10950Y419150D01*
X17250D01*
G01X18345Y71787D02*
X81337D01*
Y-10890D01*
X18345D01*
Y71787D01*
G01X77006Y102331D02*
X25038D01*
Y154299D01*
X77006D01*
Y102331D01*
G01X21415Y387315D02*
X60785D01*
Y426685D01*
X21415D01*
Y387315D01*
G01X14100Y408913D02*
X16462Y406551D01*
X11738D01*
X14100Y408913D01*
G01Y411669D02*
Y402614D01*
G01X16462Y408913D02*
X11738D01*
G01X17478Y435740D02*
X64722D01*
G01X21415Y426685D02*
X13541D01*
Y435740D01*
X17478D01*
Y455425D01*
X23384D01*
Y485740D01*
X21415D01*
Y487709D01*
X23384D01*
Y502669D01*
X58816D01*
Y487709D01*
X60785D01*
Y485740D01*
X58816D01*
Y455425D01*
X64722D01*
Y435740D01*
X68659D01*
Y426685D01*
X60785D01*
G01X17478Y439677D02*
X64722D01*
G01X17478Y443614D02*
X64722D01*
G01X17478Y447551D02*
X64722D01*
G01X17478Y451488D02*
X64722D01*
G01X17478Y455425D02*
X64722D01*
G01X35600Y272834D02*
Y259434D01*
X43100D01*
Y272834D01*
X35600D01*
G01X38101Y381165D02*
X35739D01*
Y352425D01*
X38101D01*
G01X29289Y435740D02*
Y426685D01*
G01X57215Y259157D02*
Y278842D01*
X71585D01*
Y259157D01*
X57215D01*
G01X47566Y281200D02*
X60966D01*
Y288700D01*
X47566D01*
Y281200D01*
G01X57731Y295256D02*
X66392D01*
G01X57731Y307067D02*
X66392D01*
G01X56928Y320854D02*
Y340146D01*
X69132D01*
Y320854D01*
X56928D01*
G01X50566Y341200D02*
X63966D01*
Y348700D01*
X50566D01*
Y341200D01*
G01X50699Y381165D02*
X53061D01*
Y352425D01*
X50699D01*
G01X52911Y435740D02*
Y426685D01*
G01X76234Y288800D02*
X62834D01*
Y281300D01*
X76234D01*
Y288800D01*
G01X60566Y312200D02*
X73966D01*
Y319700D01*
X60566D01*
Y312200D01*
G01X75069Y373146D02*
Y353854D01*
X62471D01*
Y373146D01*
X75069D01*
G01X69991Y378000D02*
X76684D01*
G01X67628Y379968D02*
Y376032D01*
G01X68022Y378000D02*
X69991Y376032D01*
Y379968D01*
X68022Y378000D01*
X61723D01*
G01X71250Y419150D02*
X73218Y417181D01*
Y395134D01*
X62982D01*
Y417181D01*
X64950Y419150D01*
X71250D01*
G01X68100Y408913D02*
X70462Y406551D01*
X65738D01*
X68100Y408913D01*
G01Y411669D02*
Y402614D01*
G01X70462Y408913D02*
X65738D01*
G01X83491Y18580D02*
X94909D01*
Y16021D01*
X83491D01*
Y18580D01*
G01X85409Y52634D02*
Y31492D01*
X111591D01*
Y52634D01*
G01Y58146D02*
Y60508D01*
X85409D01*
Y58146D01*
G01X82600Y88834D02*
Y75434D01*
X90100D01*
Y88834D01*
X82600D01*
G01X90600Y277834D02*
Y264434D01*
X98100D01*
Y277834D01*
X90600D01*
G01X79566Y279200D02*
X92966D01*
Y286700D01*
X79566D01*
Y279200D01*
G01X75566Y341200D02*
X88966D01*
Y348700D01*
X75566D01*
Y341200D01*
G01X87250Y419150D02*
X89218Y417181D01*
Y395134D01*
X78982D01*
Y417181D01*
X80950Y419150D01*
X87250D01*
G01X84100Y408913D02*
X86462Y406551D01*
X81738D01*
X84100Y408913D01*
G01Y411669D02*
Y402614D01*
G01X86462Y408913D02*
X81738D01*
G01X87478Y435740D02*
X134722D01*
G01X91415Y426685D02*
X83541D01*
Y435740D01*
X87478D01*
Y455425D01*
X93384D01*
Y485740D01*
X91415D01*
Y487709D01*
X93384D01*
Y502669D01*
X128816D01*
Y487709D01*
X130785D01*
Y485740D01*
X128816D01*
Y455425D01*
X134722D01*
Y435740D01*
X138659D01*
Y426685D01*
X130785D01*
G01X87478Y439677D02*
X134722D01*
G01X87478Y443614D02*
X134722D01*
G01X87478Y447551D02*
X134722D01*
G01X87478Y451488D02*
X134722D01*
G01X87478Y455425D02*
X134722D01*
G01X101650Y31433D02*
Y29071D01*
X105193D01*
Y31433D01*
G01X92201D02*
Y29071D01*
X95744D01*
Y31433D01*
G01X94957Y60567D02*
Y64504D01*
X102043D01*
Y60567D01*
G01X108200Y75166D02*
Y88566D01*
X100700D01*
Y75166D01*
X108200D01*
G01X105600Y272834D02*
Y259434D01*
X113100D01*
Y272834D01*
X105600D01*
G01X108101Y381165D02*
X105739D01*
Y352425D01*
X108101D01*
G01X91415Y387315D02*
X130785D01*
Y426685D01*
X91415D01*
Y387315D01*
G01X99289Y435740D02*
Y426685D01*
G01X132305Y51591D02*
Y409D01*
X112620D01*
Y51591D01*
X132305D01*
G01X132187Y20488D02*
X112502D01*
G01X150500Y79500D02*
X120500D01*
Y89500D01*
G01D02*
X160500D01*
Y79500D01*
X150500D01*
G01X114156Y202669D02*
X189746D01*
Y127079D01*
X114156D01*
Y202669D01*
G01X114166Y220000D02*
X127566D01*
Y227500D01*
X114166D01*
Y220000D01*
G01Y229000D02*
X127566D01*
Y236500D01*
X114166D01*
Y229000D01*
G01X117566Y281200D02*
X130966D01*
Y288700D01*
X117566D01*
Y281200D01*
G01X120566Y341200D02*
X133966D01*
Y348700D01*
X120566D01*
Y341200D01*
G01X120699Y381165D02*
X123061D01*
Y352425D01*
X120699D01*
G01X154134Y39504D02*
X132992D01*
Y77496D01*
G01X132933Y55350D02*
X130571D01*
Y51807D01*
X132933D01*
G01Y64799D02*
X130571D01*
Y61256D01*
X132933D01*
G01X154154Y77555D02*
X133012D01*
G01X127215Y259157D02*
Y278842D01*
X141585D01*
Y259157D01*
X127215D01*
G01X146234Y288800D02*
X132834D01*
Y281300D01*
X146234D01*
Y288800D01*
G01X127731Y295256D02*
X136392D01*
G01X130566Y312200D02*
X143966D01*
Y319700D01*
X130566D01*
Y312200D01*
G01X127731Y307067D02*
X136392D01*
G01X126928Y320854D02*
Y340146D01*
X139132D01*
Y320854D01*
X126928D01*
G01X145069Y373146D02*
Y353854D01*
X132471D01*
Y373146D01*
X145069D01*
G01X137628Y379968D02*
Y376032D01*
G01X138022Y378000D02*
X139991Y376032D01*
Y379968D01*
X138022Y378000D01*
X131723D01*
G01X141250Y419150D02*
X143218Y417181D01*
Y395134D01*
X132982D01*
Y417181D01*
X134950Y419150D01*
X141250D01*
G01X138100Y408913D02*
X140462Y406551D01*
X135738D01*
X138100Y408913D01*
G01Y411669D02*
Y402614D01*
G01X140462Y408913D02*
X135738D01*
G01X122911Y435740D02*
Y426685D01*
G01X145835Y2351D02*
Y-7295D01*
X150362D01*
Y2351D01*
G01X140225Y24595D02*
X155973D01*
Y2351D01*
X140225D01*
Y24595D01*
G01X149566Y279200D02*
X162966D01*
Y286700D01*
X149566D01*
Y279200D01*
G01X145566Y341200D02*
X158966D01*
Y348700D01*
X145566D01*
Y341200D01*
G01X139991Y378000D02*
X146684D01*
G01X157250Y419150D02*
X159218Y417181D01*
Y395134D01*
X148982D01*
Y417181D01*
X150950Y419150D01*
X157250D01*
G01X154100Y408913D02*
X156462Y406551D01*
X151738D01*
X154100Y408913D01*
G01X156462D02*
X151738D01*
G01X161415Y426685D02*
X153541D01*
Y435740D01*
X157478D01*
Y455425D01*
X163384D01*
Y485740D01*
X161415D01*
Y487709D01*
X163384D01*
Y502669D01*
X198816D01*
Y487709D01*
X200785D01*
Y485740D01*
X198816D01*
Y455425D01*
X204722D01*
Y435740D01*
X208659D01*
Y426685D01*
X200785D01*
G01X159646Y39504D02*
X162008D01*
Y77496D01*
X159646D01*
G01X162067Y62043D02*
X166004D01*
Y54957D01*
X162067D01*
G01X160600Y277834D02*
Y264434D01*
X168100D01*
Y277834D01*
X160600D01*
G01X161415Y387315D02*
X200785D01*
Y426685D01*
X161415D01*
Y387315D01*
G01X154100Y411669D02*
Y402614D01*
G01X169289Y435740D02*
Y426685D01*
G01X157478Y435740D02*
X204722D01*
G01X157478Y439677D02*
X204722D01*
G01X157478Y443614D02*
X204722D01*
G01X157478Y447551D02*
X204722D01*
G01X157478Y451488D02*
X204722D01*
G01X157478Y455425D02*
X204722D01*
G01X175600Y272834D02*
Y259434D01*
X183100D01*
Y272834D01*
X175600D01*
G01X178101Y381165D02*
X175739D01*
Y352425D01*
X178101D01*
G01X197215Y259157D02*
Y278842D01*
X211585D01*
Y259157D01*
X197215D01*
G01X187566Y281200D02*
X200966D01*
Y288700D01*
X187566D01*
Y281200D01*
G01X197731Y295256D02*
X206392D01*
G01X200566Y312200D02*
X213966D01*
Y319700D01*
X200566D01*
Y312200D01*
G01X197731Y307067D02*
X206392D01*
G01X196928Y320854D02*
Y340146D01*
X209132D01*
Y320854D01*
X196928D01*
G01X190566Y341200D02*
X203966D01*
Y348700D01*
X190566D01*
Y341200D01*
G01X190699Y381165D02*
X193061D01*
Y352425D01*
X190699D01*
G01X192911Y435740D02*
Y426685D01*
G01X238811Y69701D02*
X215189D01*
G01X238811Y82299D02*
X215189D01*
G01X217354Y107528D02*
Y98472D01*
G01X241780Y150126D02*
Y144220D01*
X214220D01*
Y150126D01*
G01X241780Y165874D02*
Y171780D01*
X214220D01*
Y165874D01*
G01X216234Y288800D02*
X202834D01*
Y281300D01*
X216234D01*
Y288800D01*
G01X215566Y341200D02*
X228966D01*
Y348700D01*
X215566D01*
Y341200D01*
G01X215069Y373146D02*
Y353854D01*
X202471D01*
Y373146D01*
X215069D01*
G01X209991Y378000D02*
X216684D01*
G01X207628Y379968D02*
Y376032D01*
G01X208022Y378000D02*
X209991Y376032D01*
Y379968D01*
X208022Y378000D01*
X201723D01*
G01X211250Y419150D02*
X213218Y417181D01*
Y395134D01*
X202982D01*
Y417181D01*
X204950Y419150D01*
X211250D01*
G01X208100Y408913D02*
X210462Y406551D01*
X205738D01*
X208100Y408913D01*
G01Y411669D02*
Y402614D01*
G01X210462Y408913D02*
X205738D01*
G01X230850Y118850D02*
X228882Y120819D01*
Y142866D01*
X239118D01*
Y120819D01*
X237150Y118850D01*
X230850D01*
G01X234000Y129087D02*
X231638Y131449D01*
X236362D01*
X234000Y129087D01*
G01X231638D02*
X236362D01*
G01X224756Y172850D02*
X219244D01*
G01X224756Y179150D02*
X219244D01*
G01X224300Y188200D02*
X237700D01*
Y195700D01*
X224300D01*
Y188200D01*
G01X220354Y216299D02*
X239646D01*
Y203701D01*
X220354D01*
Y216299D01*
G01X226300Y225200D02*
X239700D01*
Y232700D01*
X226300D01*
Y225200D01*
G01X230600Y277834D02*
Y264434D01*
X238100D01*
Y277834D01*
X230600D01*
G01X219566Y279200D02*
X232966D01*
Y286700D01*
X219566D01*
Y279200D01*
G01X231415Y387315D02*
X270785D01*
Y426685D01*
X231415D01*
Y387315D01*
G01X227250Y419150D02*
X229218Y417181D01*
Y395134D01*
X218982D01*
Y417181D01*
X220950Y419150D01*
X227250D01*
G01X224100Y408913D02*
X226462Y406551D01*
X221738D01*
X224100Y408913D01*
G01Y411669D02*
Y402614D01*
G01X226462Y408913D02*
X221738D01*
G01X227478Y435740D02*
X274722D01*
G01X231415Y426685D02*
X223541D01*
Y435740D01*
X227478D01*
Y455425D01*
X233384D01*
Y485740D01*
X231415D01*
Y487709D01*
X233384D01*
Y502669D01*
X268816D01*
Y487709D01*
X270785D01*
Y485740D01*
X268816D01*
Y455425D01*
X274722D01*
Y435740D01*
X278659D01*
Y426685D01*
X270785D01*
G01X227478Y439677D02*
X274722D01*
G01X227478Y443614D02*
X274722D01*
G01X227478Y447551D02*
X274722D01*
G01X227478Y451488D02*
X274722D01*
G01X227478Y455425D02*
X274722D01*
G01X236646Y107528D02*
Y98472D01*
G01X234000Y126331D02*
Y135386D01*
G01X248300Y188200D02*
X261700D01*
Y195700D01*
X248300D01*
Y188200D01*
G01X242354Y216299D02*
X261646D01*
Y203701D01*
X242354D01*
Y216299D01*
G01X245600Y272834D02*
Y259434D01*
X253100D01*
Y272834D01*
X245600D01*
G01X248101Y381165D02*
X245739D01*
Y352425D01*
X248101D01*
G01X239289Y435740D02*
Y426685D01*
G01X274811Y69701D02*
X251189D01*
G01X274811Y82299D02*
X251189D01*
G01X253354Y107528D02*
Y98472D01*
G01X266850Y118850D02*
X264882Y120819D01*
Y142866D01*
X275118D01*
Y120819D01*
X273150Y118850D01*
X266850D01*
G01X277780Y150126D02*
Y144220D01*
X250220D01*
Y150126D01*
G01X277780Y165874D02*
Y171780D01*
X250220D01*
Y165874D01*
G01X264354Y216299D02*
X283646D01*
Y203701D01*
X264354D01*
Y216299D01*
G01X250300Y225200D02*
X263700D01*
Y232700D01*
X250300D01*
Y225200D01*
G01X257566Y281200D02*
X270966D01*
Y288700D01*
X257566D01*
Y281200D01*
G01X260566Y341200D02*
X273966D01*
Y348700D01*
X260566D01*
Y341200D01*
G01X260699Y381165D02*
X263061D01*
Y352425D01*
X260699D01*
G01X262911Y435740D02*
Y426685D01*
G01X272646Y107528D02*
Y98472D01*
G01X270000Y129087D02*
X267638Y131449D01*
X272362D01*
X270000Y129087D01*
G01X267638D02*
X272362D01*
G01X270000Y126331D02*
Y135386D01*
G01X272654Y172850D02*
X267142D01*
G01X272654Y179150D02*
X267142D01*
G01X270300Y231200D02*
X283700D01*
Y238700D01*
X270300D01*
Y231200D01*
G01X267215Y259157D02*
Y278842D01*
X281585D01*
Y259157D01*
X267215D01*
G01X286234Y288800D02*
X272834D01*
Y281300D01*
X286234D01*
Y288800D01*
G01X267731Y295256D02*
X276392D01*
G01X270566Y312200D02*
X283966D01*
Y319700D01*
X270566D01*
Y312200D01*
G01X267731Y307067D02*
X276392D01*
G01X266928Y320854D02*
Y340146D01*
X279132D01*
Y320854D01*
X266928D01*
G01X285069Y373146D02*
Y353854D01*
X272471D01*
Y373146D01*
X285069D01*
G01X279991Y378000D02*
X286684D01*
G01X277628Y379968D02*
Y376032D01*
G01X278022Y378000D02*
X279991Y376032D01*
Y379968D01*
X278022Y378000D01*
X271723D01*
G01X281250Y419150D02*
X283218Y417181D01*
Y395134D01*
X272982D01*
Y417181D01*
X274950Y419150D01*
X281250D01*
G01X278100Y408913D02*
X280462Y406551D01*
X275738D01*
X278100Y408913D01*
G01Y411669D02*
Y402614D01*
G01X280462Y408913D02*
X275738D01*
G01X310811Y69701D02*
X287189D01*
G01X310811Y82299D02*
X287189D01*
G01X289354Y107528D02*
Y98472D01*
G01X313780Y150126D02*
Y144220D01*
X286220D01*
Y150126D01*
G01X313780Y165874D02*
Y171780D01*
X286220D01*
Y165874D01*
G01X296756Y172850D02*
X291244D01*
G01X296756Y179150D02*
X291244D01*
G01X286354Y216299D02*
X305646D01*
Y203701D01*
X286354D01*
Y216299D01*
G01X292300Y231200D02*
X305700D01*
Y238700D01*
X292300D01*
Y231200D01*
G01X289566Y279200D02*
X302966D01*
Y286700D01*
X289566D01*
Y279200D01*
G01X285566Y341200D02*
X298966D01*
Y348700D01*
X285566D01*
Y341200D01*
G01X286685Y405000D02*
X297315D01*
G01X295509Y429402D02*
X346691D01*
Y476646D01*
G03X344328Y479008I-2362J0D01*
G01X297872D01*
G03X295509Y476646I0J-2362D01*
G01Y429402D01*
X291572D01*
Y423890D01*
X295509D01*
Y416016D01*
X346691D01*
Y423890D01*
X350628D01*
Y429402D01*
X346691D01*
G01Y423890D02*
X295509D01*
G01X308646Y107528D02*
Y98472D01*
G01X302850Y118850D02*
X300882Y120819D01*
Y142866D01*
X311118D01*
Y120819D01*
X309150Y118850D01*
X302850D01*
G01X306000Y129087D02*
X303638Y131449D01*
X308362D01*
X306000Y129087D01*
G01X303638D02*
X308362D01*
G01X306000Y126331D02*
Y135386D01*
G01X308354Y216299D02*
X327646D01*
Y203701D01*
X308354D01*
Y216299D01*
G01X300600Y277834D02*
Y264434D01*
X308100D01*
Y277834D01*
X300600D01*
G01X313054Y325449D02*
Y314032D01*
X310691D01*
Y325449D01*
X313054D01*
G01X311656Y355866D02*
Y346811D01*
G01X340785Y388457D02*
G03I-19685J0D01*
G01X310470Y404992D02*
Y416016D01*
G01X326189Y69701D02*
X349811D01*
G01X325150Y89032D02*
X318850D01*
G01X325150Y88244D02*
X318850D01*
G01X325150Y87457D02*
X318850D01*
G01X325150Y85685D02*
Y96315D01*
G01X318850Y85685D02*
Y96315D01*
G01X326189Y82299D02*
X349811D01*
G01X318200Y114700D02*
Y101300D01*
X325700D01*
Y114700D01*
X318200D01*
G01X322220Y122126D02*
Y116220D01*
X349780D01*
Y122126D01*
G01X322220Y137874D02*
Y143780D01*
X349780D01*
Y137874D01*
G01X322220Y152126D02*
Y146220D01*
X349780D01*
Y152126D01*
G01X322220Y167874D02*
Y173780D01*
X349780D01*
Y167874D01*
G01X314300Y231200D02*
X327700D01*
Y238700D01*
X314300D01*
Y231200D01*
G01X335872Y281146D02*
Y261854D01*
X324061D01*
Y281146D01*
X335872D01*
G01X336069Y303146D02*
Y283854D01*
X323471D01*
Y303146D01*
X336069D01*
G01X324235Y305701D02*
X347857D01*
G01X324235Y318299D02*
X347857D01*
G01X314691Y339315D02*
Y328685D01*
G01X323467Y355866D02*
Y346811D01*
G01X326218Y407354D02*
Y416016D01*
G01X315982Y407354D02*
Y416016D01*
G01X340067Y107866D02*
Y98811D01*
G01X328256Y107866D02*
Y98811D01*
G01X336300Y175200D02*
X349700D01*
Y182700D01*
X336300D01*
Y175200D01*
G01X343709Y208016D02*
X332291D01*
Y209984D01*
X343709D01*
Y208016D01*
G01X331166Y224200D02*
X344566D01*
Y231700D01*
X331166D01*
Y224200D01*
G01X331935Y261854D02*
X335872Y265791D01*
G01X332723Y261854D02*
X335872Y265004D01*
G01X333510Y261854D02*
X335872Y264216D01*
G01X334298Y261854D02*
X335872Y263429D01*
G01X335085Y261854D02*
X335872Y262642D01*
G01X336648Y340551D02*
Y351968D01*
X339207D01*
Y340551D01*
X336648D01*
G01Y353551D02*
Y364968D01*
X339207D01*
Y353551D01*
X336648D01*
G01X331730Y404992D02*
Y416016D01*
G54D15*
G01X10977Y246110D02*
X11447Y245375D01*
X12073Y244955D01*
X12778Y244850D01*
X13405Y244955D01*
X14032Y245480D01*
X14423Y246110D01*
X14502Y246740D01*
X14345Y247475D01*
X13797Y248000D01*
X13248Y248210D01*
X12543D01*
G01X13248D02*
X13718Y248525D01*
X14110Y249050D01*
X14267Y249680D01*
X14110Y250310D01*
X13718Y250835D01*
X13013Y251150D01*
X12308Y251045D01*
X11603Y250625D01*
G01X17042Y251150D02*
X19000Y244850D01*
X20958Y251150D01*
G01X23577Y246110D02*
X24047Y245375D01*
X24673Y244955D01*
X25378Y244850D01*
X26005Y244955D01*
X26632Y245480D01*
X27023Y246110D01*
X27102Y246740D01*
X26945Y247475D01*
X26397Y248000D01*
X25848Y248210D01*
X25143D01*
G01X25848D02*
X26318Y248525D01*
X26710Y249050D01*
X26867Y249680D01*
X26710Y250310D01*
X26318Y250835D01*
X25613Y251150D01*
X24908Y251045D01*
X24203Y250625D01*
G01X11127Y259795D02*
X11597Y259270D01*
X12145Y258955D01*
X12850Y258850D01*
X13555Y259060D01*
X14103Y259480D01*
X14495Y260215D01*
X14573Y261055D01*
X14417Y261895D01*
X14025Y262420D01*
X13477Y262840D01*
X12928Y262945D01*
X12380Y262840D01*
X11675Y262420D01*
X11910Y265150D01*
X14025D01*
G01X17192D02*
X19150Y258850D01*
X21108Y265150D01*
G01X8977Y277110D02*
X9447Y276375D01*
X10073Y275955D01*
X10778Y275850D01*
X11405Y275955D01*
X12032Y276480D01*
X12423Y277110D01*
X12502Y277740D01*
X12345Y278475D01*
X11797Y279000D01*
X11248Y279210D01*
X10543D01*
G01X11248D02*
X11718Y279525D01*
X12110Y280050D01*
X12267Y280680D01*
X12110Y281310D01*
X11718Y281835D01*
X11013Y282150D01*
X10308Y282045D01*
X9603Y281625D01*
G01X15042Y282150D02*
X17000Y275850D01*
X18958Y282150D01*
G01X21577Y277110D02*
X22047Y276375D01*
X22673Y275955D01*
X23378Y275850D01*
X24005Y275955D01*
X24632Y276480D01*
X25023Y277110D01*
X25102Y277740D01*
X24945Y278475D01*
X24397Y279000D01*
X23848Y279210D01*
X23143D01*
G01X23848D02*
X24318Y279525D01*
X24710Y280050D01*
X24867Y280680D01*
X24710Y281310D01*
X24318Y281835D01*
X23613Y282150D01*
X22908Y282045D01*
X22203Y281625D01*
G01X12127Y299795D02*
X12597Y299270D01*
X13145Y298955D01*
X13850Y298850D01*
X14555Y299060D01*
X15103Y299480D01*
X15495Y300215D01*
X15573Y301055D01*
X15417Y301895D01*
X15025Y302420D01*
X14477Y302840D01*
X13928Y302945D01*
X13380Y302840D01*
X12675Y302420D01*
X12910Y305150D01*
X15025D01*
G01X18192D02*
X20150Y298850D01*
X22108Y305150D01*
G01X8682Y333950D02*
X10718D01*
G01X14277Y332795D02*
X14747Y332270D01*
X15295Y331955D01*
X16000Y331850D01*
X16705Y332060D01*
X17253Y332480D01*
X17645Y333215D01*
X17723Y334055D01*
X17567Y334895D01*
X17175Y335420D01*
X16627Y335840D01*
X16078Y335945D01*
X15530Y335840D01*
X14825Y335420D01*
X15060Y338150D01*
X17175D01*
G01X20342D02*
X22300Y331850D01*
X24258Y338150D01*
G01X9212Y377100D02*
X9682Y377730D01*
X10230Y378045D01*
X10857Y378150D01*
X11640Y377940D01*
X12188Y377415D01*
X12345Y376785D01*
X12267Y376155D01*
X11953Y375630D01*
X10387Y374580D01*
X9682Y373845D01*
X9212Y372795D01*
X9055Y371850D01*
X12345D01*
G01X17000Y378150D02*
X16373Y377940D01*
X15903Y377415D01*
X15590Y376785D01*
X15355Y375945D01*
X15277Y375000D01*
X15355Y374055D01*
X15590Y373215D01*
X15903Y372585D01*
X16373Y372060D01*
X17000Y371850D01*
X17627Y372060D01*
X18097Y372585D01*
X18410Y373215D01*
X18645Y374055D01*
X18723Y375000D01*
X18645Y375945D01*
X18410Y376785D01*
X18097Y377415D01*
X17627Y377940D01*
X17000Y378150D01*
G01X21342D02*
X23300Y371850D01*
X25258Y378150D01*
G54D16*
G01X58400Y254000D02*
X27400D01*
Y307900D01*
G01X58400Y385000D02*
X27400D01*
Y339100D01*
G01X209500Y76500D02*
Y147500D01*
G01X218000Y66000D02*
X352500D01*
G54D17*
G01X29565Y105874D02*
G03I-984J0D01*
G01X62136Y274906D02*
G03I-984J0D01*
G01X72116Y357791D02*
G03I-984J0D01*
G01X77597Y225224D02*
G03I-984J0D01*
G01X132136Y274906D02*
G03I-984J0D01*
G01X142116Y357791D02*
G03I-984J0D01*
G01X187187Y199126D02*
G03I-984J0D01*
G01X202136Y274906D02*
G03I-984J0D01*
G01X212116Y357791D02*
G03I-984J0D01*
G01X236693Y212362D02*
G03I-984J0D01*
G01X258693D02*
G03I-984J0D01*
G01X280693D02*
G03I-984J0D01*
G01X272136Y274906D02*
G03I-984J0D01*
G01X282116Y357791D02*
G03I-984J0D01*
G01X302693Y212362D02*
G03I-984J0D01*
G01X324693D02*
G03I-984J0D01*
G01X333116Y287791D02*
G03I-984J0D01*
M02*
