G04 ================== begin FILE IDENTIFICATION RECORD ==================*
G04 Layout Name:  E:/material/lool Inds Vibration/hardware/v2.0/pcb/vibration.brd*
G04 Film Name:    SILKSCREEN_BOTTOM*
G04 File Format:  Gerber RS274X*
G04 File Origin:  Cadence Allegro 16.6-2015-S065*
G04 Origin Date:  Sat Jul 02 00:47:26 2016*
G04 *
G04 Layer:  PACKAGE GEOMETRY/SILKSCREEN_BOTTOM*
G04 Layer:  BOARD GEOMETRY/SILKSCREEN_BOTTOM*
G04 *
G04 Offset:    (0.000 0.000)*
G04 Mirror:    No*
G04 Mode:      Positive*
G04 Rotation:  0*
G04 FullContactRelief:  No*
G04 UndefLineWidth:     1.000*
G04 ================== end FILE IDENTIFICATION RECORD ====================*
%FSLAX25Y25*MOIN*%
%IR0*IPPOS*OFA0.00000B0.00000*MIA0B0*SFA1.00000B1.00000*%
%ADD10C,.003937*%
%ADD11C,.009843*%
%ADD12C,.007874*%
G75*
%LPD*%
G75*
G54D10*
G01X18176Y93587D02*
X27624D01*
Y79413D01*
X18176D01*
Y93587D01*
G01X28006Y97677D02*
Y102323D01*
X18794D01*
Y97677D01*
X28006D01*
G01Y121677D02*
Y126323D01*
X18794D01*
Y121677D01*
X28006D01*
G01X28077Y79394D02*
X32723D01*
Y88606D01*
X28077D01*
Y79394D01*
G01X59077Y79386D02*
X63723D01*
Y88598D01*
X59077D01*
Y79386D01*
G01X72077D02*
X76723D01*
Y88598D01*
X72077D01*
Y79386D01*
G01X112023Y126214D02*
X107377D01*
Y117002D01*
X112023D01*
Y126214D01*
G01X345106Y333177D02*
Y337823D01*
X335894D01*
Y333177D01*
X345106D01*
G54D11*
G01X18800Y103300D02*
Y120600D01*
X33000D01*
Y103300D01*
X18800D01*
G01X17521Y106979D02*
G03I-492J0D01*
G54D12*
G01X25700Y78700D02*
Y65300D01*
X18200D01*
Y78700D01*
X25700D01*
M02*
