G04 ================== begin FILE IDENTIFICATION RECORD ==================*
G04 Layout Name:  E:/material/lool Inds Vibration/hardware/v2.0/pcb/vibration.brd*
G04 Film Name:    SILKSCREEN_TOP*
G04 File Format:  Gerber RS274X*
G04 File Origin:  Cadence Allegro 16.6-2015-S065*
G04 Origin Date:  Mon Jun 13 17:14:19 2016*
G04 *
G04 Layer:  PACKAGE GEOMETRY/SILKSCREEN_TOP*
G04 Layer:  BOARD GEOMETRY/SILKSCREEN_TOP*
G04 *
G04 Offset:    (0.000 0.000)*
G04 Mirror:    No*
G04 Mode:      Positive*
G04 Rotation:  0*
G04 FullContactRelief:  No*
G04 UndefLineWidth:     1.000*
G04 ================== end FILE IDENTIFICATION RECORD ====================*
%FSLAX25Y25*MOIN*%
%IR0*IPPOS*OFA0.00000B0.00000*MIA0B0*SFA1.00000B1.00000*%
%ADD10C,.004*%
%ADD11C,.008*%
%ADD12C,.003937*%
%ADD13C,.009843*%
%ADD14C,.007874*%
%ADD15C,.012*%
%ADD16C,.015*%
%ADD17C,.019685*%
G75*
%LPD*%
G75*
G36*
G01X15818Y318610D02*
G02X17066Y320672I597194J-360019D01*
G01X18196Y322531D01*
G02X18226Y322548I30J-18D01*
G02X18259Y322539I0J-68D01*
G02X18410Y322454I-8116J-14568D01*
G02X18587Y322350I-4258J-7441D01*
G02X18787Y322227I-7672J-12709D01*
G01X19300Y321906D01*
X18955Y321159D01*
G03X18805Y320823I14130J-6515D01*
G03X18639Y320431I25670J-11110D01*
G03X18482Y320045I25159J-10437D01*
G03X18362Y319730I10877J-4320D01*
G03X18227Y319325I7513J-2736D01*
G03X18164Y319040I1742J-531D01*
G03X18148Y318749I1814J-248D01*
G03X18170Y318321I8124J195D01*
G03X18315Y317281I8392J645D01*
G03X18643Y315848I30654J6263D01*
G03X19025Y314409I65860J16715D01*
G03X19232Y314133I455J126D01*
G03X19275Y314121I41J67D01*
G03X19341Y314128I-5J376D01*
G03X19418Y314149I-94J484D01*
G03X19494Y314183I-205J560D01*
G02X19813Y314186I163J-304D01*
G02X20110Y313915I-344J-673D01*
G02X20343Y313371I-1616J-1014D01*
G02X20475Y312621I-4929J-1255D01*
G03X20522Y312208I15612J1559D01*
G03X20566Y312048I565J71D01*
G03X20643Y311969I145J65D01*
G03X20783Y311929I190J399D01*
G03X21097Y312000I56J484D01*
G03X21323Y312256I-320J512D01*
G03X21456Y312729I-1354J635D01*
G03X21493Y313446I-6388J694D01*
G03X21469Y313989I-6566J-23D01*
G03X21397Y314417I-2698J-234D01*
G03X21264Y314799I-2202J-555D01*
G03X21053Y315194I-3114J-1410D01*
G02X20902Y315451I4663J2898D01*
G02X20841Y315609I573J314D01*
G02X20834Y315747I354J87D01*
G02X20875Y315917I887J-125D01*
G03X20947Y316328I-1221J426D01*
G03X20924Y316982I-7141J78D01*
G03X20839Y317643I-7023J-567D01*
G03X20698Y318105I-1972J-349D01*
G01X20512Y318525D01*
X20963Y318968D01*
G03X21156Y319171I-3061J3115D01*
G03X21365Y319415I-5585J4994D01*
G03X21558Y319660I-5586J4582D01*
G03X21699Y319866I-2409J1808D01*
G01X21810Y320043D01*
G02X21908Y320197I66477J-41882D01*
G01X21991Y320329D01*
G02X22008Y320354I502J-318D01*
G02X22029Y320357I12J-9D01*
G02X22180Y320244I-8455J-11351D01*
G02X22355Y320104I-3732J-4878D01*
G02X22559Y319932I-7807J-9462D01*
G03X23081Y319515I5894J6835D01*
G03X23636Y319134I5504J7435D01*
G03X24204Y318803I4747J7493D01*
G03X24768Y318533I3407J6379D01*
G02X24993Y318428I-1544J-3615D01*
G02X25178Y318323I-966J-1916D01*
G02X25314Y318228I-1018J-1601D01*
G02X25332Y318174I-32J-41D01*
G02X25225Y317964I-523J133D01*
G02X24872Y317556I-8343J6888D01*
G02X24395Y317062I-9278J8476D01*
G02X23802Y316499I-17641J17971D01*
G03X23114Y315811I7918J-8610D01*
G03X22720Y315264I2066J-1902D01*
G03X22520Y314717I1691J-932D01*
G03X22452Y314048I3307J-672D01*
G03X22457Y313792I6471J-7D01*
G03X22472Y313548I5309J207D01*
G03X22494Y313344I4852J411D01*
G03X22520Y313241I409J52D01*
G03X22572Y313175I142J58D01*
G03X22633Y313173I32J43D01*
G03X22723Y313254I-204J320D01*
G03X22908Y313489I-7691J6251D01*
G02X23396Y313978I2082J-1590D01*
G02X23964Y314282I1212J-1581D01*
G02X24545Y314368I526J-1537D01*
G02X25074Y314229I-42J-1234D01*
G03X25179Y314177I1455J2790D01*
G03X25277Y314133I981J2064D01*
G03X25360Y314100I876J2097D01*
G03X25398Y314093I39J103D01*
G03X25439Y314111I0J54D01*
G03X25629Y314324I-19767J17884D01*
G03X25846Y314577I-8595J7613D01*
G03X26093Y314877I-16104J13440D01*
G02X26670Y315553I11751J-9449D01*
G02X27229Y316122I7282J-6598D01*
G02X27717Y316549I6302J-6719D01*
G02X27971Y316639I254J-312D01*
G02X28112Y316600I0J-274D01*
G01X29724Y315631D01*
G02X31544Y314523I-116880J-194072D01*
G02X33669Y313207I-223277J-362984D01*
G01X39175Y309775D01*
X31965Y309752D01*
G02X28688Y309745I-5244J1618256D01*
G01X24781Y309742D01*
X20881Y309745D01*
G02X17634Y309752I1921J1576899D01*
G01X10514Y309775D01*
X14345Y316162D01*
G02X15818Y318610I1169952J-701986D01*
G37*
G36*
G01X27063Y336985D02*
G02X27166Y337134I3146J-2065D01*
G02X27254Y337252I5098J-3713D01*
G02X27275Y337254I11J-8D01*
G02X27481Y336969I-792J-792D01*
G01X29632Y332735D01*
X31803Y328455D01*
G02X31859Y328221I-461J-234D01*
G02X31782Y327864I-862J0D01*
G02X31551Y327488I-1629J741D01*
G02X31202Y327140I-1725J1380D01*
G02X30776Y326867I-1540J1931D01*
G02X29951Y326530I-2507J4962D01*
G02X28987Y326284I-2606J8213D01*
G02X27757Y326101I-2714J13978D01*
G02X26086Y325956I-4798J45814D01*
G03X25312Y325896I2591J-38072D01*
G03X24565Y325821I2952J-33323D01*
G03X23928Y325743I3381J-30383D01*
G03X23587Y325678I401J-3029D01*
G03X22890Y325455I1383J-5516D01*
G03X22161Y325126I2959J-7531D01*
G03X21502Y324746I3435J-6710D01*
G03X21023Y324366I1725J-2667D01*
G01X20562Y323922D01*
X20026Y324285D01*
G02X19824Y324429I3292J4846D01*
G02X19659Y324561I1811J2439D01*
G02X19534Y324673I2397J2796D01*
G02X19528Y324712I22J23D01*
G02X19603Y324836I6753J-3971D01*
G01X23113Y330557D01*
X26423Y335952D01*
G02X26947Y336802I348374J-213779D01*
G02X27063Y336985I6544J-4036D01*
G37*
G36*
G01X34423Y322217D02*
G02X34612Y322282I1363J-3633D01*
G02X34771Y322329I1141J-3600D01*
G02X34845Y322334I52J-193D01*
G02X34963Y322256I-17J-153D01*
G01X37717Y317246D01*
X40475Y312226D01*
G02X40460Y312118I-80J-44D01*
G02X40437Y312115I-13J13D01*
G01X38969Y312958D01*
G02X37344Y313895I253570J441564D01*
G02X35420Y315013I503285J868928D01*
G02X32594Y316664I469353J806215D01*
G02X31286Y317456I28463J48499D01*
G02X30502Y317960I17945J28764D01*
G02X30405Y318142I121J182D01*
G02X30438Y318265I242J0D01*
G02X30540Y318397I569J-335D01*
G02X30724Y318554I1112J-1110D01*
G02X31029Y318767I4885J-6676D01*
G03X31644Y319239I-3194J4805D01*
G03X32261Y319837I-5719J6506D01*
G03X32825Y320505I-6538J6096D01*
G03X33285Y321186I-5558J4248D01*
G02X33555Y321623I11289J-6689D01*
G02X33732Y321844I1161J-751D01*
G02X33925Y321991I617J-610D01*
G02X34223Y322137I1447J-2575D01*
G02X34423Y322217I2058J-4870D01*
G37*
G36*
G01X196818Y23733D02*
X209800D01*
Y20532D01*
X203333Y20555D01*
X196867Y20578D01*
X196842Y22156D01*
X196818Y23733D01*
G37*
G36*
G01X196019Y42961D02*
G02X196188Y42878I-47J-309D01*
G02X196591Y42461I-5146J-5389D01*
G02X197812Y41093I-324739J-290895D01*
G01X198535Y40279D01*
X199150Y39586D01*
X199698Y38969D01*
X199729Y38935D01*
G03X199742Y38940I6J5D01*
G03X199748Y39035I-1712J139D01*
G03X199747Y39168I-2279J58D01*
G03X199739Y39335I-5586J-187D01*
G03X199715Y39613I-5809J-365D01*
G03X199675Y39721I-240J-27D01*
G03X199596Y39776I-111J-75D01*
G03X199422Y39806I-290J-1174D01*
G02X199261Y39830I138J1429D01*
G02X199183Y39873I33J154D01*
G02X199144Y39949I96J96D01*
G02X199133Y40094I970J145D01*
G02X199143Y40240I1132J0D01*
G02X199178Y40312I120J-16D01*
G02X199251Y40346I88J-89D01*
G02X199400Y40356I150J-1215D01*
G03X199532Y40364I1J1078D01*
G03X199610Y40392I-23J182D01*
G03X199652Y40446I-58J88D01*
G03X199667Y40530I-241J85D01*
G02X199728Y40735I369J0D01*
G02X199948Y41020I2155J-1432D01*
G02X200211Y41276I1908J-1693D01*
G02X200427Y41387I348J-412D01*
G03X200512Y41421I-81J324D01*
G03X200584Y41478I-162J282D01*
G03X200636Y41550I-220J212D01*
G03X200662Y41631I-228J117D01*
G02X200695Y41729I281J-40D01*
G02X200758Y41791I136J-76D01*
G02X200872Y41828I164J-313D01*
G02X201080Y41850I415J-2876D01*
G02X201234Y41855I128J-1798D01*
G02X201372Y41845I-16J-1191D01*
G02X201481Y41824I-124J-947D01*
G02X201524Y41792I-18J-70D01*
G03X201670Y41714I139J86D01*
G03X202183Y41751I-305J7832D01*
G03X202691Y41820I-856J8179D01*
G03X202778Y41923I-17J103D01*
G02X202823Y41985I64J0D01*
G02X202988Y42020I273J-882D01*
G02X203276Y42039I345J-2912D01*
G02X203800Y42044I523J-27339D01*
G02X204401Y42040I1J-41863D01*
G02X204656Y42019I-26J-1845D01*
G02X204777Y41971I-46J-296D01*
G02X204822Y41887I-57J-84D01*
G03X204859Y41801I118J0D01*
G03X204966Y41731I251J268D01*
G03X205168Y41664I504J1180D01*
G03X205538Y41581I2668J11039D01*
G02X205842Y41510I-1233J-5957D01*
G02X206162Y41420I-1990J-7632D01*
G02X206453Y41324I-2097J-6841D01*
G02X206656Y41239I-665J-1879D01*
G03X206854Y41150I1552J3208D01*
G03X206991Y41110I266J647D01*
G03X207088Y41109I52J276D01*
G03X207158Y41144I-20J126D01*
G02X207308Y41226I215J-215D01*
G02X207517Y41238I140J-640D01*
G02X207729Y41182I-76J-716D01*
G02X207889Y41067I-187J-428D01*
G02X208005Y40859I-399J-361D01*
G02X208038Y40597I-765J-228D01*
G02X207983Y40345I-763J33D01*
G02X207850Y40164I-415J167D01*
G03X207780Y40100I511J-631D01*
G03X207721Y40031I495J-484D01*
G03X207679Y39966I443J-331D01*
G03X207667Y39919I86J-47D01*
G02X207650Y39882I-50J0D01*
G02X207601Y39851I-121J135D01*
G02X207530Y39829I-123J282D01*
G02X207444Y39822I-85J506D01*
G03X207331Y39812I0J-624D01*
G03X207266Y39777I22J-119D01*
G03X207232Y39711I90J-88D01*
G03X207222Y39594I681J-117D01*
G03X207230Y39494I669J0D01*
G03X207254Y39429I165J25D01*
G03X207295Y39397I67J43D01*
G03X207350Y39394I33J95D01*
G03X207434Y39440I-37J167D01*
G03X207958Y39974I-107871J106213D01*
G03X208555Y40597I-36744J35836D01*
G03X209239Y41331I-68114J64213D01*
G02X210404Y42587I287472J-265283D01*
G02X210775Y42952I4294J-3997D01*
G02X210938Y43019I176J-196D01*
G02X211029Y42940I4J-87D01*
G02X211026Y42767I-752J-73D01*
G02X210980Y42621I-452J61D01*
G02X210875Y42462I-739J376D01*
G02X210669Y42232I-4021J3390D01*
G03X210450Y42000I39586J-37581D01*
G01X210063Y41587D01*
X209612Y41104D01*
X209151Y40610D01*
X208022Y39398D01*
Y37778D01*
X207064D01*
X206999Y36869D01*
G02X206961Y36372I-83139J5948D01*
G01X206896Y35536D01*
X206819Y34575D01*
X206741Y33607D01*
X206548Y31253D01*
X208352Y29230D01*
G02X209043Y28449I-104028J-92731D01*
G02X209626Y27777I-55290J-48556D01*
G02X210135Y27182I-270400J-231754D01*
G02X210156Y27126I-66J-57D01*
G02X210147Y27087I-91J0D01*
G02X210119Y27038I-332J156D01*
G02X210079Y26986I-374J251D01*
G02X210031Y26941I-347J314D01*
G02X209918Y26938I-58J70D01*
G02X209675Y27146I1734J2279D01*
G02X209294Y27536I5394J5653D01*
G02X208599Y28308I64812J59057D01*
G03X208094Y28871I-90202J-80251D01*
G03X207662Y29346I-46708J-42083D01*
G01X207276Y29765D01*
G03X207247Y29778I-29J-27D01*
G03X207233Y29765I0J-14D01*
G03X207232Y29712I403J-31D01*
G03X207241Y29639I606J34D01*
G03X207260Y29552I1257J225D01*
G02X207266Y29114I-928J-233D01*
G02X207084Y28635I-1705J375D01*
G02X206761Y28214I-1628J912D01*
G02X206358Y27945I-921J941D01*
G02X205889Y27838I-523J1223D01*
G02X205403Y27903I-57J1418D01*
G02X204969Y28129I428J1353D01*
G02X204646Y28486I808J1056D01*
G01X204452Y28800D01*
X201711D01*
Y27822D01*
X200911D01*
Y28311D01*
G03X200905Y28499I-2741J0D01*
G03X200885Y28656I-1425J-98D01*
G03X200857Y28774I-1103J-200D01*
G03X200822Y28800I-35J-10D01*
G02X200787Y28823I0J38D01*
G02X200757Y28911I540J234D01*
G02X200735Y29033I851J217D01*
G02X200726Y29178I1627J178D01*
G03X200716Y29378I-3607J-73D01*
G03X200690Y29692I-20507J-1548D01*
G03X200655Y30047I-22981J-2099D01*
G03X200615Y30396I-21685J-2318D01*
G01X200511Y31236D01*
X198477Y29037D01*
G02X197202Y27665I-270794J250430D01*
G02X196714Y27177I-7472J6980D01*
G02X196442Y26969I-1169J1250D01*
G02X196282Y26984I-70J114D01*
G02X196255Y27144I88J97D01*
G02X196457Y27447I1744J-942D01*
G02X196936Y28004I9035J-7297D01*
G02X198300Y29483I318233J-292047D01*
G03X199728Y31031I-344331J318999D01*
G03X200192Y31575I-7420J6811D01*
G03X200391Y31895I-1277J1015D01*
G03X200430Y32163I-419J198D01*
G02X200402Y32386I4597J701D01*
G02X200329Y33098I277634J28692D01*
G02X200245Y33946I210241J21159D01*
G02X200156Y34889I321596J31063D01*
G03X200065Y35842I-284435J-26649D01*
G03X199978Y36720I-205443J-19930D01*
G03X199902Y37456I-222014J-22490D01*
G03X199866Y37753I-8287J-866D01*
G03X199762Y38096I-1156J-163D01*
G03X199545Y38450I-1877J-903D01*
G03X199096Y39000I-7804J-5911D01*
G03X197867Y40392I-235780J-207107D01*
G02X196721Y41690I193068J171625D01*
G02X196240Y42272I9334J8186D01*
G02X196002Y42629I2425J1879D01*
G02X195933Y42887I452J259D01*
G02X196019Y42961I74J0D01*
G37*
G36*
G01X218820Y31486D02*
G02X218853Y31506I472J-755D01*
G02X218882Y31521I520J-922D01*
G02X218892Y31523I10J-20D01*
G02X218926Y31489I0J-35D01*
G02X218937Y30746I-175136J-2800D01*
G02Y30065I-29384J-341D01*
G02X218914Y29625I-5467J63D01*
G02X218857Y29289I-2258J208D01*
G02X218750Y28964I-2221J550D01*
G02X218581Y28619I-2749J1137D01*
G02X218333Y28222I-5685J3266D01*
G01X218263Y28118D01*
G02X218201Y28025I-38311J25903D01*
G01X218148Y27948D01*
G02X218134Y27928I-531J363D01*
G03X218131Y27905I18J-13D01*
G03X218170Y27826I1806J833D01*
G03X218227Y27722I1815J939D01*
G03X218311Y27585I5775J3419D01*
G02X218393Y27453I-48995J-30648D01*
G02X218476Y27318I-53593J-33291D01*
G02X218550Y27199I-47670J-29464D01*
G02X218598Y27121I-9005J-5537D01*
G01X218688Y26972D01*
X218620Y26916D01*
G02X218592Y26895I-360J440D01*
G02X218565Y26877I-252J350D01*
G02X218542Y26864I-200J327D01*
G02X218529Y26861I-14J26D01*
G02X218515Y26868I0J17D01*
G02X218421Y27007I27820J18801D01*
G02X218316Y27168I7741J5181D01*
G02X218195Y27360I14908J9530D01*
G03X218046Y27596I-16319J-10136D01*
G03X217941Y27751I-3455J-2218D01*
G03X217864Y27855I-2078J-1469D01*
G03X217820Y27890I-94J-74D01*
G03X217781Y27906I-217J-468D01*
G03X217703Y27934I-2330J-6310D01*
G03X217609Y27967I-2379J-6692D01*
G03X217511Y27999I-2768J-8158D01*
G02X216870Y28275I1193J3656D01*
G02X216340Y28646I1367J2521D01*
G02X215925Y29111I1745J1977D01*
G02X215626Y29664I2236J1564D01*
G02X215551Y29868I3775J1509D01*
G02X215493Y30060I2735J924D01*
G02X215452Y30243I2424J636D01*
G02X215428Y30419I2049J378D01*
G01X215409Y30613D01*
X215480Y30599D01*
G02X215528Y30580I-29J-146D01*
G02X215771Y30430I-23981J-38838D01*
G02X216052Y30251I-11357J-18159D01*
G02X216372Y30041I-20194J-31170D01*
G03X216918Y29684I30072J45399D01*
G03X217276Y29463I5403J8376D01*
G03X217525Y29325I3030J5160D01*
G03X217639Y29297I114J217D01*
G03X217706Y29316I0J127D01*
G03X217755Y29368I-73J117D01*
G03X217794Y29469I-374J201D01*
G03X217834Y29660I-3752J905D01*
G02X217986Y30248I4532J-854D01*
G02X218205Y30765I3194J-1051D01*
G02X218476Y31180I2338J-1232D01*
G02X218784Y31463I1060J-844D01*
G02X218820Y31486I766J-1150D01*
G37*
G36*
G01X219624Y29113D02*
X219693Y29047D01*
G02X219773Y28945I-320J-334D01*
G02X219869Y28764I-2301J-1335D01*
G02X219956Y28564I-2427J-1168D01*
G02X220009Y28390I-1236J-476D01*
G02X220033Y28251I-1071J-251D01*
G02X220045Y28073I-2710J-277D01*
G02X220051Y27792I-8764J-318D01*
G02X220052Y27223I-119815J-495D01*
G02X220048Y26565I-59609J25D01*
G02X220034Y26196I-6748J78D01*
G02X220005Y25950I-2531J168D01*
G02X219954Y25753I-1128J187D01*
G03X219938Y25701I672J-238D01*
G03X219930Y25659I270J-74D01*
G03X219930Y25624I172J-19D01*
G03X219937Y25597I81J7D01*
G03X219957Y25566I120J56D01*
G03X220070Y25437I19076J16666D01*
G03X220205Y25287I10273J9102D01*
G03X220361Y25118I17085J15594D01*
G01X220763Y24686D01*
X220648Y24625D01*
G02X220603Y24601I-2019J3738D01*
G02X220564Y24581I-1118J2132D01*
G02X220531Y24564I-2466J4905D01*
G02X220524Y24562I-6J13D01*
G02X220519Y24565I0J8D01*
G01X220399Y24697D01*
G02X220267Y24845I22278J20105D01*
G02X220111Y25020I43477J38707D01*
G01X219707Y25479D01*
X219598Y25462D01*
G02X219530Y25455I-92J600D01*
G02X219363Y25450I-580J14729D01*
G02X219165Y25445I-395J13973D01*
G02X218951Y25444I-259J19095D01*
G02X218640Y25445I-73J25750D01*
G02X218461Y25452I31J3158D01*
G02X218321Y25467I107J1626D01*
G02X218166Y25496I394J2561D01*
G02X218061Y25521I487J2250D01*
G02X217951Y25553I778J2916D01*
G02X217850Y25586I806J2622D01*
G02X217779Y25614I254J728D01*
G02X217427Y25835I713J1529D01*
G02X217012Y26210I3420J4205D01*
G02X216630Y26634I3893J3886D01*
G02X216382Y27014I1736J1407D01*
G02X216325Y27129I2548J1320D01*
G02X216299Y27203I391J180D01*
G02X216293Y27260I186J47D01*
G02X216305Y27314I176J-8D01*
G02X216380Y27364I72J-28D01*
G02X216632Y27342I-94J-2538D01*
G02X216934Y27282I-360J-2613D01*
G02X217239Y27186I-766J-2953D01*
G02X217410Y27112I-712J-1899D01*
G02X217688Y26975I-6137J-12698D01*
G02X217961Y26832I-6718J-13143D01*
G02X218105Y26743I-734J-1365D01*
G03X218315Y26627I697J1014D01*
G03X218633Y26503I1905J4413D01*
G03X218950Y26402I2047J5853D01*
G03X219088Y26399I74J254D01*
G03X219133Y26434I-17J69D01*
G03X219158Y26507I-194J107D01*
G03X219172Y26655I-1309J200D01*
G03X219186Y27035I-39662J1589D01*
G02X219226Y27761I14236J-434D01*
G02X219302Y28324I5377J-439D01*
G02X219413Y28749I3195J-604D01*
G02X219564Y29034I932J-311D01*
G01X219624Y29113D01*
G37*
G36*
G01X221076Y27002D02*
G02X221104Y27038I488J-346D01*
G02X221128Y27065I478J-396D01*
G02X221139Y27070I12J-11D01*
G02X221174Y27055I0J-47D01*
G02X221301Y26917I-7743J-7283D01*
G02X221436Y26763I-3615J-3283D01*
G02X221561Y26606I-3460J-2884D01*
G02X221743Y26349I-3560J-2711D01*
G02X221899Y26089I-3197J-2095D01*
G02X222027Y25829I-3076J-1684D01*
G02X222128Y25570I-2673J-1188D01*
G02X222193Y25350I-3167J-1061D01*
G02X222229Y25167I-1447J-377D01*
G02X222252Y24924I-3329J-434D01*
G02X222278Y24419I-49854J-2831D01*
G03X222292Y24134I59019J2753D01*
G03X222306Y23870I43020J2203D01*
G03X222319Y23649I46010J2640D01*
G03X222327Y23559I1797J114D01*
G01X222343Y23417D01*
X222716Y23118D01*
G02X222963Y22918I-30853J-38421D01*
G02X223033Y22852I-470J-577D01*
G02X223047Y22816I-37J-35D01*
G02X223029Y22787I-34J1D01*
G02X223004Y22776I-83J159D01*
G02X222978Y22770I-52J151D01*
G02X222956Y22768I-21J124D01*
G02X222941Y22772I1J31D01*
G02X222920Y22784I458J800D01*
G01X222827Y22841D01*
X222718Y22908D01*
X222594Y22984D01*
X222276Y23180D01*
X221879Y23180D01*
G02X221535Y23186I9J11310D01*
G02X221172Y23202I442J14066D01*
G02X220843Y23225I724J12694D01*
G02X220615Y23252I257J3074D01*
G02X220241Y23354I284J1787D01*
G02X219723Y23578I2839J7279D01*
G02X219201Y23850I3415J7176D01*
G02X218803Y24115I1742J3054D01*
G02X218686Y24215I861J1123D01*
G02X218583Y24325I889J929D01*
G02X218508Y24426I967J798D01*
G02X218508Y24472I36J24D01*
G02X218518Y24483I31J-19D01*
G02X218543Y24500I371J-516D01*
G02X218576Y24520I362J-561D01*
G02X218612Y24539I445J-785D01*
G02X218669Y24563I163J-319D01*
G02X218731Y24576I120J-388D01*
G02X218811Y24584I106J-733D01*
G02X218932Y24586I118J-3466D01*
G02X219382Y24568I-6J-5807D01*
G02X219807Y24515I-374J-4747D01*
G02X220206Y24428I-727J-4270D01*
G02X220579Y24306I-952J-3536D01*
G03X220849Y24207I2394J6172D01*
G03X221055Y24149I668J1972D01*
G03X221217Y24124I262J1154D01*
G03X221347Y24131I40J470D01*
G03X221433Y24159I-68J353D01*
G03X221467Y24203I-27J56D01*
G03X221457Y24265I-87J18D01*
G03X221393Y24357I-633J-369D01*
G02X221188Y24655I1766J1433D01*
G02X221005Y25018I3145J1813D01*
G02X220865Y25396I3292J1435D01*
G02X220790Y25740I2008J618D01*
G02X220780Y26041I1502J198D01*
G02X220827Y26377I2415J-165D01*
G02X220920Y26699I2329J-493D01*
G02X221048Y26960I1268J-462D01*
G02X221076Y27002I829J-528D01*
G37*
G36*
G01X216529Y37256D02*
G02X216558Y37259I16J-12D01*
G02X216610Y37205I-252J-293D01*
G02X216830Y36926I-62938J-49743D01*
G02X217047Y36631I-4726J-3701D01*
G02X217163Y36419I-992J-683D01*
G02X217249Y36163I-1598J-681D01*
G02X217369Y35660I-19009J-4786D01*
G03X217403Y35521I4155J932D01*
G03X217429Y35447I441J115D01*
G03X217464Y35390I246J112D01*
G03X217521Y35326I608J485D01*
G03X217571Y35279I758J757D01*
G03X217608Y35252I162J183D01*
G03X217639Y35240I55J94D01*
G03X217665Y35241I11J45D01*
G03X217690Y35255I-29J84D01*
G03X217747Y35301I-1518J1935D01*
G03X217814Y35359I-1482J1772D01*
G03X217884Y35425I-2208J2447D01*
G02X218096Y35624I12399J-12948D01*
G02X218264Y35775I4593J-4958D01*
G02X218417Y35901I3247J-3750D01*
G02X218576Y36023I3232J-4050D01*
G02X218904Y36243I2577J-3497D01*
G02X219179Y36375I822J-1359D01*
G02X219376Y36414I224J-610D01*
G02X219467Y36350I4J-92D01*
G02X219463Y36206I-212J-67D01*
G02X219324Y35860I-6045J2233D01*
G02X219152Y35506I-4484J1959D01*
G02X218981Y35238I-1844J989D01*
G02X218683Y34894I-2607J1958D01*
G02X218315Y34564I-3202J3194D01*
G02X217901Y34266I-3001J3732D01*
G02X217466Y34020I-2413J3757D01*
G01X217228Y33902D01*
X217228Y33442D01*
X217228Y32982D01*
X217155Y32968D01*
G02X217070Y32966I-47J235D01*
G02X217031Y33002I8J47D01*
G02X217019Y33101I412J102D01*
G02X217017Y33524I61585J415D01*
G03X217013Y33955I-22273J-2D01*
G03X216992Y34130I-880J-17D01*
G03X216938Y34259I-387J-86D01*
G03X216815Y34426I-1496J-970D01*
G02X216660Y34649I1256J1039D01*
G02X216536Y34905I1688J976D01*
G02X216444Y35192I2043J813D01*
G02X216385Y35508I2773J683D01*
G02X216361Y35885I2928J379D01*
G02X216377Y36346I6489J3D01*
G02X216426Y36811I6599J-465D01*
G02X216505Y37204I3542J-504D01*
G02X216529Y37256I146J-38D01*
G37*
G36*
G01X218704Y34028D02*
G02X218773Y34067I590J-971D01*
G02X218832Y34095I469J-909D01*
G02X218865Y34102I32J-74D01*
G01X218923D01*
X218908Y33826D01*
G02X218872Y33463I-4307J238D01*
G02X218808Y33147I-2629J370D01*
G02X218705Y32838I-2623J702D01*
G02X218552Y32496I-4370J1754D01*
G02X218432Y32272I-3686J1830D01*
G02X218298Y32057I-3497J2015D01*
G02X218147Y31843I-3610J2394D01*
G02X217973Y31623I-4552J3432D01*
G02X217834Y31468I-2269J1893D01*
G02X217619Y31250I-9428J9071D01*
G02X217403Y31040I-10013J10083D01*
G02X217277Y30932I-1041J1095D01*
G01X217197Y30871D01*
X217266Y30364D01*
G02X217311Y30024I-24877J-3420D01*
G02X217317Y29887I-921J-114D01*
G02X217298Y29819I-143J4D01*
G02X217252Y29786I-58J34D01*
G02X217194Y29787I-26J146D01*
G02X217145Y29811I25J113D01*
G02X217104Y29860I112J136D01*
G02X217068Y29937I457J262D01*
G02X217028Y30066I1160J433D01*
G02X216953Y30369I25903J6565D01*
G02X216881Y30676I20459J4932D01*
G02X216843Y30871I3541J798D01*
G03X216835Y30904I-287J-48D01*
G03X216824Y30935I-215J-63D01*
G03X216811Y30958I-155J-71D01*
G03X216798Y30968I-22J-15D01*
G02X216729Y31008I91J237D01*
G02X216556Y31152I6438J7912D01*
G02X216377Y31310I4456J5236D01*
G02X216233Y31449I2328J2549D01*
G02X215861Y31909I2302J2245D01*
G02X215604Y32403I2115J1412D01*
G02X215463Y32937I2332J903D01*
G02X215433Y33516I2970J442D01*
G02X215445Y33720I7490J-341D01*
G02X215461Y33882I3040J-220D01*
G02X215480Y34006I2817J-357D01*
G02X215500Y34046I72J-13D01*
G02X215532Y34050I19J-19D01*
G02X215654Y33984I-1556J-2997D01*
G02X215793Y33898I-1164J-2036D01*
G02X215937Y33796I-1739J-2601D01*
G02X216115Y33641I-1036J-1375D01*
G02X216298Y33442I-2053J-2064D01*
G02X216504Y33176I-3668J-3059D01*
G02X216761Y32807I-12035J-8674D01*
G03X216872Y32646I9904J6696D01*
G03X216972Y32507I5821J4072D01*
G03X217059Y32391I9771J7194D01*
G03X217084Y32369I62J47D01*
G03X217141Y32361I41J76D01*
G03X217200Y32389I-25J126D01*
G03X217261Y32459I-207J243D01*
G03X217330Y32578I-1163J748D01*
G02X217554Y32940I2284J-1167D01*
G02X217867Y33316I3573J-2652D01*
G02X218236Y33674I3570J-3314D01*
G02X218634Y33982I2913J-3344D01*
G02X218704Y34028I832J-1208D01*
G37*
G36*
G01X218337Y39943D02*
G02X218380Y40001I1605J-1135D01*
G02X218418Y40050I3039J-2318D01*
G02X218428Y40055I10J-8D01*
G02X218437Y40052I0J-18D01*
G02X218456Y40039I-205J-332D01*
G02X218479Y40022I-234J-331D01*
G02X218503Y40002I-369J-457D01*
G02X218538Y39952I-95J-105D01*
G02X218561Y39878I-347J-149D01*
G02X218583Y39743I-1697J-339D01*
G02X218621Y39410I-44388J-5281D01*
G02X218682Y38858I-255259J-28370D01*
G02X218710Y38581I-19319J-2109D01*
G02X218724Y38407I-6090J-574D01*
G02X218728Y38276I-1991J-131D01*
G03X218739Y38123I1109J0D01*
G03X218776Y38037I170J24D01*
G03X218845Y38000I82J67D01*
G03X218953Y38003I44J348D01*
G03X219067Y38047I-62J334D01*
G03X219260Y38173I-1851J3030D01*
G03X219475Y38336I-2248J3196D01*
G03X219684Y38517I-2732J3363D01*
G02X219881Y38686I2318J-2508D01*
G02X220048Y38798I798J-1006D01*
G02X220204Y38867I426J-756D01*
G02X220363Y38900I224J-682D01*
G02X220472Y38901I67J-736D01*
G02X220574Y38886I-35J-602D01*
G02X220652Y38860I-98J-419D01*
G02X220673Y38827I-15J-33D01*
G02X220670Y38808I-51J0D01*
G02X220647Y38752I-2764J1098D01*
G02X220618Y38686I-2141J897D01*
G02X220583Y38612I-3289J1504D01*
G02X220327Y38207I-1932J936D01*
G02X219949Y37799I-3010J2409D01*
G02X219501Y37435I-2807J3003D01*
G02X219032Y37162I-1844J2633D01*
G02X218827Y37073I-1600J3381D01*
G02X218605Y36990I-1745J4345D01*
G02X218391Y36923I-1395J4053D01*
G02X218215Y36881I-516J1799D01*
G01X218063Y36853D01*
X217944Y36459D01*
X217826Y36066D01*
X217736Y36078D01*
G02X217701Y36083I104J771D01*
G02X217669Y36090I96J529D01*
G02X217643Y36097I128J521D01*
G02X217633Y36103I7J22D01*
G02X217629Y36115I10J10D01*
G02X217650Y36234I20115J-3484D01*
G02X217676Y36370I6137J-1098D01*
G02X217710Y36530I11526J-2338D01*
G03X217764Y36791I-22275J4825D01*
G03X217783Y36909I-1196J245D01*
G03X217784Y37000I-494J51D01*
G03X217770Y37110I-1158J-91D01*
G02X217728Y37361I12707J2242D01*
G02X217706Y37534I2954J462D01*
G02X217696Y37698I2495J242D01*
G02X217692Y37910I7031J222D01*
G02X217702Y38196I4196J4D01*
G02X217731Y38455I2865J-193D01*
G02X217784Y38711I2841J-452D01*
G02X217864Y38986I4104J-1041D01*
G02X217950Y39225I3760J-1232D01*
G02X218051Y39455I3498J-1400D01*
G02X218165Y39672I3237J-1553D01*
G02X218289Y39873I2695J-1527D01*
G02X218337Y39943I2967J-1992D01*
G37*
G36*
G01X229856Y23971D02*
G02X229916Y23972I38J-306D01*
G02X229943Y23961I-3J-46D01*
G02X229955Y23936I-22J-25D01*
G02X229943Y23847I-339J0D01*
G02X229885Y23644I-7370J2002D01*
G02X229817Y23433I-5654J1706D01*
G02X229753Y23268I-2280J783D01*
G02X229446Y22701I-3204J1369D01*
G02X229019Y22155I-3876J2590D01*
G02X228500Y21660I-3676J3343D01*
G02X227918Y21249I-3081J3747D01*
G02X227723Y21143I-1361J2262D01*
G02X227553Y21074I-554J1126D01*
G02X227389Y21036I-314J976D01*
G02X227214Y21023I-174J1181D01*
G02X227028Y21036I0J1363D01*
G02X226879Y21076I85J615D01*
G02X226720Y21159I359J887D01*
G02X226484Y21319I3076J4771D01*
G02X226230Y21504I19336J26907D01*
G02X226100Y21604I1702J2325D01*
G02X225987Y21704I1392J1688D01*
G02X225813Y21872I9193J9707D01*
G02X225556Y22155I2337J2379D01*
G02X225338Y22462I2442J1974D01*
G02X225164Y22781I2483J1555D01*
G02X225042Y23103I2134J993D01*
G02X225012Y23218I1722J513D01*
G02X224991Y23329I1399J318D01*
G02X224978Y23452I1792J260D01*
G02X224968Y23608I4459J341D01*
G01X224956Y23907D01*
X225094Y23892D01*
G02X225331Y23844I-151J-1358D01*
G02X225587Y23750I-619J-2084D01*
G02X225841Y23620I-958J-2182D01*
G02X226076Y23461I-1169J-1977D01*
G02X226232Y23325I-1117J-1449D01*
G02X226437Y23118I-4776J-4918D01*
G02X226639Y22896I-5064J-4794D01*
G02X226791Y22705I-2329J-2021D01*
G02X226861Y22607I-2765J-2037D01*
G02X226945Y22482I-7022J-4813D01*
G02X227029Y22352I-7390J-4872D01*
G02X227101Y22236I-4390J-2787D01*
G03X227249Y21990I29737J17791D01*
G03X227304Y21912I616J375D01*
G03X227346Y21879I89J72D01*
G03X227396Y21872I39J86D01*
G03X227434Y21886I-9J80D01*
G03X227470Y21921I-103J143D01*
G03X227514Y21986I-438J342D01*
G03X227585Y22113I-4878J2804D01*
G02X227851Y22555I4863J-2631D01*
G02X228145Y22947I3746J-2504D01*
G02X228460Y23281I3043J-2552D01*
G02X228791Y23551I2025J-2145D01*
G02X229014Y23691I1413J-2012D01*
G02X229260Y23811I1366J-2471D01*
G02X229502Y23902I1023J-2366D01*
G02X229717Y23951I414J-1303D01*
G02X229856Y23971I1027J-6995D01*
G37*
G36*
G01X222847Y25502D02*
G02X223056Y25405I-243J-790D01*
G02X223331Y25189I-1074J-1653D01*
G02X223647Y24866I-3681J-3919D01*
G02X224099Y24282I-3690J-3321D01*
G02X224423Y23676I-3102J-2049D01*
G02X224626Y23030I-3314J-1396D01*
G02X224716Y22327I-4231J-903D01*
G03X224723Y22218I4435J205D01*
G03X224731Y22120I2888J204D01*
G03X224741Y22038I3521J373D01*
G03X224749Y22012I71J9D01*
G03X224784Y21984I56J31D01*
G03X224980Y21915I3886J10837D01*
G03X225251Y21828I3170J9375D01*
G03X225657Y21705I13460J43923D01*
G01X225825Y21656D01*
X225802Y21557D01*
G02X225793Y21519I-1589J355D01*
G02X225784Y21485I-975J244D01*
G02X225776Y21457I-1338J385D01*
G02X225772Y21450I-17J5D01*
G02X225757Y21446I-11J11D01*
G02X225504Y21511I35451J138143D01*
G02X225224Y21585I5574J21598D01*
G02X224907Y21673I9845J36161D01*
G01X224699Y21732D01*
X224523Y21680D01*
G02X224116Y21580I-1216J4094D01*
G02X223728Y21529I-613J3183D01*
G02X223326Y21525I-239J3432D01*
G02X222877Y21565I257J5442D01*
G02X222126Y21711I794J6065D01*
G02X221479Y21941I1008J3865D01*
G02X221029Y22204I1063J2335D01*
G02X220942Y22446I136J186D01*
G02X221026Y22542I137J-34D01*
G02X221262Y22614I528J-1316D01*
G02X221574Y22655I420J-1987D01*
G02X221927Y22654I167J-3162D01*
G02X222059Y22645I-391J-6667D01*
G02X222251Y22629I-2293J-29019D01*
G02X222463Y22610I-2751J-32259D01*
G02X222666Y22591I-2484J-27032D01*
G03X223042Y22560I1067J10729D01*
G03X223338Y22552I263J4105D01*
G03X223560Y22561I-25J3238D01*
G03X223641Y22599I-10J129D01*
G03X223664Y22654I-55J55D01*
G03X223646Y22724I-147J-2D01*
G03X223575Y22826I-539J-298D01*
G03X223416Y23005I-5325J-4564D01*
G02X223318Y23115I3822J3507D01*
G02X223218Y23233I4733J4106D01*
G02X223131Y23342I4347J3586D01*
G02X223074Y23420I1056J827D01*
G02X222875Y23787I1809J1219D01*
G02X222742Y24197I2260J957D01*
G02X222679Y24641I2596J595D01*
G02X222687Y25109I3165J179D01*
G02X222699Y25229I5218J-475D01*
G02X222714Y25337I3481J-399D01*
G02X222728Y25427I4081J-599D01*
G02X222738Y25457I98J-16D01*
G02X222847Y25502I82J-44D01*
G37*
G36*
G01X231897Y25484D02*
G02X231970Y25498I84J-242D01*
G02X232027Y25489I6J-138D01*
G02X232062Y25458I-25J-63D01*
G02X232095Y25347I-260J-139D01*
G02X232116Y25078I-6482J-641D01*
G02X232125Y24791I-5155J-295D01*
G02X232113Y24555I-2387J-4D01*
G02X232037Y24118I-2963J289D01*
G02X231900Y23735I-2022J509D01*
G02X231686Y23373I-2054J972D01*
G02X231375Y22994I-3349J2429D01*
G03X231222Y22822I4626J-4275D01*
G03X231153Y22722I441J-379D01*
G03X231136Y22654I125J-68D01*
G03X231159Y22599I79J0D01*
G03X231240Y22561I92J92D01*
G03X231461Y22551I248J3162D01*
G03X231754Y22560I33J4000D01*
G03X232123Y22590I-655J10107D01*
G02X232581Y22633I2997J-29501D01*
G02X232902Y22654I629J-7296D01*
G02X233150Y22657I167J-4005D01*
G02X233364Y22642I-46J-2311D01*
G02X233556Y22611I-229J-2023D01*
G02X233708Y22565I-192J-912D01*
G02X233814Y22509I-203J-511D01*
G02X233858Y22446I-61J-90D01*
G02X233774Y22208I-221J-55D01*
G02X233342Y21950I-1450J1935D01*
G02X232716Y21722I-1618J3482D01*
G02X231982Y21574I-1570J5876D01*
G02X231507Y21527I-832J5996D01*
G02X231093Y21528I-203J3432D01*
G02X230697Y21577I194J3147D01*
G02X230279Y21679I800J4208D01*
G01X230105Y21730D01*
X229571Y21586D01*
G02X229365Y21531I-4864J17911D01*
G02X229190Y21488I-2431J9411D01*
G02X229036Y21451I-9209J38437D01*
G02X229023Y21455I-3J13D01*
G02X229018Y21465I14J14D01*
G02X229013Y21493I481J97D01*
G02X229009Y21528I496J71D01*
G02X229008Y21566I740J54D01*
G01X229005Y21663D01*
X229451Y21800D01*
G02X229626Y21854I13557J-44026D01*
G02X229784Y21902I8867J-29158D01*
G02X229918Y21941I11132J-37363D01*
G02X229961Y21952I206J-700D01*
G03X229988Y21961I-33J146D01*
G03X230014Y21975I-73J168D01*
G03X230036Y21992I-88J136D01*
G03X230049Y22008I-43J47D01*
G03X230058Y22037I-75J40D01*
G03X230068Y22119I-3102J419D01*
G03X230077Y22218I-2742J302D01*
G03X230084Y22328I-4072J297D01*
G02X230174Y23030I4317J-199D01*
G02X230377Y23676I3518J-751D01*
G02X230701Y24282I3427J-1444D01*
G02X231153Y24866I4142J-2736D01*
G02X231337Y25060I3970J-3571D01*
G02X231514Y25227I2626J-2614D01*
G02X231676Y25360I1890J-2144D01*
G02X231813Y25447I625J-823D01*
G02X231897Y25484I276J-515D01*
G37*
G36*
G01X233560Y26983D02*
G02X233607Y27029I1037J-1021D01*
G02X233648Y27065I1422J-1529D01*
G02X233661Y27070I13J-15D01*
G02X233692Y27054I0J-37D01*
G02X233758Y26950I-2152J-1433D01*
G02X233822Y26832I-1473J-882D01*
G02X233871Y26720I-1057J-525D01*
G02X233963Y26408I-2196J-822D01*
G02X234012Y26086I-2282J-508D01*
G02X234014Y25775I-2123J-169D01*
G02X233968Y25499I-1417J94D01*
G02X233872Y25204I-3035J819D01*
G02X233745Y24909I-3413J1294D01*
G02X233595Y24631I-3170J1532D01*
G02X233432Y24391I-2187J1312D01*
G03X233351Y24274I1160J-890D01*
G03X233334Y24205I95J-59D01*
G03X233365Y24160I55J5D01*
G03X233453Y24131I156J319D01*
G03X233580Y24124I89J460D01*
G03X233741Y24148I-100J1210D01*
G03X233938Y24202I-414J1883D01*
G03X234180Y24290I-1501J4493D01*
G02X234535Y24414I1661J-4199D01*
G02X234872Y24497I961J-3182D01*
G02X235239Y24549I724J-3790D01*
G02X235685Y24578I750J-8061D01*
G02X235932Y24586I849J-22703D01*
G02X236041Y24583I29J-1098D01*
G02X236112Y24570I-24J-337D01*
G02X236183Y24542I-117J-399D01*
G02X236251Y24499I-207J-405D01*
G02X236278Y24459I-43J-56D01*
G02X236272Y24409I-75J-17D01*
G02X236230Y24335I-504J236D01*
G02X235954Y24066I-773J520D01*
G02X235334Y23708I-5018J7950D01*
G02X234672Y23392I-4053J7657D01*
G02X234185Y23252I-813J1912D01*
G02X233957Y23225I-485J3046D01*
G02X233628Y23202I-1054J12671D01*
G02X233265Y23186I-805J14050D01*
G02X232921Y23180I-353J11304D01*
G01X232524Y23180D01*
X232206Y22984D01*
X232082Y22908D01*
X231973Y22841D01*
X231880Y22784D01*
G02X231859Y22772I-478J788D01*
G02X231844Y22768I-16J27D01*
G02X231822Y22770I-2J125D01*
G02X231796Y22776I26J158D01*
G02X231771Y22787I58J169D01*
G02X231753Y22816I16J30D01*
G02X231767Y22852I50J2D01*
G02X231837Y22918I541J-512D01*
G02X232084Y23118I31100J-38222D01*
G01X232457Y23417D01*
X232472Y23556D01*
G03X232480Y23645I-1697J192D01*
G03X232493Y23869I-47925J2891D01*
G03X232507Y24136I-43925J2449D01*
G03X232521Y24427I-61249J3031D01*
G02X232548Y24930I30054J-1352D01*
G02X232577Y25206I3229J-198D01*
G02X232624Y25423I1660J-247D01*
G02X232706Y25671I3132J-899D01*
G02X232846Y25985I2692J-1013D01*
G02X233036Y26314I3812J-1982D01*
G02X233261Y26636I3852J-2458D01*
G02X233508Y26929I3270J-2506D01*
G02X233560Y26983I1814J-1678D01*
G37*
G36*
G01X235118Y29055D02*
G02X235147Y29080I196J-206D01*
G02X235172Y29095I120J-166D01*
G02X235186Y29095I6J-12D01*
G02X235234Y29047I-77J-125D01*
G02X235298Y28933I-1444J-893D01*
G02X235362Y28795I-1617J-833D01*
G02X235415Y28651I-1721J-713D01*
G02X235494Y28347I-2721J-872D01*
G02X235550Y28000I-4339J-879D01*
G02X235589Y27570I-6981J-846D01*
G02X235615Y27000I-20957J-1242D01*
G03X235628Y26644I34002J1082D01*
G03X235643Y26503I1203J51D01*
G03X235668Y26433I204J33D01*
G03X235712Y26399I62J36D01*
G03X235850Y26402I64J257D01*
G03X236167Y26503I-1730J5954D01*
G03X236485Y26627I-1588J4536D01*
G03X236695Y26743I-487J1130D01*
G02X236839Y26832I878J-1277D01*
G02X237112Y26975I6991J-13000D01*
G02X237390Y27112I6415J-12560D01*
G02X237561Y27186I883J-1826D01*
G02X237764Y27255I1148J-3060D01*
G02X237964Y27307I820J-2721D01*
G02X238148Y27341I519J-2324D01*
G02X238302Y27352I154J-1080D01*
G02X238422Y27348I0J-2105D01*
G02X238475Y27333I-7J-127D01*
G02X238501Y27300I-26J-47D01*
G02X238509Y27238I-225J-62D01*
G02X238496Y27177I-153J0D01*
G02X238435Y27047I-2760J1219D01*
G02X238360Y26907I-2348J1172D01*
G02X238282Y26784I-1620J935D01*
G02X238161Y26623I-1806J1240D01*
G02X237977Y26410I-6245J5190D01*
G02X237785Y26202I-6057J5402D01*
G02X237634Y26056I-1804J1726D01*
G02X237354Y25826I-3607J4084D01*
G02X237124Y25673I-1163J1508D01*
G02X236897Y25570I-719J1281D01*
G02X236634Y25495I-705J1981D01*
G02X236479Y25467I-543J2523D01*
G02X236339Y25452I-248J1639D01*
G02X236159Y25445I-211J3196D01*
G02X235849Y25444I-237J25519D01*
G02X235635Y25445I44J19096D01*
G02X235437Y25450I197J13977D01*
G02X235270Y25455I414J14735D01*
G02X235202Y25462I24J607D01*
G01X235093Y25479D01*
X234689Y25020D01*
G02X234533Y24845I-43633J38531D01*
G02X234401Y24697I-22410J19957D01*
G01X234282Y24565D01*
G02X234276Y24562I-6J5D01*
G02X234269Y24564I0J14D01*
G02X234236Y24581I2432J4922D01*
G02X234197Y24601I1079J2152D01*
G02X234152Y24625I1974J3762D01*
G01X234037Y24686D01*
X234439Y25118D01*
G03X234595Y25287I-16929J15763D01*
G03X234730Y25437I-10138J9252D01*
G03X234843Y25566I-18963J16795D01*
G03X234863Y25597I-99J87D01*
G03X234870Y25624I-74J35D01*
G03X234870Y25659I-172J16D01*
G03X234862Y25701I-279J-31D01*
G03X234846Y25753I-688J-186D01*
G02X234795Y25950I1077J383D01*
G02X234766Y26196I2503J414D01*
G02X234752Y26565I6734J448D01*
G02X234748Y27223I59605J682D01*
G02X234749Y27787I117062J74D01*
G02X234755Y28070I9026J-40D01*
G02X234767Y28249I2851J-102D01*
G02X234790Y28386I1050J-104D01*
G02X234840Y28554I1384J-325D01*
G02X234918Y28740I2279J-842D01*
G02X235005Y28909I2087J-974D01*
G02X235087Y29023I608J-348D01*
G02X235118Y29055I373J-327D01*
G37*
G36*
G01X230793Y42354D02*
G02X231107Y42344I-1279J-46948D01*
G02X231424Y42328I-360J-10559D01*
G02X231712Y42304I-465J-7229D01*
G02X231977Y42258I-210J-2006D01*
G02X232210Y42180I-341J-1410D01*
G02X232447Y42056I-697J-1616D01*
G02X232722Y41868I-2215J-3536D01*
G02X232922Y41708I-1978J-2662D01*
G02X233169Y41485I-6120J-7027D01*
G02X233420Y41248I-25816J-27594D01*
G02X233420Y41215I-16J-16D01*
G02X233408Y41209I-16J16D01*
G02X233346Y41198I-733J4044D01*
G02X233273Y41188I-383J2325D01*
G02X233189Y41177I-534J4025D01*
G02X232684Y41181I-235J2106D01*
G02X232168Y41302I329J2571D01*
G02X231665Y41533I922J2669D01*
G02X231202Y41863I1587J2717D01*
G02X231076Y41981I1369J1591D01*
G02X230930Y42135I3399J3358D01*
G02X230792Y42292I7831J7070D01*
G02X230775Y42336I51J44D01*
G02X230793Y42354I18J0D01*
G37*
G36*
G01X223640Y42345D02*
G02X223827Y42347I148J-5077D01*
G02X224012Y42345I-141J-18795D01*
G02X224025Y42332I0J-13D01*
G02X224021Y42319I-21J0D01*
G02X223990Y42277I-1942J1416D01*
G02X223951Y42228I-1278J975D01*
G02X223904Y42174I-2083J1722D01*
G02X223560Y41834I-2443J2130D01*
G02X223175Y41556I-1950J2296D01*
G02X222760Y41347I-1497J2462D01*
G02X222326Y41214I-987J2435D01*
G02X222131Y41186I-285J1321D01*
G02X221847Y41174I-378J5665D01*
G02X221569Y41176I-108J6638D01*
G02X221435Y41199I12J467D01*
G01X221365Y41222D01*
X221614Y41466D01*
G02X221906Y41732I4058J-4148D01*
G02X222184Y41947I2348J-2753D01*
G02X222450Y42111I1635J-2345D01*
G02X222705Y42227I888J-1627D01*
G02X222817Y42259I300J-823D01*
G02X222956Y42284I405J-1856D01*
G02X223154Y42308I604J-4244D01*
G02X223474Y42336I2496J-26413D01*
G02X223640Y42345I258J-3116D01*
G37*
G36*
G01X231770Y37965D02*
X232032Y38270D01*
G02X232037Y38273I6J-5D01*
G02X232039Y38271I0J-2D01*
G02X232033Y38258I-179J73D01*
G02X232024Y38241I-221J109D01*
G02X232012Y38221I-486J287D01*
G03X231984Y38179I5716J-3723D01*
G01X231588Y37560D01*
X231141Y36864D01*
X230618Y36047D01*
X228909Y33381D01*
X227997Y31959D01*
X227425Y31067D01*
G02X227195Y30709I-164118J105291D01*
G01X226995Y30398D01*
X226896Y30533D01*
X225965Y31799D01*
X224984Y33136D01*
X223982Y34503D01*
G02X223978Y34514I14J10D01*
G02X223986Y34518I5J0D01*
G02X224175Y34398I-37715J-59465D01*
G02X224503Y34187I-37579J-58851D01*
G01X225600Y33478D01*
X226149Y33123D01*
X226619Y32820D01*
X227034Y32554D01*
G03X227071Y32532I290J449D01*
G03X227099Y32522I46J86D01*
G03X227122Y32525I7J39D01*
G03X227147Y32542I-34J76D01*
G03X227186Y32583I-580J577D01*
G03X227289Y32704I-11955J10393D01*
G01X228648Y34299D01*
X229975Y35859D01*
X231138Y37226D01*
G02X231770Y37965I117843J-99979D01*
G37*
G36*
G01X226032Y29348D02*
G02X226103Y29357I138J-855D01*
G02X226186Y29360I91J-1166D01*
G02X226282Y29358I10J-1956D01*
G02X226396Y29351I-97J-2297D01*
G02X226477Y29338I-56J-602D01*
G02X226549Y29315I-114J-489D01*
G02X226636Y29276I-451J-1132D01*
G02X226761Y29201I-388J-788D01*
G02X226866Y29110I-423J-589D01*
G02X226955Y28996I-576J-542D01*
G02X227034Y28854I-1045J-674D01*
G02X227076Y28756I-1349J-638D01*
G02X227096Y28684I-356J-138D01*
G02X227104Y28599I-565J-99D01*
G02X227106Y28441I-5593J-132D01*
G02X227103Y28302I-4252J18D01*
G02X227095Y28207I-944J35D01*
G02X227079Y28130I-589J82D01*
G02X227052Y28049I-778J215D01*
G02X226982Y27917I-653J258D01*
G02X226879Y27786I-893J599D01*
G02X226757Y27673I-790J728D01*
G02X226631Y27593I-433J546D01*
G02X226547Y27556I-427J871D01*
G02X226478Y27538I-130J341D01*
G02X226393Y27530I-102J611D01*
G02X226240Y27527I-156J5536D01*
G02X226087Y27529I0J5520D01*
G02X226002Y27538I18J626D01*
G02X225933Y27556I60J361D01*
G02X225850Y27592I331J877D01*
G02X225730Y27667I309J629D01*
G02X225613Y27773I649J837D01*
G02X225511Y27896I790J755D01*
G02X225436Y28026I691J489D01*
G02X225401Y28111I848J398D01*
G02X225383Y28182I369J131D01*
G02X225375Y28271I682J105D01*
G02X225373Y28430I6129J145D01*
G02X225376Y28577I4961J-10D01*
G02X225384Y28673I960J-31D01*
G02X225399Y28751I567J-75D01*
G02X225427Y28832I749J-208D01*
G02X225516Y28995I741J-296D01*
G02X225642Y29139I728J-513D01*
G02X225799Y29255I621J-679D01*
G02X225977Y29335I465J-796D01*
G02X226032Y29348I113J-345D01*
G37*
G36*
G01X220833Y42064D02*
G02X220896Y42088I147J-298D01*
G02X220917Y42079I5J-20D01*
G02X220920Y42053I-24J-16D01*
G03X220837Y41835I11720J-4610D01*
G03X220760Y41622I10635J-3965D01*
G03X220692Y41420I9516J-3325D01*
G03X220635Y41238I6164J-2013D01*
G03X220579Y41018I2996J-881D01*
G03X220544Y40809I2308J-500D01*
G03X220528Y40634I2586J-320D01*
G03X220554Y40583I55J-3D01*
G03X220618Y40566I63J102D01*
G03X220899Y40571I-182J16493D01*
G03X221257Y40587I-346J12099D01*
G03X221714Y40616I-1866J32170D01*
G02X222099Y40643I6053J-83926D01*
G02X222359Y40659I1220J-17986D01*
G02X222540Y40667I498J-9335D01*
G02X222648Y40666I44J-1313D01*
G02X222680Y40644I-2J-37D01*
G02X222681Y40601I-51J-23D01*
G02X222640Y40528I-269J105D01*
G02X222556Y40429I-1200J935D01*
G02X222126Y40086I-1355J1255D01*
G02X221542Y39817I-1711J2953D01*
G02X220862Y39644I-1330J3803D01*
G02X220144Y39586I-718J4395D01*
G03X219940Y39570I1J-1337D01*
G03X219812Y39518I46J-296D01*
G03X219687Y39400I357J-501D01*
G03X219452Y39092I9307J-7382D01*
G02X219292Y38881I-15349J11382D01*
G02X219194Y38760I-2008J1531D01*
G02X219126Y38688I-910J788D01*
G02X219088Y38672I-38J39D01*
G02X219038Y38700I0J59D01*
G02X219033Y38759I56J34D01*
G02X219104Y38891I791J-338D01*
G02X219322Y39223I24281J-15783D01*
G01X219558Y39574D01*
X219560Y40148D01*
G02X219563Y40491I38213J-152D01*
G02X219570Y40660I2776J-35D01*
G02X219586Y40778I1024J-76D01*
G02X219616Y40898I1162J-223D01*
G02X219675Y41066I1801J-546D01*
G02X219747Y41217I1389J-569D01*
G02X219831Y41350I1142J-626D01*
G02X219923Y41460I753J-539D01*
G02X220056Y41577I905J-888D01*
G02X220264Y41730I3274J-4265D01*
G02X220491Y41879I3162J-4560D01*
G02X220692Y41993I1534J-2460D01*
G02X220833Y42064I3501J-6754D01*
G37*
G36*
G01X233871Y42079D02*
G02X233875Y42088I8J2D01*
G02X233886Y42090I8J-12D01*
G02X233918Y42082I-121J-501D01*
G02X234102Y42001I-268J-864D01*
G02X234394Y41823I-3440J-5966D01*
G02X234682Y41627I-3553J-5512D01*
G02X234864Y41472I-890J-1231D01*
G02X234963Y41357I-713J-716D01*
G02X235050Y41222I-991J-733D01*
G02X235123Y41069I-1214J-674D01*
G02X235182Y40898I-1652J-668D01*
G02X235208Y40790I-1152J-336D01*
G02X235225Y40676I-1324J-255D01*
G02X235236Y40530I-2417J-254D01*
G02X235244Y40312I-11450J-508D01*
G02X235246Y40145I-8101J-210D01*
G02X235245Y39982I-7415J-37D01*
G02X235241Y39841I-6693J115D01*
G02X235234Y39762I-774J29D01*
G01X235214Y39621D01*
X235440Y39281D01*
G02X235684Y38909I-32337J-21465D01*
G02X235762Y38766I-887J-574D01*
G02X235760Y38702I-69J-31D01*
G02X235712Y38672I-48J24D01*
G02X235674Y38688I0J55D01*
G02X235606Y38759I815J833D01*
G02X235509Y38880I1882J1623D01*
G02X235350Y39092I15257J11579D01*
G03X235113Y39402I-9293J-6856D01*
G03X234987Y39520I-455J-360D01*
G03X234855Y39571I-174J-252D01*
G03X234632Y39586I-225J-1663D01*
G02X234052Y39628I9J4172D01*
G02X233475Y39750I623J4368D01*
G02X232948Y39940I1091J3857D01*
G02X232520Y40184I973J2208D01*
G02X232386Y40291I869J1217D01*
G02X232250Y40425I1569J1738D01*
G02X232134Y40556I2146J2016D01*
G02X232111Y40618I75J63D01*
G02X232119Y40643I41J0D01*
G02X232139Y40657I30J-21D01*
G02X232182Y40663I48J-181D01*
G02X232283Y40664I103J-4061D01*
G02X232386Y40662I0J-2019D01*
G02X232595Y40650I-1436J-28194D01*
G02X232841Y40635I-1731J-29517D01*
G02X233101Y40616I-2414J-36301D01*
G03X233367Y40599I1401J18925D01*
G03X233632Y40585I1118J18631D01*
G03X233862Y40576I758J16649D01*
G03X234001Y40575I75J2395D01*
G01X234256Y40582D01*
X234254Y40758D01*
G03X234231Y40969I-1058J-9D01*
G03X234157Y41264I-4162J-886D01*
G03X234040Y41627I-6032J-1743D01*
G03X233879Y42055I-12267J-4366D01*
G02X233871Y42079I188J75D01*
G37*
G36*
G01X236321Y40022D02*
G02X236344Y40039I256J-314D01*
G02X236363Y40052I224J-319D01*
G02X236372Y40055I10J-15D01*
G02X236404Y40038I0J-38D01*
G02X236526Y39849I-13567J-8873D01*
G02X236644Y39653I-4720J-2994D01*
G02X236737Y39480I-2650J-1534D01*
G02X236955Y38931I-3208J-1590D01*
G02X237081Y38348I-3523J-1070D01*
G02X237111Y37759I-3578J-479D01*
G02X237043Y37189I-3256J100D01*
G03X237018Y37041I1856J-390D01*
G03X237015Y36933I524J-67D01*
G03X237034Y36800I1085J83D01*
G03X237095Y36509I19625J3973D01*
G02X237127Y36358I-10263J-2232D01*
G02X237151Y36228I-5468J-1108D01*
G02X237171Y36115I-16923J-3019D01*
G02X237167Y36103I-14J-2D01*
G02X237157Y36097I-16J17D01*
G02X237131Y36090I-152J505D01*
G02X237099Y36083I-129J520D01*
G02X237064Y36078I-138J757D01*
G01X236974Y36066D01*
X236856Y36459D01*
X236738Y36852D01*
X236575Y36885D01*
G02X236264Y36966I539J2700D01*
G02X235936Y37089I1213J3738D01*
G02X235612Y37244I1613J3785D01*
G02X235314Y37422I1690J3163D01*
G02X235096Y37585I1427J2144D01*
G02X234853Y37799I3290J3962D01*
G02X234624Y38029I3534J3747D01*
G02X234449Y38237I1883J1762D01*
G02X234347Y38386I1576J1189D01*
G02X234239Y38573I3394J2103D01*
G02X234144Y38753I4886J2674D01*
G02X234127Y38827I147J74D01*
G02X234148Y38860I36J0D01*
G02X234225Y38886I177J-397D01*
G02X234327Y38901I137J-584D01*
G02X234435Y38900I43J-714D01*
G02X234596Y38867I-69J-756D01*
G02X234750Y38800I-252J-795D01*
G02X234915Y38690I-599J-1072D01*
G02X235111Y38522I-2126J-2676D01*
G03X235323Y38338I3016J3259D01*
G03X235539Y38174I2473J3037D01*
G03X235732Y38047I2036J2888D01*
G03X235847Y38003I178J291D01*
G03X235955Y38000I65J344D01*
G03X236024Y38037I-13J105D01*
G03X236061Y38123I-133J109D01*
G03X236072Y38276I-1098J154D01*
G02X236076Y38407I1995J0D01*
G02X236090Y38581I6104J-400D01*
G02X236118Y38858I19348J-1832D01*
G02X236179Y39410I255320J-27817D01*
G02X236217Y39743I44427J-4949D01*
G02X236239Y39878I1718J-204D01*
G02X236262Y39952I371J-74D01*
G02X236297Y40002I131J-56D01*
G02X236321Y40022I393J-437D01*
G37*
G36*
G01X223617Y29323D02*
G02X223655Y29337I49J-74D01*
G02X223738Y29342I87J-703D01*
G02X223972Y29343I177J-28154D01*
G02X224408Y29329I-14J-7324D01*
G02X224682Y29283I-81J-1314D01*
G02X224862Y29196I-154J-550D01*
G02X224981Y29060I-235J-326D01*
G02X225022Y28948I-366J-196D01*
G02X225031Y28826I-455J-94D01*
G02X225007Y28707I-448J27D01*
G02X224954Y28607I-335J115D01*
G02X224891Y28544I-275J210D01*
G02X224792Y28476I-651J839D01*
G02X224691Y28421I-566J928D01*
G02X224623Y28406I-67J143D01*
G03X224610Y28405I0J-73D01*
G03X224598Y28401I8J-43D01*
G03X224591Y28395I11J-23D01*
G03X224589Y28389I7J-6D01*
G03X224593Y28376I22J1D01*
G03X224670Y28276I30194J23079D01*
G03X224759Y28163I8242J6351D01*
G03X224864Y28031I15133J12001D01*
G03X225005Y27860I8512J6872D01*
G03X225101Y27753I1574J1323D01*
G03X225175Y27685I674J652D01*
G03X225238Y27645I184J221D01*
G02X225333Y27593I-354J-763D01*
G02X225335Y27562I-10J-16D01*
G02X225280Y27543I-56J72D01*
G02X225109Y27544I-55J3940D01*
G01X224880Y27551D01*
X224580Y27949D01*
G03X224398Y28188I-22914J-17289D01*
G03X224313Y28287I-1061J-817D01*
G03X224255Y28336I-226J-213D01*
G03X224199Y28355I-68J-105D01*
G01X224119Y28362D01*
X224119Y28062D01*
G03X224124Y27854I4768J6D01*
G03X224141Y27735I604J27D01*
G03X224174Y27668I176J44D01*
G03X224225Y27638I63J49D01*
G02X224301Y27625I-255J-1686D01*
G02X224345Y27611I-43J-218D01*
G02X224368Y27595I-27J-63D01*
G02X224377Y27574I-23J-21D01*
G02X224362Y27555I-19J0D01*
G02X224305Y27545I-89J355D01*
G02X224202Y27540I-118J1314D01*
G02X223990Y27539I-205J19044D01*
G02X223778Y27540I-8J19036D01*
G02X223674Y27545I15J1319D01*
G02X223618Y27555I33J365D01*
G02X223603Y27574I5J19D01*
G02X223608Y27588I24J0D01*
G02X223622Y27602I56J-42D01*
G02X223643Y27614I60J-80D01*
G02X223668Y27622I52J-122D01*
G03X223734Y27640I-120J569D01*
G03X223775Y27663I-41J121D01*
G03X223801Y27696I-64J77D01*
G03X223820Y27749I-253J123D01*
G03X223828Y27803I-235J61D01*
G03X223832Y28002I-21614J566D01*
G03X223834Y28239I-14737J243D01*
G03X223833Y28504I-23502J18D01*
G03X223828Y28926I-85946J-890D01*
G03X223820Y29089I-2801J-44D01*
G03X223807Y29176I-585J-43D01*
G03X223780Y29217I-68J-15D01*
G03X223758Y29230I-69J-95D01*
G03X223729Y29240I-102J-234D01*
G03X223698Y29248I-77J-256D01*
G03X223669Y29250I-28J-166D01*
G02X223637Y29252I0J231D01*
G02X223617Y29260I6J44D01*
G02X223607Y29274I16J23D01*
G02X223603Y29297I69J23D01*
G02X223617Y29323I31J0D01*
G37*
G36*
G01X229567Y29360D02*
G02X229670Y29362I66J-638D01*
G02X229781Y29348I-44J-749D01*
G02X229900Y29316I-231J-1096D01*
G01X230056Y29264D01*
X230090Y29316D01*
G02X230118Y29346I115J-76D01*
G02X230152Y29365I70J-85D01*
G02X230178Y29365I13J-39D01*
G02X230189Y29350I-5J-16D01*
G03X230192Y29308I380J1D01*
G03X230214Y29111I80266J9125D01*
G03X230236Y28923I41146J4783D01*
G03X230248Y28844I1721J208D01*
G02X230252Y28807I-418J-70D01*
G02X230248Y28791I-26J-2D01*
G02X230235Y28784I-13J9D01*
G02X230208Y28786I-5J152D01*
G02X230185Y28793I10J69D01*
G02X230166Y28808I35J66D01*
G02X230150Y28831I69J64D01*
G02X230139Y28860I146J71D01*
G03X230074Y29001I-442J-118D01*
G03X229964Y29120I-446J-306D01*
G03X229824Y29199I-328J-416D01*
G03X229675Y29227I-149J-389D01*
G03X229606Y29224I1J-841D01*
G03X229562Y29214I14J-169D01*
G03X229524Y29193I48J-131D01*
G03X229481Y29155I279J-360D01*
G03X229442Y29111I397J-396D01*
G03X229424Y29078I83J-68D01*
G03X229418Y29040I108J-36D01*
G03X229422Y28978I666J13D01*
G03X229447Y28885I321J36D01*
G03X229497Y28810I225J98D01*
G03X229595Y28730I449J445D01*
G03X229796Y28600I3822J5716D01*
G02X229996Y28468I-2151J-3474D01*
G02X230136Y28355I-776J-1102D01*
G02X230229Y28252I-521J-564D01*
G02X230278Y28154I-252J-188D01*
G02X230294Y27909I-520J-156D01*
G02X230197Y27702I-419J69D01*
G02X229999Y27564I-365J314D01*
G02X229732Y27517I-261J706D01*
G02X229660Y27521I8J886D01*
G02X229578Y27531I128J1419D01*
G02X229500Y27544I199J1346D01*
G02X229439Y27561I117J561D01*
G03X229350Y27587I-393J-1200D01*
G03X229294Y27592I-43J-175D01*
G03X229264Y27578I3J-48D01*
G03X229252Y27548I29J-29D01*
G02X229248Y27536I-25J0D01*
G02X229239Y27525I-31J18D01*
G02X229225Y27518I-27J36D01*
G02X229208Y27516I-17J55D01*
G02X229185Y27526I0J33D01*
G02X229168Y27553I54J52D01*
G02X229154Y27608I309J108D01*
G02X229137Y27721I4352J714D01*
G03X229125Y27806I-34303J-4678D01*
G03X229113Y27891I-35588J-4981D01*
G03X229102Y27967I-31687J-4512D01*
G03X229095Y28014I-5233J-765D01*
G02X229094Y28085I255J39D01*
G02X229120Y28103I21J-3D01*
G02X229164Y28073I-17J-71D01*
G02X229216Y27985I-660J-449D01*
G03X229322Y27818I903J457D01*
G03X229444Y27706I399J313D01*
G03X229585Y27648I229J351D01*
G03X229748Y27638I111J521D01*
G03X229858Y27665I-39J402D01*
G03X229937Y27719I-81J205D01*
G03X229985Y27801I-155J145D01*
G03X230001Y27909I-343J107D01*
G03X229981Y28030I-376J-1D01*
G03X229923Y28129I-274J-94D01*
G03X229808Y28229I-458J-410D01*
G03X229594Y28364I-2326J-3458D01*
G02X229359Y28527I988J1680D01*
G02X229221Y28686I376J466D01*
G02X229166Y28856I341J204D01*
G02X229184Y29051I554J47D01*
G02X229224Y29136I278J-77D01*
G02X229297Y29226I536J-364D01*
G02X229385Y29301I461J-452D01*
G02X229469Y29341I162J-228D01*
G02X229567Y29360I155J-539D01*
G37*
G36*
G01X227197Y29335D02*
G02X227304Y29338I399J-11936D01*
G02X227429Y29340I121J-4892D01*
G02X227574Y29338I-7J-8898D01*
G02X227779Y29334I-291J-17132D01*
G02X227880Y29327I-37J-1272D01*
G02X227936Y29316I-40J-363D01*
G02X227951Y29297I-5J-19D01*
G02X227945Y29282I-24J0D01*
G02X227928Y29268I-49J43D01*
G02X227901Y29257I-62J109D01*
G02X227864Y29248I-88J309D01*
G03X227771Y29221I62J-384D01*
G03X227726Y29175I34J-77D01*
G03X227708Y29087I240J-96D01*
G03X227705Y28849I8314J-238D01*
G01Y28523D01*
X228478D01*
Y28840D01*
G03X228477Y29026I-12605J5D01*
G03X228470Y29113I-768J-12D01*
G03X228457Y29165I-207J-27D01*
G03X228431Y29203I-108J-44D01*
G03X228406Y29223I-91J-91D01*
G03X228375Y29238I-93J-155D01*
G03X228339Y29247I-69J-192D01*
G03X228301Y29250I-38J-232D01*
G02X228257Y29252I-1J568D01*
G02X228235Y29258I4J56D01*
G02X228225Y29271I9J17D01*
G02X228225Y29291I45J11D01*
G02X228244Y29314I30J-6D01*
G02X228294Y29325I70J-187D01*
G02X228390Y29331I107J-1026D01*
G02X228619Y29332I228J-23546D01*
G02X228847Y29331I1J-23537D01*
G02X228944Y29325I-10J-1032D01*
G02X228993Y29314I-21J-199D01*
G02X229013Y29291I-11J-29D01*
G02X229013Y29271I-48J-10D01*
G02X229003Y29258I-19J4D01*
G02X228983Y29252I-25J41D01*
G02X228945Y29250I-38J423D01*
G03X228912Y29247I0J-184D01*
G03X228878Y29239I44J-249D01*
G03X228848Y29226I72J-220D01*
G03X228826Y29211I42J-86D01*
G03X228801Y29166I54J-59D01*
G03X228789Y29067I840J-146D01*
G03X228784Y28886I3566J-197D01*
G03X228783Y28439I94053J-455D01*
G03X228785Y27897I67610J3D01*
G03X228800Y27738I909J8D01*
G03X228844Y27664I122J23D01*
G03X228934Y27623I127J157D01*
G02X228968Y27614I-50J-266D01*
G02X228994Y27602I-40J-124D01*
G02X229011Y27588I-38J-64D01*
G02X229017Y27573I-17J-15D01*
G02X229002Y27555I-19J0D01*
G02X228943Y27545I-96J422D01*
G02X228836Y27540I-122J1440D01*
G02X228619Y27539I-218J19716D01*
G02X228402Y27540I1J19727D01*
G02X228295Y27545I15J1445D01*
G02X228235Y27555I37J432D01*
G02X228220Y27573I4J18D01*
G02X228226Y27588I22J0D01*
G02X228244Y27602I54J-50D01*
G02X228272Y27614I68J-119D01*
G02X228308Y27623I93J-305D01*
G03X228407Y27654I-71J398D01*
G03X228454Y27704I-39J85D01*
G03X228474Y27800I-259J104D01*
G03X228478Y28047I-7953J246D01*
G01Y28383D01*
X227705D01*
Y28045D01*
G03X227708Y27795I8802J-1D01*
G03X227727Y27701I283J8D01*
G03X227773Y27652I82J32D01*
G03X227867Y27624I152J335D01*
G02X227908Y27615I-67J-416D01*
G02X227938Y27604I-36J-137D01*
G02X227956Y27590I-32J-60D01*
G02X227963Y27574I-17J-16D01*
G02X227948Y27555I-19J0D01*
G02X227890Y27545I-92J373D01*
G02X227784Y27540I-121J1380D01*
G02X227564Y27539I-213J20525D01*
G02X227353Y27540I-2J18287D01*
G02X227243Y27545I18J1562D01*
G02X227180Y27554I45J549D01*
G02X227166Y27572I3J17D01*
G02X227174Y27596I38J0D01*
G02X227199Y27616I61J-50D01*
G02X227236Y27629I62J-119D01*
G02X227283Y27633I47J-253D01*
G03X227302Y27636I0J71D01*
G03X227324Y27644I-41J146D01*
G03X227346Y27656I-67J147D01*
G03X227363Y27670I-61J92D01*
G03X227384Y27713I-52J52D01*
G03X227393Y27826I-1622J193D01*
G03X227399Y28020I-4521J221D01*
G03X227400Y28426I-69873J410D01*
G03X227397Y28964I-51243J2D01*
G03X227380Y29142I-1030J-11D01*
G03X227333Y29219I-128J-24D01*
G03X227246Y29250I-87J-108D01*
G02X227198Y29256I0J205D01*
G02X227170Y29274I12J51D01*
G02X227164Y29299I22J18D01*
G02X227182Y29329I66J-19D01*
G02X227197Y29335I15J-15D01*
G37*
G36*
G01X235883Y31361D02*
G02X235892Y31446I2192J-176D01*
G02X235901Y31517I4760J-578D01*
G02X235908Y31523I7J-1D01*
G02X235918Y31521I0J-22D01*
G02X235947Y31506I-492J-938D01*
G02X235980Y31486I-439J-774D01*
G02X236016Y31463I-729J-1173D01*
G02X236318Y31187I-758J-1136D01*
G02X236584Y30788I-1969J-1598D01*
G02X236800Y30291I-2854J-1532D01*
G02X236952Y29719I-4352J-1467D01*
G03X237000Y29489I12255J2430D01*
G03X237031Y29388I659J144D01*
G03X237064Y29335I148J58D01*
G03X237113Y29307I73J71D01*
G03X237238Y29313I52J209D01*
G03X237416Y29394I-388J1095D01*
G03X237719Y29577I-2579J4608D01*
G03X238439Y30049I-72929J112032D01*
G02X238754Y30255I24075J-36448D01*
G02X239029Y30431I13611J-21015D01*
G02X239267Y30580I30074J-47752D01*
G02X239312Y30599I82J-132D01*
G02X239352Y30606I74J-301D01*
G02X239368Y30599I2J-18D01*
G02X239375Y30578I-30J-22D01*
G02X239376Y30512I-1691J-64D01*
G02X239369Y30381I-1139J2D01*
G02X239345Y30230I-2075J244D01*
G02X239307Y30064I-2526J486D01*
G02X239256Y29886I-3432J900D01*
G02X238966Y29251I-2785J888D01*
G02X238540Y28722I-2253J1375D01*
G02X237979Y28304I-1950J2033D01*
G02X237289Y27999I-1861J3285D01*
G03X237191Y27967I2670J-8191D01*
G03X237097Y27934I2286J-6725D01*
G03X237019Y27906I2251J-6338D01*
G03X236980Y27890I179J-484D01*
G03X236936Y27855I51J-109D01*
G03X236859Y27751I2000J-1573D01*
G03X236754Y27596I3350J-2373D01*
G03X236605Y27360I16171J-10372D01*
G02X236484Y27168I-15029J9339D01*
G02X236379Y27007I-7847J5020D01*
G02X236285Y26868I-27913J18662D01*
G02X236271Y26861I-14J9D01*
G02X236258Y26864I0J29D01*
G02X236235Y26877I173J335D01*
G02X236208Y26895I221J361D01*
G02X236181Y26916I326J452D01*
G02X236143Y26964I87J107D01*
G02X236142Y27013I54J25D01*
G02X236186Y27097I587J-253D01*
G02X236424Y27480I114980J-71143D01*
G03X236534Y27661I-10025J6254D01*
G03X236612Y27798I-3119J1866D01*
G03X236668Y27904I-4200J2275D01*
G03X236666Y27928I-20J10D01*
G02X236652Y27947I440J327D01*
G01X236596Y28030D01*
G02X236530Y28127I36887J25016D01*
G02X236456Y28237I60729J40989D01*
G02X236213Y28629I5281J3553D01*
G02X236047Y28968I2528J1446D01*
G02X235942Y29290I2092J859D01*
G02X235886Y29625I2234J547D01*
G02X235869Y29920I4263J394D01*
G02X235862Y30402I27954J647D01*
G02X235864Y30896I26907J160D01*
G02X235876Y31260I8068J-100D01*
G02X235883Y31361I4304J-251D01*
G37*
G36*
G01X238122Y37115D02*
G02X238202Y37207I1464J-1197D01*
G02X238259Y37264I845J-788D01*
G02X238277Y37261I8J-8D01*
G02X238300Y37197I-186J-104D01*
G02X238345Y36954I-18836J-3601D01*
G02X238387Y36700I-9929J-1765D01*
G02X238415Y36487I-4922J-746D01*
G02X238433Y36232I-3775J-407D01*
G02X238438Y35950I-5607J-225D01*
G02X238428Y35678I-5349J54D01*
G02X238404Y35452I-2564J158D01*
G02X238341Y35137I-3343J504D01*
G02X238254Y34873I-1852J462D01*
G02X238136Y34640I-1534J632D01*
G02X237979Y34419I-1634J999D01*
G03X237859Y34256I1365J-1125D01*
G03X237807Y34131I319J-206D01*
G03X237787Y33960I848J-186D01*
G03X237783Y33528I24181J-434D01*
G02X237781Y33102I-62454J-8D01*
G02X237769Y33002I-430J3D01*
G02X237730Y32966I-47J11D01*
G02X237645Y32968I-38J235D01*
G01X237572Y32982D01*
X237572Y33442D01*
X237572Y33902D01*
X237334Y34020D01*
G02X236890Y34270I2051J4158D01*
G02X236481Y34565I2398J3757D01*
G02X236115Y34898I2699J3326D01*
G02X235802Y35263I2726J2664D01*
G02X235641Y35516I1463J1107D01*
G02X235474Y35865I4433J2330D01*
G02X235336Y36210I6277J2702D01*
G02X235333Y36350I203J75D01*
G02X235426Y36415I88J-28D01*
G02X235626Y36374I-31J-661D01*
G02X235904Y36239I-558J-1503D01*
G02X236232Y36016I-2227J-3642D01*
G02X236397Y35889I-3771J-5047D01*
G02X236548Y35763I-3160J-3946D01*
G02X236711Y35617I-4291J-4953D01*
G02X236916Y35425I-11796J-12729D01*
G03X236986Y35359I2278J2382D01*
G03X237053Y35301I1549J1715D01*
G03X237110Y35255I1575J1889D01*
G03X237135Y35241I55J70D01*
G03X237161Y35240I15J44D01*
G03X237192Y35252I-25J106D01*
G03X237229Y35279I-125J211D01*
G03X237279Y35326I-708J803D01*
G03X237336Y35390I-551J550D01*
G03X237371Y35447I-211J168D01*
G03X237397Y35521I-415J189D01*
G03X237431Y35660I-4121J1070D01*
G02X237552Y36167I17712J-3967D01*
G02X237642Y36428I1639J-417D01*
G02X237766Y36649I1165J-510D01*
G02X238004Y36969I5931J-4165D01*
G02X238122Y37115I7822J-6159D01*
G37*
G36*
G01X235884Y34107D02*
X235955Y34093D01*
G02X236105Y34030I-78J-391D01*
G02X236370Y33833I-3119J-4485D01*
G02X236657Y33589I-3330J-4219D01*
G02X236916Y33335I-3112J-3420D01*
G02X237086Y33144I-3276J-3080D01*
G02X237237Y32950I-2895J-2425D01*
G02X237366Y32760I-2683J-1965D01*
G02X237470Y32578I-1954J-1235D01*
G03X237539Y32459I1236J631D01*
G03X237600Y32389I268J172D01*
G03X237659Y32361I83J97D01*
G03X237716Y32369I17J85D01*
G03X237742Y32391I-37J68D01*
G03X237823Y32500I-8032J6102D01*
G03X237918Y32631I-5043J3721D01*
G03X238022Y32783I-8542J5964D01*
G02X238349Y33250I12033J-8098D01*
G02X238600Y33554I2788J-2041D01*
G02X238837Y33774I1546J-1428D01*
G02X239110Y33961I1448J-1823D01*
G02X239173Y33997I2199J-3767D01*
G02X239228Y34027I1258J-2234D01*
G02X239276Y34052I2164J-4078D01*
G02X239287Y34055I11J-22D01*
G02X239338Y34007I0J-51D01*
G02X239360Y33578I-16816J-1078D01*
G02X239363Y33158I-7115J-275D01*
G02X239332Y32871I-1644J34D01*
G02X239227Y32493I-2568J510D01*
G02X239065Y32127I-2644J953D01*
G02X238851Y31784I-2547J1353D01*
G02X238589Y31472I-2399J1745D01*
G02X238457Y31343I-2105J2025D01*
G02X238274Y31180I-5961J6511D01*
G02X238094Y31028I-7251J8375D01*
G02X238007Y30968I-377J454D01*
G03X237991Y30948I18J-31D01*
G03X237966Y30870I1895J-642D01*
G03X237939Y30770I1819J-536D01*
G03X237912Y30645I4169J-983D01*
G02X237860Y30406I-8932J1825D01*
G02X237802Y30174I-8102J1880D01*
G02X237748Y29977I-7401J1946D01*
G02X237709Y29872I-744J217D01*
G02X237682Y29832I-130J59D01*
G02X237642Y29802I-116J112D01*
G02X237596Y29786I-75J139D01*
G02X237548Y29786I-24J131D01*
G02X237502Y29819I12J67D01*
G02X237483Y29886I123J71D01*
G02X237489Y30023I917J24D01*
G02X237533Y30360I24501J-3019D01*
G01X237602Y30864D01*
X237523Y30929D01*
G02X237384Y31052I1456J1788D01*
G02X237170Y31261I10121J10562D01*
G02X236959Y31476I10125J10153D01*
G02X236827Y31623I2027J1948D01*
G02X236573Y31955I3797J3167D01*
G02X236349Y32306I4028J2819D01*
G02X236167Y32655I3820J2217D01*
G02X236041Y32977I2402J1122D01*
G02X235983Y33195I2439J771D01*
G02X235932Y33458I4945J1095D01*
G02X235896Y33717I4870J813D01*
G02X235884Y33919I1795J202D01*
G01Y34107D01*
G37*
G36*
G01X333575Y56681D02*
G02X333903Y56728I331J-1141D01*
G02X334234Y56683I3J-1213D01*
G02X334578Y56547I-491J-1753D01*
G02X334976Y56179I-466J-902D01*
G02X337264Y52457I-862165J-532739D01*
G02X340715Y46763I-644363J-394328D01*
G01X347596Y35276D01*
G02X348304Y34071I-77929J-46614D01*
G02X348667Y33381I-8678J-5011D01*
G02X348854Y32905I-3249J-1553D01*
G02X348916Y32513I-1286J-403D01*
G02X348901Y32232I-2354J-19D01*
G02X348851Y32008I-1033J116D01*
G02X348758Y31820I-798J275D01*
G02X348617Y31646I-921J605D01*
G01X348313Y31342D01*
X334105Y31307D01*
X319897Y31272D01*
X319442Y31727D01*
G02X319105Y32376I860J860D01*
G02X319185Y33123I1330J235D01*
G02X319824Y34415I9490J-3891D01*
G02X322182Y38409I548708J-321270D01*
G01X322699Y39279D01*
X323431Y40514D01*
X324232Y41867D01*
X324986Y43142D01*
X330006Y51627D01*
G02X331769Y54547I170019J-100708D01*
G02X332768Y56110I48538J-29897D01*
G02X333240Y56543I1105J-731D01*
G02X333575Y56681I804J-1479D01*
G37*
%LPC*%
G75*
G36*
G01X22961Y319134D02*
G03X22834Y319253I-6323J-6624D01*
G03X22678Y319392I-5398J-5877D01*
G03X22503Y319542I-7676J-8809D01*
G01X22056Y319916D01*
X21953Y319603D01*
G02X21890Y319451I-1086J359D01*
G02X21780Y319242I-4108J2052D01*
G02X21646Y319019I-4470J2528D01*
G02X21507Y318814I-3592J2277D01*
G03X21290Y318500I8345J-6004D01*
G03X21224Y318350I403J-268D01*
G03X21223Y318206I291J-73D01*
G03X21295Y317965I2388J578D01*
G02X21347Y317762I-1144J-404D01*
G02X21395Y317433I-7148J-1206D01*
G02X21432Y317054I-8170J-993D01*
G02X21452Y316674I-8097J-609D01*
G03X21488Y316059I9944J278D01*
G03X21565Y315652I2149J194D01*
G03X21711Y315300I1640J476D01*
G03X21971Y314885I4010J2222D01*
G01X22150Y314631D01*
X22414Y315190D01*
G02X22529Y315423I7411J-3505D01*
G02X22656Y315661I8437J-4319D01*
G02X22775Y315872I7423J-4074D01*
G02X22864Y316009I1597J-937D01*
G01X23049Y316268D01*
X22810Y317143D01*
X22572Y318017D01*
X22813Y318509D01*
G03X22901Y318703I-3376J1651D01*
G03X22967Y318880I-2146J903D01*
G03X23010Y319027I-2163J709D01*
G03X23001Y319084I-71J18D01*
G03X22961Y319134I-214J-132D01*
G37*
G36*
G01X24797Y314073D02*
G03X24651Y314131I-668J-1460D01*
G03X24512Y314171I-470J-1368D01*
G03X24405Y314184I-108J-460D01*
G03X23944Y314076I-1J-1036D01*
G03X23417Y313742I1320J-2664D01*
G03X22990Y313324I1765J-2228D01*
G03X22859Y312959I442J-365D01*
G03X22889Y312785I519J0D01*
G03X22977Y312682I180J64D01*
G03X23146Y312632I197J355D01*
G03X23462Y312624I244J3560D01*
G03X23842Y312674I-35J1751D01*
G03X24235Y312807I-567J2324D01*
G03X24593Y313003I-933J2129D01*
G03X24869Y313241I-820J1229D01*
G03X25098Y313522I-2616J2365D01*
G03X25165Y313704I-285J208D01*
G03X25112Y313853I-196J15D01*
G03X24926Y314005I-654J-614D01*
G03X24797Y314073I-641J-1051D01*
G37*
G36*
G01X24288Y318479D02*
G03X24184Y318572I-830J-814D01*
G03X24042Y318673I-918J-1145D01*
G03X23873Y318768I-1172J-1886D01*
G01X23432Y318992D01*
X23237Y318644D01*
G03X23096Y318314I1441J-810D01*
G03X23052Y318000I966J-293D01*
G03X23107Y317656I1283J27D01*
G03X23266Y317226I3555J1072D01*
G03X23445Y316868I3860J1708D01*
G03X23573Y316802I115J64D01*
G03X23742Y316875I-31J301D01*
G03X24244Y317326I-17698J20246D01*
G01X24744Y317785D01*
X24529Y318035D01*
G02X24447Y318141I1088J935D01*
G02X24377Y318250I1038J737D01*
G02X24328Y318349I923J523D01*
G02X24314Y318415I152J66D01*
G03X24288Y318479I-91J0D01*
G37*
G36*
G01X19971Y313712D02*
G03X19872Y313805I-430J-357D01*
G03X19761Y313865I-283J-385D01*
G03X19636Y313896I-184J-475D01*
G01X19377Y313926D01*
X19435Y313306D01*
G03X19511Y312834I3602J337D01*
G03X19643Y312502I1140J261D01*
G03X19835Y312295I567J334D01*
G03X20086Y312200I317J456D01*
G01X20341Y312170D01*
X20282Y312737D01*
G03X20247Y312975I-2934J-307D01*
G03X20192Y313220I-3477J-653D01*
G03X20126Y313439I-3039J-797D01*
G03X20059Y313585I-774J-265D01*
G03X19971Y313712I-802J-466D01*
G37*
G36*
G01X26218Y314242D02*
G03X26203Y314354I-949J-71D01*
G03X26181Y314437I-692J-135D01*
G03X26155Y314456I-26J-9D01*
G03X26044Y314403I2J-144D01*
G03X25646Y313901I28244J-22835D01*
G03X25250Y313386I35830J-27939D01*
G03X25256Y313303I50J-38D01*
G03X25352Y313278I70J70D01*
G03X25612Y313364I-854J3012D01*
G03X25877Y313483I-892J2342D01*
G03X26058Y313609I-398J766D01*
G03X26128Y313695I-242J267D01*
G03X26180Y313810I-530J308D01*
G03X26212Y313950I-745J246D01*
G03X26223Y314108I-1146J158D01*
G03X26218Y314242I-1826J0D01*
G37*
G36*
G01X27280Y315720D02*
G03X27184Y315774I-74J-19D01*
G03X27020Y315668I103J-340D01*
G03X26705Y315289I7332J-6418D01*
G03X26526Y315057I8570J-6766D01*
G03X26382Y314855I4514J-3372D01*
G03X26268Y314683I8910J-6066D01*
G03X26271Y314652I21J-14D01*
G03X26302Y314642I24J24D01*
G03X26419Y314670I-590J2716D01*
G03X26561Y314712I-576J2192D01*
G03X26722Y314770I-1271J3809D01*
G03X27001Y314903I-700J1830D01*
G03X27181Y315053I-336J583D01*
G03X27280Y315238I-391J328D01*
G03X27312Y315474I-789J230D01*
G03X27280Y315720I-995J-6D01*
G37*
G36*
G01X206867Y39822D02*
X203494D01*
G03X202198Y39817I1J-175092D01*
G03X201102Y39803I670J-90297D01*
G01X200130Y39783D01*
G03X200085Y39756I1J-52D01*
G03X200072Y39706I93J-51D01*
G03X200072Y39532I7803J-114D01*
G03X200077Y39323I5779J45D01*
G03X200090Y39088I9294J408D01*
G01X200132Y38487D01*
X201693Y36732D01*
G03X202296Y36060I95469J84928D01*
G03X202813Y35493I49578J44743D01*
G03X203274Y34995I280025J258649D01*
G03X203313Y34978I40J37D01*
G03X203352Y34994I0J55D01*
G03X203584Y35226I-33880J34083D01*
G03X203848Y35498I-12008J11911D01*
G03X204151Y35822I-22633J21468D01*
G01X204930Y36667D01*
X203765Y36692D01*
X202600Y36716D01*
Y37422D01*
X204015D01*
G02X204575Y37416I2J-26842D01*
G02X205034Y37398I-258J-12324D01*
G02X205413Y37373I-1431J-24590D01*
G02X205459Y37338I-4J-53D01*
G03X205493Y37329I20J7D01*
G03X205643Y37461I-2879J3432D01*
G03X205829Y37643I-2781J3027D01*
G03X206044Y37876I-6487J6223D01*
G03X206378Y38261I-11977J10707D01*
G03X206518Y38471I-897J752D01*
G03X206581Y38664I-530J277D01*
G03X206600Y38938I-1921J274D01*
G02X206606Y39154I3789J0D01*
G02X206629Y39282I551J-32D01*
G02X206671Y39352I160J-48D01*
G02X206733Y39378I63J-63D01*
G03X206788Y39394I0J104D01*
G03X206831Y39437I-69J111D01*
G03X206858Y39507I-184J111D01*
G03X206867Y39600I-486J93D01*
G01Y39822D01*
G37*
G36*
G01X204261Y33195D02*
G03X203788Y33717I-48402J-43515D01*
G03X203369Y34171I-188787J-173487D01*
G03X203319Y34204I-91J-84D01*
G03X203274Y34196I-16J-45D01*
G03X203165Y34108I1389J-1814D01*
G03X203037Y33987I1442J-1660D01*
G03X202900Y33840I2726J-2674D01*
G02X202712Y33629I-15073J13299D01*
G02X202400Y33287I-99295J90084D01*
G02X202041Y32896I-110565J101074D01*
G02X201681Y32506I-110227J101413D01*
G01X200806Y31562D01*
X200908Y30559D01*
G03X200950Y30160I53283J5410D01*
G03X200992Y29792I38975J4256D01*
G03X201030Y29483I41248J4907D01*
G03X201051Y29356I1677J212D01*
G03X201131Y29240I177J36D01*
G03X201295Y29181I211J331D01*
G03X201646Y29159I372J3103D01*
G03X202725Y29156I1065J166650D01*
G01X204358D01*
X204419Y29563D01*
G02X204612Y30070I1259J-189D01*
G02X205019Y30518I1606J-1051D01*
G02X205519Y30797I1078J-1346D01*
G02X205985Y30817I265J-747D01*
G03X206094Y30894I22J84D01*
G03X206040Y31103I-325J28D01*
G03X205659Y31607I-4362J-2906D01*
G03X204809Y32582I-56857J-48693D01*
G03X204261Y33195I-90434J-80201D01*
G37*
G36*
G01X202749Y41353D02*
G03X202671Y41393I-122J-139D01*
G03X202526Y41413I-167J-675D01*
G03X202267Y41415I-177J-5875D01*
G03X201804Y41396I115J-8402D01*
G03X201632Y41330I21J-310D01*
G03X201553Y41186I132J-167D01*
G03X201533Y40836I3185J-350D01*
G01Y40353D01*
X204222Y40376D01*
G03X205957Y40395I-3951J451838D01*
G03X206543Y40420I-120J9524D01*
G03X206816Y40470I-98J1322D01*
G03X206881Y40574I-26J88D01*
G03X206816Y40730I-383J-67D01*
G03X206687Y40858I-414J-291D01*
G03X206467Y40974I-621J-910D01*
G03X206110Y41100I-2045J-5231D01*
G03X205644Y41227I-1910J-6058D01*
G03X205223Y41302I-900J-3854D01*
G03X204893Y41326I-401J-3299D01*
G03X204822Y41256I-1J-69D01*
G02X204782Y41209I-48J0D01*
G02X204575Y41180I-465J2580D01*
G02X204265Y41161I-409J4128D01*
G02X203800Y41156I-462J19742D01*
G02X203247Y41160I-3J32130D01*
G02X202970Y41181I43J2467D01*
G02X202824Y41220I75J575D01*
G02X202778Y41289I29J69D01*
G03X202749Y41353I-85J0D01*
G37*
G36*
G01X201097Y36755D02*
G03X200653Y37244I-59695J-53779D01*
G01X200255Y37678D01*
G03X200230Y37689I-25J-22D01*
G03X200217Y37676I0J-13D01*
G03X200219Y37565I3894J8D01*
G03X200227Y37429I2538J75D01*
G03X200243Y37267I5079J426D01*
G02X200272Y36994I-18153J-2108D01*
G01X200343Y36291D01*
X200426Y35452D01*
X200515Y34538D01*
G03X200603Y33652I208996J20212D01*
G03X200681Y32901I108425J10954D01*
G01X200754Y32232D01*
G03X200767Y32203I47J5D01*
G03X200818Y32204I25J25D01*
G01X201852Y33331D01*
G03X202852Y34427I-382228J350122D01*
G03X202940Y34575I-309J281D01*
G03X202929Y34635I-59J20D01*
G03X202563Y35080I-72444J-59151D01*
G03X202133Y35588I-22143J-18303D01*
G03X201617Y36175I-41102J-35615D01*
G03X201097Y36755I-116169J-103620D01*
G37*
G36*
G01X200639Y40847D02*
G03X200622Y40962I-880J-72D01*
G03X200597Y41046I-601J-131D01*
G03X200568Y41067I-30J-11D01*
G03X200425Y41020I0J-243D01*
G03X200233Y40858I966J-1332D01*
G03X200069Y40668I1159J-1171D01*
G03X200022Y40527I190J-141D01*
G03X200039Y40442I227J0D01*
G03X200085Y40390I96J39D01*
G03X200174Y40363I109J199D01*
G03X200333Y40356I159J1748D01*
G03X200527Y40364I0J2126D01*
G03X200603Y40403I-10J115D01*
G03X200637Y40487I-106J93D01*
G03X200644Y40711I-3534J224D01*
G03X200639Y40847I-1674J1D01*
G37*
G36*
G01X206703Y37426D02*
G03X206692Y37588I-1571J-25D01*
G03X206670Y37714I-1339J-161D01*
G03X206638Y37750I-48J-11D01*
G03X206524Y37722I-34J-103D01*
G03X205118Y36230I711674J-672014D01*
G03X203729Y34749I536471J-504472D01*
G03X203667Y34591I169J-158D01*
G03X203714Y34465I191J0D01*
G03X204930Y33084I676649J594647D01*
G01X206162Y31690D01*
G03X206228Y31688I34J30D01*
G03X206258Y31751I-72J72D01*
G01X206457Y34094D01*
G03X206628Y36161I-455393J38606D01*
G03X206699Y37238I-39504J3167D01*
G03X206703Y37426I-2730J145D01*
G37*
G36*
G01X204357Y41773D02*
G03X204295Y41836I-97J-33D01*
G03X204158Y41862I-146J-400D01*
G03X203770Y41867I-391J-16624D01*
G03X203347Y41859I1J-11110D01*
G03X203163Y41821I22J-567D01*
G03X203076Y41737I57J-146D01*
G03X203044Y41585I349J-152D01*
G03X203076Y41500I131J0D01*
G03X203158Y41450I119J102D01*
G03X203328Y41427I191J783D01*
G03X203711Y41422I384J15026D01*
G03X204142Y41426I0J21620D01*
G03X204289Y41452I-10J496D01*
G03X204355Y41516I-33J101D01*
G03X204378Y41644I-350J129D01*
G03X204357Y41773I-402J0D01*
G37*
G36*
G01X207665Y38687D02*
G03X207658Y38816I-2980J-78D01*
G03X207650Y38923I-5788J-404D01*
G03X207639Y38933I-11J-1D01*
G03X207621Y38926I0J-26D01*
G03X207549Y38860I4408J-4859D01*
G03X207466Y38780I2374J-2540D01*
G03X207372Y38684I4353J-4351D01*
G03X207184Y38453I1334J-1278D01*
G03X207136Y38281I229J-158D01*
G03X207210Y38173I125J6D01*
G03X207400Y38133I190J433D01*
G03X207560Y38145I0J1110D01*
G03X207630Y38189I-15J100D01*
G03X207661Y38283I-154J103D01*
G03X207667Y38533I-5149J251D01*
G03X207665Y38687I-5884J0D01*
G37*
G36*
G01X205886Y30047D02*
G03X205426Y29909I-44J-690D01*
G03X205147Y29494I460J-610D01*
G03X205193Y29007I684J-181D01*
G03X205466Y28691I717J344D01*
G03X205847Y28579I368J547D01*
G03X206221Y28706I-13J652D01*
G03X206477Y29033I-462J626D01*
G03X206544Y29258I-1022J427D01*
G03X206541Y29449I-481J89D01*
G03X206465Y29634I-544J-115D01*
G03X206305Y29844I-1379J-886D01*
G03X205886Y30047I-458J-412D01*
G37*
G36*
G01X226115Y29232D02*
G03X225887Y29098I97J-428D01*
G03X225739Y28825I486J-439D01*
G03X225689Y28440I1476J-387D01*
G03X225724Y28099I1668J-2D01*
G03X225832Y27844I700J146D01*
G03X226005Y27689I394J266D01*
G03X226234Y27633I229J437D01*
G03X226357Y27647I0J551D01*
G03X226468Y27688I-100J436D01*
G03X226564Y27757I-211J394D01*
G03X226644Y27852I-377J400D01*
G03X226713Y27975I-788J527D01*
G03X226753Y28092I-506J238D01*
G03X226773Y28236I-834J184D01*
G03X226777Y28453I-4043J194D01*
G03X226774Y28614I-6139J-34D01*
G03X226766Y28716I-1096J-35D01*
G03X226750Y28797I-608J-77D01*
G03X226724Y28879I-736J-195D01*
G03X226665Y28994I-602J-235D01*
G03X226584Y29097I-588J-379D01*
G03X226491Y29177I-449J-427D01*
G03X226397Y29222I-188J-268D01*
G03X226115Y29232I-159J-530D01*
G37*
G36*
G01X224440Y29194D02*
G03X224303Y29205I-147J-963D01*
G03X224175Y29198I-10J-1072D01*
G03X224133Y29166I6J-51D01*
G03X224127Y29139I81J-31D01*
G03X224123Y29043I7171J-376D01*
G03X224120Y28928I5042J-194D01*
G03X224119Y28799I8036J-127D01*
G01Y28470D01*
X224268Y28484D01*
G03X224474Y28521I-111J1189D01*
G03X224610Y28593I-97J354D01*
G03X224688Y28702I-165J199D01*
G03X224716Y28855I-419J155D01*
G03X224706Y28960I-547J3D01*
G03X224676Y29042I-260J-49D01*
G03X224621Y29108I-213J-122D01*
G03X224539Y29162I-277J-329D01*
G03X224440Y29194I-147J-290D01*
G37*
G36*
G01X334731Y52949D02*
G03X334324Y53605I-44787J-27354D01*
G03X333961Y54179I-225440J-142285D01*
G03X333920Y54201I-41J-26D01*
G03X333880Y54178I0J-47D01*
G01X333267Y53175D01*
G03X332586Y52046I128215J-78147D01*
G03X331790Y50706I251421J-150240D01*
G02X329453Y46758I-1639993J968110D01*
G01X326610Y41975D01*
X323929Y37479D01*
G02X322504Y35109I-353356J210943D01*
G03X322084Y34405I44902J-27218D01*
G03X321748Y33811I22038J-12892D01*
G03X321470Y33302I64382J-35392D01*
G03X321490Y33265I22J-12D01*
G03X321792Y33248I296J2575D01*
G01X334083Y33274D01*
X346498Y33301D01*
G03X346541Y33319I0J61D01*
G03X346544Y33341I-13J13D01*
G01X346203Y33924D01*
G03X345818Y34575I-71239J-41735D01*
G03X345355Y35343I-139115J-83246D01*
G01X343178Y38941D01*
X339870Y44421D01*
X336588Y49863D01*
G02X335202Y52172I721984J435287D01*
G03X334731Y52949I-86611J-51843D01*
G37*
%LPD*%
G75*
G36*
G01X205563Y29657D02*
G02X205655Y29725I284J-288D01*
G02X205762Y29764I193J-358D01*
G02X205888Y29778I126J-583D01*
G02X206160Y29685I0J-448D01*
G02X206318Y29447I-266J-347D01*
G02X206298Y29154I-453J-116D01*
G02X206107Y28923I-467J190D01*
G02X205794Y28838I-287J438D01*
G02X205517Y28963I21J417D01*
G02X205396Y29244I304J298D01*
G02X205484Y29560I539J20D01*
G02X205563Y29657I493J-323D01*
G37*
G36*
G01X332874Y49883D02*
G02X333301Y49913I2028J-25348D01*
G02X333807Y49935I828J-13172D01*
G02X334397Y49942I593J-24081D01*
G01X335924D01*
X335739Y49509D01*
G03X334984Y47722I298211J-127111D01*
G03X334086Y45570I619151J-259569D01*
G01X333137Y43282D01*
G03X333120Y43201I197J-82D01*
G03X333146Y43185I18J0D01*
G03X333692Y43449I-66095J137340D01*
G03X334320Y43761I-16383J33689D01*
G03X335066Y44147I-34733J68173D01*
G02X336021Y44637I32582J-62242D01*
G02X336570Y44889I3612J-7165D01*
G02X336877Y44988I770J-1865D01*
G02X336940Y44921I12J-52D01*
G03X336528Y43432I46102J-13577D01*
G03X335753Y40420I627115J-162996D01*
G01X334880Y36994D01*
G03X334901Y36917I78J-20D01*
G03X334946Y36904I35J35D01*
G03X335086Y36937I-474J2307D01*
G03X335257Y36991I-590J2182D01*
G03X335450Y37065I-1321J3698D01*
G02X335635Y37137I1397J-3348D01*
G02X335784Y37180I451J-1269D01*
G02X335880Y37194I120J-523D01*
G02X335898Y37168I1J-18D01*
G02X335750Y36897I-1498J638D01*
G02X334708Y35356I-573850J386794D01*
G01X333603Y33727D01*
G02X333562Y33723I-22J15D01*
G02X333524Y33793I98J98D01*
G01X333126Y35696D01*
X332742Y37541D01*
G02X332720Y37752I1016J211D01*
G02X332746Y37768I18J0D01*
G02X332834Y37719I-255J-553D01*
G02X332959Y37623I-790J-1160D01*
G02X333107Y37488I-2397J-2794D01*
G01X333494Y37118D01*
X333571Y37497D01*
G03X333770Y38588I-25471J5201D01*
G03X334034Y40299I-142556J22831D01*
G01X334313Y42196D01*
G03X334281Y42293I-113J16D01*
G03X334223Y42304I-37J-37D01*
G03X333640Y42041I44505J-99546D01*
G03X332972Y41728I12944J-28498D01*
G03X332190Y41344I26227J-54314D01*
G02X331205Y40860I-32727J65337D01*
G02X330630Y40607I-3819J7924D01*
G02X330302Y40503I-913J2300D01*
G02X330239Y40570I-12J51D01*
G03X330283Y40722I-5666J1739D01*
G03X330386Y41091I-141087J39299D01*
G03X330506Y41532I-132896J36588D01*
G03X330636Y42009I-182136J49551D01*
G02X331330Y44570I640958J-172483D01*
G02X332045Y47164I679220J-185712D01*
G01X332751Y49706D01*
G02X332810Y49842I531J-147D01*
G02X332874Y49883I71J-43D01*
G37*
G54D10*
G01X196822Y9583D02*
X197052Y9893D01*
X197320Y10048D01*
X197627Y10100D01*
X198010Y9997D01*
X198278Y9738D01*
X198355Y9428D01*
X198317Y9118D01*
X198163Y8860D01*
X197397Y8343D01*
X197052Y7982D01*
X196822Y7465D01*
X196745Y7000D01*
X198355D01*
G01X200250Y10100D02*
X199943Y9997D01*
X199713Y9738D01*
X199560Y9428D01*
X199445Y9015D01*
X199407Y8550D01*
X199445Y8085D01*
X199560Y7672D01*
X199713Y7362D01*
X199943Y7103D01*
X200250Y7000D01*
X200557Y7103D01*
X200787Y7362D01*
X200940Y7672D01*
X201055Y8085D01*
X201093Y8550D01*
X201055Y9015D01*
X200940Y9428D01*
X200787Y9738D01*
X200557Y9997D01*
X200250Y10100D01*
G01X202950Y7000D02*
Y10100D01*
X202490Y9480D01*
G01Y7000D02*
X203410D01*
G01X204922Y8292D02*
X205190Y8653D01*
X205420Y8860D01*
X205727Y8963D01*
X205995Y8860D01*
X206187Y8653D01*
X206340Y8343D01*
X206378Y7982D01*
X206340Y7672D01*
X206187Y7362D01*
X205957Y7103D01*
X205688Y7000D01*
X205382Y7103D01*
X205113Y7413D01*
X204960Y7878D01*
X204922Y8395D01*
X204998Y9067D01*
X205113Y9428D01*
X205305Y9790D01*
X205573Y10048D01*
X205842Y10100D01*
X206110Y9997D01*
X206302Y9738D01*
G01X207852Y8033D02*
X208848D01*
G01X210322Y8292D02*
X210590Y8653D01*
X210820Y8860D01*
X211127Y8963D01*
X211395Y8860D01*
X211587Y8653D01*
X211740Y8343D01*
X211778Y7982D01*
X211740Y7672D01*
X211587Y7362D01*
X211357Y7103D01*
X211088Y7000D01*
X210782Y7103D01*
X210513Y7413D01*
X210360Y7878D01*
X210322Y8395D01*
X210398Y9067D01*
X210513Y9428D01*
X210705Y9790D01*
X210973Y10048D01*
X211242Y10100D01*
X211510Y9997D01*
X211702Y9738D01*
G01X213252Y8033D02*
X214248D01*
G01X216450Y7000D02*
Y10100D01*
X215990Y9480D01*
G01Y7000D02*
X216910D01*
G01X218307Y7620D02*
X218537Y7258D01*
X218843Y7052D01*
X219188Y7000D01*
X219495Y7052D01*
X219802Y7310D01*
X219993Y7620D01*
X220032Y7930D01*
X219955Y8292D01*
X219687Y8550D01*
X219418Y8653D01*
X219073D01*
G01X219418D02*
X219648Y8808D01*
X219840Y9067D01*
X219917Y9377D01*
X219840Y9687D01*
X219648Y9945D01*
X219303Y10100D01*
X218958Y10048D01*
X218613Y9842D01*
G01X196592Y14100D02*
X197550Y11000D01*
X198508Y14100D01*
G01X200557Y12653D02*
X200710Y12808D01*
X200825Y13067D01*
X200902Y13428D01*
X200825Y13738D01*
X200672Y13945D01*
X200403Y14100D01*
X199368D01*
Y11000D01*
X200633D01*
X200902Y11207D01*
X201055Y11517D01*
X201132Y11878D01*
X201055Y12240D01*
X200825Y12550D01*
X200557Y12653D01*
X199368D01*
G01X202183Y11000D02*
Y14100D01*
X203142D01*
X203448Y13945D01*
X203640Y13738D01*
X203717Y13325D01*
X203640Y12912D01*
X203410Y12653D01*
X203142Y12498D01*
X202183D01*
G01X203142D02*
X203717Y11000D01*
G01X204692D02*
X205650Y14100D01*
X206608Y11000D01*
G01X206263Y12085D02*
X205037D01*
G01X208350Y14100D02*
Y11000D01*
G01X207468Y14100D02*
X209232D01*
G01X210590D02*
X211510D01*
G01X211050D02*
Y11000D01*
G01X210590D02*
X211510D01*
G01X213750D02*
X213443Y11052D01*
X213175Y11258D01*
X212945Y11568D01*
X212792Y11930D01*
X212715Y12343D01*
Y12757D01*
X212792Y13170D01*
X212945Y13532D01*
X213175Y13842D01*
X213443Y14048D01*
X213750Y14100D01*
X214057Y14048D01*
X214325Y13842D01*
X214555Y13532D01*
X214708Y13170D01*
X214785Y12757D01*
Y12343D01*
X214708Y11930D01*
X214555Y11568D01*
X214325Y11258D01*
X214057Y11052D01*
X213750Y11000D01*
G01X215568D02*
Y14100D01*
X217332Y11000D01*
Y14100D01*
G01X220892D02*
X221850Y11000D01*
X222808Y14100D01*
G01X223822Y13583D02*
X224052Y13893D01*
X224320Y14048D01*
X224627Y14100D01*
X225010Y13997D01*
X225278Y13738D01*
X225355Y13428D01*
X225317Y13118D01*
X225163Y12860D01*
X224397Y12343D01*
X224052Y11982D01*
X223822Y11465D01*
X223745Y11000D01*
X225355D01*
G01X227250Y10897D02*
X227173Y10948D01*
Y11052D01*
X227250Y11103D01*
X227327Y11052D01*
Y10948D01*
X227250Y10897D01*
G01X229950Y14100D02*
X229643Y13997D01*
X229413Y13738D01*
X229260Y13428D01*
X229145Y13015D01*
X229107Y12550D01*
X229145Y12085D01*
X229260Y11672D01*
X229413Y11362D01*
X229643Y11103D01*
X229950Y11000D01*
X230257Y11103D01*
X230487Y11362D01*
X230640Y11672D01*
X230755Y12085D01*
X230793Y12550D01*
X230755Y13015D01*
X230640Y13428D01*
X230487Y13738D01*
X230257Y13997D01*
X229950Y14100D01*
G01X197550Y15000D02*
Y18100D01*
G01X200250Y15000D02*
X200020Y15052D01*
X199790Y15258D01*
X199637Y15620D01*
X199560Y16033D01*
X199637Y16447D01*
X199790Y16808D01*
X200020Y17015D01*
X200250Y17067D01*
X200480Y17015D01*
X200710Y16808D01*
X200863Y16447D01*
X200902Y16033D01*
X200863Y15620D01*
X200710Y15258D01*
X200480Y15052D01*
X200250Y15000D01*
G01X202950D02*
X202720Y15052D01*
X202490Y15258D01*
X202337Y15620D01*
X202260Y16033D01*
X202337Y16447D01*
X202490Y16808D01*
X202720Y17015D01*
X202950Y17067D01*
X203180Y17015D01*
X203410Y16808D01*
X203563Y16447D01*
X203602Y16033D01*
X203563Y15620D01*
X203410Y15258D01*
X203180Y15052D01*
X202950Y15000D01*
G01X205650D02*
Y18100D01*
G01X210590D02*
X211510D01*
G01X211050D02*
Y15000D01*
G01X210590D02*
X211510D01*
G01X213098D02*
Y17067D01*
G01Y16550D02*
X213252Y16808D01*
X213482Y17015D01*
X213788Y17067D01*
X214057Y17015D01*
X214287Y16808D01*
X214402Y16447D01*
Y15000D01*
G01X217140Y18100D02*
Y15000D01*
G01Y15465D02*
X216987Y15207D01*
X216757Y15052D01*
X216488Y15000D01*
X216182Y15103D01*
X215952Y15362D01*
X215798Y15672D01*
X215760Y16033D01*
X215798Y16395D01*
X215952Y16705D01*
X216182Y16963D01*
X216488Y17067D01*
X216757Y17015D01*
X216948Y16912D01*
X217140Y16705D01*
G01X218575Y15362D02*
X218767Y15155D01*
X219035Y15000D01*
X219265D01*
X219495Y15103D01*
X219648Y15258D01*
X219725Y15465D01*
X219687Y15775D01*
X219533Y15930D01*
X218843Y16240D01*
X218690Y16602D01*
X218767Y16860D01*
X218920Y17015D01*
X219150Y17067D01*
X219380Y17015D01*
X219610Y16860D01*
G01X294792Y16700D02*
X295750Y13600D01*
X296708Y16700D01*
G01X298028Y14633D02*
X298948D01*
G01X298450Y15305D02*
Y13962D01*
G01X294707Y42300D02*
Y45400D01*
G01X296163D02*
X294707Y43488D01*
G01X296393Y42300D02*
X295358Y44367D01*
G01X298557Y43953D02*
X298710Y44108D01*
X298825Y44367D01*
X298902Y44728D01*
X298825Y45038D01*
X298672Y45245D01*
X298403Y45400D01*
X297368D01*
Y42300D01*
X298633D01*
X298902Y42507D01*
X299055Y42817D01*
X299132Y43178D01*
X299055Y43540D01*
X298825Y43850D01*
X298557Y43953D01*
X297368D01*
G01X294707Y53300D02*
Y56400D01*
G01X296163D02*
X294707Y54488D01*
G01X296393Y53300D02*
X295358Y55367D01*
G01X297292Y53300D02*
X298250Y56400D01*
X299208Y53300D01*
G01X298863Y54385D02*
X297637D01*
G01X305792Y16700D02*
X306750Y13600D01*
X307708Y16700D01*
G01X308952Y14633D02*
X309948D01*
G01X303783Y45400D02*
Y42300D01*
X305317D01*
G01X308017D02*
X306483D01*
Y45400D01*
X308017D01*
G01X307403Y43902D02*
X306483D01*
G01X309107Y42300D02*
Y45400D01*
X309873D01*
X310180Y45245D01*
X310410Y45038D01*
X310602Y44728D01*
X310755Y44367D01*
X310793Y43850D01*
X310755Y43333D01*
X310602Y42972D01*
X310410Y42662D01*
X310180Y42455D01*
X309873Y42300D01*
X309107D01*
G01X312152Y43333D02*
X313148D01*
G01X303583Y56350D02*
Y53250D01*
X305117D01*
G01X307817D02*
X306283D01*
Y56350D01*
X307817D01*
G01X307203Y54852D02*
X306283D01*
G01X308907Y53250D02*
Y56350D01*
X309673D01*
X309980Y56195D01*
X310210Y55988D01*
X310402Y55678D01*
X310555Y55317D01*
X310593Y54800D01*
X310555Y54283D01*
X310402Y53922D01*
X310210Y53612D01*
X309980Y53405D01*
X309673Y53250D01*
X308907D01*
G01X312028Y54283D02*
X312948D01*
G01X312450Y54955D02*
Y53612D01*
G01X306725Y384312D02*
X306917Y384105D01*
X307185Y383950D01*
X307415D01*
X307645Y384053D01*
X307798Y384208D01*
X307875Y384415D01*
X307837Y384725D01*
X307683Y384880D01*
X306993Y385190D01*
X306840Y385552D01*
X306917Y385810D01*
X307070Y385965D01*
X307300Y386017D01*
X307530Y385965D01*
X307760Y385810D01*
G01X319160Y411017D02*
X319850Y408950D01*
X320540Y411017D01*
G01X322052Y409983D02*
X323048D01*
G01X332960Y386317D02*
X333650Y384250D01*
X334340Y386317D01*
G01X335928Y385283D02*
X336848D01*
G01X336350Y385955D02*
Y384612D01*
G54D11*
G01X250400Y64000D02*
X219400D01*
G01Y95000D02*
Y64000D01*
G01Y208000D02*
Y239000D01*
G01X250400D02*
X219400D01*
G01X290600Y20600D02*
Y8600D01*
G01D02*
X302600D01*
G01Y20600D02*
X290600D01*
G01X290400Y49300D02*
Y37300D01*
G01D02*
X302400D01*
G01Y49300D02*
X290400D01*
G01D02*
Y61300D01*
G01X302400D02*
X290400D01*
G01X314600Y20600D02*
Y8600D01*
G01X302600Y20600D02*
Y8600D01*
G01X314600D02*
X302600D01*
G01Y20600D02*
X314600D01*
G01X302400Y49300D02*
Y37300D01*
G01X314400Y49300D02*
Y37300D01*
G01D02*
X302400D01*
G01Y49300D02*
Y61300D01*
G01Y49300D02*
X314400D01*
G01Y61300D02*
Y49300D01*
G01X302400Y61300D02*
X314400D01*
G54D12*
G01X13223Y109394D02*
X8577D01*
Y118606D01*
X13223D01*
Y109394D01*
G01X8577Y129106D02*
X13223D01*
Y119894D01*
X8577D01*
Y129106D01*
G01X13223Y132394D02*
X8577D01*
Y141606D01*
X13223D01*
Y132394D01*
G01X16723Y62386D02*
X12077D01*
Y71598D01*
X16723D01*
Y62386D01*
G01X26723Y79386D02*
X22077D01*
Y88598D01*
X26723D01*
Y79386D01*
G01X31723D02*
X27077D01*
Y88598D01*
X31723D01*
Y79386D01*
G01X21723D02*
X17077D01*
Y88598D01*
X21723D01*
Y79386D01*
G01X41723D02*
X37077D01*
Y88598D01*
X41723D01*
Y79386D01*
G01X46723D02*
X42077D01*
Y88598D01*
X46723D01*
Y79386D01*
G01X36723D02*
X32077D01*
Y88598D01*
X36723D01*
Y79386D01*
G01X38077Y178614D02*
X42723D01*
Y169402D01*
X38077D01*
Y178614D01*
G01X31077D02*
X35723D01*
Y169402D01*
X31077D01*
Y178614D01*
G01X46723Y289386D02*
X42077D01*
Y298598D01*
X46723D01*
Y289386D01*
G01X41723D02*
X37077D01*
Y298598D01*
X41723D01*
Y289386D01*
G01Y299386D02*
X37077D01*
Y308598D01*
X41723D01*
Y299386D01*
G01X46723D02*
X42077D01*
Y308598D01*
X46723D01*
Y299386D01*
G01X47723Y320386D02*
X43077D01*
Y329598D01*
X47723D01*
Y320386D01*
G01X41723Y330386D02*
X37077D01*
Y339598D01*
X41723D01*
Y330386D01*
G01X37077Y329614D02*
X41723D01*
Y320402D01*
X37077D01*
Y329614D01*
G01X47723Y330386D02*
X43077D01*
Y339598D01*
X47723D01*
Y330386D01*
G01X46014Y347323D02*
Y342677D01*
X36802D01*
Y347323D01*
X46014D01*
G01X61723Y79386D02*
X57077D01*
Y88598D01*
X61723D01*
Y79386D01*
G01X51723D02*
X47077D01*
Y88598D01*
X51723D01*
Y79386D01*
G01X56723D02*
X52077D01*
Y88598D01*
X56723D01*
Y79386D01*
G01X45077Y178614D02*
X49723D01*
Y169402D01*
X45077D01*
Y178614D01*
G01X59077D02*
X63723D01*
Y169402D01*
X59077D01*
Y178614D01*
G01X52077D02*
X56723D01*
Y169402D01*
X52077D01*
Y178614D01*
G01X44077Y248614D02*
X48723D01*
Y239402D01*
X44077D01*
Y248614D01*
G01Y268614D02*
X48723D01*
Y259402D01*
X44077D01*
Y268614D01*
G01X48723Y269386D02*
X44077D01*
Y278598D01*
X48723D01*
Y269386D01*
G01X60014Y294323D02*
Y289677D01*
X50802D01*
Y294323D01*
X60014D01*
G01X50786Y308677D02*
Y313323D01*
X59998D01*
Y308677D01*
X50786D01*
G01X60014Y319323D02*
Y314677D01*
X50802D01*
Y319323D01*
X60014D01*
G01X66723Y79386D02*
X62077D01*
Y88598D01*
X66723D01*
Y79386D01*
G01X71723D02*
X67077D01*
Y88598D01*
X71723D01*
Y79386D01*
G01X76723D02*
X72077D01*
Y88598D01*
X76723D01*
Y79386D01*
G01X63786Y289677D02*
Y294323D01*
X72998D01*
Y289677D01*
X63786D01*
G01X74014Y346323D02*
Y341677D01*
X64802D01*
Y346323D01*
X74014D01*
G01X64786Y347677D02*
Y352323D01*
X73998D01*
Y347677D01*
X64786D01*
G01X90676Y74835D02*
X100124D01*
Y89008D01*
X90676D01*
Y74835D01*
G01X87723Y62386D02*
X83077D01*
Y71598D01*
X87723D01*
Y62386D01*
G01X81723Y79394D02*
X77077D01*
Y88606D01*
X81723D01*
Y79394D01*
G01X89006Y262323D02*
Y257677D01*
X79794D01*
Y262323D01*
X89006D01*
G01X79786Y267677D02*
Y272323D01*
X88998D01*
Y267677D01*
X79786D01*
G01X89014Y277323D02*
Y272677D01*
X79802D01*
Y277323D01*
X89014D01*
G01X86723Y289386D02*
X82077D01*
Y298598D01*
X86723D01*
Y289386D01*
G01X81723D02*
X77077D01*
Y298598D01*
X81723D01*
Y289386D01*
G01X86723Y299386D02*
X82077D01*
Y308598D01*
X86723D01*
Y299386D01*
G01X81723D02*
X77077D01*
Y308598D01*
X81723D01*
Y299386D01*
G01X80077Y329614D02*
X84723D01*
Y320402D01*
X80077D01*
Y329614D01*
G01X85077Y339614D02*
X89723D01*
Y330402D01*
X85077D01*
Y339614D01*
G01Y329614D02*
X89723D01*
Y320402D01*
X85077D01*
Y329614D01*
G01X84723Y330386D02*
X80077D01*
Y339598D01*
X84723D01*
Y330386D01*
G01X88723Y354386D02*
X84077D01*
Y363598D01*
X88723D01*
Y354386D01*
G01X84077Y373614D02*
X88723D01*
Y364402D01*
X84077D01*
Y373614D01*
G01X101014Y106323D02*
Y101677D01*
X91802D01*
Y106323D01*
X101014D01*
G01Y126323D02*
Y121677D01*
X91802D01*
Y126323D01*
X101014D01*
G01X91786Y126677D02*
Y131323D01*
X100998D01*
Y126677D01*
X91786D01*
G01Y131677D02*
Y136323D01*
X100998D01*
Y131677D01*
X91786D01*
G01Y147677D02*
Y152323D01*
X100998D01*
Y147677D01*
X91786D01*
G01X101014Y146323D02*
Y141677D01*
X91802D01*
Y146323D01*
X101014D01*
G01X91786Y167677D02*
Y172323D01*
X100998D01*
Y167677D01*
X91786D01*
G01Y175677D02*
Y180323D01*
X100998D01*
Y175677D01*
X91786D01*
G01Y182677D02*
Y187323D01*
X100998D01*
Y182677D01*
X91786D01*
G01Y187677D02*
Y192323D01*
X100998D01*
Y187677D01*
X91786D01*
G01Y192677D02*
Y197323D01*
X100998D01*
Y192677D01*
X91786D01*
G01X111723Y289386D02*
X107077D01*
Y298598D01*
X111723D01*
Y289386D01*
G01Y299386D02*
X107077D01*
Y308598D01*
X111723D01*
Y299386D01*
G01Y330386D02*
X107077D01*
Y339598D01*
X111723D01*
Y330386D01*
G01X107077Y329614D02*
X111723D01*
Y320402D01*
X107077D01*
Y329614D01*
G01X116014Y347323D02*
Y342677D01*
X106802D01*
Y347323D01*
X116014D01*
G01X109077Y88614D02*
X113723D01*
Y79402D01*
X109077D01*
Y88614D01*
G01X122077Y112614D02*
X126723D01*
Y103402D01*
X122077D01*
Y112614D01*
G01X117077D02*
X121723D01*
Y103402D01*
X117077D01*
Y112614D01*
G01X127614Y219123D02*
Y214477D01*
X118402D01*
Y219123D01*
X127614D01*
G01X114077Y268614D02*
X118723D01*
Y259402D01*
X114077D01*
Y268614D01*
G01X118723Y269386D02*
X114077D01*
Y278598D01*
X118723D01*
Y269386D01*
G01X116723Y289386D02*
X112077D01*
Y298598D01*
X116723D01*
Y289386D01*
G01X130014Y294323D02*
Y289677D01*
X120802D01*
Y294323D01*
X130014D01*
G01X120786Y308677D02*
Y313323D01*
X129998D01*
Y308677D01*
X120786D01*
G01X116723Y299386D02*
X112077D01*
Y308598D01*
X116723D01*
Y299386D01*
G01X117723Y320386D02*
X113077D01*
Y329598D01*
X117723D01*
Y320386D01*
G01X130014Y319323D02*
Y314677D01*
X120802D01*
Y319323D01*
X130014D01*
G01X117723Y330386D02*
X113077D01*
Y339598D01*
X117723D01*
Y330386D01*
G01X134723Y18394D02*
X130077D01*
Y27606D01*
X134723D01*
Y18394D01*
G01Y28394D02*
X130077D01*
Y37606D01*
X134723D01*
Y28394D01*
G01Y38394D02*
X130077D01*
Y47606D01*
X134723D01*
Y38394D01*
G01X132077Y88614D02*
X136723D01*
Y79402D01*
X132077D01*
Y88614D01*
G01X141723Y103386D02*
X137077D01*
Y112598D01*
X141723D01*
Y103386D01*
G01X137386Y214477D02*
Y219123D01*
X146598D01*
Y214477D01*
X137386D01*
G01X128677Y223414D02*
X133323D01*
Y214202D01*
X128677D01*
Y223414D01*
G01Y233414D02*
X133323D01*
Y224202D01*
X128677D01*
Y233414D01*
G01X133786Y289677D02*
Y294323D01*
X142998D01*
Y289677D01*
X133786D01*
G01X144014Y346323D02*
Y341677D01*
X134802D01*
Y346323D01*
X144014D01*
G01X134786Y347677D02*
Y352323D01*
X143998D01*
Y347677D01*
X134786D01*
G01X146723Y79386D02*
X142077D01*
Y88598D01*
X146723D01*
Y79386D01*
G01X152677Y223414D02*
X157323D01*
Y214202D01*
X152677D01*
Y223414D01*
G01Y233414D02*
X157323D01*
Y224202D01*
X152677D01*
Y233414D01*
G01X159006Y262323D02*
Y257677D01*
X149794D01*
Y262323D01*
X159006D01*
G01Y267323D02*
Y262677D01*
X149794D01*
Y267323D01*
X159006D01*
G01X149786Y267677D02*
Y272323D01*
X158998D01*
Y267677D01*
X149786D01*
G01X159014Y277323D02*
Y272677D01*
X149802D01*
Y277323D01*
X159014D01*
G01X151723Y289386D02*
X147077D01*
Y298598D01*
X151723D01*
Y289386D01*
G01X156723D02*
X152077D01*
Y298598D01*
X156723D01*
Y289386D01*
G01Y299386D02*
X152077D01*
Y308598D01*
X156723D01*
Y299386D01*
G01X151723D02*
X147077D01*
Y308598D01*
X151723D01*
Y299386D01*
G01X150077Y329614D02*
X154723D01*
Y320402D01*
X150077D01*
Y329614D01*
G01X154723Y330386D02*
X150077D01*
Y339598D01*
X154723D01*
Y330386D01*
G01X158723Y354386D02*
X154077D01*
Y363598D01*
X158723D01*
Y354386D01*
G01X154077Y373614D02*
X158723D01*
Y364402D01*
X154077D01*
Y373614D01*
G01X167786Y23677D02*
Y28323D01*
X176998D01*
Y23677D01*
X167786D01*
G01X177014Y34323D02*
Y29677D01*
X167802D01*
Y34323D01*
X177014D01*
G01X166723Y79386D02*
X162077D01*
Y88598D01*
X166723D01*
Y79386D01*
G01X162723Y103386D02*
X158077D01*
Y112598D01*
X162723D01*
Y103386D01*
G01X170077Y223614D02*
X174723D01*
Y214402D01*
X170077D01*
Y223614D01*
G01X155077Y339614D02*
X159723D01*
Y330402D01*
X155077D01*
Y339614D01*
G01Y329614D02*
X159723D01*
Y320402D01*
X155077D01*
Y329614D01*
G01X186723Y79386D02*
X182077D01*
Y88598D01*
X186723D01*
Y79386D01*
G01X176723D02*
X172077D01*
Y88598D01*
X176723D01*
Y79386D01*
G01X189723Y103386D02*
X185077D01*
Y112598D01*
X189723D01*
Y103386D01*
G01X184723D02*
X180077D01*
Y112598D01*
X184723D01*
Y103386D01*
G01X184077Y268614D02*
X188723D01*
Y259402D01*
X184077D01*
Y268614D01*
G01X188723Y269386D02*
X184077D01*
Y278598D01*
X188723D01*
Y269386D01*
G01X186723Y289386D02*
X182077D01*
Y298598D01*
X186723D01*
Y289386D01*
G01X181723D02*
X177077D01*
Y298598D01*
X181723D01*
Y289386D01*
G01Y299386D02*
X177077D01*
Y308598D01*
X181723D01*
Y299386D01*
G01X186723D02*
X182077D01*
Y308598D01*
X186723D01*
Y299386D01*
G01X187723Y320386D02*
X183077D01*
Y329598D01*
X187723D01*
Y320386D01*
G01X181723Y330386D02*
X177077D01*
Y339598D01*
X181723D01*
Y330386D01*
G01X177077Y329614D02*
X181723D01*
Y320402D01*
X177077D01*
Y329614D01*
G01X187723Y330386D02*
X183077D01*
Y339598D01*
X187723D01*
Y330386D01*
G01X186014Y347323D02*
Y342677D01*
X176802D01*
Y347323D01*
X186014D01*
G01X196723Y79386D02*
X192077D01*
Y88598D01*
X196723D01*
Y79386D01*
G01X211014Y156323D02*
Y151677D01*
X201802D01*
Y156323D01*
X211014D01*
G01Y190323D02*
Y185677D01*
X201802D01*
Y190323D01*
X211014D01*
G01Y176323D02*
Y171677D01*
X201802D01*
Y176323D01*
X211014D01*
G01Y201323D02*
Y196677D01*
X201802D01*
Y201323D01*
X211014D01*
G01X200014Y294323D02*
Y289677D01*
X190802D01*
Y294323D01*
X200014D01*
G01X190786Y308677D02*
Y313323D01*
X199998D01*
Y308677D01*
X190786D01*
G01X200014Y319323D02*
Y314677D01*
X190802D01*
Y319323D01*
X200014D01*
G01X226606Y88323D02*
Y83677D01*
X217394D01*
Y88323D01*
X226606D01*
G01X221323Y118394D02*
X216677D01*
Y127606D01*
X221323D01*
Y118394D01*
G01X216677Y137614D02*
X221323D01*
Y128402D01*
X216677D01*
Y137614D01*
G01X214386Y180677D02*
Y185323D01*
X223598D01*
Y180677D01*
X214386D01*
G01X223606Y194323D02*
Y189677D01*
X214394D01*
Y194323D01*
X223606D01*
G01X225606Y230323D02*
Y225677D01*
X216394D01*
Y230323D01*
X225606D01*
G01X221723Y289386D02*
X217077D01*
Y298598D01*
X221723D01*
Y289386D01*
G01X203786Y289677D02*
Y294323D01*
X212998D01*
Y289677D01*
X203786D01*
G01X221723Y299386D02*
X217077D01*
Y308598D01*
X221723D01*
Y299386D01*
G01X214014Y346323D02*
Y341677D01*
X204802D01*
Y346323D01*
X214014D01*
G01X204786Y347677D02*
Y352323D01*
X213998D01*
Y347677D01*
X204786D01*
G01X240614Y88323D02*
Y83677D01*
X231402D01*
Y88323D01*
X240614D01*
G01X222677Y127606D02*
X227323D01*
Y118394D01*
X222677D01*
Y127606D01*
G01Y137606D02*
X227323D01*
Y128394D01*
X222677D01*
Y137606D01*
G01X229006Y262323D02*
Y257677D01*
X219794D01*
Y262323D01*
X229006D01*
G01X219786Y267677D02*
Y272323D01*
X228998D01*
Y267677D01*
X219786D01*
G01X229014Y277323D02*
Y272677D01*
X219802D01*
Y277323D01*
X229014D01*
G01X226723Y289386D02*
X222077D01*
Y298598D01*
X226723D01*
Y289386D01*
G01Y299386D02*
X222077D01*
Y308598D01*
X226723D01*
Y299386D01*
G01X220077Y329614D02*
X224723D01*
Y320402D01*
X220077D01*
Y329614D01*
G01X225077Y339614D02*
X229723D01*
Y330402D01*
X225077D01*
Y339614D01*
G01Y329614D02*
X229723D01*
Y320402D01*
X225077D01*
Y329614D01*
G01X224723Y330386D02*
X220077D01*
Y339598D01*
X224723D01*
Y330386D01*
G01X228723Y354386D02*
X224077D01*
Y363598D01*
X228723D01*
Y354386D01*
G01X224077Y373614D02*
X228723D01*
Y364402D01*
X224077D01*
Y373614D01*
G01X247606Y194323D02*
Y189677D01*
X238394D01*
Y194323D01*
X247606D01*
G01X249606Y230323D02*
Y225677D01*
X240394D01*
Y230323D01*
X249606D01*
G01X251723Y289386D02*
X247077D01*
Y298598D01*
X251723D01*
Y289386D01*
G01Y299386D02*
X247077D01*
Y308598D01*
X251723D01*
Y299386D01*
G01Y330386D02*
X247077D01*
Y339598D01*
X251723D01*
Y330386D01*
G01X247077Y329614D02*
X251723D01*
Y320402D01*
X247077D01*
Y329614D01*
G01X256014Y347323D02*
Y342677D01*
X246802D01*
Y347323D01*
X256014D01*
G01X262606Y88323D02*
Y83677D01*
X253394D01*
Y88323D01*
X262606D01*
G01X257323Y118386D02*
X252677D01*
Y127598D01*
X257323D01*
Y118386D01*
G01X258677Y127606D02*
X263323D01*
Y118394D01*
X258677D01*
Y127606D01*
G01Y137606D02*
X263323D01*
Y128394D01*
X258677D01*
Y137606D01*
G01X252677Y137614D02*
X257323D01*
Y128402D01*
X252677D01*
Y137614D01*
G01X262386Y180677D02*
Y185323D01*
X271598D01*
Y180677D01*
X262386D01*
G01X273614Y194323D02*
Y189677D01*
X264402D01*
Y194323D01*
X273614D01*
G01X273606Y230323D02*
Y225677D01*
X264394D01*
Y230323D01*
X273606D01*
G01X254077Y268614D02*
X258723D01*
Y259402D01*
X254077D01*
Y268614D01*
G01X258723Y269386D02*
X254077D01*
Y278598D01*
X258723D01*
Y269386D01*
G01X256723Y289386D02*
X252077D01*
Y298598D01*
X256723D01*
Y289386D01*
G01X270014Y294323D02*
Y289677D01*
X260802D01*
Y294323D01*
X270014D01*
G01X260786Y308677D02*
Y313323D01*
X269998D01*
Y308677D01*
X260786D01*
G01X256723Y299386D02*
X252077D01*
Y308598D01*
X256723D01*
Y299386D01*
G01X257723Y320386D02*
X253077D01*
Y329598D01*
X257723D01*
Y320386D01*
G01X270014Y319323D02*
Y314677D01*
X260802D01*
Y319323D01*
X270014D01*
G01X257723Y330386D02*
X253077D01*
Y339598D01*
X257723D01*
Y330386D01*
G01X276614Y88323D02*
Y83677D01*
X267402D01*
Y88323D01*
X276614D01*
G01X274386Y189677D02*
Y194323D01*
X283598D01*
Y189677D01*
X274386D01*
G01X283606Y230323D02*
Y225677D01*
X274394D01*
Y230323D01*
X283606D01*
G01X273786Y289677D02*
Y294323D01*
X282998D01*
Y289677D01*
X273786D01*
G01X284014Y346323D02*
Y341677D01*
X274802D01*
Y346323D01*
X284014D01*
G01X274786Y347677D02*
Y352323D01*
X283998D01*
Y347677D01*
X274786D01*
G01X283077Y40614D02*
X287723D01*
Y31402D01*
X283077D01*
Y40614D01*
G01X298606Y88323D02*
Y83677D01*
X289394D01*
Y88323D01*
X298606D01*
G01X293823Y118394D02*
X289177D01*
Y127606D01*
X293823D01*
Y118394D01*
G01X294677Y127606D02*
X299323D01*
Y118394D01*
X294677D01*
Y127606D01*
G01Y137606D02*
X299323D01*
Y128394D01*
X294677D01*
Y137606D01*
G01X289177D02*
X293823D01*
Y128394D01*
X289177D01*
Y137606D01*
G01X295614Y194323D02*
Y189677D01*
X286402D01*
Y194323D01*
X295614D01*
G01X296386Y189677D02*
Y194323D01*
X305598D01*
Y189677D01*
X296386D01*
G01X305606Y230323D02*
Y225677D01*
X296394D01*
Y230323D01*
X305606D01*
G01X295606D02*
Y225677D01*
X286394D01*
Y230323D01*
X295606D01*
G01X299006Y262323D02*
Y257677D01*
X289794D01*
Y262323D01*
X299006D01*
G01Y267323D02*
Y262677D01*
X289794D01*
Y267323D01*
X299006D01*
G01X289786Y267677D02*
Y272323D01*
X298998D01*
Y267677D01*
X289786D01*
G01X299014Y277323D02*
Y272677D01*
X289802D01*
Y277323D01*
X299014D01*
G01X296723Y289386D02*
X292077D01*
Y298598D01*
X296723D01*
Y289386D01*
G01X291723D02*
X287077D01*
Y298598D01*
X291723D01*
Y289386D01*
G01X296723Y299386D02*
X292077D01*
Y308598D01*
X296723D01*
Y299386D01*
G01X291723D02*
X287077D01*
Y308598D01*
X291723D01*
Y299386D01*
G01X290077Y329614D02*
X294723D01*
Y320402D01*
X290077D01*
Y329614D01*
G01X295077Y339614D02*
X299723D01*
Y330402D01*
X295077D01*
Y339614D01*
G01Y329614D02*
X299723D01*
Y320402D01*
X295077D01*
Y329614D01*
G01X294723Y330386D02*
X290077D01*
Y339598D01*
X294723D01*
Y330386D01*
G01X298723Y354386D02*
X294077D01*
Y363598D01*
X298723D01*
Y354386D01*
G01X294077Y373614D02*
X298723D01*
Y364402D01*
X294077D01*
Y373614D01*
G01X312614Y88323D02*
Y83677D01*
X303402D01*
Y88323D01*
X312614D01*
G01X312606Y178323D02*
Y173677D01*
X303394D01*
Y178323D01*
X312606D01*
G01X317614Y194323D02*
Y189677D01*
X308402D01*
Y194323D01*
X317614D01*
G01X317606Y230323D02*
Y225677D01*
X308394D01*
Y230323D01*
X317606D01*
G01X311077Y271614D02*
X315723D01*
Y262402D01*
X311077D01*
Y271614D01*
G01X310077Y302614D02*
X314723D01*
Y293402D01*
X310077D01*
Y302614D01*
G01X314723Y283386D02*
X310077D01*
Y292598D01*
X314723D01*
Y283386D01*
G01X310786Y305677D02*
Y310323D01*
X319998D01*
Y305677D01*
X310786D01*
G01X310723Y341386D02*
X306077D01*
Y350598D01*
X310723D01*
Y341386D01*
G01Y352386D02*
X306077D01*
Y361598D01*
X310723D01*
Y352386D01*
G01X326386Y83677D02*
Y88323D01*
X335598D01*
Y83677D01*
X326386D01*
G01X318386Y189677D02*
Y194323D01*
X327598D01*
Y189677D01*
X318386D01*
G01X327606Y230323D02*
Y225677D01*
X318394D01*
Y230323D01*
X327606D01*
G01X320786Y319677D02*
Y324323D01*
X329998D01*
Y319677D01*
X320786D01*
G01X325077Y350614D02*
X329723D01*
Y341402D01*
X325077D01*
Y350614D01*
G01X347614Y88323D02*
Y83677D01*
X338402D01*
Y88323D01*
X347614D01*
G01X342394Y89677D02*
Y94323D01*
X351606D01*
Y89677D01*
X342394D01*
G01X351606Y100323D02*
Y95677D01*
X342394D01*
Y100323D01*
X351606D01*
G01Y106323D02*
Y101677D01*
X342394D01*
Y106323D01*
X351606D01*
G01Y112323D02*
Y107677D01*
X342394D01*
Y112323D01*
X351606D01*
G01X343606Y201323D02*
Y196677D01*
X334394D01*
Y201323D01*
X343606D01*
G01X343614Y194323D02*
Y189677D01*
X334402D01*
Y194323D01*
X343614D01*
G01X341614Y223323D02*
Y218677D01*
X332402D01*
Y223323D01*
X341614D01*
G01X350323Y204386D02*
X345677D01*
Y213598D01*
X350323D01*
Y204386D01*
G01X349723Y261386D02*
X345077D01*
Y270598D01*
X349723D01*
Y261386D01*
G01X345077Y280614D02*
X349723D01*
Y271402D01*
X345077D01*
Y280614D01*
G01X349723Y283386D02*
X345077D01*
Y292598D01*
X349723D01*
Y283386D01*
G01X345077Y302614D02*
X349723D01*
Y293402D01*
X345077D01*
Y302614D01*
G01X340786Y319677D02*
Y324323D01*
X349998D01*
Y319677D01*
X340786D01*
G01X340014Y324323D02*
Y319677D01*
X330802D01*
Y324323D01*
X340014D01*
G01X349723Y342386D02*
X345077D01*
Y351598D01*
X349723D01*
Y342386D01*
G01Y352386D02*
X345077D01*
Y361598D01*
X349723D01*
Y352386D01*
G01X340786Y362677D02*
Y367323D01*
X349998D01*
Y362677D01*
X340786D01*
G54D13*
G01X25333Y96032D02*
G03I-492J0D01*
G01X51506Y280811D02*
G03I-492J0D01*
G01X52120Y307854D02*
G03I-492J0D01*
G01X50924Y341327D02*
G03I-492J0D01*
G01X44892Y385496D02*
G03I-492J0D01*
G01X81042Y234575D02*
G03I-492J0D01*
G01X81861Y352673D02*
G03I-492J0D01*
G01X96582Y22812D02*
G03I-492J0D01*
G01X121506Y280811D02*
G03I-492J0D01*
G01X122120Y307854D02*
G03I-492J0D01*
G01X120924Y341327D02*
G03I-492J0D01*
G01X114892Y385496D02*
G03I-492J0D01*
G01X151779Y233963D02*
X134479D01*
Y219763D01*
X151779D01*
Y233963D01*
G01X148592Y235734D02*
G03I-492J0D01*
G01X151861Y352673D02*
G03I-492J0D01*
G01X184892Y385496D02*
G03I-492J0D01*
G01X189451Y208968D02*
G03I-492J0D01*
G01X191506Y280811D02*
G03I-492J0D01*
G01X192120Y307854D02*
G03I-492J0D01*
G01X190924Y341327D02*
G03I-492J0D01*
G01X212156Y73000D02*
G03I-492J0D01*
G01X221861Y352673D02*
G03I-492J0D01*
G01X243634Y76000D02*
G03I-492J0D01*
G01X238319Y115598D02*
G03I-492J0D01*
G01X241319Y222598D02*
G03I-492J0D01*
G01X263319D02*
G03I-492J0D01*
G01X261506Y280811D02*
G03I-492J0D01*
G01X262120Y307854D02*
G03I-492J0D01*
G01X260924Y341327D02*
G03I-492J0D01*
G01X254892Y385496D02*
G03I-492J0D01*
G01X279634Y76000D02*
G03I-492J0D01*
G01X274319Y115598D02*
G03I-492J0D01*
G01X285319Y222598D02*
G03I-492J0D01*
G01X291861Y352673D02*
G03I-492J0D01*
G01X315634Y76000D02*
G03I-492J0D01*
G01X310319Y115598D02*
G03I-492J0D01*
G01X307319Y222598D02*
G03I-492J0D01*
G01X322350Y76000D02*
G03I-492J0D01*
G01X318949Y82929D02*
G03I-492J0D01*
G01X331602Y202898D02*
G03I-492J0D01*
G01X329319Y222598D02*
G03I-492J0D01*
G01X317876Y312850D02*
G03I-492J0D01*
G01X320396Y312000D02*
G03I-492J0D01*
G01X326404Y334000D02*
G03I-492J0D01*
G01X324746Y361575D02*
G03I-492J0D01*
G01X327404Y370000D02*
G03I-492J0D01*
G01X341346Y113575D02*
G03I-492J0D01*
G01X343057Y260673D02*
G03I-492J0D01*
G01X342861Y282673D02*
G03I-492J0D01*
G01X332908Y353150D02*
G03I-492J0D01*
G01Y366150D02*
G03I-492J0D01*
G54D14*
G01X8600Y88834D02*
Y75434D01*
X16100D01*
Y88834D01*
X8600D01*
G01X8109Y229161D02*
X80550D01*
Y191957D01*
X8109D01*
Y229161D01*
G01X17250Y419150D02*
X19218Y417181D01*
Y395134D01*
X8982D01*
Y417181D01*
X10950Y419150D01*
X17250D01*
G01X18345Y71787D02*
X81337D01*
Y-10890D01*
X18345D01*
Y71787D01*
G01X77006Y102331D02*
X25038D01*
Y154299D01*
X77006D01*
Y102331D01*
G01X21415Y387315D02*
X60785D01*
Y426685D01*
X21415D01*
Y387315D01*
G01X14100Y408913D02*
X16462Y406551D01*
X11738D01*
X14100Y408913D01*
G01X16462D02*
X11738D01*
G01X14100Y411669D02*
Y402614D01*
G01X17478Y435740D02*
X64722D01*
G01X17478Y439677D02*
X64722D01*
G01X21415Y426685D02*
X13541D01*
Y435740D01*
X17478D01*
Y455425D01*
X23384D01*
Y485740D01*
X21415D01*
Y487709D01*
X23384D01*
Y502669D01*
X58816D01*
Y487709D01*
X60785D01*
Y485740D01*
X58816D01*
Y455425D01*
X64722D01*
Y435740D01*
X68659D01*
Y426685D01*
X60785D01*
G01X17478Y443614D02*
X64722D01*
G01X17478Y447551D02*
X64722D01*
G01X17478Y451488D02*
X64722D01*
G01X17478Y455425D02*
X64722D01*
G01X35600Y272834D02*
Y259434D01*
X43100D01*
Y272834D01*
X35600D01*
G01X38101Y381165D02*
X35739D01*
Y352425D01*
X38101D01*
G01X29289Y435740D02*
Y426685D01*
G01X57215Y259157D02*
Y278842D01*
X71585D01*
Y259157D01*
X57215D01*
G01X47566Y281200D02*
X60966D01*
Y288700D01*
X47566D01*
Y281200D01*
G01X57731Y295256D02*
X66392D01*
G01X57731Y307067D02*
X66392D01*
G01X56928Y320854D02*
Y340146D01*
X69132D01*
Y320854D01*
X56928D01*
G01X50566Y341200D02*
X63966D01*
Y348700D01*
X50566D01*
Y341200D01*
G01X50699Y381165D02*
X53061D01*
Y352425D01*
X50699D01*
G01X52911Y435740D02*
Y426685D01*
G01X76234Y288800D02*
X62834D01*
Y281300D01*
X76234D01*
Y288800D01*
G01X60566Y312200D02*
X73966D01*
Y319700D01*
X60566D01*
Y312200D01*
G01X75069Y373146D02*
Y353854D01*
X62471D01*
Y373146D01*
X75069D01*
G01X69991Y378000D02*
X76684D01*
G01X67628Y379968D02*
Y376032D01*
G01X68022Y378000D02*
X69991Y376032D01*
Y379968D01*
X68022Y378000D01*
X61723D01*
G01X71250Y419150D02*
X73218Y417181D01*
Y395134D01*
X62982D01*
Y417181D01*
X64950Y419150D01*
X71250D01*
G01X68100Y408913D02*
X70462Y406551D01*
X65738D01*
X68100Y408913D01*
G01X70462D02*
X65738D01*
G01X68100Y411669D02*
Y402614D01*
G01X83491Y18580D02*
X94909D01*
Y16021D01*
X83491D01*
Y18580D01*
G01X82600Y88834D02*
Y75434D01*
X90100D01*
Y88834D01*
X82600D01*
G01X90600Y277834D02*
Y264434D01*
X98100D01*
Y277834D01*
X90600D01*
G01X79566Y279200D02*
X92966D01*
Y286700D01*
X79566D01*
Y279200D01*
G01X75566Y341200D02*
X88966D01*
Y348700D01*
X75566D01*
Y341200D01*
G01X87250Y419150D02*
X89218Y417181D01*
Y395134D01*
X78982D01*
Y417181D01*
X80950Y419150D01*
X87250D01*
G01X84100Y408913D02*
X86462Y406551D01*
X81738D01*
X84100Y408913D01*
G01X86462D02*
X81738D01*
G01X84100Y411669D02*
Y402614D01*
G01X87478Y435740D02*
X134722D01*
G01X87478Y439677D02*
X134722D01*
G01X91415Y426685D02*
X83541D01*
Y435740D01*
X87478D01*
Y455425D01*
X93384D01*
Y485740D01*
X91415D01*
Y487709D01*
X93384D01*
Y502669D01*
X128816D01*
Y487709D01*
X130785D01*
Y485740D01*
X128816D01*
Y455425D01*
X134722D01*
Y435740D01*
X138659D01*
Y426685D01*
X130785D01*
G01X87478Y443614D02*
X134722D01*
G01X87478Y447551D02*
X134722D01*
G01X87478Y451488D02*
X134722D01*
G01X87478Y455425D02*
X134722D01*
G01X108200Y75166D02*
Y88566D01*
X100700D01*
Y75166D01*
X108200D01*
G01X105600Y272834D02*
Y259434D01*
X113100D01*
Y272834D01*
X105600D01*
G01X108101Y381165D02*
X105739D01*
Y352425D01*
X108101D01*
G01X91415Y387315D02*
X130785D01*
Y426685D01*
X91415D01*
Y387315D01*
G01X99289Y435740D02*
Y426685D01*
G01X209400Y58000D02*
X109400D01*
Y78000D01*
X209400D01*
Y58000D01*
G01X114156Y202669D02*
X189746D01*
Y127079D01*
X114156D01*
Y202669D01*
G01X114166Y220000D02*
X127566D01*
Y227500D01*
X114166D01*
Y220000D01*
G01Y229000D02*
X127566D01*
Y236500D01*
X114166D01*
Y229000D01*
G01X117566Y281200D02*
X130966D01*
Y288700D01*
X117566D01*
Y281200D01*
G01X120566Y341200D02*
X133966D01*
Y348700D01*
X120566D01*
Y341200D01*
G01X120699Y381165D02*
X123061D01*
Y352425D01*
X120699D01*
G01X122911Y435740D02*
Y426685D01*
G01X156242Y47591D02*
Y-3590D01*
X136558D01*
Y47591D01*
X156242D01*
G01X156124Y16488D02*
X136439D01*
G01X127215Y259157D02*
Y278842D01*
X141585D01*
Y259157D01*
X127215D01*
G01X146234Y288800D02*
X132834D01*
Y281300D01*
X146234D01*
Y288800D01*
G01X127731Y295256D02*
X136392D01*
G01X130566Y312200D02*
X143966D01*
Y319700D01*
X130566D01*
Y312200D01*
G01X127731Y307067D02*
X136392D01*
G01X126928Y320854D02*
Y340146D01*
X139132D01*
Y320854D01*
X126928D01*
G01X145069Y373146D02*
Y353854D01*
X132471D01*
Y373146D01*
X145069D01*
G01X137628Y379968D02*
Y376032D01*
G01X138022Y378000D02*
X139991Y376032D01*
Y379968D01*
X138022Y378000D01*
X131723D01*
G01X141250Y419150D02*
X143218Y417181D01*
Y395134D01*
X132982D01*
Y417181D01*
X134950Y419150D01*
X141250D01*
G01X138100Y408913D02*
X140462Y406551D01*
X135738D01*
X138100Y408913D01*
G01X140462D02*
X135738D01*
G01X138100Y411669D02*
Y402614D01*
G01X164400Y78000D02*
Y83000D01*
X154400D01*
Y78000D01*
G01X149566Y279200D02*
X162966D01*
Y286700D01*
X149566D01*
Y279200D01*
G01X145566Y341200D02*
X158966D01*
Y348700D01*
X145566D01*
Y341200D01*
G01X139991Y378000D02*
X146684D01*
G01X157250Y419150D02*
X159218Y417181D01*
Y395134D01*
X148982D01*
Y417181D01*
X150950Y419150D01*
X157250D01*
G01X154100Y408913D02*
X156462Y406551D01*
X151738D01*
X154100Y408913D01*
G01X156462D02*
X151738D01*
G01X154100Y411669D02*
Y402614D01*
G01X161415Y426685D02*
X153541D01*
Y435740D01*
X157478D01*
Y455425D01*
X163384D01*
Y485740D01*
X161415D01*
Y487709D01*
X163384D01*
Y502669D01*
X198816D01*
Y487709D01*
X200785D01*
Y485740D01*
X198816D01*
Y455425D01*
X204722D01*
Y435740D01*
X208659D01*
Y426685D01*
X200785D01*
G01X169787Y307D02*
Y-9339D01*
X174315D01*
Y307D01*
G01X164177Y22551D02*
X179925D01*
Y307D01*
X164177D01*
Y22551D01*
G01X160600Y277834D02*
Y264434D01*
X168100D01*
Y277834D01*
X160600D01*
G01X161415Y387315D02*
X200785D01*
Y426685D01*
X161415D01*
Y387315D01*
G01X169289Y435740D02*
Y426685D01*
G01X157478Y435740D02*
X204722D01*
G01X157478Y439677D02*
X204722D01*
G01X157478Y443614D02*
X204722D01*
G01X157478Y447551D02*
X204722D01*
G01X157478Y451488D02*
X204722D01*
G01X157478Y455425D02*
X204722D01*
G01X175600Y272834D02*
Y259434D01*
X183100D01*
Y272834D01*
X175600D01*
G01X178101Y381165D02*
X175739D01*
Y352425D01*
X178101D01*
G01X197215Y259157D02*
Y278842D01*
X211585D01*
Y259157D01*
X197215D01*
G01X187566Y281200D02*
X200966D01*
Y288700D01*
X187566D01*
Y281200D01*
G01X216234Y288800D02*
X202834D01*
Y281300D01*
X216234D01*
Y288800D01*
G01X197731Y295256D02*
X206392D01*
G01X200566Y312200D02*
X213966D01*
Y319700D01*
X200566D01*
Y312200D01*
G01X197731Y307067D02*
X206392D01*
G01X196928Y320854D02*
Y340146D01*
X209132D01*
Y320854D01*
X196928D01*
G01X190566Y341200D02*
X203966D01*
Y348700D01*
X190566D01*
Y341200D01*
G01X190699Y381165D02*
X193061D01*
Y352425D01*
X190699D01*
G01X215069Y373146D02*
Y353854D01*
X202471D01*
Y373146D01*
X215069D01*
G01X208022Y378000D02*
X209991Y376032D01*
Y379968D01*
X208022Y378000D01*
X201723D01*
G01X211250Y419150D02*
X213218Y417181D01*
Y395134D01*
X202982D01*
Y417181D01*
X204950Y419150D01*
X211250D01*
G01X192911Y435740D02*
Y426685D01*
G01X238811Y69701D02*
X215189D01*
G01X238811Y82299D02*
X215189D01*
G01X217354Y107528D02*
Y98472D01*
G01X241780Y150126D02*
Y144220D01*
X214220D01*
Y150126D01*
G01X241780Y165874D02*
Y171780D01*
X214220D01*
Y165874D01*
G01X215566Y341200D02*
X228966D01*
Y348700D01*
X215566D01*
Y341200D01*
G01X209991Y378000D02*
X216684D01*
G01X207628Y379968D02*
Y376032D01*
G01X227250Y419150D02*
X229218Y417181D01*
Y395134D01*
X218982D01*
Y417181D01*
X220950Y419150D01*
X227250D01*
G01X208100Y408913D02*
X210462Y406551D01*
X205738D01*
X208100Y408913D01*
G01X210462D02*
X205738D01*
G01X208100Y411669D02*
Y402614D01*
G01X230850Y118850D02*
X228882Y120819D01*
Y142866D01*
X239118D01*
Y120819D01*
X237150Y118850D01*
X230850D01*
G01X234000Y129087D02*
X231638Y131449D01*
X236362D01*
X234000Y129087D01*
G01X231638D02*
X236362D01*
G01X234000Y126331D02*
Y135386D01*
G01X224756Y172850D02*
X219244D01*
G01X224756Y179150D02*
X219244D01*
G01X224300Y188200D02*
X237700D01*
Y195700D01*
X224300D01*
Y188200D01*
G01X220354Y216299D02*
X239646D01*
Y203701D01*
X220354D01*
Y216299D01*
G01X226300Y225200D02*
X239700D01*
Y232700D01*
X226300D01*
Y225200D01*
G01X230600Y277834D02*
Y264434D01*
X238100D01*
Y277834D01*
X230600D01*
G01X219566Y279200D02*
X232966D01*
Y286700D01*
X219566D01*
Y279200D01*
G01X231415Y387315D02*
X270785D01*
Y426685D01*
X231415D01*
Y387315D01*
G01X224100Y408913D02*
X226462Y406551D01*
X221738D01*
X224100Y408913D01*
G01X226462D02*
X221738D01*
G01X224100Y411669D02*
Y402614D01*
G01X227478Y435740D02*
X274722D01*
G01X227478Y439677D02*
X274722D01*
G01X231415Y426685D02*
X223541D01*
Y435740D01*
X227478D01*
Y455425D01*
X233384D01*
Y485740D01*
X231415D01*
Y487709D01*
X233384D01*
Y502669D01*
X268816D01*
Y487709D01*
X270785D01*
Y485740D01*
X268816D01*
Y455425D01*
X274722D01*
Y435740D01*
X278659D01*
Y426685D01*
X270785D01*
G01X227478Y443614D02*
X274722D01*
G01X227478Y447551D02*
X274722D01*
G01X227478Y451488D02*
X274722D01*
G01X227478Y455425D02*
X274722D01*
G01X251928Y10457D02*
X247991D01*
Y17543D01*
X251928D01*
G01Y45551D02*
X247991D01*
Y52638D01*
X251928D01*
G01X236646Y107528D02*
Y98472D01*
G01X277780Y150126D02*
Y144220D01*
X250220D01*
Y150126D01*
G01X277780Y165874D02*
Y171780D01*
X250220D01*
Y165874D01*
G01X248300Y188200D02*
X261700D01*
Y195700D01*
X248300D01*
Y188200D01*
G01X242354Y216299D02*
X261646D01*
Y203701D01*
X242354D01*
Y216299D01*
G01X250300Y225200D02*
X263700D01*
Y232700D01*
X250300D01*
Y225200D01*
G01X245600Y272834D02*
Y259434D01*
X253100D01*
Y272834D01*
X245600D01*
G01X248101Y381165D02*
X245739D01*
Y352425D01*
X248101D01*
G01X239289Y435740D02*
Y426685D01*
G01X254349Y27091D02*
X251987D01*
Y909D01*
X254349D01*
G01X259861D02*
X281002D01*
Y27091D01*
X259861D01*
G01X259841Y30039D02*
X280983D01*
G01X254349Y68091D02*
X251987D01*
Y30098D01*
X254349D01*
G01X259861Y68091D02*
X281002D01*
Y30098D01*
G01X274811Y69701D02*
X251189D01*
G01X274811Y82299D02*
X251189D01*
G01X253354Y107528D02*
Y98472D01*
G01X266850Y118850D02*
X264882Y120819D01*
Y142866D01*
X275118D01*
Y120819D01*
X273150Y118850D01*
X266850D01*
G01X264354Y216299D02*
X283646D01*
Y203701D01*
X264354D01*
Y216299D01*
G01X257566Y281200D02*
X270966D01*
Y288700D01*
X257566D01*
Y281200D01*
G01X266928Y320854D02*
Y340146D01*
X279132D01*
Y320854D01*
X266928D01*
G01X260566Y341200D02*
X273966D01*
Y348700D01*
X260566D01*
Y341200D01*
G01X260699Y381165D02*
X263061D01*
Y352425D01*
X260699D01*
G01X262911Y435740D02*
Y426685D01*
G01X281061Y7701D02*
X283424D01*
Y11244D01*
X281061D01*
G01Y17150D02*
X283424D01*
Y20693D01*
X281061D01*
G01Y42795D02*
X283424D01*
Y46339D01*
X281061D01*
G01Y52244D02*
X283424D01*
Y55787D01*
X281061D01*
G01X272646Y107528D02*
Y98472D01*
G01X270000Y129087D02*
X267638Y131449D01*
X272362D01*
X270000Y129087D01*
G01X267638D02*
X272362D01*
G01X270000Y126331D02*
Y135386D01*
G01X272654Y172850D02*
X267142D01*
G01X272654Y179150D02*
X267142D01*
G01X270300Y231200D02*
X283700D01*
Y238700D01*
X270300D01*
Y231200D01*
G01X267215Y259157D02*
Y278842D01*
X281585D01*
Y259157D01*
X267215D01*
G01X286234Y288800D02*
X272834D01*
Y281300D01*
X286234D01*
Y288800D01*
G01X267731Y295256D02*
X276392D01*
G01X270566Y312200D02*
X283966D01*
Y319700D01*
X270566D01*
Y312200D01*
G01X267731Y307067D02*
X276392D01*
G01X285069Y373146D02*
Y353854D01*
X272471D01*
Y373146D01*
X285069D01*
G01X279991Y378000D02*
X286684D01*
G01X277628Y379968D02*
Y376032D01*
G01X278022Y378000D02*
X279991Y376032D01*
Y379968D01*
X278022Y378000D01*
X271723D01*
G01X281250Y419150D02*
X283218Y417181D01*
Y395134D01*
X272982D01*
Y417181D01*
X274950Y419150D01*
X281250D01*
G01X278100Y408913D02*
X280462Y406551D01*
X275738D01*
X278100Y408913D01*
G01X280462D02*
X275738D01*
G01X278100Y411669D02*
Y402614D01*
G01X310811Y69701D02*
X287189D01*
G01X310811Y82299D02*
X287189D01*
G01X289354Y107528D02*
Y98472D01*
G01X313780Y150126D02*
Y144220D01*
X286220D01*
Y150126D01*
G01X313780Y165874D02*
Y171780D01*
X286220D01*
Y165874D01*
G01X296756Y172850D02*
X291244D01*
G01X296756Y179150D02*
X291244D01*
G01X286354Y216299D02*
X305646D01*
Y203701D01*
X286354D01*
Y216299D01*
G01X292300Y231200D02*
X305700D01*
Y238700D01*
X292300D01*
Y231200D01*
G01X289566Y279200D02*
X302966D01*
Y286700D01*
X289566D01*
Y279200D01*
G01X285566Y341200D02*
X298966D01*
Y348700D01*
X285566D01*
Y341200D01*
G01X295509Y435307D02*
X346691D01*
Y482551D01*
G03X344328Y484913I-2362J0D01*
G01X297872D01*
G03X295509Y482551I0J-2362D01*
G01Y435307D01*
X291572D01*
Y429795D01*
X295509D01*
Y421921D01*
X346691D01*
Y429795D01*
X350628D01*
Y435307D01*
X346691D01*
G01Y429795D02*
X295509D01*
G01X308646Y107528D02*
Y98472D01*
G01X302850Y118850D02*
X300882Y120819D01*
Y142866D01*
X311118D01*
Y120819D01*
X309150Y118850D01*
X302850D01*
G01X306000Y129087D02*
X303638Y131449D01*
X308362D01*
X306000Y129087D01*
G01X303638D02*
X308362D01*
G01X306000Y126331D02*
Y135386D01*
G01X308354Y216299D02*
X327646D01*
Y203701D01*
X308354D01*
Y216299D01*
G01X314300Y231200D02*
X327700D01*
Y238700D01*
X314300D01*
Y231200D01*
G01X300600Y277834D02*
Y264434D01*
X308100D01*
Y277834D01*
X300600D01*
G01X313054Y325449D02*
Y314032D01*
X310691D01*
Y325449D01*
X313054D01*
G01X314691Y339315D02*
Y328685D01*
G01X311656Y355866D02*
Y346811D01*
G01X340785Y394362D02*
G03I-19685J0D01*
G01X310470Y410898D02*
Y421921D01*
G01X326189Y69701D02*
X349811D01*
G01X325150Y89032D02*
X318850D01*
G01X325150Y88244D02*
X318850D01*
G01X325150Y87457D02*
X318850D01*
G01X325150Y85685D02*
Y96315D01*
G01X318850Y85685D02*
Y96315D01*
G01X326189Y82299D02*
X349811D01*
G01X318200Y114700D02*
Y101300D01*
X325700D01*
Y114700D01*
X318200D01*
G01X328256Y107866D02*
Y98811D01*
G01X322220Y122126D02*
Y116220D01*
X349780D01*
Y122126D01*
G01X322220Y137874D02*
Y143780D01*
X349780D01*
Y137874D01*
G01X322220Y152126D02*
Y146220D01*
X349780D01*
Y152126D01*
G01X322220Y167874D02*
Y173780D01*
X349780D01*
Y167874D01*
G01X335872Y281146D02*
Y261854D01*
X324061D01*
Y281146D01*
X335872D01*
G01X336069Y303146D02*
Y283854D01*
X323471D01*
Y303146D01*
X336069D01*
G01X324235Y305701D02*
X347857D01*
G01X324235Y318299D02*
X347857D01*
G01X323467Y355866D02*
Y346811D01*
G01X315691Y375315D02*
Y364685D01*
G01X326218Y413260D02*
Y421921D01*
G01X315982Y413260D02*
Y421921D01*
G01X340067Y107866D02*
Y98811D01*
G01X336300Y175200D02*
X349700D01*
Y182700D01*
X336300D01*
Y175200D01*
G01X343709Y208016D02*
X332291D01*
Y209984D01*
X343709D01*
Y208016D01*
G01X331166Y224200D02*
X344566D01*
Y231700D01*
X331166D01*
Y224200D01*
G01X331935Y261854D02*
X335872Y265791D01*
G01X332723Y261854D02*
X335872Y265004D01*
G01X333510Y261854D02*
X335872Y264216D01*
G01X334298Y261854D02*
X335872Y263429D01*
G01X335085Y261854D02*
X335872Y262642D01*
G01X336648Y340551D02*
Y351968D01*
X339207D01*
Y340551D01*
X336648D01*
G01Y353551D02*
Y364968D01*
X339207D01*
Y353551D01*
X336648D01*
G01X331730Y410898D02*
Y421921D01*
G54D15*
G01X10977Y246110D02*
X11447Y245375D01*
X12073Y244955D01*
X12778Y244850D01*
X13405Y244955D01*
X14032Y245480D01*
X14423Y246110D01*
X14502Y246740D01*
X14345Y247475D01*
X13797Y248000D01*
X13248Y248210D01*
X12543D01*
G01X13248D02*
X13718Y248525D01*
X14110Y249050D01*
X14267Y249680D01*
X14110Y250310D01*
X13718Y250835D01*
X13013Y251150D01*
X12308Y251045D01*
X11603Y250625D01*
G01X17042Y251150D02*
X19000Y244850D01*
X20958Y251150D01*
G01X23577Y246110D02*
X24047Y245375D01*
X24673Y244955D01*
X25378Y244850D01*
X26005Y244955D01*
X26632Y245480D01*
X27023Y246110D01*
X27102Y246740D01*
X26945Y247475D01*
X26397Y248000D01*
X25848Y248210D01*
X25143D01*
G01X25848D02*
X26318Y248525D01*
X26710Y249050D01*
X26867Y249680D01*
X26710Y250310D01*
X26318Y250835D01*
X25613Y251150D01*
X24908Y251045D01*
X24203Y250625D01*
G01X11127Y259795D02*
X11597Y259270D01*
X12145Y258955D01*
X12850Y258850D01*
X13555Y259060D01*
X14103Y259480D01*
X14495Y260215D01*
X14573Y261055D01*
X14417Y261895D01*
X14025Y262420D01*
X13477Y262840D01*
X12928Y262945D01*
X12380Y262840D01*
X11675Y262420D01*
X11910Y265150D01*
X14025D01*
G01X17192D02*
X19150Y258850D01*
X21108Y265150D01*
G01X8977Y277110D02*
X9447Y276375D01*
X10073Y275955D01*
X10778Y275850D01*
X11405Y275955D01*
X12032Y276480D01*
X12423Y277110D01*
X12502Y277740D01*
X12345Y278475D01*
X11797Y279000D01*
X11248Y279210D01*
X10543D01*
G01X11248D02*
X11718Y279525D01*
X12110Y280050D01*
X12267Y280680D01*
X12110Y281310D01*
X11718Y281835D01*
X11013Y282150D01*
X10308Y282045D01*
X9603Y281625D01*
G01X15042Y282150D02*
X17000Y275850D01*
X18958Y282150D01*
G01X21577Y277110D02*
X22047Y276375D01*
X22673Y275955D01*
X23378Y275850D01*
X24005Y275955D01*
X24632Y276480D01*
X25023Y277110D01*
X25102Y277740D01*
X24945Y278475D01*
X24397Y279000D01*
X23848Y279210D01*
X23143D01*
G01X23848D02*
X24318Y279525D01*
X24710Y280050D01*
X24867Y280680D01*
X24710Y281310D01*
X24318Y281835D01*
X23613Y282150D01*
X22908Y282045D01*
X22203Y281625D01*
G01X12127Y299795D02*
X12597Y299270D01*
X13145Y298955D01*
X13850Y298850D01*
X14555Y299060D01*
X15103Y299480D01*
X15495Y300215D01*
X15573Y301055D01*
X15417Y301895D01*
X15025Y302420D01*
X14477Y302840D01*
X13928Y302945D01*
X13380Y302840D01*
X12675Y302420D01*
X12910Y305150D01*
X15025D01*
G01X18192D02*
X20150Y298850D01*
X22108Y305150D01*
G01X8682Y333950D02*
X10718D01*
G01X14277Y332795D02*
X14747Y332270D01*
X15295Y331955D01*
X16000Y331850D01*
X16705Y332060D01*
X17253Y332480D01*
X17645Y333215D01*
X17723Y334055D01*
X17567Y334895D01*
X17175Y335420D01*
X16627Y335840D01*
X16078Y335945D01*
X15530Y335840D01*
X14825Y335420D01*
X15060Y338150D01*
X17175D01*
G01X20342D02*
X22300Y331850D01*
X24258Y338150D01*
G01X9212Y377100D02*
X9682Y377730D01*
X10230Y378045D01*
X10857Y378150D01*
X11640Y377940D01*
X12188Y377415D01*
X12345Y376785D01*
X12267Y376155D01*
X11953Y375630D01*
X10387Y374580D01*
X9682Y373845D01*
X9212Y372795D01*
X9055Y371850D01*
X12345D01*
G01X17000Y378150D02*
X16373Y377940D01*
X15903Y377415D01*
X15590Y376785D01*
X15355Y375945D01*
X15277Y375000D01*
X15355Y374055D01*
X15590Y373215D01*
X15903Y372585D01*
X16373Y372060D01*
X17000Y371850D01*
X17627Y372060D01*
X18097Y372585D01*
X18410Y373215D01*
X18645Y374055D01*
X18723Y375000D01*
X18645Y375945D01*
X18410Y376785D01*
X18097Y377415D01*
X17627Y377940D01*
X17000Y378150D01*
G01X21342D02*
X23300Y371850D01*
X25258Y378150D01*
G01X111477Y40610D02*
X111947Y39875D01*
X112573Y39455D01*
X113278Y39350D01*
X113905Y39455D01*
X114532Y39980D01*
X114923Y40610D01*
X115002Y41240D01*
X114845Y41975D01*
X114297Y42500D01*
X113748Y42710D01*
X113043D01*
G01X113748D02*
X114218Y43025D01*
X114610Y43550D01*
X114767Y44180D01*
X114610Y44810D01*
X114218Y45335D01*
X113513Y45650D01*
X112808Y45545D01*
X112103Y45125D01*
G01X117542Y45650D02*
X119500Y39350D01*
X121458Y45650D01*
G01X124077Y40610D02*
X124547Y39875D01*
X125173Y39455D01*
X125878Y39350D01*
X126505Y39455D01*
X127132Y39980D01*
X127523Y40610D01*
X127602Y41240D01*
X127445Y41975D01*
X126897Y42500D01*
X126348Y42710D01*
X125643D01*
G01X126348D02*
X126818Y43025D01*
X127210Y43550D01*
X127367Y44180D01*
X127210Y44810D01*
X126818Y45335D01*
X126113Y45650D01*
X125408Y45545D01*
X124703Y45125D01*
G54D16*
G01X58400Y254000D02*
X27400D01*
Y307900D01*
G01X58400Y385000D02*
X27400D01*
Y339100D01*
G54D17*
G01X29565Y105874D02*
G03I-984J0D01*
G01X77597Y225224D02*
G03I-984J0D01*
G01X62136Y274906D02*
G03I-984J0D01*
G01X72116Y357791D02*
G03I-984J0D01*
G01X132136Y274906D02*
G03I-984J0D01*
G01X142116Y357791D02*
G03I-984J0D01*
G01X187187Y199126D02*
G03I-984J0D01*
G01X202136Y274906D02*
G03I-984J0D01*
G01X212116Y357791D02*
G03I-984J0D01*
G01X236693Y212362D02*
G03I-984J0D01*
G01X258693D02*
G03I-984J0D01*
G01X280693D02*
G03I-984J0D01*
G01X272136Y274906D02*
G03I-984J0D01*
G01X282116Y357791D02*
G03I-984J0D01*
G01X302693Y212362D02*
G03I-984J0D01*
G01X324693D02*
G03I-984J0D01*
G01X333116Y287791D02*
G03I-984J0D01*
M02*
