G04 ================== begin FILE IDENTIFICATION RECORD ==================*
G04 Layout Name:  E:/material/lool Inds Vibration/hardware/v2.0/pcb/vibration.brd*
G04 Film Name:    TOP*
G04 File Format:  Gerber RS274X*
G04 File Origin:  Cadence Allegro 16.6-2015-S065*
G04 Origin Date:  Mon Jun 13 18:11:43 2016*
G04 *
G04 Layer:  ETCH/TOP*
G04 Layer:  PIN/TOP*
G04 Layer:  VIA CLASS/TOP*
G04 *
G04 Offset:    (0.000 0.000)*
G04 Mirror:    No*
G04 Mode:      Positive*
G04 Rotation:  0*
G04 FullContactRelief:  No*
G04 UndefLineWidth:     1.000*
G04 ================== end FILE IDENTIFICATION RECORD ====================*
%FSLAX25Y25*MOIN*%
%IR0*IPPOS*OFA0.00000B0.00000*MIA0B0*SFA1.00000B1.00000*%
%ADD14R,.062992X.062992*%
%ADD43R,.03937X.068898*%
%ADD16C,.003937*%
%ADD42R,.07874X.127953*%
%ADD30R,.094488X.135827*%
%ADD15P,.063921X8X22.5*%
%ADD10C,.016*%
%ADD45R,.023622X.061024*%
%ADD31R,.061024X.023622*%
%ADD24R,.02126X.035433*%
%ADD12R,.035433X.02126*%
%ADD20C,.035433*%
%ADD53O,.021654X.049213*%
%ADD48O,.017717X.05315*%
%ADD13R,.021654X.051181*%
%ADD46R,.041339X.023622*%
%ADD19R,.011811X.059055*%
%ADD32R,.023622X.03937*%
%ADD18R,.059055X.011811*%
%ADD54R,.03937X.023622*%
%ADD35R,.055118X.043307*%
%ADD28R,.061024X.072835*%
%ADD22C,.059055*%
%ADD44R,.135827X.100394*%
%ADD40R,.090551X.090551*%
%ADD37R,.043307X.031496*%
%ADD17C,.070866*%
%ADD50C,.098425*%
%ADD38R,.033465X.033465*%
%ADD34C,.062992*%
%ADD33R,.086614X.037402*%
%ADD41R,.023622X.076772*%
%ADD36R,.059055X.059055*%
%ADD27R,.029528X.055118*%
%ADD47R,.070866X.090551*%
%ADD21C,.094488*%
%ADD11R,.055118X.029528*%
%ADD26R,.059055X.017717*%
%ADD23R,.070866X.070866*%
%ADD52R,.064961X.025591*%
%ADD39R,.062992X.062992*%
%ADD25R,.098425X.090551*%
%ADD51R,.029528X.045276*%
%ADD29R,.057087X.017717*%
%ADD49R,.072835X.064961*%
%ADD55C,.008*%
%ADD56C,.012*%
%ADD57C,.015*%
%ADD65R,.074996X.074996*%
%ADD64C,.036004*%
%ADD63R,.102554X.102556*%
%ADD59R,.041532X.067122*%
%ADD61R,.067122X.055312*%
%ADD66R,.051374X.080902*%
%ADD62R,.051436X.077422*%
%ADD68R,.035626X.073028*%
%ADD60R,.033264X.047436*%
%ADD58R,.047436X.033264*%
%ADD67R,.039626X.077028*%
G75*
%LPD*%
G75*
G36*
G01X7800Y426137D02*
Y863D01*
G02X7290Y478I-400J0D01*
G02X100Y10000I2709J9522D01*
G01Y417000D01*
G02X7290Y426522I9900J0D01*
G02X7800Y426137I110J-385D01*
G37*
G36*
G01X132517Y236700D02*
X154389D01*
X156743Y234346D01*
G02X156460Y233663I-283J-283D01*
G01X152428D01*
Y232000D01*
X151556D01*
Y233766D01*
X144444D01*
Y229532D01*
X142200Y227288D01*
Y218596D01*
X143121Y217675D01*
Y213962D01*
X141992Y212834D01*
X140863Y213962D01*
Y219372D01*
X140200D01*
Y219960D01*
X141714D01*
Y225892D01*
X134601D01*
Y225586D01*
G02X133918Y225303I-400J0D01*
G01X133572Y225650D01*
Y227679D01*
X128428D01*
Y223953D01*
X131875D01*
X132022Y223805D01*
G02X131881Y223463I-141J-141D01*
G01X128628D01*
Y220137D01*
X133372D01*
Y221780D01*
G02X133713Y221921I200J0D01*
G01X133909Y221726D01*
X134601D01*
Y219960D01*
X137800D01*
Y219372D01*
X137137D01*
Y214228D01*
X137800D01*
Y213631D01*
X139924Y211507D01*
Y210753D01*
X130514D01*
Y211319D01*
X132200Y213006D01*
Y213953D01*
X133572D01*
Y217679D01*
X128428D01*
Y213953D01*
X128787D01*
G02X129070Y213270I0J-400D01*
G01X128153Y212353D01*
X125760D01*
X125291Y211884D01*
G02X124608Y212167I-283J283D01*
G01Y213196D01*
X121879Y215925D01*
Y219372D01*
X119850D01*
X118978Y220244D01*
X119009D01*
Y227356D01*
X117932D01*
Y229244D01*
X119009D01*
Y236700D01*
X122723D01*
Y229244D01*
X127277D01*
Y232884D01*
X128542Y234150D01*
X129483D01*
X129528Y234125D01*
G03X132132Y236191I871J1575D01*
G02X132517Y236700I385J109D01*
G37*
G36*
G01X156295Y210553D02*
Y210753D01*
X156104D01*
Y211115D01*
X155099Y212120D01*
X155100Y212204D01*
G03X154500Y213564I-1800J18D01*
G01Y213619D01*
X154834Y213953D01*
X157641D01*
Y210753D01*
X157450D01*
Y210553D01*
X156295D01*
G37*
G36*
G01X144293Y210753D02*
Y211740D01*
X146184Y213631D01*
Y214228D01*
X146847D01*
Y219372D01*
X144818D01*
X144600Y219590D01*
Y220160D01*
X151356D01*
Y225692D01*
X144600D01*
Y226293D01*
X146141Y227834D01*
X151556D01*
Y229600D01*
X154497D01*
X154834Y229937D01*
X157641D01*
Y227479D01*
X152628D01*
Y224153D01*
X157641D01*
Y223463D01*
X152628D01*
Y220137D01*
X157641D01*
Y217679D01*
X152428D01*
Y214941D01*
X152100Y214613D01*
Y213564D01*
G03X151727Y211347I1200J-1342D01*
G02X151377Y210753I-350J-194D01*
G01X144293D01*
G37*
G36*
G01X211200Y67500D02*
Y119674D01*
G02X211883Y119956I400J0D01*
G01X213382Y118458D01*
X216428D01*
Y118145D01*
X217450D01*
Y112700D01*
X217519Y112632D01*
Y108204D01*
X219608D01*
Y97596D01*
X217719D01*
Y88372D01*
X217345D01*
Y83628D01*
X220671D01*
Y88719D01*
X221281D01*
Y97380D01*
X222519D01*
Y88519D01*
X222950D01*
Y85850D01*
X223129Y85671D01*
Y83428D01*
X226855D01*
Y88572D01*
X226481D01*
Y97380D01*
X227519D01*
Y88519D01*
X227722D01*
Y88304D01*
X227720Y88289D01*
G03X230525Y86539I1780J-270D01*
G02X231153Y86210I228J-329D01*
G01Y83428D01*
X234879D01*
Y87587D01*
X235811Y88519D01*
X236481D01*
Y97796D01*
X234392D01*
Y107136D01*
G02X235074Y107418I400J0D01*
G01X237450Y105043D01*
Y88572D01*
X237137D01*
Y83844D01*
G02X236720Y83444I-400J0D01*
G03X234847Y81713I-74J-1799D01*
G02X234447Y81328I-400J15D01*
G01X231318D01*
Y70672D01*
X241973D01*
Y81328D01*
X238844D01*
G02X238445Y81713I0J400D01*
G03X238046Y82777I-1799J-67D01*
G02X238357Y83428I311J251D01*
G01X240863D01*
Y88572D01*
X240550D01*
Y106327D01*
X236481Y110396D01*
Y117481D01*
X236050D01*
Y118050D01*
X237950D01*
Y125950D01*
X235550D01*
Y126358D01*
X241755Y132563D01*
Y150802D01*
X244942D01*
Y165198D01*
X235468D01*
Y150802D01*
X238654D01*
Y133847D01*
X232450Y127642D01*
Y125950D01*
X230050D01*
Y118050D01*
X232950D01*
Y117481D01*
X232519D01*
Y108620D01*
X231481D01*
Y117481D01*
X227519D01*
Y108620D01*
X226481D01*
Y117481D01*
X226050D01*
Y118145D01*
X227572D01*
Y121871D01*
X222428D01*
Y118145D01*
X222950D01*
Y117481D01*
X222519D01*
Y108620D01*
X221481D01*
Y117481D01*
X220550D01*
Y118145D01*
X221572D01*
Y121871D01*
X216428D01*
Y121558D01*
X214666D01*
X213850Y122374D01*
Y127411D01*
X214905Y128466D01*
X216428D01*
Y128153D01*
X221572D01*
Y131879D01*
X216428D01*
Y131566D01*
X214936D01*
X214278Y132224D01*
X211883Y129829D01*
G02X211200Y130111I-283J283D01*
G01Y150802D01*
X214245D01*
Y145563D01*
X217450Y142358D01*
Y137863D01*
X216428D01*
Y134137D01*
X221572D01*
Y137863D01*
X220550D01*
Y143642D01*
X217346Y146847D01*
Y150802D01*
X220532D01*
Y165198D01*
X217448D01*
Y171755D01*
X218666D01*
Y180245D01*
X217863D01*
Y185671D01*
X218642Y186450D01*
X219343D01*
X222321Y189428D01*
X223855D01*
Y194572D01*
X223542D01*
Y195519D01*
X224481D01*
Y203460D01*
X224971Y203950D01*
X235358D01*
X235745Y203563D01*
G02X235603Y203222I-141J-141D01*
G01X235519D01*
Y196911D01*
X234964Y196357D01*
G02X234281Y196639I-283J283D01*
G01Y203022D01*
X230719D01*
Y195719D01*
X232857D01*
Y188444D01*
X233584D01*
Y187352D01*
X236086Y184850D01*
X245442D01*
X247542Y186950D01*
Y189428D01*
X247855D01*
Y194572D01*
X247542D01*
Y194850D01*
X246481Y195911D01*
Y203450D01*
X257129D01*
X257519Y203060D01*
Y195556D01*
X256857D01*
Y188444D01*
X261410D01*
Y195519D01*
X261481D01*
Y203222D01*
X261050D01*
Y203913D01*
X258413Y206550D01*
X245187D01*
X242950Y204313D01*
Y203222D01*
X242519D01*
Y195519D01*
X242950D01*
Y195058D01*
X244129Y193879D01*
Y189428D01*
X244442D01*
Y188234D01*
X244158Y187950D01*
X237370D01*
X237218Y188103D01*
G02X237359Y188444I141J141D01*
G01X237410D01*
Y194418D01*
X238511Y195519D01*
X239481D01*
Y203222D01*
X239050D01*
Y204642D01*
X236642Y207050D01*
X223687D01*
X220950Y204313D01*
Y203222D01*
X220519D01*
Y199581D01*
X220442Y199504D01*
Y194572D01*
X220129D01*
Y191620D01*
X218059Y189550D01*
X217671D01*
Y194372D01*
X214345D01*
Y189628D01*
X216470D01*
G02X216753Y188945I0J-400D01*
G01X214450Y186642D01*
Y185572D01*
X214137D01*
Y180245D01*
X213129D01*
Y171755D01*
X214347D01*
Y166392D01*
X214245Y166290D01*
Y165198D01*
X211200D01*
Y239500D01*
X354300D01*
Y67500D01*
X259574D01*
X259530Y67640D01*
G03X254247I-2642J-829D01*
G01X254203Y67500D01*
X211200D01*
G37*
G36*
G01X354300Y835D02*
Y278974D01*
G03Y279026I-1800J26D01*
G01Y426165D01*
G02X354805Y426551I400J0D01*
G02X362100Y417000I-2605J-9551D01*
G01Y10000D01*
G02X354805Y449I-9900J0D01*
G02X354300Y835I-105J386D01*
G37*
%LPC*%
G75*
G36*
G01X249855Y230572D02*
Y225428D01*
X246129D01*
Y230572D01*
X246296D01*
Y230804D01*
X246285Y230835D01*
G02X249699I1707J573D01*
G01X249689Y230804D01*
Y230572D01*
X249855D01*
G37*
G36*
G01X225855D02*
Y225428D01*
X222129D01*
Y230572D01*
X222329D01*
Y230809D01*
X222315Y230845D01*
G02X225669I1677J655D01*
G01X225655Y230809D01*
Y230572D01*
X225855D01*
G37*
G36*
G01X327481Y220419D02*
Y216778D01*
X323519D01*
Y224481D01*
X323795D01*
G03X324195Y224903I0J400D01*
G02X324204Y225205I1798J97D01*
G01X324205Y225217D01*
Y225428D01*
X324129D01*
Y230572D01*
X324205D01*
Y230783D01*
X324204Y230795D01*
G02X324192Y231036I1789J205D01*
G03X323792Y231444I-400J8D01*
G01X322857D01*
Y238556D01*
X327410D01*
Y234916D01*
X327542Y234784D01*
Y231915D01*
G02X327781Y230795I-1550J-915D01*
G01X327779Y230783D01*
Y230572D01*
X327855D01*
Y225428D01*
X327779D01*
Y225217D01*
X327781Y225205D01*
G02X327542Y224085I-1788J-205D01*
G01Y220480D01*
X327481Y220419D01*
G37*
G36*
G01X322481Y224481D02*
Y216778D01*
X318519D01*
Y222289D01*
X318094Y222714D01*
X318030Y222724D01*
G02X317796Y222777I281J1778D01*
G03X317281Y222394I-114J-383D01*
G01Y216978D01*
X313719D01*
Y224281D01*
X315542D01*
G03X315825Y224964I0J400D01*
G01X315361Y225428D01*
X314129D01*
Y230572D01*
X317855D01*
Y227318D01*
X318003Y227170D01*
G03X318345Y227312I141J141D01*
G01Y230372D01*
X321671D01*
Y225628D01*
X320084D01*
G03X319906Y225336I0J-200D01*
G02X319939Y225270I-1595J-835D01*
G01X319954Y225239D01*
X320711Y224481D01*
X322481D01*
G37*
G36*
G01X312481D02*
Y216778D01*
X308519D01*
Y220419D01*
X308458Y220480D01*
Y225428D01*
X308145D01*
Y230572D01*
X311871D01*
Y225428D01*
X311558D01*
Y224481D01*
X312481D01*
G37*
G36*
G01X305481Y220419D02*
Y216778D01*
X301519D01*
Y224481D01*
X301795D01*
G03X302194Y224903I0J400D01*
G02X302204Y225205I1798J97D01*
G01X302205Y225217D01*
Y225428D01*
X302129D01*
Y230572D01*
X302205D01*
Y230783D01*
X302204Y230795D01*
G02X302192Y231036I1789J205D01*
G03X301792Y231444I-400J8D01*
G01X300857D01*
Y238556D01*
X305411D01*
Y234916D01*
X305542Y234784D01*
Y231915D01*
G02X305781Y230795I-1550J-915D01*
G01X305779Y230783D01*
Y230572D01*
X305855D01*
Y225428D01*
X305779D01*
Y225217D01*
X305781Y225205D01*
G02X305542Y224085I-1788J-205D01*
G01Y220480D01*
X305481Y220419D01*
G37*
G36*
G01X300481Y224481D02*
Y216778D01*
X296519D01*
Y222289D01*
X296087Y222721D01*
X296023Y222731D01*
G02X295797Y222784I292J1776D01*
G03X295281Y222401I-115J-383D01*
G01Y216978D01*
X291719D01*
Y224281D01*
X293542D01*
G03X293825Y224964I0J400D01*
G01X293361Y225428D01*
X292129D01*
Y230572D01*
X295855D01*
Y227318D01*
X296003Y227170D01*
G03X296345Y227312I141J141D01*
G01Y230372D01*
X299671D01*
Y225628D01*
X298091D01*
G03X297914Y225336I0J-200D01*
G02X297952Y225258I-1599J-828D01*
G01X297967Y225226D01*
X298711Y224481D01*
X300481D01*
G37*
G36*
G01X290481D02*
Y216778D01*
X286519D01*
Y220419D01*
X286458Y220480D01*
Y225428D01*
X286145D01*
Y230572D01*
X289871D01*
Y225428D01*
X289558D01*
Y224481D01*
X290481D01*
G37*
G36*
G01X283481Y220419D02*
Y216778D01*
X279519D01*
Y224481D01*
X279795D01*
G03X280195Y224903I0J400D01*
G02X280204Y225205I1798J97D01*
G01X280205Y225217D01*
Y225428D01*
X280129D01*
Y230572D01*
X280205D01*
Y230783D01*
X280204Y230795D01*
G02X280192Y231036I1789J205D01*
G03X279792Y231444I-400J8D01*
G01X278857D01*
Y238556D01*
X283410D01*
Y234916D01*
X283542Y234784D01*
Y231915D01*
G02X283781Y230795I-1550J-915D01*
G01X283779Y230783D01*
Y230572D01*
X283855D01*
Y225428D01*
X283779D01*
Y225217D01*
X283781Y225205D01*
G02X283542Y224085I-1788J-205D01*
G01Y220480D01*
X283481Y220419D01*
G37*
G36*
G01X278481Y224481D02*
Y216778D01*
X274519D01*
Y222289D01*
X274087Y222721D01*
X274023Y222731D01*
G02X273797Y222784I292J1776D01*
G03X273281Y222401I-115J-383D01*
G01Y216978D01*
X269719D01*
Y224281D01*
X271542D01*
G03X271825Y224964I0J400D01*
G01X271361Y225428D01*
X270129D01*
Y230572D01*
X273855D01*
Y227318D01*
X274003Y227170D01*
G03X274345Y227312I141J141D01*
G01Y230372D01*
X277671D01*
Y225628D01*
X276091D01*
G03X275914Y225336I0J-200D01*
G02X275952Y225258I-1599J-828D01*
G01X275967Y225226D01*
X276711Y224481D01*
X278481D01*
G37*
G36*
G01X268481D02*
Y216778D01*
X264519D01*
Y220419D01*
X264458Y220480D01*
Y225428D01*
X264145D01*
Y230572D01*
X267871D01*
Y225428D01*
X267558D01*
Y224481D01*
X268481D01*
G37*
G36*
G01X234050Y216778D02*
Y216317D01*
X234075Y216272D01*
G02X230925I-1575J-872D01*
G01X230950Y216317D01*
Y216778D01*
X230519D01*
Y224481D01*
X230989D01*
X233058Y226550D01*
X234857D01*
Y232556D01*
X239411D01*
Y225444D01*
X239334D01*
G03X238934Y225036I0J-400D01*
G02X238932Y224903I-1800J-37D01*
G03X239331Y224481I399J-22D01*
G01X239481D01*
Y216778D01*
X235519D01*
Y223450D01*
X234481D01*
Y216778D01*
X234050D01*
G37*
G36*
G01X256050D02*
Y216217D01*
X256075Y216172D01*
G02X252925I-1575J-872D01*
G01X252950Y216217D01*
Y216778D01*
X252519D01*
Y224481D01*
X252950D01*
Y224742D01*
X253169Y224961D01*
G03X252886Y225644I-283J283D01*
G01X250790D01*
Y232356D01*
X254943D01*
Y226750D01*
X257950D01*
Y228008D01*
X258857Y228916D01*
Y232556D01*
X263410D01*
Y225444D01*
X261695D01*
G03X261296Y225072I0J-400D01*
G02X261281Y224939I-1796J128D01*
G03X261481Y224532I396J-58D01*
G01Y216778D01*
X257519D01*
Y223650D01*
X256481D01*
Y216778D01*
X256050D01*
G37*
G36*
G01X336143Y215102D02*
Y212346D01*
G02X332377I-1883J0D01*
G01Y215102D01*
G02X332678Y216123I1883J0D01*
G01X332710Y216173D01*
Y216737D01*
X332660Y216794D01*
G02X332230Y218203I1356J1185D01*
G01X332231Y218216D01*
Y218428D01*
X332153D01*
Y223572D01*
X332229D01*
Y223783D01*
X332227Y223795D01*
G02X332216Y224036I1789J205D01*
G03X331816Y224444I-400J8D01*
G01X331456D01*
Y231556D01*
X336009D01*
Y224444D01*
X335801D01*
Y224232D01*
X335803Y224220D01*
G02X335804Y223795I-1787J-220D01*
G01X335803Y223783D01*
Y223572D01*
X335879D01*
Y218428D01*
X335810D01*
Y218125D01*
X335811Y218118D01*
G02Y217839I-1795J-139D01*
G01X335810Y217831D01*
Y216171D01*
G02X336143Y215102I-1550J-1069D01*
G37*
G36*
G01X291471Y204450D02*
X290481Y203460D01*
Y195519D01*
X289566D01*
Y194572D01*
X289879D01*
Y189428D01*
X286153D01*
Y190450D01*
X283847D01*
Y189428D01*
X280121D01*
Y194572D01*
X280434D01*
Y195519D01*
X279519D01*
Y203460D01*
X278529Y204450D01*
X269471D01*
X268481Y203460D01*
Y195519D01*
X267566D01*
Y194572D01*
X267879D01*
Y189428D01*
X267550D01*
Y187358D01*
X265863Y185671D01*
Y180245D01*
X266564D01*
Y171755D01*
X265345D01*
Y170663D01*
X261743Y167061D01*
X255401D01*
X254221Y165881D01*
G03X254503Y165198I283J-283D01*
G01X256532D01*
Y150802D01*
X253346D01*
Y145847D01*
X256550Y142642D01*
Y137863D01*
X257572D01*
Y134137D01*
X252428D01*
Y137863D01*
X253450D01*
Y141358D01*
X250245Y144563D01*
Y150802D01*
X247058D01*
Y165198D01*
X250245D01*
Y166290D01*
X254116Y170161D01*
X260459D01*
X261370Y171072D01*
G03X261087Y171755I-283J283D01*
G01X261026D01*
Y180245D01*
X262137D01*
Y185572D01*
X262450D01*
Y186642D01*
X264450Y188642D01*
Y189428D01*
X264153D01*
Y194572D01*
X264466D01*
Y199528D01*
X264519Y199581D01*
Y203222D01*
X264950D01*
Y204313D01*
X268187Y207550D01*
X279813D01*
X283050Y204313D01*
Y203222D01*
X283481D01*
Y199581D01*
X283534Y199528D01*
Y194572D01*
X283847D01*
Y193550D01*
X286153D01*
Y194572D01*
X286466D01*
Y199528D01*
X286519Y199581D01*
Y203222D01*
X286950D01*
Y204313D01*
X290187Y207550D01*
X301813D01*
X305050Y204313D01*
Y203222D01*
X305481D01*
Y199581D01*
X305534Y199528D01*
Y194572D01*
X305847D01*
Y189428D01*
X302121D01*
Y194572D01*
X302434D01*
Y195519D01*
X301519D01*
Y203460D01*
X300529Y204450D01*
X291471D01*
G37*
G36*
G01X312542Y172336D02*
X307756Y167550D01*
X297077D01*
X292532Y163006D01*
Y150802D01*
X289346D01*
Y146847D01*
X293050Y143142D01*
Y139815D01*
G02X293221Y138372I-1550J-915D01*
G03X293604Y137855I382J-117D01*
G01X294072D01*
Y134129D01*
X288928D01*
Y137855D01*
X289396D01*
G03X289779Y138372I0J400D01*
G02X289950Y139815I1721J527D01*
G01Y141858D01*
X286245Y145563D01*
Y150802D01*
X283058D01*
Y165198D01*
X286245D01*
Y166290D01*
X286347Y166392D01*
Y171755D01*
X285129D01*
Y180245D01*
X290666D01*
Y171755D01*
X289448D01*
Y165198D01*
X290340D01*
X295793Y170650D01*
X306472D01*
X309129Y173307D01*
Y178693D01*
X308466Y179356D01*
Y189428D01*
X308153D01*
Y194572D01*
X308950D01*
Y195519D01*
X308519D01*
Y203222D01*
X308950D01*
Y204313D01*
X311187Y206550D01*
X324813D01*
X327050Y204313D01*
Y203222D01*
X327481D01*
Y195519D01*
X327050D01*
Y194572D01*
X327847D01*
Y189428D01*
X324121D01*
Y191671D01*
X323950Y191842D01*
Y195519D01*
X323519D01*
Y203450D01*
X312481D01*
Y195519D01*
X312050D01*
Y191842D01*
X311879Y191671D01*
Y189428D01*
X311566D01*
Y180640D01*
X312542Y179664D01*
Y178572D01*
X312855D01*
Y173428D01*
X312542D01*
Y172336D01*
G37*
G36*
G01X339651Y92020D02*
X341566Y90105D01*
Y88572D01*
X341879D01*
Y83428D01*
X338153D01*
Y88920D01*
X336349D01*
X335876Y89392D01*
G03X335534Y89251I-141J-141D01*
G01Y88572D01*
X335847D01*
Y83428D01*
X332550D01*
Y81328D01*
X333682D01*
Y70672D01*
X323027D01*
Y81246D01*
X319923D01*
Y86974D01*
X324077D01*
Y81328D01*
X329450D01*
Y83628D01*
X326337D01*
Y88372D01*
X329450D01*
Y89313D01*
X328773Y89990D01*
Y92241D01*
X328758Y92277D01*
G02X328637Y92906I1565J628D01*
G01Y96449D01*
G02X328722Y96979I1686J0D01*
G01X328761Y97097D01*
X327577Y98281D01*
X327527Y98295D01*
G02X329248Y101346I498J1730D01*
G03X329919Y101640I272J294D01*
G01Y107187D01*
X338403D01*
Y99490D01*
X331718D01*
G03X331435Y98808I0J-400D01*
G01X331882Y98360D01*
G03X332390Y98062I391J84D01*
G02X334026Y97688I492J-1613D01*
G03X334297I136J147D01*
G02X336601Y97673I1144J-1239D01*
G03X337114Y97642I275J290D01*
G02X339486Y96449I886J-1193D01*
G01Y92906D01*
G02X339358Y92301I-1486J0D01*
G01X339340Y92262D01*
Y92020D01*
X339651D01*
G37*
G36*
G01X277973Y70672D02*
X267318D01*
Y81328D01*
X270456D01*
G03X270854Y81767I0J400D01*
G02X272720Y83744I1791J178D01*
G03X273137Y84144I17J400D01*
G01Y88572D01*
X273450D01*
Y105043D01*
X271074Y107418D01*
G03X270392Y107136I-283J-283D01*
G01Y97796D01*
X272481D01*
Y88519D01*
X271811D01*
X270879Y87587D01*
Y83428D01*
X267153D01*
Y86291D01*
G03X266525Y86620I-400J0D01*
G02X263711Y88297I-1025J1480D01*
G01X263712Y88308D01*
Y88519D01*
X263519D01*
Y97380D01*
X262481D01*
Y88572D01*
X262855D01*
Y83428D01*
X259129D01*
Y85671D01*
X258950Y85850D01*
Y88519D01*
X258519D01*
Y97380D01*
X257281D01*
Y88719D01*
X256671D01*
Y83628D01*
X253345D01*
Y88372D01*
X253719D01*
Y97596D01*
X255608D01*
Y108204D01*
X253519D01*
Y112632D01*
X253450Y112700D01*
Y118137D01*
X252428D01*
Y118450D01*
X249374D01*
X246750Y121074D01*
Y128680D01*
X249636Y131566D01*
X252428D01*
Y131879D01*
X257572D01*
Y128153D01*
X252428D01*
Y128466D01*
X250920D01*
X249850Y127395D01*
Y122358D01*
X250658Y121550D01*
X252428D01*
Y121863D01*
X257572D01*
Y118137D01*
X256550D01*
Y117481D01*
X257481D01*
Y108620D01*
X258519D01*
Y117481D01*
X258950D01*
Y118145D01*
X258428D01*
Y121871D01*
X263572D01*
Y118145D01*
X262050D01*
Y117481D01*
X262481D01*
Y108620D01*
X263519D01*
Y117481D01*
X267481D01*
Y108620D01*
X268519D01*
Y117481D01*
X268950D01*
Y118050D01*
X266050D01*
Y125950D01*
X268450D01*
Y127642D01*
X274654Y133847D01*
Y150802D01*
X271468D01*
Y165198D01*
X280942D01*
Y150802D01*
X277755D01*
Y132563D01*
X271550Y126358D01*
Y125950D01*
X273950D01*
Y118050D01*
X272050D01*
Y117481D01*
X272481D01*
Y110396D01*
X276550Y106327D01*
Y88572D01*
X276863D01*
Y83428D01*
X274561D01*
G03X274213Y82831I0J-400D01*
G02X274437Y81767I-1567J-886D01*
G03X274835Y81328I398J-40D01*
G01X277973D01*
Y70672D01*
G37*
G36*
G01X313973D02*
X303318D01*
Y81328D01*
X306449D01*
G03X306849Y81751I0J400D01*
G02X308720Y83653I1797J104D01*
G03X309137Y84053I17J400D01*
G01Y88572D01*
X309450D01*
Y105043D01*
X307074Y107418D01*
G03X306392Y107136I-283J-283D01*
G01Y97796D01*
X308481D01*
Y88519D01*
X307911D01*
X306879Y87487D01*
Y83428D01*
X303153D01*
Y86191D01*
G03X302525Y86520I-400J0D01*
G02X299723Y88287I-1025J1480D01*
G01X299725Y88303D01*
Y88519D01*
X299519D01*
Y97380D01*
X298481D01*
Y88572D01*
X298855D01*
Y83428D01*
X295129D01*
Y85671D01*
X294950Y85850D01*
Y88519D01*
X294519D01*
Y97380D01*
X293281D01*
Y88719D01*
X292671D01*
Y83628D01*
X289345D01*
Y88372D01*
X289719D01*
Y97596D01*
X291608D01*
Y108204D01*
X289519D01*
Y117481D01*
X289950D01*
Y118145D01*
X288928D01*
Y118458D01*
X285874D01*
X283250Y121082D01*
Y128688D01*
X285682Y131120D01*
G02X286986Y131560I1096J-1096D01*
G01X287000Y131558D01*
X288928D01*
Y131871D01*
X299572D01*
Y124129D01*
X294428D01*
Y128145D01*
X288928D01*
Y128458D01*
X287405D01*
X286350Y127403D01*
Y122366D01*
X287158Y121558D01*
X288928D01*
Y121871D01*
X299572D01*
Y118145D01*
X298050D01*
Y117481D01*
X298481D01*
Y108620D01*
X299519D01*
Y117481D01*
X303481D01*
Y108620D01*
X304519D01*
Y117481D01*
X304950D01*
Y118050D01*
X302050D01*
Y125950D01*
X304450D01*
Y127642D01*
X310654Y133847D01*
Y150802D01*
X307468D01*
Y165198D01*
X316942D01*
Y150802D01*
X313755D01*
Y132563D01*
X307550Y126358D01*
Y125950D01*
X309950D01*
Y118050D01*
X308050D01*
Y117481D01*
X308481D01*
Y110396D01*
X312550Y106327D01*
Y88572D01*
X312863D01*
Y83428D01*
X310507D01*
G03X310168Y82815I0J-400D01*
G02X310443Y81751I-1523J-960D01*
G03X310842Y81328I399J-23D01*
G01X313973D01*
Y70672D01*
G37*
G36*
G01X351855Y89428D02*
X348129D01*
Y94572D01*
X348442D01*
Y95428D01*
X348129D01*
Y99672D01*
G03X347446Y99954I-400J0D01*
G01X345871Y98380D01*
Y95428D01*
X342145D01*
Y100572D01*
X343679D01*
X343852Y100745D01*
G03X343569Y101428I-283J283D01*
G01X342145D01*
Y106572D01*
X342458D01*
Y107428D01*
X342145D01*
Y112572D01*
X342450D01*
Y114358D01*
X342358Y114450D01*
X340870D01*
X339686Y113265D01*
Y110228D01*
G02X336856Y108990I-1686J0D01*
G03X336585I-136J-147D01*
G02X334297Y108990I-1144J1239D01*
G03X334026I-136J-147D01*
G02X331738Y108990I-1144J1239D01*
G03X331467I-136J-147D01*
G02X328637Y110228I-1144J1239D01*
G01Y113772D01*
G02X328758Y114400I1686J0D01*
G01X328773Y114436D01*
Y115265D01*
X328588Y115450D01*
X324782D01*
X324425Y115093D01*
G03X324708Y114411I283J-283D01*
G01X325556D01*
Y109857D01*
X319137D01*
Y107642D01*
X320636Y106143D01*
X325556D01*
Y101590D01*
X323550D01*
Y100954D01*
X324277D01*
Y94826D01*
X319723D01*
Y100954D01*
X320450D01*
Y101590D01*
X318444D01*
Y103950D01*
X316036Y106358D01*
Y144229D01*
X322245Y150437D01*
Y152802D01*
X319058D01*
Y167198D01*
X328532D01*
Y152802D01*
X325346D01*
Y149153D01*
X319137Y142944D01*
Y137198D01*
X328532D01*
Y122802D01*
X325346D01*
Y118550D01*
X329872D01*
X330649Y117774D01*
G03X331332Y118057I283J283D01*
G01Y120323D01*
X331318Y120357D01*
G02X332502Y122730I1681J643D01*
G01X332552Y122744D01*
X341358Y131550D01*
X343468D01*
Y137198D01*
X352942D01*
Y122802D01*
X351844D01*
G03X351444Y122402I0J-400D01*
G02X351327Y122119I-400J0D01*
G01X348450Y119242D01*
Y118708D01*
G02X348333Y118425I-400J0D01*
G03Y117860I283J-283D01*
G01X348550Y117642D01*
Y115908D01*
G03X349233Y115625I400J0D01*
G01X349656Y116048D01*
X349670Y116098D01*
G02X351898Y113870I1730J-498D01*
G01X351848Y113856D01*
X351542Y113550D01*
Y112572D01*
X351855D01*
Y107428D01*
X351542D01*
Y106572D01*
X351855D01*
Y101428D01*
X348550D01*
Y101059D01*
X348405Y100913D01*
G03X348546Y100572I141J-141D01*
G01X351855D01*
Y95428D01*
X351542D01*
Y94572D01*
X351855D01*
Y89428D01*
G37*
G36*
G01X349750Y151715D02*
G02X346650I-1550J-915D01*
G01Y152802D01*
X343468D01*
Y167198D01*
X345497D01*
G03X345779Y167881I0J400D01*
G01X345584Y168076D01*
Y175444D01*
X344857D01*
Y182556D01*
X345584D01*
Y183024D01*
X340450Y188158D01*
Y189428D01*
X340137D01*
Y194572D01*
X340442D01*
Y196428D01*
X340129D01*
Y198593D01*
X339024Y199698D01*
X339008D01*
X338354Y200351D01*
G03X337671Y200068I-283J-283D01*
G01Y196628D01*
X334345D01*
Y201018D01*
G03X334157Y201218I-200J0D01*
G02X332577Y202898I103J1680D01*
G01Y205654D01*
G02X335676Y206562I1683J0D01*
G03X336361Y206581I337J216D01*
G02X336450Y206722I1639J-927D01*
G01Y209248D01*
X339857Y212656D01*
Y215102D01*
G02X343623I1883J0D01*
G01Y212346D01*
G02X342137Y210506I-1883J0D01*
G01X342080Y210493D01*
X339550Y207964D01*
Y206722D01*
G02X339690Y206483I-1550J-1068D01*
G03X340050I180J88D01*
G02X340158Y206674I1691J-829D01*
G01X340190Y206724D01*
Y207075D01*
X345428Y212313D01*
Y213847D01*
X350572D01*
Y210121D01*
X347620D01*
X346046Y208546D01*
G03X346328Y207863I283J-283D01*
G01X350572D01*
Y204137D01*
X350073D01*
G03X349696Y203603I0J-400D01*
G02X346304I-1696J-603D01*
G03X345927Y204137I-377J134D01*
G01X345428D01*
Y206963D01*
G03X344745Y207246I-400J0D01*
G01X343578Y206078D01*
X343595Y205976D01*
G02X343623Y205654I-1855J-322D01*
G01Y202898D01*
G02X343461Y202134I-1883J0D01*
G03X343827Y201572I366J-162D01*
G01X343855D01*
Y196428D01*
X343542D01*
Y195672D01*
X343550Y195664D01*
Y194572D01*
X343863D01*
Y189428D01*
X343776Y189217D01*
X348684Y184308D01*
Y182556D01*
X349410D01*
Y175444D01*
X348684D01*
Y169361D01*
X349755Y168290D01*
Y167198D01*
X352942D01*
Y152802D01*
X349750D01*
Y151715D01*
G37*
G36*
G01X252943Y188644D02*
X248790D01*
Y195719D01*
X247719D01*
Y203022D01*
X251281D01*
Y195356D01*
X252719D01*
Y203022D01*
X256281D01*
Y195719D01*
X252943D01*
Y188644D01*
G37*
G36*
G01X228943D02*
X224790D01*
Y195356D01*
X225719D01*
Y203022D01*
X229281D01*
Y195719D01*
X228943D01*
Y188644D01*
G37*
G54D65*
X234000Y139716D03*
X270000D03*
X306000D03*
G54D64*
X214000Y214000D03*
X230000Y211000D03*
X253000D03*
X274000D03*
X298000Y212000D03*
X317000Y211000D03*
G54D63*
X217354Y76000D03*
X253354D03*
X289354D03*
X347646D03*
G54D59*
X125000Y223800D03*
X228866Y229000D03*
X272866Y235000D03*
X294866D03*
X316866D03*
X338866Y179000D03*
X342000Y228000D03*
G54D61*
X138157Y230800D03*
G54D66*
X228102Y176000D03*
X276000D03*
X300102D03*
G54D62*
X261000Y128000D03*
X225000D03*
G54D68*
X227500Y220630D03*
X249500D03*
X276500Y199370D03*
X271500D03*
X298500D03*
X293500D03*
X315500D03*
X320500D03*
G54D60*
X126000Y216800D03*
X221984Y183000D03*
X218008Y228000D03*
X240008Y192000D03*
X242008Y228000D03*
X276000Y192000D03*
X269984Y183000D03*
X272000Y192000D03*
X294000D03*
X298000D03*
X305008Y176000D03*
X316000Y192000D03*
X320000D03*
X346000Y86000D03*
X344008Y92000D03*
X336016Y192000D03*
X340000Y221000D03*
G54D58*
X131000Y231800D03*
X219000Y125992D03*
X225000Y135992D03*
X255000Y125984D03*
X261000Y135992D03*
X291500Y125992D03*
X297000Y135992D03*
G54D67*
X222500Y220630D03*
X244500D03*
%LPD*%
G75*
G54D10*
X4282Y3966D03*
Y13966D03*
Y23966D03*
Y33966D03*
Y43966D03*
Y53966D03*
Y63966D03*
Y73966D03*
Y83966D03*
Y93966D03*
Y103966D03*
Y113966D03*
X10900Y130500D03*
X4282Y123966D03*
Y133966D03*
Y143966D03*
Y153966D03*
Y163966D03*
Y173966D03*
Y183966D03*
Y193966D03*
Y203966D03*
Y213966D03*
Y223966D03*
Y233966D03*
Y243966D03*
Y253966D03*
Y263966D03*
Y273966D03*
Y283966D03*
Y293966D03*
Y303966D03*
Y313966D03*
Y323966D03*
Y333966D03*
Y343966D03*
Y353966D03*
Y363966D03*
Y373966D03*
Y383966D03*
Y393966D03*
Y403966D03*
Y413966D03*
Y423966D03*
X14400Y72600D03*
X21900Y62900D03*
X16400Y86984D03*
Y91421D03*
X17300Y76134D03*
X16100Y81000D03*
X22500Y96000D03*
X17000Y96200D03*
X14500Y96300D03*
Y100900D03*
X14400Y106100D03*
X26200Y111100D03*
X15600Y122300D03*
X14679Y117820D03*
X15100Y109700D03*
X14847Y125153D03*
X14848Y127791D03*
X14200Y130600D03*
X13900Y138158D03*
X15400Y135500D03*
X25344Y165144D03*
X19400Y164700D03*
X26400Y168000D03*
X19500Y167800D03*
X22700Y168400D03*
X20400Y171200D03*
X25300Y175300D03*
X27006Y226800D03*
X18000Y242000D03*
Y256000D03*
Y273000D03*
Y296000D03*
Y329000D03*
Y369000D03*
X14100Y391100D03*
X34550Y44650D03*
X28039Y76439D03*
X30400Y78000D03*
X40286Y91800D03*
X33306Y93506D03*
X35300Y116504D03*
X29837Y113137D03*
X39600Y108401D03*
X38900Y111000D03*
X37500Y114100D03*
X34300Y110500D03*
X35950Y112650D03*
X33306Y141300D03*
X38400Y168000D03*
X30500Y164000D03*
X36200Y174900D03*
X30156Y194200D03*
X36455Y194500D03*
X33306Y194100D03*
X39300Y194700D03*
X42754Y194654D03*
X35138Y209430D03*
X33800Y207200D03*
X37100Y223900D03*
X39900Y224600D03*
X42494Y224781D03*
X40300Y243400D03*
X40537Y265863D03*
X33532Y270268D03*
X35616Y306984D03*
X35500Y328000D03*
Y345000D03*
X54600Y91400D03*
X53400Y77500D03*
X47085Y104900D03*
X44314Y91800D03*
X57900Y92700D03*
X47300Y91926D03*
X45300Y152800D03*
X54900Y150200D03*
X56803Y152244D03*
X53100Y165400D03*
X55241Y163924D03*
X54400Y168400D03*
X58896Y166159D03*
X47800Y163400D03*
X50600Y177000D03*
X58000D03*
X50600Y171800D03*
X52100Y194200D03*
X49200Y194100D03*
X55300D03*
X58600Y193000D03*
X45904Y194696D03*
X55600Y226500D03*
X44994Y226413D03*
X52400Y226200D03*
X58600Y227700D03*
X49200Y226100D03*
X51000Y238100D03*
X58568Y265161D03*
X49200Y260043D03*
X59300Y251700D03*
X58639Y272839D03*
X58121Y270280D03*
X57521Y267720D03*
X50132Y289716D03*
X48516Y299861D03*
X48841Y302441D03*
X49500Y311000D03*
X58400Y313800D03*
X58360Y324607D03*
Y330607D03*
Y327607D03*
X54022Y320322D03*
X58360Y336607D03*
Y333607D03*
X48900Y345000D03*
X74400Y89900D03*
X61400Y90600D03*
X74400Y83300D03*
X61400Y83848D03*
X66900Y121700D03*
X72600Y112800D03*
X69400Y117500D03*
X75103Y115400D03*
X75000Y111000D03*
X66700Y118100D03*
X73215Y109110D03*
X72800Y117100D03*
X69900Y110600D03*
X74900Y127964D03*
X72004Y130164D03*
X70599Y134434D03*
X72871Y138364D03*
X74247Y132364D03*
X69900Y137700D03*
X61400Y125700D03*
X71800Y127500D03*
X65900Y152000D03*
X70263Y153311D03*
X64085Y150139D03*
X72700Y149085D03*
X61276Y151700D03*
X69596Y147598D03*
X74500Y140390D03*
X75413Y143087D03*
X60513Y142313D03*
X69700Y145000D03*
X74663Y153748D03*
X70702Y150748D03*
X67018Y149652D03*
X74277Y151154D03*
X68000Y193700D03*
X61700Y248500D03*
X68500Y273800D03*
X69400Y277612D03*
X67700Y270954D03*
X73684Y289716D03*
X61800Y285000D03*
X62100Y292000D03*
X64076Y298135D03*
X62076D03*
X60076D03*
X75282Y299882D03*
X64076Y304135D03*
X62076D03*
X60076D03*
X64076Y302135D03*
X62076D03*
X60076D03*
X64076Y300135D03*
X62076D03*
X60076D03*
X61360Y324607D03*
X64360D03*
X67360D03*
Y330607D03*
X64360D03*
X61360D03*
X67360Y327607D03*
X64360D03*
X61360D03*
X75700Y316000D03*
X74700Y344000D03*
X67360Y336607D03*
X64360D03*
X61360D03*
X67360Y333607D03*
X64360D03*
X61360D03*
X66400Y347000D03*
X61400Y349500D03*
X74800Y350000D03*
X75049Y366000D03*
X68100Y422900D03*
X85400Y25700D03*
X90384Y69984D03*
X86400Y81100D03*
X79400Y83500D03*
X91400Y106800D03*
X90900Y143200D03*
X88009Y140100D03*
X90300Y171137D03*
X89700Y178000D03*
X90600Y185000D03*
X86960Y195577D03*
X86100Y192700D03*
X89700Y193800D03*
X89000Y201795D03*
X86497Y198504D03*
X90300Y190000D03*
X89274Y210595D03*
X89100Y206195D03*
X87398Y212947D03*
X89000Y214995D03*
X87534Y204066D03*
X87471Y208529D03*
X90300Y217300D03*
X80639Y265161D03*
X80428Y278022D03*
X90394Y275268D03*
X78400Y311300D03*
X84600Y318000D03*
X91200Y328000D03*
X78400Y338000D03*
X90900Y345000D03*
X78132Y349768D03*
X84100Y391100D03*
X92850Y25250D03*
X100700Y77000D03*
X107600Y90800D03*
X104411Y104000D03*
X102800Y106200D03*
X106600Y95300D03*
X106300Y99900D03*
X96950Y122450D03*
X96911Y109511D03*
X103411Y129000D03*
X101727Y152000D03*
X96100Y148100D03*
X97400Y170000D03*
X96900Y185000D03*
X96800Y178000D03*
X96700Y189900D03*
X97300Y195000D03*
X99898Y215498D03*
X92970Y217324D03*
X97500Y216700D03*
X95000Y215700D03*
X94400Y262800D03*
X104400Y262000D03*
Y273988D03*
X95500Y283000D03*
X105800Y306984D03*
X106000Y328000D03*
X105400Y345000D03*
X116400Y35000D03*
X111400Y83400D03*
X108400Y87000D03*
X108600Y97644D03*
X109800Y93100D03*
X115916Y105016D03*
X117039Y118181D03*
X121439Y118039D03*
X115700Y138000D03*
X112900Y124600D03*
X114877Y146187D03*
X118826Y143337D03*
X115218Y149682D03*
X117850Y155350D03*
X117386Y145502D03*
X118900Y139800D03*
X115093Y159699D03*
X117400Y158500D03*
X115195Y169795D03*
X116347Y187400D03*
X115506Y181606D03*
X115469Y177669D03*
X115889Y173600D03*
X116095Y191900D03*
X122977Y191938D03*
X112400Y202000D03*
X117561Y189700D03*
X115996Y194498D03*
X109400Y205000D03*
X116400Y262900D03*
X120116Y289716D03*
X118516Y299861D03*
X118841Y302441D03*
X119400Y311000D03*
X118700Y345000D03*
X130400Y87000D03*
X127616Y105016D03*
X125376Y137500D03*
X127345Y135300D03*
X129313Y132900D03*
X139156Y131200D03*
X134900Y131300D03*
X135325Y161601D03*
X136885Y163680D03*
X135769Y158894D03*
X138410Y157190D03*
X138408Y165788D03*
X124300Y189700D03*
X134200Y231800D03*
X135900Y235100D03*
X130400Y235700D03*
X130700Y260800D03*
X135700Y259400D03*
X128082Y258482D03*
X138339Y265161D03*
X138900Y273300D03*
X139600Y277412D03*
X129100Y273200D03*
X136500Y275602D03*
X128180Y267720D03*
X131900Y285000D03*
X131700Y292000D03*
X134076Y298135D03*
X132076D03*
X130076D03*
X128400Y313900D03*
X134076Y304135D03*
X132076D03*
X134076Y302135D03*
X132076D03*
X134076Y300135D03*
X132076D03*
X130076Y304135D03*
Y302135D03*
Y300135D03*
X137360Y330507D03*
X134360D03*
X131360D03*
X137360Y327507D03*
X134360D03*
X131360D03*
X137360Y324507D03*
X134360D03*
X131360D03*
X128360Y330507D03*
Y327507D03*
Y324507D03*
X124038Y320322D03*
X137360Y336507D03*
X134360D03*
X131360D03*
X137360Y333507D03*
X134360D03*
X131360D03*
X128360Y336507D03*
Y333507D03*
X136400Y347000D03*
X131400Y349800D03*
X138100Y422900D03*
X140316Y86984D03*
X142700Y107500D03*
X143084Y110984D03*
X154800Y112500D03*
X143300Y144700D03*
X141100Y147000D03*
X139686Y168052D03*
X154700Y169100D03*
X142000Y170000D03*
X142800Y172600D03*
X144391Y174747D03*
X146031Y176765D03*
X150211Y179532D03*
X148502Y177573D03*
X152500Y172152D03*
X153300Y212222D03*
X149100Y218500D03*
X149800Y214700D03*
X154900Y219000D03*
X140700Y235100D03*
X145900D03*
X151200D03*
X151900Y225816D03*
X155000Y223800D03*
X150428Y278022D03*
X143684Y289716D03*
X148400Y310400D03*
X145282Y299882D03*
X154900Y317300D03*
X145100Y316000D03*
X148400Y338000D03*
X144856Y344000D03*
X148132Y349868D03*
X145400Y350000D03*
X145000Y366000D03*
X154100Y391100D03*
X159331Y15169D03*
X164400Y90100D03*
X170000Y93000D03*
X160400Y101700D03*
X160800Y113697D03*
X166150Y147150D03*
X167500Y149400D03*
X156211Y178800D03*
X158600Y181200D03*
X164500Y183900D03*
X167031Y185331D03*
X161450Y185450D03*
X159800Y188000D03*
X156300Y212800D03*
X168100Y250400D03*
X163400D03*
X166700Y263200D03*
X155800Y253000D03*
X170698Y251987D03*
X161100Y252900D03*
X165100Y283000D03*
X160394Y275268D03*
X161100Y328000D03*
X161000Y345000D03*
X185500Y3358D03*
X185669Y15169D03*
X179500Y26000D03*
X179900Y32000D03*
X184400Y90400D03*
X174400Y90000D03*
X181700Y93000D03*
X182400Y101900D03*
X187400D03*
Y117000D03*
X184432Y128269D03*
X182500Y144500D03*
X175242Y148142D03*
X173937Y150391D03*
X172400Y201600D03*
X175200Y219000D03*
X175000Y213000D03*
X172400Y225300D03*
X184700Y242600D03*
X182100Y240300D03*
X179400Y238000D03*
Y264726D03*
Y274900D03*
X174800Y271000D03*
X175016Y306984D03*
X175500Y328000D03*
X175000Y345000D03*
X198600Y90476D03*
X198847Y154047D03*
X199400Y150500D03*
Y171000D03*
X202200Y179400D03*
X199400Y173732D03*
X200700Y177100D03*
X199400Y199323D03*
X201950Y212450D03*
X199794Y210996D03*
X194600Y221700D03*
X191000Y219500D03*
Y223900D03*
X199000Y264200D03*
X189100Y260100D03*
X202400Y265000D03*
X199000Y256900D03*
X199100Y276200D03*
X202500Y275500D03*
X197520Y267720D03*
X190116Y289716D03*
X201800Y285000D03*
X202076Y298135D03*
X200076D03*
X202000Y292000D03*
X188516Y299861D03*
X188841Y302441D03*
X189400Y311000D03*
X198400Y314000D03*
X202076Y304135D03*
Y302135D03*
Y300135D03*
X200076Y304135D03*
Y302135D03*
Y300135D03*
X201360Y330607D03*
Y327607D03*
Y324607D03*
X198360Y330607D03*
Y327607D03*
Y324607D03*
X194022Y320322D03*
X201360Y336607D03*
Y333607D03*
X198360Y336607D03*
Y333607D03*
X189000Y345000D03*
X201400Y349600D03*
X208400Y51900D03*
X210900Y49700D03*
X208700Y47400D03*
X206100Y45200D03*
X219008Y82200D03*
X215700Y125992D03*
X206100Y149200D03*
Y168900D03*
Y183500D03*
X206300Y194700D03*
X217700Y203400D03*
X216008Y196592D03*
X204400Y213800D03*
X206200Y215700D03*
X214000Y214000D03*
X215300Y222300D03*
X218008Y231500D03*
X214000Y236100D03*
X206800Y273200D03*
X208600Y278000D03*
X213684Y289716D03*
X204076Y298135D03*
X218400Y310700D03*
X215282Y299882D03*
X204076Y304135D03*
Y302135D03*
Y300135D03*
X207359Y330607D03*
X204360D03*
X207359Y327607D03*
X204360D03*
X207359Y324607D03*
X204360D03*
X215700Y316000D03*
X214800Y344000D03*
X218400Y338000D03*
X207359Y336607D03*
X204360D03*
X207359Y333607D03*
X204360D03*
X206400Y347300D03*
X218132Y348968D03*
X215000Y350000D03*
X215049Y366000D03*
X208100Y422900D03*
X229500Y88019D03*
X226400Y75900D03*
X231523Y106001D03*
X228523D03*
X225523D03*
X222523D03*
X231523Y103001D03*
X228523D03*
X225523D03*
X222523D03*
X231523Y100001D03*
X228523D03*
X225523D03*
X222523D03*
X228900Y135992D03*
X225400Y146400D03*
X224200Y169700D03*
X227900Y160600D03*
X226866Y186066D03*
X223192Y177692D03*
X230000Y211000D03*
X232500Y215400D03*
X224100Y213000D03*
X223992Y231500D03*
X227500Y225000D03*
X234400Y262500D03*
X221739Y265161D03*
X220428Y278022D03*
X234500Y283000D03*
X227400Y278100D03*
X225150Y318450D03*
X231100Y328000D03*
X230900Y345000D03*
X224100Y391100D03*
X245400Y73700D03*
X236646Y81646D03*
X248700Y90400D03*
X246500Y84200D03*
X246800Y96500D03*
X245800Y104900D03*
X244800Y113200D03*
X241600Y123000D03*
X245800Y133800D03*
X250984Y125984D03*
X246800Y145900D03*
X236200Y170200D03*
X247500Y178300D03*
X236200Y180500D03*
X250866Y185534D03*
X241100Y197800D03*
X235800Y209400D03*
X247700Y212800D03*
X247992Y231408D03*
X237134Y225000D03*
X251349Y225249D03*
X242008Y231508D03*
X245500Y236600D03*
X243400Y262300D03*
X249400Y274800D03*
X244916Y306984D03*
X245600Y328000D03*
X245200Y345000D03*
X265500Y88100D03*
X263200Y76900D03*
X255008Y81800D03*
X264523Y106001D03*
X261523D03*
X258523D03*
X264523Y103001D03*
X261523D03*
X258523D03*
X264523Y100001D03*
X261523D03*
X258523D03*
X265000Y135992D03*
X262500Y147300D03*
X265400Y156400D03*
X254600Y179500D03*
X253000Y211000D03*
X254500Y215300D03*
X259300Y208800D03*
X259500Y225200D03*
X257800Y236300D03*
X256400Y263379D03*
X260184Y289716D03*
X258516Y299861D03*
X258841Y302441D03*
X259600Y311000D03*
X264038Y320338D03*
X259200Y345000D03*
X272646Y81946D03*
X280600Y80800D03*
X282100Y90400D03*
X282800Y99200D03*
X281600Y105800D03*
X267523Y106001D03*
Y103001D03*
Y100001D03*
X279900Y115700D03*
X278700Y129900D03*
X282400Y143900D03*
X268400Y167500D03*
X278900Y184300D03*
X270941Y177841D03*
X276000Y195100D03*
X272000D03*
X280900Y210400D03*
X268800Y212000D03*
X271500Y214700D03*
X274000Y211000D03*
X276008Y231858D03*
X281992Y225000D03*
Y231000D03*
X274316Y224508D03*
X270800Y262600D03*
X280539Y265161D03*
X270300Y251500D03*
X279720Y270280D03*
X280098Y275398D03*
X269400Y274100D03*
X273400Y268000D03*
X274300Y271000D03*
X268720Y267720D03*
X271900Y285000D03*
X274076Y298135D03*
X272076D03*
X270076D03*
X271900Y292000D03*
X268384Y313900D03*
X274076Y304135D03*
X272076D03*
X274076Y302135D03*
X272076D03*
X274076Y300135D03*
X272076D03*
X270076Y304135D03*
Y302135D03*
Y300135D03*
X277360Y330607D03*
X274360D03*
X271360D03*
X277360Y327607D03*
X274360D03*
X271360D03*
X277360Y324607D03*
X274360D03*
X271360D03*
X268360Y330607D03*
Y327607D03*
Y324607D03*
X277360Y336607D03*
X274360D03*
X271360D03*
X277360Y333607D03*
X274360D03*
X271360D03*
X268360Y336607D03*
Y333607D03*
X271400Y349800D03*
X276400Y347200D03*
X278100Y422900D03*
X285400Y29800D03*
X298800Y75400D03*
X291000Y82000D03*
X294523Y106001D03*
Y103001D03*
Y100001D03*
X297523Y106001D03*
Y103001D03*
Y100001D03*
X287708Y125992D03*
X291500Y138900D03*
X286500Y183900D03*
X293600Y183700D03*
X298000Y195000D03*
X294000Y195100D03*
X298000Y212000D03*
X290900Y212800D03*
X293500Y215400D03*
X296316Y224508D03*
X298008Y231858D03*
X288200Y235600D03*
X290428Y278022D03*
X283684Y289716D03*
X288400Y310500D03*
X285282Y299882D03*
X294800Y318100D03*
X285100Y316000D03*
X288400Y338000D03*
X284600Y344000D03*
X285200Y350000D03*
X288132Y349332D03*
X285049Y366000D03*
X301500Y88000D03*
X308646Y81854D03*
X303523Y106001D03*
X300523D03*
X303523Y103001D03*
X300523D03*
X303523Y100001D03*
X300523D03*
X312800Y114900D03*
X301400Y135992D03*
X300300Y148800D03*
X300800Y157600D03*
X303000Y184300D03*
Y176000D03*
X304200Y210400D03*
X312200Y211800D03*
X303992Y231000D03*
Y225000D03*
X310000Y236800D03*
X304400Y261900D03*
X314600Y279000D03*
X304600Y283000D03*
X299900Y271500D03*
X299713Y275000D03*
X308584Y290984D03*
X308600Y285000D03*
X308400Y301000D03*
X309300Y308000D03*
X303460Y319740D03*
X300900Y328000D03*
X308983Y339778D03*
X303378Y345000D03*
X308400Y356500D03*
X304400Y370000D03*
X325200Y86000D03*
X315500Y96800D03*
X328025Y100025D03*
X317900Y148700D03*
X325800Y176900D03*
X317700Y173800D03*
X327800Y182200D03*
X319700Y183200D03*
X320000Y195100D03*
X316000Y195022D03*
X317000Y211000D03*
X325800Y210400D03*
X315500Y215000D03*
X318311Y224502D03*
X325992Y225000D03*
Y231000D03*
X320008Y231858D03*
X329000Y264000D03*
X323591Y291000D03*
X318400Y311585D03*
X327300Y352638D03*
X323139Y351339D03*
X321400Y376300D03*
Y363600D03*
X337800Y75600D03*
X345981Y89300D03*
X332174Y101319D03*
X334174D03*
X336174D03*
X332174Y103319D03*
X334174D03*
X336174D03*
X332174Y105319D03*
X334174D03*
X336174D03*
X333000Y121000D03*
X332700Y130900D03*
X336400Y140000D03*
X336100Y150500D03*
X337300Y162300D03*
X332200Y171600D03*
X334100Y179000D03*
X332100Y199200D03*
X336016Y195022D03*
X334016Y217978D03*
Y224000D03*
X342101Y223501D03*
X339700Y235800D03*
X331450Y242650D03*
X336700Y282400D03*
X334300Y299500D03*
X338400Y317300D03*
X333400Y335500D03*
X358262Y3466D03*
Y23466D03*
Y13466D03*
Y43466D03*
Y33466D03*
Y53466D03*
Y73466D03*
Y63466D03*
Y83466D03*
X352000Y85600D03*
X357000Y78500D03*
X358262Y103466D03*
Y93466D03*
X351400Y115600D03*
X358262Y123466D03*
Y113466D03*
Y133466D03*
X348200Y150800D03*
X358262Y153466D03*
Y143466D03*
Y163466D03*
Y183466D03*
Y173466D03*
X348000Y203000D03*
X358262Y203466D03*
Y193466D03*
X347300Y196100D03*
X358262Y213466D03*
Y233466D03*
Y223466D03*
X349300Y220400D03*
X348800Y229000D03*
X358262Y243466D03*
X347400Y265200D03*
X358262Y263466D03*
Y253466D03*
X352500Y279000D03*
X358262Y273466D03*
Y293466D03*
Y283466D03*
Y313466D03*
Y303466D03*
Y323466D03*
X347400Y341537D03*
X358262Y343466D03*
Y333466D03*
Y353466D03*
Y373466D03*
Y363466D03*
X348384Y369000D03*
X358262Y393466D03*
Y383466D03*
Y403466D03*
Y423466D03*
Y413466D03*
G54D11*
X12400Y86268D03*
Y78000D03*
X39400Y262000D03*
Y270268D03*
X86400Y86268D03*
Y78000D03*
X104400Y77732D03*
Y86000D03*
X109400Y262000D03*
X94400Y267000D03*
X109400Y270268D03*
X94400Y275268D03*
X164400Y267000D03*
Y275268D03*
X179400Y262000D03*
Y270268D03*
X234400Y267000D03*
Y275268D03*
X249400Y262000D03*
Y270268D03*
X304400Y267000D03*
Y275268D03*
X322000Y103866D03*
Y112134D03*
G54D20*
X13400Y242000D03*
Y256000D03*
Y273000D03*
Y296000D03*
Y329000D03*
Y369000D03*
X59361Y378000D03*
X79361D03*
X120400Y35000D03*
X129361Y378000D03*
X149361D03*
X199361D03*
X219361D03*
X269361D03*
X289361D03*
G54D21*
X25155Y391055D03*
Y422945D03*
X41100Y407000D03*
X57045Y391055D03*
Y422945D03*
X95155Y391055D03*
Y422945D03*
X111100Y407000D03*
X127045Y391055D03*
Y422945D03*
X165155Y391055D03*
Y422945D03*
X181100Y407000D03*
X197045Y391055D03*
Y422945D03*
X235155Y391055D03*
Y422945D03*
X251100Y407000D03*
X267045Y391055D03*
Y422945D03*
G54D12*
X10900Y116992D03*
Y111008D03*
Y121508D03*
Y134008D03*
Y127492D03*
Y139992D03*
X14400Y69984D03*
Y64000D03*
X24400Y86984D03*
Y81000D03*
X19400Y86984D03*
Y81000D03*
X39400Y86984D03*
Y81000D03*
X44400Y86984D03*
Y81000D03*
X29400Y86984D03*
Y81000D03*
X34400Y86984D03*
Y81000D03*
X40400Y171016D03*
X33400D03*
X40400Y177000D03*
X33400D03*
X44400Y296984D03*
Y291000D03*
X39400Y296984D03*
Y291000D03*
Y306984D03*
Y301000D03*
X44400Y306984D03*
Y301000D03*
X39400Y322016D03*
Y328000D03*
Y337984D03*
Y332000D03*
X59400Y86984D03*
Y81000D03*
X49400Y86984D03*
Y81000D03*
X54400Y86984D03*
Y81000D03*
X47400Y171016D03*
X54400D03*
X47400Y177000D03*
X54400D03*
X46400Y241016D03*
Y247000D03*
Y261016D03*
Y267000D03*
Y276984D03*
Y271000D03*
X45400Y327984D03*
Y322000D03*
Y337984D03*
Y332000D03*
X64400Y86984D03*
Y81000D03*
X69400Y86984D03*
Y81000D03*
X74400Y86984D03*
Y81000D03*
X61400Y171016D03*
Y177000D03*
X85400Y69984D03*
Y64000D03*
X79400Y86992D03*
Y81008D03*
X84400Y296984D03*
Y291000D03*
X79400Y296984D03*
Y291000D03*
X84400Y306984D03*
Y301000D03*
X79400Y306984D03*
Y301000D03*
X82400Y322016D03*
Y328000D03*
X87400Y322016D03*
Y328000D03*
Y332016D03*
Y338000D03*
X82400Y337984D03*
Y332000D03*
X86400Y361984D03*
Y356000D03*
Y366016D03*
Y372000D03*
X111400Y81016D03*
Y87000D03*
X124400Y105016D03*
X119400D03*
X124400Y111000D03*
X119400D03*
X116400Y261016D03*
Y267000D03*
Y276984D03*
Y271000D03*
X114400Y296984D03*
Y291000D03*
X109400Y296984D03*
Y291000D03*
Y306984D03*
Y301000D03*
X114400Y306984D03*
Y301000D03*
X115400Y327984D03*
Y322000D03*
X109400Y322016D03*
Y328000D03*
Y337984D03*
Y332000D03*
X115400Y337984D03*
Y332000D03*
X132400Y25992D03*
Y20008D03*
Y35992D03*
Y30008D03*
Y40008D03*
Y45992D03*
X134400Y81016D03*
Y87000D03*
X139400Y105000D03*
Y110984D03*
X131000Y215816D03*
Y221800D03*
Y225816D03*
Y231800D03*
X144400Y86984D03*
Y81000D03*
X155000Y215816D03*
Y221800D03*
Y225816D03*
Y231800D03*
X149400Y296984D03*
Y291000D03*
X154400Y296984D03*
Y291000D03*
Y306984D03*
Y301000D03*
X149400Y306984D03*
Y301000D03*
X152400Y322016D03*
Y328000D03*
Y337984D03*
Y332000D03*
X156400Y361984D03*
Y356000D03*
Y366016D03*
Y372000D03*
X164400Y86984D03*
Y81000D03*
X160400Y105000D03*
Y110984D03*
X172400Y216016D03*
Y222000D03*
X157400Y322016D03*
Y328000D03*
Y332016D03*
Y338000D03*
X184400Y86984D03*
Y81000D03*
X174400Y86984D03*
Y81000D03*
X187400Y105000D03*
X182400D03*
X187400Y110984D03*
X182400D03*
X186400Y261016D03*
Y267000D03*
Y276984D03*
Y271000D03*
X184400Y296984D03*
Y291000D03*
X179400Y296984D03*
Y291000D03*
Y306984D03*
Y301000D03*
X184400Y306984D03*
Y301000D03*
X185400Y327984D03*
Y322000D03*
X179400Y322016D03*
Y328000D03*
Y337984D03*
Y332000D03*
X185400Y337984D03*
Y332000D03*
X194400Y86984D03*
Y81000D03*
X219000Y120008D03*
Y130016D03*
Y136000D03*
Y125992D03*
X219400Y296984D03*
Y291000D03*
Y306984D03*
Y301000D03*
X225000Y120008D03*
Y130008D03*
Y135992D03*
Y125992D03*
X224400Y296984D03*
Y291000D03*
Y306984D03*
Y301000D03*
X222400Y322016D03*
Y328000D03*
X227400Y322016D03*
Y328000D03*
Y332016D03*
Y338000D03*
X222400Y337984D03*
Y332000D03*
X226400Y361984D03*
Y356000D03*
Y366016D03*
Y372000D03*
X249400Y296984D03*
Y291000D03*
Y306984D03*
Y301000D03*
Y322016D03*
Y328000D03*
Y337984D03*
Y332000D03*
X255000Y120000D03*
X261000Y120008D03*
Y130008D03*
Y135992D03*
X255000Y130016D03*
Y136000D03*
Y125984D03*
X261000Y125992D03*
X256400Y261016D03*
Y267000D03*
Y276984D03*
Y271000D03*
X254400Y296984D03*
Y291000D03*
Y306984D03*
Y301000D03*
X255400Y327984D03*
Y322000D03*
Y337984D03*
Y332000D03*
X285400Y33016D03*
Y39000D03*
X291500Y120008D03*
X297000D03*
Y130008D03*
Y135992D03*
X291500Y130008D03*
Y135992D03*
Y125992D03*
X297000D03*
X294400Y296984D03*
Y291000D03*
X289400Y296984D03*
Y291000D03*
X294400Y306984D03*
Y301000D03*
X289400Y306984D03*
Y301000D03*
X292400Y322016D03*
Y328000D03*
X297400Y322016D03*
Y328000D03*
Y332016D03*
Y338000D03*
X292400Y337984D03*
Y332000D03*
X296400Y361984D03*
Y356000D03*
Y366016D03*
Y372000D03*
X313400Y264016D03*
Y270000D03*
X312400Y295016D03*
Y290984D03*
Y285000D03*
Y301000D03*
X308400Y343000D03*
Y359984D03*
Y354000D03*
Y348984D03*
X327400Y343016D03*
Y349000D03*
X348000Y211984D03*
Y206000D03*
X347400Y263000D03*
Y273016D03*
Y279000D03*
Y268984D03*
Y290984D03*
Y285000D03*
Y295016D03*
Y301000D03*
Y344000D03*
Y359984D03*
Y354000D03*
Y349984D03*
G54D30*
X63030Y330500D03*
X133030D03*
X203030D03*
X273030D03*
G54D40*
X217354Y76000D03*
X236646D03*
X253354D03*
X272646D03*
X289354D03*
X308646D03*
X328354D03*
X326400Y312000D03*
X347646Y76000D03*
X345691Y312000D03*
G54D22*
X33837Y12929D03*
X66002D03*
X141400Y23654D03*
Y33654D03*
Y43654D03*
X260589Y14000D03*
Y43189D03*
Y55000D03*
X272400Y43189D03*
G54D13*
X11258Y188118D03*
Y233000D03*
X27006Y188118D03*
X23857D03*
X20707D03*
X17557D03*
X14408D03*
Y233000D03*
X17557D03*
X20707D03*
X23857D03*
X27006D03*
X42754Y188118D03*
X39605D03*
X36455D03*
X33306D03*
X30156D03*
Y233000D03*
X33306D03*
X36455D03*
X39605D03*
X42754D03*
X58502Y188118D03*
X55353D03*
X52203D03*
X49054D03*
X45904D03*
Y233000D03*
X49054D03*
X52203D03*
X55353D03*
X58502D03*
X74250Y188118D03*
X71101D03*
X67951D03*
X64802D03*
X61652D03*
Y233000D03*
X64802D03*
X67951D03*
X71101D03*
X74250D03*
X77400Y188118D03*
Y233000D03*
G54D31*
X52400Y323000D03*
Y328000D03*
Y333000D03*
Y338000D03*
X58140Y356000D03*
Y361000D03*
Y366000D03*
Y371000D03*
X73660Y328000D03*
Y323000D03*
Y338000D03*
Y333000D03*
X79400Y361000D03*
Y356000D03*
Y371000D03*
Y366000D03*
X122400Y323000D03*
Y328000D03*
Y333000D03*
Y338000D03*
X128140Y356000D03*
Y361000D03*
Y366000D03*
Y371000D03*
X143660Y328000D03*
Y323000D03*
Y338000D03*
Y333000D03*
X149400Y361000D03*
Y356000D03*
Y371000D03*
Y366000D03*
X192400Y323000D03*
Y328000D03*
Y333000D03*
Y338000D03*
X198140Y356000D03*
Y361000D03*
Y366000D03*
Y371000D03*
X213660Y328000D03*
Y323000D03*
Y338000D03*
Y333000D03*
X219400Y361000D03*
Y356000D03*
Y371000D03*
Y366000D03*
X262400Y323000D03*
Y328000D03*
Y333000D03*
Y338000D03*
X268140Y356000D03*
Y361000D03*
Y366000D03*
Y371000D03*
X283660Y328000D03*
Y323000D03*
Y338000D03*
Y333000D03*
X289400Y361000D03*
Y356000D03*
Y371000D03*
Y366000D03*
X319140Y286000D03*
Y291000D03*
Y296000D03*
Y301000D03*
X340400Y296000D03*
Y291000D03*
Y286000D03*
Y301000D03*
G54D23*
X32400Y56000D03*
G54D41*
X219500Y93158D03*
Y112842D03*
X234500Y93158D03*
X229500D03*
X224500D03*
Y112842D03*
X229500D03*
X234500D03*
X265500Y93158D03*
X260500D03*
X255500D03*
Y112842D03*
X260500D03*
X265500D03*
X270500Y93158D03*
Y112842D03*
X296500Y93158D03*
X291500D03*
Y112842D03*
X296500D03*
X306500Y93158D03*
X301500D03*
Y112842D03*
X306500D03*
G54D50*
X313620Y390043D03*
X328580D03*
X321100Y403000D03*
G54D32*
X89200Y12772D03*
X85460Y21828D03*
X92940D03*
G54D14*
X14100Y398284D03*
Y416000D03*
X68100Y398284D03*
Y416000D03*
X84100Y398284D03*
Y416000D03*
X138100Y398284D03*
Y416000D03*
X154100Y398284D03*
Y416000D03*
X208100Y398284D03*
Y416000D03*
X234000Y122000D03*
Y139716D03*
X224100Y398284D03*
Y416000D03*
X270000Y122000D03*
Y139716D03*
X278100Y398284D03*
Y416000D03*
X306000Y122000D03*
Y139716D03*
G54D51*
X322000Y84110D03*
Y97890D03*
G54D33*
X95400Y86843D03*
Y77000D03*
G54D24*
X38416Y345000D03*
X52416Y292000D03*
X58400D03*
X58384Y311000D03*
X52400D03*
X52416Y317000D03*
X58400D03*
X44400Y345000D03*
X71384Y292000D03*
X65400D03*
X66416Y344000D03*
X72400D03*
X72384Y350000D03*
X66400D03*
X81408Y260000D03*
X87392D03*
X87384Y270000D03*
X81400D03*
X81416Y275000D03*
X87400D03*
X93416Y104000D03*
X99400D03*
X93416Y124000D03*
X99400D03*
X99384Y129000D03*
X93400D03*
X99384Y134000D03*
X93400D03*
X99384Y150000D03*
X93400D03*
X93416Y144000D03*
X99400D03*
X99384Y170000D03*
X93400D03*
X99384Y178000D03*
X93400D03*
X99384Y185000D03*
X93400D03*
X99384Y190000D03*
X93400D03*
X99384Y195000D03*
X93400D03*
X120016Y216800D03*
X122416Y292000D03*
X122400Y311000D03*
X122416Y317000D03*
X108416Y345000D03*
X114400D03*
X139000Y216800D03*
X126000D03*
X128400Y292000D03*
X135400D03*
X128384Y311000D03*
X128400Y317000D03*
X136416Y344000D03*
X136400Y350000D03*
X144984Y216800D03*
X151408Y260000D03*
Y265000D03*
X151400Y270000D03*
X151416Y275000D03*
X141384Y292000D03*
X142400Y344000D03*
X142384Y350000D03*
X169400Y26000D03*
X169416Y32000D03*
X157392Y260000D03*
Y265000D03*
X157384Y270000D03*
X157400Y275000D03*
X175384Y26000D03*
X175400Y32000D03*
X178416Y345000D03*
X184400D03*
X203416Y154000D03*
Y188000D03*
Y174000D03*
Y199000D03*
X192416Y292000D03*
X198400D03*
X198384Y311000D03*
X192400D03*
X192416Y317000D03*
X198400D03*
X219008Y86000D03*
X209400Y154000D03*
Y188000D03*
Y174000D03*
X216000Y183000D03*
X216008Y192000D03*
X209400Y199000D03*
X218008Y228000D03*
X211384Y292000D03*
X205400D03*
X206416Y344000D03*
X212400D03*
X212384Y350000D03*
X206400D03*
X224992Y86000D03*
X233016D03*
X221984Y183000D03*
X221992Y192000D03*
X223992Y228000D03*
X221408Y260000D03*
X227392D03*
X227384Y270000D03*
X221400D03*
X221416Y275000D03*
X227400D03*
X239000Y86000D03*
X240008Y192000D03*
X245992D03*
X242008Y228000D03*
X247992D03*
X248416Y345000D03*
X255008Y86000D03*
X260992D03*
X264000Y183000D03*
X266016Y192000D03*
X266008Y228000D03*
X262416Y292000D03*
X262400Y311000D03*
X262416Y317000D03*
X254400Y345000D03*
X269016Y86000D03*
X275000D03*
X269984Y183000D03*
X272000Y192000D03*
X281984D03*
X276000D03*
X276008Y228000D03*
X281992D03*
X271992D03*
X268400Y292000D03*
X281384D03*
X275400D03*
X268384Y311000D03*
X268400Y317000D03*
X276416Y344000D03*
X282400D03*
X282384Y350000D03*
X276400D03*
X291008Y86000D03*
X296992D03*
X288016Y192000D03*
X294000D03*
X298000D03*
X298008Y228000D03*
X288008D03*
X293992D03*
X291408Y260000D03*
X297392D03*
X291408Y265000D03*
X297392D03*
X297384Y270000D03*
X291400D03*
X291416Y275000D03*
X297400D03*
X305016Y86000D03*
X311000D03*
X305008Y176000D03*
X310992D03*
X303984Y192000D03*
X310016D03*
X303992Y228000D03*
X310008D03*
X312400Y308000D03*
X328000Y86000D03*
X316000Y192000D03*
X325984D03*
X320000D03*
X320008Y228000D03*
X325992D03*
X315992D03*
X318384Y308000D03*
X328384Y322000D03*
X322400D03*
X333984Y86000D03*
X340016D03*
X346000D03*
X344008Y92000D03*
Y98000D03*
Y104000D03*
Y110000D03*
X336008Y199000D03*
X341992D03*
X336016Y192000D03*
X342000D03*
X334016Y221000D03*
X340000D03*
X342400Y322000D03*
X332416D03*
X338400D03*
X342400Y365000D03*
X349992Y92000D03*
Y98000D03*
Y104000D03*
Y110000D03*
X348384Y322000D03*
Y365000D03*
G54D15*
X23837Y12929D03*
X76002D03*
G54D42*
X215795Y158000D03*
X240205D03*
X251795D03*
X276205D03*
X287795D03*
X312205D03*
X323795Y130000D03*
Y160000D03*
X348205Y130000D03*
Y160000D03*
G54D25*
X44400Y354591D03*
Y379000D03*
X114400Y354591D03*
Y379000D03*
X184400Y354591D03*
Y379000D03*
X254400Y354591D03*
Y379000D03*
G54D52*
X319534Y264000D03*
Y269000D03*
Y274000D03*
Y279000D03*
X340400Y264000D03*
Y279000D03*
Y274000D03*
Y269000D03*
G54D34*
X114400Y63000D03*
Y73000D03*
X124400Y63000D03*
Y73000D03*
X134400Y63000D03*
Y73000D03*
X144400Y63000D03*
Y73000D03*
X154400Y63000D03*
Y73000D03*
X164400Y63000D03*
Y73000D03*
X174400Y63000D03*
Y73000D03*
X184400Y63000D03*
Y73000D03*
X194400Y63000D03*
Y73000D03*
X204400Y63000D03*
G54D16*
X27872Y32220D03*
X71416D03*
X172051Y5524D03*
Y17335D03*
X256888Y2189D03*
Y25811D03*
Y31378D03*
Y66811D03*
G54D43*
X215898Y176000D03*
X228102D03*
X263795D03*
X276000D03*
X287898D03*
X300102D03*
G54D26*
X52983Y260043D03*
Y262602D03*
Y265161D03*
Y267720D03*
Y270280D03*
Y272839D03*
Y275398D03*
Y277957D03*
X75817Y265161D03*
Y262602D03*
Y260043D03*
Y277957D03*
Y275398D03*
Y272839D03*
Y270280D03*
Y267720D03*
X122983Y260043D03*
Y262602D03*
Y265161D03*
Y267720D03*
Y270280D03*
Y272839D03*
Y275398D03*
Y277957D03*
X145817Y265161D03*
Y262602D03*
Y260043D03*
Y277957D03*
Y275398D03*
Y272839D03*
Y270280D03*
Y267720D03*
X192983Y260043D03*
Y262602D03*
Y265161D03*
Y267720D03*
Y270280D03*
Y272839D03*
Y275398D03*
Y277957D03*
X215817Y265161D03*
Y262602D03*
Y260043D03*
Y277957D03*
Y275398D03*
Y272839D03*
Y270280D03*
Y267720D03*
X262983Y260043D03*
Y262602D03*
Y265161D03*
Y267720D03*
Y270280D03*
Y272839D03*
Y275398D03*
Y277957D03*
X285817Y265161D03*
Y262602D03*
Y260043D03*
Y277957D03*
Y275398D03*
Y272839D03*
Y270280D03*
Y267720D03*
G54D17*
X18345Y43835D03*
X42400Y56000D03*
X37400Y66000D03*
X62400Y56000D03*
X52400D03*
X57400Y66000D03*
X47400D03*
X67400D03*
X81337Y43835D03*
G54D44*
X227000Y103000D03*
X263000D03*
X299000D03*
G54D35*
X138157Y222926D03*
Y230800D03*
X148000Y222926D03*
Y230800D03*
G54D53*
X341740Y204276D03*
X338000D03*
X334260D03*
Y213724D03*
X341740D03*
G54D27*
X50132Y285000D03*
X58400D03*
X53132Y345000D03*
X73668Y285000D03*
X65400D03*
X63132Y316000D03*
X71400D03*
X61400Y345000D03*
X82132Y283000D03*
X90400D03*
X78132Y345000D03*
X86400D03*
X116732Y223800D03*
Y232800D03*
X120132Y285000D03*
X123132Y345000D03*
X125000Y223800D03*
Y232800D03*
X128400Y285000D03*
X135400D03*
X133132Y316000D03*
X131400Y345000D03*
X152132Y283000D03*
X143668Y285000D03*
X141400Y316000D03*
X148132Y345000D03*
X160400Y283000D03*
X156400Y345000D03*
X190132Y285000D03*
X198400D03*
X203132Y316000D03*
X193132Y345000D03*
X201400D03*
X213668Y285000D03*
X205400D03*
X211400Y316000D03*
X218132Y345000D03*
X226866Y192000D03*
X235134D03*
X228866Y229000D03*
X222132Y283000D03*
X230400D03*
X226400Y345000D03*
X250866Y192000D03*
X237134Y229000D03*
X259134Y192000D03*
X252866Y229000D03*
X261134D03*
X260132Y285000D03*
X263132Y345000D03*
X272866Y235000D03*
X281134D03*
X268400Y285000D03*
X283668D03*
X275400D03*
X273132Y316000D03*
X281400D03*
X271400Y345000D03*
X294866Y235000D03*
X292132Y283000D03*
X288132Y345000D03*
X296400D03*
X303134Y235000D03*
X300400Y283000D03*
X316866Y235000D03*
X325134D03*
X338866Y179000D03*
X347134D03*
X333732Y228000D03*
X342000D03*
G54D36*
X151400Y23654D03*
Y33654D03*
Y43654D03*
X272400Y14000D03*
Y55000D03*
G54D54*
X342455Y346260D03*
X333400Y342520D03*
X342455Y359260D03*
X333400Y355520D03*
Y363000D03*
Y350000D03*
G54D18*
X20707Y104693D03*
Y106662D03*
Y108630D03*
Y110598D03*
Y112567D03*
Y114536D03*
Y116504D03*
Y118472D03*
Y120441D03*
Y122410D03*
Y124378D03*
Y126346D03*
Y128315D03*
Y130284D03*
Y132252D03*
Y134220D03*
Y136189D03*
Y138158D03*
Y140126D03*
Y142094D03*
Y144063D03*
Y146032D03*
Y148000D03*
Y149968D03*
Y151937D03*
X81337Y106662D03*
Y104693D03*
Y122410D03*
Y120441D03*
Y118472D03*
Y116504D03*
Y114536D03*
Y112567D03*
Y110598D03*
Y108630D03*
Y138158D03*
Y136189D03*
Y134220D03*
Y132252D03*
Y130284D03*
Y128315D03*
Y126346D03*
Y124378D03*
Y151937D03*
Y149968D03*
Y148000D03*
Y146032D03*
Y144063D03*
Y142094D03*
Y140126D03*
X109825Y130425D03*
Y132394D03*
Y134362D03*
Y136331D03*
Y138299D03*
Y140268D03*
Y142236D03*
Y144205D03*
Y146173D03*
Y148142D03*
Y150110D03*
Y152079D03*
Y154047D03*
Y156016D03*
Y157984D03*
Y159953D03*
Y161921D03*
Y163890D03*
Y165858D03*
Y167827D03*
Y169795D03*
Y171764D03*
Y173732D03*
Y175701D03*
Y177669D03*
Y179638D03*
Y181606D03*
Y183575D03*
Y185543D03*
Y187512D03*
Y189480D03*
Y191449D03*
Y193417D03*
Y195386D03*
Y197354D03*
Y199323D03*
X194077Y138299D03*
Y136331D03*
Y134362D03*
Y132394D03*
Y130425D03*
Y154047D03*
Y152079D03*
Y150110D03*
Y148142D03*
Y146173D03*
Y144205D03*
Y142236D03*
Y140268D03*
Y169795D03*
Y167827D03*
Y165858D03*
Y163890D03*
Y161921D03*
Y159953D03*
Y157984D03*
Y156016D03*
Y185543D03*
Y183575D03*
Y181606D03*
Y179638D03*
Y177669D03*
Y175701D03*
Y173732D03*
Y171764D03*
Y199323D03*
Y197354D03*
Y195386D03*
Y193417D03*
Y191449D03*
Y189480D03*
Y187512D03*
G54D45*
X232500Y199370D03*
X227500D03*
X222500D03*
Y220630D03*
X227500D03*
X232500D03*
X249500Y199370D03*
X244500D03*
X237500D03*
X244500Y220630D03*
X249500D03*
X237500D03*
X259500Y199370D03*
X254500D03*
X266500D03*
X254500Y220630D03*
X259500D03*
X266500D03*
X281500Y199370D03*
X276500D03*
X271500D03*
Y220630D03*
X276500D03*
X281500D03*
X298500Y199370D03*
X293500D03*
X288500D03*
Y220630D03*
X293500D03*
X298500D03*
X303500Y199370D03*
X315500D03*
X310500D03*
X303500Y220630D03*
X310500D03*
X315500D03*
X325500Y199370D03*
X320500D03*
Y220630D03*
X325500D03*
G54D55*
G01X20707Y112567D02*
X12459D01*
X10900Y111008D01*
G01X20707Y120441D02*
X16852D01*
X16511Y120100D01*
X14689D01*
X14348Y120441D01*
X11967D01*
X10900Y121508D01*
G01X20707Y114536D02*
X13357D01*
X10900Y116992D01*
G01X15400Y135500D02*
X13908Y134008D01*
X10900D01*
G01Y127492D02*
Y130500D01*
G01Y139992D02*
X12065D01*
X13900Y138158D01*
G01X11258Y188118D02*
Y205858D01*
X18800Y213400D01*
X63763D01*
X83900Y193263D01*
Y171237D01*
X93076Y162061D01*
X109685D01*
X109825Y161921D01*
G01X11258Y233000D02*
Y222042D01*
X18300Y215000D01*
X64426D01*
X86100Y193326D01*
Y192700D01*
G01X23837Y12929D02*
X38600Y27692D01*
Y36100D01*
X14400Y60300D01*
Y64000D01*
G01X24400Y81000D02*
X29400D01*
G01X24400Y86984D02*
Y88947D01*
X27400Y91947D01*
Y98000D01*
G01X19400Y86984D02*
Y96300D01*
X26200Y103100D01*
X28400D01*
X29369Y102132D01*
Y98000D01*
G01X19400Y86984D02*
X16400D01*
G01D02*
X13116D01*
X12400Y86268D01*
G01X20707Y112567D02*
X24733D01*
X26200Y111100D01*
G01X20707Y116504D02*
X32196D01*
G01D02*
X28259Y120441D01*
X20707D01*
G01Y114536D02*
X28438D01*
X29837Y113137D01*
G01X14679Y117820D02*
X15332Y118472D01*
X20707D01*
G01X15100Y109700D02*
X15999Y110598D01*
X20707D01*
G01X14847Y125153D02*
X15858D01*
X16633Y124378D01*
X20707D01*
G01X14848Y127791D02*
X15696D01*
X17141Y126346D01*
X20707D01*
G01X14200Y130600D02*
X15150D01*
X17435Y128315D01*
X20707D01*
G01X13900Y138158D02*
X20707D01*
G01Y136189D02*
X16089D01*
X15400Y135500D01*
G01X77400Y188118D02*
Y184659D01*
X72141Y179400D01*
X31268D01*
X30428Y178560D01*
Y168917D01*
X26656Y165144D01*
X25344D01*
G01X17557Y188118D02*
Y184659D01*
X16600Y183702D01*
Y167500D01*
X19400Y164700D01*
G01X74250Y188118D02*
Y184659D01*
X70691Y181100D01*
X30500D01*
X27600Y178200D01*
Y169200D01*
X26400Y168000D01*
G01X20707Y188118D02*
Y183307D01*
X18200Y180800D01*
Y169100D01*
X19500Y167800D01*
G01X27006Y188118D02*
Y182718D01*
X22700Y178411D01*
Y168400D01*
G01X23857Y188118D02*
Y182457D01*
X20400Y179000D01*
Y171200D01*
G01X71101Y188118D02*
Y184659D01*
X69842Y183400D01*
X30537D01*
X25300Y178163D01*
Y175300D01*
G01X14408Y188118D02*
Y206008D01*
X20030Y211630D01*
X63271D01*
X82300Y192600D01*
Y170100D01*
X92447Y159953D01*
X109825D01*
G01X14408Y233000D02*
Y223492D01*
X21300Y216600D01*
X65088D01*
X86112Y195577D01*
X86960D01*
G01X17557Y233000D02*
Y224343D01*
X23700Y218200D01*
X65751D01*
X84171Y199780D01*
X85220D01*
X86497Y198504D01*
G01X27006Y226800D02*
Y233000D01*
G01X20707D02*
Y224193D01*
X25100Y219800D01*
X66414D01*
X84414Y201800D01*
X89000D01*
G01X23857Y233000D02*
Y225143D01*
X27600Y221400D01*
X67076D01*
X84411Y204066D01*
X87534D01*
G01X33837Y12929D02*
X40900Y19992D01*
Y38300D01*
X34550Y44650D01*
G01X64400Y81000D02*
Y79400D01*
X57700Y72700D01*
X55400D01*
X52500Y69800D01*
Y63300D01*
X49400Y60200D01*
X46600D01*
X42400Y56000D01*
G01X44400Y81000D02*
X39400D01*
G01D02*
X34400D01*
G01X39400Y86984D02*
X40286Y87870D01*
Y91800D01*
G01X34400Y86984D02*
Y92411D01*
X33306Y93506D01*
G01X29400Y86984D02*
Y89600D01*
X33306Y93506D01*
G01X41180Y98000D02*
Y92694D01*
X40286Y91800D01*
G01X58896Y103204D02*
X55000Y107100D01*
X44458D01*
X39211Y101853D01*
Y98000D01*
G01X39600Y108401D02*
X38812Y108401D01*
X37242Y106831D01*
Y98000D01*
G01X43148D02*
Y92966D01*
X44314Y91800D01*
G01X38900Y111000D02*
X38300D01*
X35274Y107974D01*
Y98000D01*
G01X33306D02*
Y93506D01*
G01X35300Y116504D02*
X32196D01*
G01X33306Y158630D02*
Y141300D01*
G01X33400Y171016D02*
Y162577D01*
X33306Y162483D01*
Y158630D01*
G01X40400Y177000D02*
X41109D01*
X43400Y174709D01*
Y165400D01*
X45117Y163684D01*
Y158630D01*
G01X40400Y171016D02*
Y170000D01*
X38400Y168000D01*
G01X31337Y158630D02*
Y163163D01*
X30500Y164000D01*
G01X30156Y194200D02*
Y188118D01*
G01X36455Y194500D02*
Y188118D01*
G01X33306Y194100D02*
Y188118D01*
G01X39605D02*
Y191577D01*
X39300Y191882D01*
Y194700D01*
G01X64802Y188118D02*
Y193161D01*
X48533Y209430D01*
X35138D01*
G01X61652Y188118D02*
Y191577D01*
X61500Y191729D01*
Y194200D01*
X48500Y207200D01*
X33800D01*
G01X30156Y233000D02*
Y227044D01*
X33300Y223900D01*
X37100D01*
G01X33306Y233000D02*
Y227357D01*
X34563Y226100D01*
X38011D01*
X39511Y224600D01*
X39900D01*
G01X39605Y233000D02*
Y229795D01*
X41000Y228400D01*
X43007D01*
X44994Y226413D01*
G01X36455Y233000D02*
Y228656D01*
X37411Y227700D01*
X38700D01*
X39600Y226800D01*
X40811D01*
X42494Y225118D01*
Y224781D01*
G01X57400Y66000D02*
X65947Y74547D01*
G03X64957Y75537I-495J495D01*
G01X60118Y70698D01*
G02X59128Y71688I-495J495D01*
G01X64957Y77517D01*
G02X65947I495J-495D01*
G01X66937Y76527D01*
G03X67927I495J495D01*
G01X69400Y78000D01*
Y81000D01*
G01X49400Y86984D02*
Y88947D01*
X51022Y90569D01*
Y98000D01*
G01X44400Y86984D02*
Y91714D01*
X44314Y91800D01*
G01X54400Y86984D02*
X54600Y87184D01*
Y91400D01*
G01X52990Y98000D02*
Y93010D01*
X54600Y91400D01*
G01X59400Y86984D02*
Y88947D01*
X57900Y90447D01*
Y92700D01*
G01X47085Y98000D02*
Y104900D01*
G01X51022Y98000D02*
Y102868D01*
X48990Y104900D01*
X47085D01*
G01X58896Y98000D02*
Y103204D01*
G01X79400Y86992D02*
Y99800D01*
X75996Y103204D01*
X58896D01*
G01X56928Y98000D02*
Y93672D01*
G01D02*
X57900Y92700D01*
G01X56928Y93672D02*
X55427D01*
X54959Y94141D01*
Y98000D01*
G01X45117D02*
Y94109D01*
X47300Y91926D01*
G01X49054Y98000D02*
Y93679D01*
X47300Y91926D01*
G01X60513Y142313D02*
Y149287D01*
X59076Y150724D01*
Y153570D01*
X60864Y155358D01*
Y158630D01*
G01X45117D02*
Y154777D01*
X45300Y154594D01*
Y152800D01*
G01X54959Y158630D02*
Y154777D01*
X54603Y154421D01*
Y150497D01*
X54900Y150200D01*
G01X56928Y158630D02*
Y154777D01*
X56900Y154750D01*
Y154505D01*
X56853Y154458D01*
Y152635D01*
X56900Y152589D01*
Y152244D01*
X56803D01*
G01X52990Y158630D02*
Y165290D01*
X53100Y165400D01*
G01X55241Y163924D02*
X54959Y163643D01*
Y158630D01*
G01X51022D02*
Y163478D01*
X50300Y164200D01*
Y167200D01*
X51513Y168413D01*
X54387D01*
X54400Y168400D01*
G01D02*
Y171016D01*
G01X58896Y158630D02*
Y166159D01*
G01X47400Y171016D02*
X49816D01*
X50600Y171800D01*
G01X49054Y158630D02*
Y162146D01*
X47800Y163400D01*
G01X52203Y188118D02*
Y192397D01*
X52100Y192500D01*
Y194200D01*
G01X49054Y188118D02*
Y191577D01*
X49200Y191724D01*
Y194100D01*
G01X55353Y188118D02*
Y192347D01*
X55300Y192400D01*
Y194100D01*
G01X58502Y188118D02*
Y191577D01*
X58600Y191675D01*
Y193000D01*
G01X55353Y233000D02*
Y229541D01*
X55600Y229294D01*
Y226500D01*
G01X52203Y233000D02*
Y229541D01*
X52400Y229344D01*
Y226200D01*
G01X58502Y233000D02*
Y229541D01*
X58600Y229443D01*
Y227700D01*
G01X49054Y233000D02*
Y229541D01*
X49200Y229394D01*
Y226100D01*
G01X52983Y262602D02*
X57268D01*
X59300Y260570D01*
Y251700D01*
G01X52983Y267720D02*
X57521D01*
G01X66002Y12929D02*
X72232Y6700D01*
X85600D01*
X89200Y10300D01*
Y12772D01*
G01X76002Y12929D02*
X60900Y28031D01*
Y35600D01*
X85400Y60100D01*
Y64000D01*
G01X74400Y89900D02*
Y91600D01*
X74644Y91844D01*
Y93000D01*
G01X60864Y98000D02*
Y91136D01*
X61400Y90600D01*
G01X64400Y86984D02*
X69400D01*
G01D02*
X74400D01*
G01X72676Y98000D02*
Y93824D01*
X73500Y93000D01*
G01X62833Y98000D02*
Y93967D01*
X63800Y93000D01*
X65949D01*
G01X64802Y98000D02*
Y94147D01*
X65949Y93000D01*
G01X66770Y98000D02*
Y94330D01*
X68100Y93000D01*
G01X68738Y98000D02*
Y93962D01*
X69700Y93000D01*
G01X70707Y98000D02*
Y93893D01*
X71600Y93000D01*
G01X74644Y98000D02*
Y93000D01*
G01X71600D02*
X73500D01*
G01X69700D02*
X71600D01*
G01X68100D02*
X69700D01*
G01X65949D02*
X68100D01*
G01X74644D02*
X73500D01*
G01X81337Y106662D02*
X71438D01*
X69900Y108200D01*
Y110600D01*
G01X81337Y122410D02*
X81183Y122564D01*
X67764D01*
X66900Y121700D01*
G01X81337Y112567D02*
X77484D01*
X77451Y112600D01*
X76511D01*
X75911Y113200D01*
X73000D01*
X72600Y112800D01*
G01X81337Y118472D02*
X77404D01*
X76577Y119300D01*
X71200D01*
X69400Y117500D01*
G01X81337Y114536D02*
X76839D01*
X76574Y114800D01*
X75703D01*
X75103Y115400D01*
G01X81337Y110598D02*
X77484D01*
X77083Y111000D01*
X75000D01*
G01X81337Y120441D02*
X77699D01*
X77240Y120900D01*
X69500D01*
X66700Y118100D01*
G01X81337Y108630D02*
X73694D01*
X73215Y109110D01*
G01X81337Y116504D02*
X77110D01*
X76014Y117600D01*
X73300D01*
X72800Y117100D01*
G01X81337Y128315D02*
X76952D01*
X76600Y127964D01*
X74900D01*
G01X81337Y130284D02*
X75279D01*
X75159Y130164D01*
X72004D01*
G01X81337Y134220D02*
X76091D01*
X75748Y134564D01*
X70729D01*
X70599Y134434D01*
G01X81337Y138158D02*
X73077D01*
X72871Y138364D01*
G01X81337Y132252D02*
X76098D01*
X75986Y132364D01*
X74247D01*
G01X81337Y136189D02*
X73808D01*
X73782Y136164D01*
X71959D01*
X70423Y137700D01*
X69900D01*
G01X61400Y125700D02*
X62937Y124164D01*
X76474D01*
X76689Y124378D01*
X81337D01*
G01Y126346D02*
X76394D01*
X75811Y125764D01*
X73536D01*
X71800Y127500D01*
G01X66770Y158630D02*
X66592Y158452D01*
Y155166D01*
X66276Y154851D01*
Y154276D01*
X65900Y153899D01*
Y152000D01*
G01X70707Y158630D02*
Y153755D01*
X70263Y153311D01*
G01X64802Y158630D02*
X64624Y158452D01*
Y154886D01*
X64064Y154327D01*
Y154033D01*
X63700Y153668D01*
Y150523D01*
X64085Y150139D01*
G01X81337Y149968D02*
X77771D01*
X77034Y149232D01*
X75466D01*
X75188Y148954D01*
X72832D01*
X72700Y149085D01*
G01X62833Y158630D02*
Y155358D01*
X62464Y154990D01*
Y154695D01*
X61276Y153507D01*
Y151700D01*
G01X81337Y148000D02*
X78065D01*
X77697Y147632D01*
X76128D01*
X75851Y147354D01*
X74081D01*
X73612Y146885D01*
X70926D01*
X70213Y147598D01*
X69596D01*
G01X81337Y140126D02*
X78065D01*
X77801Y140390D01*
X74500D01*
G01X81337Y142094D02*
X76406D01*
X75413Y143087D01*
G01X81337Y146032D02*
X76791D01*
X76514Y145754D01*
X74744D01*
X73990Y145000D01*
X69700D01*
G01X74644Y158630D02*
Y153767D01*
X74663Y153748D01*
G01X72676Y158630D02*
Y154777D01*
X72463Y154565D01*
Y152400D01*
X70812Y150748D01*
X70702D01*
G01X68738Y158630D02*
Y155050D01*
X68063Y154375D01*
Y152948D01*
X68100Y152911D01*
Y150735D01*
X67018Y149652D01*
G01X81337Y151937D02*
X77476D01*
X76702Y151162D01*
X75985D01*
X75977Y151154D01*
X74277D01*
G01X61400Y171016D02*
Y163018D01*
X60864Y162483D01*
Y158630D01*
G01X67951Y188118D02*
Y191577D01*
X68000Y191626D01*
Y193700D01*
G01X64802Y233000D02*
Y225898D01*
X67900Y222800D01*
X67940D01*
X84411Y206329D01*
X88971D01*
X89100Y206200D01*
G01X71101Y233000D02*
Y225699D01*
X86053Y210747D01*
X89127D01*
X89274Y210600D01*
G01X74250Y233000D02*
Y226188D01*
X87439Y213000D01*
G01X61652Y233000D02*
Y236459D01*
X61700Y236507D01*
Y248500D01*
G01X67951Y233000D02*
Y226348D01*
X85771Y208529D01*
X87471D01*
G01X75817Y267720D02*
X70934D01*
X67700Y270954D01*
G01X85400Y25700D02*
Y21887D01*
X85460Y21828D01*
G01X86400Y86268D02*
X86975Y86843D01*
X95400D01*
G01X79400Y86992D02*
X80124Y86268D01*
X86400D01*
G01X93416Y104000D02*
Y104709D01*
X91324Y106800D01*
G01D02*
X91400D01*
G01X91324D02*
X88207D01*
X86100Y104693D01*
X81337D01*
G01X93416Y124000D02*
X85568D01*
X85190Y124378D01*
X81337D01*
G01X93400Y134000D02*
Y134709D01*
X88009Y140100D01*
G01X93416Y144000D02*
X92200D01*
X91400Y143200D01*
X90900D01*
G01X81337Y144063D02*
X86163D01*
X86502Y144402D01*
X89698D01*
X90900Y143200D01*
G01X109825Y163890D02*
X93510D01*
X86100Y171300D01*
Y192700D01*
G01X93400Y170000D02*
X91437D01*
X90300Y171137D01*
G01X93400Y185000D02*
X90600D01*
G01X109825Y165858D02*
X109822Y165862D01*
X104538D01*
X102400Y168000D01*
Y196516D01*
X100944Y197972D01*
X89355D01*
X86960Y195577D01*
G01X89000Y201795D02*
Y201800D01*
G01X109825Y173732D02*
X105972D01*
X105600Y174105D01*
Y199326D01*
X103026Y201900D01*
X90800D01*
X90700Y201800D01*
X89000D01*
G01X109825Y167827D02*
X105573D01*
X104000Y169400D01*
Y197768D01*
X102068Y199700D01*
X90017D01*
X89911Y199595D01*
X88089D01*
X87904Y199780D01*
X87773D01*
X86497Y198504D01*
G01X93400Y190000D02*
X90300D01*
G01X89274Y210595D02*
Y210600D01*
G01X164746Y207000D02*
Y234828D01*
X156775Y242800D01*
X112712D01*
X105500Y235588D01*
Y213088D01*
X102509Y210098D01*
X92965D01*
X92463Y210600D01*
X89274D01*
G01X160810Y207000D02*
Y234240D01*
X155449Y239600D01*
X114037D01*
X108700Y234263D01*
Y211763D01*
X103137Y206200D01*
X89100D01*
G01Y206195D02*
Y206200D01*
G01X166715Y207000D02*
Y235122D01*
X157437Y244400D01*
X112048D01*
X103900Y236251D01*
Y213751D01*
X101846Y211698D01*
X93628D01*
X92531Y212795D01*
X87753D01*
X87549Y213000D01*
X87439D01*
G01X87398Y212947D02*
X87436Y212985D01*
Y212995D01*
X87439Y212999D01*
Y213000D01*
G01X89000Y214995D02*
X89095D01*
X89100Y215000D01*
G01X168684Y207000D02*
Y235417D01*
X158100Y246000D01*
X111386D01*
X102299Y236914D01*
Y214788D01*
X100809Y213298D01*
X94291D01*
X92589Y215000D01*
X89100D01*
G01X77400Y233000D02*
Y226700D01*
X89100Y215000D01*
G01X158841Y207000D02*
Y233945D01*
X154886Y237900D01*
X114600D01*
X110300Y233600D01*
Y211100D01*
X103195Y203995D01*
X87605D01*
X87534Y204066D01*
G01X162778Y207000D02*
Y234534D01*
X156112Y241200D01*
X113374D01*
X107100Y234926D01*
Y212426D01*
X103069Y208395D01*
X87605D01*
X87471Y208529D01*
G01X80639Y265161D02*
X81841Y263959D01*
X81980D01*
X84200Y261740D01*
Y255500D01*
X90300Y249400D01*
Y217300D01*
G01X81408Y260000D02*
X81365Y260043D01*
X75817D01*
G01X87392Y260000D02*
X89400D01*
X90647Y258753D01*
X119625D01*
X120916Y260043D01*
X122983D01*
G01X80639Y265161D02*
X75817D01*
G01X92850Y25250D02*
X92940Y25160D01*
Y21828D01*
G01X133250Y122748D02*
Y116688D01*
X132400Y115837D01*
Y103000D01*
X130244Y100844D01*
X111056D01*
X107900Y104000D01*
X104411D01*
G01X131282Y122748D02*
Y116982D01*
X130800Y116500D01*
Y104476D01*
X128768Y102444D01*
X111718D01*
X107963Y106200D01*
X102800D01*
G01X147030Y122748D02*
Y108030D01*
X134300Y95300D01*
X106600D01*
G01X135219Y122748D02*
Y115861D01*
X134000Y114642D01*
Y101600D01*
X131644Y99244D01*
X110356D01*
X109700Y99900D01*
X106300D01*
G01X99400Y124000D02*
X98500D01*
X96950Y122450D01*
G01X99384Y134000D02*
X101347D01*
X102954Y132394D01*
X109825D01*
G01Y130425D02*
X105972D01*
X104547Y129000D01*
X103411D01*
G01D02*
X99384D01*
G01X93400D02*
Y134000D01*
G01X99384Y150000D02*
X99400D01*
X101400Y152000D01*
X101727D01*
G01X109825Y150110D02*
X105972D01*
X104083Y152000D01*
X101727D01*
G01X93400Y150000D02*
Y152900D01*
X95400Y154900D01*
X103732D01*
X106553Y152079D01*
X109825D01*
G01X96100Y148100D02*
Y149263D01*
X95363Y150000D01*
X93400D01*
G01X99400Y144000D02*
Y144709D01*
X97302Y146807D01*
Y146898D01*
X96100Y148100D01*
G01X99384Y170000D02*
X97400D01*
G01X99384Y185000D02*
X96900D01*
G01X99384Y178000D02*
X96800D01*
G01X99384Y190000D02*
X96800D01*
X96700Y189900D01*
G01X99384Y195000D02*
X97300D01*
G01X313400Y270000D02*
X301511D01*
X301188Y269676D01*
X301147D01*
X300000Y268529D01*
Y258076D01*
X286174Y244250D01*
X209087D01*
X200637Y235800D01*
X170563D01*
X158763Y247600D01*
X110723D01*
X99898Y236775D01*
Y215498D01*
G01X155800Y253000D02*
X109334D01*
X92970Y236635D01*
Y217324D01*
G01X157392Y260000D02*
X161200D01*
X165600Y255600D01*
Y249489D01*
X164311Y248200D01*
X160426D01*
X159426Y249200D01*
X110060D01*
X97500Y236640D01*
Y216700D01*
G01X95000Y215700D02*
Y216200D01*
G01X163400Y250400D02*
X160489D01*
X160089Y250800D01*
X109397D01*
X95170Y236572D01*
Y215870D01*
X95000Y215700D01*
G01X150967Y122748D02*
Y107441D01*
X134326Y90800D01*
X107600D01*
G01X145061Y122748D02*
Y118895D01*
X140966Y114800D01*
X137632D01*
X135600Y112768D01*
Y100937D01*
X132307Y97644D01*
X108600D01*
G01X148998Y122748D02*
Y107736D01*
X134363Y93100D01*
X109800D01*
G01X119400Y105016D02*
X115916D01*
G01X119400Y111000D02*
Y116967D01*
X119239Y117128D01*
Y119214D01*
X119471Y119445D01*
Y122748D01*
G01X124400Y111000D02*
Y118190D01*
X123408Y119182D01*
Y122748D01*
G01X117502D02*
Y118181D01*
X117039D01*
G01X121439Y122748D02*
Y118039D01*
G01X136885Y163680D02*
X136356D01*
X136236Y163801D01*
X134413D01*
X132940Y162328D01*
Y162252D01*
X131600Y160911D01*
Y149389D01*
X119009Y136798D01*
X116902D01*
X115700Y138000D01*
G01X109825Y138299D02*
X113701D01*
X114000Y138000D01*
X115700D01*
G01X109825Y134362D02*
X113097D01*
X115000Y132459D01*
Y126700D01*
X112900Y124600D01*
G01X114877Y146187D02*
X114885Y146179D01*
Y146173D01*
G01D02*
X125000Y156289D01*
Y163749D01*
X133851Y172600D01*
X142800D01*
G01X114885Y146173D02*
X109825D01*
G01X139686Y168052D02*
X137986D01*
X137921Y167988D01*
X137497D01*
X137409Y167900D01*
X133900D01*
X128400Y162400D01*
Y152912D01*
X118826Y143337D01*
G01X109825Y142236D02*
X117639D01*
X118680Y143277D01*
X118765D01*
X118826Y143337D01*
G01X115218Y149682D02*
X115219D01*
G01D02*
X118686Y153150D01*
X118761D01*
X120849Y155238D01*
Y155477D01*
X123400Y158028D01*
Y164412D01*
X133788Y174800D01*
X144324D01*
X144365Y174759D01*
X144380D01*
X144391Y174747D01*
G01X115219Y149682D02*
X113678Y148142D01*
X109825D01*
G01Y154047D02*
X116547D01*
X117850Y155350D01*
G01D02*
X121800Y159300D01*
Y165074D01*
X133726Y177000D01*
X145786D01*
X146016Y176771D01*
X146025D01*
X146031Y176765D01*
G01X142000Y170000D02*
X140850D01*
X140597Y170252D01*
X138774D01*
X138622Y170100D01*
X133614D01*
X126800Y163286D01*
Y154916D01*
X117386Y145502D01*
G01X109825Y144205D02*
X113753D01*
X113973Y143985D01*
X115796D01*
X116016Y144205D01*
X116088D01*
X117386Y145502D01*
G01X138408Y165788D02*
X137889D01*
X137797Y165880D01*
X135974D01*
X135736Y165643D01*
X133906D01*
X130000Y161737D01*
Y150900D01*
X118900Y139800D01*
G01X109825Y140268D02*
X114157D01*
X114389Y140499D01*
X116211D01*
X116443Y140268D01*
X116732D01*
X117200Y139800D01*
X118900D01*
G01X150211Y179532D02*
X149009Y180735D01*
X132935D01*
X120474Y168274D01*
X117000Y164800D01*
Y161606D01*
X115093Y159699D01*
G01X109825Y157984D02*
X113678D01*
X115064Y159370D01*
Y159661D01*
X115093Y159689D01*
Y159699D01*
G01X109825Y156016D02*
X114916D01*
X117400Y158500D01*
G01D02*
X120200Y161300D01*
Y165737D01*
X133465Y179002D01*
X147077D01*
X148502Y177577D01*
Y177573D01*
G01X109825Y169795D02*
X115195D01*
G01X109825Y181606D02*
X115506D01*
G01X109825Y177669D02*
X115469D01*
G01X109825Y171764D02*
X114052D01*
X115889Y173600D01*
G01X109825Y191449D02*
X115644D01*
X116095Y191900D01*
G01X109825Y187512D02*
X113678D01*
X113690Y187500D01*
X116400D01*
Y187400D01*
X116347D01*
G01X109825Y195386D02*
X113772D01*
X116400Y198013D01*
Y202000D01*
X113400Y205000D01*
X109400D01*
G01X125376Y207000D02*
Y194276D01*
X123000Y191900D01*
Y191938D01*
X122977D01*
G01X109825Y197354D02*
X113097D01*
X114400Y198657D01*
Y200000D01*
X112400Y202000D01*
G01X109825Y189480D02*
X115269D01*
X115489Y189700D01*
X117561D01*
G01X109825Y193417D02*
X114501D01*
X115582Y194498D01*
X115996D01*
G01X116732Y223800D02*
Y220792D01*
X120016Y217509D01*
Y216800D01*
G01D02*
Y216091D01*
X123408Y212699D01*
Y207000D01*
G01X116732Y223800D02*
Y232800D01*
G01X122983Y262602D02*
X126836D01*
X128082Y261356D01*
Y258482D01*
G01X122983Y267720D02*
X128180D01*
G01X208700Y47400D02*
X172749D01*
X153949Y28600D01*
X140000D01*
X137392Y25992D01*
X132400D01*
G01Y20008D02*
X137754D01*
X141400Y23654D01*
G01X210900Y49700D02*
X171400D01*
X160300Y38600D01*
X139800D01*
X137200Y36000D01*
X132408D01*
X132400Y35992D01*
G01Y30008D02*
X137754D01*
X141400Y33654D01*
G01X132400Y40008D02*
X137754D01*
X141400Y43654D01*
G01X208400Y51900D02*
X138308D01*
X132400Y45992D01*
G01X134400Y73000D02*
Y81016D01*
G01X124400Y105016D02*
X127616D01*
G01X125376Y122748D02*
Y134157D01*
X125145Y134389D01*
Y136211D01*
X125376Y136443D01*
Y137500D01*
G01X127345Y122748D02*
Y131757D01*
X127113Y131989D01*
Y133811D01*
X127345Y134043D01*
Y135300D01*
G01X129313Y122748D02*
Y132900D01*
G01X139156Y122748D02*
Y131200D01*
G01X137187Y122748D02*
Y129013D01*
X134900Y131300D01*
G01X135325Y161601D02*
X134123Y160399D01*
X134043D01*
X133200Y159556D01*
Y147737D01*
X129500Y144037D01*
Y143600D01*
X125376Y139476D01*
Y137500D01*
G01X135769Y158894D02*
Y157194D01*
X135494Y156918D01*
Y146994D01*
X127345Y138845D01*
Y138643D01*
X127576Y138411D01*
Y136589D01*
X127345Y136357D01*
Y135300D01*
G01X138410Y157190D02*
Y146810D01*
X129313Y137713D01*
Y136443D01*
X129545Y136211D01*
Y134389D01*
X129313Y134157D01*
Y132900D01*
G01X127345Y207000D02*
Y192745D01*
X124300Y189700D01*
G01X138157Y222926D02*
X139000Y222083D01*
Y216800D01*
G01D02*
Y214128D01*
X141124Y212004D01*
Y207000D01*
G01X139156D02*
Y203147D01*
X140703Y201600D01*
X172400D01*
G01X129313Y207000D02*
Y211816D01*
G01D02*
X128541Y211044D01*
X128433Y211153D01*
X126257D01*
X125376Y210272D01*
Y207000D01*
G01X129313Y211816D02*
X131000Y213503D01*
Y215816D01*
G01X126000Y216800D02*
X127700Y218500D01*
G01X126000Y214228D02*
Y216800D01*
G01D02*
Y219372D01*
G01X124137Y216800D02*
X126000D01*
G01D02*
X127863D01*
G01X131000Y225816D02*
X131709D01*
X133408Y224116D01*
Y223924D01*
X134406Y222926D01*
X138157D01*
G01X128180Y267720D02*
X133200Y262700D01*
Y258789D01*
X135987Y256002D01*
X157998D01*
X161100Y252900D01*
G01X145817Y265161D02*
X138339D01*
G01X145817Y267720D02*
X138532D01*
X136500Y269752D01*
Y275602D01*
G01X144400Y73000D02*
Y81000D01*
G01X143093Y122748D02*
Y125726D01*
X143200Y125833D01*
Y142900D01*
X143300Y143000D01*
Y144700D01*
G01X141124Y122748D02*
Y126601D01*
X141600Y127076D01*
Y143289D01*
X141100Y143789D01*
Y147000D01*
G01X158841Y122748D02*
Y118895D01*
X156946Y117000D01*
G01X156211Y178800D02*
X151763Y174352D01*
X151589D01*
X146800Y169563D01*
Y148200D01*
X143300Y144700D01*
G01X158600Y181200D02*
X156900D01*
X156787Y181313D01*
X155613D01*
X144600Y170300D01*
Y150500D01*
X141100Y147000D01*
G01X166150Y147150D02*
X154700Y158600D01*
Y169100D01*
G01X167500Y149300D02*
X157300Y159500D01*
Y169611D01*
X154760Y172152D01*
X152500D01*
G01X148000Y230800D02*
X147410D01*
X143400Y226791D01*
Y219093D01*
X144984Y217509D01*
Y216800D01*
G01D02*
Y214128D01*
X143093Y212237D01*
Y207000D01*
G01X155000Y215816D02*
X153300Y214116D01*
Y212222D01*
G01X154904Y207000D02*
Y210618D01*
X153300Y212222D01*
G01X155000Y231800D02*
X154000Y230800D01*
X148000D01*
G01X151408Y265000D02*
X149010Y262602D01*
X145817D01*
G01X151408Y260000D02*
X151365Y260043D01*
X145817D01*
G01X169400Y26000D02*
Y25000D01*
X167400Y23000D01*
Y8156D01*
X162602Y3358D01*
G01X169416Y32000D02*
Y28688D01*
X169400Y28672D01*
Y26000D01*
G01X206100Y45200D02*
X178700D01*
X169416Y35916D01*
Y32000D01*
G01X164400Y73000D02*
Y81000D01*
G01D02*
X165109D01*
X170000Y85891D01*
Y93000D01*
G01X160810Y122748D02*
Y117000D01*
G01X194077Y140268D02*
X173032D01*
X166150Y147150D01*
G01X167500Y149400D02*
Y149300D01*
G01X194077Y142236D02*
X174564D01*
X167500Y149300D01*
G01X194077Y159953D02*
X187955D01*
X164500Y183408D01*
Y183900D01*
G01X194077Y161921D02*
X190442D01*
X167031Y185331D01*
G01X194077Y193417D02*
X169417D01*
X161450Y185450D01*
G01X194077Y195386D02*
X167186D01*
X159800Y188000D01*
G01X156872Y207000D02*
Y212228D01*
G01D02*
X156300Y212800D01*
G01X157392Y265000D02*
X159355D01*
X168100Y256255D01*
Y250400D01*
G01X174800Y271000D02*
Y256089D01*
X170698Y251987D01*
G01X184400Y73000D02*
Y81000D01*
G01X174400Y73000D02*
Y81000D01*
G01X184400D02*
X188400Y85000D01*
Y91500D01*
X201400Y104500D01*
Y129000D01*
X198006Y132394D01*
X194077D01*
G01X174400Y81000D02*
X175109D01*
X178200Y84091D01*
Y113300D01*
X180494Y115594D01*
Y122748D01*
G01X194077Y130425D02*
X197712D01*
X199800Y128337D01*
Y105400D01*
X187400Y93000D01*
X181700D01*
G01X182400Y110984D02*
Y112947D01*
X182463Y113010D01*
Y122748D01*
G01X186400D02*
Y118000D01*
X187400Y117000D01*
G01X184432Y122748D02*
Y128269D01*
G01X194077Y146173D02*
X184173D01*
X182500Y144500D01*
G01X194077Y148142D02*
X190443D01*
X190211Y148373D01*
X180689D01*
X180457Y148142D01*
X175242D01*
G01X194077Y150110D02*
X176385D01*
X176153Y150342D01*
X174149D01*
X174100Y150391D01*
X173937D01*
G01X201950Y212450D02*
X200500Y213900D01*
X186826D01*
X184432Y211506D01*
Y207000D01*
G01X204400Y213800D02*
X202700Y215500D01*
X186163D01*
X182463Y211800D01*
Y207000D01*
G01X206200Y215700D02*
X204800Y217100D01*
X185500D01*
X180494Y212095D01*
Y207000D01*
G01X199794Y210996D02*
Y211006D01*
X198500Y212300D01*
X187847D01*
X186400Y210853D01*
Y207000D01*
G01X194600Y221700D02*
X184100D01*
X181400Y219000D01*
X175200D01*
G01X176558Y207000D02*
Y211443D01*
X175000Y213000D01*
G01X172400Y216016D02*
Y215600D01*
X175000Y213000D01*
G01X191000Y219500D02*
X184900D01*
X178526Y213126D01*
Y207000D01*
G01X215817Y265161D02*
X211965D01*
X189403Y242600D01*
X184700D01*
G01X297392Y265000D02*
X295429D01*
X293671Y263242D01*
Y257731D01*
X283390Y247450D01*
X207762D01*
X200612Y240300D01*
X182100D01*
G01X297392Y260000D02*
Y259291D01*
X295693Y257592D01*
Y256493D01*
X285050Y245850D01*
X208424D01*
X200574Y238000D01*
X179400D01*
G01X194400Y73000D02*
Y81000D01*
G01X203416Y154000D02*
X200594D01*
X200547Y154047D01*
X198847D01*
G01X194077D02*
X198847D01*
G01X194077Y152079D02*
X197821D01*
X199400Y150500D01*
G01Y171000D02*
X198800D01*
X198036Y171764D01*
X194077D01*
G01Y179638D02*
X201962D01*
X202200Y179400D01*
G01X203416Y174000D02*
X201103D01*
X200835Y173732D01*
X199400D01*
G01X194077D02*
X199400D01*
G01X200700Y177100D02*
X200131Y177669D01*
X194077D01*
G01X203416Y188000D02*
X198418D01*
X197930Y187512D01*
X194077D01*
G01X203416Y199000D02*
X201103D01*
X200780Y199323D01*
X199400D01*
G01X194077Y197354D02*
X198846D01*
X199400Y197909D01*
Y199323D01*
G01X194077D02*
X199400D01*
G01X331450Y242650D02*
X209750D01*
X191000Y223900D01*
G01X192983Y262602D02*
X196836D01*
X199000Y260438D01*
Y256900D01*
G01X215817Y267720D02*
X204532D01*
X202500Y269753D01*
Y275500D01*
G01X192983Y267720D02*
X197520D01*
G01X221739Y265161D02*
X215817D01*
G01X221408Y260000D02*
X221365Y260043D01*
X215817D01*
G01X227392Y260000D02*
X245471D01*
X246950Y258521D01*
X259394D01*
X260916Y260043D01*
X262983D01*
G01Y262602D02*
X266836D01*
X270300Y259138D01*
Y251500D01*
G01X268720Y267720D02*
X262983D01*
G01X285400Y39000D02*
X281400D01*
X277211Y43189D01*
X272400D01*
G01X285817Y265161D02*
X280539D01*
G01X285817Y267720D02*
X277580D01*
X274300Y271000D01*
G01X291408Y265000D02*
X289010Y262602D01*
X285817D01*
G01X291408Y260000D02*
X291365Y260043D01*
X285817D01*
G01X319534Y274000D02*
X315386D01*
X313400Y272014D01*
Y270000D01*
G01X347400Y273016D02*
X346416Y274000D01*
X340400D01*
G01X342400Y365000D02*
X338400D01*
X336400Y363000D01*
X333400D01*
G01X352500Y279000D02*
X347400D01*
G01X348384Y365000D02*
Y369000D01*
G54D37*
X162602Y3358D03*
Y19500D03*
X181500Y3358D03*
Y19500D03*
G54D28*
X62061Y301161D03*
X132061D03*
X202061D03*
X272061D03*
G54D19*
X27400Y98000D03*
Y158630D03*
X43148Y98000D03*
X41180D03*
X39211D03*
X37242D03*
X35274D03*
X33306D03*
X31337D03*
X29369D03*
Y158630D03*
X31337D03*
X33306D03*
X35274D03*
X37242D03*
X39211D03*
X41180D03*
X43148D03*
X58896Y98000D03*
X56928D03*
X54959D03*
X52990D03*
X51022D03*
X49054D03*
X47085D03*
X45117D03*
Y158630D03*
X47085D03*
X49054D03*
X51022D03*
X52990D03*
X54959D03*
X56928D03*
X58896D03*
X74644Y98000D03*
X72676D03*
X70707D03*
X68738D03*
X66770D03*
X64802D03*
X62833D03*
X60864D03*
Y158630D03*
X62833D03*
X64802D03*
X66770D03*
X68738D03*
X70707D03*
X72676D03*
X74644D03*
X123408Y122748D03*
X121439D03*
X119471D03*
X117502D03*
Y207000D03*
X119471D03*
X121439D03*
X123408D03*
X139156Y122748D03*
X137187D03*
X135219D03*
X133250D03*
X131282D03*
X129313D03*
X127345D03*
X125376D03*
Y207000D03*
X127345D03*
X129313D03*
X131282D03*
X133250D03*
X135219D03*
X137187D03*
X139156D03*
X154904Y122748D03*
X152936D03*
X150967D03*
X148998D03*
X147030D03*
X145061D03*
X143093D03*
X141124D03*
Y207000D03*
X143093D03*
X145061D03*
X147030D03*
X148998D03*
X150967D03*
X152936D03*
X154904D03*
X170652Y122748D03*
X168684D03*
X166715D03*
X164746D03*
X162778D03*
X160810D03*
X158841D03*
X156872D03*
Y207000D03*
X158841D03*
X160810D03*
X162778D03*
X164746D03*
X166715D03*
X168684D03*
X170652D03*
X186400Y122748D03*
X184432D03*
X182463D03*
X180494D03*
X178526D03*
X176558D03*
X174589D03*
X172620D03*
Y207000D03*
X174589D03*
X176558D03*
X178526D03*
X180494D03*
X182463D03*
X184432D03*
X186400D03*
G54D46*
X307345Y319740D03*
X316400Y323480D03*
Y316000D03*
G54D56*
G01X14100Y416000D02*
X32100D01*
X41100Y407000D01*
G01X46400Y271000D02*
X45691D01*
X43228Y273463D01*
Y278627D01*
X44500Y279899D01*
G01X39400Y301000D02*
Y296984D01*
G01Y291000D02*
X44400D01*
G01Y306984D02*
X39400Y301984D01*
Y301000D01*
G01Y322016D02*
X42512D01*
X42528Y322000D01*
X45400D01*
G01Y332000D02*
X39400D01*
G01Y337984D02*
X40109D01*
X44400Y342276D01*
Y345000D01*
G01Y379000D02*
Y403700D01*
X41100Y407000D01*
G01X46400Y276984D02*
X47372Y277957D01*
X52983D01*
G01X79400Y291000D02*
X78400D01*
Y283520D01*
X75724Y280844D01*
X59923D01*
X57036Y277957D01*
X52983D01*
G01Y275398D02*
X49723D01*
X46400Y272074D01*
Y271000D01*
G01X44400Y291000D02*
Y279998D01*
X44500Y279899D01*
G01X46739Y297323D02*
X53400D01*
G01X44400Y301000D02*
Y296984D01*
G01D02*
X46400D01*
X46739Y297323D01*
G01X53400Y305000D02*
X48384D01*
X46400Y306984D01*
G01D02*
X44400D01*
G01X52400Y328000D02*
X50530D01*
X45400Y322870D01*
Y322000D01*
G01Y327984D02*
Y332000D01*
G01Y337984D02*
X45416Y338000D01*
X45530D01*
G01X52400D02*
X45530D01*
G01X52400D02*
X54270D01*
X56851Y340581D01*
X85819D01*
X87400Y339000D01*
G01X45530Y338000D02*
X50530Y333000D01*
X52400D01*
G01X44400Y345000D02*
Y354591D01*
G01X56135Y378000D02*
X55135Y379000D01*
X44400D01*
G01X56135Y378000D02*
X59361D01*
G01X68100Y398284D02*
Y386739D01*
X59361Y378000D01*
G01X70723Y297323D02*
X75190D01*
X75528Y296984D01*
X79400D01*
G01X76416Y305000D02*
X70723D01*
G01X82400Y322016D02*
X80400D01*
X79416Y323000D01*
X73660D01*
G01X77400Y328000D02*
X73660D01*
G01X77400D02*
X78400Y329000D01*
Y332000D01*
X77400Y333000D01*
X75530D01*
G01D02*
X73660D01*
G01X75530D02*
X77489Y334959D01*
X81538D01*
X82400Y335821D01*
Y337984D01*
G01X72786Y367180D02*
X72600Y366994D01*
Y365006D01*
X72786Y364820D01*
Y358414D01*
X75249Y355951D01*
X79351D01*
X79400Y356000D01*
G01X72786Y367180D02*
Y374500D01*
X76286Y378000D01*
X79361D01*
G01X86400Y372000D02*
Y379984D01*
X68100Y398284D01*
G01X84400Y301000D02*
Y296984D01*
G01X79400Y301000D02*
Y296984D01*
G01X84400Y291000D02*
X79400D01*
G01X84400Y301000D02*
Y301984D01*
X79400Y306984D01*
G01D02*
X77416Y305000D01*
X76416D01*
G01X84400Y306984D02*
X85109D01*
X91400Y313276D01*
Y322830D01*
X89000Y325230D01*
X80170D01*
X77400Y328000D01*
G01X82400D02*
Y332000D01*
G01Y322016D02*
X87400D01*
G01X82400Y332000D02*
X87384D01*
X87400Y332016D01*
G01Y338000D02*
Y339000D01*
G01X86400Y366016D02*
Y361984D01*
G01D02*
X83384D01*
X82400Y361000D01*
X79400D01*
G01X86400Y356000D02*
X79400D01*
G01X84100Y416000D02*
X102100D01*
X111100Y407000D01*
G01X116400Y276984D02*
X117372Y277957D01*
X122983D01*
G01X149400Y291000D02*
X148400D01*
Y283520D01*
X145724Y280844D01*
X129923D01*
X127036Y277957D01*
X122983D01*
G01X114400Y279799D02*
Y291000D01*
G01X122983Y275398D02*
X119723D01*
X116400Y272074D01*
Y271000D01*
G01D02*
X115691D01*
X113228Y273463D01*
Y278627D01*
X114400Y279799D01*
G01X109400Y301000D02*
Y296984D01*
G01X116739Y297323D02*
X123400D01*
G01X114400Y301000D02*
Y296984D01*
G01D02*
X116400D01*
X116739Y297323D01*
G01X114400Y291000D02*
X109400D01*
G01X123400Y305000D02*
X118384D01*
X116400Y306984D01*
G01D02*
X114400D01*
G01D02*
X109400Y301984D01*
Y301000D01*
G01X122400Y328000D02*
X120530D01*
X115400Y322870D01*
Y322000D01*
G01X109400Y322016D02*
X112512D01*
X112528Y322000D01*
X115400D01*
G01Y327984D02*
Y332000D01*
G01D02*
X109400D01*
G01X115400Y337984D02*
X115416Y338000D01*
X115530D01*
G01X122400D02*
X115530D01*
G01X122400D02*
X124270D01*
X126851Y340581D01*
X154618D01*
G01X115530Y338000D02*
X120530Y333000D01*
X122400D01*
G01X109400Y337984D02*
X110109D01*
X114400Y342276D01*
Y345000D01*
G01D02*
Y354591D01*
G01Y379000D02*
Y403700D01*
X111100Y407000D01*
G01X114400Y379000D02*
X125135D01*
X126135Y378000D01*
G01D02*
X129361D01*
G01X138100Y398284D02*
Y386739D01*
X129361Y378000D01*
G01X156400Y372000D02*
Y379984D01*
X138100Y398284D01*
G01X154400Y301000D02*
Y296984D01*
G01X149400Y301000D02*
Y296984D01*
G01X140723Y297323D02*
X145190D01*
X145528Y296984D01*
X149400D01*
G01X154400Y291000D02*
X149400D01*
G01X146416Y305000D02*
X140723D01*
G01X154400Y301000D02*
Y301984D01*
X149400Y306984D01*
G01D02*
X147416Y305000D01*
X146416D01*
G01X154400Y306984D02*
X160572Y313156D01*
Y323659D01*
X159000Y325230D01*
X150170D01*
X147400Y328000D01*
G01X152400D02*
Y332000D01*
G01Y322016D02*
X157400D01*
G01X152400D02*
X150400D01*
X149416Y323000D01*
X143660D01*
G01X147400Y328000D02*
X143660D01*
G01X147400D02*
X148400Y329000D01*
Y332000D01*
X147400Y333000D01*
X145530D01*
G01X152400Y332000D02*
X157384D01*
X157400Y332016D01*
G01Y338000D02*
X154819Y340581D01*
X154618D01*
G01X152400Y337984D02*
Y335821D01*
X151538Y334959D01*
X147489D01*
X145530Y333000D01*
G01D02*
X143660D01*
G01X156400Y361984D02*
X153384D01*
X152400Y361000D01*
X149400D01*
G01X142786Y374500D02*
Y367180D01*
X142600Y366994D01*
Y365006D01*
X142786Y364820D01*
Y358414D01*
X145249Y355951D01*
X149351D01*
X149400Y356000D01*
G01X156400D02*
X149400D01*
G01X142786Y374500D02*
X146286Y378000D01*
X149361D01*
G01X154100Y416000D02*
X172100D01*
X181100Y407000D01*
G01X156400Y366016D02*
Y361984D01*
G01X186400Y276984D02*
X187372Y277957D01*
X192983D01*
G01X184400Y291000D02*
Y279799D01*
G01X192983Y275398D02*
X189723D01*
X186400Y272074D01*
Y271000D01*
G01D02*
X185691D01*
X183228Y273463D01*
Y278627D01*
X184400Y279799D01*
G01X186739Y297323D02*
X193400D01*
G01X186739D02*
X186400Y296984D01*
X184400D01*
G01D02*
Y301000D01*
G01X179400D02*
Y296984D01*
G01Y291000D02*
X184400D01*
G01X193400Y305000D02*
X188384D01*
X186400Y306984D01*
G01D02*
X184400D01*
G01D02*
X179400Y301984D01*
Y301000D01*
G01X185400Y327984D02*
Y332000D01*
G01X192400Y328000D02*
X190530D01*
X185400Y322870D01*
Y322000D01*
G01X179400Y322016D02*
X182512D01*
X182528Y322000D01*
X185400D01*
G01Y332000D02*
X179400D01*
G01X184400Y354591D02*
Y345000D01*
G01D02*
Y342276D01*
X180109Y337984D01*
X179400D01*
G01X185400D02*
X185416Y338000D01*
X185530D01*
G01X192400D02*
X185530D01*
G01D02*
X190530Y333000D01*
X192400D01*
G01X184400Y379000D02*
Y403700D01*
X181100Y407000D01*
G01X184400Y379000D02*
X195135D01*
X196135Y378000D01*
G01X219400Y291000D02*
X218400D01*
Y283520D01*
X215724Y280844D01*
X199923D01*
X197036Y277957D01*
X192983D01*
G01X192400Y338000D02*
X194270D01*
X196851Y340581D01*
X224618D01*
G01X196135Y378000D02*
X199361D01*
G01X208100Y398284D02*
Y386739D01*
X199361Y378000D01*
G01X210723Y297323D02*
X215190D01*
X215528Y296984D01*
X219400D01*
G01X224400Y301000D02*
Y301984D01*
X219400Y306984D01*
G01X210723Y305000D02*
X217416D01*
X219400Y306984D01*
G01X222400Y322016D02*
X220400D01*
X219416Y323000D01*
X213660D01*
G01X224400Y306984D02*
X225109D01*
X230572Y312447D01*
Y323659D01*
X229001Y325230D01*
X220170D01*
X217400Y328000D01*
G01D02*
X218400Y329000D01*
Y332000D01*
X217400Y333000D01*
X215530D01*
G01X217400Y328000D02*
X213660D01*
G01X222400Y337984D02*
Y335821D01*
X221538Y334959D01*
X217489D01*
X215530Y333000D01*
G01D02*
X213660D01*
G01X212786Y374500D02*
Y367131D01*
X212649Y366994D01*
Y365006D01*
X212786Y364869D01*
Y358414D01*
X215249Y355951D01*
X219351D01*
X219400Y356000D01*
G01X212786Y374500D02*
X216286Y378000D01*
X219361D01*
G01X226400Y372000D02*
Y379984D01*
X208100Y398284D01*
G01X224400Y301000D02*
Y296984D01*
G01X219400Y301000D02*
Y296984D01*
G01X224400Y291000D02*
X219400D01*
G01X222400Y322016D02*
X227400D01*
G01X222400Y328000D02*
Y332000D01*
G01D02*
X227384D01*
X227400Y332016D01*
G01Y338000D02*
X224819Y340581D01*
X224618D01*
G01X226400Y366016D02*
Y361984D01*
G01D02*
X223384D01*
X222400Y361000D01*
X219400D01*
G01X226400Y356000D02*
X219400D01*
G01X224100Y416000D02*
X242100D01*
X251100Y407000D01*
G01X249400Y301000D02*
Y296984D01*
G01Y291000D02*
X254400D01*
G01Y306984D02*
X249400Y301984D01*
Y301000D01*
G01Y322016D02*
X252512D01*
X252528Y322000D01*
X255400D01*
G01Y332000D02*
X249400D01*
G01Y337984D02*
X250109D01*
X254400Y342276D01*
Y345000D01*
G01Y379000D02*
Y403700D01*
X251100Y407000D01*
G01X256400Y276984D02*
X257372Y277957D01*
X262983D01*
G01X289400Y291000D02*
X288400D01*
Y283520D01*
X285724Y280844D01*
X269923D01*
X267036Y277957D01*
X262983D01*
G01X254400Y291000D02*
Y279799D01*
G01X262983Y275398D02*
X259723D01*
X256400Y272074D01*
Y271000D01*
G01D02*
X255691D01*
X253228Y273463D01*
Y278627D01*
X254400Y279799D01*
G01X256739Y297323D02*
X263400D01*
G01X254400Y301000D02*
Y296984D01*
G01D02*
X256400D01*
X256739Y297323D01*
G01X263400Y305000D02*
X258384D01*
X256400Y306984D01*
G01D02*
X254400D01*
G01X255400Y327984D02*
Y332000D01*
G01X262400Y328000D02*
X260530D01*
X255400Y322870D01*
Y322000D01*
G01X254400Y345000D02*
Y354591D01*
G01X255400Y337984D02*
X255416Y338000D01*
X255530D01*
G01X262400D02*
X255530D01*
G01X262400D02*
X264270D01*
X266851Y340581D01*
X293110D01*
G01X255530Y338000D02*
X260530Y333000D01*
X262400D01*
G01X266135Y378000D02*
X269361D01*
G01X254400Y379000D02*
X265135D01*
X266135Y378000D01*
G01X280723Y297323D02*
X285190D01*
X285528Y296984D01*
X289400D01*
G01X280723Y305000D02*
X287416D01*
X289400Y306984D01*
G01X282786Y374500D02*
Y367131D01*
X282649Y366994D01*
Y365006D01*
X282786Y364869D01*
Y358414D01*
X285249Y355951D01*
X289351D01*
X289400Y356000D01*
G01X278100Y398284D02*
Y386739D01*
X269361Y378000D01*
G01X282786Y374500D02*
X286286Y378000D01*
X289361D01*
G01X296400Y372000D02*
Y379984D01*
X278100Y398284D01*
G01X294400Y301000D02*
Y296984D01*
G01X289400Y301000D02*
Y296984D01*
G01X294400Y291000D02*
X289400D01*
G01X294400Y301000D02*
Y301984D01*
X289400Y306984D01*
G01X294400D02*
X295109D01*
X300572Y312447D01*
Y323659D01*
X299000Y325230D01*
X290170D01*
X287400Y328000D01*
G01X292400Y322016D02*
X297400D01*
G01X292400D02*
X290400D01*
X289416Y323000D01*
X283660D01*
G01X292400Y328000D02*
Y332000D01*
G01X287400Y328000D02*
X283660D01*
G01X285530Y333000D02*
X287400D01*
X288400Y332000D01*
Y329000D01*
X287400Y328000D01*
G01X292400Y332000D02*
X297384D01*
X297400Y332016D01*
G01Y338000D02*
X294819Y340581D01*
X293110D01*
G01X283660Y333000D02*
X285530D01*
G01X292400Y337984D02*
Y335821D01*
X291538Y334959D01*
X287489D01*
X285530Y333000D01*
G01X296400Y366016D02*
Y361984D01*
G01D02*
X293384D01*
X292400Y361000D01*
X289400D01*
G01X296400Y356000D02*
X289400D01*
G54D29*
X53400Y297323D03*
Y299882D03*
Y302441D03*
Y305000D03*
X70723Y297323D03*
Y305000D03*
Y302441D03*
Y299882D03*
X123400Y297323D03*
Y299882D03*
Y302441D03*
Y305000D03*
X140723Y297323D03*
Y305000D03*
Y302441D03*
Y299882D03*
X193400Y297323D03*
Y299882D03*
Y302441D03*
Y305000D03*
X210723Y297323D03*
Y305000D03*
Y302441D03*
Y299882D03*
X263400Y297323D03*
Y299882D03*
Y302441D03*
Y305000D03*
X280723Y297323D03*
Y305000D03*
Y302441D03*
Y299882D03*
G54D47*
X308983Y334000D03*
X309983Y370000D03*
X320400Y334000D03*
X321400Y370000D03*
G54D38*
X163094Y15169D03*
X181008D03*
G54D57*
G01X14400Y69984D02*
Y72600D01*
G01X28039Y76439D02*
X30779Y73700D01*
X39700D01*
X47400Y66000D01*
G01X19400Y81000D02*
X16100D01*
G01D02*
X15400D01*
X12400Y78000D01*
G01X18000Y242000D02*
X13400D01*
G01X18000Y256000D02*
X13400D01*
G01X18000Y273000D02*
X13400D01*
G01X18000Y296000D02*
X13400D01*
G01X18000Y329000D02*
X13400D01*
G01X18000Y369000D02*
X13400D01*
G01X14100Y398284D02*
Y391100D01*
G01X33400Y177000D02*
X34100D01*
X36200Y174900D01*
G01X42754Y188118D02*
Y194654D01*
G01Y233000D02*
Y237746D01*
X40300Y240200D01*
X40300Y243400D01*
G01X46400Y247000D02*
X43900D01*
X40300Y243400D01*
G01X40537Y265863D02*
G01Y265863D02*
X41674Y267000D01*
X46400D01*
G01X40537Y265863D02*
X39400Y264726D01*
Y262000D01*
G01Y270268D02*
X33532D01*
G01X39400Y306984D02*
X35616D01*
G01X39400Y328000D02*
X35500D01*
G01X38416Y345000D02*
X35500D01*
G01X47400Y66000D02*
Y71000D01*
X51350Y74950D01*
X55850D01*
X59400Y78500D01*
Y81000D01*
G01X53400Y77500D02*
X50587D01*
X49400Y78687D01*
Y81000D01*
G01X54400D02*
Y78500D01*
X53400Y77500D01*
G01X47400Y177000D02*
X50600D01*
G01X54400D02*
X58000D01*
G01D02*
X61400D01*
G01X45904Y188118D02*
Y194696D01*
G01Y233000D02*
Y236809D01*
X47195Y238100D01*
X51000D01*
G01X46400Y241016D02*
X48084D01*
X51000Y238100D01*
G01X52983Y265161D02*
X58568D01*
G01X46400Y261016D02*
X47372Y260043D01*
X49200D01*
G01D02*
X52983D01*
G01Y272839D02*
X58639D01*
G01X52983Y270280D02*
X58121D01*
G01X50132Y285000D02*
Y289716D01*
G01D02*
X52416Y292000D01*
G01X58400Y285000D02*
X61800D01*
G01X58400Y292000D02*
X62100D01*
G01X53400Y299882D02*
X48518D01*
Y299861D01*
X48516D01*
G01X53400Y302441D02*
X48841D01*
G01X52400Y311000D02*
X49500D01*
G01X58384D02*
X58400Y311016D01*
Y313800D01*
G01Y317000D02*
Y313800D01*
G01X63030Y330500D02*
X55530Y323000D01*
X52400D01*
G01X52416Y317000D02*
Y318716D01*
X54022Y320322D01*
G01X63132Y316000D02*
Y317280D01*
X60772Y319640D01*
Y319655D01*
X60105Y320322D01*
X54022D01*
G01X53132Y345000D02*
X48900D01*
G01X74400Y81000D02*
Y83300D01*
G01X75817Y277957D02*
X75882Y278022D01*
X80428D01*
G01X75817Y270280D02*
X72021D01*
X68500Y273800D01*
G01X69400Y277612D02*
X71614Y275398D01*
G01D02*
Y273994D01*
X72770Y272839D01*
X75817D01*
G01X71614Y275398D02*
X75817D01*
G01X71384Y292000D02*
X73668Y289716D01*
G01D02*
X73684D01*
G01X73668D02*
Y285000D01*
G01X61800D02*
X65400D01*
G01X62100Y292000D02*
X65400D01*
G01X70723Y299882D02*
X75282D01*
G01X71400Y316000D02*
X75700D01*
G01X73660Y338000D02*
X78400D01*
G01X72400Y344000D02*
X74700D01*
G01X61400Y345000D02*
Y349500D01*
G01X66416Y344000D02*
X66400Y344016D01*
Y347000D01*
G01D02*
Y350000D01*
G01X72384D02*
X74800D01*
G01X79400Y366000D02*
X75049D01*
G01X68100Y416000D02*
Y422900D01*
G01X85400Y69984D02*
X90384D01*
G01X86400Y78000D02*
Y81100D01*
G01X79400Y81008D02*
Y83500D01*
G01X93400Y178000D02*
X89700D01*
G01X93400Y195000D02*
X90900D01*
X89700Y193800D01*
G01X82132Y283000D02*
Y279726D01*
X80428Y278022D01*
G01X81416Y275000D02*
Y277034D01*
X80428Y278022D01*
G01X81400Y270000D02*
X81120Y270280D01*
X75817D01*
G01X90400Y283000D02*
X95500D01*
G01X87400Y275000D02*
Y270016D01*
X87384Y270000D01*
G01X90394Y275268D02*
X90126Y275000D01*
X87400D01*
G01X90394Y275268D02*
X94400D01*
G01X87400Y328000D02*
X91200D01*
G01X86400Y345000D02*
X90900D01*
G01X78132D02*
Y349768D01*
G01X84100Y398284D02*
Y391100D01*
G01X104400Y77732D02*
X103668Y77000D01*
X100700D01*
G01D02*
X95400D01*
G01X104400Y86000D02*
X105400Y87000D01*
X108400D01*
G01X99400Y104000D02*
Y107022D01*
X96911Y109511D01*
G01X94400Y267000D02*
Y262800D01*
G01X109400Y262000D02*
X104400D01*
G01X109400Y270268D02*
X108120D01*
X104400Y273988D01*
G01X109400Y306984D02*
X105800D01*
G01X109400Y328000D02*
X106000D01*
G01X108416Y345000D02*
X105400D01*
G01X116400Y35000D02*
X120400D01*
G01X111400Y81016D02*
Y83400D01*
G01Y87000D02*
X108400D01*
G01X122723Y223800D02*
X125000D01*
G01X122983Y265161D02*
X127639D01*
X130700Y262100D01*
Y260800D01*
G01X116400Y261016D02*
Y262900D01*
G01Y267000D02*
X111674D01*
X109400Y264726D01*
Y262000D01*
G01X122983Y272839D02*
X128739D01*
X129100Y273200D01*
G01X122983Y270280D02*
X129420D01*
X135700Y264000D01*
Y259400D01*
G01X122416Y292000D02*
X120132Y289716D01*
G01D02*
X120116D01*
G01X120132D02*
Y285000D01*
G01X123400Y299882D02*
X118518D01*
Y299861D01*
X118516D01*
G01X123400Y302441D02*
X118841D01*
G01X122400Y311000D02*
X119400D01*
G01X133030Y330500D02*
X125530Y323000D01*
X122400D01*
G01X122416Y317000D02*
Y318700D01*
X124038Y320322D01*
G01X123132Y345000D02*
X118700D01*
G01X134400Y87000D02*
X130400D01*
G01X139400Y105000D02*
X139600D01*
X142100Y107500D01*
X142700D01*
G01X139400Y110984D02*
X143084D01*
G01X127700Y218500D02*
X128344Y219144D01*
Y219853D01*
G01X125000Y232800D02*
X127900Y235700D01*
X130400D01*
G01X125000Y223800D02*
X127989D01*
G01X131000Y231800D02*
X134200D01*
G01X131000Y221800D02*
X130291D01*
G01X125000Y223800D02*
Y225080D01*
X128026Y228106D01*
G01X138157Y230800D02*
X137157Y231800D01*
X134200D01*
G01X128026Y228106D02*
Y229535D01*
G01X127989Y223800D02*
X129989Y221800D01*
X130291D01*
G01X128344Y219853D02*
X130291Y221800D01*
G01X128026Y229535D02*
X130291Y231800D01*
X131000D01*
G01X138157Y227834D02*
Y230800D01*
G01D02*
Y233766D01*
G01X134601Y230800D02*
X138157D01*
G01D02*
X141714D01*
G01X125000Y220244D02*
Y223800D01*
G01X145817Y270280D02*
X141920D01*
X138900Y273300D01*
G01X139600Y277412D02*
X141614Y275398D01*
G01X128400Y285000D02*
X131900D01*
G01D02*
X135400D01*
G01X128400Y292000D02*
X131700D01*
G01D02*
X135400D01*
G01X128384Y311000D02*
X128400Y311016D01*
Y313900D01*
G01Y317000D02*
Y313900D01*
G01X133132Y316000D02*
Y317295D01*
X130105Y320322D01*
X124038D01*
G01X131400Y345000D02*
Y349800D01*
G01X136416Y344000D02*
X136400Y344016D01*
Y347000D01*
G01Y350000D02*
Y347000D01*
G01X138100Y416000D02*
Y422900D01*
G01X144400Y86984D02*
X140316D01*
G01X156946Y117000D02*
X154800Y114854D01*
Y112500D01*
G01X148000Y222926D02*
X150890Y225816D01*
G01X155000D02*
X151900D01*
G01X155000Y221800D02*
Y223800D01*
G01D02*
Y225816D01*
G01X150890D02*
X151900D01*
G01X155000Y219937D02*
Y221800D01*
G01X152428D02*
X155000D01*
G01X148000Y219960D02*
Y222926D01*
G01D02*
Y225892D01*
G01Y222926D02*
X151556D01*
G01X152132Y283000D02*
Y279726D01*
X150428Y278022D01*
G01X151416Y275000D02*
Y277034D01*
X150428Y278022D01*
G01X145817Y277957D02*
X145882Y278022D01*
X150428D01*
G01X151400Y270000D02*
X151120Y270280D01*
X145817D01*
G01X141614Y275398D02*
Y273994D01*
X142770Y272839D01*
X145817D01*
G01X141614Y275398D02*
X145817D01*
G01X143668Y285000D02*
Y289716D01*
G01D02*
X141384Y292000D01*
G01X143668Y289716D02*
X143684D01*
G01X140723Y299882D02*
X145282D01*
G01X141400Y316000D02*
X145100D01*
G01X143660Y338000D02*
X148400D01*
G01X142400Y344000D02*
X144856D01*
G01X148132Y345000D02*
Y349868D01*
G01X142384Y350000D02*
X145400D01*
G01X149400Y366000D02*
X145000D01*
G01X154100Y398284D02*
Y391100D01*
G01X163094Y15169D02*
X159331D01*
G01X164400Y86984D02*
Y90100D01*
G01X160400Y105000D02*
Y101700D01*
G01Y110984D02*
Y113297D01*
X160800Y113697D01*
G01X160810Y117000D02*
Y115757D01*
X160800Y115747D01*
Y113697D01*
G01X164400Y267000D02*
Y264274D01*
X165474Y263200D01*
X166700D01*
G01X160400Y283000D02*
X165100D01*
G01X157400Y275000D02*
Y270016D01*
X157384Y270000D01*
G01X160394Y275268D02*
X160126Y275000D01*
X157400D01*
G01X160394Y275268D02*
X164400D01*
G01X157400Y328000D02*
X161100D01*
G01X156400Y345000D02*
X161000D01*
G01X181500Y3358D02*
X185500D01*
G01X181008Y15169D02*
X185669D01*
G01X175384Y26000D02*
X179500D01*
G01X175400Y32000D02*
X179900D01*
G01X184400Y86984D02*
Y90400D01*
G01X174400Y86984D02*
Y90000D01*
G01X182400Y105000D02*
Y101900D01*
G01X187400Y105000D02*
Y101900D01*
G01Y117000D02*
Y110984D01*
G01X172400Y222000D02*
Y225300D01*
G01X186400Y261016D02*
X187316Y260100D01*
X189100D01*
G01X179400Y264726D02*
Y262000D01*
G01X186400Y267000D02*
X181674D01*
X179400Y264726D01*
G01Y270268D02*
Y274900D01*
G01Y306984D02*
X175016D01*
G01X179400Y328000D02*
X175500D01*
G01X178416Y345000D02*
X175000D01*
G01X194400Y86984D02*
X195109D01*
X198600Y90476D01*
G01X192983Y265161D02*
X198039D01*
X199000Y264200D01*
G01X192983Y260043D02*
X189157D01*
X189100Y260100D01*
G01X192983Y270280D02*
X198568D01*
X202400Y266447D01*
Y265000D01*
G01X192983Y272839D02*
X197186D01*
X199100Y274753D01*
Y276200D01*
G01X192416Y292000D02*
X190132Y289716D01*
G01D02*
X190116D01*
G01X190132D02*
Y285000D01*
G01X205400D02*
X201800D01*
G01D02*
X198400D01*
G01Y292000D02*
X202000D01*
G01D02*
X205400D01*
G01X193400Y299882D02*
X188518D01*
Y299861D01*
X188516D01*
G01X193400Y302441D02*
X188841D01*
G01X192400Y311000D02*
X189400D01*
G01X198384D02*
X198400D01*
Y314000D01*
G01Y317000D02*
Y314000D01*
G01X203030Y330500D02*
X195530Y323000D01*
X192400D01*
G01X203132Y316000D02*
Y317295D01*
X200105Y320322D01*
X194022D01*
G01X192416Y317000D02*
Y318716D01*
X194022Y320322D01*
G01X201400Y345000D02*
Y349600D01*
G01X193132Y345000D02*
X189000D01*
G01X217354Y76000D02*
X219008Y77654D01*
Y82200D01*
G01X217354Y70672D02*
Y76000D01*
G01X219008Y86000D02*
Y82200D01*
G01X217145Y86000D02*
X219008D01*
G01D02*
X220871D01*
G01X217354Y76000D02*
Y81328D01*
G01X212026Y76000D02*
X217354D01*
G01D02*
X222682D01*
G01X219500Y93158D02*
Y95500D01*
X227000Y103000D01*
G01X219408D02*
X227000D01*
G01X217519Y93158D02*
X219500D01*
G01X219000Y130016D02*
X214294D01*
X214278Y130032D01*
X212300Y128053D01*
Y121732D01*
X214024Y120008D01*
X219000D01*
G01D02*
Y113342D01*
X219500Y112842D01*
G01X219000Y136000D02*
Y143000D01*
X215795Y146205D01*
Y158000D01*
G01X219000Y125992D02*
X215700D01*
G01X219000Y124129D02*
Y125992D01*
G01D02*
X221572D01*
G01X209400Y154000D02*
Y152500D01*
X206100Y149200D01*
G01X215898Y176000D02*
Y165750D01*
X215795Y165648D01*
Y158000D01*
G01X209400Y174000D02*
Y172200D01*
X206100Y168900D01*
G01X215898Y176000D02*
Y182898D01*
X216000Y183000D01*
G01D02*
Y186000D01*
X218000Y188000D01*
X218701D01*
X221992Y191291D01*
Y192000D01*
G01X209400Y188000D02*
Y186800D01*
X206100Y183500D01*
G01X209400Y199000D02*
Y197800D01*
X206300Y194700D01*
G01X216008Y192000D02*
Y196592D01*
G01Y189428D02*
Y192000D01*
G01X214145D02*
X216008D01*
G01D02*
X217871D01*
G01X218008Y228000D02*
Y231500D01*
G01Y225428D02*
Y228000D01*
G01X216145D02*
X218008D01*
G01D02*
X219871D01*
G01X215817Y277957D02*
X215882Y278022D01*
X220428D01*
G01X215817Y270280D02*
X209720D01*
X206800Y273200D01*
G01X221400Y270000D02*
X221120Y270280D01*
X215817D01*
G01X208600Y278000D02*
X211202Y275398D01*
G01D02*
Y274406D01*
X212770Y272839D01*
X215817D01*
G01X211202Y275398D02*
X215817D01*
G01X213668Y285000D02*
Y289716D01*
G01D02*
X211384Y292000D01*
G01X213668Y289716D02*
X213684D01*
G01X210723Y299882D02*
X215282D01*
G01X211400Y316000D02*
X215700D01*
G01X212400Y344000D02*
X214800D01*
G01X213660Y338000D02*
X218400D01*
G01X206416Y344000D02*
X206400Y344016D01*
Y347300D01*
G01X218132Y345000D02*
Y348968D01*
G01X206400Y350000D02*
Y347300D01*
G01X212384Y350000D02*
X215000D01*
G01X219400Y366000D02*
X215049D01*
G01X208100Y416000D02*
Y422900D01*
G01X229500Y93158D02*
Y88019D01*
G01X233016Y86000D02*
Y87916D01*
X234500Y89400D01*
Y93158D01*
G01X224992Y86000D02*
X224500Y86492D01*
Y93158D01*
G01X227000Y103000D02*
X234592D01*
G01X219500Y93158D02*
X221481D01*
G01X239000Y86000D02*
Y105685D01*
X234500Y110185D01*
Y112842D01*
G01X240205Y158000D02*
Y133205D01*
X234000Y127000D01*
Y122000D01*
G01D02*
X234500Y121500D01*
Y112842D01*
G01X225000Y120008D02*
X224500Y119508D01*
Y112842D01*
G01X234000Y139716D02*
X230276Y135992D01*
X228900D01*
G01X225000D02*
X228900D01*
G01X234000Y135767D02*
Y139716D01*
G01X225000Y134129D02*
Y135992D01*
G01D02*
Y137855D01*
G01X222428Y135992D02*
X225000D01*
G01Y125992D02*
Y130008D01*
G01X234000Y139716D02*
Y143666D01*
G01X230050Y139716D02*
X234000D01*
G01X226866Y192000D02*
Y186066D01*
G01X223192Y177692D02*
X221984Y178900D01*
G01X223192Y177692D02*
X224884Y176000D01*
G01X221984Y178900D02*
Y183000D01*
G01X224884Y176000D02*
X228102D01*
G01X221984Y183000D02*
Y185572D01*
G01X220121Y183000D02*
X221984D01*
G01D02*
X223847D01*
G01X228102Y171755D02*
Y176000D01*
G01D02*
Y180245D01*
G01Y176000D02*
X230871D01*
G01X237500Y199370D02*
Y204000D01*
X236000Y205500D01*
X224329D01*
X222500Y203671D01*
Y199370D01*
G01X237500D02*
Y196700D01*
X235134Y194334D01*
Y192000D01*
G01X221992D02*
Y198862D01*
X222500Y199370D01*
G01X235134Y192000D02*
Y187994D01*
X236728Y186400D01*
X244800D01*
X245992Y187592D01*
Y192000D01*
G01X227500Y199370D02*
X226866Y198736D01*
Y192000D01*
G01D02*
X230301Y195435D01*
G01X230435D02*
X232500Y197500D01*
Y199370D01*
G01X230301Y195435D02*
X230435D01*
G01X230519Y199370D02*
X232500D01*
G01D02*
X234481D01*
G01X225519D02*
X227500D01*
G01D02*
X229481D01*
G01X232500Y215400D02*
Y220630D01*
G01X227500Y216778D02*
Y220630D01*
G01X232500D02*
Y223800D01*
X233700Y225000D01*
X237134D01*
G01X223992Y228000D02*
Y231500D01*
G01X228866Y229000D02*
X227500Y227634D01*
Y225000D01*
G01Y220630D02*
Y225000D01*
G01X225519Y220630D02*
X227500D01*
G01D02*
X229481D01*
G01X228866Y225444D02*
Y229000D01*
G01D02*
Y232556D01*
G01Y229000D02*
X231143D01*
G01X234400Y267000D02*
Y262500D01*
G01X222132Y283000D02*
Y279726D01*
X220428Y278022D01*
G01X221416Y275000D02*
Y277034D01*
X220428Y278022D01*
G01X230400Y283000D02*
X234500D01*
G01X227400Y275000D02*
X230126D01*
X230394Y275268D01*
X234400D01*
G01X227384Y270000D02*
Y274984D01*
X227400Y275000D01*
G01D02*
Y278100D01*
G01Y328000D02*
X231100D01*
G01X226400Y345000D02*
X230900D01*
G01X224100Y398284D02*
Y391100D01*
G01X236646Y76000D02*
Y81646D01*
G01X248026Y76000D02*
X253354D01*
G01X255000Y130016D02*
X250278D01*
X248300Y128038D01*
Y121716D01*
X250016Y120000D01*
X255000D01*
G01Y125984D02*
X250984D01*
G01X250866Y192000D02*
Y185534D01*
G01X259500Y199370D02*
Y203271D01*
X257771Y205000D01*
X245829D01*
X244500Y203671D01*
Y199370D01*
G01X245992Y192000D02*
Y194208D01*
X244500Y195700D01*
Y199370D01*
G01X249500D02*
Y193366D01*
X250866Y192000D01*
G01X241100Y197800D02*
Y195800D01*
X240008Y194708D01*
G01X250866Y192000D02*
X254500Y195634D01*
G01X240008Y194708D02*
Y192000D01*
G01X247519Y199370D02*
X249500D01*
G01D02*
X251481D01*
G01X240008Y189428D02*
Y192000D01*
G01D02*
X241871D01*
G01X249500Y216778D02*
Y220630D01*
G01X247992Y228000D02*
Y231408D01*
G01X237500Y220630D02*
X237134Y220996D01*
Y225000D01*
G01Y229000D02*
Y225000D01*
G01X252866Y229000D02*
Y226766D01*
X251349Y225249D01*
G01X249500Y220630D02*
Y223400D01*
X251349Y225249D01*
G01X242008Y228000D02*
Y231508D01*
G01X247519Y220630D02*
X249500D01*
G01D02*
X251481D01*
G01X242008Y225428D02*
Y228000D01*
G01D02*
X243871D01*
G01X256400Y267000D02*
X251674D01*
X249400Y264726D01*
Y262000D01*
G01X243400Y262300D02*
X243700Y262000D01*
X249400D01*
G01Y270268D02*
Y274800D01*
G01Y306984D02*
X244916D01*
G01X249400Y328000D02*
X245600D01*
G01X248416Y345000D02*
X245200D01*
G01X260589Y14000D02*
X266400Y19811D01*
Y37378D01*
X260589Y43189D01*
G01X253354Y76000D02*
X255008Y77654D01*
Y81800D01*
G01X253354Y70672D02*
Y76000D01*
G01X265500Y93158D02*
Y88100D01*
G01X255008Y86000D02*
Y81800D01*
G01X253145Y86000D02*
X255008D01*
G01D02*
X256871D01*
G01X253354Y76000D02*
Y81328D01*
G01Y76000D02*
X258682D01*
G01X260992Y86000D02*
X260500Y86492D01*
Y93158D01*
G01X255500D02*
Y95500D01*
X263000Y103000D01*
G01X255408D02*
X263000D01*
G01D02*
X270592D01*
G01X253519Y93158D02*
X255500D01*
G01D02*
X257481D01*
G01X255000Y120000D02*
Y113342D01*
X255500Y112842D01*
G01X261000Y120008D02*
X260500Y119508D01*
Y112842D01*
G01X270000Y139716D02*
X266276Y135992D01*
X265000D01*
G01X261000D02*
X265000D01*
G01X261000Y134129D02*
Y135992D01*
G01D02*
Y137855D01*
G01X258428Y135992D02*
X261000D01*
G01X255000Y124121D02*
Y125984D01*
G01D02*
X257572D01*
G01X255000Y136000D02*
Y142000D01*
X251795Y145205D01*
Y158000D01*
G01X261000Y125992D02*
Y130008D01*
G01X266050Y139716D02*
X270000D01*
G01X263795Y176000D02*
Y171305D01*
X261101Y168611D01*
X254759D01*
X251795Y165648D01*
Y158000D01*
G01X263795Y176000D02*
Y182795D01*
X264000Y183000D01*
G01D02*
Y186000D01*
X266000Y188000D01*
Y191984D01*
X266016Y192000D01*
G01X259134D02*
X259500Y192366D01*
Y199370D01*
G01X254500Y195634D02*
Y199370D01*
G01X252519D02*
X254500D01*
G01D02*
X256481D01*
G01X266500D02*
Y203671D01*
X268829Y206000D01*
X279171D01*
X281500Y203671D01*
Y199370D01*
G01X266016Y192000D02*
Y198886D01*
X266500Y199370D01*
G01X254500Y215300D02*
Y220630D01*
G01X259500D02*
Y225200D01*
G01X261134Y229000D02*
X259500Y227366D01*
Y225200D01*
G01X254500Y220630D02*
Y224100D01*
X255600Y225200D01*
X259500D01*
G01X266008Y228000D02*
Y221122D01*
X266500Y220630D01*
G01X252866Y229000D02*
Y232556D01*
G01Y229000D02*
X255143D01*
G01X262983Y265161D02*
X268239D01*
X270800Y262600D01*
G01X256400Y261016D02*
Y263379D01*
G01X262983Y272839D02*
X268139D01*
X269400Y274100D01*
G01X262983Y270280D02*
X271120D01*
X273400Y268000D01*
G01X260132Y285000D02*
Y289716D01*
G01D02*
X260184D01*
G01X260132D02*
X262416Y292000D01*
G01X263400Y299882D02*
X258518D01*
Y299861D01*
X258516D01*
G01X263400Y302441D02*
X258841D01*
G01X262400Y311000D02*
X259600D01*
G01X273030Y330500D02*
X265530Y323000D01*
X262400D01*
G01X273132Y316000D02*
Y317295D01*
X270105Y320322D01*
X264038D01*
G01Y320338D02*
Y320322D01*
G01D02*
X262416Y318700D01*
Y317000D01*
G01X263132Y345000D02*
X259200D01*
G01X272646Y76000D02*
Y81946D01*
G01X269016Y86000D02*
Y87916D01*
X270500Y89400D01*
Y93158D01*
G01X275000Y86000D02*
Y105685D01*
X270500Y110185D01*
Y112842D01*
G01X276205Y158000D02*
Y133205D01*
X270000Y127000D01*
Y122000D01*
G01D02*
X270500Y121500D01*
Y112842D01*
G01X270000Y135767D02*
Y139716D01*
G01D02*
Y143666D01*
G01X270941Y177841D02*
X272782Y176000D01*
G01X270941Y177841D02*
X269984Y178797D01*
G01X272782Y176000D02*
X276000D01*
G01X269984Y178797D02*
Y183000D01*
G01D02*
Y185572D01*
G01X268121Y183000D02*
X269984D01*
G01D02*
X271847D01*
G01X276000Y171755D02*
Y176000D01*
G01D02*
Y180245D01*
G01Y176000D02*
X278769D01*
G01X276500Y199370D02*
X276000Y198870D01*
Y195100D01*
G01Y192000D02*
Y195100D01*
G01X271500Y199370D02*
X272000Y198870D01*
Y195100D01*
G01Y192000D02*
Y195100D01*
G01Y189428D02*
Y192000D01*
G01X270137D02*
X272000D01*
G01D02*
X273863D01*
G01X271500Y195519D02*
Y199370D01*
G01D02*
Y203222D01*
G01X269519Y199370D02*
X271500D01*
G01D02*
X273481D01*
G01X276500Y195519D02*
Y199370D01*
G01D02*
Y203222D01*
G01X274519Y199370D02*
X276500D01*
G01D02*
X278481D01*
G01X276000Y189428D02*
Y192000D01*
G01X274137D02*
X276000D01*
G01D02*
X277863D01*
G01X288016D02*
X281984D01*
G01D02*
Y198886D01*
X281500Y199370D01*
G01X271500Y220630D02*
Y214700D01*
G01X272866Y235000D02*
X276008Y231858D01*
G01D02*
Y228000D01*
G01X272866Y231444D02*
Y235000D01*
G01D02*
Y238556D01*
G01X270590Y235000D02*
X272866D01*
G01D02*
X275143D01*
G01X269519Y220630D02*
X271500D01*
G01D02*
X273481D01*
G01X281500D02*
X281992Y221122D01*
Y225000D01*
G01X281134Y235000D02*
X281992Y234142D01*
Y231000D01*
G01D02*
Y228000D01*
G01D02*
Y225000D01*
G01X274316Y224508D02*
X274416D01*
Y224565D01*
G01D02*
X274435D01*
X276500Y222500D01*
Y220630D01*
G01X274416Y224565D02*
X271992Y226989D01*
Y228000D01*
G01X285817Y270280D02*
X279720D01*
G01X285817Y275398D02*
X280098D01*
G01X285817Y272839D02*
X282657D01*
X280098Y275398D01*
G01X283668Y289716D02*
X281384Y292000D01*
G01X268400Y285000D02*
X271900D01*
G01D02*
X275400D01*
G01X268400Y292000D02*
X271900D01*
G01D02*
X275400D01*
G01X280723Y299882D02*
X285282D01*
G01X268400Y317000D02*
X268384Y316984D01*
Y313900D01*
G01Y311000D02*
Y313900D01*
G01X281400Y316000D02*
X285100D01*
G01X282400Y344000D02*
X284600D01*
G01X271400Y345000D02*
Y349800D01*
G01X276416Y344000D02*
X276400Y344016D01*
Y347200D01*
G01Y350000D02*
Y347200D01*
G01X282384Y350000D02*
X285200D01*
G01X278100Y416000D02*
Y422900D01*
G01X285400Y33016D02*
Y29800D01*
G01X291008Y82000D02*
Y77654D01*
X289354Y76000D01*
G01Y70672D02*
Y76000D01*
G01X291008Y86000D02*
Y82000D01*
G01D02*
X291000D01*
G01X289145Y86000D02*
X291008D01*
G01D02*
X292871D01*
G01X289354Y76000D02*
Y81328D01*
G01X284026Y76000D02*
X289354D01*
G01D02*
X294682D01*
G01X296992Y86000D02*
X296500Y86492D01*
Y93158D01*
G01X291500D02*
Y95500D01*
X299000Y103000D01*
G01X291408D02*
X299000D01*
G01D02*
X306592D01*
G01X289519Y93158D02*
X291500D01*
G01D02*
X293481D01*
G01X297000Y120008D02*
X296500Y119508D01*
Y112842D01*
G01X291500D02*
Y120008D01*
G01D02*
X286516D01*
X284800Y121724D01*
Y128045D01*
X286778Y130024D01*
X286794Y130008D01*
X291500D01*
G01X297000Y135992D02*
X301400D01*
G01X291500Y125992D02*
X287708D01*
G01X297000Y134129D02*
Y135992D01*
G01D02*
Y137855D01*
G01X291500Y138900D02*
Y135992D01*
G01Y138900D02*
Y142500D01*
X287795Y146205D01*
Y158000D01*
G01X297000Y125992D02*
Y130008D01*
G01X287795Y158000D02*
Y160461D01*
G01X310992Y176000D02*
Y172978D01*
X307114Y169100D01*
X296435D01*
X287795Y160461D01*
G01D02*
Y165648D01*
X287898Y165750D01*
Y176000D01*
G01X297334D02*
X300102D01*
G01X298500Y199370D02*
X298000Y198870D01*
Y195000D01*
G01Y192000D02*
Y195000D01*
G01X293500Y199370D02*
X294000Y198870D01*
Y195100D01*
G01Y192000D02*
Y195100D01*
G01X298000Y189428D02*
Y192000D01*
G01X296137D02*
X298000D01*
G01D02*
X299863D01*
G01X293500Y195519D02*
Y199370D01*
G01D02*
Y203222D01*
G01X291519Y199370D02*
X293500D01*
G01D02*
X295481D01*
G01X298500Y195519D02*
Y199370D01*
G01D02*
Y203222D01*
G01X296519Y199370D02*
X298500D01*
G01D02*
X300481D01*
G01X294000Y189428D02*
Y192000D01*
G01X292137D02*
X294000D01*
G01D02*
X295863D01*
G01X303500Y199370D02*
Y203671D01*
X301171Y206000D01*
X290829D01*
X288500Y203671D01*
Y199370D01*
G01X288016Y192000D02*
Y198886D01*
X288500Y199370D01*
G01X293500Y220630D02*
Y215400D01*
G01X288008Y228000D02*
Y221122D01*
X288500Y220630D01*
G01X296316Y224508D02*
X296416D01*
Y224565D01*
G01D02*
X296435D01*
X298500Y222500D01*
Y220630D01*
G01X296416Y224565D02*
X293992Y226989D01*
Y228000D01*
G01X294866Y235000D02*
X298008Y231858D01*
G01D02*
Y228000D01*
G01X294866Y231444D02*
Y235000D01*
G01D02*
Y238556D01*
G01X292590Y235000D02*
X294866D01*
G01D02*
X297143D01*
G01X291519Y220630D02*
X293500D01*
G01D02*
X295481D01*
G01X292132Y283000D02*
Y279726D01*
X290428Y278022D01*
G01X291416Y275000D02*
Y277034D01*
X290428Y278022D01*
G01X285817Y277957D02*
X285882Y278022D01*
X290428D01*
G01X291400Y270000D02*
X291120Y270280D01*
X285817D01*
G01X297384Y270000D02*
X298400D01*
X299900Y271500D01*
G01X299713Y275000D02*
X297400D01*
G01X283684Y289716D02*
X283668D01*
G01D02*
Y285000D01*
G01X297400Y328000D02*
X300900D01*
G01X283660Y338000D02*
X288400D01*
G01X296400Y345000D02*
X303378D01*
G01X288132D02*
Y349332D01*
G01X289400Y366000D02*
X285049D01*
G01X301500Y93158D02*
Y88000D01*
G01X308646Y76000D02*
Y81854D01*
G01X311000Y86000D02*
Y105685D01*
X306500Y110185D01*
Y112842D01*
G01X305016Y86000D02*
Y87816D01*
X306500Y89300D01*
Y93158D01*
G01X312205Y158000D02*
Y133205D01*
X306000Y127000D01*
Y122000D01*
G01D02*
X306500Y121500D01*
Y112842D01*
G01X306000Y139716D02*
X302276Y135992D01*
X301400D01*
G01X306000Y135767D02*
Y139716D01*
G01D02*
Y143666D01*
G01X302050Y139716D02*
X306000D01*
G01X305008Y176000D02*
X303000D01*
G01D02*
X300102D01*
G01X305008Y173428D02*
Y176000D01*
G01D02*
Y178572D01*
G01Y176000D02*
X306871D01*
G01X300102Y171755D02*
Y176000D01*
G01D02*
Y180245D01*
G01X310016Y192000D02*
Y179998D01*
X310992Y179022D01*
Y176000D01*
G01X315992Y195030D02*
Y198878D01*
X315500Y199370D01*
G01X313519D02*
X315500D01*
G01X314137Y192000D02*
X316000D01*
G01X303984D02*
Y198886D01*
X303500Y199370D01*
G01X325500D02*
Y203671D01*
X324171Y205000D01*
X311829D01*
X310500Y203671D01*
Y199370D01*
G01X310016Y192000D02*
X310500Y192484D01*
Y199370D01*
G01X310008Y228000D02*
Y221122D01*
X310500Y220630D01*
G01X303500D02*
X303992Y221122D01*
Y225000D01*
G01X303134Y235000D02*
X303992Y234142D01*
Y231000D01*
G01Y225000D02*
Y228000D01*
G01D02*
Y231000D01*
G01X314590Y235000D02*
X316866D01*
G01X313519Y220630D02*
X315500D01*
G01X313400Y264016D02*
X313416Y264000D01*
X319534D01*
G01X304400Y267000D02*
Y261900D01*
G01X319534Y279000D02*
X314600D01*
G01X300400Y283000D02*
X304600D01*
G01X304400Y275268D02*
X299981D01*
X299713Y275000D01*
G01X312400Y290984D02*
X308584D01*
G01X312400Y295016D02*
X313384Y296000D01*
X319140D01*
G01X312400Y285000D02*
X308600D01*
G01X312400Y301000D02*
X308400D01*
G01X312400Y308000D02*
X309300D01*
G01X307345Y319740D02*
X303460D01*
G01X308400Y343000D02*
X305378D01*
X303378Y345000D01*
G01X308983Y339778D02*
X308400Y340360D01*
Y343000D01*
G01X308983Y339778D02*
Y334000D01*
G01X320400D02*
X319743D01*
X313723Y340020D01*
Y342677D01*
G01X308400Y354000D02*
Y356500D01*
G01X313723Y360000D02*
Y362600D01*
X312400Y363922D01*
X310400D01*
X308400Y361922D01*
Y359984D01*
G01Y348984D02*
X305128D01*
X303400Y350712D01*
Y358256D01*
X305128Y359984D01*
X308400D01*
G01X309983Y370000D02*
X304400D01*
G01X330323Y94677D02*
Y90632D01*
X331000Y89955D01*
Y78646D01*
X328354Y76000D01*
G01X322000Y84110D02*
X323890Y86000D01*
X325200D01*
G01D02*
X328000D01*
G01Y83428D02*
Y86000D01*
G01D02*
Y88572D01*
G01X322000Y81046D02*
Y84110D01*
G01D02*
Y87174D01*
G01X319723Y84110D02*
X322000D01*
G01D02*
X324277D01*
G01X329719Y103339D02*
X334161D01*
G01X323795Y160000D02*
Y149795D01*
X317587Y143587D01*
Y107000D01*
X320720Y103866D01*
X322000D01*
G01D02*
Y97890D01*
G01X328025Y100025D02*
X330323Y97727D01*
Y94677D01*
G01Y112000D02*
Y115908D01*
X329230Y117000D01*
X324140D01*
X323795Y116656D01*
G01Y130000D02*
Y116656D01*
G01D02*
X322000Y114860D01*
Y112134D01*
G01X320500Y199370D02*
X320000Y198870D01*
Y195100D01*
G01Y192000D02*
Y195100D01*
G01X316000Y192000D02*
Y195022D01*
G01D02*
X315992Y195030D01*
G01X320500Y195519D02*
Y199370D01*
G01X318519D02*
X320500D01*
G01D02*
X322481D01*
G01X320000Y189428D02*
Y192000D01*
G01X318137D02*
X320000D01*
G01D02*
X321863D01*
G01X315500Y195519D02*
Y199370D01*
G01D02*
X317481D01*
G01X316000Y189428D02*
Y192000D01*
G01D02*
X317863D01*
G01X325984D02*
X325500Y192484D01*
Y199370D01*
G01X315500Y220630D02*
Y215000D01*
G01X320500Y220630D02*
Y222500D01*
X318435Y224565D01*
G01D02*
Y224502D01*
X318311D01*
G01X318435Y224565D02*
X318416D01*
X315992Y226989D01*
Y228000D01*
G01X325992D02*
Y231000D01*
G01Y225000D02*
Y228000D01*
G01X325134Y235000D02*
X325992Y234142D01*
Y231000D01*
G01X325500Y220630D02*
X325992Y221122D01*
Y225000D01*
G01X316866Y235000D02*
X320008Y231858D01*
G01D02*
Y228000D01*
G01X316866Y231444D02*
Y235000D01*
G01D02*
Y238556D01*
G01Y235000D02*
X319143D01*
G01X315500Y220630D02*
X317481D01*
G01X319534Y264000D02*
X329000D01*
G01D02*
X334000Y269000D01*
X340400D01*
G01X319140Y291000D02*
X323591D01*
G01X347400Y301000D02*
X344400Y304000D01*
X332400D01*
X324400Y296000D01*
X319140D01*
G01X318384Y308000D02*
Y311585D01*
G01D02*
X318400D01*
G01X318384D02*
X316400Y313569D01*
Y316000D01*
G01X326400Y312000D02*
X328384Y313984D01*
Y322000D01*
G01X322400D02*
X320920Y323480D01*
X316400D01*
G01X328384Y322000D02*
X332416D01*
G01X333400Y342520D02*
X327896D01*
X327400Y343016D01*
G01X321400Y342677D02*
Y335000D01*
X320400Y334000D01*
G01D02*
X318841Y335559D01*
Y342677D01*
G01X327400Y343016D02*
Y336207D01*
X325193Y334000D01*
X320400D01*
G01X333400Y355520D02*
X330182D01*
X327300Y352638D01*
G01X327400Y349000D02*
X327300Y349100D01*
Y352638D01*
G01X318841Y360000D02*
Y352618D01*
G01X323139Y351339D02*
X317561D01*
G01X321400Y360000D02*
Y355177D01*
X318841Y352618D01*
G01X317561Y351339D02*
X316282Y352618D01*
Y360000D01*
G01X321400D02*
Y363600D01*
G01X318841Y352618D02*
X317561Y351339D01*
G01X321400Y370000D02*
Y376300D01*
G01X345981Y89300D02*
Y89219D01*
X346000Y89200D01*
G01X345981Y89300D02*
X345900Y89381D01*
Y90108D01*
G01X346000Y89200D02*
Y86000D01*
G01X345900Y90108D02*
X344008Y92000D01*
G01Y89428D02*
Y92000D01*
G01X346000Y83428D02*
Y86000D01*
G01X344137D02*
X346000D01*
G01D02*
X347863D01*
G01X342318Y76000D02*
X347646D01*
G01X340016Y86000D02*
Y89463D01*
X339009Y90470D01*
X336991D01*
X335441Y92020D01*
Y94677D01*
G01X333984Y86000D02*
Y90224D01*
X332882Y91326D01*
Y94677D01*
G01X334161Y103339D02*
X338000Y99500D01*
Y94677D01*
G01X344008Y92000D02*
Y94572D01*
G01X342145Y92000D02*
X344008D01*
G01D02*
X345871D01*
G01X334161Y99290D02*
Y103339D01*
G01D02*
Y107387D01*
G01Y103339D02*
X338603D01*
G01X344008Y110000D02*
Y104000D01*
G01X335441Y112000D02*
Y116441D01*
X338806Y119806D01*
X344194D01*
X347000Y117000D01*
Y101701D01*
X344008Y98709D01*
Y98000D01*
G01X338000Y112000D02*
Y113772D01*
X340228Y116000D01*
X343000D01*
X344000Y115000D01*
Y113030D01*
X344008Y113022D01*
Y110000D01*
G01X348205Y130000D02*
X342000D01*
X333000Y121000D01*
G01D02*
X332882Y120882D01*
Y112000D01*
G01X347134Y179000D02*
Y168718D01*
X348205Y167648D01*
Y160000D01*
G01X347134Y179000D02*
Y183666D01*
X342000Y188800D01*
Y192000D01*
G01X338866Y179000D02*
X334100D01*
G01X338866Y175444D02*
Y179000D01*
G01D02*
Y182556D01*
G01Y179000D02*
X341143D01*
G01X341992Y199000D02*
Y195030D01*
X342000Y195022D01*
Y192000D01*
G01X341992Y199000D02*
X341914D01*
X339666Y201248D01*
X339650D01*
X338000Y202898D01*
Y204276D01*
G01X336016Y195022D02*
Y192000D01*
G01X336008Y199000D02*
Y195030D01*
G01X332100Y199200D02*
Y200738D01*
G01X336008Y195030D02*
X336016Y195022D01*
G01X332100Y200738D02*
X334260Y202898D01*
Y204276D01*
G01X334145Y199000D02*
X336008D01*
G01D02*
X337871D01*
G01X336016Y189428D02*
Y192000D01*
G01X334153D02*
X336016D01*
G01D02*
X337879D01*
G01X334016Y217978D02*
Y221000D01*
G01X334260Y213724D02*
Y217734D01*
X334016Y217978D01*
G01X348000Y211984D02*
X347291D01*
X341740Y206433D01*
Y204276D01*
G01Y213724D02*
Y212346D01*
X338000Y208606D01*
Y204276D01*
G01X340000Y218428D02*
Y221000D01*
G01X334260Y204276D02*
Y207536D01*
G01X332377Y204276D02*
X334260D01*
G01X334016Y221000D02*
Y224000D01*
G01X333732Y228000D02*
X334016Y227716D01*
Y224000D01*
G01X342000Y228000D02*
Y223400D01*
G01D02*
Y223000D01*
G01Y223400D02*
X342101Y223501D01*
G01X342000Y223000D02*
X340000Y221000D01*
G01X342000Y228000D02*
Y231556D01*
G01X339723Y228000D02*
X342000D01*
G01D02*
X344277D01*
G01X340000Y221000D02*
Y223572D01*
G01X338137Y221000D02*
X340000D01*
G01D02*
X341863D01*
G01X347400Y268984D02*
X347384Y269000D01*
X340400D01*
G01X336700Y282400D02*
X343224D01*
X345824Y285000D01*
X347400D01*
G01Y290984D02*
X347384Y291000D01*
X340400D01*
G01X348384Y322000D02*
X349929D01*
X352500Y319429D01*
Y301073D01*
X349306Y297879D01*
X344883D01*
X343004Y296000D01*
X340400D01*
G01Y301000D02*
X335800D01*
X334300Y299500D01*
G01X345691Y312000D02*
X339914D01*
X338400Y313514D01*
Y317300D01*
G01X332416Y322000D02*
Y322709D01*
X335029Y325322D01*
X341350D01*
X342400Y324272D01*
Y322000D01*
G01X338400D02*
Y317300D01*
G01X345140Y346268D02*
Y346260D01*
G01D02*
X347400Y344000D01*
G01X345140Y346260D02*
X342455D01*
G01X333400Y335500D02*
Y342520D01*
G01X347400Y359984D02*
X346676Y359260D01*
X342455D01*
G01X347400Y349984D02*
X344128D01*
X344112Y350000D01*
X333400D01*
G01X347646Y70672D02*
Y76000D01*
G01D02*
X354000D01*
G01X347646D02*
Y81328D01*
G01X349992Y104000D02*
Y110000D01*
G01Y92000D02*
Y98000D01*
G01Y110000D02*
Y114192D01*
X351400Y115600D01*
G01X348200Y150800D02*
Y159995D01*
X348205Y160000D01*
G01X348000Y206000D02*
Y203000D01*
G01X347400Y263000D02*
Y265200D01*
G01Y295016D02*
Y290984D01*
G01Y344000D02*
Y341537D01*
G01Y354000D02*
Y349984D01*
G54D39*
X204400Y73000D03*
G54D48*
X313723Y342677D03*
Y360000D03*
X330323Y94677D03*
Y112000D03*
X321400Y342677D03*
X318841D03*
X316282D03*
Y360000D03*
X318841D03*
X321400D03*
X338000Y94677D03*
X335441D03*
X332882D03*
Y112000D03*
X335441D03*
X338000D03*
G54D49*
X317561Y351339D03*
X334161Y103339D03*
M02*
